<svg xmlns="http://www.w3.org/2000/svg" xmlns:xlink="http://www.w3.org/1999/xlink" width="24" height="24"
  viewBox="0 0 24 24" fill="none">
  <g opacity="1" transform="translate(0 0)  rotate(0)">
    <g mask="url(#bg-mask-0)">
      <path id="直线 1 (轮廓)" fill-rule="evenodd" style="fill:#495AD4" opacity="1"
        d="M12.5996 11.9999C12.5996 11.9599 12.5996 11.9199 12.5896 11.8799C12.5796 11.8399 12.5696 11.8099 12.5496 11.7699C12.5396 11.7299 12.5196 11.6999 12.4996 11.6699C12.4796 11.6299 12.4496 11.5999 12.4196 11.5799C12.3996 11.5499 12.3696 11.5199 12.3296 11.4999C12.2996 11.4799 12.2696 11.4599 12.2296 11.4499C12.1896 11.4299 12.1596 11.4199 12.1196 11.4099C12.0796 11.3999 12.0396 11.3999 11.9996 11.3999C11.9596 11.3999 11.9196 11.3999 11.8796 11.4099C11.8396 11.4199 11.8096 11.4299 11.7696 11.4499C11.7296 11.4599 11.6996 11.4799 11.6696 11.4999C11.6296 11.5199 11.5996 11.5499 11.5796 11.5799C11.5496 11.5999 11.5196 11.6299 11.4996 11.6699C11.4796 11.6999 11.4596 11.7299 11.4496 11.7699C11.4296 11.8099 11.4196 11.8399 11.4096 11.8799C11.3996 11.9199 11.3996 11.9599 11.3996 11.9999L11.3996 15.9999C11.3996 16.0399 11.3996 16.0799 11.4096 16.1199C11.4196 16.1599 11.4296 16.1899 11.4496 16.2299C11.4596 16.2699 11.4796 16.2999 11.4996 16.3299C11.5196 16.3699 11.5496 16.3999 11.5796 16.4199C11.5996 16.4499 11.6296 16.4799 11.6696 16.4999C11.6996 16.5199 11.7296 16.5399 11.7696 16.5499C11.8096 16.5699 11.8396 16.5799 11.8796 16.5899C11.9196 16.5999 11.9596 16.5999 11.9996 16.5999C12.0396 16.5999 12.0796 16.5999 12.1196 16.5899C12.1596 16.5799 12.1896 16.5699 12.2296 16.5499C12.2696 16.5399 12.2996 16.5199 12.3296 16.4999C12.3696 16.4799 12.3996 16.4499 12.4196 16.4199C12.4496 16.3999 12.4796 16.3699 12.4996 16.3299C12.5196 16.2999 12.5396 16.2699 12.5496 16.2299C12.5696 16.1899 12.5796 16.1599 12.5896 16.1199C12.5996 16.0799 12.5996 16.0399 12.5996 15.9999L12.5996 11.9999Z">
      </path>
      <path id="直线 2 (轮廓)" fill-rule="evenodd" style="fill:#495AD4" opacity="1"
        d="M12.0004 11.3999C11.9604 11.3999 11.9204 11.3999 11.8804 11.4099C11.8404 11.4199 11.8104 11.4299 11.7704 11.4499C11.7304 11.4599 11.7004 11.4799 11.6704 11.4999C11.6304 11.5199 11.6004 11.5499 11.5804 11.5799C11.5504 11.5999 11.5204 11.6299 11.5004 11.6699C11.4804 11.6999 11.4604 11.7299 11.4504 11.7699C11.4304 11.8099 11.4204 11.8399 11.4104 11.8799C11.4004 11.9199 11.4004 11.9599 11.4004 11.9999C11.4004 12.0399 11.4004 12.0799 11.4104 12.1199C11.4204 12.1599 11.4304 12.1899 11.4504 12.2299C11.4604 12.2699 11.4804 12.2999 11.5004 12.3299C11.5204 12.3699 11.5504 12.3999 11.5804 12.4199C11.6004 12.4499 11.6304 12.4799 11.6704 12.4999C11.7004 12.5199 11.7304 12.5399 11.7704 12.5499C11.8104 12.5699 11.8404 12.5799 11.8804 12.5899C11.9204 12.5999 11.9604 12.5999 12.0004 12.5999L16.0004 12.5999C16.0404 12.5999 16.0804 12.5999 16.1204 12.5899C16.1604 12.5799 16.1904 12.5699 16.2304 12.5499C16.2704 12.5399 16.3004 12.5199 16.3304 12.4999C16.3704 12.4799 16.4004 12.4499 16.4204 12.4199C16.4504 12.3999 16.4804 12.3699 16.5004 12.3299C16.5204 12.2999 16.5404 12.2699 16.5504 12.2299C16.5704 12.1899 16.5804 12.1599 16.5904 12.1199C16.6004 12.0799 16.6004 12.0399 16.6004 11.9999C16.6004 11.9599 16.6004 11.9199 16.5904 11.8799C16.5804 11.8399 16.5704 11.8099 16.5504 11.7699C16.5404 11.7299 16.5204 11.6999 16.5004 11.6699C16.4804 11.6299 16.4504 11.5999 16.4204 11.5799C16.4004 11.5499 16.3704 11.5199 16.3304 11.4999C16.3004 11.4799 16.2704 11.4599 16.2304 11.4499C16.1904 11.4299 16.1604 11.4199 16.1204 11.4099C16.0804 11.3999 16.0404 11.3999 16.0004 11.3999L12.0004 11.3999Z">
      </path>
      <path id="直线 3 (轮廓)" fill-rule="evenodd" style="fill:#495AD4" opacity="1"
        d="M12.4243 11.5756C12.396 11.5473 12.3677 11.5191 12.3323 11.4978C12.297 11.4766 12.2687 11.4625 12.2263 11.4484C12.1909 11.4271 12.1556 11.4201 12.1202 11.413C12.0778 11.3989 12.0354 11.3989 12 11.4059C11.9646 11.3989 11.9222 11.3989 11.8798 11.413C11.8444 11.4201 11.8091 11.4271 11.7737 11.4484C11.7313 11.4625 11.703 11.4766 11.6677 11.4978C11.6323 11.5191 11.604 11.5473 11.5757 11.5756C11.5475 11.6039 11.5192 11.6322 11.498 11.6676C11.4767 11.7029 11.4626 11.7312 11.4485 11.7736C11.4272 11.809 11.4202 11.8443 11.4131 11.8797C11.399 11.9221 11.399 11.9645 11.406 11.9999C11.399 12.0353 11.399 12.0777 11.4131 12.1201C11.4202 12.1555 11.4272 12.1908 11.4485 12.2262C11.4626 12.2686 11.4767 12.2969 11.498 12.3322C11.5192 12.3676 11.5475 12.3959 11.5757 12.4242L17.176 18.0244C17.2043 18.0527 17.2326 18.081 17.2679 18.1022C17.3033 18.1234 17.3316 18.1376 17.374 18.1517C17.4094 18.1729 17.4447 18.18 17.4801 18.1871C17.5225 18.2012 17.5649 18.2012 17.6003 18.1942C17.6356 18.2012 17.6781 18.2012 17.7205 18.1871C17.7558 18.18 17.7912 18.1729 17.8266 18.1517C17.869 18.1376 17.8973 18.1234 17.9326 18.1022C17.968 18.081 17.9963 18.0527 18.0245 18.0244C18.0528 17.9962 18.0811 17.9679 18.1023 17.9325C18.1235 17.8972 18.1377 17.8689 18.1518 17.8265C18.173 17.7911 18.1801 17.7557 18.1872 17.7204C18.2013 17.678 18.2013 17.6355 18.1943 17.6002C18.2013 17.5648 18.2013 17.5224 18.1872 17.48C18.1801 17.4446 18.173 17.4093 18.1518 17.3739C18.1377 17.3315 18.1235 17.3032 18.1023 17.2678C18.0811 17.2325 18.0528 17.2042 18.0246 17.1759L12.4243 11.5756Z">
      </path>
      <path id="圆形 2 (轮廓)" fill-rule="evenodd" style="fill:#A0A3B8" opacity="1"
        d="M18.1102 14.5C18.0702 14.58 18.0502 14.67 18.0502 14.76C18.0502 14.8 18.0602 14.83 18.0702 14.87C18.0702 14.91 18.0802 14.95 18.1002 14.99C18.1102 15.02 18.1302 15.06 18.1502 15.09C18.1802 15.12 18.2002 15.15 18.2302 15.18C18.2602 15.21 18.2902 15.23 18.3202 15.25C18.3502 15.28 18.3902 15.3 18.4202 15.31C18.4602 15.33 18.5002 15.34 18.5402 15.34C18.5802 15.35 18.6102 15.36 18.6502 15.36C18.7102 15.36 18.7702 15.35 18.8302 15.33C18.8902 15.31 18.9402 15.29 18.9902 15.25C19.0402 15.22 19.0802 15.18 19.1202 15.13C19.1602 15.09 19.1902 15.04 19.2102 14.98L19.2102 14.98C19.4002 14.53 19.5402 14.05 19.6502 13.53C19.7502 13.02 19.8002 12.51 19.8002 12C19.8002 10.94 19.6002 9.92995 19.1902 8.95995C18.7902 8.02995 18.2302 7.19995 17.5202 6.47995C16.8002 5.76995 15.9702 5.20995 15.0402 4.80995C14.0702 4.39995 13.0602 4.19995 12.0002 4.19995C10.9402 4.19995 9.93019 4.39995 8.9602 4.80995C8.0302 5.20995 7.2002 5.76995 6.4802 6.47995C5.7702 7.19995 5.2102 8.02995 4.8102 8.95995C4.4002 9.92995 4.2002 10.94 4.2002 12C4.2002 13.06 4.4002 14.07 4.8102 15.04C5.2102 15.97 5.7702 16.8 6.4802 17.52C7.2002 18.2299 8.0302 18.79 8.9602 19.19C9.93019 19.6 10.9402 19.8 12.0002 19.8C12.5102 19.8 13.0102 19.75 13.5202 19.65C14.0402 19.55 14.5302 19.4 14.9802 19.21L14.9802 19.21C15.0402 19.19 15.0902 19.16 15.1302 19.12C15.1802 19.08 15.2202 19.04 15.2502 18.99C15.2902 18.94 15.3102 18.8899 15.3302 18.83C15.3502 18.77 15.3602 18.71 15.3602 18.65C15.3602 18.61 15.3502 18.58 15.3402 18.54C15.3402 18.5 15.3302 18.46 15.3102 18.42C15.3002 18.3899 15.2802 18.35 15.2502 18.32C15.2302 18.29 15.2102 18.26 15.1802 18.2299C15.1502 18.2 15.1202 18.18 15.0902 18.15C15.0602 18.13 15.0202 18.11 14.9902 18.1C14.9502 18.08 14.9102 18.07 14.8702 18.07C14.8302 18.06 14.8002 18.05 14.7602 18.05C14.6702 18.05 14.5802 18.07 14.5002 18.11C14.1302 18.26 13.7202 18.3899 13.2902 18.47C12.8602 18.56 12.4302 18.6 12.0002 18.6C11.1002 18.6 10.2502 18.43 9.43019 18.08C8.6402 17.75 7.9402 17.28 7.3302 16.67C6.7202 16.06 6.2502 15.36 5.9202 14.57C5.5702 13.75 5.4002 12.9 5.4002 12C5.4002 11.1 5.5702 10.25 5.9202 9.42995C6.2502 8.63995 6.7202 7.93995 7.3302 7.32995C7.9402 6.71995 8.6402 6.24995 9.43019 5.91995C10.2502 5.56995 11.1002 5.39995 12.0002 5.39995C12.9002 5.39995 13.7502 5.56995 14.5702 5.91995C15.3602 6.24995 16.0602 6.71995 16.6702 7.32995C17.2802 7.93995 17.7502 8.63995 18.0802 9.42995C18.4302 10.25 18.6002 11.1 18.6002 12C18.6002 12.43 18.5602 12.86 18.4802 13.29C18.3902 13.72 18.2602 14.13 18.1102 14.5Z">
      </path>
    </g>
  </g>
  <defs>
    <rect id="path_0" x="0" y="0" width="24" height="24" />
  </defs>
</svg>