<svg xmlns="http://www.w3.org/2000/svg" xmlns:xlink="http://www.w3.org/1999/xlink" width="24" height="24"
  viewBox="0 0 24 24" fill="none">
  <g opacity="1" transform="translate(0 0)  rotate(0)">
    <mask id="bg-mask-0" fill="white">
      <use transform="translate(0 0)  rotate(0)" xlink:href="#path_0"></use>
    </mask>
    <g mask="url(#bg-mask-0)">
      <path id="直线 1 (轮廓)" fill-rule="evenodd" style="fill:#495AD4" opacity="1"
        d="M12.5996 12C12.5996 11.96 12.5996 11.92 12.5896 11.88C12.5796 11.84 12.5696 11.81 12.5496 11.77C12.5396 11.73 12.5196 11.7 12.4996 11.67C12.4796 11.63 12.4496 11.6 12.4196 11.58C12.3996 11.55 12.3696 11.52 12.3296 11.5C12.2996 11.48 12.2696 11.46 12.2296 11.45C12.1896 11.43 12.1596 11.42 12.1196 11.41C12.0796 11.4 12.0396 11.4 11.9996 11.4C11.9596 11.4 11.9196 11.4 11.8796 11.41C11.8396 11.42 11.8096 11.43 11.7696 11.45C11.7296 11.46 11.6996 11.48 11.6696 11.5C11.6296 11.52 11.5996 11.55 11.5796 11.58C11.5496 11.6 11.5196 11.63 11.4996 11.67C11.4796 11.7 11.4596 11.73 11.4496 11.77C11.4296 11.81 11.4196 11.84 11.4096 11.88C11.3996 11.92 11.3996 11.96 11.3996 12L11.3996 16C11.3996 16.04 11.3996 16.08 11.4096 16.12C11.4196 16.16 11.4296 16.19 11.4496 16.23C11.4596 16.27 11.4796 16.3 11.4996 16.33C11.5196 16.37 11.5496 16.4 11.5796 16.42C11.5996 16.45 11.6296 16.48 11.6696 16.5C11.6996 16.52 11.7296 16.54 11.7696 16.55C11.8096 16.57 11.8396 16.58 11.8796 16.59C11.9196 16.6 11.9596 16.6 11.9996 16.6C12.0396 16.6 12.0796 16.6 12.1196 16.59C12.1596 16.58 12.1896 16.57 12.2296 16.55C12.2696 16.54 12.2996 16.52 12.3296 16.5C12.3696 16.48 12.3996 16.45 12.4196 16.42C12.4496 16.4 12.4796 16.37 12.4996 16.33C12.5196 16.3 12.5396 16.27 12.5496 16.23C12.5696 16.19 12.5796 16.16 12.5896 16.12C12.5996 16.08 12.5996 16.04 12.5996 16L12.5996 12Z">
      </path>
      <path id="直线 2 (轮廓)" fill-rule="evenodd" style="fill:#495AD4" opacity="1"
        d="M12.0004 11.4C11.9604 11.4 11.9204 11.4 11.8804 11.41C11.8404 11.42 11.8104 11.43 11.7704 11.45C11.7304 11.46 11.7004 11.48 11.6704 11.5C11.6304 11.52 11.6004 11.55 11.5804 11.58C11.5504 11.6 11.5204 11.63 11.5004 11.67C11.4804 11.7 11.4604 11.73 11.4504 11.77C11.4304 11.81 11.4204 11.84 11.4104 11.88C11.4004 11.92 11.4004 11.96 11.4004 12C11.4004 12.04 11.4004 12.08 11.4104 12.12C11.4204 12.16 11.4304 12.19 11.4504 12.23C11.4604 12.27 11.4804 12.3 11.5004 12.33C11.5204 12.37 11.5504 12.4 11.5804 12.42C11.6004 12.45 11.6304 12.48 11.6704 12.5C11.7004 12.52 11.7304 12.54 11.7704 12.55C11.8104 12.57 11.8404 12.58 11.8804 12.59C11.9204 12.6 11.9604 12.6 12.0004 12.6L16.0004 12.6C16.0404 12.6 16.0804 12.6 16.1204 12.59C16.1604 12.58 16.1904 12.57 16.2304 12.55C16.2704 12.54 16.3004 12.52 16.3304 12.5C16.3704 12.48 16.4004 12.45 16.4204 12.42C16.4504 12.4 16.4804 12.37 16.5004 12.33C16.5204 12.3 16.5404 12.27 16.5504 12.23C16.5704 12.19 16.5804 12.16 16.5904 12.12C16.6004 12.08 16.6004 12.04 16.6004 12C16.6004 11.96 16.6004 11.92 16.5904 11.88C16.5804 11.84 16.5704 11.81 16.5504 11.77C16.5404 11.73 16.5204 11.7 16.5004 11.67C16.4804 11.63 16.4504 11.6 16.4204 11.58C16.4004 11.55 16.3704 11.52 16.3304 11.5C16.3004 11.48 16.2704 11.46 16.2304 11.45C16.1904 11.43 16.1604 11.42 16.1204 11.41C16.0804 11.4 16.0404 11.4 16.0004 11.4L12.0004 11.4Z">
      </path>
      <path id="直线 3 (轮廓)" fill-rule="evenodd" style="fill:#495AD4" opacity="1"
        d="M12.4243 11.5758C12.396 11.5475 12.3677 11.5192 12.3323 11.498C12.297 11.4768 12.2687 11.4626 12.2263 11.4485C12.1909 11.4273 12.1556 11.4202 12.1202 11.4131C12.0778 11.399 12.0354 11.399 12 11.406C11.9646 11.399 11.9222 11.399 11.8798 11.4131C11.8444 11.4202 11.8091 11.4273 11.7737 11.4485C11.7313 11.4626 11.703 11.4768 11.6677 11.498C11.6323 11.5192 11.604 11.5475 11.5757 11.5758C11.5475 11.604 11.5192 11.6323 11.498 11.6677C11.4767 11.703 11.4626 11.7313 11.4485 11.7737C11.4272 11.8091 11.4202 11.8445 11.4131 11.8798C11.399 11.9222 11.399 11.9647 11.406 12C11.399 12.0354 11.399 12.0778 11.4131 12.1202C11.4202 12.1556 11.4272 12.1909 11.4485 12.2263C11.4626 12.2687 11.4767 12.297 11.498 12.3324C11.5192 12.3677 11.5475 12.396 11.5757 12.4243L17.176 18.0246C17.2043 18.0529 17.2326 18.0811 17.2679 18.1024C17.3033 18.1236 17.3316 18.1377 17.374 18.1518C17.4094 18.1731 17.4447 18.1801 17.4801 18.1872C17.5225 18.2013 17.5649 18.2013 17.6003 18.1943C17.6356 18.2013 17.6781 18.2013 17.7205 18.1872C17.7558 18.1801 17.7912 18.1731 17.8266 18.1518C17.869 18.1377 17.8973 18.1236 17.9326 18.1023C17.968 18.0811 17.9963 18.0529 18.0245 18.0246C18.0528 17.9963 18.0811 17.968 18.1023 17.9326C18.1235 17.8973 18.1377 17.869 18.1518 17.8266C18.173 17.7912 18.1801 17.7559 18.1872 17.7205C18.2013 17.6781 18.2013 17.6357 18.1943 17.6003C18.2013 17.5649 18.2013 17.5225 18.1872 17.4801C18.1801 17.4447 18.173 17.4094 18.1518 17.374C18.1377 17.3316 18.1235 17.3033 18.1023 17.268C18.0811 17.2326 18.0528 17.2043 18.0246 17.176L12.4243 11.5758Z">
      </path>
      <path id="圆形 2 (轮廓)" fill-rule="evenodd" style="fill:#A0A3B8" opacity="1"
        d="M18.1102 14.5C18.0702 14.58 18.0502 14.67 18.0502 14.76C18.0502 14.8 18.0602 14.83 18.0702 14.87C18.0702 14.91 18.0802 14.95 18.1002 14.99C18.1102 15.02 18.1302 15.06 18.1502 15.09C18.1802 15.12 18.2002 15.15 18.2302 15.18C18.2602 15.21 18.2902 15.23 18.3202 15.25C18.3502 15.28 18.3902 15.3 18.4202 15.31C18.4602 15.33 18.5002 15.34 18.5402 15.34C18.5802 15.35 18.6102 15.36 18.6502 15.36C18.7102 15.36 18.7702 15.35 18.8302 15.33C18.8902 15.31 18.9402 15.29 18.9902 15.25C19.0402 15.22 19.0802 15.18 19.1202 15.13C19.1602 15.09 19.1902 15.04 19.2102 14.98L19.2102 14.98C19.4002 14.53 19.5402 14.05 19.6502 13.53C19.7502 13.02 19.8002 12.51 19.8002 12C19.8002 10.94 19.6002 9.93001 19.1902 8.96001C18.7902 8.03001 18.2302 7.20001 17.5202 6.48001C16.8002 5.77001 15.9702 5.21001 15.0402 4.81001C14.0702 4.40001 13.0602 4.20001 12.0002 4.20001C10.9402 4.20001 9.93019 4.40001 8.9602 4.81001C8.0302 5.21001 7.2002 5.77001 6.4802 6.48001C5.7702 7.20001 5.2102 8.03001 4.8102 8.96001C4.4002 9.93001 4.2002 10.94 4.2002 12C4.2002 13.06 4.4002 14.07 4.8102 15.04C5.2102 15.97 5.7702 16.8 6.4802 17.52C7.2002 18.23 8.0302 18.79 8.9602 19.19C9.93019 19.6 10.9402 19.8 12.0002 19.8C12.5102 19.8 13.0102 19.75 13.5202 19.65C14.0402 19.55 14.5302 19.4 14.9802 19.21L14.9802 19.21C15.0402 19.19 15.0902 19.16 15.1302 19.12C15.1802 19.08 15.2202 19.04 15.2502 18.99C15.2902 18.94 15.3102 18.89 15.3302 18.83C15.3502 18.77 15.3602 18.71 15.3602 18.65C15.3602 18.61 15.3502 18.58 15.3402 18.54C15.3402 18.5 15.3302 18.46 15.3102 18.42C15.3002 18.39 15.2802 18.35 15.2502 18.32C15.2302 18.29 15.2102 18.26 15.1802 18.23C15.1502 18.2 15.1202 18.18 15.0902 18.15C15.0602 18.13 15.0202 18.11 14.9902 18.1C14.9502 18.08 14.9102 18.07 14.8702 18.07C14.8302 18.06 14.8002 18.05 14.7602 18.05C14.6702 18.05 14.5802 18.07 14.5002 18.11C14.1302 18.26 13.7202 18.39 13.2902 18.47C12.8602 18.56 12.4302 18.6 12.0002 18.6C11.1002 18.6 10.2502 18.43 9.43019 18.08C8.6402 17.75 7.9402 17.28 7.3302 16.67C6.7202 16.06 6.2502 15.36 5.9202 14.57C5.5702 13.75 5.4002 12.9 5.4002 12C5.4002 11.1 5.5702 10.25 5.9202 9.43001C6.2502 8.64001 6.7202 7.94001 7.3302 7.33001C7.9402 6.72001 8.6402 6.25001 9.43019 5.92001C10.2502 5.57001 11.1002 5.40001 12.0002 5.40001C12.9002 5.40001 13.7502 5.57001 14.5702 5.92001C15.3602 6.25001 16.0602 6.72001 16.6702 7.33001C17.2802 7.94001 17.7502 8.64001 18.0802 9.43001C18.4302 10.25 18.6002 11.1 18.6002 12C18.6002 12.43 18.5602 12.86 18.4802 13.29C18.3902 13.72 18.2602 14.13 18.1102 14.5Z">
      </path>
    </g>
  </g>
  <defs>
    <rect id="path_0" x="0" y="0" width="24" height="24" />
  </defs>
</svg>