<svg xmlns="http://www.w3.org/2000/svg" xmlns:xlink="http://www.w3.org/1999/xlink" width="16" height="16" viewBox="0 0 16 16" fill="none">
<g  clip-path="url(#clip-path-9_1)">
<path d="M6.80005 6.39999L6.80005 3.73333C6.80005 3.70706 6.79749 3.68105 6.79236 3.65529C6.78724 3.62953 6.77965 3.60452 6.7696 3.58025C6.75955 3.55599 6.74723 3.53294 6.73264 3.5111C6.71804 3.48926 6.70146 3.46906 6.68289 3.45049C6.66432 3.43191 6.64411 3.41533 6.62228 3.40074C6.60044 3.38615 6.57739 3.37383 6.55312 3.36378C6.52886 3.35373 6.50384 3.34614 6.47809 3.34101C6.45233 3.33589 6.42631 3.33333 6.40005 3.33333C6.37378 3.33333 6.34777 3.33589 6.32201 3.34101C6.29625 3.34614 6.27124 3.35373 6.24697 3.36378C6.22271 3.37383 6.19966 3.38615 6.17782 3.40074C6.15598 3.41533 6.13578 3.43191 6.11721 3.45049C6.09863 3.46906 6.08205 3.48926 6.06746 3.5111C6.05287 3.53294 6.04055 3.55599 6.0305 3.58025C6.02045 3.60452 6.01286 3.62953 6.00773 3.65529C6.00261 3.68105 6.00005 3.70706 6.00005 3.73333L6.00005 6.39999C6.00005 6.42626 6.00261 6.45227 6.00773 6.47803C6.01286 6.50379 6.02045 6.5288 6.0305 6.55307C6.04055 6.57733 6.05287 6.60039 6.06746 6.62222C6.08205 6.64406 6.09863 6.66427 6.11721 6.68284C6.13578 6.70141 6.15598 6.71799 6.17782 6.73258C6.19966 6.74717 6.22271 6.7595 6.24697 6.76955C6.27124 6.7796 6.29625 6.78719 6.32201 6.79231C6.34777 6.79743 6.37378 6.79999 6.40005 6.79999C6.42631 6.79999 6.45233 6.79743 6.47809 6.79231C6.50384 6.78719 6.52886 6.7796 6.55312 6.76955C6.57739 6.7595 6.60044 6.74717 6.62228 6.73258C6.64411 6.71799 6.66432 6.70141 6.68289 6.68284C6.70146 6.66427 6.71804 6.64406 6.73264 6.62222C6.74723 6.60039 6.75955 6.57733 6.7696 6.55307C6.77965 6.5288 6.78724 6.50379 6.79236 6.47803C6.79749 6.45227 6.80005 6.42626 6.80005 6.39999Z"   fill="#495AD4" >
</path>
<path d="M10 6.39999L10 3.73333C10 3.70706 9.99744 3.68105 9.99231 3.65529C9.98719 3.62953 9.9796 3.60452 9.96955 3.58025C9.9595 3.55599 9.94718 3.53294 9.93259 3.5111C9.918 3.48926 9.90141 3.46906 9.88284 3.45049C9.86427 3.43191 9.84407 3.41533 9.82223 3.40074C9.80039 3.38615 9.77734 3.37383 9.75307 3.36378C9.72881 3.35373 9.7038 3.34614 9.67804 3.34101C9.65228 3.33589 9.62626 3.33333 9.6 3.33333C9.57374 3.33333 9.54772 3.33589 9.52196 3.34101C9.4962 3.34614 9.47119 3.35373 9.44693 3.36378C9.42266 3.37383 9.39961 3.38615 9.37777 3.40074C9.35593 3.41533 9.33573 3.43191 9.31716 3.45049C9.29859 3.46906 9.282 3.48926 9.26741 3.5111C9.25282 3.53294 9.2405 3.55599 9.23045 3.58025C9.2204 3.60452 9.21281 3.62953 9.20769 3.65529C9.20256 3.68105 9.2 3.70706 9.2 3.73333L9.2 6.39999C9.2 6.42626 9.20256 6.45227 9.20769 6.47803C9.21281 6.50379 9.2204 6.5288 9.23045 6.55307C9.2405 6.57733 9.25282 6.60039 9.26741 6.62222C9.282 6.64406 9.29859 6.66427 9.31716 6.68284C9.33573 6.70141 9.35593 6.71799 9.37777 6.73258C9.39961 6.74717 9.42266 6.7595 9.44693 6.76955C9.47119 6.7796 9.4962 6.78719 9.52196 6.79231C9.54772 6.79743 9.57374 6.79999 9.6 6.79999C9.62626 6.79999 9.65228 6.79743 9.67804 6.79231C9.7038 6.78719 9.72881 6.7796 9.75307 6.76955C9.77734 6.7595 9.80039 6.74717 9.82223 6.73258C9.84407 6.71799 9.86427 6.70141 9.88284 6.68284C9.90141 6.66427 9.918 6.64406 9.93259 6.62222C9.94718 6.60039 9.9595 6.57733 9.96955 6.55307C9.9796 6.5288 9.98719 6.50379 9.99231 6.47803C9.99744 6.45227 10 6.42626 10 6.39999Z"   fill="#495AD4" >
</path>
<path d="M3.73338 6.80013L6.40005 6.80013C6.42631 6.80013 6.45233 6.79756 6.47809 6.79244C6.50384 6.78732 6.52886 6.77973 6.55312 6.76968C6.57739 6.75963 6.60044 6.7473 6.62228 6.73271C6.64411 6.71812 6.66432 6.70154 6.68289 6.68297C6.70146 6.6644 6.71804 6.64419 6.73264 6.62235C6.74723 6.60052 6.75955 6.57746 6.7696 6.5532C6.77965 6.52893 6.78724 6.50392 6.79236 6.47816C6.79749 6.4524 6.80005 6.42639 6.80005 6.40013C6.80005 6.37386 6.79749 6.34785 6.79236 6.32209C6.78724 6.29633 6.77965 6.27132 6.7696 6.24705C6.75955 6.22279 6.74723 6.19974 6.73264 6.1779C6.71804 6.15606 6.70146 6.13585 6.68289 6.11728C6.66432 6.09871 6.64411 6.08213 6.62228 6.06754C6.60044 6.05295 6.57739 6.04062 6.55312 6.03057C6.52886 6.02052 6.50384 6.01293 6.47809 6.00781C6.45233 6.00269 6.42631 6.00012 6.40005 6.00012L3.73338 6.00012C3.70712 6.00012 3.6811 6.00269 3.65534 6.00781C3.62958 6.01293 3.60457 6.02052 3.58031 6.03057C3.55604 6.04062 3.53299 6.05295 3.51115 6.06754C3.48931 6.08213 3.46911 6.09871 3.45054 6.11728C3.43197 6.13585 3.41539 6.15606 3.4008 6.1779C3.3862 6.19974 3.37388 6.22279 3.36383 6.24705C3.35378 6.27132 3.34619 6.29633 3.34107 6.32209C3.33594 6.34785 3.33338 6.37386 3.33338 6.40013C3.33338 6.42639 3.33594 6.4524 3.34107 6.47816C3.34619 6.50392 3.35378 6.52893 3.36383 6.5532C3.37388 6.57746 3.3862 6.60052 3.4008 6.62235C3.41539 6.64419 3.43197 6.6644 3.45054 6.68297C3.46911 6.70154 3.48931 6.71812 3.51115 6.73271C3.53299 6.7473 3.55604 6.75963 3.58031 6.76968C3.60457 6.77973 3.62958 6.78732 3.65534 6.79244C3.6811 6.79756 3.70712 6.80013 3.73338 6.80013Z"   fill="#495AD4" >
</path>
<path d="M3.73338 10L6.40005 10C6.42631 10 6.45233 9.99744 6.47809 9.99231C6.50384 9.98719 6.52886 9.9796 6.55312 9.96955C6.57739 9.9595 6.60044 9.94718 6.62228 9.93259C6.64411 9.918 6.66432 9.90141 6.68289 9.88284C6.70146 9.86427 6.71804 9.84407 6.73264 9.82223C6.74723 9.80039 6.75955 9.77734 6.7696 9.75307C6.77965 9.72881 6.78724 9.7038 6.79236 9.67804C6.79749 9.65228 6.80005 9.62626 6.80005 9.6C6.80005 9.57374 6.79749 9.54772 6.79236 9.52196C6.78724 9.4962 6.77965 9.47119 6.7696 9.44693C6.75955 9.42266 6.74723 9.39961 6.73264 9.37777C6.71804 9.35593 6.70146 9.33573 6.68289 9.31716C6.66432 9.29859 6.64411 9.282 6.62228 9.26741C6.60044 9.25282 6.57739 9.2405 6.55312 9.23045C6.52886 9.2204 6.50384 9.21281 6.47809 9.20769C6.45233 9.20256 6.42631 9.2 6.40005 9.2L3.73338 9.2C3.70712 9.2 3.6811 9.20256 3.65534 9.20769C3.62958 9.21281 3.60457 9.2204 3.58031 9.23045C3.55604 9.2405 3.53299 9.25282 3.51115 9.26741C3.48931 9.282 3.46911 9.29859 3.45054 9.31716C3.43197 9.33573 3.41539 9.35593 3.4008 9.37777C3.3862 9.39961 3.37388 9.42266 3.36383 9.44693C3.35378 9.47119 3.34619 9.4962 3.34107 9.52196C3.33594 9.54772 3.33338 9.57374 3.33338 9.6C3.33338 9.62626 3.33594 9.65228 3.34107 9.67804C3.34619 9.7038 3.35378 9.72881 3.36383 9.75307C3.37388 9.77734 3.3862 9.80039 3.4008 9.82223C3.41539 9.84407 3.43197 9.86427 3.45054 9.88284C3.46911 9.90141 3.48931 9.918 3.51115 9.93259C3.53299 9.94718 3.55604 9.9595 3.58031 9.96955C3.60457 9.9796 3.62958 9.98719 3.65534 9.99231C3.6811 9.99744 3.70712 10 3.73338 10Z"   fill="#495AD4" >
</path>
<path d="M9.60008 6.80013L12.2667 6.80013C12.293 6.80013 12.319 6.79756 12.3448 6.79244C12.3705 6.78732 12.3956 6.77973 12.4198 6.76968C12.4441 6.75963 12.4671 6.7473 12.489 6.73271C12.5108 6.71812 12.531 6.70154 12.5496 6.68297C12.5682 6.6644 12.5847 6.64419 12.5993 6.62235C12.6139 6.60052 12.6262 6.57746 12.6363 6.5532C12.6464 6.52893 12.6539 6.50392 12.6591 6.47816C12.6642 6.4524 12.6667 6.42639 12.6667 6.40013C12.6667 6.37386 12.6642 6.34785 12.6591 6.32209C12.6539 6.29633 12.6464 6.27132 12.6363 6.24705C12.6262 6.22279 12.6139 6.19974 12.5993 6.1779C12.5847 6.15606 12.5682 6.13585 12.5496 6.11728C12.531 6.09871 12.5108 6.08213 12.489 6.06754C12.4671 6.05295 12.4441 6.04062 12.4198 6.03057C12.3956 6.02052 12.3705 6.01293 12.3448 6.00781C12.319 6.00269 12.293 6.00012 12.2667 6.00012L9.60008 6.00012C9.57382 6.00012 9.5478 6.00269 9.52204 6.00781C9.49628 6.01293 9.47127 6.02052 9.44701 6.03057C9.42274 6.04062 9.39969 6.05295 9.37785 6.06754C9.35601 6.08213 9.33581 6.09871 9.31724 6.11728C9.29867 6.13585 9.28209 6.15606 9.26749 6.1779C9.2529 6.19974 9.24058 6.22279 9.23053 6.24705C9.22048 6.27132 9.21289 6.29633 9.20777 6.32209C9.20264 6.34785 9.20008 6.37386 9.20008 6.40013C9.20008 6.42639 9.20264 6.4524 9.20777 6.47816C9.21289 6.50392 9.22048 6.52893 9.23053 6.5532C9.24058 6.57746 9.2529 6.60052 9.26749 6.62235C9.28209 6.64419 9.29867 6.6644 9.31724 6.68297C9.33581 6.70154 9.35601 6.71812 9.37785 6.73271C9.39969 6.7473 9.42274 6.75963 9.44701 6.76968C9.47127 6.77973 9.49628 6.78732 9.52204 6.79244C9.5478 6.79756 9.57382 6.80013 9.60008 6.80013Z"   fill="#495AD4" >
</path>
<path d="M6.4 12.6667L9.6 12.6667C9.62626 12.6667 9.65228 12.6641 9.67804 12.659C9.7038 12.6538 9.72881 12.6463 9.75307 12.6362C9.77734 12.6262 9.80039 12.6138 9.82223 12.5992C9.84407 12.5847 9.86427 12.5681 9.88284 12.5495C9.90141 12.5309 9.918 12.5107 9.93259 12.4889C9.94718 12.467 9.9595 12.444 9.96955 12.4197C9.9796 12.3955 9.98719 12.3705 9.99231 12.3447C9.99744 12.3189 10 12.2929 10 12.2667C10 12.2404 9.99744 12.2144 9.99231 12.1886C9.98719 12.1629 9.9796 12.1378 9.96955 12.1136C9.9595 12.0893 9.94718 12.0663 9.93259 12.0444C9.918 12.0226 9.90141 12.0024 9.88284 11.9838C9.86427 11.9652 9.84407 11.9487 9.82223 11.9341C9.80039 11.9195 9.77734 11.9072 9.75307 11.8971C9.72881 11.8871 9.7038 11.8795 9.67804 11.8743C9.65228 11.8692 9.62626 11.8667 9.6 11.8667L6.4 11.8667C6.37374 11.8667 6.34772 11.8692 6.32196 11.8743C6.2962 11.8795 6.27119 11.8871 6.24693 11.8971C6.22266 11.9072 6.19961 11.9195 6.17777 11.9341C6.15593 11.9487 6.13573 11.9652 6.11716 11.9838C6.09859 12.0024 6.08201 12.0226 6.06741 12.0444C6.05282 12.0663 6.0405 12.0893 6.03045 12.1136C6.0204 12.1378 6.01281 12.1629 6.00769 12.1886C6.00256 12.2144 6 12.2404 6 12.2667C6 12.2929 6.00256 12.3189 6.00769 12.3447C6.01281 12.3705 6.0204 12.3955 6.03045 12.4197C6.0405 12.444 6.05282 12.467 6.06741 12.4889C6.08201 12.5107 6.09859 12.5309 6.11716 12.5495C6.13573 12.5681 6.15593 12.5847 6.17777 12.5992C6.19961 12.6138 6.22266 12.6262 6.24693 12.6362C6.27119 12.6463 6.2962 12.6538 6.32196 12.659C6.34772 12.6641 6.37374 12.6667 6.4 12.6667Z"   fill="#495AD4" >
</path>
<path d="M6.4 4.13347L9.6 4.13347C9.62626 4.13347 9.65228 4.13091 9.67804 4.12578C9.7038 4.12066 9.72881 4.11307 9.75307 4.10302C9.77734 4.09297 9.80039 4.08065 9.82223 4.06606C9.84407 4.05146 9.86427 4.03488 9.88284 4.01631C9.90141 3.99774 9.918 3.97753 9.93259 3.9557C9.94718 3.93386 9.9595 3.91081 9.96955 3.88654C9.9796 3.86228 9.98719 3.83726 9.99231 3.8115C9.99744 3.78575 10 3.75973 10 3.73347C10 3.7072 9.99744 3.68119 9.99231 3.65543C9.98719 3.62967 9.9796 3.60466 9.96955 3.58039C9.9595 3.55613 9.94718 3.53308 9.93259 3.51124C9.918 3.4894 9.90141 3.4692 9.88284 3.45063C9.86427 3.43205 9.84407 3.41547 9.82223 3.40088C9.80039 3.38629 9.77734 3.37397 9.75307 3.36392C9.72881 3.35387 9.7038 3.34628 9.67804 3.34115C9.65228 3.33603 9.62626 3.33347 9.6 3.33347L6.4 3.33347C6.37374 3.33347 6.34772 3.33603 6.32196 3.34115C6.2962 3.34628 6.27119 3.35387 6.24693 3.36392C6.22266 3.37397 6.19961 3.38629 6.17777 3.40088C6.15593 3.41547 6.13573 3.43205 6.11716 3.45063C6.09859 3.4692 6.08201 3.4894 6.06741 3.51124C6.05282 3.53308 6.0405 3.55613 6.03045 3.58039C6.0204 3.60466 6.01281 3.62967 6.00769 3.65543C6.00256 3.68119 6 3.7072 6 3.73347C6 3.75973 6.00256 3.78575 6.00769 3.8115C6.01281 3.83726 6.0204 3.86228 6.03045 3.88654C6.0405 3.91081 6.05282 3.93386 6.06741 3.9557C6.08201 3.97753 6.09859 3.99774 6.11716 4.01631C6.13573 4.03488 6.15593 4.05146 6.17777 4.06606C6.19961 4.08065 6.22266 4.09297 6.24693 4.10302C6.27119 4.11307 6.2962 4.12066 6.32196 4.12578C6.34772 4.13091 6.37374 4.13347 6.4 4.13347Z"   fill="#495AD4" >
</path>
<path d="M9.60008 10L12.2667 10C12.293 10 12.319 9.99744 12.3448 9.99231C12.3705 9.98719 12.3956 9.9796 12.4198 9.96955C12.4441 9.9595 12.4671 9.94718 12.489 9.93259C12.5108 9.918 12.531 9.90141 12.5496 9.88284C12.5682 9.86427 12.5847 9.84407 12.5993 9.82223C12.6139 9.80039 12.6262 9.77734 12.6363 9.75307C12.6464 9.72881 12.6539 9.7038 12.6591 9.67804C12.6642 9.65228 12.6667 9.62626 12.6667 9.6C12.6667 9.57374 12.6642 9.54772 12.6591 9.52196C12.6539 9.4962 12.6464 9.47119 12.6363 9.44693C12.6262 9.42266 12.6139 9.39961 12.5993 9.37777C12.5847 9.35593 12.5682 9.33573 12.5496 9.31716C12.531 9.29859 12.5108 9.282 12.489 9.26741C12.4671 9.25282 12.4441 9.2405 12.4198 9.23045C12.3956 9.2204 12.3705 9.21281 12.3448 9.20769C12.319 9.20256 12.293 9.2 12.2667 9.2L9.60008 9.2C9.57382 9.2 9.5478 9.20256 9.52204 9.20769C9.49628 9.21281 9.47127 9.2204 9.44701 9.23045C9.42274 9.2405 9.39969 9.25282 9.37785 9.26741C9.35601 9.282 9.33581 9.29859 9.31724 9.31716C9.29867 9.33573 9.28209 9.35593 9.26749 9.37777C9.2529 9.39961 9.24058 9.42266 9.23053 9.44693C9.22048 9.47119 9.21289 9.4962 9.20777 9.52196C9.20264 9.54772 9.20008 9.57374 9.20008 9.6C9.20008 9.62626 9.20264 9.65228 9.20777 9.67804C9.21289 9.7038 9.22048 9.72881 9.23053 9.75307C9.24058 9.77734 9.2529 9.80039 9.26749 9.82223C9.28209 9.84407 9.29867 9.86427 9.31724 9.88284C9.33581 9.90141 9.35601 9.918 9.37785 9.93259C9.39969 9.94718 9.42274 9.9595 9.44701 9.96955C9.47127 9.9796 9.49628 9.98719 9.52204 9.99231C9.5478 9.99744 9.57382 10 9.60008 10Z"   fill="#495AD4" >
</path>
<path d="M6.80005 12.2665L6.80005 9.59986C6.80005 9.5736 6.79749 9.54758 6.79236 9.52182C6.78724 9.49606 6.77965 9.47105 6.7696 9.44679C6.75955 9.42252 6.74723 9.39947 6.73264 9.37763C6.71804 9.35579 6.70146 9.33559 6.68289 9.31702C6.66432 9.29844 6.64411 9.28186 6.62228 9.26727C6.60044 9.25268 6.57739 9.24036 6.55312 9.23031C6.52886 9.22026 6.50384 9.21267 6.47809 9.20755C6.45233 9.20242 6.42631 9.19986 6.40005 9.19986C6.37378 9.19986 6.34777 9.20242 6.32201 9.20755C6.29625 9.21267 6.27124 9.22026 6.24697 9.23031C6.22271 9.24036 6.19966 9.25268 6.17782 9.26727C6.15598 9.28186 6.13578 9.29844 6.11721 9.31702C6.09863 9.33559 6.08205 9.35579 6.06746 9.37763C6.05287 9.39947 6.04055 9.42252 6.0305 9.44679C6.02045 9.47105 6.01286 9.49606 6.00773 9.52182C6.00261 9.54758 6.00005 9.5736 6.00005 9.59986L6.00005 12.2665C6.00005 12.2928 6.00261 12.3188 6.00773 12.3446C6.01286 12.3703 6.02045 12.3953 6.0305 12.4196C6.04055 12.4439 6.05287 12.4669 6.06746 12.4888C6.08205 12.5106 6.09863 12.5308 6.11721 12.5494C6.13578 12.5679 6.15598 12.5845 6.17782 12.5991C6.19966 12.6137 6.22271 12.626 6.24697 12.6361C6.27124 12.6461 6.29625 12.6537 6.32201 12.6588C6.34777 12.664 6.37378 12.6665 6.40005 12.6665C6.42631 12.6665 6.45233 12.664 6.47809 12.6588C6.50384 12.6537 6.52886 12.6461 6.55312 12.6361C6.57739 12.626 6.60044 12.6137 6.62228 12.5991C6.64411 12.5845 6.66432 12.5679 6.68289 12.5494C6.70146 12.5308 6.71804 12.5106 6.73264 12.4888C6.74723 12.4669 6.75955 12.4439 6.7696 12.4196C6.77965 12.3953 6.78724 12.3703 6.79236 12.3446C6.79749 12.3188 6.80005 12.2928 6.80005 12.2665Z"   fill="#495AD4" >
</path>
<path d="M4.13354 9.6L4.13354 6.4C4.13354 6.37374 4.13098 6.34772 4.12586 6.32196C4.12074 6.2962 4.11315 6.27119 4.1031 6.24693C4.09305 6.22266 4.08072 6.19961 4.06613 6.17777C4.05154 6.15593 4.03496 6.13573 4.01639 6.11716C3.99782 6.09859 3.97761 6.082 3.95577 6.06741C3.93393 6.05282 3.91088 6.0405 3.88662 6.03045C3.86235 6.0204 3.83734 6.01281 3.81158 6.00769C3.78582 6.00256 3.75981 6 3.73354 6C3.70728 6 3.68127 6.00256 3.65551 6.00769C3.62975 6.01281 3.60474 6.0204 3.58047 6.03045C3.55621 6.0405 3.53315 6.05282 3.51132 6.06741C3.48948 6.082 3.46927 6.09859 3.4507 6.11716C3.43213 6.13573 3.41555 6.15593 3.40096 6.17777C3.38637 6.19961 3.37404 6.22266 3.36399 6.24693C3.35394 6.27119 3.34635 6.2962 3.34123 6.32196C3.33611 6.34772 3.33354 6.37374 3.33354 6.4L3.33354 9.6C3.33354 9.62626 3.33611 9.65228 3.34123 9.67804C3.34635 9.7038 3.35394 9.72881 3.36399 9.75307C3.37404 9.77734 3.38637 9.80039 3.40096 9.82223C3.41555 9.84407 3.43213 9.86427 3.4507 9.88284C3.46927 9.90141 3.48948 9.91799 3.51132 9.93259C3.53315 9.94718 3.55621 9.9595 3.58047 9.96955C3.60474 9.9796 3.62975 9.98719 3.65551 9.99231C3.68127 9.99744 3.70728 10 3.73354 10C3.75981 10 3.78582 9.99744 3.81158 9.99231C3.83734 9.98719 3.86235 9.9796 3.88662 9.96955C3.91088 9.9595 3.93393 9.94718 3.95577 9.93259C3.97761 9.91799 3.99782 9.90141 4.01639 9.88284C4.03496 9.86427 4.05154 9.84407 4.06613 9.82223C4.08072 9.80039 4.09305 9.77734 4.1031 9.75307C4.11315 9.72881 4.12074 9.7038 4.12586 9.67804C4.13098 9.65228 4.13354 9.62626 4.13354 9.6Z"   fill="#495AD4" >
</path>
<path d="M12.6667 9.6L12.6667 6.4C12.6667 6.37374 12.6642 6.34772 12.6591 6.32196C12.6539 6.2962 12.6464 6.27119 12.6363 6.24693C12.6262 6.22266 12.6139 6.19961 12.5993 6.17777C12.5847 6.15593 12.5682 6.13573 12.5496 6.11716C12.531 6.09859 12.5108 6.082 12.489 6.06741C12.4671 6.05282 12.4441 6.0405 12.4198 6.03045C12.3956 6.0204 12.3705 6.01281 12.3448 6.00769C12.319 6.00256 12.293 6 12.2667 6C12.2405 6 12.2145 6.00256 12.1887 6.00769C12.163 6.01281 12.1379 6.0204 12.1137 6.03045C12.0894 6.0405 12.0664 6.05282 12.0445 6.06741C12.0227 6.082 12.0025 6.09859 11.9839 6.11716C11.9653 6.13573 11.9488 6.15593 11.9342 6.17777C11.9196 6.19961 11.9072 6.22266 11.8972 6.24693C11.8871 6.27119 11.8796 6.2962 11.8744 6.32196C11.8693 6.34772 11.8667 6.37374 11.8667 6.4L11.8667 9.6C11.8667 9.62626 11.8693 9.65228 11.8744 9.67804C11.8796 9.7038 11.8871 9.72881 11.8972 9.75307C11.9072 9.77734 11.9196 9.80039 11.9342 9.82223C11.9488 9.84407 11.9653 9.86427 11.9839 9.88284C12.0025 9.90141 12.0227 9.91799 12.0445 9.93259C12.0664 9.94718 12.0894 9.9595 12.1137 9.96955C12.1379 9.9796 12.163 9.98719 12.1887 9.99231C12.2145 9.99744 12.2405 10 12.2667 10C12.293 10 12.319 9.99744 12.3448 9.99231C12.3705 9.98719 12.3956 9.9796 12.4198 9.96955C12.4441 9.9595 12.4671 9.94718 12.489 9.93259C12.5108 9.91799 12.531 9.90141 12.5496 9.88284C12.5682 9.86427 12.5847 9.84407 12.5993 9.82223C12.6139 9.80039 12.6262 9.77734 12.6363 9.75307C12.6464 9.72881 12.6539 9.7038 12.6591 9.67804C12.6642 9.65228 12.6667 9.62626 12.6667 9.6Z"   fill="#495AD4" >
</path>
<path d="M10 12.2665L10 9.59986C10 9.5736 9.99744 9.54758 9.99231 9.52182C9.98719 9.49606 9.9796 9.47105 9.96955 9.44679C9.9595 9.42252 9.94718 9.39947 9.93259 9.37763C9.918 9.35579 9.90141 9.33559 9.88284 9.31702C9.86427 9.29844 9.84407 9.28186 9.82223 9.26727C9.80039 9.25268 9.77734 9.24036 9.75307 9.23031C9.72881 9.22026 9.7038 9.21267 9.67804 9.20755C9.65228 9.20242 9.62626 9.19986 9.6 9.19986C9.57374 9.19986 9.54772 9.20242 9.52196 9.20755C9.4962 9.21267 9.47119 9.22026 9.44693 9.23031C9.42266 9.24036 9.39961 9.25268 9.37777 9.26727C9.35593 9.28186 9.33573 9.29844 9.31716 9.31702C9.29859 9.33559 9.282 9.35579 9.26741 9.37763C9.25282 9.39947 9.2405 9.42252 9.23045 9.44679C9.2204 9.47105 9.21281 9.49606 9.20769 9.52182C9.20256 9.54758 9.2 9.5736 9.2 9.59986L9.2 12.2665C9.2 12.2928 9.20256 12.3188 9.20769 12.3446C9.21281 12.3703 9.2204 12.3953 9.23045 12.4196C9.2405 12.4439 9.25282 12.4669 9.26741 12.4888C9.282 12.5106 9.29859 12.5308 9.31716 12.5494C9.33573 12.5679 9.35593 12.5845 9.37777 12.5991C9.39961 12.6137 9.42266 12.626 9.44693 12.6361C9.47119 12.6461 9.4962 12.6537 9.52196 12.6588C9.54772 12.664 9.57374 12.6665 9.6 12.6665C9.62626 12.6665 9.65228 12.664 9.67804 12.6588C9.7038 12.6537 9.72881 12.6461 9.75307 12.6361C9.77734 12.626 9.80039 12.6137 9.82223 12.5991C9.84407 12.5845 9.86427 12.5679 9.88284 12.5494C9.90141 12.5308 9.918 12.5106 9.93259 12.4888C9.94718 12.4669 9.9595 12.4439 9.96955 12.4196C9.9796 12.3953 9.98719 12.3703 9.99231 12.3446C9.99744 12.3188 10 12.2928 10 12.2665Z"   fill="#495AD4" >
</path>
</g>
<defs>
<clipPath id="clip-path-9_1">
<path d="M0 16L16 16L16 0L0 0L0 16Z" fill="white"/>
</clipPath>
</defs>
</svg>
