<svg xmlns="http://www.w3.org/2000/svg" xmlns:xlink="http://www.w3.org/1999/xlink" width="24" height="24" viewBox="0 0 24 24" fill="none">
<path d="M10.2002 9.6L10.2002 5.6C10.2002 5.5606 10.1964 5.52159 10.1887 5.48295C10.181 5.44431 10.1696 5.40679 10.1545 5.37039C10.1394 5.33399 10.121 5.29942 10.0991 5.26666C10.0772 5.2339 10.0523 5.20359 10.0245 5.17574C9.9966 5.14788 9.96629 5.12301 9.93354 5.10112C9.90078 5.07923 9.8662 5.06075 9.82981 5.04567C9.79341 5.0306 9.75589 5.01921 9.71725 5.01153C9.67861 5.00384 9.63959 5 9.60019 5C9.5608 5 9.52178 5.00384 9.48314 5.01153C9.4445 5.01921 9.40698 5.0306 9.37058 5.04567C9.33419 5.06075 9.29961 5.07923 9.26685 5.10112C9.2341 5.12301 9.20379 5.14788 9.17593 5.17574C9.14807 5.20359 9.1232 5.2339 9.10131 5.26666C9.07943 5.29942 9.06094 5.33399 9.04587 5.37039C9.03079 5.40679 9.01941 5.44431 9.01172 5.48295C9.00404 5.52159 9.0002 5.5606 9.0002 5.6L9.0002 9.6C9.0002 9.6394 9.00404 9.67842 9.01172 9.71706C9.01941 9.7557 9.03079 9.79321 9.04587 9.82961C9.06094 9.86601 9.07943 9.90059 9.10131 9.93334C9.1232 9.9661 9.14807 9.99641 9.17593 10.0243C9.20379 10.0521 9.2341 10.077 9.26685 10.0989C9.29961 10.1208 9.33419 10.1392 9.37058 10.1543C9.40698 10.1694 9.4445 10.1808 9.48314 10.1885C9.52178 10.1962 9.5608 10.2 9.60019 10.2C9.63959 10.2 9.67861 10.1962 9.71725 10.1885C9.75589 10.1808 9.79341 10.1694 9.82981 10.1543C9.8662 10.1392 9.90078 10.1208 9.93354 10.0989C9.96629 10.077 9.9966 10.0521 10.0245 10.0243C10.0523 9.99641 10.0772 9.9661 10.0991 9.93334C10.121 9.90059 10.1394 9.86601 10.1545 9.82961C10.1696 9.79321 10.181 9.7557 10.1887 9.71706C10.1964 9.67842 10.2002 9.6394 10.2002 9.6Z"   fill="#656A85" >
</path>
<path d="M15 9.6L15 5.6C15 5.5606 14.9962 5.52159 14.9885 5.48295C14.9808 5.44431 14.9694 5.40679 14.9543 5.37039C14.9393 5.33399 14.9208 5.29942 14.8989 5.26666C14.877 5.2339 14.8521 5.20359 14.8243 5.17574C14.7964 5.14788 14.7661 5.12301 14.7333 5.10112C14.7006 5.07923 14.666 5.06075 14.6296 5.04567C14.5932 5.0306 14.5557 5.01921 14.5171 5.01153C14.4784 5.00384 14.4394 5 14.4 5C14.3606 5 14.3216 5.00384 14.2829 5.01153C14.2443 5.01921 14.2068 5.0306 14.1704 5.04567C14.134 5.06075 14.0994 5.07923 14.0667 5.10112C14.0339 5.12301 14.0036 5.14788 13.9757 5.17574C13.9479 5.20359 13.923 5.2339 13.9011 5.26666C13.8792 5.29942 13.8607 5.33399 13.8457 5.37039C13.8306 5.40679 13.8192 5.44431 13.8115 5.48295C13.8038 5.52159 13.8 5.5606 13.8 5.6L13.8 9.6C13.8 9.6394 13.8038 9.67842 13.8115 9.71706C13.8192 9.7557 13.8306 9.79321 13.8457 9.82961C13.8607 9.86601 13.8792 9.90059 13.9011 9.93334C13.923 9.9661 13.9479 9.99641 13.9757 10.0243C14.0036 10.0521 14.0339 10.077 14.0667 10.0989C14.0994 10.1208 14.134 10.1392 14.1704 10.1543C14.2068 10.1694 14.2443 10.1808 14.2829 10.1885C14.3216 10.1962 14.3606 10.2 14.4 10.2C14.4394 10.2 14.4784 10.1962 14.5171 10.1885C14.5557 10.1808 14.5932 10.1694 14.6296 10.1543C14.666 10.1392 14.7006 10.1208 14.7333 10.0989C14.7661 10.077 14.7964 10.0521 14.8243 10.0243C14.8521 9.99641 14.877 9.9661 14.8989 9.93334C14.9208 9.90059 14.9393 9.86601 14.9543 9.82961C14.9694 9.79321 14.9808 9.7557 14.9885 9.71706C14.9962 9.67842 15 9.6394 15 9.6Z"   fill="#656A85" >
</path>
<path d="M5.6002 10.2002L9.60019 10.2002C9.63959 10.2002 9.67861 10.1964 9.71725 10.1887C9.75589 10.181 9.79341 10.1696 9.82981 10.1545C9.8662 10.1394 9.90078 10.121 9.93354 10.0991C9.96629 10.0772 9.9966 10.0523 10.0245 10.0245C10.0523 9.9966 10.0772 9.96629 10.0991 9.93354C10.121 9.90078 10.1394 9.8662 10.1545 9.82981C10.1696 9.79341 10.181 9.75589 10.1887 9.71725C10.1964 9.67861 10.2002 9.63959 10.2002 9.60019C10.2002 9.5608 10.1964 9.52178 10.1887 9.48314C10.181 9.4445 10.1696 9.40698 10.1545 9.37058C10.1394 9.33419 10.121 9.29961 10.0991 9.26685C10.0772 9.2341 10.0523 9.20379 10.0245 9.17593C9.9966 9.14807 9.96629 9.1232 9.93354 9.10131C9.90078 9.07943 9.8662 9.06094 9.82981 9.04587C9.79341 9.03079 9.75589 9.01941 9.71725 9.01172C9.67861 9.00404 9.63959 9.0002 9.60019 9.0002L5.6002 9.0002C5.5608 9.0002 5.52178 9.00404 5.48314 9.01172C5.4445 9.01941 5.40698 9.03079 5.37059 9.04587C5.33419 9.06094 5.29961 9.07943 5.26685 9.10131C5.23409 9.1232 5.20379 9.14807 5.17593 9.17593C5.14808 9.20379 5.1232 9.2341 5.10132 9.26685C5.07943 9.29961 5.06095 9.33419 5.04587 9.37058C5.03079 9.40698 5.01941 9.4445 5.01172 9.48314C5.00404 9.52178 5.0002 9.5608 5.0002 9.60019C5.0002 9.63959 5.00404 9.67861 5.01172 9.71725C5.01941 9.75589 5.03079 9.79341 5.04587 9.82981C5.06095 9.8662 5.07943 9.90078 5.10132 9.93354C5.1232 9.96629 5.14808 9.9966 5.17593 10.0245C5.20379 10.0523 5.23409 10.0772 5.26685 10.0991C5.29961 10.121 5.33419 10.1394 5.37059 10.1545C5.40698 10.1696 5.4445 10.181 5.48314 10.1887C5.52178 10.1964 5.5608 10.2002 5.6002 10.2002Z"   fill="#656A85" >
</path>
<path d="M5.6002 15L9.60019 15C9.63959 15 9.67861 14.9962 9.71725 14.9885C9.75589 14.9808 9.79341 14.9694 9.82981 14.9543C9.8662 14.9393 9.90078 14.9208 9.93354 14.8989C9.96629 14.877 9.9966 14.8521 10.0245 14.8243C10.0523 14.7964 10.0772 14.7661 10.0991 14.7333C10.121 14.7006 10.1394 14.666 10.1545 14.6296C10.1696 14.5932 10.181 14.5557 10.1887 14.5171C10.1964 14.4784 10.2002 14.4394 10.2002 14.4C10.2002 14.3606 10.1964 14.3216 10.1887 14.2829C10.181 14.2443 10.1696 14.2068 10.1545 14.1704C10.1394 14.134 10.121 14.0994 10.0991 14.0667C10.0772 14.0339 10.0523 14.0036 10.0245 13.9757C9.9966 13.9479 9.96629 13.923 9.93354 13.9011C9.90078 13.8792 9.8662 13.8607 9.82981 13.8457C9.79341 13.8306 9.75589 13.8192 9.71725 13.8115C9.67861 13.8038 9.63959 13.8 9.60019 13.8L5.6002 13.8C5.5608 13.8 5.52178 13.8038 5.48314 13.8115C5.4445 13.8192 5.40698 13.8306 5.37059 13.8457C5.33419 13.8607 5.29961 13.8792 5.26685 13.9011C5.23409 13.923 5.20379 13.9479 5.17593 13.9757C5.14808 14.0036 5.1232 14.0339 5.10132 14.0667C5.07943 14.0994 5.06095 14.134 5.04587 14.1704C5.03079 14.2068 5.01941 14.2443 5.01172 14.2829C5.00404 14.3216 5.0002 14.3606 5.0002 14.4C5.0002 14.4394 5.00404 14.4784 5.01172 14.5171C5.01941 14.5557 5.03079 14.5932 5.04587 14.6296C5.06095 14.666 5.07943 14.7006 5.10132 14.7333C5.1232 14.7661 5.14808 14.7964 5.17593 14.8243C5.20379 14.8521 5.23409 14.877 5.26685 14.8989C5.29961 14.9208 5.33419 14.9393 5.37059 14.9543C5.40698 14.9694 5.4445 14.9808 5.48314 14.9885C5.52178 14.9962 5.5608 15 5.6002 15Z"   fill="#656A85" >
</path>
<path d="M14.4 10.2002L18.4 10.2002C18.4394 10.2002 18.4784 10.1964 18.5171 10.1887C18.5557 10.181 18.5932 10.1696 18.6296 10.1545C18.666 10.1394 18.7006 10.121 18.7333 10.0991C18.7661 10.0772 18.7964 10.0523 18.8243 10.0245C18.8521 9.9966 18.877 9.96629 18.8989 9.93354C18.9208 9.90078 18.9393 9.8662 18.9543 9.82981C18.9694 9.79341 18.9808 9.75589 18.9885 9.71725C18.9962 9.67861 19 9.63959 19 9.60019C19 9.5608 18.9962 9.52178 18.9885 9.48314C18.9808 9.4445 18.9694 9.40698 18.9543 9.37058C18.9393 9.33419 18.9208 9.29961 18.8989 9.26685C18.877 9.2341 18.8521 9.20379 18.8243 9.17593C18.7964 9.14807 18.7661 9.1232 18.7333 9.10131C18.7006 9.07943 18.666 9.06094 18.6296 9.04587C18.5932 9.03079 18.5557 9.01941 18.5171 9.01172C18.4784 9.00404 18.4394 9.0002 18.4 9.0002L14.4 9.0002C14.3606 9.0002 14.3216 9.00404 14.2829 9.01172C14.2443 9.01941 14.2068 9.03079 14.1704 9.04587C14.134 9.06094 14.0994 9.07943 14.0667 9.10131C14.0339 9.1232 14.0036 9.14807 13.9757 9.17593C13.9479 9.20379 13.923 9.2341 13.9011 9.26685C13.8792 9.29961 13.8608 9.33419 13.8457 9.37058C13.8306 9.40698 13.8192 9.4445 13.8115 9.48314C13.8038 9.52178 13.8 9.5608 13.8 9.60019C13.8 9.63959 13.8038 9.67861 13.8115 9.71725C13.8192 9.75589 13.8306 9.79341 13.8457 9.82981C13.8608 9.8662 13.8792 9.90078 13.9011 9.93354C13.923 9.96629 13.9479 9.9966 13.9757 10.0245C14.0036 10.0523 14.0339 10.0772 14.0667 10.0991C14.0994 10.121 14.134 10.1394 14.1704 10.1545C14.2068 10.1696 14.2443 10.181 14.2829 10.1887C14.3216 10.1964 14.3606 10.2002 14.4 10.2002Z"   fill="#656A85" >
</path>
<path d="M9.6 19L14.4 19C14.4394 19 14.4784 18.9962 14.5171 18.9885C14.5557 18.9808 14.5932 18.9694 14.6296 18.9543C14.666 18.9393 14.7006 18.9208 14.7333 18.8989C14.7661 18.877 14.7964 18.8521 14.8243 18.8243C14.8521 18.7964 14.877 18.7661 14.8989 18.7333C14.9208 18.7006 14.9393 18.666 14.9543 18.6296C14.9694 18.5932 14.9808 18.5557 14.9885 18.5171C14.9962 18.4784 15 18.4394 15 18.4C15 18.3606 14.9962 18.3216 14.9885 18.2829C14.9808 18.2443 14.9694 18.2068 14.9543 18.1704C14.9393 18.134 14.9208 18.0994 14.8989 18.0667C14.877 18.0339 14.8521 18.0036 14.8243 17.9757C14.7964 17.9479 14.7661 17.923 14.7333 17.9011C14.7006 17.8792 14.666 17.8607 14.6296 17.8457C14.5932 17.8306 14.5557 17.8192 14.5171 17.8115C14.4784 17.8038 14.4394 17.8 14.4 17.8L9.6 17.8C9.5606 17.8 9.52158 17.8038 9.48294 17.8115C9.4443 17.8192 9.40679 17.8306 9.37039 17.8457C9.33399 17.8607 9.29941 17.8792 9.26666 17.9011C9.2339 17.923 9.20359 17.9479 9.17574 17.9757C9.14788 18.0036 9.12301 18.0339 9.10112 18.0667C9.07923 18.0994 9.06075 18.134 9.04567 18.1704C9.03059 18.2068 9.01921 18.2443 9.01153 18.2829C9.00384 18.3216 9 18.3606 9 18.4C9 18.4394 9.00384 18.4784 9.01153 18.5171C9.01921 18.5557 9.03059 18.5932 9.04567 18.6296C9.06075 18.666 9.07923 18.7006 9.10112 18.7333C9.12301 18.7661 9.14788 18.7964 9.17574 18.8243C9.20359 18.8521 9.2339 18.877 9.26666 18.8989C9.29941 18.9208 9.33399 18.9393 9.37039 18.9543C9.40679 18.9694 9.4443 18.9808 9.48294 18.9885C9.52158 18.9962 9.5606 19 9.6 19Z"   fill="#656A85" >
</path>
<path d="M9.6 6.2002L14.4 6.2002C14.4394 6.2002 14.4784 6.19635 14.5171 6.18867C14.5557 6.18098 14.5932 6.1696 14.6296 6.15452C14.666 6.13945 14.7006 6.12096 14.7333 6.09908C14.7661 6.07719 14.7964 6.05232 14.8243 6.02446C14.8521 5.9966 14.877 5.96629 14.8989 5.93354C14.9208 5.90078 14.9393 5.8662 14.9543 5.82981C14.9694 5.79341 14.9808 5.75589 14.9885 5.71725C14.9962 5.67861 15 5.63959 15 5.6002C15 5.5608 14.9962 5.52178 14.9885 5.48314C14.9808 5.4445 14.9694 5.40698 14.9543 5.37058C14.9393 5.33419 14.9208 5.29961 14.8989 5.26685C14.877 5.2341 14.8521 5.20379 14.8243 5.17593C14.7964 5.14807 14.7661 5.1232 14.7333 5.10131C14.7006 5.07943 14.666 5.06094 14.6296 5.04587C14.5932 5.03079 14.5557 5.01941 14.5171 5.01172C14.4784 5.00404 14.4394 5.0002 14.4 5.0002L9.6 5.0002C9.5606 5.0002 9.52158 5.00404 9.48294 5.01172C9.4443 5.01941 9.40679 5.03079 9.37039 5.04587C9.33399 5.06094 9.29941 5.07943 9.26666 5.10131C9.2339 5.1232 9.20359 5.14807 9.17574 5.17593C9.14788 5.20379 9.12301 5.2341 9.10112 5.26685C9.07923 5.29961 9.06075 5.33419 9.04567 5.37058C9.03059 5.40698 9.01921 5.4445 9.01153 5.48314C9.00384 5.52178 9 5.5608 9 5.6002C9 5.63959 9.00384 5.67861 9.01153 5.71725C9.01921 5.75589 9.03059 5.79341 9.04567 5.82981C9.06075 5.8662 9.07923 5.90078 9.10112 5.93354C9.12301 5.96629 9.14788 5.9966 9.17574 6.02446C9.20359 6.05232 9.2339 6.07719 9.26666 6.09908C9.29941 6.12096 9.33399 6.13945 9.37039 6.15452C9.40679 6.1696 9.4443 6.18098 9.48294 6.18867C9.52158 6.19635 9.5606 6.2002 9.6 6.2002Z"   fill="#656A85" >
</path>
<path d="M14.4 15L18.4 15C18.4394 15 18.4784 14.9962 18.5171 14.9885C18.5557 14.9808 18.5932 14.9694 18.6296 14.9543C18.666 14.9393 18.7006 14.9208 18.7333 14.8989C18.7661 14.877 18.7964 14.8521 18.8243 14.8243C18.8521 14.7964 18.877 14.7661 18.8989 14.7333C18.9208 14.7006 18.9393 14.666 18.9543 14.6296C18.9694 14.5932 18.9808 14.5557 18.9885 14.5171C18.9962 14.4784 19 14.4394 19 14.4C19 14.3606 18.9962 14.3216 18.9885 14.2829C18.9808 14.2443 18.9694 14.2068 18.9543 14.1704C18.9393 14.134 18.9208 14.0994 18.8989 14.0667C18.877 14.0339 18.8521 14.0036 18.8243 13.9757C18.7964 13.9479 18.7661 13.923 18.7333 13.9011C18.7006 13.8792 18.666 13.8607 18.6296 13.8457C18.5932 13.8306 18.5557 13.8192 18.5171 13.8115C18.4784 13.8038 18.4394 13.8 18.4 13.8L14.4 13.8C14.3606 13.8 14.3216 13.8038 14.2829 13.8115C14.2443 13.8192 14.2068 13.8306 14.1704 13.8457C14.134 13.8607 14.0994 13.8792 14.0667 13.9011C14.0339 13.923 14.0036 13.9479 13.9757 13.9757C13.9479 14.0036 13.923 14.0339 13.9011 14.0667C13.8792 14.0994 13.8608 14.134 13.8457 14.1704C13.8306 14.2068 13.8192 14.2443 13.8115 14.2829C13.8038 14.3216 13.8 14.3606 13.8 14.4C13.8 14.4394 13.8038 14.4784 13.8115 14.5171C13.8192 14.5557 13.8306 14.5932 13.8457 14.6296C13.8608 14.666 13.8792 14.7006 13.9011 14.7333C13.923 14.7661 13.9479 14.7964 13.9757 14.8243C14.0036 14.8521 14.0339 14.877 14.0667 14.8989C14.0994 14.9208 14.134 14.9393 14.1704 14.9543C14.2068 14.9694 14.2443 14.9808 14.2829 14.9885C14.3216 14.9962 14.3606 15 14.4 15Z"   fill="#656A85" >
</path>
<path d="M10.2002 18.3998L10.2002 14.3998C10.2002 14.3604 10.1964 14.3214 10.1887 14.2828C10.181 14.2441 10.1696 14.2066 10.1545 14.1702C10.1394 14.1338 10.121 14.0992 10.0991 14.0665C10.0772 14.0337 10.0523 14.0034 10.0245 13.9755C9.9966 13.9477 9.96629 13.9228 9.93354 13.9009C9.90078 13.879 9.8662 13.8606 9.82981 13.8455C9.79341 13.8304 9.75589 13.819 9.71725 13.8113C9.67861 13.8036 9.63959 13.7998 9.60019 13.7998C9.5608 13.7998 9.52178 13.8036 9.48314 13.8113C9.4445 13.819 9.40698 13.8304 9.37058 13.8455C9.33419 13.8606 9.29961 13.879 9.26685 13.9009C9.2341 13.9228 9.20379 13.9477 9.17593 13.9755C9.14807 14.0034 9.1232 14.0337 9.10131 14.0665C9.07943 14.0992 9.06094 14.1338 9.04587 14.1702C9.03079 14.2066 9.01941 14.2441 9.01172 14.2828C9.00404 14.3214 9.0002 14.3604 9.0002 14.3998L9.0002 18.3998C9.0002 18.4392 9.00404 18.4782 9.01172 18.5169C9.01941 18.5555 9.03079 18.593 9.04587 18.6294C9.06094 18.6658 9.07943 18.7004 9.10131 18.7331C9.1232 18.7659 9.14807 18.7962 9.17593 18.8241C9.20379 18.8519 9.2341 18.8768 9.26685 18.8987C9.29961 18.9206 9.33419 18.9391 9.37058 18.9541C9.40698 18.9692 9.4445 18.9806 9.48314 18.9883C9.52178 18.996 9.5608 18.9998 9.60019 18.9998C9.63959 18.9998 9.67861 18.996 9.71725 18.9883C9.75589 18.9806 9.79341 18.9692 9.82981 18.9541C9.8662 18.9391 9.90078 18.9206 9.93354 18.8987C9.96629 18.8768 9.9966 18.8519 10.0245 18.8241C10.0523 18.7962 10.0772 18.7659 10.0991 18.7331C10.121 18.7004 10.1394 18.6658 10.1545 18.6294C10.1696 18.593 10.181 18.5555 10.1887 18.5169C10.1964 18.4782 10.2002 18.4392 10.2002 18.3998Z"   fill="#656A85" >
</path>
<path d="M6.2002 14.4L6.2002 9.6C6.2002 9.5606 6.19635 9.52159 6.18867 9.48295C6.18098 9.44431 6.1696 9.40679 6.15452 9.37039C6.13945 9.33399 6.12096 9.29941 6.09908 9.26666C6.07719 9.2339 6.05232 9.20359 6.02446 9.17574C5.9966 9.14788 5.96629 9.12301 5.93354 9.10112C5.90078 9.07923 5.8662 9.06075 5.82981 9.04567C5.79341 9.0306 5.75589 9.01921 5.71725 9.01153C5.67861 9.00384 5.63959 9 5.6002 9C5.5608 9 5.52178 9.00384 5.48314 9.01153C5.4445 9.01921 5.40698 9.0306 5.37058 9.04567C5.33419 9.06075 5.29961 9.07923 5.26685 9.10112C5.2341 9.12301 5.20379 9.14788 5.17593 9.17574C5.14807 9.20359 5.1232 9.2339 5.10131 9.26666C5.07943 9.29941 5.06094 9.33399 5.04587 9.37039C5.03079 9.40679 5.01941 9.44431 5.01172 9.48295C5.00404 9.52159 5.0002 9.5606 5.0002 9.6L5.0002 14.4C5.0002 14.4394 5.00404 14.4784 5.01172 14.5171C5.01941 14.5557 5.03079 14.5932 5.04587 14.6296C5.06094 14.666 5.07943 14.7006 5.10131 14.7333C5.1232 14.7661 5.14807 14.7964 5.17593 14.8243C5.20379 14.8521 5.2341 14.877 5.26685 14.8989C5.29961 14.9208 5.33419 14.9393 5.37058 14.9543C5.40698 14.9694 5.4445 14.9808 5.48314 14.9885C5.52178 14.9962 5.5608 15 5.6002 15C5.63959 15 5.67861 14.9962 5.71725 14.9885C5.75589 14.9808 5.79341 14.9694 5.82981 14.9543C5.8662 14.9393 5.90078 14.9208 5.93354 14.8989C5.96629 14.877 5.9966 14.8521 6.02446 14.8243C6.05232 14.7964 6.07719 14.7661 6.09908 14.7333C6.12096 14.7006 6.13945 14.666 6.15452 14.6296C6.1696 14.5932 6.18098 14.5557 6.18867 14.5171C6.19635 14.4784 6.2002 14.4394 6.2002 14.4Z"   fill="#656A85" >
</path>
<path d="M19 14.4L19 9.6C19 9.5606 18.9962 9.52159 18.9885 9.48295C18.9808 9.44431 18.9694 9.40679 18.9543 9.37039C18.9393 9.33399 18.9208 9.29941 18.8989 9.26666C18.877 9.2339 18.8521 9.20359 18.8243 9.17574C18.7964 9.14788 18.7661 9.12301 18.7333 9.10112C18.7006 9.07923 18.666 9.06075 18.6296 9.04567C18.5932 9.0306 18.5557 9.01921 18.5171 9.01153C18.4784 9.00384 18.4394 9 18.4 9C18.3606 9 18.3216 9.00384 18.2829 9.01153C18.2443 9.01921 18.2068 9.0306 18.1704 9.04567C18.134 9.06075 18.0994 9.07923 18.0667 9.10112C18.0339 9.12301 18.0036 9.14788 17.9757 9.17574C17.9479 9.20359 17.923 9.2339 17.9011 9.26666C17.8792 9.29941 17.8607 9.33399 17.8457 9.37039C17.8306 9.40679 17.8192 9.44431 17.8115 9.48295C17.8038 9.52159 17.8 9.5606 17.8 9.6L17.8 14.4C17.8 14.4394 17.8038 14.4784 17.8115 14.5171C17.8192 14.5557 17.8306 14.5932 17.8457 14.6296C17.8607 14.666 17.8792 14.7006 17.9011 14.7333C17.923 14.7661 17.9479 14.7964 17.9757 14.8243C18.0036 14.8521 18.0339 14.877 18.0667 14.8989C18.0994 14.9208 18.134 14.9393 18.1704 14.9543C18.2068 14.9694 18.2443 14.9808 18.2829 14.9885C18.3216 14.9962 18.3606 15 18.4 15C18.4394 15 18.4784 14.9962 18.5171 14.9885C18.5557 14.9808 18.5932 14.9694 18.6296 14.9543C18.666 14.9393 18.7006 14.9208 18.7333 14.8989C18.7661 14.877 18.7964 14.8521 18.8243 14.8243C18.8521 14.7964 18.877 14.7661 18.8989 14.7333C18.9208 14.7006 18.9393 14.666 18.9543 14.6296C18.9694 14.5932 18.9808 14.5557 18.9885 14.5171C18.9962 14.4784 19 14.4394 19 14.4Z"   fill="#656A85" >
</path>
<path d="M15 18.3998L15 14.3998C15 14.3604 14.9962 14.3214 14.9885 14.2828C14.9808 14.2441 14.9694 14.2066 14.9543 14.1702C14.9393 14.1338 14.9208 14.0992 14.8989 14.0665C14.877 14.0337 14.8521 14.0034 14.8243 13.9755C14.7964 13.9477 14.7661 13.9228 14.7333 13.9009C14.7006 13.879 14.666 13.8606 14.6296 13.8455C14.5932 13.8304 14.5557 13.819 14.5171 13.8113C14.4784 13.8036 14.4394 13.7998 14.4 13.7998C14.3606 13.7998 14.3216 13.8036 14.2829 13.8113C14.2443 13.819 14.2068 13.8304 14.1704 13.8455C14.134 13.8606 14.0994 13.879 14.0667 13.9009C14.0339 13.9228 14.0036 13.9477 13.9757 13.9755C13.9479 14.0034 13.923 14.0337 13.9011 14.0665C13.8792 14.0992 13.8607 14.1338 13.8457 14.1702C13.8306 14.2066 13.8192 14.2441 13.8115 14.2828C13.8038 14.3214 13.8 14.3604 13.8 14.3998L13.8 18.3998C13.8 18.4392 13.8038 18.4782 13.8115 18.5169C13.8192 18.5555 13.8306 18.593 13.8457 18.6294C13.8607 18.6658 13.8792 18.7004 13.9011 18.7331C13.923 18.7659 13.9479 18.7962 13.9757 18.8241C14.0036 18.8519 14.0339 18.8768 14.0667 18.8987C14.0994 18.9206 14.134 18.9391 14.1704 18.9541C14.2068 18.9692 14.2443 18.9806 14.2829 18.9883C14.3216 18.996 14.3606 18.9998 14.4 18.9998C14.4394 18.9998 14.4784 18.996 14.5171 18.9883C14.5557 18.9806 14.5932 18.9692 14.6296 18.9541C14.666 18.9391 14.7006 18.9206 14.7333 18.8987C14.7661 18.8768 14.7964 18.8519 14.8243 18.8241C14.8521 18.7962 14.877 18.7659 14.8989 18.7331C14.9208 18.7004 14.9393 18.6658 14.9543 18.6294C14.9694 18.593 14.9808 18.5555 14.9885 18.5169C14.9962 18.4782 15 18.4392 15 18.3998Z"   fill="#656A85" >
</path>
</svg>
