<svg xmlns="http://www.w3.org/2000/svg" xmlns:xlink="http://www.w3.org/1999/xlink" width="16" height="16" viewBox="0 0 16 16" fill="none"><g  clip-path="url(#clip-path-51_1)"><path d="M7.9998 13.1998C10.8717 13.1998 13.1998 10.8717 13.1998 7.9998C13.1998 5.12792 10.8717 2.7998 7.9998 2.7998C5.12792 2.7998 2.7998 5.12792 2.7998 7.9998C2.7998 10.8717 5.12792 13.1998 7.9998 13.1998ZM7.9998 3.5998C10.4298 3.5998 12.3998 5.56975 12.3998 7.9998C12.3998 10.4298 10.4298 12.3998 7.9998 12.3998C5.56975 12.3998 3.5998 10.4298 3.5998 7.9998C3.5998 5.56975 5.56975 3.5998 7.9998 3.5998Z" fill-rule="evenodd"  fill="#656A85" ></path><path d="M4.40039 8.0001C4.40039 8.22101 4.57948 8.4001 4.80039 8.4001L11.2226 8.4001C11.4435 8.4001 11.6226 8.22101 11.6226 8.0001C11.6226 7.77918 11.4435 7.6001 11.2226 7.6001L4.80039 7.6001C4.57948 7.6001 4.40039 7.77918 4.40039 8.0001Z" fill-rule="evenodd"  fill="#656A85" ></path><path d="M8.00039 4.3999C7.77948 4.3999 7.60039 4.57899 7.60039 4.7999L7.60039 11.2221C7.60039 11.443 7.77948 11.6221 8.00039 11.6221C8.2213 11.6221 8.40039 11.443 8.40039 11.2221L8.40039 4.7999C8.40039 4.57899 8.2213 4.3999 8.00039 4.3999Z" fill-rule="evenodd"  fill="#656A85" ></path></g><defs><clipPath id="clip-path-51_1"><path d="M0 16L16 16L16 0L0 0L0 16Z" fill="white"/></clipPath></defs></svg>