<svg xmlns="http://www.w3.org/2000/svg" xmlns:xlink="http://www.w3.org/1999/xlink" width="24" height="24"
  viewBox="0 0 24 24" fill="none">
  <g opacity="1" transform="translate(0 0)  rotate(0)">
    <mask id="bg-mask-0" fill="white">
      <use transform="translate(0 0)  rotate(0)" xlink:href="#path_0"></use>
    </mask>
    <g mask="url(#bg-mask-0)">
      <g opacity="1" transform="translate(5.000244140625 5)  rotate(0)">
        <path id="直线 1 (轮廓)" fill-rule="evenodd" style="fill:#656A85" opacity="1"
          d="M5.19977 0.6C5.19977 0.56 5.19977 0.52 5.18977 0.48C5.17977 0.44 5.16977 0.41 5.14977 0.37C5.13977 0.33 5.11977 0.3 5.09977 0.27C5.07977 0.23 5.04977 0.2 5.01977 0.18C4.99977 0.15 4.96977 0.12 4.92977 0.1C4.89977 0.08 4.86977 0.06 4.82977 0.05C4.78977 0.03 4.75977 0.02 4.71977 0.01C4.67977 3.18408e-17 4.63977 3.42901e-17 4.59977 3.67394e-17C4.55977 3.91887e-17 4.51977 4.1638e-17 4.47977 0.01C4.43977 0.02 4.40977 0.03 4.36977 0.05C4.32977 0.06 4.29977 0.08 4.26977 0.1C4.22977 0.12 4.19977 0.15 4.17977 0.18C4.14977 0.2 4.11977 0.23 4.09977 0.27C4.07977 0.3 4.05977 0.33 4.04977 0.37C4.02977 0.41 4.01977 0.44 4.00977 0.48C3.99977 0.52 3.99977 0.56 3.99977 0.6L3.99977 4.6C3.99977 4.64 3.99977 4.68 4.00977 4.72C4.01977 4.76 4.02977 4.79 4.04977 4.83C4.05977 4.87 4.07977 4.9 4.09977 4.93C4.11977 4.97 4.14977 5 4.17977 5.02C4.19977 5.05 4.22977 5.08 4.26977 5.1C4.29977 5.12 4.32977 5.14 4.36977 5.15C4.40977 5.17 4.43977 5.18 4.47977 5.19C4.51977 5.2 4.55977 5.2 4.59977 5.2C4.63977 5.2 4.67977 5.2 4.71977 5.19C4.75977 5.18 4.78977 5.17 4.82977 5.15C4.86977 5.14 4.89977 5.12 4.92977 5.1C4.96977 5.08 4.99977 5.05 5.01977 5.02C5.04977 5 5.07977 4.97 5.09977 4.93C5.11977 4.9 5.13977 4.87 5.14977 4.83C5.16977 4.79 5.17977 4.76 5.18977 4.72C5.19977 4.68 5.19977 4.64 5.19977 4.6L5.19977 0.6Z">
        </path>
        <path id="直线 1 (轮廓)" fill-rule="evenodd" style="fill:#656A85" opacity="1"
          d="M9.99976 0.6C9.99976 0.56 9.99976 0.52 9.98976 0.48C9.97976 0.44 9.96976 0.41 9.94976 0.37C9.93976 0.33 9.91976 0.3 9.89976 0.27C9.87976 0.23 9.84976 0.2 9.81976 0.18C9.79976 0.15 9.76976 0.12 9.72976 0.1C9.69976 0.08 9.66976 0.06 9.62976 0.05C9.58976 0.03 9.55976 0.02 9.51976 0.01C9.47976 3.18408e-17 9.43976 3.42901e-17 9.39976 3.67394e-17C9.35976 3.91887e-17 9.31976 4.1638e-17 9.27976 0.01C9.23976 0.02 9.20976 0.03 9.16976 0.05C9.12976 0.06 9.09976 0.08 9.06976 0.1C9.02976 0.12 8.99976 0.15 8.97976 0.18C8.94976 0.2 8.91976 0.23 8.89976 0.27C8.87976 0.3 8.85976 0.33 8.84976 0.37C8.82976 0.41 8.81976 0.44 8.80976 0.48C8.79976 0.52 8.79976 0.56 8.79976 0.6L8.79976 4.6C8.79976 4.64 8.79976 4.68 8.80976 4.72C8.81976 4.76 8.82976 4.79 8.84976 4.83C8.85976 4.87 8.87976 4.9 8.89976 4.93C8.91976 4.97 8.94976 5 8.97976 5.02C8.99976 5.05 9.02976 5.08 9.06976 5.1C9.09976 5.12 9.12976 5.14 9.16976 5.15C9.20976 5.17 9.23976 5.18 9.27976 5.19C9.31976 5.2 9.35976 5.2 9.39976 5.2C9.43976 5.2 9.47976 5.2 9.51976 5.19C9.55976 5.18 9.58976 5.17 9.62976 5.15C9.66976 5.14 9.69976 5.12 9.72976 5.1C9.76976 5.08 9.79976 5.05 9.81976 5.02C9.84976 5 9.87976 4.97 9.89976 4.93C9.91976 4.9 9.93976 4.87 9.94976 4.83C9.96976 4.79 9.97976 4.76 9.98976 4.72C9.99976 4.68 9.99976 4.64 9.99976 4.6L9.99976 0.6Z">
        </path>
        <path id="直线 2 (轮廓)" fill-rule="evenodd" style="fill:#656A85" opacity="1"
          d="M4.59977 5.2002C4.63977 5.2002 4.67977 5.2002 4.71977 5.1902C4.75977 5.1802 4.78977 5.1702 4.82977 5.1502C4.86977 5.1402 4.89977 5.1202 4.92977 5.1002C4.96977 5.0802 4.99977 5.0502 5.01977 5.0202C5.04977 5.0002 5.07977 4.9702 5.09977 4.9302C5.11977 4.9002 5.13977 4.8702 5.14977 4.8302C5.16977 4.7902 5.17977 4.7602 5.18977 4.7202C5.19977 4.6802 5.19977 4.6402 5.19977 4.60019C5.19977 4.56019 5.19977 4.5202 5.18977 4.4802C5.17977 4.4402 5.16977 4.4102 5.14977 4.3702C5.13977 4.33019 5.11977 4.3002 5.09977 4.2702C5.07977 4.2302 5.04977 4.2002 5.01977 4.18019C4.99977 4.1502 4.96977 4.12019 4.92977 4.10019C4.89977 4.08019 4.86977 4.06019 4.82977 4.0502C4.78977 4.0302 4.75977 4.0202 4.71977 4.01019C4.67977 4.0002 4.63977 4.0002 4.59977 4.0002L0.599769 4.0002C0.559769 4.0002 0.519769 4.0002 0.479769 4.01019C0.439768 4.0202 0.409769 4.0302 0.369769 4.0502C0.329769 4.06019 0.299768 4.08019 0.269769 4.10019C0.229769 4.12019 0.199769 4.1502 0.179769 4.18019C0.149768 4.2002 0.119769 4.2302 0.0997686 4.2702C0.0797687 4.3002 0.0597687 4.33019 0.0497684 4.3702C0.0297685 4.4102 0.0197687 4.4402 0.00976849 4.4802C-0.000231266 4.5202 -0.000231266 4.56019 -0.000231266 4.60019C-0.000231266 4.6402 -0.000231266 4.6802 0.00976849 4.7202C0.0197687 4.7602 0.0297685 4.7902 0.0497684 4.8302C0.0597687 4.8702 0.0797687 4.9002 0.0997686 4.9302C0.119769 4.9702 0.149768 5.0002 0.179769 5.0202C0.199769 5.0502 0.229769 5.0802 0.269769 5.1002C0.299768 5.1202 0.329769 5.1402 0.369769 5.1502C0.409769 5.1702 0.439768 5.1802 0.479769 5.1902C0.519769 5.2002 0.559769 5.2002 0.599769 5.2002L4.59977 5.2002Z">
        </path>
        <path id="直线 2 (轮廓)" fill-rule="evenodd" style="fill:#656A85" opacity="1"
          d="M4.59977 10C4.63977 10 4.67977 10 4.71977 9.99C4.75977 9.98 4.78977 9.97 4.82977 9.95C4.86977 9.94 4.89977 9.92 4.92977 9.9C4.96977 9.88 4.99977 9.85 5.01977 9.82C5.04977 9.8 5.07977 9.77 5.09977 9.73C5.11977 9.7 5.13977 9.67 5.14977 9.63C5.16977 9.59 5.17977 9.56 5.18977 9.52C5.19977 9.48 5.19977 9.44 5.19977 9.4C5.19977 9.36 5.19977 9.32 5.18977 9.28C5.17977 9.24 5.16977 9.21 5.14977 9.17C5.13977 9.13 5.11977 9.1 5.09977 9.07C5.07977 9.03 5.04977 9 5.01977 8.98C4.99977 8.95 4.96977 8.92 4.92977 8.9C4.89977 8.88 4.86977 8.86 4.82977 8.85C4.78977 8.83 4.75977 8.82 4.71977 8.81C4.67977 8.8 4.63977 8.8 4.59977 8.8L0.599769 8.8C0.559769 8.8 0.519769 8.8 0.479769 8.81C0.439768 8.82 0.409769 8.83 0.369769 8.85C0.329769 8.86 0.299768 8.88 0.269769 8.9C0.229769 8.92 0.199769 8.95 0.179769 8.98C0.149768 9 0.119769 9.03 0.0997686 9.07C0.0797687 9.1 0.0597687 9.13 0.0497684 9.17C0.0297685 9.21 0.0197687 9.24 0.00976849 9.28C-0.000231266 9.32 -0.000231266 9.36 -0.000231266 9.4C-0.000231266 9.44 -0.000231266 9.48 0.00976849 9.52C0.0197687 9.56 0.0297685 9.59 0.0497684 9.63C0.0597687 9.67 0.0797687 9.7 0.0997686 9.73C0.119769 9.77 0.149768 9.8 0.179769 9.82C0.199769 9.85 0.229769 9.88 0.269769 9.9C0.299768 9.92 0.329769 9.94 0.369769 9.95C0.409769 9.97 0.439768 9.98 0.479769 9.99C0.519769 10 0.559769 10 0.599769 10L4.59977 10Z">
        </path>
        <path id="直线 2 (轮廓)" fill-rule="evenodd" style="fill:#656A85" opacity="1"
          d="M13.3998 5.2002C13.4398 5.2002 13.4798 5.2002 13.5198 5.1902C13.5598 5.1802 13.5898 5.1702 13.6298 5.1502C13.6698 5.1402 13.6998 5.1202 13.7298 5.1002C13.7698 5.0802 13.7998 5.0502 13.8198 5.0202C13.8498 5.0002 13.8798 4.9702 13.8998 4.9302C13.9198 4.9002 13.9398 4.8702 13.9498 4.8302C13.9698 4.7902 13.9798 4.7602 13.9898 4.7202C13.9998 4.6802 13.9998 4.6402 13.9998 4.60019C13.9998 4.56019 13.9998 4.5202 13.9898 4.4802C13.9798 4.4402 13.9698 4.4102 13.9498 4.3702C13.9398 4.33019 13.9198 4.3002 13.8998 4.2702C13.8798 4.2302 13.8498 4.2002 13.8198 4.18019C13.7998 4.1502 13.7698 4.12019 13.7298 4.10019C13.6998 4.08019 13.6698 4.06019 13.6298 4.0502C13.5898 4.0302 13.5598 4.0202 13.5198 4.01019C13.4798 4.0002 13.4398 4.0002 13.3998 4.0002L9.39976 4.0002C9.35976 4.0002 9.31976 4.0002 9.27976 4.01019C9.23976 4.0202 9.20976 4.0302 9.16976 4.0502C9.12976 4.06019 9.09976 4.08019 9.06976 4.10019C9.02976 4.12019 8.99976 4.1502 8.97976 4.18019C8.94976 4.2002 8.91976 4.2302 8.89976 4.2702C8.87976 4.3002 8.85976 4.33019 8.84976 4.3702C8.82976 4.4102 8.81976 4.4402 8.80976 4.4802C8.79976 4.5202 8.79976 4.56019 8.79976 4.60019C8.79976 4.6402 8.79976 4.6802 8.80976 4.7202C8.81976 4.7602 8.82976 4.7902 8.84976 4.8302C8.85976 4.8702 8.87976 4.9002 8.89976 4.9302C8.91976 4.9702 8.94976 5.0002 8.97976 5.0202C8.99976 5.0502 9.02976 5.0802 9.06976 5.1002C9.09976 5.1202 9.12976 5.1402 9.16976 5.1502C9.20976 5.1702 9.23976 5.1802 9.27976 5.1902C9.31976 5.2002 9.35976 5.2002 9.39976 5.2002L13.3998 5.2002Z">
        </path>
        <path id="直线 2 (轮廓)" fill-rule="evenodd" style="fill:#656A85" opacity="1"
          d="M9.39976 14C9.43976 14 9.47976 14 9.51976 13.99C9.55976 13.98 9.58976 13.97 9.62976 13.95C9.66976 13.94 9.69976 13.92 9.72976 13.9C9.76976 13.88 9.79976 13.85 9.81976 13.82C9.84976 13.8 9.87976 13.77 9.89976 13.73C9.91976 13.7 9.93976 13.67 9.94976 13.63C9.96976 13.59 9.97976 13.56 9.98976 13.52C9.99976 13.48 9.99976 13.44 9.99976 13.4C9.99976 13.36 9.99976 13.32 9.98976 13.28C9.97976 13.24 9.96976 13.21 9.94976 13.17C9.93976 13.13 9.91976 13.1 9.89976 13.07C9.87976 13.03 9.84976 13 9.81976 12.98C9.79976 12.95 9.76976 12.92 9.72976 12.9C9.69976 12.88 9.66976 12.86 9.62976 12.85C9.58976 12.83 9.55976 12.82 9.51976 12.81C9.47976 12.8 9.43976 12.8 9.39976 12.8L4.59976 12.8C4.55976 12.8 4.51976 12.8 4.47976 12.81C4.43976 12.82 4.40976 12.83 4.36976 12.85C4.32976 12.86 4.29976 12.88 4.26976 12.9C4.22976 12.92 4.19976 12.95 4.17976 12.98C4.14976 13 4.11976 13.03 4.09976 13.07C4.07976 13.1 4.05976 13.13 4.04976 13.17C4.02976 13.21 4.01976 13.24 4.00976 13.28C3.99976 13.32 3.99976 13.36 3.99976 13.4C3.99976 13.44 3.99976 13.48 4.00976 13.52C4.01976 13.56 4.02976 13.59 4.04976 13.63C4.05976 13.67 4.07976 13.7 4.09976 13.73C4.11976 13.77 4.14976 13.8 4.17976 13.82C4.19976 13.85 4.22976 13.88 4.26976 13.9C4.29976 13.92 4.32976 13.94 4.36976 13.95C4.40976 13.97 4.43976 13.98 4.47976 13.99C4.51976 14 4.55976 14 4.59976 14L9.39976 14Z">
        </path>
        <path id="直线 2 (轮廓)" fill-rule="evenodd" style="fill:#656A85" opacity="1"
          d="M9.39976 1.2002C9.43976 1.2002 9.47976 1.2002 9.51976 1.1902C9.55976 1.1802 9.58976 1.1702 9.62976 1.1502C9.66976 1.1402 9.69976 1.1202 9.72976 1.1002C9.76976 1.0802 9.79976 1.0502 9.81976 1.0202C9.84976 1.0002 9.87976 0.970195 9.89976 0.930195C9.91976 0.900195 9.93976 0.870195 9.94976 0.830195C9.96976 0.790195 9.97976 0.760195 9.98976 0.720195C9.99976 0.680195 9.99976 0.640195 9.99976 0.600195C9.99976 0.560195 9.99976 0.520195 9.98976 0.480195C9.97976 0.440195 9.96976 0.410195 9.94976 0.370195C9.93976 0.330195 9.91976 0.300195 9.89976 0.270195C9.87976 0.230195 9.84976 0.200195 9.81976 0.180195C9.79976 0.150195 9.76976 0.120195 9.72976 0.100195C9.69976 0.0801951 9.66976 0.0601951 9.62976 0.0501951C9.58976 0.0301951 9.55976 0.0201951 9.51976 0.010195C9.47976 0.000195026 9.43976 0.000195026 9.39976 0.000195026L4.59976 0.000195026C4.55976 0.000195026 4.51976 0.000195026 4.47976 0.010195C4.43976 0.0201951 4.40976 0.0301951 4.36976 0.0501951C4.32976 0.0601951 4.29976 0.0801951 4.26976 0.100195C4.22976 0.120195 4.19976 0.150195 4.17976 0.180195C4.14976 0.200195 4.11976 0.230195 4.09976 0.270195C4.07976 0.300195 4.05976 0.330195 4.04976 0.370195C4.02976 0.410195 4.01976 0.440195 4.00976 0.480195C3.99976 0.520195 3.99976 0.560195 3.99976 0.600195C3.99976 0.640195 3.99976 0.680195 4.00976 0.720195C4.01976 0.760195 4.02976 0.790195 4.04976 0.830195C4.05976 0.870195 4.07976 0.900195 4.09976 0.930195C4.11976 0.970195 4.14976 1.0002 4.17976 1.0202C4.19976 1.0502 4.22976 1.0802 4.26976 1.1002C4.29976 1.1202 4.32976 1.1402 4.36976 1.1502C4.40976 1.1702 4.43976 1.1802 4.47976 1.1902C4.51976 1.2002 4.55976 1.2002 4.59976 1.2002L9.39976 1.2002Z">
        </path>
        <path id="直线 2 (轮廓)" fill-rule="evenodd" style="fill:#656A85" opacity="1"
          d="M13.3998 10C13.4398 10 13.4798 10 13.5198 9.99C13.5598 9.98 13.5898 9.97 13.6298 9.95C13.6698 9.94 13.6998 9.92 13.7298 9.9C13.7698 9.88 13.7998 9.85 13.8198 9.82C13.8498 9.8 13.8798 9.77 13.8998 9.73C13.9198 9.7 13.9398 9.67 13.9498 9.63C13.9698 9.59 13.9798 9.56 13.9898 9.52C13.9998 9.48 13.9998 9.44 13.9998 9.4C13.9998 9.36 13.9998 9.32 13.9898 9.28C13.9798 9.24 13.9698 9.21 13.9498 9.17C13.9398 9.13 13.9198 9.1 13.8998 9.07C13.8798 9.03 13.8498 9 13.8198 8.98C13.7998 8.95 13.7698 8.92 13.7298 8.9C13.6998 8.88 13.6698 8.86 13.6298 8.85C13.5898 8.83 13.5598 8.82 13.5198 8.81C13.4798 8.8 13.4398 8.8 13.3998 8.8L9.39976 8.8C9.35976 8.8 9.31976 8.8 9.27976 8.81C9.23976 8.82 9.20976 8.83 9.16976 8.85C9.12976 8.86 9.09976 8.88 9.06976 8.9C9.02976 8.92 8.99976 8.95 8.97976 8.98C8.94976 9 8.91976 9.03 8.89976 9.07C8.87976 9.1 8.85976 9.13 8.84976 9.17C8.82976 9.21 8.81976 9.24 8.80976 9.28C8.79976 9.32 8.79976 9.36 8.79976 9.4C8.79976 9.44 8.79976 9.48 8.80976 9.52C8.81976 9.56 8.82976 9.59 8.84976 9.63C8.85976 9.67 8.87976 9.7 8.89976 9.73C8.91976 9.77 8.94976 9.8 8.97976 9.82C8.99976 9.85 9.02976 9.88 9.06976 9.9C9.09976 9.92 9.12976 9.94 9.16976 9.95C9.20976 9.97 9.23976 9.98 9.27976 9.99C9.31976 10 9.35976 10 9.39976 10L13.3998 10Z">
        </path>
        <path id="直线 3 (轮廓)" fill-rule="evenodd" style="fill:#656A85" opacity="1"
          d="M5.19977 9.39981C5.19977 9.3598 5.19977 9.3198 5.18977 9.2798C5.17977 9.2398 5.16977 9.2098 5.14977 9.1698C5.13977 9.1298 5.11977 9.0998 5.09977 9.0698C5.07977 9.0298 5.04977 8.9998 5.01977 8.9798C4.99977 8.9498 4.96977 8.9198 4.92977 8.89981C4.89977 8.8798 4.86977 8.85981 4.82977 8.8498C4.78977 8.8298 4.75977 8.81981 4.71977 8.8098C4.67977 8.7998 4.63977 8.7998 4.59977 8.7998C4.55977 8.7998 4.51977 8.7998 4.47977 8.8098C4.43977 8.81981 4.40977 8.8298 4.36977 8.8498C4.32977 8.85981 4.29977 8.8798 4.26977 8.89981C4.22977 8.9198 4.19977 8.9498 4.17977 8.9798C4.14977 8.9998 4.11977 9.0298 4.09977 9.0698C4.07977 9.0998 4.05977 9.1298 4.04977 9.1698C4.02977 9.2098 4.01977 9.2398 4.00977 9.2798C3.99977 9.3198 3.99977 9.3598 3.99977 9.39981L3.99977 13.3998C3.99977 13.4398 3.99977 13.4798 4.00977 13.5198C4.01977 13.5598 4.02977 13.5898 4.04977 13.6298C4.05977 13.6698 4.07977 13.6998 4.09977 13.7298C4.11977 13.7698 4.14977 13.7998 4.17977 13.8198C4.19977 13.8498 4.22977 13.8798 4.26977 13.8998C4.29977 13.9198 4.32977 13.9398 4.36977 13.9498C4.40977 13.9698 4.43977 13.9798 4.47977 13.9898C4.51977 13.9998 4.55977 13.9998 4.59977 13.9998C4.63977 13.9998 4.67977 13.9998 4.71977 13.9898C4.75977 13.9798 4.78977 13.9698 4.82977 13.9498C4.86977 13.9398 4.89977 13.9198 4.92977 13.8998C4.96977 13.8798 4.99977 13.8498 5.01977 13.8198C5.04977 13.7998 5.07977 13.7698 5.09977 13.7298C5.11977 13.6998 5.13977 13.6698 5.14977 13.6298C5.16977 13.5898 5.17977 13.5598 5.18977 13.5198C5.19977 13.4798 5.19977 13.4398 5.19977 13.3998L5.19977 9.39981Z">
        </path>
        <path id="直线 3 (轮廓)" fill-rule="evenodd" style="fill:#656A85" opacity="1"
          d="M1.19977 4.6C1.19977 4.56 1.19977 4.52 1.18977 4.48C1.17977 4.44 1.16977 4.41 1.14977 4.37C1.13977 4.33 1.11977 4.3 1.09977 4.27C1.07977 4.23 1.04977 4.2 1.01977 4.18C0.999768 4.15 0.969768 4.12 0.929768 4.1C0.899768 4.08 0.869768 4.06 0.829768 4.05C0.789768 4.03 0.759768 4.02 0.719768 4.01C0.679768 4 0.639768 4 0.599768 4C0.559768 4 0.519768 4 0.479768 4.01C0.439768 4.02 0.409768 4.03 0.369768 4.05C0.329768 4.06 0.299768 4.08 0.269768 4.1C0.229768 4.12 0.199768 4.15 0.179768 4.18C0.149768 4.2 0.119768 4.23 0.0997678 4.27C0.0797678 4.3 0.0597678 4.33 0.0497679 4.37C0.0297679 4.41 0.0197679 4.44 0.00976777 4.48C-0.00023222 4.52 -0.00023222 4.56 -0.00023222 4.6L-0.00023222 9.4C-0.00023222 9.44 -0.00023222 9.48 0.00976777 9.52C0.0197679 9.56 0.0297679 9.59 0.0497679 9.63C0.0597678 9.67 0.0797678 9.7 0.0997678 9.73C0.119768 9.77 0.149768 9.8 0.179768 9.82C0.199768 9.85 0.229768 9.88 0.269768 9.9C0.299768 9.92 0.329768 9.94 0.369768 9.95C0.409768 9.97 0.439768 9.98 0.479768 9.99C0.519768 10 0.559768 10 0.599768 10C0.639768 10 0.679768 10 0.719768 9.99C0.759768 9.98 0.789768 9.97 0.829768 9.95C0.869768 9.94 0.899768 9.92 0.929768 9.9C0.969768 9.88 0.999768 9.85 1.01977 9.82C1.04977 9.8 1.07977 9.77 1.09977 9.73C1.11977 9.7 1.13977 9.67 1.14977 9.63C1.16977 9.59 1.17977 9.56 1.18977 9.52C1.19977 9.48 1.19977 9.44 1.19977 9.4L1.19977 4.6Z">
        </path>
        <path id="直线 3 (轮廓)" fill-rule="evenodd" style="fill:#656A85" opacity="1"
          d="M13.9998 4.6C13.9998 4.56 13.9998 4.52 13.9898 4.48C13.9798 4.44 13.9698 4.41 13.9498 4.37C13.9398 4.33 13.9198 4.3 13.8998 4.27C13.8798 4.23 13.8498 4.2 13.8198 4.18C13.7998 4.15 13.7698 4.12 13.7298 4.1C13.6998 4.08 13.6698 4.06 13.6298 4.05C13.5898 4.03 13.5598 4.02 13.5198 4.01C13.4798 4 13.4398 4 13.3998 4C13.3598 4 13.3198 4 13.2798 4.01C13.2398 4.02 13.2098 4.03 13.1698 4.05C13.1298 4.06 13.0998 4.08 13.0698 4.1C13.0298 4.12 12.9998 4.15 12.9798 4.18C12.9498 4.2 12.9198 4.23 12.8998 4.27C12.8798 4.3 12.8598 4.33 12.8498 4.37C12.8298 4.41 12.8198 4.44 12.8098 4.48C12.7998 4.52 12.7998 4.56 12.7998 4.6L12.7998 9.4C12.7998 9.44 12.7998 9.48 12.8098 9.52C12.8198 9.56 12.8298 9.59 12.8498 9.63C12.8598 9.67 12.8798 9.7 12.8998 9.73C12.9198 9.77 12.9498 9.8 12.9798 9.82C12.9998 9.85 13.0298 9.88 13.0698 9.9C13.0998 9.92 13.1298 9.94 13.1698 9.95C13.2098 9.97 13.2398 9.98 13.2798 9.99C13.3198 10 13.3598 10 13.3998 10C13.4398 10 13.4798 10 13.5198 9.99C13.5598 9.98 13.5898 9.97 13.6298 9.95C13.6698 9.94 13.6998 9.92 13.7298 9.9C13.7698 9.88 13.7998 9.85 13.8198 9.82C13.8498 9.8 13.8798 9.77 13.8998 9.73C13.9198 9.7 13.9398 9.67 13.9498 9.63C13.9698 9.59 13.9798 9.56 13.9898 9.52C13.9998 9.48 13.9998 9.44 13.9998 9.4L13.9998 4.6Z">
        </path>
        <path id="直线 3 (轮廓)" fill-rule="evenodd" style="fill:#656A85" opacity="1"
          d="M9.99976 9.39981C9.99976 9.3598 9.99976 9.3198 9.98976 9.2798C9.97976 9.2398 9.96976 9.2098 9.94976 9.1698C9.93976 9.1298 9.91976 9.0998 9.89976 9.0698C9.87976 9.0298 9.84976 8.9998 9.81976 8.9798C9.79976 8.9498 9.76976 8.9198 9.72976 8.89981C9.69976 8.8798 9.66976 8.85981 9.62976 8.8498C9.58976 8.8298 9.55976 8.81981 9.51976 8.8098C9.47976 8.7998 9.43976 8.7998 9.39976 8.7998C9.35976 8.7998 9.31976 8.7998 9.27976 8.8098C9.23976 8.81981 9.20976 8.8298 9.16976 8.8498C9.12976 8.85981 9.09976 8.8798 9.06976 8.89981C9.02976 8.9198 8.99976 8.9498 8.97976 8.9798C8.94976 8.9998 8.91976 9.0298 8.89976 9.0698C8.87976 9.0998 8.85976 9.1298 8.84976 9.1698C8.82976 9.2098 8.81976 9.2398 8.80976 9.2798C8.79976 9.3198 8.79976 9.3598 8.79976 9.39981L8.79976 13.3998C8.79976 13.4398 8.79976 13.4798 8.80976 13.5198C8.81976 13.5598 8.82976 13.5898 8.84976 13.6298C8.85976 13.6698 8.87976 13.6998 8.89976 13.7298C8.91976 13.7698 8.94976 13.7998 8.97976 13.8198C8.99976 13.8498 9.02976 13.8798 9.06976 13.8998C9.09976 13.9198 9.12976 13.9398 9.16976 13.9498C9.20976 13.9698 9.23976 13.9798 9.27976 13.9898C9.31976 13.9998 9.35976 13.9998 9.39976 13.9998C9.43976 13.9998 9.47976 13.9998 9.51976 13.9898C9.55976 13.9798 9.58976 13.9698 9.62976 13.9498C9.66976 13.9398 9.69976 13.9198 9.72976 13.8998C9.76976 13.8798 9.79976 13.8498 9.81976 13.8198C9.84976 13.7998 9.87976 13.7698 9.89976 13.7298C9.91976 13.6998 9.93976 13.6698 9.94976 13.6298C9.96976 13.5898 9.97976 13.5598 9.98976 13.5198C9.99976 13.4798 9.99976 13.4398 9.99976 13.3998L9.99976 9.39981Z">
        </path>
      </g>
    </g>
  </g>
  <defs>
    <rect id="path_0" x="0" y="0" width="24" height="24" />
  </defs>
</svg>