<svg xmlns="http://www.w3.org/2000/svg" xmlns:xlink="http://www.w3.org/1999/xlink" width="28" height="28"
  viewBox="0 0 28 28" fill="none">
  <g opacity="1" transform="translate(0 0)  rotate(0)">
    <rect rx="2" ry="2" stroke="#DFE1ED" stroke-width="1" stroke-opacity="1" width="27.5" height="27.5" />
    <rect x="0" y="0" width="28" height="28" rx="2" ry="2" />
    <g opacity="1" transform="translate(2 2)  rotate(0)">
      <g opacity="1" transform="translate(0 0)  rotate(0)">
        <mask id="bg-mask-0" fill="white">
          <use transform="translate(0 0)  rotate(0)" xlink:href="#path_0"></use>
        </mask>
        <g mask="url(#bg-mask-0)">
          <path id="直线 7 (轮廓)" fill-rule="evenodd" style="fill:#656A85" opacity="1"
            d="M5.6 12.6004L18.4 12.6004C18.73 12.6004 19 12.3304 19 12.0004C19 11.6704 18.73 11.4004 18.4 11.4004L5.6 11.4004C5.27 11.4004 5 11.6704 5 12.0004C5 12.3304 5.27 12.6004 5.6 12.6004Z">
          </path>
          <path id="直线 7 (轮廓)" fill-rule="evenodd" style="fill:#656A85" opacity="1"
            d="M12.6 18.4L12.6 5.6C12.6 5.27 12.33 5 12 5C11.67 5 11.4 5.27 11.4 5.6L11.4 18.4C11.4 18.73 11.67 19 12 19C12.33 19 12.6 18.73 12.6 18.4Z">
          </path>
        </g>
      </g>
    </g>
  </g>
  <defs>
    <rect id="path_0" x="0" y="0" width="24" height="24" />
  </defs>
</svg>