<svg xmlns="http://www.w3.org/2000/svg" xmlns:xlink="http://www.w3.org/1999/xlink" width="24" height="24" viewBox="0 0 24 24" fill="none">
<g  clip-path="url(#clip-path-4_3867)">
<path d="M5.048 10.6318C5.032 10.5918 5.016 10.5518 5.008 10.5198C5 10.4798 5 10.4398 5 10.3998L5 5.59976C5 5.55976 5 5.51976 5.008 5.47976C5.016 5.44776 5.032 5.40776 5.048 5.36776C5.064 5.33576 5.08 5.29576 5.104 5.26376C5.12 5.23176 5.144 5.19976 5.176 5.17576C5.2 5.14376 5.232 5.11976 5.264 5.10376C5.296 5.07976 5.336 5.06376 5.368 5.04776C5.408 5.03176 5.448 5.01576 5.48 5.00776C5.52 4.99976 5.56 4.99976 5.6 4.99976L18.4 4.99976C18.44 4.99976 18.48 4.99976 18.52 5.00776C18.552 5.01576 18.592 5.03176 18.632 5.04776C18.664 5.06376 18.704 5.07976 18.736 5.10376C18.768 5.11976 18.8 5.14376 18.824 5.17576C18.856 5.19976 18.88 5.23176 18.896 5.26376C18.92 5.29576 18.936 5.33576 18.952 5.36776C18.968 5.40776 18.984 5.44776 18.992 5.47976C19 5.51976 19 5.55976 19 5.59976L19 10.3998C19 10.4398 19 10.4798 18.992 10.5198C18.984 10.5518 18.968 10.5918 18.952 10.6318C18.936 10.6638 18.92 10.7038 18.896 10.7358C18.88 10.7678 18.856 10.7998 18.824 10.8238C18.8 10.8558 18.768 10.8798 18.736 10.8958C18.704 10.9198 18.664 10.9358 18.632 10.9518C18.592 10.9678 18.552 10.9838 18.52 10.9918C18.48 10.9998 18.44 10.9998 18.4 10.9998L16.6006 10.9998L16.6004 12.0038C16.1846 12.0208 15.7823 12.0908 15.4003 12.207L15.4006 10.9998L8.60014 10.9998L8.60065 12.9998L13.867 12.9998C13.435 13.3337 13.0614 13.7397 12.7645 14.1998L6.2 14.1998L6.2 17.7998L12.1043 17.7998C12.194 18.223 12.3395 18.6258 12.5327 18.9998L5.6 18.9998C5.56 18.9998 5.52 18.9998 5.48 18.9918C5.448 18.9838 5.408 18.9678 5.368 18.9518C5.336 18.9358 5.296 18.9198 5.264 18.8958C5.232 18.8798 5.2 18.8558 5.176 18.8238C5.144 18.7998 5.12 18.7678 5.104 18.7358C5.08 18.7038 5.064 18.6638 5.048 18.6318C5.032 18.5918 5.016 18.5518 5.008 18.5198C5 18.4798 5 18.4398 5 18.3998L5 13.5998C5 13.5598 5 13.5198 5.008 13.4798C5.016 13.4478 5.032 13.4078 5.048 13.3678C5.064 13.3358 5.08 13.2958 5.104 13.2638C5.12 13.2318 5.144 13.1998 5.176 13.1758C5.2 13.1438 5.232 13.1198 5.264 13.1038C5.296 13.0798 5.336 13.0638 5.368 13.0478C5.408 13.0318 5.448 13.0158 5.48 13.0078C5.52 12.9998 5.56 12.9998 5.6 12.9998L7.40065 12.9998L7.40014 10.9998L5.6 10.9998C5.56 10.9998 5.52 10.9998 5.48 10.9918C5.448 10.9838 5.408 10.9678 5.368 10.9518C5.336 10.9358 5.296 10.9198 5.264 10.8958C5.232 10.8798 5.2 10.8558 5.176 10.8238C5.144 10.7998 5.12 10.7678 5.104 10.7358C5.08 10.7038 5.064 10.6638 5.048 10.6318ZM12.1971 15.4339C12.087 15.8057 12.0206 16.1963 12.0041 16.5998L12 16.5998L8 16.5998C7.96 16.5998 7.92 16.5998 7.88 16.5918C7.848 16.5838 7.808 16.5678 7.768 16.5518C7.736 16.5358 7.696 16.5198 7.664 16.4958C7.632 16.4798 7.6 16.4558 7.576 16.4238C7.544 16.3998 7.52 16.3678 7.504 16.3358C7.48 16.3038 7.464 16.2638 7.448 16.2318C7.432 16.1918 7.416 16.1518 7.408 16.1198C7.4 16.0798 7.4 16.0398 7.4 15.9998C7.4 15.9598 7.4 15.9198 7.408 15.8798C7.416 15.8478 7.432 15.8078 7.448 15.7678C7.464 15.7358 7.48 15.6958 7.504 15.6638C7.52 15.6318 7.544 15.5998 7.576 15.5758C7.6 15.5438 7.632 15.5198 7.664 15.5038C7.696 15.4798 7.736 15.4638 7.768 15.4478C7.808 15.4318 7.848 15.4158 7.88 15.4078C7.92 15.3998 7.96 15.3998 8 15.3998L12 15.3998C12.04 15.3998 12.08 15.3998 12.12 15.4078C12.1426 15.4134 12.1693 15.4231 12.1971 15.4339ZM6.2 9.79976L6.2 6.19976L17.8 6.19976L17.8 9.79976L6.2 9.79976ZM7.88 7.40776C7.92 7.39976 7.96 7.39976 8 7.39976L12 7.39976C12.04 7.39976 12.08 7.39976 12.12 7.40776C12.152 7.41576 12.192 7.43176 12.232 7.44776C12.264 7.46376 12.304 7.47976 12.336 7.50376C12.368 7.51976 12.4 7.54376 12.424 7.57576C12.456 7.59976 12.48 7.63176 12.496 7.66376C12.52 7.69576 12.536 7.73576 12.552 7.76776C12.568 7.80776 12.584 7.84776 12.592 7.87976C12.6 7.91976 12.6 7.95976 12.6 7.99976C12.6 8.03976 12.6 8.07976 12.592 8.11976C12.584 8.15176 12.568 8.19176 12.552 8.23176C12.536 8.26376 12.52 8.30376 12.496 8.33576C12.48 8.36776 12.456 8.39976 12.424 8.42376C12.4 8.45576 12.368 8.47976 12.336 8.49576C12.304 8.51976 12.264 8.53576 12.232 8.55176C12.192 8.56776 12.152 8.58376 12.12 8.59176C12.08 8.59976 12.04 8.59976 12 8.59976L8 8.59976C7.96 8.59976 7.92 8.59976 7.88 8.59176C7.848 8.58376 7.808 8.56776 7.768 8.55176C7.736 8.53576 7.696 8.51976 7.664 8.49576C7.632 8.47976 7.6 8.45576 7.576 8.42376C7.544 8.39976 7.52 8.36776 7.504 8.33576C7.48 8.30376 7.464 8.26376 7.448 8.23176C7.432 8.19176 7.416 8.15176 7.408 8.11976C7.4 8.07976 7.4 8.03976 7.4 7.99976C7.4 7.95976 7.4 7.91976 7.408 7.87976C7.416 7.84776 7.432 7.80776 7.448 7.76776C7.464 7.73576 7.48 7.69576 7.504 7.66376C7.52 7.63176 7.544 7.59976 7.576 7.57576C7.6 7.54376 7.632 7.51976 7.664 7.50376C7.696 7.47976 7.736 7.46376 7.768 7.44776C7.808 7.43176 7.848 7.41576 7.88 7.40776ZM15.352 7.76776C15.368 7.80776 15.384 7.84776 15.392 7.87976C15.4 7.91976 15.4 7.95976 15.4 7.99976C15.4 8.03976 15.4 8.07976 15.392 8.11976C15.384 8.15176 15.368 8.19176 15.352 8.23176C15.336 8.26376 15.32 8.30376 15.296 8.33576C15.28 8.36776 15.256 8.39976 15.224 8.42376C15.2 8.45576 15.168 8.47976 15.136 8.49576C15.104 8.51976 15.064 8.53576 15.032 8.55176C14.992 8.56776 14.952 8.58376 14.92 8.59176C14.88 8.59976 14.84 8.59976 14.8 8.59976L14.4 8.59976C14.36 8.59976 14.32 8.59976 14.28 8.59176C14.248 8.58376 14.208 8.56776 14.168 8.55176C14.136 8.53576 14.096 8.51976 14.064 8.49576C14.032 8.47976 14 8.45576 13.976 8.42376C13.944 8.39976 13.92 8.36776 13.904 8.33576C13.88 8.30376 13.864 8.26376 13.848 8.23176C13.832 8.19176 13.816 8.15176 13.808 8.11976C13.8 8.07976 13.8 8.03976 13.8 7.99976C13.8 7.95976 13.8 7.91976 13.808 7.87976C13.816 7.84776 13.832 7.80776 13.848 7.76776C13.864 7.73576 13.88 7.69576 13.904 7.66376C13.92 7.63176 13.944 7.59976 13.976 7.57576C14 7.54376 14.032 7.51976 14.064 7.50376C14.096 7.47976 14.136 7.46376 14.168 7.44776C14.208 7.43176 14.248 7.41576 14.28 7.40776C14.32 7.39976 14.36 7.39976 14.4 7.39976L14.8 7.39976C14.84 7.39976 14.88 7.39976 14.92 7.40776C14.952 7.41576 14.992 7.43176 15.032 7.44776C15.064 7.46376 15.104 7.47976 15.136 7.50376C15.168 7.51976 15.2 7.54376 15.224 7.57576C15.256 7.59976 15.28 7.63176 15.296 7.66376C15.32 7.69576 15.336 7.73576 15.352 7.76776Z" fill-rule="evenodd"  fill="#495AD4" >
</path>
<path d="M16.8 19.9999C18.5673 19.9999 20 18.5672 20 16.7999C20 15.0325 18.5673 13.5999 16.8 13.5999C15.0327 13.5999 13.6 15.0325 13.6 16.7999C13.6 18.5672 15.0327 19.9999 16.8 19.9999ZM17.392 15.0799C17.4 15.1199 17.4 15.1599 17.4 15.1999L17.4 16.1999L18.4 16.1999C18.44 16.1999 18.48 16.1999 18.52 16.2079C18.552 16.2159 18.592 16.2319 18.632 16.2479C18.664 16.2639 18.704 16.2799 18.736 16.3039C18.768 16.3199 18.8 16.3439 18.824 16.3759C18.856 16.3999 18.88 16.4319 18.896 16.4639C18.92 16.4959 18.936 16.5359 18.952 16.5679C18.968 16.6079 18.984 16.6479 18.992 16.6799C19 16.7199 19 16.7599 19 16.7999C19 16.8399 19 16.8799 18.992 16.9199C18.984 16.9519 18.968 16.9919 18.952 17.0319C18.936 17.0639 18.92 17.1039 18.896 17.1359C18.88 17.1679 18.856 17.1999 18.824 17.2239C18.8 17.2559 18.768 17.2799 18.736 17.2959C18.704 17.3199 18.664 17.3359 18.632 17.3519C18.592 17.3679 18.552 17.3839 18.52 17.3919C18.48 17.3999 18.44 17.3999 18.4 17.3999L17.4 17.3999L17.4 18.3999C17.4 18.4399 17.4 18.4799 17.392 18.5199C17.384 18.5519 17.368 18.5919 17.352 18.6319C17.336 18.6639 17.32 18.7039 17.296 18.7359C17.28 18.7679 17.256 18.7999 17.224 18.8239C17.2 18.8559 17.168 18.8799 17.136 18.8959C17.104 18.9199 17.064 18.9359 17.032 18.9519C16.992 18.9679 16.952 18.9839 16.92 18.9919C16.88 18.9999 16.84 18.9999 16.8 18.9999C16.76 18.9999 16.72 18.9999 16.68 18.9919C16.648 18.9839 16.608 18.9679 16.568 18.9519C16.536 18.9359 16.496 18.9199 16.464 18.8959C16.432 18.8799 16.4 18.8559 16.376 18.8239C16.344 18.7999 16.32 18.7679 16.304 18.7359C16.28 18.7039 16.264 18.6639 16.248 18.6319C16.232 18.5919 16.216 18.5519 16.208 18.5199C16.2 18.4799 16.2 18.4399 16.2 18.3999L16.2 17.3999L15.2 17.3999C15.16 17.3999 15.12 17.3999 15.08 17.3919C15.048 17.3839 15.008 17.3679 14.968 17.3519C14.936 17.3359 14.896 17.3199 14.864 17.2959C14.832 17.2799 14.8 17.2559 14.776 17.2239C14.744 17.1999 14.72 17.1679 14.704 17.1359C14.68 17.1039 14.664 17.0639 14.648 17.0319C14.632 16.9919 14.616 16.9519 14.608 16.9199C14.6 16.8799 14.6 16.8399 14.6 16.7999C14.6 16.7599 14.6 16.7199 14.608 16.6799C14.616 16.6479 14.632 16.6079 14.648 16.5679C14.664 16.5359 14.68 16.4959 14.704 16.4639C14.72 16.4319 14.744 16.3999 14.776 16.3759C14.8 16.3439 14.832 16.3199 14.864 16.3039C14.896 16.2799 14.936 16.2639 14.968 16.2479C15.008 16.2319 15.048 16.2159 15.08 16.2079C15.12 16.1999 15.16 16.1999 15.2 16.1999L16.2 16.1999L16.2 15.1999C16.2 15.1599 16.2 15.1199 16.208 15.0799C16.216 15.0479 16.232 15.0079 16.248 14.9679C16.264 14.9359 16.28 14.8959 16.304 14.8639C16.32 14.8319 16.344 14.7999 16.376 14.7759C16.4 14.7439 16.432 14.7199 16.464 14.7039C16.496 14.6799 16.536 14.6639 16.568 14.6479C16.608 14.6319 16.648 14.6159 16.68 14.6079C16.72 14.5999 16.76 14.5999 16.8 14.5999C16.84 14.5999 16.88 14.5999 16.92 14.6079C16.952 14.6159 16.992 14.6319 17.032 14.6479C17.064 14.6639 17.104 14.6799 17.136 14.7039C17.168 14.7199 17.2 14.7439 17.224 14.7759C17.256 14.7999 17.28 14.8319 17.296 14.8639C17.32 14.8959 17.336 14.9359 17.352 14.9679C17.368 15.0079 17.384 15.0479 17.392 15.0799Z" fill-rule="evenodd"  fill="#495AD4" >
</path>
<path fill-rule="evenodd"  fill="rgba(223, 225, 237, 1)"  d="M0 4L0 20C0 22.2091 1.79086 24 4 24L20 24C22.2091 24 24 22.2091 24 20L24 4C24 1.79086 22.2091 0 20 0L4 0C1.79086 0 0 1.79086 0 4ZM4 23C2.34315 23 1 21.6569 1 20L1 4C1 2.34315 2.34315 1 4 1L20 1C21.6569 1 23 2.34315 23 4L23 20C23 21.6569 21.6569 23 20 23L4 23Z">
</path>
</g>
<defs>
<clipPath id="clip-path-4_3867">
<path d="M4 0C1.79086 0 0 1.79086 0 4L0 20C0 22.2091 1.79086 24 4 24L20 24C22.2091 24 24 22.2091 24 20L24 4C24 1.79086 22.2091 0 20 0L4 0Z" fill="white"/>
</clipPath>
</defs>
</svg>