<svg xmlns="http://www.w3.org/2000/svg" xmlns:xlink="http://www.w3.org/1999/xlink" width="24" height="24" viewBox="0 0 24 24" fill="none"><g opacity="1"  transform="translate(0 0)  rotate(0)"><mask id="bg-mask-0" fill="white"><use xlink:href="#path_0"></use></mask><g mask="url(#bg-mask-0)" ><g opacity="1"  transform="translate(5 5)  rotate(0)"><path id="直线 1 (轮廓)" fill-rule="evenodd" style="fill:#656A85" opacity="1" d="M5.2002 0.6C5.2002 0.56 5.2002 0.52 5.1902 0.48C5.1802 0.44 5.1702 0.41 5.1502 0.37C5.1402 0.33 5.1202 0.3 5.1002 0.27C5.0802 0.23 5.0502 0.2 5.0202 0.18C5.0002 0.15 4.9702 0.12 4.9302 0.1C4.9002 0.08 4.8702 0.06 4.8302 0.05C4.7902 0.03 4.7602 0.02 4.7202 0.01C4.6802 3.18408e-17 4.6402 3.42901e-17 4.60019 3.67394e-17C4.56019 3.91887e-17 4.5202 4.1638e-17 4.4802 0.01C4.4402 0.02 4.4102 0.03 4.3702 0.05C4.33019 0.06 4.3002 0.08 4.2702 0.1C4.2302 0.12 4.2002 0.15 4.18019 0.18C4.1502 0.2 4.12019 0.23 4.10019 0.27C4.08019 0.3 4.06019 0.33 4.0502 0.37C4.0302 0.41 4.0202 0.44 4.01019 0.48C4.0002 0.52 4.0002 0.56 4.0002 0.6L4.0002 4.6C4.0002 4.64 4.0002 4.68 4.01019 4.72C4.0202 4.76 4.0302 4.79 4.0502 4.83C4.06019 4.87 4.08019 4.9 4.10019 4.93C4.12019 4.97 4.1502 5 4.18019 5.02C4.2002 5.05 4.2302 5.08 4.2702 5.1C4.3002 5.12 4.33019 5.14 4.3702 5.15C4.4102 5.17 4.4402 5.18 4.4802 5.19C4.5202 5.2 4.56019 5.2 4.60019 5.2C4.6402 5.2 4.6802 5.2 4.7202 5.19C4.7602 5.18 4.7902 5.17 4.8302 5.15C4.8702 5.14 4.9002 5.12 4.9302 5.1C4.9702 5.08 5.0002 5.05 5.0202 5.02C5.0502 5 5.0802 4.97 5.1002 4.93C5.1202 4.9 5.1402 4.87 5.1502 4.83C5.1702 4.79 5.1802 4.76 5.1902 4.72C5.2002 4.68 5.2002 4.64 5.2002 4.6L5.2002 0.6Z"></path><path id="直线 1 (轮廓)" fill-rule="evenodd" style="fill:#656A85" opacity="1" d="M10 0.6C10 0.56 10 0.52 9.99 0.48C9.98 0.44 9.97 0.41 9.95 0.37C9.94 0.33 9.92 0.3 9.9 0.27C9.88 0.23 9.85 0.2 9.82 0.18C9.8 0.15 9.77 0.12 9.73 0.1C9.7 0.08 9.67 0.06 9.63 0.05C9.59 0.03 9.56 0.02 9.52 0.01C9.48 3.18408e-17 9.44 3.42901e-17 9.4 3.67394e-17C9.36 3.91887e-17 9.32 4.1638e-17 9.28 0.01C9.24 0.02 9.21 0.03 9.17 0.05C9.13 0.06 9.1 0.08 9.07 0.1C9.03 0.12 9 0.15 8.98 0.18C8.95 0.2 8.92 0.23 8.9 0.27C8.88 0.3 8.86 0.33 8.85 0.37C8.83 0.41 8.82 0.44 8.81 0.48C8.8 0.52 8.8 0.56 8.8 0.6L8.8 4.6C8.8 4.64 8.8 4.68 8.81 4.72C8.82 4.76 8.83 4.79 8.85 4.83C8.86 4.87 8.88 4.9 8.9 4.93C8.92 4.97 8.95 5 8.98 5.02C9 5.05 9.03 5.08 9.07 5.1C9.1 5.12 9.13 5.14 9.17 5.15C9.21 5.17 9.24 5.18 9.28 5.19C9.32 5.2 9.36 5.2 9.4 5.2C9.44 5.2 9.48 5.2 9.52 5.19C9.56 5.18 9.59 5.17 9.63 5.15C9.67 5.14 9.7 5.12 9.73 5.1C9.77 5.08 9.8 5.05 9.82 5.02C9.85 5 9.88 4.97 9.9 4.93C9.92 4.9 9.94 4.87 9.95 4.83C9.97 4.79 9.98 4.76 9.99 4.72C10 4.68 10 4.64 10 4.6L10 0.6Z"></path><path id="直线 2 (轮廓)" fill-rule="evenodd" style="fill:#656A85" opacity="1" d="M4.6002 5.2002C4.6402 5.2002 4.6802 5.2002 4.7202 5.1902C4.7602 5.1802 4.7902 5.1702 4.8302 5.1502C4.8702 5.1402 4.9002 5.1202 4.9302 5.1002C4.9702 5.0802 5.0002 5.0502 5.0202 5.0202C5.0502 5.0002 5.0802 4.9702 5.1002 4.9302C5.1202 4.9002 5.1402 4.8702 5.1502 4.8302C5.1702 4.7902 5.1802 4.7602 5.1902 4.7202C5.2002 4.6802 5.2002 4.6402 5.2002 4.60019C5.2002 4.56019 5.2002 4.5202 5.1902 4.4802C5.1802 4.4402 5.1702 4.4102 5.1502 4.3702C5.1402 4.33019 5.1202 4.3002 5.1002 4.2702C5.0802 4.2302 5.0502 4.2002 5.0202 4.18019C5.0002 4.1502 4.9702 4.12019 4.9302 4.10019C4.9002 4.08019 4.8702 4.06019 4.8302 4.0502C4.7902 4.0302 4.7602 4.0202 4.7202 4.01019C4.6802 4.0002 4.6402 4.0002 4.6002 4.0002L0.600196 4.0002C0.560196 4.0002 0.520196 4.0002 0.480196 4.01019C0.440196 4.0202 0.410196 4.0302 0.370196 4.0502C0.330196 4.06019 0.300196 4.08019 0.270196 4.10019C0.230196 4.12019 0.200196 4.1502 0.180196 4.18019C0.150196 4.2002 0.120196 4.2302 0.100196 4.2702C0.0801959 4.3002 0.0601959 4.33019 0.0501957 4.3702C0.0301957 4.4102 0.020196 4.4402 0.0101957 4.4802C0.00019598 4.5202 0.00019598 4.56019 0.00019598 4.60019C0.00019598 4.6402 0.00019598 4.6802 0.0101957 4.7202C0.020196 4.7602 0.0301957 4.7902 0.0501957 4.8302C0.0601959 4.8702 0.0801959 4.9002 0.100196 4.9302C0.120196 4.9702 0.150196 5.0002 0.180196 5.0202C0.200196 5.0502 0.230196 5.0802 0.270196 5.1002C0.300196 5.1202 0.330196 5.1402 0.370196 5.1502C0.410196 5.1702 0.440196 5.1802 0.480196 5.1902C0.520196 5.2002 0.560196 5.2002 0.600196 5.2002L4.6002 5.2002Z"></path><path id="直线 2 (轮廓)" fill-rule="evenodd" style="fill:#656A85" opacity="1" d="M4.6002 10C4.6402 10 4.6802 10 4.7202 9.99C4.7602 9.98 4.7902 9.97 4.8302 9.95C4.8702 9.94 4.9002 9.92 4.9302 9.9C4.9702 9.88 5.0002 9.85 5.0202 9.82C5.0502 9.8 5.0802 9.77 5.1002 9.73C5.1202 9.7 5.1402 9.67 5.1502 9.63C5.1702 9.59 5.1802 9.56 5.1902 9.52C5.2002 9.48 5.2002 9.44 5.2002 9.4C5.2002 9.36 5.2002 9.32 5.1902 9.28C5.1802 9.24 5.1702 9.21 5.1502 9.17C5.1402 9.13 5.1202 9.1 5.1002 9.07C5.0802 9.03 5.0502 9 5.0202 8.98C5.0002 8.95 4.9702 8.92 4.9302 8.9C4.9002 8.88 4.8702 8.86 4.8302 8.85C4.7902 8.83 4.7602 8.82 4.7202 8.81C4.6802 8.8 4.6402 8.8 4.6002 8.8L0.600196 8.8C0.560196 8.8 0.520196 8.8 0.480196 8.81C0.440196 8.82 0.410196 8.83 0.370196 8.85C0.330196 8.86 0.300196 8.88 0.270196 8.9C0.230196 8.92 0.200196 8.95 0.180196 8.98C0.150196 9 0.120196 9.03 0.100196 9.07C0.0801959 9.1 0.0601959 9.13 0.0501957 9.17C0.0301957 9.21 0.020196 9.24 0.0101957 9.28C0.00019598 9.32 0.00019598 9.36 0.00019598 9.4C0.00019598 9.44 0.00019598 9.48 0.0101957 9.52C0.020196 9.56 0.0301957 9.59 0.0501957 9.63C0.0601959 9.67 0.0801959 9.7 0.100196 9.73C0.120196 9.77 0.150196 9.8 0.180196 9.82C0.200196 9.85 0.230196 9.88 0.270196 9.9C0.300196 9.92 0.330196 9.94 0.370196 9.95C0.410196 9.97 0.440196 9.98 0.480196 9.99C0.520196 10 0.560196 10 0.600196 10L4.6002 10Z"></path><path id="直线 2 (轮廓)" fill-rule="evenodd" style="fill:#656A85" opacity="1" d="M13.4 5.2002C13.44 5.2002 13.48 5.2002 13.52 5.1902C13.56 5.1802 13.59 5.1702 13.63 5.1502C13.67 5.1402 13.7 5.1202 13.73 5.1002C13.77 5.0802 13.8 5.0502 13.82 5.0202C13.85 5.0002 13.88 4.9702 13.9 4.9302C13.92 4.9002 13.94 4.8702 13.95 4.8302C13.97 4.7902 13.98 4.7602 13.99 4.7202C14 4.6802 14 4.6402 14 4.60019C14 4.56019 14 4.5202 13.99 4.4802C13.98 4.4402 13.97 4.4102 13.95 4.3702C13.94 4.33019 13.92 4.3002 13.9 4.2702C13.88 4.2302 13.85 4.2002 13.82 4.18019C13.8 4.1502 13.77 4.12019 13.73 4.10019C13.7 4.08019 13.67 4.06019 13.63 4.0502C13.59 4.0302 13.56 4.0202 13.52 4.01019C13.48 4.0002 13.44 4.0002 13.4 4.0002L9.4 4.0002C9.36 4.0002 9.32 4.0002 9.28 4.01019C9.24 4.0202 9.21 4.0302 9.17 4.0502C9.13 4.06019 9.1 4.08019 9.07 4.10019C9.03 4.12019 9 4.1502 8.98 4.18019C8.95 4.2002 8.92 4.2302 8.9 4.2702C8.88 4.3002 8.86 4.33019 8.85 4.3702C8.83 4.4102 8.82 4.4402 8.81 4.4802C8.8 4.5202 8.8 4.56019 8.8 4.60019C8.8 4.6402 8.8 4.6802 8.81 4.7202C8.82 4.7602 8.83 4.7902 8.85 4.8302C8.86 4.8702 8.88 4.9002 8.9 4.9302C8.92 4.9702 8.95 5.0002 8.98 5.0202C9 5.0502 9.03 5.0802 9.07 5.1002C9.1 5.1202 9.13 5.1402 9.17 5.1502C9.21 5.1702 9.24 5.1802 9.28 5.1902C9.32 5.2002 9.36 5.2002 9.4 5.2002L13.4 5.2002Z"></path><path id="直线 2 (轮廓)" fill-rule="evenodd" style="fill:#656A85" opacity="1" d="M9.4 14C9.44 14 9.48 14 9.52 13.99C9.56 13.98 9.59 13.97 9.63 13.95C9.67 13.94 9.7 13.92 9.73 13.9C9.77 13.88 9.8 13.85 9.82 13.82C9.85 13.8 9.88 13.77 9.9 13.73C9.92 13.7 9.94 13.67 9.95 13.63C9.97 13.59 9.98 13.56 9.99 13.52C10 13.48 10 13.44 10 13.4C10 13.36 10 13.32 9.99 13.28C9.98 13.24 9.97 13.21 9.95 13.17C9.94 13.13 9.92 13.1 9.9 13.07C9.88 13.03 9.85 13 9.82 12.98C9.8 12.95 9.77 12.92 9.73 12.9C9.7 12.88 9.67 12.86 9.63 12.85C9.59 12.83 9.56 12.82 9.52 12.81C9.48 12.8 9.44 12.8 9.4 12.8L4.6 12.8C4.56 12.8 4.52 12.8 4.48 12.81C4.44 12.82 4.41 12.83 4.37 12.85C4.33 12.86 4.3 12.88 4.27 12.9C4.23 12.92 4.2 12.95 4.18 12.98C4.15 13 4.12 13.03 4.1 13.07C4.08 13.1 4.06 13.13 4.05 13.17C4.03 13.21 4.02 13.24 4.01 13.28C4 13.32 4 13.36 4 13.4C4 13.44 4 13.48 4.01 13.52C4.02 13.56 4.03 13.59 4.05 13.63C4.06 13.67 4.08 13.7 4.1 13.73C4.12 13.77 4.15 13.8 4.18 13.82C4.2 13.85 4.23 13.88 4.27 13.9C4.3 13.92 4.33 13.94 4.37 13.95C4.41 13.97 4.44 13.98 4.48 13.99C4.52 14 4.56 14 4.6 14L9.4 14Z"></path><path id="直线 2 (轮廓)" fill-rule="evenodd" style="fill:#656A85" opacity="1" d="M9.4 1.2002C9.44 1.2002 9.48 1.2002 9.52 1.1902C9.56 1.1802 9.59 1.1702 9.63 1.1502C9.67 1.1402 9.7 1.1202 9.73 1.1002C9.77 1.0802 9.8 1.0502 9.82 1.0202C9.85 1.0002 9.88 0.970195 9.9 0.930195C9.92 0.900195 9.94 0.870195 9.95 0.830195C9.97 0.790195 9.98 0.760195 9.99 0.720195C10 0.680195 10 0.640195 10 0.600195C10 0.560195 10 0.520195 9.99 0.480195C9.98 0.440195 9.97 0.410195 9.95 0.370195C9.94 0.330195 9.92 0.300195 9.9 0.270195C9.88 0.230195 9.85 0.200195 9.82 0.180195C9.8 0.150195 9.77 0.120195 9.73 0.100195C9.7 0.0801951 9.67 0.0601951 9.63 0.0501951C9.59 0.0301951 9.56 0.0201951 9.52 0.010195C9.48 0.000195026 9.44 0.000195026 9.4 0.000195026L4.6 0.000195026C4.56 0.000195026 4.52 0.000195026 4.48 0.010195C4.44 0.0201951 4.41 0.0301951 4.37 0.0501951C4.33 0.0601951 4.3 0.0801951 4.27 0.100195C4.23 0.120195 4.2 0.150195 4.18 0.180195C4.15 0.200195 4.12 0.230195 4.1 0.270195C4.08 0.300195 4.06 0.330195 4.05 0.370195C4.03 0.410195 4.02 0.440195 4.01 0.480195C4 0.520195 4 0.560195 4 0.600195C4 0.640195 4 0.680195 4.01 0.720195C4.02 0.760195 4.03 0.790195 4.05 0.830195C4.06 0.870195 4.08 0.900195 4.1 0.930195C4.12 0.970195 4.15 1.0002 4.18 1.0202C4.2 1.0502 4.23 1.0802 4.27 1.1002C4.3 1.1202 4.33 1.1402 4.37 1.1502C4.41 1.1702 4.44 1.1802 4.48 1.1902C4.52 1.2002 4.56 1.2002 4.6 1.2002L9.4 1.2002Z"></path><path id="直线 2 (轮廓)" fill-rule="evenodd" style="fill:#656A85" opacity="1" d="M13.4 10C13.44 10 13.48 10 13.52 9.99C13.56 9.98 13.59 9.97 13.63 9.95C13.67 9.94 13.7 9.92 13.73 9.9C13.77 9.88 13.8 9.85 13.82 9.82C13.85 9.8 13.88 9.77 13.9 9.73C13.92 9.7 13.94 9.67 13.95 9.63C13.97 9.59 13.98 9.56 13.99 9.52C14 9.48 14 9.44 14 9.4C14 9.36 14 9.32 13.99 9.28C13.98 9.24 13.97 9.21 13.95 9.17C13.94 9.13 13.92 9.1 13.9 9.07C13.88 9.03 13.85 9 13.82 8.98C13.8 8.95 13.77 8.92 13.73 8.9C13.7 8.88 13.67 8.86 13.63 8.85C13.59 8.83 13.56 8.82 13.52 8.81C13.48 8.8 13.44 8.8 13.4 8.8L9.4 8.8C9.36 8.8 9.32 8.8 9.28 8.81C9.24 8.82 9.21 8.83 9.17 8.85C9.13 8.86 9.1 8.88 9.07 8.9C9.03 8.92 9 8.95 8.98 8.98C8.95 9 8.92 9.03 8.9 9.07C8.88 9.1 8.86 9.13 8.85 9.17C8.83 9.21 8.82 9.24 8.81 9.28C8.8 9.32 8.8 9.36 8.8 9.4C8.8 9.44 8.8 9.48 8.81 9.52C8.82 9.56 8.83 9.59 8.85 9.63C8.86 9.67 8.88 9.7 8.9 9.73C8.92 9.77 8.95 9.8 8.98 9.82C9 9.85 9.03 9.88 9.07 9.9C9.1 9.92 9.13 9.94 9.17 9.95C9.21 9.97 9.24 9.98 9.28 9.99C9.32 10 9.36 10 9.4 10L13.4 10Z"></path><path id="直线 3 (轮廓)" fill-rule="evenodd" style="fill:#656A85" opacity="1" d="M5.2002 9.39981C5.2002 9.3598 5.2002 9.3198 5.1902 9.2798C5.1802 9.2398 5.1702 9.2098 5.1502 9.1698C5.1402 9.1298 5.1202 9.0998 5.1002 9.0698C5.0802 9.0298 5.0502 8.9998 5.0202 8.9798C5.0002 8.9498 4.9702 8.9198 4.9302 8.89981C4.9002 8.8798 4.8702 8.85981 4.8302 8.8498C4.7902 8.8298 4.7602 8.81981 4.7202 8.8098C4.6802 8.7998 4.6402 8.7998 4.60019 8.7998C4.56019 8.7998 4.5202 8.7998 4.4802 8.8098C4.4402 8.81981 4.4102 8.8298 4.3702 8.8498C4.33019 8.85981 4.3002 8.8798 4.2702 8.89981C4.2302 8.9198 4.2002 8.9498 4.18019 8.9798C4.1502 8.9998 4.12019 9.0298 4.10019 9.0698C4.08019 9.0998 4.06019 9.1298 4.0502 9.1698C4.0302 9.2098 4.0202 9.2398 4.01019 9.2798C4.0002 9.3198 4.0002 9.3598 4.0002 9.39981L4.0002 13.3998C4.0002 13.4398 4.0002 13.4798 4.01019 13.5198C4.0202 13.5598 4.0302 13.5898 4.0502 13.6298C4.06019 13.6698 4.08019 13.6998 4.10019 13.7298C4.12019 13.7698 4.1502 13.7998 4.18019 13.8198C4.2002 13.8498 4.2302 13.8798 4.2702 13.8998C4.3002 13.9198 4.33019 13.9398 4.3702 13.9498C4.4102 13.9698 4.4402 13.9798 4.4802 13.9898C4.5202 13.9998 4.56019 13.9998 4.60019 13.9998C4.6402 13.9998 4.6802 13.9998 4.7202 13.9898C4.7602 13.9798 4.7902 13.9698 4.8302 13.9498C4.8702 13.9398 4.9002 13.9198 4.9302 13.8998C4.9702 13.8798 5.0002 13.8498 5.0202 13.8198C5.0502 13.7998 5.0802 13.7698 5.1002 13.7298C5.1202 13.6998 5.1402 13.6698 5.1502 13.6298C5.1702 13.5898 5.1802 13.5598 5.1902 13.5198C5.2002 13.4798 5.2002 13.4398 5.2002 13.3998L5.2002 9.39981Z"></path><path id="直线 3 (轮廓)" fill-rule="evenodd" style="fill:#656A85" opacity="1" d="M1.2002 4.6C1.2002 4.56 1.2002 4.52 1.1902 4.48C1.1802 4.44 1.1702 4.41 1.1502 4.37C1.1402 4.33 1.1202 4.3 1.1002 4.27C1.0802 4.23 1.0502 4.2 1.0202 4.18C1.0002 4.15 0.970195 4.12 0.930195 4.1C0.900195 4.08 0.870195 4.06 0.830195 4.05C0.790195 4.03 0.760195 4.02 0.720195 4.01C0.680195 4 0.640195 4 0.600195 4C0.560195 4 0.520195 4 0.480195 4.01C0.440195 4.02 0.410195 4.03 0.370195 4.05C0.330195 4.06 0.300195 4.08 0.270195 4.1C0.230195 4.12 0.200195 4.15 0.180195 4.18C0.150195 4.2 0.120195 4.23 0.100195 4.27C0.0801951 4.3 0.0601951 4.33 0.0501951 4.37C0.0301951 4.41 0.0201951 4.44 0.010195 4.48C0.000195026 4.52 0.000195026 4.56 0.000195026 4.6L0.000195026 9.4C0.000195026 9.44 0.000195026 9.48 0.010195 9.52C0.0201951 9.56 0.0301951 9.59 0.0501951 9.63C0.0601951 9.67 0.0801951 9.7 0.100195 9.73C0.120195 9.77 0.150195 9.8 0.180195 9.82C0.200195 9.85 0.230195 9.88 0.270195 9.9C0.300195 9.92 0.330195 9.94 0.370195 9.95C0.410195 9.97 0.440195 9.98 0.480195 9.99C0.520195 10 0.560195 10 0.600195 10C0.640195 10 0.680195 10 0.720195 9.99C0.760195 9.98 0.790195 9.97 0.830195 9.95C0.870195 9.94 0.900195 9.92 0.930195 9.9C0.970195 9.88 1.0002 9.85 1.0202 9.82C1.0502 9.8 1.0802 9.77 1.1002 9.73C1.1202 9.7 1.1402 9.67 1.1502 9.63C1.1702 9.59 1.1802 9.56 1.1902 9.52C1.2002 9.48 1.2002 9.44 1.2002 9.4L1.2002 4.6Z"></path><path id="直线 3 (轮廓)" fill-rule="evenodd" style="fill:#656A85" opacity="1" d="M14 4.6C14 4.56 14 4.52 13.99 4.48C13.98 4.44 13.97 4.41 13.95 4.37C13.94 4.33 13.92 4.3 13.9 4.27C13.88 4.23 13.85 4.2 13.82 4.18C13.8 4.15 13.77 4.12 13.73 4.1C13.7 4.08 13.67 4.06 13.63 4.05C13.59 4.03 13.56 4.02 13.52 4.01C13.48 4 13.44 4 13.4 4C13.36 4 13.32 4 13.28 4.01C13.24 4.02 13.21 4.03 13.17 4.05C13.13 4.06 13.1 4.08 13.07 4.1C13.03 4.12 13 4.15 12.98 4.18C12.95 4.2 12.92 4.23 12.9 4.27C12.88 4.3 12.86 4.33 12.85 4.37C12.83 4.41 12.82 4.44 12.81 4.48C12.8 4.52 12.8 4.56 12.8 4.6L12.8 9.4C12.8 9.44 12.8 9.48 12.81 9.52C12.82 9.56 12.83 9.59 12.85 9.63C12.86 9.67 12.88 9.7 12.9 9.73C12.92 9.77 12.95 9.8 12.98 9.82C13 9.85 13.03 9.88 13.07 9.9C13.1 9.92 13.13 9.94 13.17 9.95C13.21 9.97 13.24 9.98 13.28 9.99C13.32 10 13.36 10 13.4 10C13.44 10 13.48 10 13.52 9.99C13.56 9.98 13.59 9.97 13.63 9.95C13.67 9.94 13.7 9.92 13.73 9.9C13.77 9.88 13.8 9.85 13.82 9.82C13.85 9.8 13.88 9.77 13.9 9.73C13.92 9.7 13.94 9.67 13.95 9.63C13.97 9.59 13.98 9.56 13.99 9.52C14 9.48 14 9.44 14 9.4L14 4.6Z"></path><path id="直线 3 (轮廓)" fill-rule="evenodd" style="fill:#656A85" opacity="1" d="M10 9.39981C10 9.3598 10 9.3198 9.99 9.2798C9.98 9.2398 9.97 9.2098 9.95 9.1698C9.94 9.1298 9.92 9.0998 9.9 9.0698C9.88 9.0298 9.85 8.9998 9.82 8.9798C9.8 8.9498 9.77 8.9198 9.73 8.89981C9.7 8.8798 9.67 8.85981 9.63 8.8498C9.59 8.8298 9.56 8.81981 9.52 8.8098C9.48 8.7998 9.44 8.7998 9.4 8.7998C9.36 8.7998 9.32 8.7998 9.28 8.8098C9.24 8.81981 9.21 8.8298 9.17 8.8498C9.13 8.85981 9.1 8.8798 9.07 8.89981C9.03 8.9198 9 8.9498 8.98 8.9798C8.95 8.9998 8.92 9.0298 8.9 9.0698C8.88 9.0998 8.86 9.1298 8.85 9.1698C8.83 9.2098 8.82 9.2398 8.81 9.2798C8.8 9.3198 8.8 9.3598 8.8 9.39981L8.8 13.3998C8.8 13.4398 8.8 13.4798 8.81 13.5198C8.82 13.5598 8.83 13.5898 8.85 13.6298C8.86 13.6698 8.88 13.6998 8.9 13.7298C8.92 13.7698 8.95 13.7998 8.98 13.8198C9 13.8498 9.03 13.8798 9.07 13.8998C9.1 13.9198 9.13 13.9398 9.17 13.9498C9.21 13.9698 9.24 13.9798 9.28 13.9898C9.32 13.9998 9.36 13.9998 9.4 13.9998C9.44 13.9998 9.48 13.9998 9.52 13.9898C9.56 13.9798 9.59 13.9698 9.63 13.9498C9.67 13.9398 9.7 13.9198 9.73 13.8998C9.77 13.8798 9.8 13.8498 9.82 13.8198C9.85 13.7998 9.88 13.7698 9.9 13.7298C9.92 13.6998 9.94 13.6698 9.95 13.6298C9.97 13.5898 9.98 13.5598 9.99 13.5198C10 13.4798 10 13.4398 10 13.3998L10 9.39981Z"></path></g></g></g><defs><rect id="path_0" x="0" y="0" width="24" height="24" /></defs></svg>