<svg xmlns="http://www.w3.org/2000/svg" xmlns:xlink="http://www.w3.org/1999/xlink" width="24" height="24"
  viewBox="0 0 24 24" fill="none">
  <g opacity="1" transform="translate(0 0)  rotate(0)">
    <mask id="bg-mask-0" fill="white">
      <use transform="translate(0 0)  rotate(0)" xlink:href="#path_0"></use>
    </mask>
    <g mask="url(#bg-mask-0)">
      <path id="直线 7 (轮廓)" fill-rule="evenodd" style="fill:#656A85" opacity="1"
        d="M5.6 12.5999L18.4 12.5999C18.73 12.5999 19 12.3299 19 11.9999C19 11.6699 18.73 11.3999 18.4 11.3999L5.6 11.3999C5.27 11.3999 5 11.6699 5 11.9999C5 12.3299 5.27 12.5999 5.6 12.5999Z">
      </path>
      <path id="直线 7 (轮廓)" fill-rule="evenodd" style="fill:#656A85" opacity="1"
        d="M12.6 18.4L12.6 5.6C12.6 5.27 12.33 5 12 5C11.67 5 11.4 5.27 11.4 5.6L11.4 18.4C11.4 18.73 11.67 19 12 19C12.33 19 12.6 18.73 12.6 18.4Z">
      </path>
    </g>
  </g>
  <defs>
    <rect id="path_0" x="0" y="0" width="24" height="24" />
  </defs>
</svg>