<svg xmlns="http://www.w3.org/2000/svg" xmlns:xlink="http://www.w3.org/1999/xlink" width="30" height="30" viewBox="0 0 30 30" fill="none">
<path d="M6.25 7L6.25 20C6.25 20.4142 6.58579 20.75 7 20.75L23 20.75C23.4142 20.75 23.75 20.4142 23.75 20L23.75 7C23.75 6.58579 23.4142 6.25 23 6.25L7 6.25C6.58579 6.25 6.25 6.58579 6.25 7ZM7.75 19.25L7.75 7.75L22.25 7.75L22.25 19.25L7.75 19.25Z" fill-rule="evenodd"  fill="#131926" >
</path>
<path d="M11.5 15C11.5 15.4142 11.8358 15.75 12.25 15.75L14.75 15.75C15.1642 15.75 15.5 15.4142 15.5 15C15.5 14.5858 15.1642 14.25 14.75 14.25L12.25 14.25C11.8358 14.25 11.5 14.5858 11.5 15Z" fill-rule="evenodd"  fill="#495AD4" >
</path>
<path d="M10.7116 17.6923C11.0939 17.8516 11.5331 17.6708 11.6924 17.2884L14.1924 11.2884C14.3517 10.9061 14.1709 10.467 13.7885 10.3077C13.4062 10.1483 12.9671 10.3292 12.8077 10.7115L10.3077 16.7115C10.1484 17.0939 10.3292 17.533 10.7116 17.6923Z" fill-rule="evenodd"  fill="#495AD4" >
</path>
<path d="M16.2885 17.6923C16.6709 17.5329 16.8517 17.0938 16.6923 16.7115L14.1923 10.7115C14.033 10.3291 13.5939 10.1483 13.2116 10.3076C12.8292 10.4669 12.6484 10.9061 12.8077 11.2884L15.3077 17.2884C15.467 17.6708 15.9061 17.8516 16.2885 17.6923Z" fill-rule="evenodd"  fill="#495AD4" >
</path>
<path d="M18 17.75C18.4142 17.75 18.75 17.4142 18.75 17L18.75 11C18.75 10.5858 18.4142 10.25 18 10.25C17.5858 10.25 17.25 10.5858 17.25 11L17.25 17C17.25 17.4142 17.5858 17.75 18 17.75Z" fill-rule="evenodd"  fill="#495AD4" >
</path>
<path d="M6.25 23C6.25 23.4142 6.58579 23.75 7 23.75L23 23.75C23.4142 23.75 23.75 23.4142 23.75 23C23.75 22.5858 23.4142 22.25 23 22.25L7 22.25C6.58579 22.25 6.25 22.5858 6.25 23Z" fill-rule="evenodd"  fill="#131926" >
</path>
</svg>
