<svg xmlns="http://www.w3.org/2000/svg" xmlns:xlink="http://www.w3.org/1999/xlink" width="30" height="30" viewBox="0 0 30 30" fill="none">
<path d="M6.31058 10.2956C6.47374 10.6763 6.91465 10.8526 7.29537 10.6895L14.2954 7.68948C14.6761 7.52631 14.8525 7.0854 14.6893 6.70468C14.5261 6.32396 14.0852 6.14759 13.7045 6.31076L6.7045 9.31076C6.32377 9.47393 6.14741 9.91484 6.31058 10.2956Z" fill-rule="evenodd"  fill="#131926" >
</path>
<path d="M21.6895 10.2955C21.8526 9.91478 21.6763 9.47387 21.2956 9.31071L14.2956 6.31071C13.9148 6.14754 13.4739 6.3239 13.3108 6.70463C13.1476 7.08535 13.324 7.52626 13.7047 7.68942L20.7047 10.6894C21.0854 10.8526 21.5263 10.6762 21.6895 10.2955Z" fill-rule="evenodd"  fill="#131926" >
</path>
<path d="M6.31052 9.7045C6.14735 10.0852 6.32371 10.5261 6.70444 10.6893L13.7044 13.6893C14.0852 13.8525 14.5261 13.6761 14.6892 13.2954C14.8524 12.9146 14.676 12.4737 14.2953 12.3106L7.29532 9.31058C6.91459 9.14741 6.47368 9.32377 6.31052 9.7045Z" fill-rule="evenodd"  fill="#131926" >
</path>
<path d="M6.31052 18.7045C6.14735 19.0852 6.32371 19.5261 6.70444 19.6893L13.7044 22.6893C14.0852 22.8525 14.5261 22.6761 14.6892 22.2954C14.8524 21.9146 14.676 21.4737 14.2953 21.3106L7.29532 18.3106C6.91459 18.1474 6.47368 18.3238 6.31052 18.7045Z" fill-rule="evenodd"  fill="#131926" >
</path>
<path d="M7 19.75C7.41421 19.75 7.75 19.4142 7.74999 19L7.74988 9.99998C7.74987 9.58577 7.41408 9.24998 6.99987 9.24999C6.58565 9.25 6.24987 9.58579 6.24988 10L6.24999 19C6.25 19.4142 6.58579 19.75 7 19.75Z" fill-rule="evenodd"  fill="#131926" >
</path>
<path d="M14 22.75C14.4142 22.75 14.75 22.4142 14.75 22L14.75 13C14.75 12.5858 14.4142 12.25 14 12.25C13.5858 12.25 13.25 12.5858 13.25 13L13.25 22C13.25 22.4142 13.5858 22.75 14 22.75Z" fill-rule="evenodd"  fill="#131926" >
</path>
<path d="M21.7559 10.0085C21.7553 9.59431 21.4191 9.25897 21.0049 9.25951C20.5907 9.26006 20.2553 9.59628 20.2559 10.0105L20.2624 14.9909C20.263 15.4051 20.5992 15.7404 21.0134 15.7399C21.4276 15.7393 21.763 15.4031 21.7624 14.9889L21.7559 10.0085Z" fill-rule="evenodd"  fill="#131926" >
</path>
<path d="M21.6894 9.70444C21.5263 9.32372 21.0853 9.14735 20.7046 9.31052L13.7046 12.3105C13.3239 12.4737 13.1475 12.9146 13.3107 13.2953C13.4739 13.676 13.9148 13.8524 14.2955 13.6892L21.2955 10.6892C21.6762 10.5261 21.8526 10.0852 21.6894 9.70444Z" fill-rule="evenodd"  fill="#131926" >
</path>
<path d="M16.0296 21.9462L14.3107 22.6828C14.216 22.726 14.1108 22.75 14 22.75C13.5858 22.75 13.25 22.4142 13.25 22C13.25 21.6846 13.4447 21.4147 13.7204 21.3038L15.4393 20.5672C15.534 20.524 15.6392 20.5 15.75 20.5C16.1642 20.5 16.5 20.8358 16.5 21.25C16.5 21.5654 16.3053 21.8353 16.0296 21.9462Z" fill-rule="evenodd"  fill="#131926" >
</path>
<path d="M24.2809 22.25L24.2809 18.75C24.2809 18.482 24.138 18.2345 23.9059 18.1005L20.8748 16.3505C20.6428 16.2165 20.3569 16.2165 20.1248 16.3505L17.0938 18.1005C16.8617 18.2345 16.7188 18.482 16.7188 18.75L16.7188 22.25C16.7188 22.518 16.8617 22.7655 17.0938 22.8995L20.1248 24.6495C20.3569 24.7835 20.6428 24.7835 20.8748 24.6495L23.9059 22.8995C24.138 22.7655 24.2809 22.518 24.2809 22.25ZM22.7809 19.183L22.7809 21.817L20.4998 23.134L18.2188 21.817L18.2188 19.183L20.4998 17.866L22.7809 19.183Z" fill-rule="evenodd"  fill="#495AD4" >
</path>
<path d="M21.5 20.5C21.5 21.0523 21.0523 21.5 20.5 21.5C19.9477 21.5 19.5 21.0523 19.5 20.5C19.5 19.9477 19.9477 19.5 20.5 19.5C21.0523 19.5 21.5 19.9477 21.5 20.5Z"   fill="#495AD4" >
</path>
</svg>
