<svg xmlns="http://www.w3.org/2000/svg" xmlns:xlink="http://www.w3.org/1999/xlink" width="30" height="30" viewBox="0 0 30 30"><g opacity="1"  transform="translate(0 0)  rotate(0)"><mask id="bg-mask-0" fill="white"><use xlink:href="#path_0"></use></mask><g mask="url(#bg-mask-0)" ><g opacity="1"  transform="translate(5.31494140625 5.25)  rotate(0)"><path id="路径 1" fill-rule="evenodd" opacity="1" d="M7.38701 12.1803L9.20701 12.1803C9.32701 12.1803 9.42701 12.2903 9.40701 12.4103L9.02701 15.0203C8.99701 15.2203 9.24701 15.3303 9.37701 15.1803L12.637 11.5103C12.747 11.3803 12.657 11.1803 12.487 11.1803L10.667 11.1803C10.547 11.1803 10.447 11.0703 10.467 10.9503L10.847 8.3403C10.877 8.1403 10.627 8.0303 10.497 8.1803L7.23701 11.8503C7.12701 11.9803 7.21701 12.1803 7.38701 12.1803Z"></path><path id="圆形 1 (轮廓)" fill-rule="evenodd" opacity="1" d="M14.9351 10.75C14.9351 10.8 14.9351 10.85 14.9451 10.9C14.9551 10.94 14.9751 10.99 14.9951 11.04C15.0151 11.08 15.0351 11.13 15.0651 11.17C15.0851 11.21 15.1151 11.25 15.1551 11.28C15.1851 11.32 15.2251 11.35 15.2651 11.37C15.3051 11.4 15.3551 11.42 15.3951 11.44C15.4451 11.46 15.4951 11.48 15.5351 11.49C15.5851 11.5 15.6351 11.5 15.6851 11.5C15.7351 11.5 15.7851 11.5 15.8351 11.49C15.8751 11.48 15.9251 11.46 15.9751 11.44C16.0151 11.42 16.0651 11.4 16.1051 11.37C16.1451 11.35 16.1851 11.32 16.2151 11.28C16.2551 11.25 16.2851 11.21 16.3051 11.17C16.3351 11.13 16.3551 11.08 16.3751 11.04C16.3951 10.99 16.4151 10.94 16.4251 10.9C16.4351 10.85 16.4351 10.8 16.4351 10.75C16.4351 9.84 16.2551 8.96 15.9051 8.12C15.5651 7.32 15.0751 6.6 14.4551 5.98C13.8351 5.36 13.1151 4.87 12.3151 4.53C11.4751 4.18 10.5951 4 9.68506 4C8.77506 4 7.89506 4.18 7.05506 4.53C6.25506 4.87 5.53506 5.36 4.91506 5.98C4.29506 6.6 3.80506 7.32 3.46506 8.12C3.11506 8.96 2.93506 9.84 2.93506 10.75C2.93506 10.8 2.93506 10.85 2.94506 10.9C2.95506 10.94 2.97506 10.99 2.99506 11.04C3.01506 11.08 3.03506 11.13 3.06506 11.17C3.08506 11.21 3.11506 11.25 3.15506 11.28C3.18506 11.32 3.22506 11.35 3.26506 11.37C3.30506 11.4 3.35506 11.42 3.39506 11.44C3.44506 11.46 3.49506 11.48 3.53506 11.49C3.58506 11.5 3.63506 11.5 3.68506 11.5C3.78506 11.5 3.88506 11.48 3.97506 11.44C4.06506 11.4 4.14506 11.35 4.21506 11.28C4.28506 11.21 4.33506 11.13 4.37506 11.04C4.41506 10.95 4.43506 10.85 4.43506 10.75L4.43506 10.75C4.43506 10.04 4.57506 9.36 4.84506 8.71C5.11506 8.08 5.48506 7.52 5.97506 7.04C6.45506 6.55 7.01506 6.18 7.64506 5.91C8.29506 5.64 8.97506 5.5 9.68506 5.5C10.3951 5.5 11.0751 5.64 11.7251 5.91C12.3551 6.18 12.9151 6.55 13.3951 7.04C13.8851 7.52 14.2551 8.08 14.5251 8.71C14.7951 9.36 14.9351 10.04 14.9351 10.75Z"></path><path id="直线 5 (轮廓)" fill-rule="evenodd" opacity="1" d="M4.43506 10.75C4.43506 10.7 4.43506 10.65 4.42506 10.6C4.41506 10.56 4.39506 10.51 4.37506 10.46C4.35506 10.42 4.33506 10.37 4.30506 10.33C4.28506 10.29 4.25506 10.25 4.21506 10.22C4.18506 10.18 4.14506 10.15 4.10506 10.13C4.06506 10.1 4.01506 10.08 3.97506 10.06C3.92506 10.04 3.87506 10.02 3.83506 10.01C3.78506 10 3.73506 10 3.68506 10C3.63506 10 3.58506 10 3.53506 10.01C3.49506 10.02 3.44506 10.04 3.39506 10.06C3.35506 10.08 3.30506 10.1 3.26506 10.13C3.22506 10.15 3.18506 10.18 3.15506 10.22C3.11506 10.25 3.08506 10.29 3.06506 10.33C3.03506 10.37 3.01506 10.42 2.99506 10.46C2.97506 10.51 2.95506 10.56 2.94506 10.6C2.93506 10.65 2.93506 10.7 2.93506 10.75L2.93506 17.75C2.93506 17.8 2.93506 17.85 2.94506 17.9C2.95506 17.94 2.97506 17.99 2.99506 18.04C3.01506 18.08 3.03506 18.13 3.06506 18.17C3.08506 18.21 3.11506 18.25 3.15506 18.28C3.18506 18.32 3.22506 18.35 3.26506 18.37C3.30506 18.4 3.35506 18.42 3.39506 18.44C3.44506 18.46 3.49506 18.48 3.53506 18.49C3.58506 18.5 3.63506 18.5 3.68506 18.5C3.73506 18.5 3.78506 18.5 3.83506 18.49C3.87506 18.48 3.92506 18.46 3.97506 18.44C4.01506 18.42 4.06506 18.4 4.10506 18.37C4.14506 18.35 4.18506 18.32 4.21506 18.28C4.25506 18.25 4.28506 18.21 4.30506 18.17C4.33506 18.13 4.35506 18.08 4.37506 18.04C4.39506 17.99 4.41506 17.94 4.42506 17.9C4.43506 17.85 4.43506 17.8 4.43506 17.75L4.43506 10.75Z"></path><path id="直线 5 (轮廓)" fill-rule="evenodd" opacity="1" d="M16.4351 10.75C16.4351 10.7 16.4351 10.65 16.4251 10.6C16.4151 10.56 16.3951 10.51 16.3751 10.46C16.3551 10.42 16.3351 10.37 16.3051 10.33C16.2851 10.29 16.2551 10.25 16.2151 10.22C16.1851 10.18 16.1451 10.15 16.1051 10.13C16.0651 10.1 16.0151 10.08 15.9751 10.06C15.9251 10.04 15.8751 10.02 15.8351 10.01C15.7851 10 15.7351 10 15.6851 10C15.6351 10 15.5851 10 15.5351 10.01C15.4951 10.02 15.4451 10.04 15.3951 10.06C15.3551 10.08 15.3051 10.1 15.2651 10.13C15.2251 10.15 15.1851 10.18 15.1551 10.22C15.1151 10.25 15.0851 10.29 15.0651 10.33C15.0351 10.37 15.0151 10.42 14.9951 10.46C14.9751 10.51 14.9551 10.56 14.9451 10.6C14.9351 10.65 14.9351 10.7 14.9351 10.75L14.9351 17.75C14.9351 17.8 14.9351 17.85 14.9451 17.9C14.9551 17.94 14.9751 17.99 14.9951 18.04C15.0151 18.08 15.0351 18.13 15.0651 18.17C15.0851 18.21 15.1151 18.25 15.1551 18.28C15.1851 18.32 15.2251 18.35 15.2651 18.37C15.3051 18.4 15.3551 18.42 15.3951 18.44C15.4451 18.46 15.4951 18.48 15.5351 18.49C15.5851 18.5 15.6351 18.5 15.6851 18.5C15.7351 18.5 15.7851 18.5 15.8351 18.49C15.8751 18.48 15.9251 18.46 15.9751 18.44C16.0151 18.42 16.0651 18.4 16.1051 18.37C16.1451 18.35 16.1851 18.32 16.2151 18.28C16.2551 18.25 16.2851 18.21 16.3051 18.17C16.3351 18.13 16.3551 18.08 16.3751 18.04C16.3951 17.99 16.4151 17.94 16.4251 17.9C16.4351 17.85 16.4351 17.8 16.4351 17.75L16.4351 10.75Z"></path><path id="直线 6 (轮廓)" fill-rule="evenodd" opacity="1" d="M1.68506 17C1.63506 17 1.58506 17 1.53506 17.01C1.49506 17.02 1.44506 17.04 1.39506 17.06C1.35506 17.08 1.30506 17.1 1.26506 17.13C1.22506 17.15 1.18506 17.18 1.15506 17.22C1.11506 17.25 1.08506 17.29 1.06506 17.33C1.03506 17.37 1.01506 17.42 0.995059 17.46C0.975059 17.51 0.955059 17.56 0.945059 17.6C0.935059 17.65 0.935059 17.7 0.935059 17.75C0.935059 17.8 0.935059 17.85 0.945059 17.9C0.955059 17.94 0.975059 17.99 0.995059 18.04C1.01506 18.08 1.03506 18.13 1.06506 18.17C1.08506 18.21 1.11506 18.25 1.15506 18.28C1.18506 18.32 1.22506 18.35 1.26506 18.37C1.30506 18.4 1.35506 18.42 1.39506 18.44C1.44506 18.46 1.49506 18.48 1.53506 18.49C1.58506 18.5 1.63506 18.5 1.68506 18.5L17.6851 18.5C17.7351 18.5 17.7851 18.5 17.8351 18.49C17.8751 18.48 17.9251 18.46 17.9751 18.44C18.0151 18.42 18.0651 18.4 18.1051 18.37C18.1451 18.35 18.1851 18.32 18.2151 18.28C18.2551 18.25 18.2851 18.21 18.3051 18.17C18.3351 18.13 18.3551 18.08 18.3751 18.04C18.3951 17.99 18.4151 17.94 18.4251 17.9C18.4351 17.85 18.4351 17.8 18.4351 17.75C18.4351 17.7 18.4351 17.65 18.4251 17.6C18.4151 17.56 18.3951 17.51 18.3751 17.46C18.3551 17.42 18.3351 17.37 18.3051 17.33C18.2851 17.29 18.2551 17.25 18.2151 17.22C18.1851 17.18 18.1451 17.15 18.1051 17.13C18.0651 17.1 18.0151 17.08 17.9751 17.06C17.9251 17.04 17.8751 17.02 17.8351 17.01C17.7851 17 17.7351 17 17.6851 17L1.68506 17Z"></path><g opacity="1"  transform="translate(0 0)  rotate(0)"><path id="直线 7 (轮廓)" fill-rule="evenodd" opacity="1" d="M17.9705 5.1005C18.0138 5.0755 18.0571 5.0505 18.1054 5.03416C18.1451 5.02282 18.1984 5.01514 18.2517 5.00746C18.2963 5.00478 18.3496 4.9971 18.3993 5.00308C18.4439 5.0004 18.4935 5.00638 18.5395 5.02602C18.5892 5.032 18.6351 5.05165 18.6725 5.07629C18.7184 5.09593 18.7608 5.12923 18.7981 5.15387C18.8404 5.18717 18.8827 5.22047 18.9114 5.25011C18.945 5.28841 18.97 5.33172 18.995 5.37502C19.02 5.41832 19.045 5.46162 19.0614 5.50992C19.0727 5.54956 19.0804 5.60286 19.0881 5.65616C19.0908 5.70081 19.0984 5.75411 19.0925 5.80375C19.0951 5.84839 19.0892 5.89803 19.0695 5.94401C19.0635 5.99365 19.0439 6.03963 19.0193 6.07695C18.9996 6.12293 18.9663 6.16525 18.9417 6.20257C18.9084 6.2449 18.8751 6.28722 18.8454 6.31588C18.8071 6.34954 18.7638 6.37454 18.7205 6.39954L17.4215 7.14954C17.3782 7.17454 17.3349 7.19954 17.2866 7.21588C17.2469 7.22722 17.1936 7.2349 17.1403 7.24257C17.0957 7.24525 17.0424 7.25293 16.9928 7.24695C16.9481 7.24963 16.8985 7.24365 16.8525 7.22401C16.8029 7.21803 16.7569 7.19839 16.7196 7.17375C16.6736 7.15411 16.6313 7.12081 16.5939 7.09616C16.5516 7.06286 16.5093 7.02956 16.4806 6.99992C16.447 6.96162 16.422 6.91832 16.397 6.87502C16.372 6.83172 16.347 6.78841 16.3306 6.74011C16.3193 6.70047 16.3116 6.64717 16.3039 6.59387C16.3013 6.54923 16.2936 6.49593 16.2996 6.44629C16.2969 6.40165 16.3029 6.352 16.3225 6.30602C16.3285 6.25638 16.3481 6.2104 16.3728 6.17308C16.3924 6.1271 16.4257 6.08478 16.4503 6.04746C16.4836 6.00514 16.5169 5.96282 16.5466 5.93416C16.5849 5.9005 16.6282 5.8755 16.6715 5.8505L17.9705 5.1005Z"></path><path id="直线 7 (轮廓)" fill-rule="evenodd" opacity="1" d="M14.0354 1.71471C14.0604 1.67141 14.0854 1.62811 14.1191 1.58981C14.1478 1.56017 14.1901 1.52687 14.2324 1.49357C14.2697 1.46892 14.312 1.43562 14.358 1.41598C14.3953 1.39134 14.4413 1.3717 14.491 1.36572C14.5369 1.34608 14.5866 1.3401 14.6312 1.34278C14.6809 1.3368 14.7342 1.34448 14.7788 1.34715C14.8321 1.35483 14.8854 1.36251 14.925 1.37385C14.9734 1.39019 15.0167 1.41519 15.06 1.44019C15.1033 1.46519 15.1466 1.49019 15.1849 1.52385C15.2145 1.55251 15.2478 1.59483 15.2811 1.63715C15.3057 1.67448 15.339 1.7168 15.3587 1.76278C15.3833 1.8001 15.403 1.84608 15.4089 1.89572C15.4286 1.9417 15.4346 1.99134 15.4319 2.03598C15.4379 2.08562 15.4302 2.13892 15.4275 2.18356C15.4198 2.23687 15.4122 2.29017 15.4008 2.32981C15.3845 2.37811 15.3595 2.42141 15.3345 2.46471L14.5845 3.76375C14.5595 3.80705 14.5345 3.85035 14.5008 3.88865C14.4722 3.91829 14.4298 3.9516 14.3875 3.9849C14.3502 4.00954 14.3079 4.04284 14.2619 4.06248C14.2246 4.08712 14.1786 4.10676 14.1289 4.11274C14.083 4.13238 14.0333 4.13837 13.9887 4.13569C13.939 4.14167 13.8857 4.13399 13.8411 4.13131C13.7878 4.12363 13.7345 4.11595 13.6949 4.10461C13.6466 4.08827 13.6033 4.06327 13.56 4.03827C13.5167 4.01327 13.4734 3.98827 13.4351 3.95461C13.4054 3.92595 13.3721 3.88363 13.3388 3.84131C13.3142 3.80399 13.2809 3.76167 13.2612 3.71569C13.2366 3.67837 13.2169 3.63238 13.211 3.58274C13.1913 3.53676 13.1853 3.48712 13.188 3.44248C13.182 3.39284 13.1897 3.33954 13.1924 3.2949C13.2001 3.2416 13.2078 3.1883 13.2191 3.14865C13.2354 3.10035 13.2604 3.05705 13.2854 3.01375L14.0354 1.71471Z"></path><path id="直线 7 (轮廓)" fill-rule="evenodd" opacity="1" d="M1.39959 5.1005C1.35629 5.0755 1.31298 5.0505 1.26468 5.03416C1.22504 5.02282 1.17174 5.01514 1.11844 5.00746C1.0738 5.00478 1.0205 4.9971 0.970857 5.00308C0.926216 5.0004 0.876575 5.00638 0.830594 5.02602C0.780953 5.032 0.734972 5.05165 0.697652 5.07629C0.651671 5.09593 0.60935 5.12923 0.57203 5.15387C0.529709 5.18717 0.487389 5.22047 0.458729 5.25011C0.425068 5.28841 0.400068 5.33172 0.375068 5.37502C0.350068 5.41832 0.325068 5.46162 0.308728 5.50992C0.297389 5.54956 0.289709 5.60286 0.28203 5.65616C0.27935 5.70081 0.271671 5.75411 0.277652 5.80375C0.274972 5.84839 0.280953 5.89803 0.300594 5.94401C0.306575 5.99365 0.326216 6.03963 0.350857 6.07695C0.370498 6.12293 0.403799 6.16525 0.42844 6.20257C0.461741 6.24489 0.495043 6.28722 0.524684 6.31588C0.562985 6.34954 0.606286 6.37454 0.649587 6.39954L1.94863 7.14954C1.99193 7.17454 2.03523 7.19954 2.08353 7.21588C2.12317 7.22722 2.17647 7.2349 2.22977 7.24257C2.27441 7.24525 2.32772 7.25293 2.37736 7.24695C2.422 7.24963 2.47164 7.24365 2.51762 7.22401C2.56726 7.21803 2.61324 7.19839 2.65056 7.17375C2.69654 7.15411 2.73886 7.12081 2.77618 7.09616C2.8185 7.06286 2.86082 7.02956 2.88948 6.99992C2.92314 6.96162 2.94814 6.91832 2.97314 6.87502C2.99814 6.83172 3.02314 6.78841 3.03948 6.74011C3.05082 6.70047 3.0585 6.64717 3.06618 6.59387C3.06886 6.54923 3.07654 6.49593 3.07056 6.44629C3.07324 6.40165 3.06726 6.352 3.04762 6.30602C3.04164 6.25638 3.022 6.2104 2.99736 6.17308C2.97772 6.1271 2.94441 6.08478 2.91977 6.04746C2.88647 6.00514 2.85317 5.96282 2.82353 5.93416C2.78523 5.9005 2.74193 5.8755 2.69863 5.8505L1.39959 5.1005Z"></path><path id="直线 7 (轮廓)" fill-rule="evenodd" opacity="1" d="M10.4351 0.75C10.4351 0.7 10.4351 0.65 10.4251 0.6C10.4151 0.56 10.3951 0.51 10.3751 0.46C10.3551 0.42 10.3351 0.37 10.3051 0.33C10.2851 0.29 10.2551 0.25 10.2151 0.22C10.1851 0.18 10.1451 0.15 10.1051 0.13C10.0651 0.0999999 10.0151 0.0799999 9.97506 0.0599999C9.92506 0.04 9.87506 0.02 9.83506 0.00999999C9.78506 0 9.73506 0 9.68506 0C9.63506 0 9.58506 0 9.53506 0.00999999C9.49506 0.02 9.44506 0.04 9.39506 0.0599999C9.35506 0.0799999 9.30506 0.0999999 9.26506 0.13C9.22506 0.15 9.18506 0.18 9.15506 0.22C9.11506 0.25 9.08506 0.29 9.06506 0.33C9.03506 0.37 9.01506 0.42 8.99506 0.46C8.97506 0.51 8.95506 0.56 8.94506 0.6C8.93506 0.65 8.93506 0.7 8.93506 0.75L8.93506 2.25C8.93506 2.3 8.93506 2.35 8.94506 2.4C8.95506 2.44 8.97506 2.49 8.99506 2.54C9.01506 2.58 9.03506 2.63 9.06506 2.67C9.08506 2.71 9.11506 2.75 9.15506 2.78C9.18506 2.82 9.22506 2.85 9.26506 2.87C9.30506 2.9 9.35506 2.92 9.39506 2.94C9.44506 2.96 9.49506 2.98 9.53506 2.99C9.58506 3 9.63506 3 9.68506 3C9.73506 3 9.78506 3 9.83506 2.99C9.87506 2.98 9.92506 2.96 9.97506 2.94C10.0151 2.92 10.0651 2.9 10.1051 2.87C10.1451 2.85 10.1851 2.82 10.2151 2.78C10.2551 2.75 10.2851 2.71 10.3051 2.67C10.3351 2.63 10.3551 2.58 10.3751 2.54C10.3951 2.49 10.4151 2.44 10.4251 2.4C10.4351 2.35 10.4351 2.3 10.4351 2.25L10.4351 0.75Z"></path><path id="直线 7 (轮廓)" fill-rule="evenodd" opacity="1" d="M5.33468 1.71471C5.30968 1.67141 5.28468 1.62811 5.25102 1.58981C5.22236 1.56017 5.18004 1.52687 5.13772 1.49356C5.1004 1.46892 5.05808 1.43562 5.0121 1.41598C4.97478 1.39134 4.9288 1.3717 4.87916 1.36572C4.83318 1.34608 4.78354 1.3401 4.73889 1.34278C4.68925 1.3368 4.63595 1.34447 4.59131 1.34715C4.53801 1.35483 4.48471 1.36251 4.44507 1.37385C4.39677 1.39019 4.35347 1.41519 4.31016 1.44019C4.26686 1.46519 4.22356 1.49019 4.18526 1.52385C4.15562 1.55251 4.12232 1.59483 4.08902 1.63715C4.06437 1.67447 4.03107 1.7168 4.01143 1.76278C3.98679 1.8001 3.96715 1.84608 3.96117 1.89572C3.94153 1.9417 3.93555 1.99134 3.93823 2.03598C3.93225 2.08562 3.93993 2.13892 3.94261 2.18356C3.95029 2.23687 3.95796 2.29017 3.9693 2.32981C3.98564 2.37811 4.01064 2.42141 4.03564 2.46471L4.78564 3.76375C4.81064 3.80705 4.83564 3.85035 4.8693 3.88865C4.89796 3.91829 4.94029 3.9516 4.98261 3.9849C5.01993 4.00954 5.06225 4.04284 5.10823 4.06248C5.14555 4.08712 5.19153 4.10676 5.24117 4.11274C5.28715 4.13238 5.33679 4.13837 5.38143 4.13569C5.43107 4.14167 5.48438 4.13399 5.52902 4.13131C5.58232 4.12363 5.63562 4.11595 5.67526 4.10461C5.72356 4.08827 5.76686 4.06327 5.81016 4.03827C5.85347 4.01327 5.89677 3.98827 5.93507 3.95461C5.96471 3.92595 5.99801 3.88363 6.03131 3.84131C6.05595 3.80399 6.08925 3.76167 6.10889 3.71569C6.13354 3.67837 6.15318 3.63238 6.15916 3.58274C6.1788 3.53676 6.18478 3.48712 6.1821 3.44248C6.18808 3.39284 6.1804 3.33954 6.17772 3.2949C6.17004 3.2416 6.16236 3.18829 6.15102 3.14865C6.13468 3.10035 6.10968 3.05705 6.08468 3.01375L5.33468 1.71471Z"></path></g></g></g></g><defs><rect id="path_0" x="0" y="0" width="30" height="30" /></defs></svg>