<svg xmlns="http://www.w3.org/2000/svg" xmlns:xlink="http://www.w3.org/1999/xlink" width="30" height="30" viewBox="0 0 30 30" fill="none"><g opacity="1"  transform="translate(0 0)  rotate(0)"><rect fill="#495AD4" opacity="1" transform="translate(0 0)  rotate(0)" x="0" y="0" width="30" height="30" rx="4" /><mask id="bg-mask-0" fill="white"><use xlink:href="#path_0"></use></mask><g mask="url(#bg-mask-0)" ><g opacity="1"  transform="translate(6.25 5.25)  rotate(0)"><path id="圆形 1 (轮廓)" fill-rule="evenodd" style="fill:#FFFFFF" opacity="1" d="M14 8.75C14 8.8 14 8.85 14.01 8.9C14.02 8.94 14.04 8.99 14.06 9.04C14.08 9.08 14.1 9.13 14.13 9.17C14.15 9.21 14.18 9.25 14.22 9.28C14.25 9.32 14.29 9.35 14.33 9.37C14.37 9.4 14.42 9.42 14.46 9.44C14.51 9.46 14.56 9.48 14.6 9.49C14.65 9.5 14.7 9.5 14.75 9.5C14.8 9.5 14.85 9.5 14.9 9.49C14.94 9.48 14.99 9.46 15.04 9.44C15.08 9.42 15.13 9.4 15.17 9.37C15.21 9.35 15.25 9.32 15.28 9.28C15.32 9.25 15.35 9.21 15.37 9.17C15.4 9.13 15.42 9.08 15.44 9.04C15.46 8.99 15.48 8.94 15.49 8.9C15.5 8.85 15.5 8.8 15.5 8.75C15.5 7.84 15.32 6.96 14.97 6.12C14.63 5.32 14.14 4.6 13.52 3.98C12.9 3.36 12.18 2.87 11.38 2.53C10.54 2.18 9.66 2 8.75 2C8.7 2 8.65 2 8.6 2.01C8.56 2.02 8.51 2.04 8.46 2.06C8.42 2.08 8.37 2.1 8.33 2.13C8.29 2.15 8.25 2.18 8.22 2.22C8.18 2.25 8.15 2.29 8.13 2.33C8.1 2.37 8.08 2.42 8.06 2.46C8.04 2.51 8.02 2.56 8.01 2.6C8 2.65 8 2.7 8 2.75C8 2.8 8 2.85 8.01 2.9C8.02 2.94 8.04 2.99 8.06 3.04C8.08 3.08 8.1 3.13 8.13 3.17C8.15 3.21 8.18 3.25 8.22 3.28C8.25 3.32 8.29 3.35 8.33 3.37C8.37 3.4 8.42 3.42 8.46 3.44C8.51 3.46 8.56 3.48 8.6 3.49C8.65 3.5 8.7 3.5 8.75 3.5L8.75 3.5C9.46 3.5 10.14 3.64 10.79 3.91C11.42 4.18 11.98 4.55 12.46 5.04C12.95 5.52 13.32 6.08 13.59 6.71C13.86 7.36 14 8.04 14 8.75Z"></path><path id="圆形 2 (轮廓)" fill-rule="evenodd" style="fill:#E8CA99" opacity="1" d="M10.3384 7.1576C10.5484 7.3676 10.7084 7.6076 10.8284 7.8876L10.8284 7.8876C10.8284 7.8876 10.8284 7.8876 10.8284 7.8876C10.8484 7.9376 10.8684 7.9776 10.8984 8.0176C10.9284 8.0576 10.9584 8.0976 10.9884 8.1276C11.0284 8.1676 11.0684 8.1976 11.1084 8.2276C11.1484 8.2576 11.1884 8.2776 11.2384 8.2976C11.2784 8.3176 11.3284 8.3276 11.3784 8.3376C11.4284 8.3476 11.4784 8.3476 11.5184 8.3476C11.5684 8.3476 11.6184 8.3476 11.6684 8.3376C11.7184 8.3276 11.7684 8.3176 11.8084 8.2976C11.8584 8.2776 11.8984 8.2476 11.9384 8.2276C11.9784 8.1976 12.0184 8.1676 12.0484 8.1276C12.0884 8.0976 12.1184 8.0576 12.1484 8.0176C12.1784 7.9776 12.1984 7.9376 12.2184 7.8876C12.2384 7.8476 12.2484 7.7976 12.2584 7.7476C12.2684 7.6976 12.2684 7.6476 12.2684 7.5976C12.2684 7.5476 12.2684 7.5076 12.2584 7.4576C12.2484 7.4076 12.2384 7.3576 12.2184 7.3176C12.2084 7.2976 12.1984 7.2776 12.1884 7.2576C11.9984 6.8176 11.7384 6.4376 11.3984 6.0976C11.0584 5.7476 10.6584 5.4776 10.1784 5.2776C10.1084 5.2576 10.0384 5.2376 9.96844 5.2276C9.89844 5.2276 9.81844 5.2276 9.74844 5.2476C9.67844 5.2576 9.60844 5.2776 9.54844 5.3176C9.47844 5.3476 9.41844 5.3976 9.36844 5.4476C9.32844 5.4776 9.29844 5.5176 9.27844 5.5576C9.24844 5.5976 9.22844 5.6476 9.20844 5.6876C9.18844 5.7376 9.16844 5.7876 9.15844 5.8276C9.14844 5.8776 9.14844 5.9276 9.14844 5.9776C9.14844 6.0276 9.14844 6.0776 9.15844 6.1276C9.16844 6.1676 9.18844 6.2176 9.20844 6.2676C9.22844 6.3076 9.24844 6.3576 9.27844 6.3976C9.29844 6.4376 9.32844 6.4776 9.36844 6.5076C9.43844 6.5776 9.51844 6.6376 9.61844 6.6776C9.89844 6.7876 10.1384 6.9476 10.3384 7.1576Z"></path><path id="圆形 1 (轮廓)" fill-rule="evenodd" style="fill:#FFFFFF" opacity="1" d="M5.57 3.03056C5.5 3.01056 5.42 3.01056 5.35 3.01056C5.28 3.02056 5.21 3.04056 5.14 3.06056C5.07 3.09056 5.01 3.13056 4.95 3.17056C4.58 3.42056 4.26 3.69056 3.98 3.98056C3.35 4.60056 2.87 5.31056 2.53 6.12056C2.18 6.96056 2 7.83056 2 8.75056L2 8.75056C2 8.80056 2 8.85056 2.01 8.90056C2.02 8.94056 2.04 8.99056 2.06 9.04056C2.08 9.08056 2.1 9.13056 2.13 9.17056C2.15 9.21056 2.19 9.25056 2.22 9.28056C2.25 9.31056 2.29 9.35056 2.33 9.37056C2.37 9.40056 2.42 9.42056 2.46 9.44056C2.51 9.46056 2.56 9.48056 2.6 9.49056C2.65 9.49056 2.7 9.50056 2.75 9.50056C2.8 9.50056 2.85 9.49056 2.9 9.49056C2.94 9.48056 2.99 9.46056 3.04 9.44056C3.08 9.42056 3.13 9.40056 3.17 9.37056C3.21 9.35056 3.25 9.31056 3.28 9.28056C3.31 9.25056 3.35 9.21056 3.37 9.17056C3.4 9.13056 3.42 9.08056 3.44 9.04056C3.46 8.99056 3.48 8.94056 3.49 8.90056C3.5 8.85056 3.5 8.80056 3.5 8.75056L3.5 8.75056C3.5 8.03056 3.64 7.35056 3.91 6.70056C4.18 6.08056 4.55 5.52056 5.04 5.04056C5.04 5.04056 5.05 5.03056 5.05 5.03056C5.27 4.80056 5.53 4.59056 5.84 4.38056L5.83 4.38056C5.94 4.31056 6.02 4.22056 6.08 4.11056C6.1 4.07056 6.12 4.02056 6.13 3.98056C6.15 3.93056 6.16 3.88056 6.16 3.83056C6.17 3.78056 6.17 3.74056 6.16 3.69056C6.16 3.64056 6.15 3.59056 6.13 3.54056C6.12 3.50056 6.1 3.45056 6.08 3.41056C6.05 3.36056 6.03 3.32056 6 3.28056C5.96 3.25056 5.93 3.21056 5.89 3.18056C5.85 3.15056 5.81 3.12056 5.77 3.10056C5.71 3.06056 5.64 3.04056 5.57 3.03056Z"></path><path id="直线 1 (轮廓)" fill-rule="evenodd" style="fill:#FFFFFF" opacity="1" d="M8 2.75C8 2.8 8 2.85 8.01 2.9C8.02 2.94 8.04 2.99 8.06 3.04C8.08 3.08 8.1 3.13 8.13 3.17C8.15 3.21 8.18 3.25 8.22 3.28C8.25 3.32 8.29 3.35 8.33 3.37C8.37 3.4 8.42 3.42 8.46 3.44C8.51 3.46 8.56 3.48 8.6 3.49C8.65 3.5 8.7 3.5 8.75 3.5C8.8 3.5 8.85 3.5 8.9 3.49C8.94 3.48 8.99 3.46 9.04 3.44C9.08 3.42 9.13 3.4 9.17 3.37C9.21 3.35 9.25 3.32 9.28 3.28C9.32 3.25 9.35 3.21 9.37 3.17C9.4 3.13 9.42 3.08 9.44 3.04C9.46 2.99 9.48 2.94 9.49 2.9C9.5 2.85 9.5 2.8 9.5 2.75L9.5 0.75C9.5 0.7 9.5 0.65 9.49 0.6C9.48 0.56 9.46 0.51 9.44 0.46C9.42 0.42 9.4 0.37 9.37 0.33C9.35 0.29 9.32 0.25 9.28 0.22C9.25 0.18 9.21 0.15 9.17 0.13C9.13 0.0999999 9.08 0.0799999 9.04 0.0599999C8.99 0.04 8.94 0.02 8.9 0.00999999C8.85 0 8.8 0 8.75 0C8.7 0 8.65 0 8.6 0.00999999C8.56 0.02 8.51 0.04 8.46 0.0599999C8.42 0.0799999 8.37 0.0999999 8.33 0.13C8.29 0.15 8.25 0.18 8.22 0.22C8.18 0.25 8.15 0.29 8.13 0.33C8.1 0.37 8.08 0.42 8.06 0.46C8.04 0.51 8.02 0.56 8.01 0.6C8 0.65 8 0.7 8 0.75L8 2.75Z"></path><path id="直线 2 (轮廓)" fill-rule="evenodd" style="fill:#FFFFFF" opacity="1" d="M3.5 8.75C3.5 8.7 3.5 8.65 3.49 8.6C3.48 8.56 3.46 8.51 3.44 8.46C3.42 8.42 3.4 8.37 3.37 8.33C3.35 8.29 3.32 8.25 3.28 8.22C3.25 8.18 3.21 8.15 3.17 8.13C3.13 8.1 3.08 8.08 3.04 8.06C2.99 8.04 2.94 8.02 2.9 8.01C2.85 8 2.8 8 2.75 8C2.7 8 2.65 8 2.6 8.01C2.56 8.02 2.51 8.04 2.46 8.06C2.42 8.08 2.37 8.1 2.33 8.13C2.29 8.15 2.25 8.18 2.22 8.22C2.18 8.25 2.15 8.29 2.13 8.33C2.1 8.37 2.08 8.42 2.06 8.46C2.04 8.51 2.02 8.56 2.01 8.6C2 8.65 2 8.7 2 8.75L2 14.75C2 14.8 2 14.85 2.01 14.9C2.02 14.94 2.04 14.99 2.06 15.04C2.08 15.08 2.1 15.13 2.13 15.17C2.15 15.21 2.18 15.25 2.22 15.28C2.25 15.32 2.29 15.35 2.33 15.37C2.37 15.4 2.42 15.42 2.46 15.44C2.51 15.46 2.56 15.48 2.6 15.49C2.65 15.5 2.7 15.5 2.75 15.5C2.8 15.5 2.85 15.5 2.9 15.49C2.94 15.48 2.99 15.46 3.04 15.44C3.08 15.42 3.13 15.4 3.17 15.37C3.21 15.35 3.25 15.32 3.28 15.28C3.32 15.25 3.35 15.21 3.37 15.17C3.4 15.13 3.42 15.08 3.44 15.04C3.46 14.99 3.48 14.94 3.49 14.9C3.5 14.85 3.5 14.8 3.5 14.75L3.5 8.75Z"></path><path id="直线 3 (轮廓)" fill-rule="evenodd" style="fill:#FFFFFF" opacity="1" d="M15.5 8.75C15.5 8.7 15.5 8.65 15.49 8.6C15.48 8.56 15.46 8.51 15.44 8.46C15.42 8.42 15.4 8.37 15.37 8.33C15.35 8.29 15.32 8.25 15.28 8.22C15.25 8.18 15.21 8.15 15.17 8.13C15.13 8.1 15.08 8.08 15.04 8.06C14.99 8.04 14.94 8.02 14.9 8.01C14.85 8 14.8 8 14.75 8C14.7 8 14.65 8 14.6 8.01C14.56 8.02 14.51 8.04 14.46 8.06C14.42 8.08 14.37 8.1 14.33 8.13C14.29 8.15 14.25 8.18 14.22 8.22C14.18 8.25 14.15 8.29 14.13 8.33C14.1 8.37 14.08 8.42 14.06 8.46C14.04 8.51 14.02 8.56 14.01 8.6C14 8.65 14 8.7 14 8.75L14 14.75C14 14.8 14 14.85 14.01 14.9C14.02 14.94 14.04 14.99 14.06 15.04C14.08 15.08 14.1 15.13 14.13 15.17C14.15 15.21 14.18 15.25 14.22 15.28C14.25 15.32 14.29 15.35 14.33 15.37C14.37 15.4 14.42 15.42 14.46 15.44C14.51 15.46 14.56 15.48 14.6 15.49C14.65 15.5 14.7 15.5 14.75 15.5C14.8 15.5 14.85 15.5 14.9 15.49C14.94 15.48 14.99 15.46 15.04 15.44C15.08 15.42 15.13 15.4 15.17 15.37C15.21 15.35 15.25 15.32 15.28 15.28C15.32 15.25 15.35 15.21 15.37 15.17C15.4 15.13 15.42 15.08 15.44 15.04C15.46 14.99 15.48 14.94 15.49 14.9C15.5 14.85 15.5 14.8 15.5 14.75L15.5 8.75Z"></path><path id="直线 4 (轮廓)" fill-rule="evenodd" style="fill:#FFFFFF" opacity="1" d="M0.75 14C0.7 14 0.65 14 0.6 14.01C0.56 14.02 0.51 14.04 0.46 14.06C0.42 14.08 0.37 14.1 0.33 14.13C0.29 14.15 0.25 14.18 0.22 14.22C0.18 14.25 0.15 14.29 0.13 14.33C0.1 14.37 0.08 14.42 0.06 14.46C0.04 14.51 0.02 14.56 0.01 14.6C0 14.65 0 14.7 0 14.75C0 14.8 0 14.85 0.01 14.9C0.02 14.94 0.04 14.99 0.06 15.04C0.08 15.08 0.1 15.13 0.13 15.17C0.15 15.21 0.18 15.25 0.22 15.28C0.25 15.32 0.29 15.35 0.33 15.37C0.37 15.4 0.42 15.42 0.46 15.44C0.51 15.46 0.56 15.48 0.6 15.49C0.65 15.5 0.7 15.5 0.75 15.5L16.75 15.5C16.8 15.5 16.85 15.5 16.9 15.49C16.94 15.48 16.99 15.46 17.04 15.44C17.08 15.42 17.13 15.4 17.17 15.37C17.21 15.35 17.25 15.32 17.28 15.28C17.32 15.25 17.35 15.21 17.37 15.17C17.4 15.13 17.42 15.08 17.44 15.04C17.46 14.99 17.48 14.94 17.49 14.9C17.5 14.85 17.5 14.8 17.5 14.75C17.5 14.7 17.5 14.65 17.49 14.6C17.48 14.56 17.46 14.51 17.44 14.46C17.42 14.42 17.4 14.37 17.37 14.33C17.35 14.29 17.32 14.25 17.28 14.22C17.25 14.18 17.21 14.15 17.17 14.13C17.13 14.1 17.08 14.08 17.04 14.06C16.99 14.04 16.94 14.02 16.9 14.01C16.85 14 16.8 14 16.75 14L0.75 14Z"></path><path id="直线 4 (轮廓)" fill-rule="evenodd" style="fill:#FFFFFF" opacity="1" d="M6.75 17C6.7 17 6.65 17 6.6 17.01C6.56 17.02 6.51 17.04 6.46 17.06C6.42 17.08 6.37 17.1 6.33 17.13C6.29 17.15 6.25 17.18 6.22 17.22C6.18 17.25 6.15 17.29 6.13 17.33C6.1 17.37 6.08 17.42 6.06 17.46C6.04 17.51 6.02 17.56 6.01 17.6C6 17.65 6 17.7 6 17.75C6 17.8 6 17.85 6.01 17.9C6.02 17.94 6.04 17.99 6.06 18.04C6.08 18.08 6.1 18.13 6.13 18.17C6.15 18.21 6.18 18.25 6.22 18.28C6.25 18.32 6.29 18.35 6.33 18.37C6.37 18.4 6.42 18.42 6.46 18.44C6.51 18.46 6.56 18.48 6.6 18.49C6.65 18.5 6.7 18.5 6.75 18.5L10.75 18.5C10.8 18.5 10.85 18.5 10.9 18.49C10.94 18.48 10.99 18.46 11.04 18.44C11.08 18.42 11.13 18.4 11.17 18.37C11.21 18.35 11.25 18.32 11.28 18.28C11.32 18.25 11.35 18.21 11.37 18.17C11.4 18.13 11.42 18.08 11.44 18.04C11.46 17.99 11.48 17.94 11.49 17.9C11.5 17.85 11.5 17.8 11.5 17.75C11.5 17.7 11.5 17.65 11.49 17.6C11.48 17.56 11.46 17.51 11.44 17.46C11.42 17.42 11.4 17.37 11.37 17.33C11.35 17.29 11.32 17.25 11.28 17.22C11.25 17.18 11.21 17.15 11.17 17.13C11.13 17.1 11.08 17.08 11.04 17.06C10.99 17.04 10.94 17.02 10.9 17.01C10.85 17 10.8 17 10.75 17L6.75 17Z"></path></g></g></g><defs><rect id="path_0" x="0" y="0" width="30" height="30" /></defs></svg>