<svg xmlns="http://www.w3.org/2000/svg" xmlns:xlink="http://www.w3.org/1999/xlink" width="30" height="30"
  viewBox="0 0 30 30" fill="none">
  <g opacity="1" transform="translate(0 0)  rotate(0)">
    <mask id="bg-mask-0" fill="white">
      <use transform="translate(0 0)  rotate(0)" xlink:href="#path_0"></use>
    </mask>
    <g mask="url(#bg-mask-0)">
      <g opacity="1" transform="translate(6.25 5.25)  rotate(0)">
        <path id="圆形 1 (轮廓)" fill-rule="evenodd" style="fill:#131926" opacity="1"
          d="M8.6 2.01C8.56 2.02 8.51 2.04 8.46 2.06C8.42 2.08 8.37 2.1 8.33 2.13C8.29 2.15 8.25 2.18 8.22 2.22C8.18 2.25 8.15 2.29 8.13 2.33C8.1 2.37 8.08 2.42 8.06 2.46C8.04 2.51 8.02 2.56 8.01 2.6C8 2.65 8 2.7 8 2.75C8 2.8 8 2.85 8.01 2.9C8.02 2.94 8.04 2.99 8.06 3.04C8.08 3.08 8.1 3.13 8.13 3.17C8.15 3.21 8.18 3.25 8.22 3.28C8.25 3.32 8.29 3.35 8.33 3.37C8.37 3.4 8.42 3.42 8.46 3.44C8.51 3.46 8.56 3.48 8.6 3.49C8.65 3.5 8.7 3.5 8.75 3.5C9.46 3.5 10.15 3.64 10.8 3.91C11.42 4.18 11.98 4.55 12.46 5.04C12.46 5.04 12.47 5.05 12.47 5.05C12.7 5.27 12.91 5.53 13.12 5.84L13.12 5.84C13.19 5.94 13.28 6.02 13.39 6.08C13.43 6.1 13.47 6.12 13.52 6.13C13.57 6.15 13.62 6.16 13.67 6.16C13.71 6.17 13.76 6.17 13.81 6.16C13.86 6.16 13.91 6.15 13.96 6.13C14 6.12 14.05 6.1 14.09 6.08C14.14 6.05 14.18 6.03 14.22 6C14.25 5.96 14.29 5.93 14.32 5.89C14.35 5.85 14.38 5.81 14.4 5.77C14.43 5.71 14.46 5.64 14.47 5.57C14.49 5.5 14.49 5.43 14.49 5.35C14.48 5.28 14.46 5.21 14.44 5.15C14.41 5.08 14.38 5.02 14.33 4.96C14.08 4.59 13.81 4.26 13.52 3.98C12.9 3.35 12.19 2.87 11.38 2.53C10.54 2.18 9.67 2 8.75 2C8.7 2 8.65 2 8.6 2.01Z">
        </path>
        <path id="圆形 1 (轮廓)" fill-rule="evenodd" style="fill:#131926" opacity="1"
          d="M5.57 3.03056C5.5 3.01056 5.42 3.01056 5.35 3.01056C5.28 3.02056 5.21 3.04056 5.14 3.06056C5.07 3.09056 5.01 3.13056 4.95 3.17056C4.58 3.42056 4.26 3.69056 3.98 3.98056C3.35 4.60056 2.87 5.31056 2.53 6.12056C2.18 6.96056 2 7.83056 2 8.75056L2 8.75056C2 8.80056 2 8.85056 2.01 8.90056C2.02 8.94056 2.04 8.99056 2.06 9.04056C2.08 9.08056 2.1 9.13056 2.13 9.17056C2.15 9.21056 2.19 9.25056 2.22 9.28056C2.25 9.31056 2.29 9.35056 2.33 9.37056C2.37 9.40056 2.42 9.42056 2.46 9.44056C2.51 9.46056 2.56 9.48056 2.6 9.49056C2.65 9.49056 2.7 9.50056 2.75 9.50056C2.8 9.50056 2.85 9.49056 2.9 9.49056C2.94 9.48056 2.99 9.46056 3.04 9.44056C3.08 9.42056 3.13 9.40056 3.17 9.37056C3.21 9.35056 3.25 9.31056 3.28 9.28056C3.31 9.25056 3.35 9.21056 3.37 9.17056C3.4 9.13056 3.42 9.08056 3.44 9.04056C3.46 8.99056 3.48 8.94056 3.49 8.90056C3.5 8.85056 3.5 8.80056 3.5 8.75056L3.5 8.75056C3.5 8.03056 3.64 7.35056 3.91 6.70056C4.18 6.08056 4.55 5.52056 5.04 5.04056C5.04 5.04056 5.05 5.03056 5.05 5.03056C5.27 4.80056 5.53 4.59056 5.84 4.38056L5.83 4.38056C5.94 4.31056 6.02 4.22056 6.08 4.11056C6.1 4.07056 6.12 4.02056 6.13 3.98056C6.15 3.93056 6.16 3.88056 6.16 3.83056C6.17 3.78056 6.17 3.74056 6.16 3.69056C6.16 3.64056 6.15 3.59056 6.13 3.54056C6.12 3.50056 6.1 3.45056 6.08 3.41056C6.05 3.36056 6.03 3.32056 6 3.28056C5.96 3.25056 5.93 3.21056 5.89 3.18056C5.85 3.15056 5.81 3.12056 5.77 3.10056C5.71 3.06056 5.64 3.04056 5.57 3.03056Z">
        </path>
        <path id="直线 1 (轮廓)" fill-rule="evenodd" style="fill:#131926" opacity="1"
          d="M8 2.75C8 2.8 8 2.85 8.01 2.9C8.02 2.94 8.04 2.99 8.06 3.04C8.08 3.08 8.1 3.13 8.13 3.17C8.15 3.21 8.18 3.25 8.22 3.28C8.25 3.32 8.29 3.35 8.33 3.37C8.37 3.4 8.42 3.42 8.46 3.44C8.51 3.46 8.56 3.48 8.6 3.49C8.65 3.5 8.7 3.5 8.75 3.5C8.8 3.5 8.85 3.5 8.9 3.49C8.94 3.48 8.99 3.46 9.04 3.44C9.08 3.42 9.13 3.4 9.17 3.37C9.21 3.35 9.25 3.32 9.28 3.28C9.32 3.25 9.35 3.21 9.37 3.17C9.4 3.13 9.42 3.08 9.44 3.04C9.46 2.99 9.48 2.94 9.49 2.9C9.5 2.85 9.5 2.8 9.5 2.75L9.5 0.75C9.5 0.7 9.5 0.65 9.49 0.6C9.48 0.56 9.46 0.51 9.44 0.46C9.42 0.42 9.4 0.37 9.37 0.33C9.35 0.29 9.32 0.25 9.28 0.22C9.25 0.18 9.21 0.15 9.17 0.13C9.13 0.0999999 9.08 0.0799999 9.04 0.0599999C8.99 0.04 8.94 0.02 8.9 0.00999999C8.85 0 8.8 0 8.75 0C8.7 0 8.65 0 8.6 0.00999999C8.56 0.02 8.51 0.04 8.46 0.0599999C8.42 0.0799999 8.37 0.0999999 8.33 0.13C8.29 0.15 8.25 0.18 8.22 0.22C8.18 0.25 8.15 0.29 8.13 0.33C8.1 0.37 8.08 0.42 8.06 0.46C8.04 0.51 8.02 0.56 8.01 0.6C8 0.65 8 0.7 8 0.75L8 2.75Z">
        </path>
        <path id="直线 2 (轮廓)" fill-rule="evenodd" style="fill:#131926" opacity="1"
          d="M3.5 8.75C3.5 8.7 3.5 8.65 3.49 8.6C3.48 8.56 3.46 8.51 3.44 8.46C3.42 8.42 3.4 8.37 3.37 8.33C3.35 8.29 3.32 8.25 3.28 8.22C3.25 8.18 3.21 8.15 3.17 8.13C3.13 8.1 3.08 8.08 3.04 8.06C2.99 8.04 2.94 8.02 2.9 8.01C2.85 8 2.8 8 2.75 8C2.7 8 2.65 8 2.6 8.01C2.56 8.02 2.51 8.04 2.46 8.06C2.42 8.08 2.37 8.1 2.33 8.13C2.29 8.15 2.25 8.18 2.22 8.22C2.18 8.25 2.15 8.29 2.13 8.33C2.1 8.37 2.08 8.42 2.06 8.46C2.04 8.51 2.02 8.56 2.01 8.6C2 8.65 2 8.7 2 8.75L2 14.75C2 14.8 2 14.85 2.01 14.9C2.02 14.94 2.04 14.99 2.06 15.04C2.08 15.08 2.1 15.13 2.13 15.17C2.15 15.21 2.18 15.25 2.22 15.28C2.25 15.32 2.29 15.35 2.33 15.37C2.37 15.4 2.42 15.42 2.46 15.44C2.51 15.46 2.56 15.48 2.6 15.49C2.65 15.5 2.7 15.5 2.75 15.5C2.8 15.5 2.85 15.5 2.9 15.49C2.94 15.48 2.99 15.46 3.04 15.44C3.08 15.42 3.13 15.4 3.17 15.37C3.21 15.35 3.25 15.32 3.28 15.28C3.32 15.25 3.35 15.21 3.37 15.17C3.4 15.13 3.42 15.08 3.44 15.04C3.46 14.99 3.48 14.94 3.49 14.9C3.5 14.85 3.5 14.8 3.5 14.75L3.5 8.75Z">
        </path>
        <path id="直线 4 (轮廓)" fill-rule="evenodd" style="fill:#131926" opacity="1"
          d="M0.75 14C0.7 14 0.65 14 0.6 14.01C0.56 14.02 0.51 14.04 0.46 14.06C0.42 14.08 0.37 14.1 0.33 14.13C0.29 14.15 0.25 14.18 0.22 14.22C0.18 14.25 0.15 14.29 0.13 14.33C0.1 14.37 0.08 14.42 0.06 14.46C0.04 14.51 0.02 14.56 0.01 14.6C0 14.65 0 14.7 0 14.75C0 14.8 0 14.85 0.01 14.9C0.02 14.94 0.04 14.99 0.06 15.04C0.08 15.08 0.1 15.13 0.13 15.17C0.15 15.21 0.18 15.25 0.22 15.28C0.25 15.32 0.29 15.35 0.33 15.37C0.37 15.4 0.42 15.42 0.46 15.44C0.51 15.46 0.56 15.48 0.6 15.49C0.65 15.5 0.7 15.5 0.75 15.5L8.75 15.5C8.8 15.5 8.85 15.5 8.9 15.49C8.94 15.48 8.99 15.46 9.04 15.44C9.08 15.42 9.13 15.4 9.17 15.37C9.21 15.35 9.25 15.32 9.28 15.28C9.32 15.25 9.35 15.21 9.37 15.17C9.4 15.13 9.42 15.08 9.44 15.04C9.46 14.99 9.48 14.94 9.49 14.9C9.5 14.85 9.5 14.8 9.5 14.75C9.5 14.7 9.5 14.65 9.49 14.6C9.48 14.56 9.46 14.51 9.44 14.46C9.42 14.42 9.4 14.37 9.37 14.33C9.35 14.29 9.32 14.25 9.28 14.22C9.25 14.18 9.21 14.15 9.17 14.13C9.13 14.1 9.08 14.08 9.04 14.06C8.99 14.04 8.94 14.02 8.9 14.01C8.85 14 8.8 14 8.75 14L0.75 14Z">
        </path>
        <path id="直线 4 (轮廓)" fill-rule="evenodd" style="fill:#131926" opacity="1"
          d="M6.75 17C6.7 17 6.65 17 6.6 17.01C6.56 17.02 6.51 17.04 6.46 17.06C6.42 17.08 6.37 17.1 6.33 17.13C6.29 17.15 6.25 17.18 6.22 17.22C6.18 17.25 6.15 17.29 6.13 17.33C6.1 17.37 6.08 17.42 6.06 17.46C6.04 17.51 6.02 17.56 6.01 17.6C6 17.65 6 17.7 6 17.75C6 17.8 6 17.85 6.01 17.9C6.02 17.94 6.04 17.99 6.06 18.04C6.08 18.08 6.1 18.13 6.13 18.17C6.15 18.21 6.18 18.25 6.22 18.28C6.25 18.32 6.29 18.35 6.33 18.37C6.37 18.4 6.42 18.42 6.46 18.44C6.51 18.46 6.56 18.48 6.6 18.49C6.65 18.5 6.7 18.5 6.75 18.5L10.75 18.5C10.8 18.5 10.85 18.5 10.9 18.49C10.94 18.48 10.99 18.46 11.04 18.44C11.08 18.42 11.13 18.4 11.17 18.37C11.21 18.35 11.25 18.32 11.28 18.28C11.32 18.25 11.35 18.21 11.37 18.17C11.4 18.13 11.42 18.08 11.44 18.04C11.46 17.99 11.48 17.94 11.49 17.9C11.5 17.85 11.5 17.8 11.5 17.75C11.5 17.7 11.5 17.65 11.49 17.6C11.48 17.56 11.46 17.51 11.44 17.46C11.42 17.42 11.4 17.37 11.37 17.33C11.35 17.29 11.32 17.25 11.28 17.22C11.25 17.18 11.21 17.15 11.17 17.13C11.13 17.1 11.08 17.08 11.04 17.06C10.99 17.04 10.94 17.02 10.9 17.01C10.85 17 10.8 17 10.75 17L6.75 17Z">
        </path>
        <path id="多边形 1 (轮廓)" fill-rule="evenodd" style="fill:#495AD4" opacity="1"
          d="M13.6302,7.1l3.03,1.75c0.05,0.03 0.1,0.07 0.15,0.12c0.05,0.05 0.09,0.1 0.12,0.16c0.03,0.05 0.06,0.11 0.07,0.18c0.02,0.06 0.03,0.12 0.03,0.19v3.5c0,0.07 -0.01,0.13 -0.03,0.19c-0.01,0.07 -0.04,0.13 -0.07,0.18c-0.03,0.06 -0.07,0.11 -0.12,0.16c-0.05,0.05 -0.1,0.09 -0.15,0.12l-3.03,1.75c-0.06,0.03 -0.12,0.06 -0.19,0.07c-0.06,0.02 -0.12,0.03 -0.19,0.03c-0.07,0 -0.13,-0.01 -0.19,-0.03c-0.07,-0.01 -0.13,-0.04 -0.19,-0.07l-3.02999,-1.75c-0.05,-0.03 -0.09999,-0.07 -0.14999,-0.12c-0.05001,-0.05 -0.09001,-0.1 -0.12,-0.16c-0.03001,-0.05 -0.06001,-0.11 -0.07001,-0.18c-0.01999,-0.06 -0.03,-0.12 -0.03,-0.19v-3.5c0,-0.07 0.01001,-0.13 0.03,-0.19c0.01,-0.07 0.04,-0.13 0.07001,-0.18c0.02999,-0.06 0.06999,-0.11 0.12,-0.16c0.05,-0.05 0.09999,-0.09 0.14999,-0.12l3.02999,-1.75c0.06,-0.03 0.12,-0.06 0.19,-0.07c0.06,-0.02 0.12,-0.03 0.19,-0.03c0.07,0 0.13,0.01 0.19,0.03c0.07,0.01 0.13,0.04 0.19,0.07zM10.9702,9.93v2.64l2.28,1.31l2.28,-1.31v-2.64l-2.28,-1.31z">
        </path>
        <path id="圆形 2" fill-rule="evenodd" style="fill:#131926" opacity="1"
          d="M13.25 10.25C12.7 10.25 12.25 10.7 12.25 11.25C12.25 11.8 12.7 12.25 13.25 12.25C13.8 12.25 14.25 11.8 14.25 11.25C14.25 10.7 13.8 10.25 13.25 10.25Z">
        </path>
      </g>
    </g>
  </g>
  <defs>
    <rect id="path_0" x="0" y="0" width="30" height="30" />
  </defs>
</svg>