<svg xmlns="http://www.w3.org/2000/svg" xmlns:xlink="http://www.w3.org/1999/xlink" width="20" height="20" viewBox="0 0 20 20" fill="none"><path d="M2.85114 6.45754C2.90866 6.42587 2.96871 6.40011 3.0313 6.38027C3.09389 6.36042 3.15782 6.34688 3.22308 6.33962C3.28834 6.33237 3.35368 6.33156 3.4191 6.33718C3.48452 6.3428 3.54876 6.35475 3.61183 6.37302C3.67489 6.39129 3.73557 6.41554 3.79386 6.44578C3.85215 6.476 3.90693 6.51162 3.9582 6.55264L10.0002 11.3862L16.0422 6.55264C16.0934 6.51162 16.1482 6.476 16.2065 6.44577C16.2648 6.41554 16.3254 6.39129 16.3885 6.37302C16.4516 6.35475 16.5158 6.3428 16.5812 6.33718C16.6467 6.33156 16.712 6.33237 16.7772 6.33962C16.8425 6.34688 16.9065 6.36042 16.969 6.38027C17.0316 6.40011 17.0917 6.42587 17.1492 6.45754C17.2068 6.48921 17.2606 6.52619 17.3108 6.56848C17.3611 6.61076 17.4067 6.65754 17.4477 6.70881C17.4682 6.73439 17.4873 6.7609 17.5052 6.78836C17.523 6.81582 17.5395 6.84408 17.5546 6.87316C17.5696 6.90223 17.5833 6.93197 17.5954 6.96239C17.6076 6.9928 17.6182 7.02373 17.6273 7.05519C17.6364 7.08665 17.644 7.11848 17.65 7.15068C17.656 7.18288 17.6604 7.21529 17.6632 7.24792C17.666 7.28055 17.6672 7.31324 17.6668 7.34599C17.6664 7.37874 17.6644 7.41139 17.6607 7.44394C17.6571 7.47649 17.6519 7.50879 17.6451 7.54083C17.6383 7.57287 17.63 7.6045 17.6201 7.63572C17.6102 7.66694 17.5988 7.6976 17.5858 7.72769C17.573 7.75779 17.5586 7.78719 17.5428 7.81588C17.527 7.84457 17.5098 7.87241 17.4913 7.89941C17.4728 7.92642 17.453 7.95245 17.4318 7.9775C17.4108 8.00255 17.3885 8.02652 17.365 8.04939C17.3416 8.07226 17.3171 8.09392 17.2915 8.11438L10.6248 13.4477C10.5808 13.4829 10.5342 13.5142 10.4849 13.5415C10.4356 13.5688 10.3844 13.5918 10.3312 13.6105C10.278 13.6291 10.2236 13.6432 10.168 13.6526C10.1125 13.6621 10.0565 13.6668 10.0002 13.6668C9.94382 13.6668 9.88786 13.6621 9.83229 13.6526C9.77673 13.6432 9.72236 13.6291 9.66917 13.6105C9.61598 13.5918 9.56474 13.5688 9.51544 13.5415C9.46615 13.5142 9.41949 13.4829 9.37548 13.4477L2.70881 8.11438C2.65754 8.07336 2.61076 8.02773 2.56848 7.9775C2.52619 7.92727 2.48921 7.87339 2.45754 7.81588C2.42587 7.75836 2.40011 7.69831 2.38027 7.63572C2.36042 7.57312 2.34688 7.5092 2.33962 7.44394C2.33237 7.37868 2.33156 7.31334 2.33718 7.24792C2.3428 7.1825 2.35475 7.11826 2.37302 7.05519C2.39129 6.99212 2.41554 6.93145 2.44578 6.87316C2.476 6.81487 2.51162 6.76009 2.55264 6.70881C2.59366 6.65754 2.63928 6.61076 2.68952 6.56848C2.73975 6.52619 2.79362 6.48921 2.85114 6.45754Z"   fill="#A0A3B8" ></path></svg>