<svg xmlns="http://www.w3.org/2000/svg" xmlns:xlink="http://www.w3.org/1999/xlink" width="7.587646484375" height="15.8603515625" viewBox="0 0 7.587646484375 15.8603515625" fill="none"><path d="M7.45789 15.3249C7.49066 15.2654 7.5173 15.2032 7.53783 15.1385C7.55836 15.0737 7.57237 15.0076 7.57988 14.9401C7.58738 14.8726 7.58822 14.805 7.58241 14.7373C7.57659 14.6696 7.56423 14.6032 7.54533 14.5379C7.52642 14.4727 7.50134 14.4099 7.47006 14.3496C7.43879 14.2893 7.40194 14.2327 7.35951 14.1796L2.35927 7.92931L7.35951 1.67896C7.40194 1.62595 7.4388 1.56929 7.47007 1.50896C7.50134 1.44869 7.52642 1.38593 7.54533 1.32069C7.56423 1.25545 7.57659 1.18899 7.58241 1.12131C7.58822 1.05363 7.58738 0.986045 7.57988 0.918551C7.57237 0.851011 7.55836 0.784873 7.53783 0.720138C7.5173 0.655402 7.49066 0.593264 7.45789 0.533723C7.42513 0.474229 7.38687 0.418505 7.34313 0.36655C7.29939 0.314596 7.251 0.267401 7.19795 0.224964C7.1715 0.203815 7.14407 0.183999 7.11566 0.165516C7.08726 0.147034 7.05802 0.129999 7.02794 0.114412C6.99787 0.0988264 6.9671 0.0847349 6.93564 0.0721369C6.90418 0.0595856 6.87217 0.0485964 6.83963 0.0391712C6.80709 0.0297461 6.77417 0.0219297 6.74086 0.0157232C6.70755 0.00951576 6.67401 0.00496483 6.64026 0.00206757C6.6065 -0.000828743 6.57268 -0.00207043 6.53881 -0.00165653C6.50493 -0.00124264 6.47115 0.000849724 6.43748 0.0046196C6.40381 0.0083437 6.3704 0.0137234 6.33725 0.0207577C6.30411 0.027792 6.27139 0.0364132 6.23909 0.0466194C6.2068 0.0568724 6.17508 0.0686884 6.14394 0.0820675C6.1128 0.0954008 6.0824 0.110251 6.05272 0.126619C6.02304 0.142941 5.99423 0.160688 5.9663 0.179861C5.93837 0.199034 5.91144 0.219539 5.88552 0.241378C5.8596 0.263171 5.83481 0.286205 5.81115 0.310482C5.7875 0.334711 5.76509 0.360067 5.74393 0.386551L0.226689 7.2831C0.190267 7.32862 0.157922 7.37687 0.129655 7.42786C0.101393 7.47885 0.0776137 7.53186 0.0583172 7.58689C0.0390161 7.64193 0.0244712 7.69818 0.0146827 7.75565C0.00489425 7.81312 7.77757e-16 7.87101 7.72081e-16 7.92931C7.66406e-16 7.98761 0.00489425 8.0455 0.0146827 8.10298C0.0244712 8.16046 0.0390161 8.21671 0.0583172 8.27173C0.0776137 8.32675 0.101393 8.37976 0.129655 8.43075C0.157922 8.48175 0.190267 8.53001 0.226689 8.57554L5.74393 15.4721C5.78636 15.5251 5.83356 15.5735 5.88552 15.6173C5.93749 15.661 5.99322 15.6993 6.05272 15.732C6.11222 15.7648 6.17434 15.7914 6.23909 15.812C6.30384 15.8325 6.36997 15.8465 6.43748 15.854C6.50499 15.8615 6.57258 15.8624 6.64026 15.8565C6.70793 15.8507 6.77439 15.8384 6.83963 15.8195C6.90487 15.8006 6.96765 15.7755 7.02795 15.7442C7.08824 15.7129 7.14491 15.6761 7.19796 15.6336C7.251 15.5912 7.29939 15.544 7.34313 15.4921C7.38687 15.4401 7.42513 15.3844 7.45789 15.3249Z"   fill="#A0A3B8" ></path></svg>