<svg xmlns="http://www.w3.org/2000/svg" xmlns:xlink="http://www.w3.org/1999/xlink" width="24" height="24"
  viewBox="0 0 24 24">
  <g opacity="1" transform="translate(0 0)  rotate(0)">
    <mask id="bg-mask-0" fill="white">
      <use xlink:href="#path_0"></use>
    </mask>
    <g mask="url(#bg-mask-0)">
      <path id="直线 2 (轮廓)" fill-rule="evenodd" opacity="1"
        d="M16.3986 5.15155C16.3687 5.12497 16.3388 5.0984 16.3023 5.0793C16.2658 5.0602 16.2367 5.04774 16.1935 5.03611C16.157 5.01701 16.1213 5.01203 16.0856 5.00705C16.0424 4.99542 16 4.99791 15.9651 5.00705C15.9294 5.00207 15.8871 5.00456 15.8456 5.02117C15.8107 5.0303 15.7758 5.03944 15.7418 5.06269C15.7002 5.0793 15.6728 5.09508 15.6388 5.11833C15.6047 5.14158 15.5782 5.17148 15.5516 5.20138C15.525 5.23127 15.4984 5.26117 15.4793 5.29771C15.4602 5.33425 15.4478 5.36331 15.4361 5.4065C15.417 5.44304 15.4121 5.47875 15.4071 5.51446C15.3955 5.55764 15.3979 5.59999 15.4071 5.63487C15.4021 5.67058 15.4046 5.71294 15.4212 5.75446C15.4303 5.78934 15.4395 5.82422 15.4627 5.85827C15.4793 5.89979 15.4951 5.92719 15.5184 5.96124C15.5416 5.99529 15.5715 6.02187 15.6014 6.04844L22.799 12.4463C22.8289 12.4728 22.8587 12.4994 22.8953 12.5185C22.9318 12.5376 22.9684 12.5567 23.0041 12.5617C23.0406 12.5808 23.0763 12.5858 23.1195 12.5974C23.1552 12.6024 23.1976 12.5999 23.2399 12.5974C23.2756 12.6024 23.3105 12.5933 23.352 12.5766C23.3869 12.5675 23.4218 12.5584 23.4633 12.5418C23.4974 12.5185 23.5248 12.5027 23.5588 12.4795C23.5929 12.4562 23.6194 12.4263 23.646 12.3964C23.6726 12.3665 23.6992 12.3366 23.7183 12.3001C23.7374 12.2636 23.7498 12.2345 23.7689 12.198C23.7806 12.1548 23.7855 12.1191 23.7905 12.0834C23.8021 12.0402 23.8071 12.0045 23.798 11.9696C23.7955 11.9272 23.793 11.8849 23.7839 11.85C23.7673 11.8085 23.7581 11.7736 23.7349 11.7395C23.7257 11.7047 23.7025 11.6706 23.6792 11.6366C23.656 11.6025 23.6261 11.5759 23.5962 11.5494L16.3986 5.15155Z">
      </path>
      <path id="直线 2 (轮廓)" fill-rule="evenodd" opacity="1"
        d="M9.19845 5.15155C9.16855 5.12497 9.13865 5.0984 9.10211 5.0793C9.06557 5.0602 9.03651 5.04774 8.99332 5.03611C8.95678 5.01701 8.92107 5.01203 8.88536 5.00705C8.84218 4.99542 8.79983 4.99791 8.76495 5.00705C8.72924 5.00207 8.68688 5.00456 8.64536 5.02117C8.61048 5.0303 8.5756 5.03944 8.54156 5.06269C8.50003 5.0793 8.47263 5.09508 8.43858 5.11833C8.40453 5.14158 8.37796 5.17148 8.35138 5.20138C8.32481 5.23127 8.29823 5.26117 8.27913 5.29771C8.26003 5.33425 8.24757 5.36331 8.23595 5.4065C8.21685 5.44304 8.21186 5.47875 8.20688 5.51446C8.19526 5.55764 8.19775 5.59999 8.20688 5.63487C8.2019 5.67058 8.20439 5.71294 8.221 5.75446C8.23013 5.78934 8.23927 5.82422 8.26252 5.85827C8.27913 5.89979 8.29491 5.92719 8.31816 5.96124C8.34142 5.99529 8.37131 6.02187 8.40121 6.04844L15.5988 12.4463C15.6287 12.4728 15.6586 12.4994 15.6951 12.5185C15.7316 12.5376 15.7682 12.5567 15.8039 12.5617C15.8404 12.5808 15.8761 12.5858 15.9193 12.5974C15.955 12.6024 15.9974 12.5999 16.0397 12.5974C16.0754 12.6024 16.1103 12.5933 16.1518 12.5766C16.1867 12.5675 16.2216 12.5584 16.2631 12.5418C16.2972 12.5185 16.3246 12.5027 16.3586 12.4795C16.3927 12.4562 16.4193 12.4263 16.4458 12.3964C16.4724 12.3665 16.499 12.3366 16.5181 12.3001C16.5372 12.2636 16.5496 12.2345 16.5687 12.198C16.5804 12.1548 16.5853 12.1191 16.5903 12.0834C16.602 12.0402 16.6069 12.0045 16.5978 11.9696C16.5953 11.9272 16.5928 11.8849 16.5837 11.85C16.5671 11.8085 16.5579 11.7736 16.5347 11.7395C16.5255 11.7047 16.5023 11.6706 16.479 11.6366C16.4558 11.6025 16.4259 11.5759 16.396 11.5494L9.19845 5.15155Z">
      </path>
      <path id="直线 2 (轮廓)" fill-rule="evenodd" opacity="1"
        d="M1.99874 5.15155C1.96884 5.12497 1.93895 5.0984 1.90241 5.0793C1.86587 5.0602 1.8368 5.04774 1.79362 5.03611C1.75708 5.01701 1.72137 5.01203 1.68566 5.00705C1.64247 4.99542 1.60012 4.99791 1.56524 5.00705C1.52953 5.00207 1.48718 5.00456 1.44566 5.02117C1.41078 5.0303 1.3759 5.03944 1.34185 5.06269C1.30033 5.0793 1.27292 5.09508 1.23887 5.11833C1.20482 5.14158 1.17825 5.17148 1.15167 5.20138C1.1251 5.23127 1.09853 5.26117 1.07943 5.29771C1.06032 5.33425 1.04787 5.36331 1.03624 5.4065C1.01714 5.44304 1.01216 5.47875 1.00718 5.51446C0.995549 5.55764 0.998041 5.59999 1.00718 5.63487C1.00219 5.67058 1.00468 5.71294 1.02129 5.75446C1.03043 5.78934 1.03956 5.82422 1.06282 5.85826C1.07943 5.89979 1.0952 5.92719 1.11846 5.96124C1.14171 5.99529 1.17161 6.02186 1.2015 6.04844L8.39905 12.4463C8.42895 12.4728 8.45885 12.4994 8.49539 12.5185C8.53193 12.5376 8.56847 12.5567 8.60418 12.5617C8.64072 12.5808 8.67643 12.5858 8.71961 12.5974C8.75532 12.6024 8.79767 12.5999 8.84002 12.5974C8.87573 12.6024 8.91061 12.5933 8.95214 12.5766C8.98702 12.5675 9.0219 12.5584 9.06342 12.5418C9.09747 12.5185 9.12487 12.5027 9.15892 12.4795C9.19297 12.4562 9.21954 12.4263 9.24612 12.3964C9.27269 12.3665 9.29927 12.3366 9.31837 12.3001C9.33747 12.2636 9.34993 12.2345 9.36902 12.198C9.38065 12.1548 9.38563 12.1191 9.39062 12.0834C9.40224 12.0402 9.40723 12.0045 9.39809 11.9696C9.3956 11.9272 9.39311 11.8849 9.38397 11.85C9.36736 11.8085 9.35823 11.7736 9.33498 11.7395C9.32584 11.7047 9.30259 11.6706 9.27934 11.6366C9.25608 11.6025 9.22619 11.5759 9.19629 11.5494L1.99874 5.15155Z">
      </path>
      <path id="直线 3 (轮廓)" fill-rule="evenodd" opacity="1"
        d="M23.5984 12.4484C23.6283 12.4218 23.6582 12.3953 23.6815 12.3612C23.7047 12.3272 23.7205 12.2998 23.7371 12.2582C23.7604 12.2242 23.7695 12.1893 23.7786 12.1544C23.7952 12.1129 23.7977 12.0706 23.7928 12.0349C23.8019 12 23.8044 11.9576 23.7928 11.9144C23.7878 11.8787 23.7828 11.843 23.7637 11.8065C23.7521 11.7633 23.7396 11.7342 23.7205 11.6977C23.7014 11.6612 23.6748 11.6313 23.6483 11.6014C23.6217 11.5715 23.5951 11.5416 23.5611 11.5183C23.527 11.4951 23.4996 11.4793 23.4581 11.4627C23.424 11.4394 23.3892 11.4303 23.3543 11.4212C23.3128 11.4045 23.2704 11.4021 23.2347 11.407C23.1998 11.3979 23.1575 11.3954 23.1143 11.407C23.0786 11.412 23.0429 11.417 23.0063 11.4361C22.9631 11.4477 22.9341 11.4602 22.8975 11.4793C22.861 11.4984 22.8311 11.525 22.8012 11.5515L15.6036 17.9494C15.5737 17.9759 15.5438 18.0025 15.5206 18.0366C15.4973 18.0706 15.4741 18.1047 15.465 18.1395C15.4417 18.1736 15.4326 18.2085 15.416 18.25C15.4068 18.2849 15.4043 18.3272 15.4018 18.3696C15.3927 18.4044 15.3977 18.4402 15.4093 18.4833C15.4143 18.519 15.4193 18.5548 15.4309 18.5979C15.45 18.6345 15.4625 18.6635 15.4816 18.7001C15.5007 18.7366 15.5272 18.7665 15.5538 18.7964C15.5804 18.8263 15.607 18.8562 15.641 18.8795C15.6751 18.9027 15.7025 18.9185 15.7365 18.9417C15.778 18.9584 15.8129 18.9675 15.8478 18.9766C15.8893 18.9932 15.9242 19.0024 15.9599 18.9974C16.0023 18.9999 16.0446 19.0024 16.0803 18.9974C16.1235 18.9858 16.1592 18.9808 16.1958 18.9617C16.2315 18.9567 16.268 18.9376 16.3045 18.9185C16.3411 18.8994 16.371 18.8728 16.4009 18.8462L23.5984 12.4484Z">
      </path>
      <path id="直线 3 (轮廓)" fill-rule="evenodd" opacity="1"
        d="M16.3987 12.4484C16.4286 12.4218 16.4585 12.3953 16.4818 12.3612C16.505 12.3272 16.5208 12.2998 16.5374 12.2582C16.5607 12.2242 16.5698 12.1893 16.5789 12.1544C16.5955 12.1129 16.598 12.0706 16.593 12.0349C16.6022 12 16.6047 11.9576 16.593 11.9144C16.5881 11.8787 16.5831 11.843 16.564 11.8065C16.5524 11.7633 16.5399 11.7342 16.5208 11.6977C16.5017 11.6612 16.4751 11.6313 16.4485 11.6014C16.422 11.5715 16.3954 11.5416 16.3614 11.5183C16.3273 11.4951 16.2999 11.4793 16.2584 11.4627C16.2243 11.4394 16.1894 11.4303 16.1546 11.4212C16.113 11.4045 16.0707 11.4021 16.035 11.407C16.0001 11.3979 15.9578 11.3954 15.9146 11.407C15.8789 11.412 15.8431 11.417 15.8066 11.4361C15.7634 11.4477 15.7344 11.4602 15.6978 11.4793C15.6613 11.4984 15.6314 11.525 15.6015 11.5515L8.40393 17.9494C8.37404 17.9759 8.34414 18.0025 8.32089 18.0366C8.29764 18.0706 8.27438 18.1047 8.26525 18.1395C8.24199 18.1736 8.23286 18.2085 8.21625 18.25C8.20712 18.2849 8.20462 18.3272 8.20213 18.3696C8.193 18.4044 8.19798 18.4402 8.20961 18.4833C8.21459 18.519 8.21957 18.5548 8.2312 18.5979C8.2503 18.6345 8.26276 18.6635 8.28186 18.7001C8.30096 18.7366 8.32753 18.7665 8.35411 18.7964C8.38068 18.8263 8.40726 18.8562 8.44131 18.8795C8.47535 18.9027 8.50276 18.9185 8.53681 18.9417C8.57833 18.9584 8.61321 18.9675 8.64809 18.9766C8.68961 18.9932 8.72449 19.0024 8.7602 18.9974C8.80255 18.9999 8.8449 19.0024 8.88062 18.9974C8.9238 18.9858 8.95951 18.9808 8.99605 18.9617C9.03176 18.9567 9.0683 18.9376 9.10484 18.9185C9.14138 18.8994 9.17127 18.8728 9.20117 18.8462L16.3987 12.4484Z">
      </path>
      <path id="直线 3 (轮廓)" fill-rule="evenodd" opacity="1"
        d="M9.19853 12.4484C9.22842 12.4218 9.25832 12.3953 9.28157 12.3612C9.30482 12.3272 9.3206 12.2998 9.33721 12.2582C9.36047 12.2242 9.3696 12.1893 9.37874 12.1544C9.39534 12.1129 9.39784 12.0706 9.39285 12.0349C9.40199 12 9.40448 11.9576 9.39285 11.9144C9.38787 11.8787 9.38289 11.843 9.36379 11.8065C9.35216 11.7633 9.3397 11.7342 9.3206 11.6977C9.3015 11.6612 9.27493 11.6313 9.24835 11.6014C9.22178 11.5715 9.1952 11.5416 9.16116 11.5183C9.12711 11.4951 9.0997 11.4793 9.05818 11.4627C9.02413 11.4394 8.98925 11.4303 8.95437 11.4212C8.91285 11.4045 8.8705 11.4021 8.83479 11.407C8.79991 11.3979 8.75756 11.3954 8.71437 11.407C8.67866 11.412 8.64295 11.417 8.60641 11.4361C8.56323 11.4477 8.53416 11.4602 8.49762 11.4793C8.46108 11.4984 8.43119 11.525 8.40129 11.5515L1.20374 17.9494C1.17384 17.9759 1.14395 18.0025 1.12069 18.0366C1.09744 18.0706 1.07419 18.1047 1.06505 18.1395C1.0418 18.1736 1.03266 18.2085 1.01606 18.25C1.00692 18.2849 1.00443 18.3272 1.00194 18.3696C0.992803 18.4044 0.997786 18.4402 1.00941 18.4833C1.01439 18.519 1.01938 18.5548 1.031 18.5979C1.0501 18.6345 1.06256 18.6635 1.08166 18.7001C1.10076 18.7366 1.12734 18.7665 1.15391 18.7964C1.18049 18.8263 1.20706 18.8562 1.24111 18.8795C1.27516 18.9027 1.30256 18.9185 1.33661 18.9417C1.37813 18.9584 1.41301 18.9675 1.44789 18.9766C1.48942 18.9932 1.52429 19.0024 1.56 18.9974C1.60236 18.9999 1.64471 19.0024 1.68042 18.9974C1.7236 18.9858 1.75931 18.9808 1.79585 18.9617C1.83156 18.9567 1.8681 18.9376 1.90464 18.9185C1.94118 18.8994 1.97108 18.8728 2.00098 18.8462L9.19853 12.4484Z">
      </path>
    </g>
  </g>
  <defs>
    <rect id="path_0" x="0" y="0" width="24" height="24" />
  </defs>
</svg>