<svg xmlns="http://www.w3.org/2000/svg" xmlns:xlink="http://www.w3.org/1999/xlink" width="16" height="16"
  viewBox="0 0 16 16" fill="none">
  <g opacity="1" transform="translate(0 0)  rotate(0)">
    <path id="矩形 1" fill-rule="evenodd" style="fill:#FFFFFF" opacity="1"
      d="M2 16L14 16C15.1 16 16 15.1 16 14L16 2C16 0.9 15.1 0 14 0L2 0C0.9 0 0 0.9 0 2L0 14C0 15.1 0.9 16 2 16Z"></path>
    <path id="路径 1" fill-rule="evenodd" style="fill:#495AD4" opacity="1"
      d="M8.35 9.65L10.15 7.85C10.46 7.53 10.23 7 9.79 7L6.21 7C5.77 7 5.54 7.53 5.85 7.85L7.65 9.65C7.84 9.84 8.16 9.84 8.35 9.65Z">
    </path>
  </g>
</svg>