<svg xmlns="http://www.w3.org/2000/svg" xmlns:xlink="http://www.w3.org/1999/xlink" width="7.58740234375" height="15.8603515625" viewBox="0 0 7.58740234375 15.8603515625" fill="none"><path d="M0.129511 15.3249C0.0967436 15.2654 0.0700979 15.2032 0.0495734 15.1385C0.0290451 15.0737 0.015029 15.0076 0.00752544 14.9401C2.67029e-05 14.8726 -0.000817299 14.805 0.00499439 14.7373C0.0108104 14.6696 0.0231714 14.6032 0.0420771 14.5379C0.0609784 14.4727 0.0860658 14.4099 0.117339 14.3496C0.148608 14.2893 0.185459 14.2327 0.227891 14.1796L5.22814 7.92931L0.227891 1.67896C0.185459 1.62595 0.148606 1.56929 0.117332 1.50896C0.0860634 1.44869 0.0609784 1.38593 0.0420771 1.32069C0.0231714 1.25545 0.0108104 1.18899 0.00499439 1.12131C-0.000817299 1.05363 2.67029e-05 0.986045 0.00752544 0.918551C0.015029 0.851011 0.0290451 0.784873 0.0495734 0.720138C0.0700979 0.655402 0.0967436 0.593264 0.129511 0.533723C0.162275 0.474229 0.200528 0.418505 0.24427 0.36655C0.288013 0.314596 0.336405 0.267401 0.389448 0.224964C0.415904 0.203815 0.443334 0.183999 0.471737 0.165516C0.500141 0.147034 0.529381 0.129999 0.559458 0.114412C0.589535 0.0988264 0.620304 0.0847349 0.651765 0.0721369C0.683226 0.0595856 0.715228 0.0485964 0.747769 0.0391712C0.780311 0.0297461 0.813237 0.0219297 0.846546 0.0157232C0.879856 0.00951576 0.913388 0.00496483 0.947145 0.00206757C0.980901 -0.000828743 1.01472 -0.00207043 1.0486 -0.00165653C1.08247 -0.00124264 1.11625 0.000849724 1.14992 0.0046196C1.1836 0.0083437 1.21701 0.0137234 1.25015 0.0207577C1.28329 0.027792 1.31601 0.0364132 1.34831 0.0466194C1.38061 0.0568724 1.41232 0.0686884 1.44346 0.0820675C1.4746 0.0954008 1.50501 0.110251 1.53469 0.126619C1.56436 0.142941 1.59317 0.160688 1.6211 0.179861C1.64904 0.199034 1.67596 0.219539 1.70188 0.241378C1.7278 0.263171 1.75259 0.286205 1.77625 0.310482C1.7999 0.334711 1.82231 0.360067 1.84348 0.386551L7.36071 7.2831C7.39714 7.32862 7.42948 7.37687 7.45775 7.42786C7.48601 7.47885 7.50979 7.53186 7.52909 7.58689C7.54839 7.64193 7.56293 7.69818 7.57272 7.75565C7.58251 7.81312 7.5874 7.87101 7.5874 7.92931C7.5874 7.98761 7.58251 8.0455 7.57272 8.10298C7.56293 8.16046 7.54839 8.21671 7.52909 8.27173C7.50979 8.32675 7.48601 8.37976 7.45775 8.43075C7.42948 8.48175 7.39714 8.53001 7.36071 8.57554L1.84348 15.4721C1.80104 15.5251 1.75385 15.5735 1.70188 15.6173C1.64992 15.661 1.59418 15.6993 1.53468 15.732C1.47518 15.7648 1.41306 15.7914 1.34831 15.812C1.28356 15.8325 1.21743 15.8465 1.14992 15.854C1.08241 15.8615 1.01482 15.8624 0.947145 15.8565C0.879469 15.8507 0.81301 15.8384 0.747769 15.8195C0.682528 15.8006 0.619757 15.7755 0.559457 15.7442C0.499158 15.7129 0.442488 15.6761 0.389447 15.6336C0.336405 15.5912 0.288013 15.544 0.24427 15.4921C0.200528 15.4401 0.162275 15.3844 0.129511 15.3249Z"   fill="#A0A3B8" ></path></svg>