<svg xmlns="http://www.w3.org/2000/svg" xmlns:xlink="http://www.w3.org/1999/xlink" width="20" height="20" viewBox="0 0 20 20" fill="none"><path d="M2.60483 13.6649C2.66433 13.6977 2.72645 13.7243 2.7912 13.7449C2.85595 13.7654 2.92208 13.7794 2.98959 13.7869C3.0571 13.7944 3.12469 13.7953 3.19237 13.7894C3.26005 13.7836 3.3265 13.7713 3.39175 13.7524C3.45699 13.7335 3.51976 13.7084 3.58006 13.6771C3.64036 13.6458 3.69703 13.609 3.75007 13.5665L10.0004 8.5663L16.2507 13.5665C16.3037 13.609 16.3604 13.6458 16.4207 13.6771C16.481 13.7084 16.5438 13.7335 16.609 13.7524C16.6742 13.7713 16.7407 13.7836 16.8084 13.7894C16.8761 13.7953 16.9436 13.7944 17.0111 13.7869C17.0787 13.7794 17.1448 13.7654 17.2096 13.7449C17.2743 13.7243 17.3364 13.6977 17.396 13.6649C17.4555 13.6322 17.5112 13.5939 17.5631 13.5502C17.6151 13.5064 17.6623 13.458 17.7047 13.405C17.7259 13.3785 17.7457 13.3511 17.7642 13.3227C17.7827 13.2943 17.7997 13.2651 17.8153 13.235C17.8309 13.2049 17.845 13.1741 17.8576 13.1427C17.8701 13.1112 17.8811 13.0792 17.8905 13.0467C17.8999 13.0141 17.9078 12.9812 17.914 12.9479C17.9202 12.9146 17.9247 12.881 17.9276 12.8473C17.9305 12.8135 17.9318 12.7797 17.9313 12.7458C17.9309 12.712 17.9288 12.6782 17.9251 12.6445C17.9213 12.6108 17.916 12.5774 17.9089 12.5443C17.9019 12.5111 17.8933 12.4784 17.8831 12.4461C17.8728 12.4138 17.861 12.3821 17.8476 12.351C17.8343 12.3198 17.8194 12.2894 17.8031 12.2597C17.7867 12.2301 17.769 12.2013 17.7498 12.1733C17.7307 12.1454 17.7101 12.1185 17.6883 12.0926C17.6665 12.0666 17.6435 12.0418 17.6192 12.0182C17.595 11.9945 17.5696 11.9721 17.5431 11.951L10.6466 6.43372C10.6011 6.3973 10.5528 6.36495 10.5018 6.33669C10.4508 6.30842 10.3978 6.28465 10.3428 6.26535C10.2878 6.24605 10.2315 6.2315 10.174 6.22171C10.1166 6.21193 10.0587 6.20703 10.0004 6.20703C9.94208 6.20703 9.88419 6.21193 9.8267 6.22171C9.76923 6.2315 9.71298 6.24605 9.65796 6.26535C9.60294 6.28465 9.54993 6.30842 9.49893 6.33669C9.44794 6.36495 9.39967 6.3973 9.35415 6.43372L2.45759 11.951C2.40455 11.9934 2.35616 12.0406 2.31242 12.0926C2.26868 12.1445 2.23042 12.2002 2.19766 12.2598C2.16489 12.3193 2.13825 12.3814 2.11772 12.4461C2.09719 12.5109 2.08318 12.577 2.07567 12.6445C2.06817 12.712 2.06733 12.7796 2.07314 12.8473C2.07896 12.915 2.09132 12.9814 2.11022 13.0467C2.12913 13.1119 2.15421 13.1747 2.18549 13.235C2.21676 13.2953 2.25361 13.3519 2.29604 13.405C2.33847 13.458 2.38567 13.5064 2.43763 13.5502C2.4896 13.5939 2.54533 13.6322 2.60483 13.6649Z"   fill="#A0A3B8" ></path></svg>