<svg xmlns="http://www.w3.org/2000/svg" xmlns:xlink="http://www.w3.org/1999/xlink" width="16" height="16" viewBox="0 0 16 16" fill="none">
<path d="M3.33333 3.73333L3.33333 12.2667C3.33333 12.4876 3.51242 12.6667 3.73333 12.6667L12.2667 12.6667C12.4876 12.6667 12.6667 12.4876 12.6667 12.2667L12.6667 3.73333C12.6667 3.51241 12.4876 3.33333 12.2667 3.33333L3.73333 3.33333C3.51242 3.33333 3.33333 3.51241 3.33333 3.73333ZM4.13333 11.8667L4.13333 4.13333L11.8667 4.13333L11.8667 11.8667L4.13333 11.8667Z" fill-rule="evenodd"  fill="#495AD4" >
</path>
<path d="M4.93333 6.4C4.93333 6.62091 5.11242 6.8 5.33333 6.8L10.6667 6.8C10.8876 6.8 11.0667 6.62091 11.0667 6.4C11.0667 6.17909 10.8876 6 10.6667 6L5.33333 6C5.11242 6 4.93333 6.17909 4.93333 6.4Z" fill-rule="evenodd"  fill="#495AD4" >
</path>
<path d="M6.93333 4.93333C6.71242 4.93333 6.53333 5.11242 6.53333 5.33333L6.53333 7.53233C6.53333 7.75324 6.71242 7.93233 6.93333 7.93233C7.15425 7.93233 7.33333 7.75324 7.33333 7.53233L7.33333 5.33333C7.33333 5.11242 7.15425 4.93333 6.93333 4.93333Z" fill-rule="evenodd"  fill="#495AD4" >
</path>
<path d="M9.06667 8.13333C8.84575 8.13333 8.66667 8.31242 8.66667 8.53333L8.66667 10.7323C8.66667 10.9532 8.84575 11.1323 9.06667 11.1323C9.28758 11.1323 9.46667 10.9532 9.46667 10.7323L9.46667 8.53333C9.46667 8.31242 9.28758 8.13333 9.06667 8.13333Z" fill-rule="evenodd"  fill="#495AD4" >
</path>
<path d="M4.93333 9.6C4.93333 9.82091 5.11242 10 5.33333 10L10.6667 10C10.8876 10 11.0667 9.82091 11.0667 9.6C11.0667 9.37908 10.8876 9.2 10.6667 9.2L5.33333 9.2C5.11242 9.2 4.93333 9.37908 4.93333 9.6Z" fill-rule="evenodd"  fill="#495AD4" >
</path>
</svg>
