<svg xmlns="http://www.w3.org/2000/svg" xmlns:xlink="http://www.w3.org/1999/xlink" width="30" height="30" viewBox="0 0 30 30" fill="none"><g opacity="1"  transform="translate(0 0)  rotate(0)"><mask id="bg-mask-0" fill="white"><use transform="translate(0 0)  rotate(NaN)" xlink:href="#path_0"></use></mask><g mask="url(#bg-mask-0)" ><path id="矩形 2 (轮廓)" fill-rule="evenodd" style="fill:#131926" opacity="1" d="M21.25 15C21.25 15.05 21.25 15.1 21.26 15.15C21.27 15.19 21.29 15.24 21.31 15.29C21.33 15.33 21.35 15.38 21.38 15.42C21.4 15.46 21.43 15.5 21.47 15.53C21.5 15.57 21.54 15.6 21.58 15.62C21.62 15.65 21.67 15.67 21.71 15.69C21.76 15.71 21.81 15.73 21.85 15.74C21.9 15.75 21.95 15.75 22 15.75C22.05 15.75 22.1 15.75 22.15 15.74C22.19 15.73 22.24 15.71 22.29 15.69C22.33 15.67 22.38 15.65 22.42 15.62C22.46 15.6 22.5 15.57 22.53 15.53C22.57 15.5 22.6 15.46 22.62 15.42C22.65 15.38 22.67 15.33 22.69 15.29C22.71 15.24 22.73 15.19 22.74 15.15C22.75 15.1 22.75 15.05 22.75 15L22.75 7C22.75 6.95 22.75 6.9 22.74 6.85C22.73 6.81 22.71 6.76 22.69 6.71C22.67 6.67 22.65 6.62 22.62 6.58C22.6 6.54 22.57 6.5 22.53 6.47C22.5 6.43 22.46 6.4 22.42 6.38C22.38 6.35 22.33 6.33 22.29 6.31C22.24 6.29 22.19 6.27 22.15 6.26C22.1 6.25 22.05 6.25 22 6.25L8 6.25C7.95 6.25 7.9 6.25 7.85 6.26C7.81 6.27 7.76 6.29 7.71 6.31C7.67 6.33 7.62 6.35 7.58 6.38C7.54 6.4 7.5 6.43 7.47 6.47C7.43 6.5 7.4 6.54 7.38 6.58C7.35 6.62 7.33 6.67 7.31 6.71C7.29 6.76 7.27 6.81 7.26 6.85C7.25 6.9 7.25 6.95 7.25 7L7.25 23C7.25 23.05 7.25 23.1 7.26 23.15C7.27 23.19 7.29 23.24 7.31 23.29C7.33 23.33 7.35 23.38 7.38 23.42C7.4 23.46 7.43 23.5 7.47 23.53C7.5 23.57 7.54 23.6 7.58 23.62C7.62 23.65 7.67 23.67 7.71 23.69C7.76 23.71 7.81 23.73 7.85 23.74C7.9 23.75 7.95 23.75 8 23.75L14 23.75C14.05 23.75 14.1 23.75 14.15 23.74C14.19 23.73 14.24 23.71 14.29 23.69C14.33 23.67 14.38 23.65 14.42 23.62C14.46 23.6 14.5 23.57 14.53 23.53C14.57 23.5 14.6 23.46 14.62 23.42C14.65 23.38 14.67 23.33 14.69 23.29C14.71 23.24 14.73 23.19 14.74 23.15C14.75 23.1 14.75 23.05 14.75 23C14.75 22.95 14.75 22.9 14.74 22.85C14.73 22.81 14.71 22.76 14.69 22.71C14.67 22.67 14.65 22.62 14.62 22.58C14.6 22.54 14.57 22.5 14.53 22.47C14.5 22.43 14.46 22.4 14.42 22.38C14.38 22.35 14.33 22.33 14.29 22.31C14.24 22.29 14.19 22.27 14.15 22.26C14.1 22.25 14.05 22.25 14 22.25L8.75 22.25L8.75 7.75L21.25 7.75L21.25 15Z"></path><path id="直线 1 (轮廓)" fill-rule="evenodd" style="fill:#131926" opacity="1" d="M7 11.25C6.95 11.25 6.9 11.25 6.85 11.26C6.81 11.27 6.76 11.29 6.71 11.31C6.67 11.33 6.62 11.35 6.58 11.38C6.54 11.4 6.5 11.43 6.47 11.47C6.43 11.5 6.4 11.54 6.38 11.58C6.35 11.62 6.33 11.67 6.31 11.71C6.29 11.76 6.27 11.81 6.26 11.85C6.25 11.9 6.25 11.95 6.25 12C6.25 12.05 6.25 12.1 6.26 12.15C6.27 12.19 6.29 12.24 6.31 12.29C6.33 12.33 6.35 12.38 6.38 12.42C6.4 12.46 6.43 12.5 6.47 12.53C6.5 12.57 6.54 12.6 6.58 12.62C6.62 12.65 6.67 12.67 6.71 12.69C6.76 12.71 6.81 12.73 6.85 12.74C6.9 12.75 6.95 12.75 7 12.75L9 12.75C9.05 12.75 9.1 12.75 9.15 12.74C9.19 12.73 9.24 12.71 9.29 12.69C9.33 12.67 9.38 12.65 9.42 12.62C9.46 12.6 9.5 12.57 9.53 12.53C9.57 12.5 9.6 12.46 9.62 12.42C9.65 12.38 9.67 12.33 9.69 12.29C9.71 12.24 9.73 12.19 9.74 12.15C9.75 12.1 9.75 12.05 9.75 12C9.75 11.95 9.75 11.9 9.74 11.85C9.73 11.81 9.71 11.76 9.69 11.71C9.67 11.67 9.65 11.62 9.62 11.58C9.6 11.54 9.57 11.5 9.53 11.47C9.5 11.43 9.46 11.4 9.42 11.38C9.38 11.35 9.33 11.33 9.29 11.31C9.24 11.29 9.19 11.27 9.15 11.26C9.1 11.25 9.05 11.25 9 11.25L7 11.25Z"></path><path id="直线 1 (轮廓)" fill-rule="evenodd" style="fill:#131926" opacity="1" d="M12 10.25C11.95 10.25 11.9 10.25 11.85 10.26C11.81 10.27 11.76 10.29 11.71 10.31C11.67 10.33 11.62 10.35 11.58 10.38C11.54 10.4 11.5 10.43 11.47 10.47C11.43 10.5 11.4 10.54 11.38 10.58C11.35 10.62 11.33 10.67 11.31 10.71C11.29 10.76 11.27 10.81 11.26 10.85C11.25 10.9 11.25 10.95 11.25 11C11.25 11.05 11.25 11.1 11.26 11.15C11.27 11.19 11.29 11.24 11.31 11.29C11.33 11.33 11.35 11.38 11.38 11.42C11.4 11.46 11.43 11.5 11.47 11.53C11.5 11.57 11.54 11.6 11.58 11.62C11.62 11.65 11.67 11.67 11.71 11.69C11.76 11.71 11.81 11.73 11.85 11.74C11.9 11.75 11.95 11.75 12 11.75L18 11.75C18.05 11.75 18.1 11.75 18.15 11.74C18.19 11.73 18.24 11.71 18.29 11.69C18.33 11.67 18.38 11.65 18.42 11.62C18.46 11.6 18.5 11.57 18.53 11.53C18.57 11.5 18.6 11.46 18.62 11.42C18.65 11.38 18.67 11.33 18.69 11.29C18.71 11.24 18.73 11.19 18.74 11.15C18.75 11.1 18.75 11.05 18.75 11C18.75 10.95 18.75 10.9 18.74 10.85C18.73 10.81 18.71 10.76 18.69 10.71C18.67 10.67 18.65 10.62 18.62 10.58C18.6 10.54 18.57 10.5 18.53 10.47C18.5 10.43 18.46 10.4 18.42 10.38C18.38 10.35 18.33 10.33 18.29 10.31C18.24 10.29 18.19 10.27 18.15 10.26C18.1 10.25 18.05 10.25 18 10.25L12 10.25Z"></path><path id="直线 1 (轮廓)" fill-rule="evenodd" style="fill:#131926" opacity="1" d="M12 13.25C11.95 13.25 11.9 13.25 11.85 13.26C11.81 13.27 11.76 13.29 11.71 13.31C11.67 13.33 11.62 13.35 11.58 13.38C11.54 13.4 11.5 13.43 11.47 13.47C11.43 13.5 11.4 13.54 11.38 13.58C11.35 13.62 11.33 13.67 11.31 13.71C11.29 13.76 11.27 13.81 11.26 13.85C11.25 13.9 11.25 13.95 11.25 14C11.25 14.05 11.25 14.1 11.26 14.15C11.27 14.19 11.29 14.24 11.31 14.29C11.33 14.33 11.35 14.38 11.38 14.42C11.4 14.46 11.43 14.5 11.47 14.53C11.5 14.57 11.54 14.6 11.58 14.62C11.62 14.65 11.67 14.67 11.71 14.69C11.76 14.71 11.81 14.73 11.85 14.74C11.9 14.75 11.95 14.75 12 14.75L18 14.75C18.05 14.75 18.1 14.75 18.15 14.74C18.19 14.73 18.24 14.71 18.29 14.69C18.33 14.67 18.38 14.65 18.42 14.62C18.46 14.6 18.5 14.57 18.53 14.53C18.57 14.5 18.6 14.46 18.62 14.42C18.65 14.38 18.67 14.33 18.69 14.29C18.71 14.24 18.73 14.19 18.74 14.15C18.75 14.1 18.75 14.05 18.75 14C18.75 13.95 18.75 13.9 18.74 13.85C18.73 13.81 18.71 13.76 18.69 13.71C18.67 13.67 18.65 13.62 18.62 13.58C18.6 13.54 18.57 13.5 18.53 13.47C18.5 13.43 18.46 13.4 18.42 13.38C18.38 13.35 18.33 13.33 18.29 13.31C18.24 13.29 18.19 13.27 18.15 13.26C18.1 13.25 18.05 13.25 18 13.25L12 13.25Z"></path><path id="直线 1 (轮廓)" fill-rule="evenodd" style="fill:#131926" opacity="1" d="M12 16.25C11.95 16.25 11.9 16.25 11.85 16.26C11.81 16.27 11.76 16.29 11.71 16.31C11.67 16.33 11.62 16.35 11.58 16.38C11.54 16.4 11.5 16.43 11.47 16.47C11.43 16.5 11.4 16.54 11.38 16.58C11.35 16.62 11.33 16.67 11.31 16.71C11.29 16.76 11.27 16.81 11.26 16.85C11.25 16.9 11.25 16.95 11.25 17C11.25 17.05 11.25 17.1 11.26 17.15C11.27 17.19 11.29 17.24 11.31 17.29C11.33 17.33 11.35 17.38 11.38 17.42C11.4 17.46 11.43 17.5 11.47 17.53C11.5 17.57 11.54 17.6 11.58 17.62C11.62 17.65 11.67 17.67 11.71 17.69C11.76 17.71 11.81 17.73 11.85 17.74C11.9 17.75 11.95 17.75 12 17.75L15 17.75C15.05 17.75 15.1 17.75 15.15 17.74C15.19 17.73 15.24 17.71 15.29 17.69C15.33 17.67 15.38 17.65 15.42 17.62C15.46 17.6 15.5 17.57 15.53 17.53C15.57 17.5 15.6 17.46 15.62 17.42C15.65 17.38 15.67 17.33 15.69 17.29C15.71 17.24 15.73 17.19 15.74 17.15C15.75 17.1 15.75 17.05 15.75 17C15.75 16.95 15.75 16.9 15.74 16.85C15.73 16.81 15.71 16.76 15.69 16.71C15.67 16.67 15.65 16.62 15.62 16.58C15.6 16.54 15.57 16.5 15.53 16.47C15.5 16.43 15.46 16.4 15.42 16.38C15.38 16.35 15.33 16.33 15.29 16.31C15.24 16.29 15.19 16.27 15.15 16.26C15.1 16.25 15.05 16.25 15 16.25L12 16.25Z"></path><path id="直线 1 (轮廓)" fill-rule="evenodd" style="fill:#131926" opacity="1" d="M7 17.25C6.95 17.25 6.9 17.25 6.85 17.26C6.81 17.27 6.76 17.29 6.71 17.31C6.67 17.33 6.62 17.35 6.58 17.38C6.54 17.4 6.5 17.43 6.47 17.47C6.43 17.5 6.4 17.54 6.38 17.58C6.35 17.62 6.33 17.67 6.31 17.71C6.29 17.76 6.27 17.81 6.26 17.85C6.25 17.9 6.25 17.95 6.25 18C6.25 18.05 6.25 18.1 6.26 18.15C6.27 18.19 6.29 18.24 6.31 18.29C6.33 18.33 6.35 18.38 6.38 18.42C6.4 18.46 6.43 18.5 6.47 18.53C6.5 18.57 6.54 18.6 6.58 18.62C6.62 18.65 6.67 18.67 6.71 18.69C6.76 18.71 6.81 18.73 6.85 18.74C6.9 18.75 6.95 18.75 7 18.75L9 18.75C9.05 18.75 9.1 18.75 9.15 18.74C9.19 18.73 9.24 18.71 9.29 18.69C9.33 18.67 9.38 18.65 9.42 18.62C9.46 18.6 9.5 18.57 9.53 18.53C9.57 18.5 9.6 18.46 9.62 18.42C9.65 18.38 9.67 18.33 9.69 18.29C9.71 18.24 9.73 18.19 9.74 18.15C9.75 18.1 9.75 18.05 9.75 18C9.75 17.95 9.75 17.9 9.74 17.85C9.73 17.81 9.71 17.76 9.69 17.71C9.67 17.67 9.65 17.62 9.62 17.58C9.6 17.54 9.57 17.5 9.53 17.47C9.5 17.43 9.46 17.4 9.42 17.38C9.38 17.35 9.33 17.33 9.29 17.31C9.24 17.29 9.19 17.27 9.15 17.26C9.1 17.25 9.05 17.25 9 17.25L7 17.25Z"></path><g opacity="1"  transform="translate(15.9599609375 17.25)  rotate(0)"><path id="直线 2 (轮廓)" fill-rule="evenodd" style="fill:#495AD4" opacity="1" d="M1.79004 0.75C1.79004 0.7 1.79004 0.65 1.78004 0.6C1.77004 0.56 1.75004 0.51 1.73004 0.46C1.71004 0.42 1.69004 0.37 1.66004 0.33C1.64004 0.29 1.61004 0.25 1.57004 0.22C1.54004 0.18 1.50004 0.15 1.46004 0.13C1.42004 0.1 1.37004 0.08 1.33004 0.06C1.28004 0.04 1.23004 0.02 1.19004 0.01C1.14004 3.9801e-17 1.09004 4.28626e-17 1.04004 4.59243e-17C0.990039 4.89859e-17 0.940039 5.20475e-17 0.890039 0.01C0.850039 0.02 0.800039 0.04 0.750039 0.06C0.710039 0.08 0.660039 0.1 0.620039 0.13C0.580039 0.15 0.540039 0.18 0.510039 0.22C0.470039 0.25 0.440039 0.29 0.420039 0.33C0.390039 0.37 0.370039 0.42 0.350039 0.46C0.330039 0.51 0.310039 0.56 0.300039 0.6C0.290039 0.65 0.290039 0.7 0.290039 0.75L0.290039 5.75C0.290039 5.8 0.290039 5.85 0.300039 5.9C0.310039 5.94 0.330039 5.99 0.350039 6.04C0.370039 6.08 0.390039 6.13 0.420039 6.17C0.440039 6.21 0.470039 6.25 0.510039 6.28C0.540039 6.32 0.580039 6.35 0.620039 6.37C0.660039 6.4 0.710039 6.42 0.750039 6.44C0.800039 6.46 0.850039 6.48 0.890039 6.49C0.940039 6.5 0.990039 6.5 1.04004 6.5C1.09004 6.5 1.14004 6.5 1.19004 6.49C1.23004 6.48 1.28004 6.46 1.33004 6.44C1.37004 6.42 1.42004 6.4 1.46004 6.37C1.50004 6.35 1.54004 6.32 1.57004 6.28C1.61004 6.25 1.64004 6.21 1.66004 6.17C1.69004 6.13 1.71004 6.08 1.73004 6.04C1.75004 5.99 1.77004 5.94 1.78004 5.9C1.79004 5.85 1.79004 5.8 1.79004 5.75L1.79004 0.75Z"></path><path id="直线 3 (轮廓)" fill-rule="evenodd" style="fill:#495AD4" opacity="1" d="M0.624038 5.12597C0.582435 5.1537 0.540833 5.18144 0.504777 5.21749C0.477042 5.248 0.446534 5.29238 0.416025 5.33675C0.393837 5.37558 0.363329 5.41996 0.346688 5.46711C0.3245 5.50594 0.307859 5.55309 0.305085 5.60301C0.288444 5.65016 0.285671 5.70008 0.291218 5.74446C0.288444 5.79438 0.299538 5.84708 0.305085 5.89145C0.316179 5.94415 0.327273 5.99685 0.341141 6.03568C0.360555 6.08282 0.38829 6.12443 0.416025 6.16603C0.44376 6.20763 0.471495 6.24924 0.507551 6.28529C0.538059 6.31303 0.582435 6.34353 0.626811 6.37404C0.66564 6.39623 0.710016 6.42674 0.757166 6.44338C0.795995 6.46557 0.843144 6.48221 0.893067 6.48498C0.940217 6.50162 0.99014 6.5044 1.03452 6.49885C1.08444 6.50162 1.13714 6.49053 1.18151 6.48498C1.23421 6.47389 1.2869 6.46279 1.32573 6.44893C1.37288 6.42951 1.41449 6.40178 1.45609 6.37404L4.45979 4.37157C4.49307 4.34939 4.53467 4.32165 4.57073 4.2856C4.60679 4.24954 4.63729 4.20516 4.65948 4.16634C4.68999 4.12196 4.71218 4.08313 4.72882 4.03598C4.75101 3.99715 4.76765 3.95 4.77874 3.89453C4.78706 3.85293 4.78984 3.80301 4.79261 3.75308C4.79538 3.70316 4.78429 3.65046 4.77874 3.60609C4.76765 3.55339 4.74823 3.50624 4.73437 3.46741C4.71495 3.42026 4.69554 3.37311 4.6678 3.33151C4.64007 3.28991 4.60401 3.25385 4.56796 3.2178C4.53745 3.19006 4.50139 3.15401 4.45702 3.1235C4.41819 3.10131 4.37381 3.0708 4.32666 3.05416C4.27951 3.03752 4.23236 3.02088 4.19076 3.01256C4.13529 3.00147 4.08537 2.99869 4.04099 3.00424C3.99107 3.00147 3.94669 3.00701 3.894 3.01811C3.84962 3.02365 3.79692 3.03475 3.74977 3.05416C3.70262 3.07358 3.66102 3.10131 3.62774 3.1235L0.624038 5.12597Z"></path><path id="直线 4 (轮廓)" fill-rule="evenodd" style="fill:#495AD4" opacity="1" d="M4.45607 3.12596C4.41447 3.09822 4.37286 3.07049 4.32571 3.05107C4.28689 3.0372 4.23419 3.02611 4.18149 3.01502C4.13712 3.00947 4.08442 2.99837 4.0345 3.00115C3.99012 2.9956 3.9402 2.99837 3.89305 3.01502C3.84313 3.01779 3.79598 3.03443 3.75715 3.05662C3.71 3.07326 3.66562 3.10377 3.62679 3.12596C3.58242 3.15646 3.53804 3.18697 3.50753 3.21471C3.47148 3.25076 3.44374 3.29237 3.41601 3.33397C3.38827 3.37557 3.36054 3.41717 3.34112 3.46432C3.32725 3.50315 3.31616 3.55585 3.30507 3.60854C3.29952 3.65292 3.28842 3.70562 3.2912 3.75554C3.28565 3.79992 3.28842 3.84984 3.30507 3.89699C3.30784 3.94691 3.32448 3.99406 3.34667 4.03289C3.36331 4.08004 3.39382 4.12442 3.41601 4.16325C3.44651 4.20762 3.47702 4.252 3.50476 4.28251C3.54081 4.31856 3.58242 4.3463 3.62402 4.37403L6.62772 6.3765C6.661 6.39869 6.7026 6.42642 6.74975 6.44584C6.7969 6.46525 6.8496 6.47635 6.89398 6.48189C6.94667 6.49299 6.99105 6.49853 7.04097 6.49576C7.08535 6.50131 7.13527 6.49853 7.19074 6.48744C7.23234 6.47912 7.27949 6.46248 7.32664 6.44584C7.37379 6.4292 7.41817 6.39869 7.457 6.3765C7.50137 6.34599 7.53743 6.30993 7.56794 6.2822C7.60399 6.24614 7.64005 6.21009 7.66778 6.16849C7.69552 6.12688 7.71493 6.07973 7.73435 6.03258C7.74821 5.99376 7.76763 5.94661 7.77872 5.89391C7.78427 5.84953 7.79536 5.79684 7.79259 5.74691C7.78982 5.69699 7.78704 5.64707 7.77872 5.60547C7.76763 5.55 7.75099 5.50285 7.7288 5.46402C7.71216 5.41687 7.68997 5.37804 7.65946 5.33366C7.63727 5.29483 7.60677 5.25046 7.57071 5.2144C7.53466 5.17835 7.49305 5.15061 7.45977 5.12842L4.45607 3.12596Z"></path><path id="直线 5 (轮廓)" fill-rule="evenodd" style="fill:#495AD4" opacity="1" d="M6.29004 5.75C6.29004 5.8 6.29004 5.85 6.30004 5.9C6.31004 5.94 6.33004 5.99 6.35004 6.04C6.37004 6.08 6.39004 6.13 6.42004 6.17C6.44004 6.21 6.47004 6.25 6.51004 6.28C6.54004 6.32 6.58004 6.35 6.62004 6.37C6.66004 6.4 6.71004 6.42 6.75004 6.44C6.80004 6.46 6.85004 6.48 6.89004 6.49C6.94004 6.5 6.99004 6.5 7.04004 6.5C7.09004 6.5 7.14004 6.5 7.19004 6.49C7.23004 6.48 7.28004 6.46 7.33004 6.44C7.37004 6.42 7.42004 6.4 7.46004 6.37C7.50004 6.35 7.54004 6.32 7.57004 6.28C7.61004 6.25 7.64004 6.21 7.66004 6.17C7.69004 6.13 7.71004 6.08 7.73004 6.04C7.75004 5.99 7.77004 5.94 7.78004 5.9C7.79004 5.85 7.79004 5.8 7.79004 5.75L7.79004 0.75C7.79004 0.7 7.79004 0.65 7.78004 0.6C7.77004 0.56 7.75004 0.51 7.73004 0.46C7.71004 0.42 7.69004 0.37 7.66004 0.33C7.64004 0.29 7.61004 0.25 7.57004 0.22C7.54004 0.18 7.50004 0.15 7.46004 0.13C7.42004 0.0999999 7.37004 0.0799999 7.33004 0.0599999C7.28004 0.04 7.23004 0.02 7.19004 0.0100002C7.14004 0 7.09004 0 7.04004 0C6.99004 0 6.94004 0 6.89004 0.0100002C6.85004 0.02 6.80004 0.04 6.75004 0.0599999C6.71004 0.0799999 6.66004 0.0999999 6.62004 0.13C6.58004 0.15 6.54004 0.18 6.51004 0.22C6.47004 0.25 6.44004 0.29 6.42004 0.33C6.39004 0.37 6.37004 0.42 6.35004 0.46C6.33004 0.51 6.31004 0.56 6.30004 0.6C6.29004 0.65 6.29004 0.7 6.29004 0.75L6.29004 5.75Z"></path><path id="直线 6 (轮廓)" fill-rule="evenodd" style="fill:#495AD4" opacity="1" d="M1.04004 0C0.990039 0 0.940039 0 0.890039 0.01C0.850039 0.02 0.800039 0.04 0.750039 0.06C0.710039 0.08 0.660039 0.1 0.620039 0.13C0.580039 0.15 0.540039 0.18 0.510039 0.22C0.470039 0.25 0.440039 0.29 0.420039 0.33C0.390039 0.37 0.370039 0.42 0.350039 0.46C0.330039 0.51 0.310039 0.56 0.300039 0.6C0.290039 0.65 0.290039 0.7 0.290039 0.75C0.290039 0.8 0.290039 0.85 0.300039 0.9C0.310039 0.94 0.330039 0.99 0.350039 1.04C0.370039 1.08 0.390039 1.13 0.420039 1.17C0.440039 1.21 0.470039 1.25 0.510039 1.28C0.540039 1.32 0.580039 1.35 0.620039 1.37C0.660039 1.4 0.710039 1.42 0.750039 1.44C0.800039 1.46 0.850039 1.48 0.890039 1.49C0.940039 1.5 0.990039 1.5 1.04004 1.5L7.04004 1.5C7.09004 1.5 7.14004 1.5 7.19004 1.49C7.23004 1.48 7.28004 1.46 7.33004 1.44C7.37004 1.42 7.42004 1.4 7.46004 1.37C7.50004 1.35 7.54004 1.32 7.57004 1.28C7.61004 1.25 7.64004 1.21 7.66004 1.17C7.69004 1.13 7.71004 1.08 7.73004 1.04C7.75004 0.99 7.77004 0.94 7.78004 0.9C7.79004 0.85 7.79004 0.8 7.79004 0.75C7.79004 0.7 7.79004 0.65 7.78004 0.6C7.77004 0.56 7.75004 0.51 7.73004 0.46C7.71004 0.42 7.69004 0.37 7.66004 0.33C7.64004 0.29 7.61004 0.25 7.57004 0.22C7.54004 0.18 7.50004 0.15 7.46004 0.13C7.42004 0.1 7.37004 0.08 7.33004 0.06C7.28004 0.04 7.23004 0.02 7.19004 0.01C7.14004 0 7.09004 0 7.04004 0L1.04004 0Z"></path></g></g></g><defs><rect id="path_0" x="0" y="0" width="30" height="30" /></defs></svg>