<svg xmlns="http://www.w3.org/2000/svg" xmlns:xlink="http://www.w3.org/1999/xlink" width="30" height="30"
  viewBox="0 0 30 30" fill="none">
  <g opacity="1" transform="translate(0 0)  rotate(0)">
    <mask id="bg-mask-0" fill="white">
      <use transform="translate(0 0)  rotate(0)" xlink:href="#path_0"></use>
    </mask>
    <g mask="url(#bg-mask-0)">
      <g opacity="1" transform="translate(6.25 6.25)  rotate(0)">
        <path id="多边形 1 (轮廓)" fill-rule="evenodd" style="fill:#495AD4" opacity="1"
          d="M13.63,9.1l3.03,1.75c0.05,0.03 0.1,0.07 0.15,0.12c0.05,0.05 0.09,0.1 0.12,0.16c0.03,0.05 0.06,0.11 0.07,0.18c0.02,0.06 0.03,0.12 0.03,0.19v3.5c0,0.07 -0.01,0.13 -0.03,0.19c-0.01,0.07 -0.04,0.13 -0.07,0.18c-0.03,0.06 -0.07,0.11 -0.12,0.16c-0.05,0.05 -0.1,0.09 -0.15,0.12l-3.03,1.75c-0.06,0.03 -0.12,0.06 -0.19,0.07c-0.06,0.02 -0.12,0.03 -0.19,0.03c-0.07,0 -0.13,-0.01 -0.19,-0.03c-0.07,-0.01 -0.13,-0.04 -0.19,-0.07l-3.03003,-1.75c-0.05,-0.03 -0.1,-0.07 -0.15,-0.12c-0.05,-0.05 -0.09,-0.1 -0.12,-0.16c-0.03,-0.05 -0.06,-0.11 -0.07,-0.18c-0.02,-0.06 -0.03,-0.12 -0.03,-0.19v-3.5c0,-0.07 0.01,-0.13 0.03,-0.19c0.01,-0.07 0.04,-0.13 0.07,-0.18c0.03,-0.06 0.07,-0.11 0.12,-0.16c0.05,-0.05 0.1,-0.09 0.15,-0.12l3.03003,-1.75c0.06,-0.03 0.12,-0.06 0.19,-0.07c0.06,-0.02 0.12,-0.03 0.19,-0.03c0.07,0 0.13,0.01 0.19,0.03c0.07,0.01 0.13,0.04 0.19,0.07zM10.97,11.93v2.64l2.28,1.31l2.28,-1.31v-2.64l-2.28,-1.31z">
        </path>
        <path id="圆形 2" fill-rule="evenodd" style="fill:#131926" opacity="1"
          d="M13.25 12.25C12.7 12.25 12.25 12.7 12.25 13.25C12.25 13.8 12.7 14.25 13.25 14.25C13.8 14.25 14.25 13.8 14.25 13.25C14.25 12.7 13.8 12.25 13.25 12.25Z">
        </path>
        <path id="路径 1 (轮廓)" fill-rule="evenodd" style="fill:#131926" opacity="1"
          d="M9.05 1.44C9.09 1.42 9.12 1.4 9.16 1.38C9.19 1.36 9.23 1.33 9.26 1.3C9.29 1.27 9.32 1.24 9.34 1.21C9.37 1.18 9.39 1.14 9.41 1.11C9.43 1.07 9.45 1.03 9.46 0.99C9.47 0.95 9.48 0.91 9.49 0.87C9.5 0.83 9.5 0.79 9.5 0.75C9.5 0.7 9.5 0.65 9.49 0.6C9.48 0.56 9.46 0.51 9.44 0.46C9.42 0.42 9.4 0.37 9.37 0.33C9.35 0.29 9.32 0.25 9.28 0.22C9.25 0.18 9.21 0.15 9.17 0.13C9.13 0.1 9.08 0.08 9.04 0.06C8.99 0.04 8.94 0.02 8.9 0.01C8.85 0 8.8 0 8.75 0C8.69 0 8.63 0.01 8.57 0.02L0.57 2.02C0.53 2.03 0.49 2.05 0.45 2.06C0.41 2.08 0.38 2.1 0.34 2.12C0.31 2.14 0.27 2.17 0.24 2.2C0.21 2.23 0.18 2.26 0.16 2.29C0.13 2.32 0.11 2.36 0.09 2.39C0.07 2.43 0.05 2.47 0.04 2.51C0.03 2.55 0.02 2.59 0.01 2.63C0 2.67 0 2.71 0 2.75L0 11.75C0 12.5 0.24 13.28 0.73 14.08C1.16 14.8 1.78 15.5 2.57 16.19C3.34 16.86 4.23 17.47 5.24 18.03C6.27 18.6 7.36 19.08 8.51 19.46C8.59 19.49 8.67 19.5 8.75 19.5C8.8 19.5 8.85 19.5 8.9 19.49C8.94 19.48 8.99 19.46 9.04 19.44C9.08 19.42 9.13 19.4 9.17 19.37C9.21 19.35 9.25 19.32 9.28 19.28C9.32 19.25 9.35 19.21 9.37 19.17C9.4 19.13 9.42 19.08 9.44 19.04C9.46 18.99 9.48 18.94 9.49 18.9C9.5 18.85 9.5 18.8 9.5 18.75C9.5 18.71 9.5 18.67 9.49 18.63C9.48 18.59 9.48 18.56 9.46 18.52C9.45 18.48 9.44 18.45 9.42 18.41C9.4 18.38 9.38 18.34 9.36 18.31C9.34 18.28 9.31 18.25 9.28 18.22C9.26 18.19 9.23 18.17 9.19 18.15C9.16 18.12 9.13 18.1 9.09 18.08C9.06 18.07 9.02 18.05 8.99 18.04C7.92 17.68 6.91 17.24 5.96 16.72C5.05 16.21 4.24 15.66 3.55 15.06C2.88 14.47 2.37 13.89 2.01 13.3C1.67 12.74 1.5 12.22 1.5 11.75L1.5 3.34L8.93 1.48C8.97 1.47 9.01 1.45 9.05 1.44Z">
        </path>
        <path id="路径 1 (轮廓)" fill-rule="evenodd" style="fill:#131926" opacity="1"
          d="M10.3876 17.3011C10.4876 17.2511 10.5876 17.2311 10.6976 17.2311C10.7476 17.2311 10.7976 17.2311 10.8476 17.2411C10.8876 17.2511 10.9376 17.2711 10.9876 17.2911C11.0276 17.3111 11.0776 17.3311 11.1176 17.3611C11.1576 17.3811 11.1976 17.4111 11.2276 17.4511C11.2676 17.4811 11.2976 17.5211 11.3176 17.5611C11.3476 17.6011 11.3676 17.6511 11.3876 17.6911C11.4076 17.7411 11.4276 17.7911 11.4376 17.8311C11.4476 17.8811 11.4476 17.9311 11.4476 17.9811C11.4476 18.0511 11.4376 18.1211 11.4176 18.1911C11.3976 18.2611 11.3676 18.3211 11.3276 18.3911C11.2876 18.4511 11.2476 18.5011 11.1876 18.5511C11.1376 18.5911 11.0776 18.6311 11.0076 18.6611C10.7676 18.7711 10.5476 18.8711 10.3476 18.9511C9.89763 19.1411 9.44763 19.3111 8.98763 19.4611C8.90763 19.4911 8.82763 19.5011 8.74763 19.5011C8.69763 19.5011 8.64763 19.4911 8.60763 19.4811C8.55763 19.4711 8.50763 19.4611 8.46763 19.4411C8.41763 19.4211 8.37763 19.4011 8.33763 19.3711C8.28763 19.3511 8.25763 19.3111 8.21763 19.2811C8.18763 19.2411 8.15763 19.2111 8.12763 19.1711C8.09763 19.1211 8.07763 19.0811 8.05763 19.0411C8.03763 18.9911 8.02763 18.9411 8.01763 18.9011C8.00763 18.8511 7.99763 18.8011 7.99763 18.7511C7.99763 18.7111 8.00763 18.6711 8.00763 18.6311C8.01763 18.5911 8.02763 18.5511 8.03763 18.5211C8.04763 18.4811 8.06763 18.4411 8.07763 18.4111C8.09763 18.3711 8.11763 18.3411 8.14763 18.3111C8.16763 18.2811 8.18763 18.2511 8.21763 18.2211C8.24763 18.1911 8.27763 18.1711 8.30763 18.1411C8.33763 18.1211 8.37763 18.1011 8.40763 18.0811C8.44763 18.0611 8.47763 18.0511 8.51763 18.0411C8.93763 17.9011 9.35763 17.7411 9.76763 17.5711C9.95763 17.4911 10.1676 17.4011 10.3876 17.3011Z">
        </path>
        <path id="路径 1 (轮廓)" fill-rule="evenodd" style="fill:#131926" opacity="1"
          d="M8.45 1.44C8.41 1.42 8.38 1.4 8.34 1.38C8.31 1.36 8.27 1.33 8.24 1.3C8.21 1.27 8.18 1.24 8.16 1.21C8.13 1.18 8.11 1.14 8.09 1.11C8.07 1.07 8.05 1.03 8.04 0.99C8.03 0.95 8.02 0.91 8.01 0.87C8 0.83 8 0.79 8 0.75C8 0.7 8 0.65 8.01 0.6C8.02 0.56 8.04 0.51 8.06 0.46C8.08 0.42 8.1 0.37 8.13 0.33C8.15 0.29 8.18 0.25 8.22 0.22C8.25 0.18 8.29 0.15 8.33 0.13C8.37 0.1 8.42 0.08 8.46 0.06C8.51 0.04 8.56 0.02 8.6 0.01C8.65 0 8.7 0 8.75 0C8.81 0 8.87 0.01 8.93 0.02L16.93 2.02C16.97 2.03 17.01 2.05 17.05 2.06C17.09 2.08 17.12 2.1 17.16 2.12C17.19 2.14 17.23 2.17 17.26 2.2C17.29 2.23 17.32 2.26 17.34 2.29C17.37 2.32 17.39 2.36 17.41 2.39C17.43 2.43 17.45 2.47 17.46 2.51C17.47 2.55 17.48 2.59 17.49 2.63C17.5 2.67 17.5 2.71 17.5 2.75L17.5 8.75C17.5 8.8 17.5 8.85 17.49 8.9C17.48 8.94 17.46 8.99 17.44 9.04C17.42 9.08 17.4 9.13 17.37 9.17C17.35 9.21 17.32 9.25 17.28 9.28C17.25 9.32 17.21 9.35 17.17 9.37C17.13 9.4 17.08 9.42 17.04 9.44C16.99 9.46 16.94 9.48 16.9 9.49C16.85 9.5 16.8 9.5 16.75 9.5C16.7 9.5 16.65 9.5 16.6 9.49C16.56 9.48 16.51 9.46 16.46 9.44C16.42 9.42 16.37 9.4 16.33 9.37C16.29 9.35 16.25 9.32 16.22 9.28C16.18 9.25 16.15 9.21 16.13 9.17C16.1 9.13 16.08 9.08 16.06 9.04C16.04 8.99 16.02 8.94 16.01 8.9C16 8.85 16 8.8 16 8.75L16 3.34L8.57 1.48C8.53 1.47 8.49 1.45 8.45 1.44Z">
        </path>
        <path id="直线 1 (轮廓)" fill-rule="evenodd" style="fill:#131926" opacity="1"
          d="M5.28033 6.21966C5.24497 6.18431 5.20962 6.14895 5.16719 6.12067C5.13184 6.09945 5.08234 6.07824 5.03284 6.05703C4.99042 6.04288 4.94092 6.02167 4.89142 6.0146C4.84899 6.00046 4.7995 5.99339 4.75 6.00046C4.7005 5.99339 4.65101 6.00046 4.60858 6.0146C4.55908 6.02167 4.50958 6.04288 4.46716 6.05703C4.41766 6.07824 4.36816 6.09945 4.33281 6.12067C4.29038 6.14895 4.25503 6.18431 4.21967 6.21966C4.18431 6.25502 4.14896 6.29037 4.12068 6.3328C4.09946 6.36815 4.07825 6.41765 4.05704 6.46715C4.04289 6.50957 4.02168 6.55907 4.01461 6.60857C4.00047 6.651 3.9934 6.70049 4.00047 6.74999C3.9934 6.79949 4.00047 6.84899 4.01461 6.89141C4.02168 6.94091 4.04289 6.99041 4.05704 7.03283C4.07825 7.08233 4.09946 7.13183 4.12068 7.16718C4.14896 7.20961 4.18431 7.24497 4.21967 7.28032L7.2178 10.2785C7.25316 10.3138 7.28851 10.3492 7.33094 10.3774C7.37337 10.4057 7.41579 10.4199 7.46529 10.4411C7.51479 10.4623 7.55721 10.4764 7.60671 10.4835C7.64914 10.4977 7.69864 10.5047 7.74813 10.4977C7.79763 10.5047 7.84713 10.4977 7.89663 10.4906C7.93905 10.4764 7.99562 10.4623 8.03805 10.4482C8.08047 10.4199 8.12997 10.3987 8.16533 10.3774C8.20775 10.3492 8.24311 10.3138 8.27846 10.2785C8.31382 10.2431 8.34917 10.2077 8.37746 10.1653C8.39867 10.13 8.41988 10.0805 8.44817 10.038C8.46231 9.99561 8.47645 9.93904 8.49059 9.89662C8.49767 9.84712 8.50474 9.79762 8.49767 9.74812C8.50474 9.69863 8.49767 9.64913 8.48352 9.6067C8.47645 9.55721 8.46231 9.51478 8.4411 9.46528C8.41988 9.41578 8.40574 9.37336 8.37746 9.33093C8.34917 9.2885 8.31382 9.25315 8.27846 9.21779L5.28033 6.21966Z">
        </path>
        <path id="直线 2 (轮廓)" fill-rule="evenodd" style="fill:#131926" opacity="1"
          d="M7.21966 9.21967C7.18431 9.25502 7.14895 9.29038 7.12067 9.33281C7.09945 9.36816 7.07824 9.41766 7.05703 9.46716C7.04288 9.50958 7.02167 9.55908 7.0146 9.60858C7.00046 9.651 6.99339 9.7005 7.00046 9.75C6.99339 9.7995 7.00046 9.849 7.0146 9.89142C7.02167 9.94092 7.04288 9.99042 7.05703 10.0328C7.07824 10.0823 7.09945 10.1318 7.12067 10.1672C7.14895 10.2096 7.18431 10.245 7.21966 10.2803C7.25502 10.3157 7.29037 10.351 7.3328 10.3793C7.36815 10.4005 7.41765 10.4218 7.46715 10.443C7.50957 10.4571 7.55907 10.4783 7.60857 10.4854C7.651 10.4995 7.70049 10.5066 7.74999 10.4995C7.79949 10.5066 7.84899 10.4995 7.89141 10.4854C7.94091 10.4783 7.99041 10.4571 8.03283 10.443C8.08233 10.4218 8.13183 10.4005 8.16718 10.3793C8.20961 10.351 8.24497 10.3157 8.28032 10.2803L13.2796 5.28109C13.3149 5.24573 13.3503 5.21037 13.3786 5.16795C13.4068 5.12552 13.421 5.0831 13.4422 5.0336C13.4563 4.99117 13.4776 4.94167 13.4846 4.89218C13.4988 4.84975 13.5058 4.80025 13.4988 4.75075C13.5058 4.70126 13.4988 4.65176 13.4846 4.60933C13.4776 4.55984 13.4634 4.50327 13.4422 4.46791C13.421 4.41842 13.3998 4.36892 13.3786 4.33356C13.3503 4.29114 13.3149 4.25578 13.2796 4.22043C13.2442 4.18507 13.2089 4.14971 13.1664 4.12143C13.1311 4.10022 13.0816 4.079 13.0321 4.05779C12.9967 4.03658 12.9402 4.02244 12.8907 4.01536C12.8482 4.00122 12.7987 3.99415 12.7492 4.00122C12.6997 3.99415 12.6502 4.00122 12.6078 4.01536C12.5583 4.02244 12.5088 4.04365 12.4664 4.05779C12.4169 4.079 12.3745 4.09315 12.332 4.12143C12.2896 4.14971 12.2543 4.18507 12.2189 4.22043L7.21966 9.21967Z">
        </path>
      </g>
    </g>
  </g>
  <defs>
    <rect id="path_0" x="0" y="0" width="30" height="30" />
  </defs>
</svg>