<svg xmlns="http://www.w3.org/2000/svg" xmlns:xlink="http://www.w3.org/1999/xlink" width="30" height="30" viewBox="0 0 30 30" fill="none"><g opacity="1"  transform="translate(0 0)  rotate(0)"><mask id="bg-mask-0" fill="white"><use xlink:href="#path_0"></use></mask><g mask="url(#bg-mask-0)" ><path id="圆形 1 (轮廓)" fill-rule="evenodd" style="fill:#131926" opacity="1" d="M16.46,9.54c0.45,0.19 0.85,0.46 1.19,0.81c0.35,0.34 0.62,0.74 0.81,1.19c0.19,0.46 0.29,0.95 0.29,1.46c0,0.51 -0.1,1 -0.29,1.46c-0.19,0.45 -0.46,0.85 -0.81,1.19c-0.34,0.35 -0.74,0.62 -1.19,0.81c-0.46,0.19 -0.95,0.29 -1.46,0.29c-0.51,0 -1,-0.1 -1.46,-0.29c-0.45,-0.19 -0.85,-0.46 -1.19,-0.81c-0.35,-0.34 -0.62,-0.74 -0.81,-1.19c-0.19,-0.46 -0.29,-0.95 -0.29,-1.46c0,-0.51 0.1,-1 0.29,-1.46c0.19,-0.45 0.46,-0.85 0.81,-1.19c0.34,-0.35 0.74,-0.62 1.19,-0.81c0.46,-0.19 0.95,-0.29 1.46,-0.29c0.51,0 1,0.1 1.46,0.29zM13.41,11.41c-0.21,0.21 -0.37,0.44 -0.48,0.71c-0.12,0.28 -0.18,0.57 -0.18,0.88c0,0.31 0.06,0.6 0.18,0.88c0.11,0.27 0.27,0.5 0.48,0.71c0.21,0.21 0.44,0.37 0.71,0.48c0.28,0.12 0.57,0.18 0.88,0.18c0.31,0 0.6,-0.06 0.88,-0.18c0.27,-0.11 0.5,-0.27 0.71,-0.48c0.21,-0.21 0.37,-0.44 0.48,-0.71c0.12,-0.28 0.18,-0.57 0.18,-0.88c0,-0.31 -0.06,-0.6 -0.18,-0.88c-0.11,-0.27 -0.27,-0.5 -0.48,-0.71c-0.21,-0.21 -0.44,-0.37 -0.71,-0.48c-0.28,-0.12 -0.57,-0.18 -0.88,-0.18c-0.31,0 -0.6,0.06 -0.88,0.18c-0.27,0.11 -0.5,0.27 -0.71,0.48z"></path><path id="圆形 1 (轮廓)" fill-rule="evenodd" style="fill:#131926" opacity="1" d="M24.71 15.96C24.74 15.67 24.75 15.35 24.75 15C24.75 13.68 24.49 12.41 23.98 11.2C23.49 10.04 22.79 9.01 21.89 8.11C20.99 7.21 19.96 6.51 18.8 6.02C17.59 5.51 16.32 5.25 15 5.25C13.68 5.25 12.41 5.51 11.2 6.02C10.04 6.51 9.01 7.21 8.11 8.11C7.21 9.01 6.51 10.04 6.02 11.2C5.51 12.41 5.25 13.68 5.25 15C5.25 16.32 5.51 17.59 6.02 18.8C6.51 19.96 7.21 20.99 8.11 21.89C9.01 22.79 10.04 23.49 11.2 23.98C12.41 24.49 13.68 24.75 15 24.75C15.35 24.75 15.67 24.74 15.96 24.71L15.96 24.7C16 24.7 16.05 24.69 16.09 24.68C16.14 24.66 16.18 24.65 16.22 24.63C16.26 24.61 16.3 24.58 16.34 24.55C16.37 24.53 16.41 24.49 16.44 24.46C16.47 24.43 16.5 24.39 16.52 24.35C16.55 24.31 16.57 24.27 16.58 24.23C16.6 24.18 16.61 24.14 16.62 24.09C16.63 24.05 16.63 24 16.63 23.96C16.63 23.91 16.63 23.86 16.62 23.81C16.61 23.76 16.59 23.72 16.58 23.67C16.56 23.62 16.53 23.58 16.51 23.54C16.48 23.5 16.45 23.46 16.41 23.43C16.38 23.39 16.34 23.36 16.3 23.33C16.26 23.31 16.21 23.28 16.17 23.26C16.12 23.25 16.08 23.23 16.03 23.22C15.98 23.21 15.93 23.21 15.88 23.21C15.84 23.21 15.79 23.21 15.75 23.22C15.53 23.24 15.28 23.25 15 23.25C13.88 23.25 12.81 23.03 11.79 22.6C10.8 22.18 9.93 21.59 9.17 20.83C8.41 20.07 7.82 19.2 7.4 18.21C6.97 17.19 6.75 16.12 6.75 15C6.75 13.88 6.97 12.81 7.4 11.79C7.82 10.8 8.41 9.93 9.17 9.17C9.93 8.41 10.8 7.82 11.79 7.4C12.81 6.97 13.88 6.75 15 6.75C16.12 6.75 17.19 6.97 18.21 7.4C19.2 7.82 20.07 8.41 20.83 9.17C21.59 9.93 22.18 10.8 22.6 11.79C23.03 12.81 23.25 13.88 23.25 15C23.25 15.28 23.24 15.53 23.22 15.75C23.21 15.79 23.21 15.84 23.21 15.88C23.21 15.93 23.21 15.98 23.22 16.03C23.23 16.08 23.25 16.12 23.26 16.17C23.28 16.21 23.31 16.26 23.33 16.3C23.36 16.34 23.39 16.38 23.43 16.41C23.46 16.45 23.5 16.48 23.54 16.51C23.58 16.53 23.62 16.56 23.67 16.58C23.72 16.59 23.76 16.61 23.81 16.62C23.86 16.63 23.91 16.63 23.96 16.63C24 16.63 24.05 16.63 24.09 16.62C24.14 16.61 24.18 16.6 24.23 16.58C24.27 16.57 24.31 16.55 24.35 16.52C24.39 16.5 24.43 16.47 24.46 16.44C24.49 16.41 24.53 16.37 24.55 16.34C24.58 16.3 24.61 16.26 24.63 16.22C24.65 16.18 24.66 16.14 24.68 16.09C24.69 16.05 24.7 16 24.7 15.96L24.71 15.96Z"></path><path id="圆形 1 (轮廓)" fill-rule="evenodd" style="fill:#131926" opacity="1" d="M16.77 17.27C16.83 17.32 16.9 17.36 16.98 17.38C17.06 17.41 17.14 17.42 17.22 17.42C17.27 17.42 17.32 17.42 17.37 17.41C17.42 17.4 17.46 17.39 17.51 17.37C17.55 17.35 17.6 17.32 17.64 17.3C17.68 17.27 17.72 17.24 17.75 17.2C17.79 17.17 17.82 17.13 17.85 17.09C17.87 17.05 17.9 17.01 17.92 16.96C17.93 16.92 17.95 16.87 17.96 16.82C17.97 16.77 17.97 16.72 17.97 16.67C17.97 16.61 17.96 16.55 17.95 16.49C17.93 16.43 17.91 16.37 17.88 16.32C17.85 16.26 17.82 16.21 17.78 16.17C17.73 16.12 17.69 16.08 17.64 16.05L17.64 16.05C17.38 15.87 17.1 15.73 16.82 15.61C16.23 15.37 15.62 15.25 15 15.25C14.36 15.25 13.74 15.37 13.15 15.62C12.58 15.86 12.08 16.2 11.64 16.64C11.2 17.08 10.86 17.58 10.62 18.15C10.37 18.74 10.25 19.36 10.25 20C10.25 20.05 10.25 20.1 10.26 20.15C10.27 20.19 10.29 20.24 10.31 20.29C10.33 20.33 10.35 20.38 10.38 20.42C10.4 20.46 10.43 20.5 10.47 20.53C10.5 20.57 10.54 20.6 10.58 20.62C10.62 20.65 10.67 20.67 10.71 20.69C10.76 20.71 10.81 20.73 10.85 20.74C10.9 20.75 10.95 20.75 11 20.75C11.05 20.75 11.1 20.75 11.15 20.74C11.19 20.73 11.24 20.71 11.29 20.69C11.33 20.67 11.38 20.65 11.42 20.62C11.46 20.6 11.5 20.57 11.53 20.53C11.57 20.5 11.6 20.46 11.62 20.42C11.65 20.38 11.67 20.33 11.69 20.29C11.71 20.24 11.73 20.19 11.74 20.15C11.75 20.1 11.75 20.05 11.75 20C11.75 19.56 11.84 19.14 12.01 18.73C12.17 18.35 12.4 18 12.7 17.7C13 17.4 13.35 17.17 13.73 17.01C14.14 16.84 14.56 16.75 15 16.75C15.43 16.75 15.84 16.83 16.24 16.99C16.42 17.07 16.6 17.16 16.77 17.27Z"></path><g opacity="1"  transform="translate(16.719970703125 16.25)  rotate(0)"><path id="多边形 1 (轮廓)" fill-rule="evenodd" style="fill:#495AD4" opacity="1" d="M4.16,0.1l3.03,1.75c0.05,0.03 0.1,0.07 0.15,0.12c0.05,0.05 0.09,0.1 0.12,0.16c0.03,0.05 0.06,0.11 0.07,0.18c0.02,0.06 0.03,0.12 0.03,0.19v3.5c0,0.07 -0.01,0.13 -0.03,0.19c-0.01,0.07 -0.04,0.13 -0.07,0.18c-0.03,0.06 -0.07,0.11 -0.12,0.16c-0.05,0.05 -0.1,0.09 -0.15,0.12l-3.03,1.75c-0.06,0.03 -0.12,0.06 -0.19,0.07c-0.06,0.02 -0.12,0.03 -0.19,0.03c-0.07,0 -0.13,-0.01 -0.19,-0.03c-0.07,-0.01 -0.13,-0.04 -0.19,-0.07l-3.03,-1.75c-0.05,-0.03 -0.1,-0.07 -0.15,-0.12c-0.05,-0.05 -0.09,-0.1 -0.12,-0.16c-0.03,-0.05 -0.06,-0.11 -0.07,-0.18c-0.02,-0.06 -0.03,-0.12 -0.03,-0.19v-3.5c0,-0.07 0.01,-0.13 0.03,-0.19c0.01,-0.07 0.04,-0.13 0.07,-0.18c0.03,-0.06 0.07,-0.11 0.12,-0.16c0.05,-0.05 0.1,-0.09 0.15,-0.12l3.03,-1.75c0.06,-0.03 0.12,-0.06 0.19,-0.07c0.06,-0.02 0.12,-0.03 0.19,-0.03c0.07,0 0.13,0.01 0.19,0.03c0.07,0.01 0.13,0.04 0.19,0.07zM1.5,2.93v2.64l2.28,1.31l2.28,-1.31v-2.64l-2.28,-1.31z"></path><path id="圆形 2" fill-rule="evenodd" style="fill:#131926" opacity="1" d="M3.78003 3.25C3.23003 3.25 2.78003 3.7 2.78003 4.25C2.78003 4.8 3.23003 5.25 3.78003 5.25C4.33003 5.25 4.78003 4.8 4.78003 4.25C4.78003 3.7 4.33003 3.25 3.78003 3.25Z"></path></g></g></g><defs><rect id="path_0" x="0" y="0" width="30" height="30" /></defs></svg>