<svg xmlns="http://www.w3.org/2000/svg" xmlns:xlink="http://www.w3.org/1999/xlink" width="30" height="30"
  viewBox="0 0 30 30" fill="none">
  <g opacity="1" transform="translate(0 0)  rotate(0)">
    <mask id="bg-mask-0" fill="white">
      <use transform="translate(0 0)  rotate(0)" xlink:href="#path_0"></use>
    </mask>
    <g mask="url(#bg-mask-0)">
      <path id="圆形 1 (轮廓)" fill-rule="evenodd" style="fill:#131926" opacity="1"
        d="M17.05,6.66c0.62,0.27 1.18,0.64 1.66,1.13c0.49,0.48 0.86,1.04 1.13,1.66c0.27,0.66 0.41,1.34 0.41,2.05c0,0.71 -0.14,1.39 -0.41,2.05c-0.27,0.62 -0.64,1.18 -1.13,1.66c-0.48,0.49 -1.04,0.86 -1.66,1.13c-0.66,0.27 -1.34,0.41 -2.05,0.41c-0.71,0 -1.39,-0.14 -2.05,-0.41c-0.62,-0.27 -1.18,-0.64 -1.66,-1.13c-0.49,-0.48 -0.86,-1.04 -1.13,-1.66c-0.27,-0.66 -0.41,-1.34 -0.41,-2.05c0,-0.71 0.14,-1.39 0.41,-2.05c0.27,-0.62 0.64,-1.18 1.13,-1.66c0.48,-0.49 1.04,-0.86 1.66,-1.13c0.66,-0.27 1.34,-0.41 2.05,-0.41c0.71,0 1.39,0.14 2.05,0.41zM12.35,8.85c-0.35,0.34 -0.62,0.74 -0.81,1.19c-0.19,0.46 -0.29,0.95 -0.29,1.46c0,0.51 0.1,1 0.29,1.46c0.19,0.45 0.46,0.85 0.81,1.19c0.34,0.35 0.74,0.62 1.19,0.81c0.46,0.19 0.95,0.29 1.46,0.29c0.51,0 1,-0.1 1.46,-0.29c0.45,-0.19 0.85,-0.46 1.19,-0.81c0.35,-0.34 0.62,-0.74 0.81,-1.19c0.19,-0.46 0.29,-0.95 0.29,-1.46c0,-0.51 -0.1,-1 -0.29,-1.46c-0.19,-0.45 -0.46,-0.85 -0.81,-1.19c-0.34,-0.35 -0.74,-0.62 -1.19,-0.81c-0.46,-0.19 -0.95,-0.29 -1.46,-0.29c-0.51,0 -1,0.1 -1.46,0.29c-0.45,0.19 -0.85,0.46 -1.19,0.81z">
      </path>
      <path id="圆形 1 (轮廓)" fill-rule="evenodd" style="fill:#131926" opacity="1"
        d="M16.8 17.01L16.8 17.01C16.88 17.04 16.95 17.05 17.03 17.05C17.08 17.05 17.13 17.04 17.18 17.04C17.23 17.03 17.27 17.01 17.32 16.99C17.37 16.97 17.41 16.95 17.45 16.92C17.49 16.9 17.53 16.86 17.56 16.83C17.6 16.8 17.63 16.76 17.66 16.72C17.68 16.68 17.71 16.63 17.73 16.59C17.74 16.54 17.76 16.49 17.77 16.45C17.78 16.4 17.78 16.35 17.78 16.3C17.78 16.26 17.78 16.22 17.77 16.18C17.77 16.14 17.76 16.1 17.74 16.06C17.73 16.02 17.71 15.98 17.69 15.94C17.67 15.91 17.65 15.87 17.62 15.84C17.6 15.81 17.57 15.78 17.54 15.75C17.51 15.72 17.48 15.69 17.44 15.67C17.41 15.65 17.37 15.63 17.33 15.61C17.3 15.6 17.26 15.58 17.22 15.57C17.05 15.52 16.83 15.46 16.54 15.4C16.52 15.4 16.51 15.39 16.5 15.39C15.97 15.3 15.47 15.25 15 15.25C13.95 15.25 12.94 15.45 11.98 15.86C11.05 16.25 10.23 16.8 9.52 17.52C8.8 18.23 8.25 19.05 7.86 19.98C7.45 20.94 7.25 21.95 7.25 23C7.25 23.05 7.25 23.1 7.26 23.15C7.27 23.19 7.29 23.24 7.31 23.29C7.33 23.33 7.35 23.38 7.38 23.42C7.4 23.46 7.43 23.5 7.47 23.53C7.5 23.57 7.54 23.6 7.58 23.62C7.62 23.65 7.67 23.67 7.71 23.69C7.76 23.71 7.81 23.73 7.85 23.74C7.9 23.75 7.95 23.75 8 23.75C8.05 23.75 8.1 23.75 8.15 23.74C8.19 23.73 8.24 23.71 8.29 23.69C8.33 23.67 8.38 23.65 8.42 23.62C8.46 23.6 8.5 23.57 8.53 23.53C8.57 23.5 8.6 23.46 8.62 23.42C8.65 23.38 8.67 23.33 8.69 23.29C8.71 23.24 8.73 23.19 8.74 23.15C8.75 23.1 8.75 23.05 8.75 23C8.75 22.15 8.91 21.34 9.24 20.57C9.56 19.82 10 19.16 10.58 18.58C11.16 18 11.82 17.56 12.57 17.24C13.34 16.91 14.15 16.75 15 16.75C15.38 16.75 15.78 16.79 16.22 16.87C16.49 16.93 16.68 16.98 16.8 17.01Z">
      </path>
      <g opacity="1" transform="translate(15.719970703125 16.25)  rotate(0)">
        <path id="多边形 1 (轮廓)" fill-rule="evenodd" style="fill:#495AD4" opacity="1"
          d="M4.16,0.1l3.03,1.75c0.05,0.03 0.1,0.07 0.15,0.12c0.05,0.05 0.09,0.1 0.12,0.16c0.03,0.05 0.06,0.11 0.07,0.18c0.02,0.06 0.03,0.12 0.03,0.19v3.5c0,0.07 -0.01,0.13 -0.03,0.19c-0.01,0.07 -0.04,0.13 -0.07,0.18c-0.03,0.06 -0.07,0.11 -0.12,0.16c-0.05,0.05 -0.1,0.09 -0.15,0.12l-3.03,1.75c-0.06,0.03 -0.12,0.06 -0.19,0.07c-0.06,0.02 -0.12,0.03 -0.19,0.03c-0.07,0 -0.13,-0.01 -0.19,-0.03c-0.07,-0.01 -0.13,-0.04 -0.19,-0.07l-3.03,-1.75c-0.05,-0.03 -0.1,-0.07 -0.15,-0.12c-0.05,-0.05 -0.09,-0.1 -0.12,-0.16c-0.03,-0.05 -0.06,-0.11 -0.07,-0.18c-0.02,-0.06 -0.03,-0.12 -0.03,-0.19v-3.5c0,-0.07 0.01,-0.13 0.03,-0.19c0.01,-0.07 0.04,-0.13 0.07,-0.18c0.03,-0.06 0.07,-0.11 0.12,-0.16c0.05,-0.05 0.1,-0.09 0.15,-0.12l3.03,-1.75c0.06,-0.03 0.12,-0.06 0.19,-0.07c0.06,-0.02 0.12,-0.03 0.19,-0.03c0.07,0 0.13,0.01 0.19,0.03c0.07,0.01 0.13,0.04 0.19,0.07zM1.5,2.93v2.64l2.28,1.31l2.28,-1.31v-2.64l-2.28,-1.31z">
        </path>
        <path id="圆形 2" fill-rule="evenodd" style="fill:#131926" opacity="1"
          d="M3.78003 3.25C3.23003 3.25 2.78003 3.7 2.78003 4.25C2.78003 4.8 3.23003 5.25 3.78003 5.25C4.33003 5.25 4.78003 4.8 4.78003 4.25C4.78003 3.7 4.33003 3.25 3.78003 3.25Z">
        </path>
      </g>
    </g>
  </g>
  <defs>
    <rect id="path_0" x="0" y="0" width="30" height="30" />
  </defs>
</svg>