<svg xmlns="http://www.w3.org/2000/svg" xmlns:xlink="http://www.w3.org/1999/xlink" width="24" height="24"
  viewBox="0 0 24 24" fill="none">
  <g opacity="1" transform="translate(0 0)  rotate(0)">
    <mask id="bg-mask-0" fill="white">
      <use transform="translate(0 0)  rotate(0)" xlink:href="#path_0"></use>
    </mask>
    <g mask="url(#bg-mask-0)">
      <g opacity="1" transform="translate(5 5)  rotate(0)">
        <path id="矩形 2 (轮廓)" fill-rule="evenodd" style="fill:#A0A3B8" opacity="1"
          d="M0,13.4v-12.8c0,-0.04 0,-0.08 0.01,-0.12c0.01,-0.04 0.02,-0.07 0.04,-0.11c0.01,-0.04 0.03,-0.07 0.05,-0.1c0.02,-0.04 0.05,-0.07 0.08,-0.09c0.02,-0.03 0.05,-0.06 0.09,-0.08c0.03,-0.02 0.06,-0.04 0.1,-0.05c0.04,-0.02 0.07,-0.03 0.11,-0.04c0.04,-0.01 0.08,-0.01 0.12,-0.01h12.8c0.04,0 0.08,0 0.12,0.01c0.04,0.01 0.07,0.02 0.11,0.04c0.04,0.01 0.07,0.03 0.1,0.05c0.04,0.02 0.07,0.05 0.09,0.08c0.03,0.02 0.06,0.05 0.08,0.09c0.02,0.03 0.04,0.06 0.05,0.1c0.02,0.04 0.03,0.07 0.04,0.11c0.01,0.04 0.01,0.08 0.01,0.12v12.8c0,0.04 0,0.08 -0.01,0.12c-0.01,0.04 -0.02,0.07 -0.04,0.11c-0.01,0.04 -0.03,0.07 -0.05,0.1c-0.02,0.04 -0.05,0.07 -0.08,0.09c-0.02,0.03 -0.05,0.06 -0.09,0.08c-0.03,0.02 -0.06,0.04 -0.1,0.05c-0.04,0.02 -0.07,0.03 -0.11,0.04c-0.04,0.01 -0.08,0.01 -0.12,0.01h-12.8c-0.04,0 -0.08,0 -0.12,-0.01c-0.04,-0.01 -0.07,-0.02 -0.11,-0.04c-0.04,-0.01 -0.07,-0.03 -0.1,-0.05c-0.04,-0.02 -0.07,-0.05 -0.09,-0.08c-0.03,-0.02 -0.06,-0.05 -0.08,-0.09c-0.02,-0.03 -0.04,-0.06 -0.05,-0.1c-0.02,-0.04 -0.03,-0.07 -0.04,-0.11c-0.01,-0.04 -0.01,-0.08 -0.01,-0.12zM1.2,1.2v11.6h11.6v-11.6z">
        </path>
        <path id="直线 2 (轮廓)" fill-rule="evenodd" style="fill:#A0A3B8" opacity="1"
          d="M4.40039 7.00002C4.40039 6.96002 4.40039 6.92002 4.39039 6.88002C4.38039 6.84002 4.37039 6.81002 4.35039 6.77002C4.34039 6.73002 4.32039 6.70002 4.30039 6.67002C4.28039 6.63002 4.25039 6.60002 4.22039 6.58002C4.20039 6.55002 4.17039 6.52002 4.13039 6.50002C4.10039 6.48002 4.07039 6.46002 4.03039 6.45002C3.99039 6.43002 3.96039 6.42002 3.92039 6.41002C3.88039 6.40002 3.84039 6.40002 3.80039 6.40002C3.76039 6.40002 3.72039 6.40002 3.68039 6.41002C3.64039 6.42002 3.61039 6.43002 3.57039 6.45002C3.53039 6.46002 3.50039 6.48002 3.47039 6.50002C3.43039 6.52002 3.40039 6.55002 3.38039 6.58002C3.35039 6.60002 3.32039 6.63002 3.30039 6.67002C3.28039 6.70002 3.26039 6.73002 3.25039 6.77002C3.23039 6.81002 3.22039 6.84002 3.21039 6.88002C3.20039 6.92002 3.20039 6.96002 3.20039 7.00002L3.20039 11C3.20039 11.04 3.20039 11.08 3.21039 11.12C3.22039 11.16 3.23039 11.19 3.25039 11.23C3.26039 11.27 3.28039 11.3 3.30039 11.33C3.32039 11.37 3.35039 11.4 3.38039 11.42C3.40039 11.45 3.43039 11.48 3.47039 11.5C3.50039 11.52 3.53039 11.54 3.57039 11.55C3.61039 11.57 3.64039 11.58 3.68039 11.59C3.72039 11.6 3.76039 11.6 3.80039 11.6C3.84039 11.6 3.88039 11.6 3.92039 11.59C3.96039 11.58 3.99039 11.57 4.03039 11.55C4.07039 11.54 4.10039 11.52 4.13039 11.5C4.17039 11.48 4.20039 11.45 4.22039 11.42C4.25039 11.4 4.28039 11.37 4.30039 11.33C4.32039 11.3 4.34039 11.27 4.35039 11.23C4.37039 11.19 4.38039 11.16 4.39039 11.12C4.40039 11.08 4.40039 11.04 4.40039 11L4.40039 7.00002Z">
        </path>
        <path id="直线 3 (轮廓)" fill-rule="evenodd" style="fill:#A0A3B8" opacity="1"
          d="M6.40039 11C6.40039 11.04 6.40039 11.08 6.41039 11.12C6.42039 11.16 6.43039 11.19 6.45039 11.23C6.46039 11.27 6.48039 11.3 6.50039 11.33C6.52039 11.37 6.55039 11.4 6.58039 11.42C6.60039 11.45 6.63039 11.48 6.67039 11.5C6.70039 11.52 6.73039 11.54 6.77039 11.55C6.81039 11.57 6.84039 11.58 6.88039 11.59C6.92039 11.6 6.96039 11.6 7.00039 11.6C7.04039 11.6 7.08039 11.6 7.12039 11.59C7.16039 11.58 7.19039 11.57 7.23039 11.55C7.27039 11.54 7.30039 11.52 7.33039 11.5C7.37039 11.48 7.40039 11.45 7.42039 11.42C7.45039 11.4 7.48039 11.37 7.50039 11.33C7.52039 11.3 7.54039 11.27 7.55039 11.23C7.57039 11.19 7.58039 11.16 7.59039 11.12C7.60039 11.08 7.60039 11.04 7.60039 11L7.60039 2.99998C7.60039 2.95998 7.60039 2.91998 7.59039 2.87998C7.58039 2.83998 7.57039 2.80998 7.55039 2.76998C7.54039 2.72998 7.52039 2.69998 7.50039 2.66998C7.48039 2.62998 7.45039 2.59998 7.42039 2.57998C7.40039 2.54998 7.37039 2.51998 7.33039 2.49998C7.30039 2.47998 7.27039 2.45998 7.23039 2.44998C7.19039 2.42998 7.16039 2.41998 7.12039 2.40998C7.08039 2.39998 7.04039 2.39998 7.00039 2.39998C6.96039 2.39998 6.92039 2.39998 6.88039 2.40998C6.84039 2.41998 6.81039 2.42998 6.77039 2.44998C6.73039 2.45998 6.70039 2.47998 6.67039 2.49998C6.63039 2.51998 6.60039 2.54998 6.58039 2.57998C6.55039 2.59998 6.52039 2.62998 6.50039 2.66998C6.48039 2.69998 6.46039 2.72998 6.45039 2.76998C6.43039 2.80998 6.42039 2.83998 6.41039 2.87998C6.40039 2.91998 6.40039 2.95998 6.40039 2.99998L6.40039 11Z">
        </path>
        <path id="直线 4 (轮廓)" fill-rule="evenodd" style="fill:#A0A3B8" opacity="1"
          d="M10.8008 5.39999C10.8008 5.35999 10.8008 5.31999 10.7908 5.27999C10.7808 5.23999 10.7708 5.20999 10.7508 5.16999C10.7408 5.12999 10.7208 5.09999 10.7008 5.06999C10.6808 5.02999 10.6508 4.99999 10.6208 4.97999C10.6008 4.94999 10.5708 4.91999 10.5308 4.89999C10.5008 4.87999 10.4708 4.85999 10.4308 4.84999C10.3908 4.82999 10.3608 4.81999 10.3208 4.80999C10.2808 4.79999 10.2408 4.79999 10.2008 4.79999C10.1608 4.79999 10.1208 4.79999 10.0808 4.80999C10.0408 4.81999 10.0108 4.82999 9.97078 4.84999C9.93078 4.85999 9.90078 4.87999 9.87078 4.89999C9.83078 4.91999 9.80078 4.94999 9.78078 4.97999C9.75078 4.99999 9.72078 5.02999 9.70078 5.06999C9.68078 5.09999 9.66078 5.12999 9.65078 5.16999C9.63078 5.20999 9.62078 5.23999 9.61078 5.27999C9.60078 5.31999 9.60078 5.35999 9.60078 5.39999L9.60078 11C9.60078 11.04 9.60078 11.08 9.61078 11.12C9.62078 11.16 9.63078 11.19 9.65078 11.23C9.66078 11.27 9.68078 11.3 9.70078 11.33C9.72078 11.37 9.75078 11.4 9.78078 11.42C9.80078 11.45 9.83078 11.48 9.87078 11.5C9.90078 11.52 9.93078 11.54 9.97078 11.55C10.0108 11.57 10.0408 11.58 10.0808 11.59C10.1208 11.6 10.1608 11.6 10.2008 11.6C10.2408 11.6 10.2808 11.6 10.3208 11.59C10.3608 11.58 10.3908 11.57 10.4308 11.55C10.4708 11.54 10.5008 11.52 10.5308 11.5C10.5708 11.48 10.6008 11.45 10.6208 11.42C10.6508 11.4 10.6808 11.37 10.7008 11.33C10.7208 11.3 10.7408 11.27 10.7508 11.23C10.7708 11.19 10.7808 11.16 10.7908 11.12C10.8008 11.08 10.8008 11.04 10.8008 11L10.8008 5.39999Z">
        </path>
      </g>
    </g>
  </g>
  <defs>
    <rect id="path_0" x="0" y="0" width="24" height="24" />
  </defs>
</svg>