<svg xmlns="http://www.w3.org/2000/svg" xmlns:xlink="http://www.w3.org/1999/xlink" width="24" height="24" viewBox="0 0 24 24" fill="none"><g opacity="1"  transform="translate(0 0)  rotate(0)"><rect rx="4"  ry="4" stroke="#DFE1ED"  stroke-width="1" stroke-opacity="1" width="23.5" height="23.5" /><rect x="0" y="0" width="24" height="24" rx="4" ry="4"/><mask id="bg-mask-0" fill="white"><use transform="translate(0 0)  rotate(NaN)" xlink:href="#path_0"></use></mask><g mask="url(#bg-mask-0)" ><g opacity="1"  transform="translate(4.19989013671875 3.9678955078125)  rotate(0)"><path id="圆形 1 (轮廓)" fill-rule="evenodd" style="fill:#656A85" opacity="1" d="M2.29011 2.52094C1.57011 3.24094 1.01011 4.06094 0.610107 4.99094C0.200107 5.96094 0.000106812 6.97094 0.000106812 8.03094C0.000106812 9.09094 0.200107 10.1009 0.610107 11.0609C1.01011 12.0009 1.57011 12.8209 2.28011 13.5409C3.00011 14.2609 3.83011 14.8209 4.76011 15.2109C5.73011 15.6209 6.74011 15.8309 7.80011 15.8309L7.80011 15.8309C7.84011 15.8309 7.88011 15.8309 7.92011 15.8209C7.96011 15.8109 7.99011 15.8009 8.03011 15.7909C8.07011 15.7709 8.10011 15.7509 8.13011 15.7309C8.17011 15.7109 8.20011 15.6809 8.22011 15.6609C8.25011 15.6309 8.28011 15.6009 8.30011 15.5609C8.32011 15.5309 8.34011 15.5009 8.35011 15.4609C8.37011 15.4209 8.38011 15.3909 8.39011 15.3509C8.40011 15.3109 8.40011 15.2709 8.40011 15.2309C8.40011 15.1909 8.40011 15.1509 8.39011 15.1109C8.38011 15.0809 8.37011 15.0409 8.35011 15.0009C8.34011 14.9709 8.32011 14.9309 8.30011 14.9009C8.28011 14.8709 8.25011 14.8309 8.22011 14.8109C8.20011 14.7809 8.17011 14.7509 8.13011 14.7309C8.10011 14.7109 8.07011 14.6909 8.03011 14.6809C7.99011 14.6609 7.96011 14.6509 7.92011 14.6409C7.88011 14.6409 7.84011 14.6309 7.80011 14.6309L7.80011 14.6309C6.90011 14.6309 6.05011 14.4609 5.23011 14.1109C4.44011 13.7809 3.74011 13.3009 3.13011 12.6909C2.52011 12.0909 2.05011 11.3909 1.72011 10.6009C1.37011 9.78094 1.20011 8.92094 1.20011 8.03094C1.20011 7.13094 1.37011 6.28094 1.72011 5.46094C2.05011 4.67094 2.53011 3.97094 3.14011 3.36094L3.13011 3.36094C3.16011 3.33094 3.19011 3.30094 3.21011 3.27094C3.23011 3.24094 3.25011 3.20094 3.26011 3.17094C3.28011 3.13094 3.29011 3.09094 3.30011 3.06094C3.31011 3.02094 3.31011 2.98094 3.31011 2.94094C3.31011 2.90094 3.30011 2.86094 3.30011 2.82094C3.29011 2.78094 3.28011 2.75094 3.26011 2.71094C3.25011 2.67094 3.23011 2.64094 3.21011 2.61094C3.19011 2.57094 3.16011 2.54094 3.13011 2.52094C3.11011 2.49094 3.07011 2.46094 3.04011 2.44094C3.01011 2.42094 2.97011 2.40094 2.94011 2.39094C2.90011 2.37094 2.86011 2.36094 2.83011 2.35094C2.79011 2.34094 2.75011 2.34094 2.71011 2.34094C2.67011 2.34094 2.63011 2.34094 2.59011 2.35094C2.55011 2.36094 2.52011 2.37094 2.48011 2.39094C2.44011 2.40094 2.41011 2.42094 2.38011 2.44094C2.34011 2.46094 2.31011 2.49094 2.28011 2.52094L2.29011 2.52094Z"></path><path id="直线 1 (轮廓)" fill-rule="evenodd" style="fill:#656A85" opacity="1" d="M8.29934 14.8993L6.50211 12.2035C6.47992 12.1702 6.45773 12.1369 6.42722 12.1092C6.39672 12.0815 6.36621 12.0537 6.33292 12.0399C6.30242 12.0121 6.26359 11.9899 6.23031 11.9761C6.19702 11.9622 6.15542 11.9539 6.11382 11.9456C6.08054 11.9317 6.04448 11.9317 6.0001 11.9372C5.9585 11.9289 5.92799 11.9372 5.88362 11.9428C5.84479 11.9567 5.80873 11.9567 5.77545 11.9788C5.73662 11.9927 5.70334 12.0149 5.67006 12.0371C5.63678 12.0593 5.60349 12.0815 5.57576 12.112C5.54248 12.1342 5.52861 12.1674 5.50087 12.1979C5.47869 12.2368 5.45927 12.2617 5.45095 12.3033C5.42876 12.3422 5.4149 12.3755 5.4149 12.4115C5.40658 12.4531 5.39826 12.4947 5.39826 12.5308C5.39826 12.5668 5.4038 12.6112 5.41767 12.65C5.41767 12.6861 5.43154 12.7249 5.44541 12.7637C5.45927 12.8026 5.48146 12.8359 5.50365 12.8691L7.30088 15.565C7.32307 15.5983 7.34525 15.6315 7.37576 15.6593C7.40627 15.687 7.43123 15.7064 7.47006 15.7286C7.50057 15.7564 7.53385 15.7702 7.56713 15.7841C7.60596 15.8063 7.64756 15.8146 7.68362 15.8146C7.7169 15.8285 7.7585 15.8368 7.80288 15.8312C7.83894 15.8312 7.87499 15.8312 7.91382 15.8174C7.9582 15.8118 7.98871 15.8035 8.02753 15.7896C8.06636 15.7758 8.09965 15.7536 8.13293 15.7314C8.16621 15.7092 8.19949 15.687 8.22723 15.6565C8.25496 15.626 8.27438 15.601 8.29656 15.5622C8.3243 15.5317 8.33817 15.4984 8.35203 15.4651C8.37422 15.4263 8.38254 15.3847 8.38254 15.3486C8.39641 15.3154 8.40473 15.2738 8.39918 15.2294C8.39918 15.1933 8.39918 15.1573 8.38532 15.1184C8.37977 15.0741 8.37145 15.0436 8.35758 15.0047C8.34371 14.9659 8.32153 14.9326 8.29934 14.8993Z"></path><path id="圆形 1 (轮廓)" fill-rule="evenodd" style="fill:#656A85" opacity="1" d="M13.3101 13.5433C14.0301 12.8233 14.5901 12.0033 14.9901 11.0733C15.4001 10.1033 15.6001 9.09327 15.6001 8.03327C15.6001 6.97327 15.4001 5.96327 14.9901 5.00327C14.5901 4.06327 14.0301 3.24327 13.3201 2.52327C12.6001 1.80327 11.7701 1.24327 10.8401 0.853269C9.87011 0.443269 8.86011 0.233269 7.80011 0.233269L7.80011 0.233269C7.76011 0.233269 7.72011 0.233269 7.68011 0.243269C7.64011 0.253268 7.61011 0.263268 7.57011 0.273269C7.53011 0.293268 7.50011 0.313269 7.47011 0.333268C7.43011 0.353269 7.40011 0.383268 7.38011 0.403269C7.35011 0.433269 7.32011 0.463268 7.30011 0.503268C7.28011 0.533269 7.26011 0.563269 7.25011 0.603269C7.23011 0.643269 7.22011 0.673268 7.21011 0.713268C7.20011 0.753268 7.20011 0.793268 7.20011 0.833268C7.20011 0.873268 7.20011 0.913268 7.21011 0.953268C7.22011 0.983269 7.23011 1.02327 7.25011 1.06327C7.26011 1.09327 7.28011 1.13327 7.30011 1.16327C7.32011 1.19327 7.35011 1.23327 7.38011 1.25327C7.40011 1.28327 7.43011 1.31327 7.47011 1.33327C7.50011 1.35327 7.53011 1.37327 7.57011 1.38327C7.61011 1.40327 7.64011 1.41327 7.68011 1.42327C7.72011 1.42327 7.76011 1.43327 7.80011 1.43327L7.80011 1.43327C8.70011 1.43327 9.55011 1.60327 10.3701 1.95327C11.1601 2.28327 11.8601 2.76327 12.4701 3.37327C13.0801 3.97327 13.5501 4.67327 13.8801 5.46327C14.2301 6.28327 14.4001 7.14327 14.4001 8.03327C14.4001 8.93327 14.2301 9.78327 13.8801 10.6033C13.5501 11.3933 13.0701 12.0933 12.4601 12.7033L12.4701 12.7033C12.4401 12.7333 12.4101 12.7633 12.3901 12.7933C12.3701 12.8233 12.3501 12.8633 12.3401 12.8933C12.3201 12.9333 12.3101 12.9733 12.3001 13.0033C12.2901 13.0433 12.2901 13.0833 12.2901 13.1233C12.2901 13.1633 12.3001 13.2033 12.3001 13.2433C12.3101 13.2833 12.3201 13.3133 12.3401 13.3533C12.3501 13.3933 12.3701 13.4233 12.3901 13.4533C12.4101 13.4933 12.4401 13.5233 12.4701 13.5433C12.4901 13.5733 12.5301 13.6033 12.5601 13.6233C12.5901 13.6433 12.6301 13.6633 12.6601 13.6733C12.7001 13.6933 12.7401 13.7033 12.7701 13.7133C12.8101 13.7233 12.8501 13.7233 12.8901 13.7233C12.9301 13.7233 12.9701 13.7233 13.0101 13.7133C13.0501 13.7033 13.0801 13.6933 13.1201 13.6733C13.1601 13.6633 13.1901 13.6433 13.2201 13.6233C13.2601 13.6033 13.2901 13.5733 13.3201 13.5433L13.3101 13.5433Z"></path><path id="直线 1 (轮廓)" fill-rule="evenodd" style="fill:#656A85" opacity="1" d="M7.30088 1.16487L9.10366 3.86903C9.1203 3.89399 9.14249 3.92728 9.173 3.95501C9.2035 3.98275 9.23401 4.01048 9.26729 4.02435C9.2978 4.05208 9.33663 4.07427 9.36991 4.08814C9.4032 4.10201 9.4448 4.11033 9.4864 4.11865C9.51968 4.13252 9.55574 4.13252 9.60011 4.12697C9.64172 4.13529 9.67223 4.12697 9.7166 4.12142C9.75543 4.10755 9.79149 4.10755 9.82477 4.08537C9.8636 4.0715 9.89688 4.04931 9.93571 4.03544C9.96344 4.00493 9.99673 3.98275 10.0245 3.95224C10.0577 3.93005 10.0716 3.89677 10.0993 3.86626C10.1215 3.82743 10.1409 3.80247 10.1493 3.76087C10.1715 3.72204 10.1853 3.68876 10.1853 3.6527C10.1936 3.6111 10.202 3.5695 10.202 3.53344C10.202 3.49738 10.1964 3.45301 10.1825 3.41418C10.1825 3.37812 10.1687 3.33929 10.1548 3.30047C10.1409 3.26164 10.1188 3.22835 10.1021 3.20339L8.29934 0.49923C8.27715 0.465948 8.25497 0.432666 8.22446 0.404931C8.19395 0.377196 8.16899 0.357782 8.13016 0.335594C8.09965 0.307859 8.06637 0.293991 8.03309 0.280124C7.99426 0.257936 7.95265 0.249615 7.9166 0.249615C7.88332 0.235748 7.84171 0.227427 7.79734 0.232974C7.76128 0.232974 7.72523 0.232974 7.6864 0.246842C7.64202 0.252389 7.61151 0.260709 7.57269 0.274577C7.53386 0.288444 7.50057 0.310632 7.46729 0.33282C7.43401 0.355008 7.40073 0.377196 7.37299 0.407705C7.34526 0.438213 7.32584 0.463175 7.30366 0.502004C7.27592 0.532512 7.26205 0.565794 7.24819 0.599076C7.226 0.637905 7.21768 0.679508 7.21768 0.715563C7.20381 0.748845 7.19549 0.790448 7.20104 0.834824C7.20104 0.870879 7.20104 0.906935 7.2149 0.945764C7.22045 0.99014 7.22877 1.02065 7.24264 1.05948C7.25651 1.09831 7.27869 1.13159 7.30088 1.16487Z"></path></g></g></g><defs><rect id="path_0" x="0" y="0" width="24" height="24" /></defs></svg>