<svg xmlns="http://www.w3.org/2000/svg" xmlns:xlink="http://www.w3.org/1999/xlink" width="30" height="30" viewBox="0 0 30 30" fill="none"><g opacity="1"  transform="translate(0 0)  rotate(0)"><rect fill="#495AD4" opacity="1" transform="translate(0 0)  rotate(0)" x="0" y="0" width="30" height="30" rx="4" /><mask id="bg-mask-0" fill="white"><use xlink:href="#path_0"></use></mask><g mask="url(#bg-mask-0)" ><path id="矩形 2 (轮廓)" fill-rule="evenodd" style="fill:#FFFFFF" opacity="1" d="M6.25,23v-16c0,-0.05 0,-0.1 0.01,-0.15c0.01,-0.04 0.03,-0.09 0.05,-0.14c0.02,-0.04 0.04,-0.09 0.07,-0.13c0.02,-0.04 0.05,-0.08 0.09,-0.11c0.03,-0.04 0.07,-0.07 0.11,-0.09c0.04,-0.03 0.09,-0.05 0.13,-0.07c0.05,-0.02 0.1,-0.04 0.14,-0.05c0.05,-0.01 0.1,-0.01 0.15,-0.01h16c0.05,0 0.1,0 0.15,0.01c0.04,0.01 0.09,0.03 0.14,0.05c0.04,0.02 0.09,0.04 0.13,0.07c0.04,0.02 0.08,0.05 0.11,0.09c0.04,0.03 0.07,0.07 0.09,0.11c0.03,0.04 0.05,0.09 0.07,0.13c0.02,0.05 0.04,0.1 0.05,0.14c0.01,0.05 0.01,0.1 0.01,0.15v16c0,0.05 0,0.1 -0.01,0.15c-0.01,0.04 -0.03,0.09 -0.05,0.14c-0.02,0.04 -0.04,0.09 -0.07,0.13c-0.02,0.04 -0.05,0.08 -0.09,0.11c-0.03,0.04 -0.07,0.07 -0.11,0.09c-0.04,0.03 -0.09,0.05 -0.13,0.07c-0.05,0.02 -0.1,0.04 -0.14,0.05c-0.05,0.01 -0.1,0.01 -0.15,0.01h-16c-0.05,0 -0.1,0 -0.15,-0.01c-0.04,-0.01 -0.09,-0.03 -0.14,-0.05c-0.04,-0.02 -0.09,-0.04 -0.13,-0.07c-0.04,-0.02 -0.08,-0.05 -0.11,-0.09c-0.04,-0.03 -0.07,-0.07 -0.09,-0.11c-0.03,-0.04 -0.05,-0.09 -0.07,-0.13c-0.02,-0.05 -0.04,-0.1 -0.05,-0.14c-0.01,-0.05 -0.01,-0.1 -0.01,-0.15zM7.75,7.75v14.5h14.5v-14.5z"></path><path id="直线 1 (轮廓)" fill-rule="evenodd" style="fill:#FFFFFF" opacity="1" d="M15.5 7C15.5 6.97 15.5 6.93 15.49 6.9C15.48 6.87 15.47 6.84 15.46 6.81C15.45 6.78 15.43 6.75 15.42 6.72C15.4 6.69 15.38 6.67 15.35 6.65C15.33 6.62 15.31 6.6 15.28 6.58C15.25 6.57 15.22 6.55 15.19 6.54C15.16 6.53 15.13 6.52 15.1 6.51C15.07 6.5 15.03 6.5 15 6.5C14.97 6.5 14.93 6.5 14.9 6.51C14.87 6.52 14.84 6.53 14.81 6.54C14.78 6.55 14.75 6.57 14.72 6.58C14.69 6.6 14.67 6.62 14.65 6.65C14.62 6.67 14.6 6.69 14.58 6.72C14.57 6.75 14.55 6.78 14.54 6.81C14.53 6.84 14.52 6.87 14.51 6.9C14.5 6.93 14.5 6.97 14.5 7L14.5 23C14.5 23.03 14.5 23.07 14.51 23.1C14.52 23.13 14.53 23.16 14.54 23.19C14.55 23.22 14.57 23.25 14.58 23.28C14.6 23.31 14.62 23.33 14.65 23.35C14.67 23.38 14.69 23.4 14.72 23.42C14.75 23.43 14.78 23.45 14.81 23.46C14.84 23.47 14.87 23.48 14.9 23.49C14.93 23.5 14.97 23.5 15 23.5C15.03 23.5 15.07 23.5 15.1 23.49C15.13 23.48 15.16 23.47 15.19 23.46C15.22 23.45 15.25 23.43 15.28 23.42C15.31 23.4 15.33 23.38 15.35 23.35C15.38 23.33 15.4 23.31 15.42 23.28C15.43 23.25 15.45 23.22 15.46 23.19C15.47 23.16 15.48 23.13 15.49 23.1C15.5 23.07 15.5 23.03 15.5 23L15.5 7Z"></path><path id="直线 2 (轮廓)" fill-rule="evenodd" style="fill:#FFFFFF" opacity="1" d="M7 14.5C6.97 14.5 6.93 14.5 6.9 14.51C6.87 14.52 6.84 14.53 6.81 14.54C6.78 14.55 6.75 14.57 6.72 14.58C6.69 14.6 6.67 14.62 6.65 14.65C6.62 14.67 6.6 14.69 6.58 14.72C6.57 14.75 6.55 14.78 6.54 14.81C6.53 14.84 6.52 14.87 6.51 14.9C6.5 14.93 6.5 14.97 6.5 15C6.5 15.03 6.5 15.07 6.51 15.1C6.52 15.13 6.53 15.16 6.54 15.19C6.55 15.22 6.57 15.25 6.58 15.28C6.6 15.31 6.62 15.33 6.65 15.35C6.67 15.38 6.69 15.4 6.72 15.42C6.75 15.43 6.78 15.45 6.81 15.46C6.84 15.47 6.87 15.48 6.9 15.49C6.93 15.5 6.97 15.5 7 15.5L23 15.5C23.03 15.5 23.07 15.5 23.1 15.49C23.13 15.48 23.16 15.47 23.19 15.46C23.22 15.45 23.25 15.43 23.28 15.42C23.31 15.4 23.33 15.38 23.35 15.35C23.38 15.33 23.4 15.31 23.42 15.28C23.43 15.25 23.45 15.22 23.46 15.19C23.47 15.16 23.48 15.13 23.49 15.1C23.5 15.07 23.5 15.03 23.5 15C23.5 14.97 23.5 14.93 23.49 14.9C23.48 14.87 23.47 14.84 23.46 14.81C23.45 14.78 23.43 14.75 23.42 14.72C23.4 14.69 23.38 14.67 23.35 14.65C23.33 14.62 23.31 14.6 23.28 14.58C23.25 14.57 23.22 14.55 23.19 14.54C23.16 14.53 23.13 14.52 23.1 14.51C23.07 14.5 23.03 14.5 23 14.5L7 14.5Z"></path><path id="直线 3 (轮廓)" fill-rule="evenodd" style="fill:#FFFFFF" opacity="1" d="M9 10.25C8.95 10.25 8.9 10.25 8.85 10.26C8.81 10.27 8.76 10.29 8.71 10.31C8.67 10.33 8.62 10.35 8.58 10.38C8.54 10.4 8.5 10.43 8.47 10.47C8.43 10.5 8.4 10.54 8.38 10.58C8.35 10.62 8.33 10.67 8.31 10.71C8.29 10.76 8.27 10.81 8.26 10.85C8.25 10.9 8.25 10.95 8.25 11C8.25 11.05 8.25 11.1 8.26 11.15C8.27 11.19 8.29 11.24 8.31 11.29C8.33 11.33 8.35 11.38 8.38 11.42C8.4 11.46 8.43 11.5 8.47 11.53C8.5 11.57 8.54 11.6 8.58 11.62C8.62 11.65 8.67 11.67 8.71 11.69C8.76 11.71 8.81 11.73 8.85 11.74C8.9 11.75 8.95 11.75 9 11.75L13 11.75C13.05 11.75 13.1 11.75 13.15 11.74C13.19 11.73 13.24 11.71 13.29 11.69C13.33 11.67 13.38 11.65 13.42 11.62C13.46 11.6 13.5 11.57 13.53 11.53C13.57 11.5 13.6 11.46 13.62 11.42C13.65 11.38 13.67 11.33 13.69 11.29C13.71 11.24 13.73 11.19 13.74 11.15C13.75 11.1 13.75 11.05 13.75 11C13.75 10.95 13.75 10.9 13.74 10.85C13.73 10.81 13.71 10.76 13.69 10.71C13.67 10.67 13.65 10.62 13.62 10.58C13.6 10.54 13.57 10.5 13.53 10.47C13.5 10.43 13.46 10.4 13.42 10.38C13.38 10.35 13.33 10.33 13.29 10.31C13.24 10.29 13.19 10.27 13.15 10.26C13.1 10.25 13.05 10.25 13 10.25L9 10.25Z"></path><path id="直线 4 (轮廓)" fill-rule="evenodd" style="fill:#FFFFFF" opacity="1" d="M11.75 9C11.75 8.95 11.75 8.9 11.74 8.85C11.73 8.81 11.71 8.76 11.69 8.71C11.67 8.67 11.65 8.62 11.62 8.58C11.6 8.54 11.57 8.5 11.53 8.47C11.5 8.43 11.46 8.4 11.42 8.38C11.38 8.35 11.33 8.33 11.29 8.31C11.24 8.29 11.19 8.27 11.15 8.26C11.1 8.25 11.05 8.25 11 8.25C10.95 8.25 10.9 8.25 10.85 8.26C10.81 8.27 10.76 8.29 10.71 8.31C10.67 8.33 10.62 8.35 10.58 8.38C10.54 8.4 10.5 8.43 10.47 8.47C10.43 8.5 10.4 8.54 10.38 8.58C10.35 8.62 10.33 8.67 10.31 8.71C10.29 8.76 10.27 8.81 10.26 8.85C10.25 8.9 10.25 8.95 10.25 9L10.25 13C10.25 13.05 10.25 13.1 10.26 13.15C10.27 13.19 10.29 13.24 10.31 13.29C10.33 13.33 10.35 13.38 10.38 13.42C10.4 13.46 10.43 13.5 10.47 13.53C10.5 13.57 10.54 13.6 10.58 13.62C10.62 13.65 10.67 13.67 10.71 13.69C10.76 13.71 10.81 13.73 10.85 13.74C10.9 13.75 10.95 13.75 11 13.75C11.05 13.75 11.1 13.75 11.15 13.74C11.19 13.73 11.24 13.71 11.29 13.69C11.33 13.67 11.38 13.65 11.42 13.62C11.46 13.6 11.5 13.57 11.53 13.53C11.57 13.5 11.6 13.46 11.62 13.42C11.65 13.38 11.67 13.33 11.69 13.29C11.71 13.24 11.73 13.19 11.74 13.15C11.75 13.1 11.75 13.05 11.75 13L11.75 9Z"></path><path id="直线 5 (轮廓)" fill-rule="evenodd" style="fill:#FFFFFF" opacity="1" d="M17 10.25C16.95 10.25 16.9 10.25 16.85 10.26C16.81 10.27 16.76 10.29 16.71 10.31C16.67 10.33 16.62 10.35 16.58 10.38C16.54 10.4 16.5 10.43 16.47 10.47C16.43 10.5 16.4 10.54 16.38 10.58C16.35 10.62 16.33 10.67 16.31 10.71C16.29 10.76 16.27 10.81 16.26 10.85C16.25 10.9 16.25 10.95 16.25 11C16.25 11.05 16.25 11.1 16.26 11.15C16.27 11.19 16.29 11.24 16.31 11.29C16.33 11.33 16.35 11.38 16.38 11.42C16.4 11.46 16.43 11.5 16.47 11.53C16.5 11.57 16.54 11.6 16.58 11.62C16.62 11.65 16.67 11.67 16.71 11.69C16.76 11.71 16.81 11.73 16.85 11.74C16.9 11.75 16.95 11.75 17 11.75L21 11.75C21.05 11.75 21.1 11.75 21.15 11.74C21.19 11.73 21.24 11.71 21.29 11.69C21.33 11.67 21.38 11.65 21.42 11.62C21.46 11.6 21.5 11.57 21.53 11.53C21.57 11.5 21.6 11.46 21.62 11.42C21.65 11.38 21.67 11.33 21.69 11.29C21.71 11.24 21.73 11.19 21.74 11.15C21.75 11.1 21.75 11.05 21.75 11C21.75 10.95 21.75 10.9 21.74 10.85C21.73 10.81 21.71 10.76 21.69 10.71C21.67 10.67 21.65 10.62 21.62 10.58C21.6 10.54 21.57 10.5 21.53 10.47C21.5 10.43 21.46 10.4 21.42 10.38C21.38 10.35 21.33 10.33 21.29 10.31C21.24 10.29 21.19 10.27 21.15 10.26C21.1 10.25 21.05 10.25 21 10.25L17 10.25Z"></path><path id="直线 5 (轮廓)" fill-rule="evenodd" style="fill:#E8CA99" opacity="1" d="M17 17.25C16.95 17.25 16.9 17.25 16.85 17.26C16.81 17.27 16.76 17.29 16.71 17.31C16.67 17.33 16.62 17.35 16.58 17.38C16.54 17.4 16.5 17.43 16.47 17.47C16.43 17.5 16.4 17.54 16.38 17.58C16.35 17.62 16.33 17.67 16.31 17.71C16.29 17.76 16.27 17.81 16.26 17.85C16.25 17.9 16.25 17.95 16.25 18C16.25 18.05 16.25 18.1 16.26 18.15C16.27 18.19 16.29 18.24 16.31 18.29C16.33 18.33 16.35 18.38 16.38 18.42C16.4 18.46 16.43 18.5 16.47 18.53C16.5 18.57 16.54 18.6 16.58 18.62C16.62 18.65 16.67 18.67 16.71 18.69C16.76 18.71 16.81 18.73 16.85 18.74C16.9 18.75 16.95 18.75 17 18.75L21 18.75C21.05 18.75 21.1 18.75 21.15 18.74C21.19 18.73 21.24 18.71 21.29 18.69C21.33 18.67 21.38 18.65 21.42 18.62C21.46 18.6 21.5 18.57 21.53 18.53C21.57 18.5 21.6 18.46 21.62 18.42C21.65 18.38 21.67 18.33 21.69 18.29C21.71 18.24 21.73 18.19 21.74 18.15C21.75 18.1 21.75 18.05 21.75 18C21.75 17.95 21.75 17.9 21.74 17.85C21.73 17.81 21.71 17.76 21.69 17.71C21.67 17.67 21.65 17.62 21.62 17.58C21.6 17.54 21.57 17.5 21.53 17.47C21.5 17.43 21.46 17.4 21.42 17.38C21.38 17.35 21.33 17.33 21.29 17.31C21.24 17.29 21.19 17.27 21.15 17.26C21.1 17.25 21.05 17.25 21 17.25L17 17.25Z"></path><path id="直线 5 (轮廓)" fill-rule="evenodd" style="fill:#E8CA99" opacity="1" d="M17 19.25C16.95 19.25 16.9 19.25 16.85 19.26C16.81 19.27 16.76 19.29 16.71 19.31C16.67 19.33 16.62 19.35 16.58 19.38C16.54 19.4 16.5 19.43 16.47 19.47C16.43 19.5 16.4 19.54 16.38 19.58C16.35 19.62 16.33 19.67 16.31 19.71C16.29 19.76 16.27 19.81 16.26 19.85C16.25 19.9 16.25 19.95 16.25 20C16.25 20.05 16.25 20.1 16.26 20.15C16.27 20.19 16.29 20.24 16.31 20.29C16.33 20.33 16.35 20.38 16.38 20.42C16.4 20.46 16.43 20.5 16.47 20.53C16.5 20.57 16.54 20.6 16.58 20.62C16.62 20.65 16.67 20.67 16.71 20.69C16.76 20.71 16.81 20.73 16.85 20.74C16.9 20.75 16.95 20.75 17 20.75L21 20.75C21.05 20.75 21.1 20.75 21.15 20.74C21.19 20.73 21.24 20.71 21.29 20.69C21.33 20.67 21.38 20.65 21.42 20.62C21.46 20.6 21.5 20.57 21.53 20.53C21.57 20.5 21.6 20.46 21.62 20.42C21.65 20.38 21.67 20.33 21.69 20.29C21.71 20.24 21.73 20.19 21.74 20.15C21.75 20.1 21.75 20.05 21.75 20C21.75 19.95 21.75 19.9 21.74 19.85C21.73 19.81 21.71 19.76 21.69 19.71C21.67 19.67 21.65 19.62 21.62 19.58C21.6 19.54 21.57 19.5 21.53 19.47C21.5 19.43 21.46 19.4 21.42 19.38C21.38 19.35 21.33 19.33 21.29 19.31C21.24 19.29 21.19 19.27 21.15 19.26C21.1 19.25 21.05 19.25 21 19.25L17 19.25Z"></path><path id="直线 6 (轮廓)" fill-rule="evenodd" style="fill:#FFFFFF" opacity="1" d="M10.0274 16.9663C9.99205 16.931 9.95669 16.8956 9.91426 16.8673C9.87891 16.8461 9.82941 16.8249 9.77991 16.8037C9.73749 16.7896 9.68799 16.7683 9.63849 16.7613C9.59607 16.7471 9.54657 16.7401 9.49707 16.7471C9.44757 16.7401 9.39808 16.7471 9.35565 16.7613C9.30615 16.7683 9.25665 16.7896 9.21423 16.8037C9.16473 16.8249 9.11523 16.8461 9.07988 16.8673C9.03745 16.8956 9.0021 16.931 8.96674 16.9663C8.93139 17.0017 8.89603 17.037 8.86775 17.0795C8.84653 17.1148 8.82532 17.1643 8.80411 17.2138C8.78996 17.2562 8.76875 17.3057 8.76168 17.3552C8.74754 17.3977 8.74047 17.4472 8.74754 17.4967C8.74047 17.5462 8.74754 17.5957 8.76168 17.6381C8.76875 17.6876 8.78996 17.7371 8.80411 17.7795C8.82532 17.829 8.84653 17.8785 8.86775 17.9139C8.89603 17.9563 8.93139 17.9916 8.96674 18.027L11.9719 21.0322C12.0073 21.0676 12.0427 21.1029 12.078 21.1241C12.1204 21.1524 12.1699 21.1736 12.2124 21.1878C12.2619 21.209 12.3043 21.2231 12.3538 21.2302C12.4033 21.2514 12.4457 21.2514 12.5023 21.2514C12.5447 21.2514 12.5942 21.2443 12.6437 21.2373C12.6932 21.2302 12.7427 21.209 12.7851 21.1948C12.8346 21.1736 12.877 21.1453 12.9124 21.1241C12.9548 21.0958 12.9972 21.0676 13.0326 21.0322C13.068 20.9968 13.0962 20.9544 13.1245 20.912C13.1457 20.8766 13.174 20.8342 13.1952 20.7847C13.2094 20.7423 13.2306 20.6928 13.2377 20.6433C13.2447 20.5938 13.2518 20.5443 13.2518 20.5019C13.2518 20.4453 13.2447 20.3958 13.2306 20.3534C13.2235 20.3039 13.2094 20.2615 13.1882 20.212C13.174 20.1695 13.1528 20.12 13.1245 20.0776C13.1033 20.0422 13.068 20.0069 13.0326 19.9715L10.0274 16.9663Z"></path><path id="直线 6 (轮廓)" fill-rule="evenodd" style="fill:#FFFFFF" opacity="1" d="M13.0302 18.027C13.0656 17.9916 13.1009 17.9563 13.1292 17.9138C13.1504 17.8785 13.1716 17.829 13.1929 17.7795C13.207 17.7371 13.2282 17.6876 13.2353 17.6381C13.2494 17.5956 13.2565 17.5461 13.2494 17.4966C13.2565 17.4471 13.2494 17.3976 13.2353 17.3552C13.2282 17.3057 13.207 17.2562 13.1929 17.2138C13.1716 17.1643 13.1504 17.1148 13.1292 17.0795C13.1009 17.037 13.0656 17.0017 13.0302 16.9663C12.9949 16.931 12.9595 16.8956 12.9171 16.8673C12.8817 16.8461 12.8322 16.8249 12.7827 16.8037C12.7403 16.7895 12.6908 16.7683 12.6413 16.7613C12.5989 16.7471 12.5494 16.74 12.4999 16.7471C12.4504 16.74 12.4009 16.7471 12.3585 16.7613C12.309 16.7683 12.2595 16.7895 12.217 16.8037C12.1675 16.8249 12.118 16.8461 12.0827 16.8673C12.0403 16.8956 12.0049 16.931 11.9696 16.9663L8.96435 19.9715C8.929 20.0069 8.89364 20.0422 8.87243 20.0776C8.84414 20.12 8.82293 20.1695 8.80879 20.2119C8.78758 20.2614 8.77343 20.3039 8.76636 20.3534C8.74515 20.4029 8.74515 20.4453 8.74515 20.5018C8.74515 20.5443 8.75222 20.5938 8.75929 20.6433C8.76636 20.6928 8.78758 20.7423 8.80172 20.7847C8.82293 20.8342 8.85122 20.8766 8.87243 20.912C8.90071 20.9544 8.929 20.9968 8.96435 21.0322C8.99971 21.0675 9.04214 21.0958 9.08456 21.1241C9.11992 21.1453 9.16234 21.1736 9.21184 21.1948C9.25427 21.209 9.30376 21.2302 9.35326 21.2372C9.40276 21.2443 9.45226 21.2514 9.49468 21.2514C9.55125 21.2514 9.60075 21.2443 9.64318 21.2302C9.69267 21.2231 9.7351 21.209 9.7846 21.1877C9.82702 21.1736 9.87652 21.1524 9.91895 21.1241C9.9543 21.1029 9.98966 21.0675 10.025 21.0322L13.0302 18.027Z"></path></g></g><defs><rect id="path_0" x="0" y="0" width="30" height="30" /></defs></svg>