<svg xmlns="http://www.w3.org/2000/svg" xmlns:xlink="http://www.w3.org/1999/xlink" width="24" height="24" viewBox="0 0 24 24" fill="none"><g opacity="1"  transform="translate(0 0)  rotate(0)"><mask id="bg-mask-0" fill="white"><use xlink:href="#path_0"></use></mask><g mask="url(#bg-mask-0)" ><path id="矩形 3 (轮廓)" fill-rule="evenodd" style="fill:#A0A3B8" opacity="1" d="M6.2,17.8001h11.6v-10h-11.6zM18.52,6.6101c0.04,0.01 0.07,0.02 0.11,0.04c0.04,0.01 0.07,0.03 0.1,0.05c0.04,0.02 0.07,0.05 0.09,0.08c0.03,0.02 0.06,0.05 0.08,0.09c0.02,0.03 0.04,0.06 0.05,0.1c0.02,0.04 0.03,0.07 0.04,0.11c0.01,0.04 0.01,0.08 0.01,0.12v11.2c0,0.04 0,0.08 -0.01,0.12c-0.01,0.04 -0.02,0.07 -0.04,0.11c-0.01,0.04 -0.03,0.07 -0.05,0.1c-0.02,0.04 -0.05,0.07 -0.08,0.09c-0.02,0.03 -0.05,0.06 -0.09,0.08c-0.03,0.02 -0.06,0.04 -0.1,0.05c-0.04,0.02 -0.07,0.03 -0.11,0.04c-0.04,0.01 -0.08,0.01 -0.12,0.01h-12.8c-0.04,0 -0.08,0 -0.12,-0.01c-0.04,-0.01 -0.07,-0.02 -0.11,-0.04c-0.04,-0.01 -0.07,-0.03 -0.1,-0.05c-0.04,-0.02 -0.07,-0.05 -0.09,-0.08c-0.03,-0.02 -0.06,-0.05 -0.08,-0.09c-0.02,-0.03 -0.04,-0.06 -0.05,-0.1c-0.02,-0.04 -0.03,-0.07 -0.04,-0.11c-0.01,-0.04 -0.01,-0.08 -0.01,-0.12v-11.2c0,-0.04 0,-0.08 0.01,-0.12c0.01,-0.04 0.02,-0.07 0.04,-0.11c0.01,-0.04 0.03,-0.07 0.05,-0.1c0.02,-0.04 0.05,-0.07 0.08,-0.09c0.02,-0.03 0.05,-0.06 0.09,-0.08c0.03,-0.02 0.06,-0.04 0.1,-0.05c0.04,-0.02 0.07,-0.03 0.11,-0.04c0.04,-0.01 0.08,-0.01 0.12,-0.01h12.8c0.04,0 0.08,0 0.12,0.01z"></path><path id="直线 4 (轮廓)" fill-rule="evenodd" style="fill:#A0A3B8" opacity="1" d="M9.3 9.13C9.32 9.1 9.34 9.07 9.36 9.03C9.37 8.99 9.38 8.96 9.39 8.92C9.4 8.88 9.4 8.84 9.4 8.8L9.4 8.8L9.4 5.6L8.8 5.6L9.4 5.6C9.4 5.56 9.4 5.52 9.39 5.48C9.38 5.44 9.37 5.41 9.35 5.37C9.34 5.33 9.32 5.3 9.3 5.27C9.28 5.23 9.25 5.2 9.22 5.18C9.2 5.15 9.17 5.12 9.13 5.1C9.1 5.08 9.07 5.06 9.03 5.05C8.99 5.03 8.96 5.02 8.92 5.01C8.88 5 8.84 5 8.8 5C8.76 5 8.72 5 8.68 5.01C8.64 5.02 8.61 5.03 8.57 5.05C8.53 5.06 8.5 5.08 8.47 5.1C8.43 5.12 8.4 5.15 8.38 5.18C8.35 5.2 8.32 5.23 8.3 5.27C8.28 5.3 8.26 5.33 8.25 5.37C8.23 5.41 8.22 5.44 8.21 5.48C8.2 5.52 8.2 5.56 8.2 5.6L8.2 5.6L8.2 8.8L8.8 8.8L8.2 8.8C8.2 8.88 8.22 8.96 8.25 9.03C8.28 9.1 8.32 9.17 8.38 9.22C8.43 9.28 8.5 9.32 8.57 9.35C8.64 9.38 8.72 9.4 8.8 9.4C8.84 9.4 8.88 9.4 8.92 9.39C8.96 9.38 8.99 9.37 9.03 9.35C9.07 9.34 9.1 9.32 9.13 9.3C9.17 9.28 9.2 9.25 9.23 9.22C9.25 9.2 9.28 9.17 9.3 9.13Z"></path><path id="直线 5 (轮廓)" fill-rule="evenodd" style="fill:#A0A3B8" opacity="1" d="M15.53 5.1C15.5 5.08 15.47 5.06 15.43 5.05C15.39 5.03 15.36 5.02 15.32 5.01C15.28 5 15.24 5 15.2 5C15.16 5 15.12 5 15.08 5.01C15.04 5.02 15.01 5.03 14.97 5.05C14.93 5.06 14.9 5.08 14.87 5.1C14.83 5.12 14.8 5.15 14.78 5.18C14.75 5.2 14.72 5.23 14.7 5.27C14.68 5.3 14.66 5.33 14.65 5.37C14.63 5.41 14.62 5.44 14.61 5.48C14.6 5.52 14.6 5.56 14.6 5.6L14.6 5.6L14.6 8.8L15.2 8.8L14.6 8.8C14.6 8.88 14.62 8.96 14.65 9.03C14.68 9.1 14.72 9.17 14.78 9.22C14.83 9.28 14.9 9.32 14.97 9.35C15.04 9.38 15.12 9.4 15.2 9.4C15.24 9.4 15.28 9.4 15.32 9.39C15.36 9.38 15.39 9.37 15.43 9.35C15.47 9.34 15.5 9.32 15.53 9.3C15.57 9.28 15.6 9.25 15.63 9.22C15.65 9.2 15.68 9.17 15.7 9.13C15.72 9.1 15.74 9.07 15.76 9.03C15.77 8.99 15.78 8.96 15.79 8.92C15.8 8.88 15.8 8.84 15.8 8.8L15.8 8.8L15.8 5.6L15.2 5.6L15.8 5.6C15.8 5.56 15.8 5.52 15.79 5.48C15.78 5.44 15.77 5.41 15.75 5.37C15.74 5.33 15.72 5.3 15.7 5.27C15.68 5.23 15.65 5.2 15.62 5.18C15.6 5.15 15.57 5.12 15.53 5.1Z"></path><path id="直线 7 (轮廓)" fill-rule="evenodd" style="fill:#A0A3B8" opacity="1" d="M7.40999 12.1199C7.41999 12.1599 7.42999 12.1899 7.44999 12.2299C7.45999 12.2699 7.47999 12.2999 7.49999 12.3299C7.51999 12.3699 7.54999 12.3999 7.57999 12.4199C7.59999 12.4499 7.62999 12.4799 7.66999 12.4999C7.69999 12.5199 7.72999 12.5399 7.76999 12.5499C7.80999 12.5699 7.83999 12.5799 7.87999 12.5899C7.91999 12.5999 7.95999 12.5999 7.99999 12.5999L7.99999 11.9999L7.99999 12.5999L16 12.5999L16 12.5999C16.04 12.5999 16.08 12.5999 16.12 12.5899C16.16 12.5799 16.19 12.5699 16.23 12.5599C16.27 12.5399 16.3 12.5199 16.33 12.4999C16.37 12.4799 16.4 12.4499 16.42 12.4299C16.45 12.3999 16.48 12.3699 16.5 12.3299C16.52 12.2999 16.54 12.2699 16.55 12.2299C16.57 12.1899 16.58 12.1599 16.59 12.1199C16.6 12.0799 16.6 12.0399 16.6 11.9999C16.6 11.9199 16.58 11.8399 16.55 11.7699C16.52 11.6999 16.48 11.6299 16.42 11.5799C16.37 11.5199 16.3 11.4799 16.23 11.4499C16.16 11.4199 16.08 11.3999 16 11.3999L16 11.9999L16 11.3999L7.99999 11.3999C7.95999 11.3999 7.91999 11.3999 7.87999 11.4099C7.83999 11.4199 7.80999 11.4299 7.76999 11.4499C7.72999 11.4599 7.69999 11.4799 7.66999 11.4999C7.62999 11.5199 7.59999 11.5499 7.57999 11.5799C7.54999 11.5999 7.51999 11.6299 7.49999 11.6699C7.47999 11.6999 7.45999 11.7299 7.44999 11.7699C7.42999 11.8099 7.41999 11.8399 7.40999 11.8799C7.39999 11.9199 7.39999 11.9599 7.39999 11.9999C7.39999 12.0399 7.39999 12.0799 7.40999 12.1199Z"></path><path id="直线 8 (轮廓)" fill-rule="evenodd" style="fill:#495AD4" opacity="1" d="M12.8 15.8001L12.8 15.8001C12.88 15.8001 12.96 15.7901 13.03 15.7601C13.1 15.7201 13.17 15.6801 13.22 15.6301C13.28 15.5701 13.32 15.5001 13.35 15.4301C13.38 15.3601 13.4 15.2801 13.4 15.2001C13.4 15.1601 13.4 15.1201 13.39 15.0801C13.38 15.0501 13.37 15.0101 13.35 14.9701C13.34 14.9301 13.32 14.9001 13.3 14.8701C13.28 14.8301 13.25 14.8001 13.22 14.7801C13.2 14.7501 13.17 14.7201 13.13 14.7001C13.1 14.6801 13.07 14.6601 13.03 14.6501C12.99 14.6301 12.96 14.6201 12.92 14.6101C12.88 14.6001 12.84 14.6001 12.8 14.6001L12.8 15.2001L12.8 14.6001L7.99999 14.6001C7.95999 14.6001 7.91999 14.6001 7.87999 14.6101C7.83999 14.6201 7.80999 14.6301 7.76999 14.6501C7.72999 14.6601 7.69999 14.6801 7.66999 14.7001C7.62999 14.7201 7.59999 14.7501 7.57999 14.7801C7.54999 14.8001 7.51999 14.8301 7.49999 14.8701C7.47999 14.9001 7.45999 14.9301 7.44999 14.9701C7.42999 15.0101 7.41999 15.0401 7.40999 15.0801C7.39999 15.1201 7.39999 15.1601 7.39999 15.2001C7.39999 15.2401 7.39999 15.2801 7.40999 15.3201C7.41999 15.3601 7.42999 15.3901 7.44999 15.4301C7.45999 15.4701 7.47999 15.5001 7.49999 15.5301C7.51999 15.5701 7.54999 15.6001 7.57999 15.6201C7.59999 15.6501 7.62999 15.6801 7.66999 15.7001C7.69999 15.7201 7.72999 15.7401 7.76999 15.7501C7.80999 15.7701 7.83999 15.7801 7.87999 15.7901C7.91999 15.8001 7.95999 15.8001 7.99999 15.8001L7.99999 15.2001L7.99999 15.8001L12.8 15.8001Z"></path></g></g><defs><rect id="path_0" x="0" y="0" width="24" height="24" /></defs></svg>