<svg xmlns="http://www.w3.org/2000/svg" xmlns:xlink="http://www.w3.org/1999/xlink" width="30" height="30" viewBox="0 0 30 30" fill="none">
<circle cx="15" cy="15" r="15"   fill="#495AD4" >
</circle>
<path d="M10.8736 7.63314C10.5945 7.40389 10.4165 7.05611 10.4165 6.66675C10.4165 5.97639 10.9761 5.41675 11.6665 5.41675C11.9739 5.41675 12.2554 5.52769 12.473 5.71173L22.4667 14.0398C22.7592 14.2932 22.9091 14.6132 22.9165 15.0001C22.9091 15.3869 22.7592 15.707 22.4667 15.9604L12.473 24.2884C12.2553 24.4724 11.9739 24.5834 11.6665 24.5834C10.9761 24.5834 10.4165 24.0237 10.4165 23.3334C10.4165 22.9441 10.5945 22.5963 10.8736 22.3671L19.7139 15.0001L10.8736 7.63314Z" fill-rule="evenodd"  fill="#FFFFFF" >
</path>
</svg>
