<svg xmlns="http://www.w3.org/2000/svg" xmlns:xlink="http://www.w3.org/1999/xlink" width="24" height="24"
  viewBox="0 0 24 24" fill="none">
  <g opacity="1" transform="translate(0 0)  rotate(0)">
    <mask id="bg-mask-0" fill="white">
      <use transform="translate(0 0)  rotate(0)" xlink:href="#path_0"></use>
    </mask>
    <g mask="url(#bg-mask-0)">
      <path id="路径 1 (轮廓)" fill-rule="evenodd" style="fill:#656A85" opacity="1"
        d="M14.78 15.62L14.78 15.62C14.88 15.73 15.03 15.8 15.2 15.8C15.53 15.8 15.8 15.53 15.8 15.2C15.8 15.03 15.73 14.88 15.62 14.78L15.62 14.78L9.22001 8.37995C9.12001 8.26995 8.97001 8.19995 8.80001 8.19995C8.47001 8.19995 8.20001 8.46995 8.20001 8.79995C8.20001 8.96995 8.27001 9.11995 8.38001 9.21995L14.78 15.62Z">
      </path>
      <path id="路径 2 (轮廓)" fill-rule="evenodd" style="fill:#656A85" opacity="1"
        d="M8.38001 14.78L8.38001 14.78C8.27001 14.88 8.20001 15.03 8.20001 15.2C8.20001 15.53 8.47001 15.8 8.80001 15.8C8.97001 15.8 9.12001 15.73 9.22001 15.62L9.22001 15.62L15.62 9.21995L15.62 9.21995C15.73 9.11995 15.8 8.96995 15.8 8.79995C15.8 8.46995 15.53 8.19995 15.2 8.19995C15.03 8.19995 14.88 8.26995 14.78 8.37995L14.78 8.37995L8.38001 14.78Z">
      </path>
      <path id="圆形 1 (轮廓)" fill-rule="evenodd" style="fill:#656A85" opacity="1"
        d="M12 4.19995C11.67 4.19995 11.4 4.46995 11.4 4.79995C11.4 5.12995 11.67 5.39995 12 5.39995C15.65 5.39995 18.6 8.34995 18.6 12C18.6 15.65 15.65 18.6 12 18.6C8.35001 18.6 5.40001 15.65 5.40001 12C5.40001 11.1 5.57001 10.25 5.92001 9.42995C6.25001 8.63995 6.73001 7.93995 7.33001 7.33995L7.33001 7.32995C7.44001 7.22995 7.51001 7.07995 7.51001 6.90995C7.51001 6.57995 7.24001 6.30995 6.91001 6.30995C6.72001 6.30995 6.54001 6.39995 6.44001 6.53995C5.74001 7.23995 5.20001 8.04995 4.81001 8.95995C4.40001 9.92995 4.20001 10.94 4.20001 12C4.20001 16.31 7.69001 19.8 12 19.8C16.31 19.8 19.8 16.31 19.8 12C19.8 7.68995 16.31 4.19995 12 4.19995Z">
      </path>
    </g>
  </g>
  <defs>
    <rect id="path_0" x="0" y="0" width="24" height="24" />
  </defs>
</svg>