<svg xmlns="http://www.w3.org/2000/svg" xmlns:xlink="http://www.w3.org/1999/xlink" width="16" height="16" viewBox="0 0 16 16" fill="none">
<path d="M12.659 3.65521C12.6538 3.62945 12.6463 3.60444 12.6362 3.58018C12.6261 3.55591 12.6138 3.53286 12.5992 3.51102C12.5847 3.48918 12.5681 3.46898 12.5495 3.45041C12.5309 3.43184 12.5107 3.41525 12.4889 3.40066C12.4671 3.38607 12.444 3.37375 12.4197 3.3637C12.3955 3.35365 12.3704 3.34606 12.3447 3.34094C12.3189 3.33581 12.2929 3.33325 12.2666 3.33325C12.2136 3.33325 12.1626 3.3434 12.1136 3.3637C12.0646 3.384 12.0213 3.4129 11.9838 3.45041L3.45047 11.9838C3.41296 12.0213 3.38406 12.0645 3.36376 12.1135C3.34346 12.1625 3.33331 12.2135 3.33331 12.2666C3.33331 12.2929 3.33587 12.3189 3.341 12.3446C3.34612 12.3704 3.35371 12.3954 3.36376 12.4196C3.37381 12.4439 3.38613 12.467 3.40072 12.4888C3.41532 12.5107 3.4319 12.5308 3.45047 12.5494C3.46904 12.568 3.48925 12.5846 3.51108 12.5992C3.53292 12.6137 3.55597 12.6261 3.58024 12.6361C3.6045 12.6462 3.62951 12.6538 3.65527 12.6589C3.68103 12.664 3.70704 12.6666 3.73331 12.6666C3.78635 12.6666 3.83738 12.6564 3.88638 12.6361C3.93539 12.6158 3.97864 12.5869 4.01615 12.5494L12.5495 4.01609C12.587 3.97858 12.6159 3.93532 12.6362 3.88632C12.6565 3.83731 12.6666 3.78629 12.6666 3.73325C12.6666 3.70698 12.6641 3.68097 12.659 3.65521Z"   fill="#656A85" >
</path>
<path d="M3.45047 4.01609L11.9838 12.5494C12.0213 12.5869 12.0646 12.6158 12.1136 12.6361C12.1626 12.6564 12.2136 12.6666 12.2666 12.6666C12.2929 12.6666 12.3189 12.664 12.3447 12.6589C12.3704 12.6538 12.3955 12.6462 12.4197 12.6361C12.444 12.6261 12.4671 12.6137 12.4889 12.5992C12.5107 12.5846 12.5309 12.568 12.5495 12.5494C12.5681 12.5308 12.5847 12.5107 12.5992 12.4888C12.6138 12.467 12.6261 12.4439 12.6362 12.4196C12.6463 12.3954 12.6538 12.3704 12.659 12.3446C12.6641 12.3189 12.6666 12.2929 12.6666 12.2666C12.6666 12.2135 12.6565 12.1625 12.6362 12.1135C12.6159 12.0645 12.587 12.0213 12.5495 11.9838L4.01615 3.45041L4.01615 3.45041C3.97864 3.4129 3.93539 3.384 3.88638 3.3637C3.83738 3.3434 3.78635 3.33325 3.73331 3.33325C3.70704 3.33325 3.68103 3.33581 3.65527 3.34094C3.62951 3.34606 3.6045 3.35365 3.58024 3.3637C3.55597 3.37375 3.53292 3.38607 3.51108 3.40066C3.48925 3.41525 3.46904 3.43184 3.45047 3.45041C3.4319 3.46898 3.41532 3.48918 3.40072 3.51102C3.38613 3.53286 3.37381 3.55591 3.36376 3.58018C3.35371 3.60444 3.34612 3.62945 3.341 3.65521C3.33587 3.68097 3.33331 3.70698 3.33331 3.73325C3.33331 3.78629 3.34346 3.83731 3.36376 3.88632C3.38406 3.93532 3.41296 3.97858 3.45047 4.01609L3.45047 4.01609Z"   fill="#656A85" >
</path>
</svg>
