<svg xmlns="http://www.w3.org/2000/svg" xmlns:xlink="http://www.w3.org/1999/xlink" width="24" height="24"
  viewBox="0 0 24 24" fill="none">
  <g opacity="1" transform="translate(0 0)  rotate(0)">
    <mask id="bg-mask-0" fill="white">
      <use xlink:href="#path_0"></use>
    </mask>
    <g mask="url(#bg-mask-0)">
      <path id="路径 2 (轮廓)" fill-rule="evenodd" style="fill:#A0A3B8" opacity="1"
        d="M18.99 5.48C18.98 5.44 18.97 5.41 18.95 5.37C18.94 5.33 18.92 5.3 18.9 5.27C18.88 5.23 18.85 5.2 18.82 5.18C18.8 5.15 18.77 5.12 18.73 5.1C18.7 5.08 18.67 5.06 18.63 5.05C18.59 5.03 18.56 5.02 18.52 5.01C18.48 5 18.44 5 18.4 5C18.32 5 18.24 5.02 18.17 5.05C18.1 5.08 18.03 5.12 17.98 5.18L5.18 17.98C5.12 18.03 5.08 18.1 5.05 18.17C5.02 18.24 5 18.32 5 18.4C5 18.44 5 18.48 5.01 18.52C5.02 18.56 5.03 18.59 5.05 18.63C5.06 18.67 5.08 18.7 5.1 18.73C5.12 18.77 5.15 18.8 5.18 18.82C5.2 18.85 5.23 18.88 5.27 18.9C5.3 18.92 5.33 18.94 5.37 18.95C5.41 18.97 5.44 18.98 5.48 18.99C5.52 19 5.56 19 5.6 19C5.68 19 5.76 18.98 5.83 18.95C5.9 18.92 5.97 18.88 6.02 18.82L18.82 6.02C18.88 5.97 18.92 5.9 18.95 5.83C18.98 5.76 19 5.68 19 5.6C19 5.56 19 5.52 18.99 5.48Z">
      </path>
      <path id="路径 1 (轮廓)" fill-rule="evenodd" style="fill:#A0A3B8" opacity="1"
        d="M5.18 6.02L17.98 18.82C18.03 18.88 18.1 18.92 18.17 18.95C18.24 18.98 18.32 19 18.4 19C18.44 19 18.48 19 18.52 18.99C18.56 18.98 18.59 18.97 18.63 18.95C18.67 18.94 18.7 18.92 18.73 18.9C18.77 18.88 18.8 18.85 18.82 18.82C18.85 18.8 18.88 18.77 18.9 18.73C18.92 18.7 18.94 18.67 18.95 18.63C18.97 18.59 18.98 18.56 18.99 18.52C19 18.48 19 18.44 19 18.4C19 18.32 18.98 18.24 18.95 18.17C18.92 18.1 18.88 18.03 18.82 17.98L6.02 5.18C5.97 5.12 5.9 5.08 5.83 5.05C5.76 5.02 5.68 5 5.6 5C5.56 5 5.52 5 5.48 5.01C5.44 5.02 5.41 5.03 5.37 5.05C5.33 5.06 5.3 5.08 5.27 5.1C5.23 5.12 5.2 5.15 5.18 5.18C5.15 5.2 5.12 5.23 5.1 5.27C5.08 5.3 5.06 5.33 5.05 5.37C5.03 5.41 5.02 5.44 5.01 5.48C5 5.52 5 5.56 5 5.6C5 5.68 5.02 5.76 5.05 5.83C5.08 5.9 5.12 5.97 5.18 6.02Z">
      </path>
    </g>
  </g>
  <defs>
    <rect id="path_0" x="0" y="0" width="24" height="24" />
  </defs>
</svg>