<svg xmlns="http://www.w3.org/2000/svg" xmlns:xlink="http://www.w3.org/1999/xlink" width="14" height="14" viewBox="0 0 14 14" fill="none"><g opacity="1"  transform="translate(0 0)  rotate(0)"><mask id="bg-mask-0" fill="white"><use xlink:href="#path_0"></use></mask><g mask="url(#bg-mask-0)" ><path id="圆形 1 (轮廓)" fill-rule="evenodd" style="fill:#656A85" opacity="1" d="M9.5468,0.97668c0.78,0.33 1.47,0.8 2.07,1.4c0.61,0.61 1.07,1.3 1.4,2.08c0.35,0.81 0.52,1.66 0.52,2.54001c0,0.88999 -0.17,1.74 -0.52,2.54999c-0.33,0.78003 -0.79,1.47003 -1.4,2.07003c-0.6,0.61 -1.29,1.07 -2.07,1.4c-0.81,0.35 -1.66,0.52 -2.55,0.52c-0.88,0 -1.73,-0.17 -2.54,-0.52c-0.78,-0.33 -1.47,-0.79 -2.08,-1.4c-0.6,-0.6 -1.07,-1.29 -1.4,-2.07003c-0.34,-0.80999 -0.51,-1.66 -0.51,-2.54999c0,-0.88001 0.17,-1.73001 0.51,-2.54001c0.33,-0.78 0.8,-1.47 1.4,-2.08c0.61,-0.6 1.3,-1.07 2.08,-1.39999c0.81,-0.34 1.66,-0.51 2.54,-0.51c0.89,0 1.74,0.17 2.55,0.51zM3.0368,3.03667c-0.51,0.52 -0.91,1.11001 -1.2,1.78c-0.29,0.7 -0.44,1.42 -0.44,2.18001c0,0.75999 0.15,1.49 0.44,2.17999c0.29,0.67 0.69,1.27003 1.2,1.78003c0.52,0.52 1.11,0.92 1.78,1.2c0.7,0.3 1.42,0.44 2.18,0.44c0.76,0 1.49,-0.14 2.18,-0.44c0.67,-0.28 1.27,-0.68 1.78,-1.2c0.52,-0.51 0.92,-1.11003 1.2,-1.78003c0.3,-0.68999 0.44,-1.42 0.44,-2.17999c0,-0.76001 -0.14,-1.48001 -0.44,-2.18001c-0.28,-0.66999 -0.68,-1.26 -1.2,-1.78c-0.51,-0.51 -1.11,-0.91 -1.78,-1.2c-0.69,-0.29 -1.42,-0.44 -2.18,-0.44c-0.76,0 -1.48,0.15 -2.18,0.44c-0.67,0.29 -1.26,0.69 -1.78,1.2z"></path><path id="直线 1 (轮廓)" fill-rule="evenodd" style="fill:#656A85" opacity="1" d="M5.54642 4.81053C5.52496 4.78816 5.50203 4.76858 5.47693 4.75109C5.45184 4.73359 5.42457 4.71817 5.39653 4.70627C5.36921 4.69368 5.33969 4.68458 5.30943 4.67758C5.27985 4.67131 5.24953 4.66714 5.21911 4.66722C5.18873 4.66588 5.15826 4.66878 5.12845 4.67382C5.09792 4.67955 5.06805 4.68741 5.04023 4.69886C5.01171 4.70958 4.98383 4.72385 4.95803 4.74029C4.93223 4.75673 4.9085 4.77533 4.88613 4.79679C4.86448 4.81756 4.84418 4.84118 4.82669 4.86628C4.80919 4.89138 4.79449 4.91795 4.78259 4.94599C4.76928 4.974 4.7609 5.00282 4.7539 5.03309C4.74763 5.06267 4.74346 5.09299 4.74282 5.1241C4.7422 5.15379 4.74438 5.18495 4.74942 5.21476C4.75515 5.2453 4.76373 5.27447 4.77446 5.30299C4.78518 5.3315 4.80017 5.35869 4.81661 5.38449C4.83305 5.41029 4.85165 5.43402 4.87311 5.45639L8.45409 9.18956C8.47555 9.21193 8.49848 9.2315 8.52358 9.249C8.54868 9.26649 8.57452 9.28188 8.60257 9.29378C8.6313 9.3064 8.6601 9.3162 8.68967 9.32247C8.71994 9.32947 8.75029 9.33222 8.78068 9.33356C8.81178 9.33421 8.84225 9.3313 8.87206 9.32627C8.9026 9.32054 8.93105 9.31264 8.96029 9.30123C8.9888 9.2905 9.01596 9.27692 9.04176 9.26049C9.06756 9.24405 9.09201 9.22475 9.11366 9.20399C9.13603 9.18253 9.15561 9.15959 9.1731 9.1345C9.1906 9.1094 9.20602 9.08214 9.21792 9.0541C9.22982 9.02605 9.23961 8.99726 9.24661 8.96699C9.25288 8.93742 9.25705 8.90709 9.25697 8.87668C9.25762 8.84557 9.25541 8.81582 9.24968 8.78529C9.24464 8.75548 9.23678 8.72561 9.22464 8.69707C9.21392 8.66856 9.20034 8.6414 9.1839 8.61559C9.16746 8.58979 9.14886 8.56606 9.1274 8.54369L5.54642 4.81053Z"></path><path id="直线 1 (轮廓)" fill-rule="evenodd" style="fill:#656A85" opacity="1" d="M4.84145 8.49876C4.81953 8.52068 4.80044 8.54402 4.78347 8.56947C4.7665 8.59493 4.75165 8.6225 4.74033 8.65079C4.72831 8.67837 4.71983 8.70806 4.71346 8.73847C4.70781 8.76817 4.70427 8.79857 4.70498 8.82898C4.70427 8.85939 4.70781 8.88979 4.71346 8.91949C4.71983 8.94989 4.72831 8.97959 4.74033 9.00717C4.75165 9.03545 4.7665 9.06303 4.78347 9.08849C4.80044 9.11394 4.81953 9.13728 4.84145 9.1592C4.86266 9.18041 4.8867 9.20021 4.91216 9.21718C4.93762 9.23415 4.96449 9.24829 4.99277 9.25961C5.02105 9.27234 5.05005 9.28011 5.08045 9.28648C5.11015 9.29213 5.14056 9.29567 5.17167 9.29567C5.20137 9.29567 5.23248 9.29284 5.26218 9.28718C5.29258 9.28082 5.32157 9.27163 5.34986 9.26031C5.37814 9.249 5.40501 9.23344 5.43047 9.21647C5.45592 9.1995 5.47926 9.18041 5.50118 9.15849L9.15904 5.50063C9.18096 5.47871 9.20006 5.45537 9.21703 5.42992C9.234 5.40446 9.24885 5.3783 9.26016 5.35001C9.27218 5.32102 9.28137 5.29203 9.28703 5.26233C9.29339 5.23193 9.29552 5.20152 9.29622 5.17112C9.29622 5.14 9.29269 5.1096 9.28703 5.0799C9.28067 5.04949 9.27218 5.02121 9.26016 4.99222C9.24885 4.96393 9.2347 4.93706 9.21773 4.91161C9.20076 4.88615 9.18096 4.86211 9.15975 4.8409C9.13783 4.81898 9.1145 4.79988 9.08904 4.78291C9.06359 4.76594 9.03601 4.75109 9.00772 4.73978C8.97944 4.72847 8.95045 4.71927 8.92004 4.71291C8.89034 4.70725 8.85994 4.70372 8.82953 4.70443C8.79842 4.70443 8.76872 4.70725 8.73832 4.71362C8.70862 4.71927 8.67892 4.72776 8.65063 4.74049C8.62235 4.7518 8.59548 4.76594 8.57002 4.78291C8.54457 4.79988 8.52123 4.81898 8.49931 4.8409L4.84145 8.49876Z"></path></g></g><defs><rect id="path_0" x="0" y="0" width="14" height="14" /></defs></svg>