<svg xmlns="http://www.w3.org/2000/svg" xmlns:xlink="http://www.w3.org/1999/xlink" width="24" height="24" viewBox="0 0 24 24" fill="none"><path d="M12.4485 23.5986L18.8485 16.3986L18.8485 16.3986C18.8746 16.3692 18.8977 16.3375 18.9176 16.3035C18.9375 16.2695 18.9539 16.2339 18.9669 16.1967C18.9798 16.1595 18.9889 16.1213 18.9943 16.0823C18.9997 16.0433 19.0013 16.0041 18.999 15.9648C18.9967 15.9255 18.9905 15.8867 18.9806 15.8486C18.9706 15.8105 18.9571 15.7737 18.9399 15.7383C18.9227 15.7028 18.9022 15.6694 18.8785 15.638C18.8547 15.6065 18.8281 15.5778 18.7986 15.5516C18.7692 15.5254 18.7375 15.5024 18.7035 15.4824C18.6695 15.4625 18.6339 15.4461 18.5967 15.4332C18.5595 15.4203 18.5213 15.4111 18.4823 15.4057C18.4433 15.4003 18.4041 15.3987 18.3648 15.4011C18.3254 15.4034 18.2867 15.4095 18.2486 15.4194C18.2105 15.4294 18.1737 15.4429 18.1382 15.4601C18.1028 15.4773 18.0694 15.4978 18.038 15.5216C18.0065 15.5453 17.9777 15.572 17.9516 15.6014L17.9516 15.6014L11.5516 22.8014C11.5254 22.8309 11.5023 22.8626 11.4824 22.8965C11.4625 22.9305 11.4461 22.9662 11.4332 23.0034C11.4203 23.0406 11.4111 23.0787 11.4057 23.1177C11.4003 23.1568 11.3987 23.1959 11.4011 23.2352C11.4034 23.2746 11.4095 23.3133 11.4194 23.3514C11.4294 23.3895 11.4429 23.4263 11.4601 23.4618C11.4773 23.4972 11.4978 23.5307 11.5216 23.5621C11.5453 23.5935 11.5719 23.6223 11.6014 23.6485C11.6308 23.6746 11.6625 23.6977 11.6965 23.7176C11.7305 23.7376 11.7661 23.754 11.8033 23.7669C11.8406 23.7798 11.8787 23.7889 11.9177 23.7943C11.9567 23.7998 11.9959 23.8013 12.0353 23.799C12.0746 23.7967 12.1133 23.7906 12.1514 23.7806C12.1896 23.7706 12.2263 23.7571 12.2618 23.7399C12.2972 23.7227 12.3306 23.7023 12.3621 23.6785C12.3935 23.6547 12.4223 23.6281 12.4485 23.5986Z"   fill="#A0A3B8" ></path><path d="M12.4485 16.3984L18.8485 9.19844L18.8485 9.19844C18.8746 9.16899 18.8977 9.13728 18.9176 9.10329C18.9375 9.06931 18.9539 9.0337 18.9669 8.99648C18.9798 8.95926 18.9889 8.92114 18.9943 8.88212C18.9997 8.84309 19.0013 8.80392 18.999 8.76459C18.9967 8.72526 18.9905 8.68654 18.9806 8.64842C18.9706 8.61029 18.9571 8.57351 18.9399 8.53806C18.9227 8.50261 18.9022 8.46918 18.8785 8.43776C18.8547 8.40635 18.8281 8.37755 18.7986 8.35138C18.7692 8.32521 18.7375 8.30216 18.7035 8.28223C18.6695 8.26231 18.6339 8.24589 18.5967 8.23297C18.5595 8.22006 18.5213 8.2109 18.4823 8.2055C18.4433 8.2001 18.4041 8.19855 18.3648 8.20086C18.3254 8.20318 18.2867 8.2093 18.2486 8.21925C18.2105 8.22919 18.1737 8.24275 18.1382 8.25994C18.1028 8.27713 18.0694 8.29761 18.038 8.32138C18.0065 8.34515 17.9777 8.37176 17.9516 8.40121L17.9516 8.4012L11.5516 15.6012C11.5254 15.6307 11.5023 15.6624 11.4824 15.6963C11.4625 15.7304 11.4461 15.766 11.4332 15.8032C11.4203 15.8404 11.4111 15.8785 11.4057 15.9175C11.4003 15.9566 11.3987 15.9957 11.4011 16.035C11.4034 16.0744 11.4095 16.1131 11.4194 16.1512C11.4294 16.1893 11.4429 16.2261 11.4601 16.2616C11.4773 16.2971 11.4978 16.3305 11.5216 16.3619C11.5453 16.3933 11.5719 16.4221 11.6014 16.4483C11.6308 16.4744 11.6625 16.4975 11.6965 16.5174C11.7305 16.5374 11.7661 16.5538 11.8033 16.5667C11.8406 16.5796 11.8787 16.5887 11.9177 16.5942C11.9567 16.5996 11.9959 16.6011 12.0353 16.5988C12.0746 16.5965 12.1133 16.5904 12.1514 16.5804C12.1896 16.5704 12.2263 16.5569 12.2618 16.5397C12.2972 16.5225 12.3306 16.5021 12.3621 16.4783C12.3935 16.4545 12.4223 16.4279 12.4485 16.3984Z"   fill="#A0A3B8" ></path><path d="M12.4485 9.19923L18.8485 1.99922L18.8485 1.99922C18.8746 1.96977 18.8977 1.93806 18.9176 1.90407C18.9375 1.87009 18.9539 1.83448 18.9669 1.79726C18.9798 1.76004 18.9889 1.72192 18.9943 1.6829C18.9997 1.64388 19.0013 1.6047 18.999 1.56537C18.9967 1.52604 18.9905 1.48732 18.9806 1.4492C18.9706 1.41108 18.9571 1.37429 18.9399 1.33884C18.9227 1.30339 18.9022 1.26996 18.8785 1.23854C18.8547 1.20713 18.8281 1.17834 18.7986 1.15216C18.7692 1.12599 18.7375 1.10294 18.7035 1.08301C18.6695 1.06309 18.6339 1.04667 18.5967 1.03375C18.5595 1.02084 18.5213 1.01168 18.4823 1.00628C18.4433 1.00088 18.4041 0.999332 18.3648 1.00164C18.3254 1.00396 18.2867 1.01009 18.2486 1.02003C18.2105 1.02997 18.1737 1.04353 18.1382 1.06072C18.1028 1.07791 18.0694 1.09839 18.038 1.12216C18.0065 1.14594 17.9777 1.17254 17.9516 1.20199L17.9516 1.20199L11.5516 8.40199C11.5254 8.43145 11.5023 8.46316 11.4824 8.49713C11.4625 8.53114 11.4461 8.56674 11.4332 8.60394C11.4203 8.64114 11.4111 8.67927 11.4057 8.71833C11.4003 8.75735 11.3987 8.79651 11.4011 8.83583C11.4034 8.87518 11.4095 8.91391 11.4194 8.95202C11.4294 8.99012 11.4429 9.02691 11.4601 9.06237C11.4773 9.09783 11.4978 9.13127 11.5216 9.16268C11.5453 9.19409 11.5719 9.22288 11.6014 9.24905C11.6308 9.27523 11.6625 9.29828 11.6965 9.31821C11.7305 9.33814 11.7661 9.35456 11.8033 9.36745C11.8406 9.38036 11.8787 9.38951 11.9177 9.39493C11.9567 9.40035 11.9959 9.40189 12.0353 9.39955C12.0746 9.39725 12.1133 9.39114 12.1514 9.3812C12.1896 9.37123 12.2263 9.35766 12.2618 9.34049C12.2972 9.32332 12.3306 9.30284 12.3621 9.27904C12.3935 9.25529 12.4223 9.22868 12.4485 9.19923Z"   fill="#A0A3B8" ></path><path d="M5.15158 16.3984L11.5516 23.5984L11.5516 23.5984C11.5778 23.6279 11.6066 23.6545 11.638 23.6783C11.6694 23.702 11.7028 23.7225 11.7383 23.7397C11.7737 23.7569 11.8105 23.7705 11.8486 23.7804C11.8867 23.7903 11.9255 23.7965 11.9648 23.7988C12.0041 23.8011 12.0433 23.7995 12.0823 23.7941C12.1213 23.7887 12.1595 23.7796 12.1967 23.7667C12.2339 23.7538 12.2695 23.7373 12.3035 23.7174C12.3375 23.6975 12.3692 23.6744 12.3986 23.6483C12.4281 23.6221 12.4547 23.5933 12.4785 23.5619C12.5022 23.5305 12.5227 23.497 12.5399 23.4616C12.5571 23.4261 12.5707 23.3893 12.5806 23.3512C12.5905 23.3131 12.5967 23.2744 12.599 23.235C12.6013 23.1957 12.5998 23.1565 12.5943 23.1175C12.5889 23.0785 12.5798 23.0404 12.5669 23.0032C12.554 22.9659 12.5375 22.9303 12.5176 22.8963C12.4977 22.8624 12.4746 22.8306 12.4485 22.8012L12.4485 22.8012L6.04846 15.6012C6.02228 15.5717 5.99349 15.5451 5.96209 15.5214C5.93066 15.4976 5.89722 15.4771 5.86179 15.4599C5.82636 15.4428 5.78957 15.4292 5.75142 15.4192C5.7133 15.4093 5.67459 15.4032 5.63527 15.4009C5.59592 15.3985 5.55674 15.4001 5.51773 15.4055C5.47872 15.4109 5.4406 15.4201 5.40336 15.433C5.36613 15.4459 5.33053 15.4623 5.29655 15.4822C5.26256 15.5021 5.23085 15.5252 5.20141 15.5514C5.17196 15.5775 5.14535 15.6063 5.12157 15.6377C5.0978 15.6692 5.07732 15.7026 5.06014 15.7381C5.04297 15.7735 5.0294 15.8103 5.01944 15.8484C5.00949 15.8865 5.00337 15.9252 5.00108 15.9646C4.99875 16.0039 5.00029 16.0431 5.00568 16.0821C5.01112 16.1211 5.02028 16.1593 5.03318 16.1965C5.04607 16.2337 5.06249 16.2693 5.08244 16.3033C5.10235 16.3373 5.12539 16.369 5.15158 16.3984Z"   fill="#A0A3B8" ></path><path d="M5.15158 9.19921L11.5516 16.3992L11.5516 16.3992C11.5778 16.4287 11.6066 16.4553 11.638 16.479C11.6694 16.5028 11.7028 16.5233 11.7383 16.5405C11.7737 16.5577 11.8105 16.5712 11.8486 16.5812C11.8867 16.5911 11.9255 16.5972 11.9648 16.5996C12.0041 16.6019 12.0433 16.6003 12.0823 16.5949C12.1213 16.5895 12.1595 16.5804 12.1967 16.5674C12.2339 16.5545 12.2695 16.5381 12.3035 16.5182C12.3375 16.4983 12.3692 16.4752 12.3986 16.449C12.4281 16.4229 12.4547 16.3941 12.4785 16.3627C12.5022 16.3312 12.5227 16.2978 12.5399 16.2624C12.5571 16.2269 12.5707 16.1901 12.5806 16.152C12.5905 16.1139 12.5967 16.0752 12.599 16.0358C12.6013 15.9965 12.5998 15.9573 12.5943 15.9183C12.5889 15.8793 12.5798 15.8412 12.5669 15.8039C12.554 15.7667 12.5375 15.7311 12.5176 15.6971C12.4977 15.6631 12.4746 15.6314 12.4485 15.602L12.4485 15.602L6.04846 8.40198C6.02228 8.37252 5.99349 8.34591 5.96209 8.32216C5.93066 8.29837 5.89723 8.27789 5.86179 8.26072C5.82636 8.24355 5.78957 8.22997 5.75142 8.22C5.7133 8.21007 5.67459 8.20395 5.63527 8.20165C5.59592 8.19931 5.55674 8.20085 5.51773 8.20627C5.47872 8.21169 5.4406 8.22085 5.40337 8.23375C5.36613 8.24665 5.33053 8.26306 5.29655 8.28299C5.26256 8.30292 5.23085 8.32597 5.20141 8.35215C5.17196 8.37832 5.14535 8.40711 5.12157 8.43852C5.0978 8.46993 5.07732 8.50337 5.06014 8.53883C5.04297 8.57429 5.0294 8.61108 5.01944 8.64919C5.00949 8.68729 5.00337 8.72602 5.00108 8.76538C4.99875 8.80469 5.00029 8.84386 5.00568 8.88287C5.01112 8.92193 5.02028 8.96006 5.03318 8.99726C5.04607 9.03446 5.06249 9.07007 5.08244 9.10407C5.10235 9.13804 5.12539 9.16975 5.15158 9.19921Z"   fill="#A0A3B8" ></path><path d="M5.15158 1.99804L11.5516 9.19804L11.5516 9.19804C11.5778 9.22748 11.6066 9.25409 11.638 9.27787C11.6694 9.30164 11.7028 9.32212 11.7383 9.33931C11.7737 9.3565 11.8105 9.37006 11.8486 9.38C11.8867 9.38994 11.9255 9.39607 11.9648 9.39838C12.0041 9.4007 12.0433 9.39915 12.0823 9.39375C12.1213 9.38835 12.1595 9.37919 12.1967 9.36627C12.2339 9.35336 12.2695 9.33694 12.3035 9.31702C12.3375 9.29709 12.3692 9.27404 12.3986 9.24787C12.4281 9.22169 12.4547 9.1929 12.4785 9.16148C12.5022 9.13007 12.5227 9.09664 12.5399 9.06119C12.5571 9.02574 12.5707 8.98895 12.5806 8.95083C12.5905 8.91271 12.5967 8.87399 12.599 8.83466C12.6013 8.79533 12.5998 8.75615 12.5943 8.71713C12.5889 8.67811 12.5798 8.63998 12.5669 8.60276C12.554 8.56555 12.5375 8.52994 12.5176 8.49596C12.4977 8.46197 12.4746 8.43026 12.4485 8.40081L12.4485 8.40081L6.04846 1.20081C6.02228 1.17135 5.99349 1.14474 5.96209 1.12099C5.93066 1.0972 5.89723 1.07671 5.86179 1.05954C5.82636 1.04237 5.78957 1.0288 5.75142 1.01883C5.7133 1.0089 5.67459 1.00278 5.63527 1.00048C5.59592 0.998137 5.55674 0.999677 5.51773 1.0051C5.47872 1.01051 5.4406 1.01967 5.40337 1.03257C5.36613 1.04547 5.33053 1.06189 5.29655 1.08182C5.26256 1.10175 5.23085 1.1248 5.20141 1.15098C5.17196 1.17715 5.14535 1.20594 5.12157 1.23735C5.0978 1.26876 5.07732 1.3022 5.06014 1.33766C5.04297 1.37312 5.0294 1.40991 5.01944 1.44801C5.00949 1.48612 5.00337 1.52485 5.00108 1.5642C4.99875 1.60352 5.00029 1.64269 5.00568 1.6817C5.01112 1.72076 5.02028 1.75889 5.03318 1.79609C5.04607 1.83329 5.06249 1.8689 5.08244 1.9029C5.10235 1.93687 5.12539 1.96858 5.15158 1.99804Z"   fill="#A0A3B8" ></path></svg>