<svg xmlns="http://www.w3.org/2000/svg" xmlns:xlink="http://www.w3.org/1999/xlink" width="16" height="16"
  viewBox="0 0 16 16" fill="none">
  <path
    d="M13.0505 4.51706L13.0503 4.51726L6.65068 10.9169L6.65048 10.9171C6.5781 10.9894 6.53333 11.0894 6.53333 11.1999C6.53333 11.4208 6.71241 11.5999 6.93333 11.5999C7.04378 11.5999 7.14378 11.5552 7.21617 11.4827L7.21637 11.4826L13.616 5.08294L13.6162 5.08275C13.6886 5.01036 13.7333 4.91036 13.7333 4.7999C13.7333 4.57899 13.5542 4.3999 13.3333 4.3999C13.2229 4.3999 13.1229 4.44467 13.0505 4.51706Z"
    fill-rule="evenodd" fill="#656A85">
  </path>
  <path
    d="M2.91715 7.74949L6.65048 11.4828C6.72286 11.5552 6.82286 11.6 6.93332 11.6C7.15423 11.6 7.33332 11.4209 7.33332 11.2C7.33332 11.0895 7.28855 10.9895 7.21616 10.9171L3.48283 7.18381C3.41044 7.11142 3.31044 7.06665 3.19999 7.06665C2.97907 7.06665 2.79999 7.24574 2.79999 7.46665C2.79999 7.57711 2.84476 7.67711 2.91715 7.74949Z"
    fill-rule="evenodd" fill="#656A85">
  </path>
</svg>