<svg xmlns="http://www.w3.org/2000/svg" xmlns:xlink="http://www.w3.org/1999/xlink" width="30" height="30"
  viewBox="0 0 30 30" fill="none">
  <g opacity="1" transform="translate(0 0)  rotate(0)">
    <mask id="bg-mask-0" fill="white">
      <use transform="translate(0 0)  rotate(0)" xlink:href="#path_0"></use>
    </mask>
    <g mask="url(#bg-mask-0)">
      <g opacity="1" transform="translate(6.25 6.25)  rotate(0)">
        <path id="路径 1 (轮廓)" fill-rule="evenodd" style="fill:#131926" opacity="1"
          d="M9.09,9.42c-0.06,0.03 -0.11,0.05 -0.17,0.06c-0.05,0.01 -0.11,0.02 -0.17,0.02c-0.06,0 -0.12,-0.01 -0.17,-0.02c-0.06,-0.01 -0.11,-0.03 -0.17,-0.06l-8,-4c-0.07,-0.04 -0.13,-0.08 -0.19,-0.14c-0.06,-0.06 -0.1,-0.12 -0.14,-0.19c-0.05,-0.09 -0.07,-0.19 -0.08,-0.29c-0.01,-0.1 0.01,-0.19 0.04,-0.29c0.03,-0.09 0.08,-0.18 0.14,-0.25c0.07,-0.08 0.15,-0.14 0.23,-0.18l8,-4c0.06,-0.03 0.11,-0.05 0.17,-0.06c0.05,-0.01 0.11,-0.02 0.17,-0.02c0.06,0 0.12,0.01 0.17,0.02c0.06,0.01 0.11,0.03 0.17,0.06l8,4c0.07,0.04 0.13,0.08 0.19,0.14c0.06,0.06 0.1,0.12 0.14,0.19c0.05,0.09 0.07,0.19 0.08,0.29c0.01,0.1 -0.01,0.19 -0.04,0.29c-0.03,0.09 -0.08,0.18 -0.14,0.25c-0.07,0.08 -0.15,0.14 -0.23,0.18zM2.43,4.75l6.32,3.16l6.32,-3.16l-6.32,-3.16z">
        </path>
        <path id="路径 1 (轮廓)" fill-rule="evenodd" style="fill:#495AD4" opacity="1"
          d="M16.99 8.04C16.89 8.01 16.8 7.99 16.7 8C16.6 8.01 16.5 8.03 16.41 8.08L8.75 11.91L1.09 8.08C1 8.03 0.9 8.01 0.8 8C0.7 7.99 0.61 8.01 0.51 8.04C0.42 8.07 0.33 8.12 0.26 8.18C0.18 8.25 0.12 8.33 0.08 8.41C0.03 8.5 0.01 8.6 0 8.7C-0.01 8.8 0.01 8.89 0.04 8.99C0.07 9.08 0.12 9.17 0.18 9.24C0.25 9.32 0.33 9.38 0.41 9.42L8.41 13.42C8.47 13.45 8.52 13.47 8.58 13.48C8.63 13.49 8.69 13.5 8.75 13.5C8.81 13.5 8.87 13.49 8.92 13.48C8.98 13.47 9.03 13.45 9.09 13.42L17.09 9.42C17.13 9.4 17.17 9.37 17.21 9.34C17.25 9.31 17.28 9.28 17.32 9.24C17.35 9.2 17.38 9.16 17.4 9.12C17.43 9.08 17.45 9.03 17.46 8.99C17.48 8.94 17.49 8.89 17.49 8.84C17.5 8.79 17.5 8.75 17.5 8.7C17.49 8.65 17.49 8.6 17.47 8.55C17.46 8.5 17.44 8.46 17.42 8.41C17.38 8.33 17.32 8.25 17.24 8.18C17.17 8.12 17.08 8.07 16.99 8.04Z">
        </path>
        <path id="路径 1 (轮廓)" fill-rule="evenodd" style="fill:#131926" opacity="1"
          d="M0.26 12.18C0.18 12.25 0.12 12.33 0.08 12.41C0.03 12.5 0.01 12.6 0 12.7C-0.01 12.8 0.01 12.89 0.04 12.99C0.07 13.08 0.12 13.17 0.18 13.24C0.25 13.32 0.33 13.38 0.41 13.42L8.41 17.42C8.47 17.45 8.52 17.47 8.58 17.48C8.63 17.49 8.69 17.5 8.75 17.5C8.81 17.5 8.87 17.49 8.92 17.48C8.98 17.47 9.03 17.45 9.09 17.42L17.09 13.42C17.13 13.4 17.17 13.37 17.21 13.34C17.25 13.31 17.28 13.28 17.32 13.24C17.35 13.2 17.38 13.16 17.4 13.12C17.43 13.08 17.45 13.03 17.46 12.99C17.48 12.94 17.49 12.89 17.49 12.84C17.5 12.79 17.5 12.75 17.5 12.7C17.49 12.65 17.49 12.6 17.47 12.55C17.46 12.5 17.44 12.46 17.42 12.41C17.38 12.33 17.32 12.25 17.24 12.18C17.17 12.12 17.08 12.07 16.99 12.04C16.89 12.01 16.8 11.99 16.7 12C16.6 12.01 16.5 12.03 16.41 12.08L8.75 15.91L1.09 12.08C1 12.03 0.9 12.01 0.8 12C0.7 11.99 0.61 12.01 0.51 12.04C0.42 12.07 0.33 12.12 0.26 12.18Z">
        </path>
      </g>
    </g>
  </g>
  <defs>
    <rect id="path_0" x="0" y="0" width="30" height="30" />
  </defs>
</svg>