<svg xmlns="http://www.w3.org/2000/svg" xmlns:xlink="http://www.w3.org/1999/xlink" width="30" height="30"
  viewBox="0 0 30 30" fill="none">
  <g opacity="1" transform="translate(0 0)  rotate(0)">
    <mask id="bg-mask-0" fill="white">
      <use transform="translate(0 0)  rotate(0)" xlink:href="#path_0"></use>
    </mask>
    <g mask="url(#bg-mask-0)">
      <g opacity="1" transform="translate(6.250030517578125 6.25)  rotate(0)">
        <path id="路径 3 (轮廓)" fill-rule="evenodd" style="fill:#A0A3B8" opacity="1"
          d="M0.749969 17.5L16.75 17.5C17.16 17.5 17.5 17.16 17.5 16.75C17.5 16.34 17.16 16 16.75 16L0.749969 16C0.339969 16 -3.05176e-05 16.34 -3.05176e-05 16.75C-3.05176e-05 17.16 0.339969 17.5 0.749969 17.5Z">
        </path>
        <path id="路径 3 (轮廓)" fill-rule="evenodd" style="fill:#A0A3B8" opacity="1"
          d="M0.749969 4.5L16.75 4.5C17.16 4.5 17.5 4.16 17.5 3.75C17.5 3.34 17.16 3 16.75 3L0.749969 3C0.339969 3 -3.05176e-05 3.34 -3.05176e-05 3.75C-3.05176e-05 4.16 0.339969 4.5 0.749969 4.5Z">
        </path>
        <path id="矩形 1 (轮廓)" fill-rule="evenodd" style="fill:#A0A3B8" opacity="1"
          d="M-0.00003,13.75v-13c0,-0.41 0.34,-0.75 0.75,-0.75h16.00003c0.41,0 0.75,0.34 0.75,0.75v13c0,0.41 -0.34,0.75 -0.75,0.75h-16.00003c-0.41,0 -0.75,-0.34 -0.75,-0.75zM1.49997,1.5v11.5h14.50003v-11.5z">
        </path>
      </g>
      <path id="直线 4 (轮廓)" fill-rule="evenodd" style="fill:#A0A3B8" opacity="1"
        d="M11 13.25L10 13.25C9.59 13.25 9.25 13.59 9.25 14C9.25 14.41 9.59 14.75 10 14.75L11 14.75C11.41 14.75 11.75 14.41 11.75 14C11.75 13.59 11.41 13.25 11 13.25Z">
      </path>
      <path id="直线 4 (轮廓)" fill-rule="evenodd" style="fill:#A0A3B8" opacity="1"
        d="M19 13.25L14 13.25C13.59 13.25 13.25 13.59 13.25 14C13.25 14.41 13.59 14.75 14 14.75L19 14.75C19.41 14.75 19.75 14.41 19.75 14C19.75 13.59 19.41 13.25 19 13.25Z">
      </path>
    </g>
  </g>
  <defs>
    <rect id="path_0" x="0" y="0" width="30" height="30" />
  </defs>
</svg>