<svg xmlns="http://www.w3.org/2000/svg" xmlns:xlink="http://www.w3.org/1999/xlink" width="30" height="30" viewBox="0 0 30 30" fill="none"><g opacity="1"  transform="translate(0 0)  rotate(0)"><mask id="bg-mask-0" fill="white"><use transform="translate(0 0)  rotate(NaN)" xlink:href="#path_0"></use></mask><g mask="url(#bg-mask-0)" ><g opacity="1"  transform="translate(9.9937744140625 5.99365234375)  rotate(0)"><path id="直线 1 (轮廓)" fill-rule="evenodd" style="fill:#A0A3B8" opacity="1" d="M4.67081 0.335566L0.672721 2.33461C0.297062 2.52244 0.153953 2.97413 0.337311 3.34084C0.520669 3.70756 0.967882 3.86408 1.34354 3.67625L5.34163 1.67721C5.70835 1.49385 5.8604 1.03769 5.67704 0.670977C5.49368 0.304261 5.03753 0.152209 4.67081 0.335566Z"></path><path id="直线 2 (轮廓)" fill-rule="evenodd" style="fill:#A0A3B8" opacity="1" d="M0.256226 3.00635L0.256226 8.00635C0.256226 8.41635 0.596226 8.75635 1.00623 8.75635C1.41623 8.75635 1.75623 8.41635 1.75623 8.00635L1.75623 3.00635C1.75623 2.59635 1.41623 2.25635 1.00623 2.25635C0.596226 2.25635 0.256226 2.59635 0.256226 3.00635Z"></path><path id="直线 3 (轮廓)" fill-rule="evenodd" style="fill:#A0A3B8" opacity="1" d="M0.670807 8.67705L4.6689 10.6761C5.04456 10.8639 5.49177 10.7074 5.67513 10.3407C5.85848 9.97397 5.71538 9.52228 5.33972 9.33445L1.34163 7.33541C0.974912 7.15205 0.518754 7.30411 0.335397 7.67082C0.152039 8.03754 0.304092 8.49369 0.670807 8.67705Z"></path><path id="直线 4 (轮廓)" fill-rule="evenodd" style="fill:#A0A3B8" opacity="1" d="M4.67081 1.67705L8.6689 3.6761C9.04456 3.86393 9.49177 3.7074 9.67513 3.34069C9.85848 2.97397 9.71538 2.52228 9.33972 2.33445L5.34163 0.33541C4.97491 0.152053 4.51875 0.304105 4.3354 0.67082C4.15204 1.03754 4.30409 1.49369 4.67081 1.67705Z"></path><path id="直线 5 (轮廓)" fill-rule="evenodd" style="fill:#A0A3B8" opacity="1" d="M8.25623 3.00635L8.25623 8.00635C8.25623 8.41635 8.59623 8.75635 9.00623 8.75635C9.41623 8.75635 9.75623 8.41635 9.75623 8.00635L9.75623 3.00635C9.75623 2.59635 9.41623 2.25635 9.00623 2.25635C8.59623 2.25635 8.25623 2.59635 8.25623 3.00635Z"></path><path id="直线 6 (轮廓)" fill-rule="evenodd" style="fill:#A0A3B8" opacity="1" d="M8.67081 7.33557L4.67272 9.33461C4.29706 9.52244 4.15395 9.97413 4.33731 10.3408C4.52067 10.7076 4.96788 10.8641 5.34354 10.6763L9.34163 8.67721C9.70835 8.49385 9.8604 8.03769 9.67704 7.67098C9.49368 7.30426 9.03753 7.15221 8.67081 7.33557Z"></path><path id="直线 7 (轮廓)" fill-rule="evenodd" style="fill:#A0A3B8" opacity="1" d="M0.670807 3.67705L4.6689 5.6761C5.04456 5.86392 5.49177 5.7074 5.67513 5.34069C5.85848 4.97397 5.71538 4.52228 5.33972 4.33445L1.34163 2.33541C0.974912 2.15205 0.518754 2.30411 0.335397 2.67082C0.152039 3.03754 0.304092 3.49369 0.670807 3.67705Z"></path><path id="直线 8 (轮廓)" fill-rule="evenodd" style="fill:#A0A3B8" opacity="1" d="M5.34164 5.67713L9.33973 3.67808C9.71539 3.49025 9.8585 3.03857 9.67514 2.67185C9.49178 2.30514 9.04457 2.14861 8.66891 2.33644L4.67082 4.33549C4.30411 4.51885 4.15205 4.975 4.33541 5.34172C4.51877 5.70843 4.97493 5.86049 5.34164 5.67713Z"></path></g><g opacity="1"  transform="translate(5.9937744140625 12.99365234375)  rotate(0)"><path id="直线 1 (轮廓)" fill-rule="evenodd" style="fill:#A0A3B8" opacity="1" d="M4.67081 0.335566L0.672721 2.33461C0.297062 2.52244 0.153953 2.97413 0.337311 3.34084C0.520669 3.70756 0.967882 3.86408 1.34354 3.67625L5.34163 1.67721C5.70835 1.49385 5.8604 1.03769 5.67704 0.670977C5.49368 0.304261 5.03753 0.152209 4.67081 0.335566Z"></path><path id="直线 2 (轮廓)" fill-rule="evenodd" style="fill:#A0A3B8" opacity="1" d="M0.256226 3.00635L0.256226 8.00635C0.256226 8.41635 0.596226 8.75635 1.00623 8.75635C1.41623 8.75635 1.75623 8.41635 1.75623 8.00635L1.75623 3.00635C1.75623 2.59635 1.41623 2.25635 1.00623 2.25635C0.596226 2.25635 0.256226 2.59635 0.256226 3.00635Z"></path><path id="直线 3 (轮廓)" fill-rule="evenodd" style="fill:#A0A3B8" opacity="1" d="M0.670807 8.67705L4.6689 10.6761C5.04456 10.8639 5.49177 10.7074 5.67513 10.3407C5.85848 9.97397 5.71538 9.52228 5.33972 9.33445L1.34163 7.33541C0.974912 7.15205 0.518754 7.30411 0.335397 7.67082C0.152039 8.03754 0.304092 8.49369 0.670807 8.67705Z"></path><path id="直线 5 (轮廓)" fill-rule="evenodd" style="fill:#A0A3B8" opacity="1" d="M8.25623 3.00635L8.25623 8.00635C8.25623 8.41635 8.59623 8.75635 9.00623 8.75635C9.41623 8.75635 9.75623 8.41635 9.75623 8.00635L9.75623 3.00635C9.75623 2.59635 9.41623 2.25635 9.00623 2.25635C8.59623 2.25635 8.25623 2.59635 8.25623 3.00635Z"></path><path id="直线 6 (轮廓)" fill-rule="evenodd" style="fill:#A0A3B8" opacity="1" d="M8.67081 7.33557L4.67272 9.33461C4.29706 9.52244 4.15395 9.97413 4.33731 10.3408C4.52067 10.7076 4.96788 10.8641 5.34354 10.6763L9.34163 8.67721C9.70835 8.49385 9.8604 8.03769 9.67704 7.67098C9.49368 7.30426 9.03753 7.15221 8.67081 7.33557Z"></path><path id="直线 7 (轮廓)" fill-rule="evenodd" style="fill:#A0A3B8" opacity="1" d="M0.670807 3.67705L4.6689 5.6761C5.04456 5.86392 5.49177 5.7074 5.67513 5.34069C5.85848 4.97397 5.71538 4.52228 5.33972 4.33445L1.34163 2.33541C0.974912 2.15205 0.518754 2.30411 0.335397 2.67082C0.152039 3.03754 0.304092 3.49369 0.670807 3.67705Z"></path><path id="直线 8 (轮廓)" fill-rule="evenodd" style="fill:#A0A3B8" opacity="1" d="M5.34164 5.67713L9.33973 3.67808C9.71539 3.49025 9.8585 3.03857 9.67514 2.67185C9.49178 2.30514 9.04457 2.14861 8.66891 2.33644L4.67082 4.33549C4.30411 4.51885 4.15205 4.975 4.33541 5.34172C4.51877 5.70843 4.97493 5.86049 5.34164 5.67713Z"></path></g><g opacity="1"  transform="translate(13.9937744140625 12.99365234375)  rotate(0)"><path id="直线 2 (轮廓)" fill-rule="evenodd" style="fill:#A0A3B8" opacity="1" d="M0.256226 3.00635L0.256226 8.00635C0.256226 8.41635 0.596226 8.75635 1.00623 8.75635C1.41623 8.75635 1.75623 8.41635 1.75623 8.00635L1.75623 3.00635C1.75623 2.59635 1.41623 2.25635 1.00623 2.25635C0.596226 2.25635 0.256226 2.59635 0.256226 3.00635Z"></path><path id="直线 3 (轮廓)" fill-rule="evenodd" style="fill:#A0A3B8" opacity="1" d="M0.670807 8.67705L4.6689 10.6761C5.04456 10.8639 5.49177 10.7074 5.67513 10.3407C5.85848 9.97397 5.71538 9.52228 5.33972 9.33445L1.34163 7.33541C0.974912 7.15205 0.518754 7.30411 0.335397 7.67082C0.152039 8.03754 0.304092 8.49369 0.670807 8.67705Z"></path><path id="直线 4 (轮廓)" fill-rule="evenodd" style="fill:#A0A3B8" opacity="1" d="M4.67081 1.67705L8.6689 3.6761C9.04456 3.86393 9.49177 3.7074 9.67513 3.34069C9.85848 2.97397 9.71538 2.52228 9.33972 2.33445L5.34163 0.33541C4.97491 0.152053 4.51875 0.304105 4.3354 0.67082C4.15204 1.03754 4.30409 1.49369 4.67081 1.67705Z"></path><path id="直线 5 (轮廓)" fill-rule="evenodd" style="fill:#A0A3B8" opacity="1" d="M8.25623 3.00635L8.25623 8.00635C8.25623 8.41635 8.59623 8.75635 9.00623 8.75635C9.41623 8.75635 9.75623 8.41635 9.75623 8.00635L9.75623 3.00635C9.75623 2.59635 9.41623 2.25635 9.00623 2.25635C8.59623 2.25635 8.25623 2.59635 8.25623 3.00635Z"></path><path id="直线 6 (轮廓)" fill-rule="evenodd" style="fill:#A0A3B8" opacity="1" d="M8.67081 7.33557L4.67272 9.33461C4.29706 9.52244 4.15395 9.97413 4.33731 10.3408C4.52067 10.7076 4.96788 10.8641 5.34354 10.6763L9.34163 8.67721C9.70835 8.49385 9.8604 8.03769 9.67704 7.67098C9.49368 7.30426 9.03753 7.15221 8.67081 7.33557Z"></path><path id="直线 7 (轮廓)" fill-rule="evenodd" style="fill:#A0A3B8" opacity="1" d="M0.670807 3.67705L4.6689 5.6761C5.04456 5.86392 5.49177 5.7074 5.67513 5.34069C5.85848 4.97397 5.71538 4.52228 5.33972 4.33445L1.34163 2.33541C0.974912 2.15205 0.518754 2.30411 0.335397 2.67082C0.152039 3.03754 0.304092 3.49369 0.670807 3.67705Z"></path><path id="直线 8 (轮廓)" fill-rule="evenodd" style="fill:#A0A3B8" opacity="1" d="M5.34164 5.67713L9.33973 3.67808C9.71539 3.49025 9.8585 3.03857 9.67514 2.67185C9.49178 2.30514 9.04457 2.14861 8.66891 2.33644L4.67082 4.33549C4.30411 4.51885 4.15205 4.975 4.33541 5.34172C4.51877 5.70843 4.97493 5.86049 5.34164 5.67713Z"></path></g></g></g><defs><rect id="path_0" x="0" y="0" width="30" height="30" /></defs></svg>