<svg xmlns="http://www.w3.org/2000/svg" xmlns:xlink="http://www.w3.org/1999/xlink" width="24" height="24" viewBox="0 0 24 24" fill="none"><g opacity="1"  transform="translate(0 0)  rotate(0)"><mask id="bg-mask-0" fill="white"><use xlink:href="#path_0"></use></mask><g mask="url(#bg-mask-0)" ><path id="矩形 2 (轮廓)" fill-rule="evenodd" style="fill:#656A85" opacity="1" d="M9.7998,14.3998v-8c0,-0.04 0,-0.08 0.01,-0.12c0.01001,-0.04 0.02,-0.07 0.04,-0.11c0.01001,-0.04 0.03,-0.07 0.05001,-0.1c0.01999,-0.04 0.04999,-0.07 0.07999,-0.09c0.02,-0.03 0.05,-0.06 0.09,-0.08c0.03,-0.02 0.06,-0.04 0.1,-0.05c0.04,-0.02 0.07,-0.03 0.11,-0.04c0.04,-0.01 0.08,-0.01 0.12,-0.01h8c0.04,0 0.08,0 0.12,0.01c0.04,0.01 0.07,0.02 0.11,0.04c0.04,0.01 0.07,0.03 0.1,0.05c0.04,0.02 0.07,0.05 0.09,0.08c0.03,0.02 0.06,0.05 0.08,0.09c0.02,0.03 0.04,0.06 0.05,0.1c0.02,0.04 0.03,0.07 0.04,0.11c0.01,0.04 0.01,0.08 0.01,0.12v8c0,0.04 0,0.08 -0.01,0.12c-0.01,0.04 -0.02,0.07 -0.04,0.11c-0.01,0.04 -0.03,0.07 -0.05,0.1c-0.02,0.04 -0.05,0.07 -0.08,0.09c-0.02,0.03 -0.05,0.06 -0.09,0.08c-0.03,0.02 -0.06,0.04 -0.1,0.05c-0.04,0.02 -0.07,0.03 -0.11,0.04c-0.04,0.01 -0.08,0.01 -0.12,0.01h-8c-0.04,0 -0.08,0 -0.12,-0.01c-0.04,-0.01 -0.07,-0.02 -0.11,-0.04c-0.04,-0.01 -0.07,-0.03 -0.1,-0.05c-0.04,-0.02 -0.07,-0.05 -0.09,-0.08c-0.03,-0.02 -0.06,-0.05 -0.07999,-0.09c-0.02001,-0.03 -0.04,-0.06 -0.05001,-0.1c-0.02,-0.04 -0.02999,-0.07 -0.04,-0.11c-0.01,-0.04 -0.01,-0.08 -0.01,-0.12zM10.9998,6.9998v6.8h6.8v-6.8z"></path><path id="矩形 2 (轮廓)" fill-rule="evenodd" style="fill:#656A85" opacity="1" d="M8 10.2C8.04 10.2 8.08 10.2 8.12 10.19C8.16 10.18 8.19 10.17 8.23 10.15C8.27 10.14 8.3 10.12 8.33 10.1C8.37 10.08 8.4 10.05 8.42 10.02C8.45 10 8.48 9.97 8.5 9.93C8.52 9.9 8.54 9.87 8.55 9.83C8.57 9.79 8.58 9.76 8.59 9.72C8.6 9.68 8.6 9.64 8.6 9.6C8.6 9.56 8.6 9.52 8.59 9.48C8.58 9.44 8.57 9.41 8.55 9.37C8.54 9.33 8.52 9.3 8.5 9.27C8.48 9.23 8.45 9.2 8.42 9.18C8.4 9.15 8.37 9.12 8.33 9.1C8.3 9.08 8.27 9.06 8.23 9.05C8.19 9.03 8.16 9.02 8.12 9.01C8.08 9 8.04 9 8 9L5.6 9C5.56 9 5.52 9 5.48 9.01C5.44 9.02 5.41 9.03 5.37 9.05C5.33 9.06 5.3 9.08 5.27 9.1C5.23 9.12 5.2 9.15 5.18 9.18C5.15 9.2 5.12 9.23 5.1 9.27C5.08 9.3 5.06 9.33 5.05 9.37C5.03 9.41 5.02 9.44 5.01 9.48C5 9.52 5 9.56 5 9.6L5 18.4C5 18.44 5 18.48 5.01 18.52C5.02 18.56 5.03 18.59 5.05 18.63C5.06 18.67 5.08 18.7 5.1 18.73C5.12 18.77 5.15 18.8 5.18 18.82C5.2 18.85 5.23 18.88 5.27 18.9C5.3 18.92 5.33 18.94 5.37 18.95C5.41 18.97 5.44 18.98 5.48 18.99C5.52 19 5.56 19 5.6 19L14.4 19C14.44 19 14.48 19 14.52 18.99C14.56 18.98 14.59 18.97 14.63 18.95C14.67 18.94 14.7 18.92 14.73 18.9C14.77 18.88 14.8 18.85 14.82 18.82C14.85 18.8 14.88 18.77 14.9 18.73C14.92 18.7 14.94 18.67 14.95 18.63C14.97 18.59 14.98 18.56 14.99 18.52C15 18.48 15 18.44 15 18.4L15 16.4C15 16.36 15 16.32 14.99 16.28C14.98 16.24 14.97 16.21 14.95 16.17C14.94 16.13 14.92 16.1 14.9 16.07C14.88 16.03 14.85 16 14.82 15.98C14.8 15.95 14.77 15.92 14.73 15.9C14.7 15.88 14.67 15.86 14.63 15.85C14.59 15.83 14.56 15.82 14.52 15.81C14.48 15.8 14.44 15.8 14.4 15.8C14.36 15.8 14.32 15.8 14.28 15.81C14.24 15.82 14.21 15.83 14.17 15.85C14.13 15.86 14.1 15.88 14.07 15.9C14.03 15.92 14 15.95 13.98 15.98C13.95 16 13.92 16.03 13.9 16.07C13.88 16.1 13.86 16.13 13.85 16.17C13.83 16.21 13.82 16.24 13.81 16.28C13.8 16.32 13.8 16.36 13.8 16.4L13.8 17.8L6.2 17.8L6.2 10.2L8 10.2Z"></path></g></g><defs><rect id="path_0" x="0" y="0" width="24" height="24" /></defs></svg>