<svg xmlns="http://www.w3.org/2000/svg" xmlns:xlink="http://www.w3.org/1999/xlink" width="24" height="24"
  viewBox="0 0 24 24" fill="none">
  <g opacity="1" transform="translate(0 0)  rotate(0)">
    <mask id="bg-mask-0" fill="white">
      <use xlink:href="#path_0"></use>
    </mask>
    <g mask="url(#bg-mask-0)">
      <path id="路径 1" fill-rule="evenodd" style="fill:#495AD4" opacity="1"
        d="M19.8501 6.17488L9.88009 16.8149L4.72009 12.4649C4.51009 12.2849 4.23009 12.2349 3.97009 12.3249C3.71009 12.4149 3.53009 12.6349 3.48009 12.9049C3.44009 13.1749 3.54009 13.4449 3.75009 13.6149L9.46009 18.4149C9.60009 18.5249 9.77009 18.5949 9.94009 18.5949C10.1501 18.5949 10.3501 18.5049 10.4901 18.3549L20.9401 7.19488C21.0801 7.05488 21.1501 6.86488 21.1401 6.66488C21.1401 6.46488 21.0501 6.27488 20.9101 6.13488C20.7601 6.00488 20.5701 5.92488 20.3701 5.93488C20.1701 5.94488 19.9801 6.02488 19.8501 6.17488Z">
      </path>
    </g>
  </g>
  <defs>
    <rect id="path_0" x="0" y="0" width="24" height="24" />
  </defs>
</svg>