<svg xmlns="http://www.w3.org/2000/svg" xmlns:xlink="http://www.w3.org/1999/xlink" width="30" height="30"
  viewBox="0 0 30 30" fill="none">
  <g opacity="1" transform="translate(0 0)  rotate(0)">
    <mask id="bg-mask-0" fill="white">
      <use transform="translate(0 0)  rotate(0)" xlink:href="#path_0"></use>
    </mask>
    <g mask="url(#bg-mask-0)">
      <path id="直线 1 (轮廓)" fill-rule="evenodd" style="fill:#131926" opacity="1"
        d="M15.5302 7.53033C15.5656 7.49497 15.6009 7.45962 15.6292 7.41719C15.6504 7.38184 15.6716 7.33234 15.6929 7.28284C15.707 7.24042 15.7282 7.19092 15.7353 7.14142C15.7494 7.09899 15.7565 7.0495 15.7494 7C15.7565 6.9505 15.7494 6.90101 15.7353 6.85858C15.7282 6.80908 15.707 6.75958 15.6929 6.71716C15.6716 6.66766 15.6504 6.61816 15.6292 6.58281C15.6009 6.54038 15.5656 6.50503 15.5302 6.46967C15.4949 6.43431 15.4595 6.39896 15.4171 6.37068C15.3817 6.34946 15.3322 6.32825 15.2827 6.30704C15.2403 6.29289 15.1908 6.27168 15.1413 6.26461C15.0989 6.25047 15.0494 6.2434 14.9999 6.25047C14.9504 6.2434 14.9009 6.25047 14.8585 6.26461C14.809 6.27168 14.7595 6.29289 14.717 6.30704C14.6675 6.32825 14.618 6.34946 14.5827 6.37068C14.5403 6.39896 14.5049 6.43431 14.4696 6.46967L6.47218 14.467C6.43682 14.5024 6.40147 14.5378 6.37318 14.5802C6.3449 14.6226 6.32369 14.6721 6.30954 14.7145C6.28833 14.764 6.27419 14.8065 6.26712 14.856C6.25298 14.8984 6.2459 14.9479 6.25298 14.9974C6.2459 15.0469 6.25298 15.0964 6.26005 15.1459C6.27419 15.1883 6.28833 15.2449 6.30247 15.2873C6.32369 15.3368 6.35197 15.3792 6.37318 15.4146C6.40147 15.457 6.43682 15.4924 6.47218 15.5277C6.50753 15.5631 6.54289 15.5984 6.58532 15.6267C6.62067 15.6479 6.6631 15.6762 6.7126 15.6974C6.75502 15.7116 6.81159 15.7257 6.85402 15.7398C6.90351 15.7469 6.95301 15.754 7.00251 15.7469C7.05201 15.754 7.1015 15.7469 7.14393 15.7328C7.19343 15.7257 7.23586 15.7116 7.28535 15.6903C7.32778 15.6762 7.37728 15.655 7.4197 15.6267C7.46213 15.5984 7.49748 15.5631 7.53284 15.5277L15.5302 7.53033Z">
      </path>
      <path id="直线 2 (轮廓)" fill-rule="evenodd" style="fill:#131926" opacity="1"
        d="M15.5303 6.46966C15.495 6.43431 15.4596 6.39895 15.4172 6.37067C15.3818 6.34945 15.3323 6.32824 15.2828 6.30703C15.2404 6.29288 15.1909 6.27167 15.1414 6.2646C15.099 6.25046 15.0495 6.24339 15 6.25046C14.9505 6.24339 14.901 6.25046 14.8586 6.2646C14.8091 6.27167 14.7596 6.29288 14.7172 6.30703C14.6677 6.32824 14.6182 6.34945 14.5828 6.37067C14.5404 6.39895 14.505 6.43431 14.4697 6.46966C14.4343 6.50502 14.399 6.54037 14.3707 6.5828C14.3495 6.61815 14.3282 6.66765 14.307 6.71715C14.2929 6.75957 14.2717 6.80907 14.2646 6.85857C14.2505 6.901 14.2434 6.95049 14.2505 6.99999C14.2434 7.04949 14.2505 7.09899 14.2646 7.14141C14.2717 7.19091 14.2929 7.24041 14.307 7.28283C14.3282 7.33233 14.3495 7.38183 14.3707 7.41718C14.399 7.45961 14.4343 7.49497 14.4697 7.53032L22.467 15.5277C22.5024 15.5631 22.5378 15.5984 22.5802 15.6267C22.6226 15.655 22.6721 15.6762 22.7145 15.6903C22.764 15.7115 22.8065 15.7257 22.856 15.7328C22.8984 15.7469 22.9479 15.754 22.9974 15.7469C23.0469 15.754 23.0964 15.7469 23.1459 15.7398C23.1883 15.7257 23.2449 15.7115 23.2873 15.6974C23.3368 15.6762 23.3792 15.6479 23.4146 15.6267C23.457 15.5984 23.4924 15.5631 23.5277 15.5277C23.5631 15.4923 23.5984 15.457 23.6267 15.4146C23.6479 15.3792 23.6762 15.3368 23.6974 15.2873C23.7116 15.2449 23.7257 15.1883 23.7398 15.1459C23.7469 15.0964 23.754 15.0469 23.7469 14.9974C23.754 14.9479 23.7469 14.8984 23.7328 14.8559C23.7257 14.8064 23.7116 14.764 23.6903 14.7145C23.6762 14.6721 23.655 14.6226 23.6267 14.5802C23.5984 14.5377 23.5631 14.5024 23.5277 14.467L15.5303 6.46966Z">
      </path>
      <path id="直线 3 (轮廓)" fill-rule="evenodd" style="fill:#131926" opacity="1"
        d="M9.75 16C9.75 15.95 9.75 15.9 9.74 15.85C9.73 15.81 9.71 15.76 9.69 15.71C9.67 15.67 9.65 15.62 9.62 15.58C9.6 15.54 9.57 15.5 9.53 15.47C9.5 15.43 9.46 15.4 9.42 15.38C9.38 15.35 9.33 15.33 9.29 15.31C9.24 15.29 9.19 15.27 9.15 15.26C9.1 15.25 9.05 15.25 9 15.25C8.95 15.25 8.9 15.25 8.85 15.26C8.81 15.27 8.76 15.29 8.71 15.31C8.67 15.33 8.62 15.35 8.58 15.38C8.54 15.4 8.5 15.43 8.47 15.47C8.43 15.5 8.4 15.54 8.38 15.58C8.35 15.62 8.33 15.67 8.31 15.71C8.29 15.76 8.27 15.81 8.26 15.85C8.25 15.9 8.25 15.95 8.25 16L8.25 23C8.25 23.05 8.25 23.1 8.26 23.15C8.27 23.19 8.29 23.24 8.31 23.29C8.33 23.33 8.35 23.38 8.38 23.42C8.4 23.46 8.43 23.5 8.47 23.53C8.5 23.57 8.54 23.6 8.58 23.62C8.62 23.65 8.67 23.67 8.71 23.69C8.76 23.71 8.81 23.73 8.85 23.74C8.9 23.75 8.95 23.75 9 23.75C9.05 23.75 9.1 23.75 9.15 23.74C9.19 23.73 9.24 23.71 9.29 23.69C9.33 23.67 9.38 23.65 9.42 23.62C9.46 23.6 9.5 23.57 9.53 23.53C9.57 23.5 9.6 23.46 9.62 23.42C9.65 23.38 9.67 23.33 9.69 23.29C9.71 23.24 9.73 23.19 9.74 23.15C9.75 23.1 9.75 23.05 9.75 23L9.75 16Z">
      </path>
      <path id="直线 3 (轮廓)" fill-rule="evenodd" style="fill:#131926" opacity="1"
        d="M21.75 16C21.75 15.95 21.75 15.9 21.74 15.85C21.73 15.81 21.71 15.76 21.69 15.71C21.67 15.67 21.65 15.62 21.62 15.58C21.6 15.54 21.57 15.5 21.53 15.47C21.5 15.43 21.46 15.4 21.42 15.38C21.38 15.35 21.33 15.33 21.29 15.31C21.24 15.29 21.19 15.27 21.15 15.26C21.1 15.25 21.05 15.25 21 15.25C20.95 15.25 20.9 15.25 20.85 15.26C20.81 15.27 20.76 15.29 20.71 15.31C20.67 15.33 20.62 15.35 20.58 15.38C20.54 15.4 20.5 15.43 20.47 15.47C20.43 15.5 20.4 15.54 20.38 15.58C20.35 15.62 20.33 15.67 20.31 15.71C20.29 15.76 20.27 15.81 20.26 15.85C20.25 15.9 20.25 15.95 20.25 16L20.25 23C20.25 23.05 20.25 23.1 20.26 23.15C20.27 23.19 20.29 23.24 20.31 23.29C20.33 23.33 20.35 23.38 20.38 23.42C20.4 23.46 20.43 23.5 20.47 23.53C20.5 23.57 20.54 23.6 20.58 23.62C20.62 23.65 20.67 23.67 20.71 23.69C20.76 23.71 20.81 23.73 20.85 23.74C20.9 23.75 20.95 23.75 21 23.75C21.05 23.75 21.1 23.75 21.15 23.74C21.19 23.73 21.24 23.71 21.29 23.69C21.33 23.67 21.38 23.65 21.42 23.62C21.46 23.6 21.5 23.57 21.53 23.53C21.57 23.5 21.6 23.46 21.62 23.42C21.65 23.38 21.67 23.33 21.69 23.29C21.71 23.24 21.73 23.19 21.74 23.15C21.75 23.1 21.75 23.05 21.75 23L21.75 16Z">
      </path>
      <path id="直线 6 (轮廓)" fill-rule="evenodd" style="fill:#131926" opacity="1"
        d="M9 22.25C8.95 22.25 8.9 22.25 8.85 22.26C8.81 22.27 8.76 22.29 8.71 22.31C8.67 22.33 8.62 22.35 8.58 22.38C8.54 22.4 8.5 22.43 8.47 22.47C8.43 22.5 8.4 22.54 8.38 22.58C8.35 22.62 8.33 22.67 8.31 22.71C8.29 22.76 8.27 22.81 8.26 22.85C8.25 22.9 8.25 22.95 8.25 23C8.25 23.05 8.25 23.1 8.26 23.15C8.27 23.19 8.29 23.24 8.31 23.29C8.33 23.33 8.35 23.38 8.38 23.42C8.4 23.46 8.43 23.5 8.47 23.53C8.5 23.57 8.54 23.6 8.58 23.62C8.62 23.65 8.67 23.67 8.71 23.69C8.76 23.71 8.81 23.73 8.85 23.74C8.9 23.75 8.95 23.75 9 23.75L13 23.75C13.05 23.75 13.1 23.75 13.15 23.74C13.19 23.73 13.24 23.71 13.29 23.69C13.33 23.67 13.38 23.65 13.42 23.62C13.46 23.6 13.5 23.57 13.53 23.53C13.57 23.5 13.6 23.46 13.62 23.42C13.65 23.38 13.67 23.33 13.69 23.29C13.71 23.24 13.73 23.19 13.74 23.15C13.75 23.1 13.75 23.05 13.75 23C13.75 22.95 13.75 22.9 13.74 22.85C13.73 22.81 13.71 22.76 13.69 22.71C13.67 22.67 13.65 22.62 13.62 22.58C13.6 22.54 13.57 22.5 13.53 22.47C13.5 22.43 13.46 22.4 13.42 22.38C13.38 22.35 13.33 22.33 13.29 22.31C13.24 22.29 13.19 22.27 13.15 22.26C13.1 22.25 13.05 22.25 13 22.25L9 22.25Z">
      </path>
      <path id="直线 7 (轮廓)" fill-rule="evenodd" style="fill:#131926" opacity="1"
        d="M17 22.25C16.95 22.25 16.9 22.25 16.85 22.26C16.81 22.27 16.76 22.29 16.71 22.31C16.67 22.33 16.62 22.35 16.58 22.38C16.54 22.4 16.5 22.43 16.47 22.47C16.43 22.5 16.4 22.54 16.38 22.58C16.35 22.62 16.33 22.67 16.31 22.71C16.29 22.76 16.27 22.81 16.26 22.85C16.25 22.9 16.25 22.95 16.25 23C16.25 23.05 16.25 23.1 16.26 23.15C16.27 23.19 16.29 23.24 16.31 23.29C16.33 23.33 16.35 23.38 16.38 23.42C16.4 23.46 16.43 23.5 16.47 23.53C16.5 23.57 16.54 23.6 16.58 23.62C16.62 23.65 16.67 23.67 16.71 23.69C16.76 23.71 16.81 23.73 16.85 23.74C16.9 23.75 16.95 23.75 17 23.75L21 23.75C21.05 23.75 21.1 23.75 21.15 23.74C21.19 23.73 21.24 23.71 21.29 23.69C21.33 23.67 21.38 23.65 21.42 23.62C21.46 23.6 21.5 23.57 21.53 23.53C21.57 23.5 21.6 23.46 21.62 23.42C21.65 23.38 21.67 23.33 21.69 23.29C21.71 23.24 21.73 23.19 21.74 23.15C21.75 23.1 21.75 23.05 21.75 23C21.75 22.95 21.75 22.9 21.74 22.85C21.73 22.81 21.71 22.76 21.69 22.71C21.67 22.67 21.65 22.62 21.62 22.58C21.6 22.54 21.57 22.5 21.53 22.47C21.5 22.43 21.46 22.4 21.42 22.38C21.38 22.35 21.33 22.33 21.29 22.31C21.24 22.29 21.19 22.27 21.15 22.26C21.1 22.25 21.05 22.25 21 22.25L17 22.25Z">
      </path>
      <path id="直线 8 (轮廓)" fill-rule="evenodd" style="fill:#495AD4" opacity="1"
        d="M20 7.25C19.95 7.25 19.9 7.25 19.85 7.26C19.81 7.27 19.76 7.29 19.71 7.31C19.67 7.33 19.62 7.35 19.58 7.38C19.54 7.4 19.5 7.43 19.47 7.47C19.43 7.5 19.4 7.54 19.38 7.58C19.35 7.62 19.33 7.67 19.31 7.71C19.29 7.76 19.27 7.81 19.26 7.85C19.25 7.9 19.25 7.95 19.25 8C19.25 8.05 19.25 8.1 19.26 8.15C19.27 8.19 19.29 8.24 19.31 8.29C19.33 8.33 19.35 8.38 19.38 8.42C19.4 8.46 19.43 8.5 19.47 8.53C19.5 8.57 19.54 8.6 19.58 8.62C19.62 8.65 19.67 8.67 19.71 8.69C19.76 8.71 19.81 8.73 19.85 8.74C19.9 8.75 19.95 8.75 20 8.75L22 8.75C22.05 8.75 22.1 8.75 22.15 8.74C22.19 8.73 22.24 8.71 22.29 8.69C22.33 8.67 22.38 8.65 22.42 8.62C22.46 8.6 22.5 8.57 22.53 8.53C22.57 8.5 22.6 8.46 22.62 8.42C22.65 8.38 22.67 8.33 22.69 8.29C22.71 8.24 22.73 8.19 22.74 8.15C22.75 8.1 22.75 8.05 22.75 8C22.75 7.95 22.75 7.9 22.74 7.85C22.73 7.81 22.71 7.76 22.69 7.71C22.67 7.67 22.65 7.62 22.62 7.58C22.6 7.54 22.57 7.5 22.53 7.47C22.5 7.43 22.46 7.4 22.42 7.38C22.38 7.35 22.33 7.33 22.29 7.31C22.24 7.29 22.19 7.27 22.15 7.26C22.1 7.25 22.05 7.25 22 7.25L20 7.25Z">
      </path>
      <path id="直线 9 (轮廓)" fill-rule="evenodd" style="fill:#495AD4" opacity="1"
        d="M22.75 8C22.75 7.95 22.75 7.9 22.74 7.85C22.73 7.81 22.71 7.76 22.69 7.71C22.67 7.67 22.65 7.62 22.62 7.58C22.6 7.54 22.57 7.5 22.53 7.47C22.5 7.43 22.46 7.4 22.42 7.38C22.38 7.35 22.33 7.33 22.29 7.31C22.24 7.29 22.19 7.27 22.15 7.26C22.1 7.25 22.05 7.25 22 7.25C21.95 7.25 21.9 7.25 21.85 7.26C21.81 7.27 21.76 7.29 21.71 7.31C21.67 7.33 21.62 7.35 21.58 7.38C21.54 7.4 21.5 7.43 21.47 7.47C21.43 7.5 21.4 7.54 21.38 7.58C21.35 7.62 21.33 7.67 21.31 7.71C21.29 7.76 21.27 7.81 21.26 7.85C21.25 7.9 21.25 7.95 21.25 8L21.25 11C21.25 11.05 21.25 11.1 21.26 11.15C21.27 11.19 21.29 11.24 21.31 11.29C21.33 11.33 21.35 11.38 21.38 11.42C21.4 11.46 21.43 11.5 21.47 11.53C21.5 11.57 21.54 11.6 21.58 11.62C21.62 11.65 21.67 11.67 21.71 11.69C21.76 11.71 21.81 11.73 21.85 11.74C21.9 11.75 21.95 11.75 22 11.75C22.05 11.75 22.1 11.75 22.15 11.74C22.19 11.73 22.24 11.71 22.29 11.69C22.33 11.67 22.38 11.65 22.42 11.62C22.46 11.6 22.5 11.57 22.53 11.53C22.57 11.5 22.6 11.46 22.62 11.42C22.65 11.38 22.67 11.33 22.69 11.29C22.71 11.24 22.73 11.19 22.74 11.15C22.75 11.1 22.75 11.05 22.75 11L22.75 8Z">
      </path>
      <path id="直线 4 (轮廓)" fill-rule="evenodd" style="fill:#131926" opacity="1"
        d="M13.75 19C13.75 18.95 13.75 18.9 13.74 18.85C13.73 18.81 13.71 18.76 13.69 18.71C13.67 18.67 13.65 18.62 13.62 18.58C13.6 18.54 13.57 18.5 13.53 18.47C13.5 18.43 13.46 18.4 13.42 18.38C13.38 18.35 13.33 18.33 13.29 18.31C13.24 18.29 13.19 18.27 13.15 18.26C13.1 18.25 13.05 18.25 13 18.25C12.95 18.25 12.9 18.25 12.85 18.26C12.81 18.27 12.76 18.29 12.71 18.31C12.67 18.33 12.62 18.35 12.58 18.38C12.54 18.4 12.5 18.43 12.47 18.47C12.43 18.5 12.4 18.54 12.38 18.58C12.35 18.62 12.33 18.67 12.31 18.71C12.29 18.76 12.27 18.81 12.26 18.85C12.25 18.9 12.25 18.95 12.25 19L12.25 23C12.25 23.05 12.25 23.1 12.26 23.15C12.27 23.19 12.29 23.24 12.31 23.29C12.33 23.33 12.35 23.38 12.38 23.42C12.4 23.46 12.43 23.5 12.47 23.53C12.5 23.57 12.54 23.6 12.58 23.62C12.62 23.65 12.67 23.67 12.71 23.69C12.76 23.71 12.81 23.73 12.85 23.74C12.9 23.75 12.95 23.75 13 23.75C13.05 23.75 13.1 23.75 13.15 23.74C13.19 23.73 13.24 23.71 13.29 23.69C13.33 23.67 13.38 23.65 13.42 23.62C13.46 23.6 13.5 23.57 13.53 23.53C13.57 23.5 13.6 23.46 13.62 23.42C13.65 23.38 13.67 23.33 13.69 23.29C13.71 23.24 13.73 23.19 13.74 23.15C13.75 23.1 13.75 23.05 13.75 23L13.75 19Z">
      </path>
      <path id="直线 4 (轮廓)" fill-rule="evenodd" style="fill:#131926" opacity="1"
        d="M17.75 19C17.75 18.95 17.75 18.9 17.74 18.85C17.73 18.81 17.71 18.76 17.69 18.71C17.67 18.67 17.65 18.62 17.62 18.58C17.6 18.54 17.57 18.5 17.53 18.47C17.5 18.43 17.46 18.4 17.42 18.38C17.38 18.35 17.33 18.33 17.29 18.31C17.24 18.29 17.19 18.27 17.15 18.26C17.1 18.25 17.05 18.25 17 18.25C16.95 18.25 16.9 18.25 16.85 18.26C16.81 18.27 16.76 18.29 16.71 18.31C16.67 18.33 16.62 18.35 16.58 18.38C16.54 18.4 16.5 18.43 16.47 18.47C16.43 18.5 16.4 18.54 16.38 18.58C16.35 18.62 16.33 18.67 16.31 18.71C16.29 18.76 16.27 18.81 16.26 18.85C16.25 18.9 16.25 18.95 16.25 19L16.25 23C16.25 23.05 16.25 23.1 16.26 23.15C16.27 23.19 16.29 23.24 16.31 23.29C16.33 23.33 16.35 23.38 16.38 23.42C16.4 23.46 16.43 23.5 16.47 23.53C16.5 23.57 16.54 23.6 16.58 23.62C16.62 23.65 16.67 23.67 16.71 23.69C16.76 23.71 16.81 23.73 16.85 23.74C16.9 23.75 16.95 23.75 17 23.75C17.05 23.75 17.1 23.75 17.15 23.74C17.19 23.73 17.24 23.71 17.29 23.69C17.33 23.67 17.38 23.65 17.42 23.62C17.46 23.6 17.5 23.57 17.53 23.53C17.57 23.5 17.6 23.46 17.62 23.42C17.65 23.38 17.67 23.33 17.69 23.29C17.71 23.24 17.73 23.19 17.74 23.15C17.75 23.1 17.75 23.05 17.75 23L17.75 19Z">
      </path>
      <path id="直线 5 (轮廓)" fill-rule="evenodd" style="fill:#131926" opacity="1"
        d="M13 18.25C12.95 18.25 12.9 18.25 12.85 18.26C12.81 18.27 12.76 18.29 12.71 18.31C12.67 18.33 12.62 18.35 12.58 18.38C12.54 18.4 12.5 18.43 12.47 18.47C12.43 18.5 12.4 18.54 12.38 18.58C12.35 18.62 12.33 18.67 12.31 18.71C12.29 18.76 12.27 18.81 12.26 18.85C12.25 18.9 12.25 18.95 12.25 19C12.25 19.05 12.25 19.1 12.26 19.15C12.27 19.19 12.29 19.24 12.31 19.29C12.33 19.33 12.35 19.38 12.38 19.42C12.4 19.46 12.43 19.5 12.47 19.53C12.5 19.57 12.54 19.6 12.58 19.62C12.62 19.65 12.67 19.67 12.71 19.69C12.76 19.71 12.81 19.73 12.85 19.74C12.9 19.75 12.95 19.75 13 19.75L17 19.75C17.05 19.75 17.1 19.75 17.15 19.74C17.19 19.73 17.24 19.71 17.29 19.69C17.33 19.67 17.38 19.65 17.42 19.62C17.46 19.6 17.5 19.57 17.53 19.53C17.57 19.5 17.6 19.46 17.62 19.42C17.65 19.38 17.67 19.33 17.69 19.29C17.71 19.24 17.73 19.19 17.74 19.15C17.75 19.1 17.75 19.05 17.75 19C17.75 18.95 17.75 18.9 17.74 18.85C17.73 18.81 17.71 18.76 17.69 18.71C17.67 18.67 17.65 18.62 17.62 18.58C17.6 18.54 17.57 18.5 17.53 18.47C17.5 18.43 17.46 18.4 17.42 18.38C17.38 18.35 17.33 18.33 17.29 18.31C17.24 18.29 17.19 18.27 17.15 18.26C17.1 18.25 17.05 18.25 17 18.25L13 18.25Z">
      </path>
    </g>
  </g>
  <defs>
    <rect id="path_0" x="0" y="0" width="30" height="30" />
  </defs>
</svg>