<svg xmlns="http://www.w3.org/2000/svg" xmlns:xlink="http://www.w3.org/1999/xlink" width="30" height="30"
  viewBox="0 0 30 30" fill="none">
  <g opacity="1" transform="translate(0 0)  rotate(0)">
    <g mask="url(#bg-mask-0)">
      <g opacity="1" transform="translate(6.25 6.25)  rotate(0)">
        <path id="直线 3 (轮廓)" fill-rule="evenodd" style="fill:#495AD4" opacity="1"
          d="M3.22 3.22C3.18 3.25 3.15 3.29 3.13 3.33C3.1 3.37 3.08 3.42 3.06 3.46C3.04 3.51 3.02 3.56 3.01 3.6C3 3.65 3 3.7 3 3.75C3 3.8 3 3.85 3.01 3.9C3.02 3.94 3.04 3.99 3.06 4.04C3.08 4.08 3.1 4.13 3.13 4.17C3.15 4.21 3.18 4.25 3.22 4.28C3.25 4.32 3.29 4.35 3.33 4.37C3.37 4.4 3.42 4.42 3.46 4.44C3.51 4.46 3.56 4.48 3.6 4.49C3.65 4.5 3.7 4.5 3.75 4.5L8.75 4.5C8.8 4.5 8.85 4.5 8.9 4.49C8.94 4.48 8.99 4.46 9.04 4.44C9.08 4.42 9.13 4.4 9.17 4.37C9.21 4.35 9.25 4.32 9.28 4.28C9.32 4.25 9.35 4.21 9.37 4.17C9.4 4.13 9.42 4.08 9.44 4.04C9.46 3.99 9.48 3.94 9.49 3.9C9.5 3.85 9.5 3.8 9.5 3.75C9.5 3.7 9.5 3.65 9.49 3.6C9.48 3.56 9.46 3.51 9.44 3.46C9.42 3.42 9.4 3.37 9.37 3.33C9.35 3.29 9.32 3.25 9.28 3.22C9.25 3.18 9.21 3.15 9.17 3.13C9.13 3.1 9.08 3.08 9.04 3.06C8.99 3.04 8.94 3.02 8.9 3.01C8.85 3 8.8 3 8.75 3L3.75 3C3.7 3 3.65 3 3.6 3.01C3.56 3.02 3.51 3.04 3.46 3.06C3.42 3.08 3.37 3.1 3.33 3.13C3.29 3.15 3.25 3.18 3.22 3.22Z">
        </path>
        <path id="直线 3 (轮廓)" fill-rule="evenodd" style="fill:#495AD4" opacity="1"
          d="M3.22 14.28C3.25 14.32 3.29 14.35 3.33 14.37C3.37 14.4 3.42 14.42 3.46 14.44C3.51 14.46 3.56 14.48 3.6 14.49C3.65 14.5 3.7 14.5 3.75 14.5L8.75 14.5C8.8 14.5 8.85 14.5 8.9 14.49C8.94 14.48 8.99 14.46 9.04 14.44C9.08 14.42 9.13 14.4 9.17 14.37C9.21 14.35 9.25 14.32 9.28 14.28C9.32 14.25 9.35 14.21 9.37 14.17C9.4 14.13 9.42 14.08 9.44 14.04C9.46 13.99 9.48 13.94 9.49 13.9C9.5 13.85 9.5 13.8 9.5 13.75C9.5 13.7 9.5 13.65 9.49 13.6C9.48 13.56 9.46 13.51 9.44 13.46C9.42 13.42 9.4 13.37 9.37 13.33C9.35 13.29 9.32 13.25 9.28 13.22C9.25 13.18 9.21 13.15 9.17 13.13C9.13 13.1 9.08 13.08 9.04 13.06C8.99 13.04 8.94 13.02 8.9 13.01C8.85 13 8.8 13 8.75 13L3.75 13C3.7 13 3.65 13 3.6 13.01C3.56 13.02 3.51 13.04 3.46 13.06C3.42 13.08 3.37 13.1 3.33 13.13C3.29 13.15 3.25 13.18 3.22 13.22C3.18 13.25 3.15 13.29 3.13 13.33C3.1 13.37 3.08 13.42 3.06 13.46C3.04 13.51 3.02 13.56 3.01 13.6C3 13.65 3 13.7 3 13.75C3 13.8 3 13.85 3.01 13.9C3.02 13.94 3.04 13.99 3.06 14.04C3.08 14.08 3.1 14.13 3.13 14.17C3.15 14.21 3.18 14.25 3.22 14.28Z">
        </path>
        <path id="直线 3 (轮廓)" fill-rule="evenodd" style="fill:#131926" opacity="1"
          d="M11.75 4.5L12.25 4.5C12.3 4.5 12.35 4.5 12.4 4.49C12.44 4.48 12.49 4.46 12.54 4.44C12.58 4.42 12.63 4.4 12.67 4.37C12.71 4.35 12.75 4.32 12.78 4.28C12.82 4.25 12.85 4.21 12.87 4.17C12.9 4.13 12.92 4.08 12.94 4.04C12.96 3.99 12.98 3.94 12.99 3.9C13 3.85 13 3.8 13 3.75C13 3.7 13 3.65 12.99 3.6C12.98 3.56 12.96 3.51 12.94 3.46C12.92 3.42 12.9 3.37 12.87 3.33C12.85 3.29 12.82 3.25 12.78 3.22C12.75 3.18 12.71 3.15 12.67 3.13C12.63 3.1 12.58 3.08 12.54 3.06C12.49 3.04 12.44 3.02 12.4 3.01C12.35 3 12.3 3 12.25 3L11.75 3C11.7 3 11.65 3 11.6 3.01C11.56 3.02 11.51 3.04 11.46 3.06C11.42 3.08 11.37 3.1 11.33 3.13C11.29 3.15 11.25 3.18 11.22 3.22C11.18 3.25 11.15 3.29 11.13 3.33C11.1 3.37 11.08 3.42 11.06 3.46C11.04 3.51 11.02 3.56 11.01 3.6C11 3.65 11 3.7 11 3.75C11 3.8 11 3.85 11.01 3.9C11.02 3.94 11.04 3.99 11.06 4.04C11.08 4.08 11.1 4.13 11.13 4.17C11.15 4.21 11.18 4.25 11.22 4.28C11.25 4.32 11.29 4.35 11.33 4.37C11.37 4.4 11.42 4.42 11.46 4.44C11.51 4.46 11.56 4.48 11.6 4.49C11.65 4.5 11.7 4.5 11.75 4.5Z">
        </path>
        <path id="直线 3 (轮廓)" fill-rule="evenodd" style="fill:#131926" opacity="1"
          d="M12.67 13.13C12.63 13.1 12.58 13.08 12.54 13.06C12.49 13.04 12.44 13.02 12.4 13.01C12.35 13 12.3 13 12.25 13L11.75 13C11.7 13 11.65 13 11.6 13.01C11.56 13.02 11.51 13.04 11.46 13.06C11.42 13.08 11.37 13.1 11.33 13.13C11.29 13.15 11.25 13.18 11.22 13.22C11.18 13.25 11.15 13.29 11.13 13.33C11.1 13.37 11.08 13.42 11.06 13.46C11.04 13.51 11.02 13.56 11.01 13.6C11 13.65 11 13.7 11 13.75C11 13.8 11 13.85 11.01 13.9C11.02 13.94 11.04 13.99 11.06 14.04C11.08 14.08 11.1 14.13 11.13 14.17C11.15 14.21 11.18 14.25 11.22 14.28C11.25 14.32 11.29 14.35 11.33 14.37C11.37 14.4 11.42 14.42 11.46 14.44C11.51 14.46 11.56 14.48 11.6 14.49C11.65 14.5 11.7 14.5 11.75 14.5L12.25 14.5C12.3 14.5 12.35 14.5 12.4 14.49C12.44 14.48 12.49 14.46 12.54 14.44C12.58 14.42 12.63 14.4 12.67 14.37C12.71 14.35 12.75 14.32 12.78 14.28C12.82 14.25 12.85 14.21 12.87 14.17C12.9 14.13 12.92 14.08 12.94 14.04C12.96 13.99 12.98 13.94 12.99 13.9C13 13.85 13 13.8 13 13.75C13 13.7 13 13.65 12.99 13.6C12.98 13.56 12.96 13.51 12.94 13.46C12.92 13.42 12.9 13.37 12.87 13.33C12.85 13.29 12.82 13.25 12.78 13.22C12.75 13.18 12.71 13.15 12.67 13.13Z">
        </path>
        <path id="直线 1 (轮廓)" fill-rule="evenodd" style="fill:#131926" opacity="1"
          d="M4.04 6.06C3.99 6.04 3.94 6.02 3.9 6.01C3.85 6 3.8 6 3.75 6C3.7 6 3.65 6 3.6 6.01C3.56 6.02 3.51 6.04 3.46 6.06C3.42 6.08 3.37 6.1 3.33 6.13C3.29 6.15 3.25 6.18 3.22 6.22C3.18 6.25 3.15 6.29 3.13 6.33C3.1 6.37 3.08 6.42 3.06 6.46C3.04 6.51 3.02 6.56 3.01 6.6C3 6.65 3 6.7 3 6.75L3 6.75L3 10.75L3.75 10.75L3 10.75C3 10.85 3.02 10.95 3.06 11.04C3.1 11.13 3.15 11.21 3.22 11.28C3.29 11.35 3.37 11.4 3.46 11.44C3.56 11.48 3.65 11.5 3.75 11.5C3.8 11.5 3.85 11.5 3.9 11.49C3.95 11.48 3.99 11.46 4.04 11.44C4.08 11.42 4.13 11.4 4.17 11.37C4.21 11.35 4.25 11.32 4.28 11.28C4.32 11.25 4.35 11.21 4.37 11.17C4.4 11.13 4.43 11.08 4.44 11.04C4.46 10.99 4.48 10.94 4.49 10.9C4.5 10.85 4.5 10.8 4.5 10.75L4.5 10.75L4.5 6.75L3.75 6.75L4.5 6.75C4.5 6.7 4.5 6.65 4.49 6.6C4.48 6.56 4.46 6.51 4.44 6.46C4.42 6.42 4.4 6.37 4.37 6.33C4.35 6.29 4.32 6.25 4.28 6.22C4.25 6.18 4.21 6.15 4.17 6.13C4.13 6.1 4.08 6.08 4.04 6.06Z">
        </path>
        <path id="直线 2 (轮廓)" fill-rule="evenodd" style="fill:#131926" opacity="1"
          d="M13.75 11.5C13.8 11.5 13.85 11.5 13.9 11.49C13.94 11.48 13.99 11.46 14.04 11.44C14.08 11.42 14.13 11.4 14.17 11.37C14.21 11.35 14.25 11.32 14.28 11.28C14.32 11.25 14.35 11.21 14.37 11.17C14.4 11.13 14.42 11.08 14.44 11.04C14.46 10.99 14.48 10.94 14.49 10.9C14.5 10.85 14.5 10.8 14.5 10.75L13.75 10.75L14.5 10.75L14.5 6.75L14.5 6.75C14.5 6.7 14.5 6.65 14.49 6.6C14.48 6.56 14.46 6.51 14.44 6.46C14.43 6.42 14.4 6.37 14.37 6.33C14.35 6.29 14.32 6.25 14.28 6.22C14.25 6.18 14.21 6.15 14.17 6.13C14.13 6.1 14.08 6.08 14.04 6.06C13.99 6.04 13.95 6.02 13.9 6.01C13.85 6 13.8 6 13.75 6C13.7 6 13.65 6 13.6 6.01C13.56 6.02 13.51 6.04 13.46 6.06C13.42 6.08 13.38 6.1 13.33 6.13C13.29 6.15 13.26 6.18 13.22 6.22C13.19 6.25 13.15 6.29 13.13 6.33C13.1 6.37 13.08 6.42 13.06 6.46C13.04 6.51 13.03 6.56 13.02 6.6C13.01 6.65 13 6.7 13 6.75L13.75 6.75L13 6.75L13 10.75C13 10.8 13 10.85 13.01 10.9C13.02 10.94 13.04 10.99 13.06 11.04C13.08 11.08 13.1 11.13 13.13 11.17C13.15 11.21 13.18 11.25 13.22 11.28C13.25 11.32 13.29 11.35 13.33 11.37C13.37 11.4 13.42 11.42 13.46 11.44C13.51 11.46 13.56 11.48 13.6 11.49C13.65 11.5 13.7 11.5 13.75 11.5Z">
        </path>
        <path id="矩形 2 (轮廓)" fill-rule="evenodd" style="fill:#131926" opacity="1"
          d="M16.75,0c0.05,0 0.1,0 0.15,0.01c0.04,0.01 0.09,0.03 0.14,0.05c0.04,0.02 0.09,0.04 0.13,0.07c0.04,0.02 0.08,0.05 0.11,0.09c0.04,0.03 0.07,0.07 0.09,0.11c0.03,0.04 0.05,0.09 0.07,0.13c0.02,0.05 0.04,0.1 0.05,0.14c0.01,0.05 0.01,0.1 0.01,0.15v6c0,0.05 0,0.1 -0.01,0.15c-0.01,0.04 -0.03,0.09 -0.05,0.14c-0.02,0.04 -0.04,0.09 -0.07,0.13c-0.02,0.04 -0.05,0.08 -0.09,0.11c-0.03,0.04 -0.07,0.07 -0.11,0.09c-0.04,0.03 -0.09,0.05 -0.13,0.07c-0.05,0.02 -0.1,0.04 -0.14,0.05c-0.05,0.01 -0.1,0.01 -0.15,0.01h-16c-0.05,0 -0.1,0 -0.15,-0.01c-0.04,-0.01 -0.09,-0.03 -0.14,-0.05c-0.04,-0.02 -0.09,-0.04 -0.13,-0.07c-0.04,-0.02 -0.08,-0.05 -0.11,-0.09c-0.04,-0.03 -0.07,-0.07 -0.09,-0.11c-0.03,-0.04 -0.05,-0.09 -0.07,-0.13c-0.02,-0.05 -0.04,-0.1 -0.05,-0.14c-0.01,-0.05 -0.01,-0.1 -0.01,-0.15v-6c0,-0.05 0,-0.1 0.01,-0.15c0.01,-0.04 0.03,-0.09 0.05,-0.14c0.02,-0.04 0.04,-0.09 0.07,-0.13c0.02,-0.04 0.05,-0.08 0.09,-0.11c0.03,-0.04 0.07,-0.07 0.11,-0.09c0.04,-0.03 0.09,-0.05 0.13,-0.07c0.05,-0.02 0.1,-0.04 0.14,-0.05c0.05,-0.01 0.1,-0.01 0.15,-0.01zM16,6v-4.5h-14.5v4.5z">
        </path>
        <path id="矩形 2 (轮廓)" fill-rule="evenodd" style="fill:#131926" opacity="1"
          d="M17.17,10.13c0.04,0.02 0.08,0.05 0.11,0.09c0.04,0.03 0.07,0.07 0.09,0.11c0.03,0.04 0.05,0.09 0.07,0.13c0.02,0.05 0.04,0.1 0.05,0.14c0.01,0.05 0.01,0.1 0.01,0.15v6c0,0.05 0,0.1 -0.01,0.15c-0.01,0.04 -0.03,0.09 -0.05,0.14c-0.02,0.04 -0.04,0.09 -0.07,0.13c-0.02,0.04 -0.05,0.08 -0.09,0.11c-0.03,0.04 -0.07,0.07 -0.11,0.09c-0.04,0.03 -0.09,0.05 -0.13,0.07c-0.05,0.02 -0.1,0.04 -0.14,0.05c-0.05,0.01 -0.1,0.01 -0.15,0.01h-16c-0.05,0 -0.1,0 -0.15,-0.01c-0.04,-0.01 -0.09,-0.03 -0.14,-0.05c-0.04,-0.02 -0.09,-0.04 -0.13,-0.07c-0.04,-0.02 -0.08,-0.05 -0.11,-0.09c-0.04,-0.03 -0.07,-0.07 -0.09,-0.11c-0.03,-0.04 -0.05,-0.09 -0.07,-0.13c-0.02,-0.05 -0.04,-0.1 -0.05,-0.14c-0.01,-0.05 -0.01,-0.1 -0.01,-0.15v-6c0,-0.05 0,-0.1 0.01,-0.15c0.01,-0.04 0.03,-0.09 0.05,-0.14c0.02,-0.04 0.04,-0.09 0.07,-0.13c0.02,-0.04 0.05,-0.08 0.09,-0.11c0.03,-0.04 0.07,-0.07 0.11,-0.09c0.04,-0.03 0.09,-0.05 0.13,-0.07c0.05,-0.02 0.1,-0.04 0.14,-0.05c0.05,-0.01 0.1,-0.01 0.15,-0.01h16c0.05,0 0.1,0 0.15,0.01c0.04,0.01 0.09,0.03 0.14,0.05c0.04,0.02 0.09,0.04 0.13,0.07zM16,16v-4.5h-14.5v4.5z">
        </path>
      </g>
    </g>
  </g>
  <defs>
    <rect id="path_0" x="0" y="0" width="30" height="30" />
  </defs>
</svg>