<svg xmlns="http://www.w3.org/2000/svg" xmlns:xlink="http://www.w3.org/1999/xlink" width="16" height="16" viewBox="0 0 16 16" fill="none">
<path d="M3.33325 12.2667C3.33325 12.4876 3.51234 12.6667 3.73325 12.6667L12.2666 12.6667C12.4875 12.6667 12.6666 12.4876 12.6666 12.2667C12.6666 12.0458 12.4875 11.8667 12.2666 11.8667L3.73325 11.8667C3.51234 11.8667 3.33325 12.0458 3.33325 12.2667Z" fill-rule="evenodd"  fill="#495AD4" >
</path>
<path d="M3.33325 6.93334L3.33325 10.6667C3.33325 10.8876 3.51234 11.0667 3.73325 11.0667L5.33325 11.0667C5.55416 11.0667 5.73325 10.8876 5.73325 10.6667L5.73325 6.93334C5.73325 6.71243 5.55416 6.53334 5.33325 6.53334L3.73325 6.53334C3.51234 6.53334 3.33325 6.71243 3.33325 6.93334ZM4.13325 10.2667L4.13325 7.33334L4.93325 7.33334L4.93325 10.2667L4.13325 10.2667Z" fill-rule="evenodd"  fill="#495AD4" >
</path>
<path d="M12.6666 10.6667L12.6666 9.46666C12.6666 9.24575 12.4875 9.06666 12.2666 9.06666C12.0457 9.06666 11.8666 9.24575 11.8666 9.46666L11.8666 10.2667L11.0666 10.2667L11.0666 6.26666L11.8666 6.26666L11.8666 8.26666C11.8666 8.48757 12.0457 8.66666 12.2666 8.66666C12.4875 8.66666 12.6666 8.48757 12.6666 8.26666L12.6666 5.86666C12.6651 5.75684 12.626 5.66256 12.5494 5.58382C12.4707 5.50726 12.3764 5.4682 12.2666 5.46666L10.6666 5.46666C10.5568 5.4682 10.4625 5.50726 10.3838 5.58382C10.3072 5.66256 10.2681 5.75684 10.2666 5.86666L10.2666 10.6667C10.2681 10.7765 10.3072 10.8708 10.3838 10.9495C10.4625 11.0261 10.5568 11.0651 10.6666 11.0667L12.2666 11.0667C12.3764 11.0651 12.4707 11.0261 12.5494 10.9495C12.626 10.8708 12.6651 10.7765 12.6666 10.6667Z" fill-rule="evenodd"  fill="#495AD4" >
</path>
<path d="M6.53345 3.73333L6.53345 10.6667C6.53345 10.8876 6.71253 11.0667 6.93345 11.0667L9.06678 11.0667C9.28769 11.0667 9.46678 10.8876 9.46678 10.6667L9.46678 3.73333C9.46678 3.51241 9.28769 3.33333 9.06678 3.33333L6.93345 3.33333C6.71253 3.33333 6.53345 3.51241 6.53345 3.73333ZM7.33345 10.2667L7.33345 4.13333L8.66678 4.13333L8.66678 10.2667L7.33345 10.2667Z" fill-rule="evenodd"  fill="#495AD4" >
</path>
</svg>
