<svg xmlns="http://www.w3.org/2000/svg" xmlns:xlink="http://www.w3.org/1999/xlink" width="16" height="16"
  viewBox="0 0 16 16" fill="none">
  <g opacity="1" transform="translate(0 0)  rotate(0)">
    <mask id="bg-mask-0" fill="white">
      <use transform="translate(0 0)  rotate(0)" xlink:href="#path_0"></use>
    </mask>
    <g mask="url(#bg-mask-0)">
      <path id="圆形 1 (轮廓)" fill-rule="evenodd" style="fill:#656A85" opacity="1"
        d="M7.99999 2.80005C7.77999 2.80005 7.59999 2.98005 7.59999 3.20005C7.59999 3.42005 7.77999 3.60005 7.99999 3.60005C10.43 3.60005 12.4 5.57005 12.4 8.00005C12.4 10.43 10.43 12.4 7.99999 12.4C5.56999 12.4 3.59999 10.43 3.59999 8.00005C3.59999 6.78005 4.02999 5.75005 4.88999 4.89005L4.88999 4.89005C4.95999 4.82005 5.00999 4.72005 5.00999 4.61005C5.00999 4.38005 4.82999 4.21005 4.60999 4.21005C4.47999 4.21005 4.35999 4.27005 4.28999 4.36005C3.29999 5.36005 2.79999 6.58005 2.79999 8.00005C2.79999 10.87 5.12999 13.2 7.99999 13.2C10.87 13.2 13.2 10.87 13.2 8.00005C13.2 5.13005 10.87 2.80005 7.99999 2.80005Z">
      </path>
      <g opacity="1" transform="translate(6 6)  rotate(0)">
        <path id="直线 1 (轮廓)" fill-rule="evenodd" style="fill:#656A85" opacity="1"
          d="M-1.20997e-05 0.4L-1.20997e-05 3.6C-1.20997e-05 3.821 0.178988 4 0.399988 4C0.620988 4 0.799988 3.821 0.799988 3.6L0.799988 0.4C0.799988 0.179 0.620988 0 0.399988 0C0.178988 0 -1.20997e-05 0.179 -1.20997e-05 0.4Z">
        </path>
        <path id="直线 1 (轮廓)" fill-rule="evenodd" style="fill:#656A85" opacity="1"
          d="M3.2 0.4L3.2 3.6C3.2 3.821 3.379 4 3.6 4C3.821 4 4 3.821 4 3.6L4 0.4C4 0.179 3.821 0 3.6 0C3.379 0 3.2 0.179 3.2 0.4Z">
        </path>
      </g>
    </g>
  </g>
  <defs>
    <rect id="path_0" x="0" y="0" width="15.999999999999998" height="15.999999999999998" />
  </defs>
</svg>