<svg xmlns="http://www.w3.org/2000/svg" xmlns:xlink="http://www.w3.org/1999/xlink" width="30" height="30" viewBox="0 0 30 30" fill="none">
<path     fill="#495AD4"  d="M0 26L0 4C0 1.79086 1.79086 0 4 0L26 0C28.2091 0 30 1.79086 30 4L30 26C30 28.2091 28.2091 30 26 30L4 30C1.79086 30 0 28.2091 0 26Z">
</path>
<path d="M24.2811 22.25L24.2811 18.75C24.2811 18.482 24.1381 18.2345 23.9061 18.1005L20.875 16.3505C20.6429 16.2165 20.357 16.2165 20.125 16.3505L17.0939 18.1005C16.8619 18.2345 16.7189 18.482 16.7189 18.75L16.7189 22.25C16.7189 22.518 16.8619 22.7655 17.0939 22.8995L20.125 24.6495C20.357 24.7835 20.6429 24.7835 20.875 24.6495L23.9061 22.8995C24.1381 22.7655 24.2811 22.518 24.2811 22.25ZM22.7811 19.183L22.7811 21.817L20.5 23.134L18.2189 21.817L18.2189 19.183L20.5 17.866L22.7811 19.183Z" fill-rule="evenodd"  fill="#E8CA99" >
</path>
<path d="M21.5 20.5C21.5 21.0523 21.0523 21.5 20.5 21.5C19.9477 21.5 19.5 21.0523 19.5 20.5C19.5 19.9477 19.9477 19.5 20.5 19.5C21.0523 19.5 21.5 19.9477 21.5 20.5Z"   fill="#FFFFFF" >
</path>
<path d="M6.31 13.29C6.29 13.24 6.27 13.19 6.26 13.15C6.25 13.1 6.25 13.05 6.25 13L6.25 7C6.25 6.95 6.25 6.9 6.26 6.85C6.27 6.81 6.29 6.76 6.31 6.71C6.33 6.67 6.35 6.62 6.38 6.58C6.4 6.54 6.43 6.5 6.47 6.47C6.5 6.43 6.54 6.4 6.58 6.38C6.62 6.35 6.67 6.33 6.71 6.31C6.76 6.29 6.81 6.27 6.85 6.26C6.9 6.25 6.95 6.25 7 6.25L23 6.25C23.05 6.25 23.1 6.25 23.15 6.26C23.19 6.27 23.24 6.29 23.29 6.31C23.33 6.33 23.38 6.35 23.42 6.38C23.46 6.4 23.5 6.43 23.53 6.47C23.57 6.5 23.6 6.54 23.62 6.58C23.65 6.62 23.67 6.67 23.69 6.71C23.71 6.76 23.73 6.81 23.74 6.85C23.75 6.9 23.75 6.95 23.75 7L23.75 13C23.75 13.05 23.75 13.1 23.74 13.15C23.73 13.19 23.71 13.24 23.69 13.29C23.67 13.33 23.65 13.38 23.62 13.42C23.6 13.46 23.57 13.5 23.53 13.53C23.5 13.57 23.46 13.6 23.42 13.62C23.38 13.65 23.33 13.67 23.29 13.69C23.24 13.71 23.19 13.73 23.15 13.74C23.1 13.75 23.05 13.75 23 13.75L20.7508 13.75L20.7505 15.0056C20.6675 15.0019 20.584 15 20.5 15C20.0702 15 19.6519 15.0493 19.2505 15.1426L19.2508 13.75L10.7502 13.75L10.7508 16.25L17.0087 16.25C16.4999 16.6685 16.0676 17.1765 15.7358 17.75L7.75 17.75L7.75 22.25L15.2843 22.25C15.4663 22.7927 15.7306 23.2977 16.0625 23.75L7 23.75C6.95 23.75 6.9 23.75 6.85 23.74C6.81 23.73 6.76 23.71 6.71 23.69C6.67 23.67 6.62 23.65 6.58 23.62C6.54 23.6 6.5 23.57 6.47 23.53C6.43 23.5 6.4 23.46 6.38 23.42C6.35 23.38 6.33 23.33 6.31 23.29C6.29 23.24 6.27 23.19 6.26 23.15C6.25 23.1 6.25 23.05 6.25 23L6.25 17C6.25 16.95 6.25 16.9 6.26 16.85C6.27 16.81 6.29 16.76 6.31 16.71C6.33 16.67 6.35 16.62 6.38 16.58C6.4 16.54 6.43 16.5 6.47 16.47C6.5 16.43 6.54 16.4 6.58 16.38C6.62 16.35 6.67 16.33 6.71 16.31C6.76 16.29 6.81 16.27 6.85 16.26C6.9 16.25 6.95 16.25 7 16.25L9.25081 16.25L9.25018 13.75L7 13.75C6.95 13.75 6.9 13.75 6.85 13.74C6.81 13.73 6.76 13.71 6.71 13.69C6.67 13.67 6.62 13.65 6.58 13.62C6.54 13.6 6.5 13.57 6.47 13.53C6.43 13.5 6.4 13.46 6.38 13.42C6.35 13.38 6.33 13.33 6.31 13.29ZM15.1407 19.2583C15.0487 19.6573 15 20.073 15 20.5C15 20.5838 15.0019 20.6671 15.0056 20.75L15 20.75L10 20.75C9.95 20.75 9.9 20.75 9.85 20.74C9.81 20.73 9.76 20.71 9.71 20.69C9.67 20.67 9.62 20.65 9.58 20.62C9.54 20.6 9.5 20.57 9.47 20.53C9.43 20.5 9.4 20.46 9.38 20.42C9.35 20.38 9.33 20.33 9.31 20.29C9.29 20.24 9.27 20.19 9.26 20.15C9.25 20.1 9.25 20.05 9.25 20C9.25 19.95 9.25 19.9 9.26 19.85C9.27 19.81 9.29 19.76 9.31 19.71C9.33 19.67 9.35 19.62 9.38 19.58C9.4 19.54 9.43 19.5 9.47 19.47C9.5 19.43 9.54 19.4 9.58 19.38C9.62 19.35 9.67 19.33 9.71 19.31C9.76 19.29 9.81 19.27 9.85 19.26C9.9 19.25 9.95 19.25 10 19.25L15 19.25C15.0469 19.25 15.0938 19.25 15.1407 19.2583ZM7.75 12.25L7.75 7.75L22.25 7.75L22.25 12.25L7.75 12.25ZM9.85 9.26C9.9 9.25 9.95 9.25 10 9.25L15 9.25C15.05 9.25 15.1 9.25 15.15 9.26C15.19 9.27 15.24 9.29 15.29 9.31C15.33 9.33 15.38 9.35 15.42 9.38C15.46 9.4 15.5 9.43 15.53 9.47C15.57 9.5 15.6 9.54 15.62 9.58C15.65 9.62 15.67 9.67 15.69 9.71C15.71 9.76 15.73 9.81 15.74 9.85C15.75 9.9 15.75 9.95 15.75 10C15.75 10.05 15.75 10.1 15.74 10.15C15.73 10.19 15.71 10.24 15.69 10.29C15.67 10.33 15.65 10.38 15.62 10.42C15.6 10.46 15.57 10.5 15.53 10.53C15.5 10.57 15.46 10.6 15.42 10.62C15.38 10.65 15.33 10.67 15.29 10.69C15.24 10.71 15.19 10.73 15.15 10.74C15.1 10.75 15.05 10.75 15 10.75L10 10.75C9.95 10.75 9.9 10.75 9.85 10.74C9.81 10.73 9.76 10.71 9.71 10.69C9.67 10.67 9.62 10.65 9.58 10.62C9.54 10.6 9.5 10.57 9.47 10.53C9.43 10.5 9.4 10.46 9.38 10.42C9.35 10.38 9.33 10.33 9.31 10.29C9.29 10.24 9.27 10.19 9.26 10.15C9.25 10.1 9.25 10.05 9.25 10C9.25 9.95 9.25 9.9 9.26 9.85C9.27 9.81 9.29 9.76 9.31 9.71C9.33 9.67 9.35 9.62 9.38 9.58C9.4 9.54 9.43 9.5 9.47 9.47C9.5 9.43 9.54 9.4 9.58 9.38C9.62 9.35 9.67 9.33 9.71 9.31C9.76 9.29 9.81 9.27 9.85 9.26ZM19.19 9.71C19.21 9.76 19.23 9.81 19.24 9.85C19.25 9.9 19.25 9.95 19.25 10C19.25 10.05 19.25 10.1 19.24 10.15C19.23 10.19 19.21 10.24 19.19 10.29C19.17 10.33 19.15 10.38 19.12 10.42C19.1 10.46 19.07 10.5 19.03 10.53C19 10.57 18.96 10.6 18.92 10.62C18.88 10.65 18.83 10.67 18.79 10.69C18.74 10.71 18.69 10.73 18.65 10.74C18.6 10.75 18.55 10.75 18.5 10.75L18 10.75C17.95 10.75 17.9 10.75 17.85 10.74C17.81 10.73 17.76 10.71 17.71 10.69C17.67 10.67 17.62 10.65 17.58 10.62C17.54 10.6 17.5 10.57 17.47 10.53C17.43 10.5 17.4 10.46 17.38 10.42C17.35 10.38 17.33 10.33 17.31 10.29C17.29 10.24 17.27 10.19 17.26 10.15C17.25 10.1 17.25 10.05 17.25 10C17.25 9.95 17.25 9.9 17.26 9.85C17.27 9.81 17.29 9.76 17.31 9.71C17.33 9.67 17.35 9.62 17.38 9.58C17.4 9.54 17.43 9.5 17.47 9.47C17.5 9.43 17.54 9.4 17.58 9.38C17.62 9.35 17.67 9.33 17.71 9.31C17.76 9.29 17.81 9.27 17.85 9.26C17.9 9.25 17.95 9.25 18 9.25L18.5 9.25C18.55 9.25 18.6 9.25 18.65 9.26C18.69 9.27 18.74 9.29 18.79 9.31C18.83 9.33 18.88 9.35 18.92 9.38C18.96 9.4 19 9.43 19.03 9.47C19.07 9.5 19.1 9.54 19.12 9.58C19.15 9.62 19.17 9.67 19.19 9.71Z" fill-rule="evenodd"  fill="#FFFFFF" >
</path>
</svg>
