<svg xmlns="http://www.w3.org/2000/svg" xmlns:xlink="http://www.w3.org/1999/xlink" width="30" height="30"
  viewBox="0 0 30 30" fill="none">
  <g opacity="1" transform="translate(0 0)  rotate(0)">
    <g mask="url(#bg-mask-0)">
      <path id="矩形 2 (轮廓)" fill-rule="evenodd" style="fill:#131926" opacity="1"
        d="M19.25,10v-3c0,-0.05 0,-0.1 0.01,-0.15c0.01,-0.04 0.03,-0.09 0.05,-0.14c0.02,-0.04 0.04,-0.09 0.07,-0.13c0.02,-0.04 0.05,-0.08 0.09,-0.11c0.03,-0.04 0.07,-0.07 0.11,-0.09c0.04,-0.03 0.09,-0.05 0.13,-0.07c0.05,-0.02 0.1,-0.04 0.14,-0.05c0.05,-0.01 0.1,-0.01 0.15,-0.01h3c0.05,0 0.1,0 0.15,0.01c0.04,0.01 0.09,0.03 0.14,0.05c0.04,0.02 0.09,0.04 0.13,0.07c0.04,0.02 0.08,0.05 0.11,0.09c0.04,0.03 0.07,0.07 0.09,0.11c0.03,0.04 0.05,0.09 0.07,0.13c0.02,0.05 0.04,0.1 0.05,0.14c0.01,0.05 0.01,0.1 0.01,0.15v3c0,0.05 0,0.1 -0.01,0.15c-0.01,0.04 -0.03,0.09 -0.05,0.14c-0.02,0.04 -0.04,0.09 -0.07,0.13c-0.02,0.04 -0.05,0.08 -0.09,0.11c-0.03,0.04 -0.07,0.07 -0.11,0.09c-0.04,0.03 -0.09,0.05 -0.13,0.07c-0.05,0.02 -0.1,0.04 -0.14,0.05c-0.05,0.01 -0.1,0.01 -0.15,0.01h-3c-0.05,0 -0.1,0 -0.15,-0.01c-0.04,-0.01 -0.09,-0.03 -0.14,-0.05c-0.04,-0.02 -0.09,-0.04 -0.13,-0.07c-0.04,-0.02 -0.08,-0.05 -0.11,-0.09c-0.04,-0.03 -0.07,-0.07 -0.09,-0.11c-0.03,-0.04 -0.05,-0.09 -0.07,-0.13c-0.02,-0.05 -0.04,-0.1 -0.05,-0.14c-0.01,-0.05 -0.01,-0.1 -0.01,-0.15zM20.75,7.75v1.5h1.5v-1.5z">
      </path>
      <path id="矩形 2 (轮廓)" fill-rule="evenodd" style="fill:#131926" opacity="1"
        d="M19.25,16.5v-3c0,-0.05 0,-0.1 0.01,-0.15c0.01,-0.04 0.03,-0.09 0.05,-0.14c0.02,-0.04 0.04,-0.09 0.07,-0.13c0.02,-0.04 0.05,-0.08 0.09,-0.11c0.03,-0.04 0.07,-0.07 0.11,-0.09c0.04,-0.03 0.09,-0.05 0.13,-0.07c0.05,-0.02 0.1,-0.04 0.14,-0.05c0.05,-0.01 0.1,-0.01 0.15,-0.01h3c0.05,0 0.1,0 0.15,0.01c0.04,0.01 0.09,0.03 0.14,0.05c0.04,0.02 0.09,0.04 0.13,0.07c0.04,0.02 0.08,0.05 0.11,0.09c0.04,0.03 0.07,0.07 0.09,0.11c0.03,0.04 0.05,0.09 0.07,0.13c0.02,0.05 0.04,0.1 0.05,0.14c0.01,0.05 0.01,0.1 0.01,0.15v3c0,0.05 0,0.1 -0.01,0.15c-0.01,0.04 -0.03,0.09 -0.05,0.14c-0.02,0.04 -0.04,0.09 -0.07,0.13c-0.02,0.04 -0.05,0.08 -0.09,0.11c-0.03,0.04 -0.07,0.07 -0.11,0.09c-0.04,0.03 -0.09,0.05 -0.13,0.07c-0.05,0.02 -0.1,0.04 -0.14,0.05c-0.05,0.01 -0.1,0.01 -0.15,0.01h-3c-0.05,0 -0.1,0 -0.15,-0.01c-0.04,-0.01 -0.09,-0.03 -0.14,-0.05c-0.04,-0.02 -0.09,-0.04 -0.13,-0.07c-0.04,-0.02 -0.08,-0.05 -0.11,-0.09c-0.04,-0.03 -0.07,-0.07 -0.09,-0.11c-0.03,-0.04 -0.05,-0.09 -0.07,-0.13c-0.02,-0.05 -0.04,-0.1 -0.05,-0.14c-0.01,-0.05 -0.01,-0.1 -0.01,-0.15zM20.75,14.25v1.5h1.5v-1.5z">
      </path>
      <path id="矩形 2 (轮廓)" fill-rule="evenodd" style="fill:#495AD4" opacity="1"
        d="M6.25,18v-6c0,-0.05 0,-0.1 0.01,-0.15c0.01,-0.04 0.03,-0.09 0.05,-0.14c0.02,-0.04 0.04,-0.09 0.07,-0.13c0.02,-0.04 0.05,-0.08 0.09,-0.11c0.03,-0.04 0.07,-0.07 0.11,-0.09c0.04,-0.03 0.09,-0.05 0.13,-0.07c0.05,-0.02 0.1,-0.04 0.14,-0.05c0.05,-0.01 0.1,-0.01 0.15,-0.01h3c0.05,0 0.1,0 0.15,0.01c0.04,0.01 0.09,0.03 0.14,0.05c0.04,0.02 0.09,0.04 0.13,0.07c0.04,0.02 0.08,0.05 0.11,0.09c0.04,0.03 0.07,0.07 0.09,0.11c0.03,0.04 0.05,0.09 0.07,0.13c0.02,0.05 0.04,0.1 0.05,0.14c0.01,0.05 0.01,0.1 0.01,0.15v6c0,0.05 0,0.1 -0.01,0.15c-0.01,0.04 -0.03,0.09 -0.05,0.14c-0.02,0.04 -0.04,0.09 -0.07,0.13c-0.02,0.04 -0.05,0.08 -0.09,0.11c-0.03,0.04 -0.07,0.07 -0.11,0.09c-0.04,0.03 -0.09,0.05 -0.13,0.07c-0.05,0.02 -0.1,0.04 -0.14,0.05c-0.05,0.01 -0.1,0.01 -0.15,0.01h-3c-0.05,0 -0.1,0 -0.15,-0.01c-0.04,-0.01 -0.09,-0.03 -0.14,-0.05c-0.04,-0.02 -0.09,-0.04 -0.13,-0.07c-0.04,-0.02 -0.08,-0.05 -0.11,-0.09c-0.04,-0.03 -0.07,-0.07 -0.09,-0.11c-0.03,-0.04 -0.05,-0.09 -0.07,-0.13c-0.02,-0.05 -0.04,-0.1 -0.05,-0.14c-0.01,-0.05 -0.01,-0.1 -0.01,-0.15zM7.75,12.75v4.5h1.5v-4.5z">
      </path>
      <path id="矩形 2 (轮廓)" fill-rule="evenodd" style="fill:#131926" opacity="1"
        d="M19.25,23v-3c0,-0.05 0,-0.1 0.01,-0.15c0.01,-0.04 0.03,-0.09 0.05,-0.14c0.02,-0.04 0.04,-0.09 0.07,-0.13c0.02,-0.04 0.05,-0.08 0.09,-0.11c0.03,-0.04 0.07,-0.07 0.11,-0.09c0.04,-0.03 0.09,-0.05 0.13,-0.07c0.05,-0.02 0.1,-0.04 0.14,-0.05c0.05,-0.01 0.1,-0.01 0.15,-0.01h3c0.05,0 0.1,0 0.15,0.01c0.04,0.01 0.09,0.03 0.14,0.05c0.04,0.02 0.09,0.04 0.13,0.07c0.04,0.02 0.08,0.05 0.11,0.09c0.04,0.03 0.07,0.07 0.09,0.11c0.03,0.04 0.05,0.09 0.07,0.13c0.02,0.05 0.04,0.1 0.05,0.14c0.01,0.05 0.01,0.1 0.01,0.15v3c0,0.05 0,0.1 -0.01,0.15c-0.01,0.04 -0.03,0.09 -0.05,0.14c-0.02,0.04 -0.04,0.09 -0.07,0.13c-0.02,0.04 -0.05,0.08 -0.09,0.11c-0.03,0.04 -0.07,0.07 -0.11,0.09c-0.04,0.03 -0.09,0.05 -0.13,0.07c-0.05,0.02 -0.1,0.04 -0.14,0.05c-0.05,0.01 -0.1,0.01 -0.15,0.01h-3c-0.05,0 -0.1,0 -0.15,-0.01c-0.04,-0.01 -0.09,-0.03 -0.14,-0.05c-0.04,-0.02 -0.09,-0.04 -0.13,-0.07c-0.04,-0.02 -0.08,-0.05 -0.11,-0.09c-0.04,-0.03 -0.07,-0.07 -0.09,-0.11c-0.03,-0.04 -0.05,-0.09 -0.07,-0.13c-0.02,-0.05 -0.04,-0.1 -0.05,-0.14c-0.01,-0.05 -0.01,-0.1 -0.01,-0.15zM20.75,20.75v1.5h1.5v-1.5z">
      </path>
      <path id="直线 1 (轮廓)" fill-rule="evenodd" style="fill:#131926" opacity="1"
        d="M18 15.75C18.05 15.75 18.1 15.75 18.15 15.74C18.19 15.73 18.24 15.71 18.29 15.69C18.33 15.67 18.38 15.65 18.42 15.62C18.46 15.6 18.5 15.57 18.53 15.53C18.57 15.5 18.6 15.46 18.62 15.42C18.65 15.38 18.67 15.33 18.69 15.29C18.71 15.24 18.73 15.19 18.74 15.15C18.75 15.1 18.75 15.05 18.75 15C18.75 14.95 18.75 14.9 18.74 14.85C18.73 14.81 18.71 14.76 18.69 14.71C18.67 14.67 18.65 14.62 18.62 14.58C18.6 14.54 18.57 14.5 18.53 14.47C18.5 14.43 18.46 14.4 18.42 14.38C18.38 14.35 18.33 14.33 18.29 14.31C18.24 14.29 18.19 14.27 18.15 14.26C18.1 14.25 18.05 14.25 18 14.25L12 14.25C11.95 14.25 11.9 14.25 11.85 14.26C11.81 14.27 11.76 14.29 11.71 14.31C11.67 14.33 11.62 14.35 11.58 14.38C11.54 14.4 11.5 14.43 11.47 14.47C11.43 14.5 11.4 14.54 11.38 14.58C11.35 14.62 11.33 14.67 11.31 14.71C11.29 14.76 11.27 14.81 11.26 14.85C11.25 14.9 11.25 14.95 11.25 15C11.25 15.05 11.25 15.1 11.26 15.15C11.27 15.19 11.29 15.24 11.31 15.29C11.33 15.33 11.35 15.38 11.38 15.42C11.4 15.46 11.43 15.5 11.47 15.53C11.5 15.57 11.54 15.6 11.58 15.62C11.62 15.65 11.67 15.67 11.71 15.69C11.76 15.71 11.81 15.73 11.85 15.74C11.9 15.75 11.95 15.75 12 15.75L18 15.75Z">
      </path>
      <path id="圆形 1 (轮廓)" fill-rule="evenodd" style="fill:#131926" opacity="1"
        d="M18.22 9.36526C18.27 9.31526 18.31 9.26526 18.35 9.20526C18.38 9.14526 18.41 9.08526 18.42 9.02526C18.44 8.95526 18.45 8.89526 18.45 8.82526C18.45 8.77526 18.44 8.72526 18.44 8.67526C18.43 8.63526 18.41 8.58526 18.39 8.53526C18.37 8.49526 18.35 8.44526 18.32 8.40526C18.3 8.36526 18.26 8.32526 18.23 8.29526C18.2 8.25526 18.16 8.22526 18.12 8.20526C18.08 8.17526 18.03 8.15526 17.99 8.13526C17.94 8.11526 17.89 8.09526 17.85 8.08526C17.8 8.07526 17.75 8.07526 17.7 8.07526C17.57 8.07526 17.44 8.10526 17.32 8.17526C17.13 8.28526 16.93 8.40526 16.71 8.54526C16.7 8.54526 16.69 8.55526 16.69 8.55526C16.25 8.85526 15.86 9.17526 15.52 9.51526C14.8 10.2353 14.25 11.0553 13.86 11.9853C13.45 12.9453 13.25 13.9453 13.25 14.9953C13.25 16.0553 13.45 17.0553 13.86 18.0153C14.25 18.9453 14.8 19.7653 15.51 20.4653C15.84 20.8053 16.24 21.1353 16.69 21.4453C16.69 21.4453 16.7 21.4553 16.71 21.4553C16.93 21.5953 17.14 21.7253 17.34 21.8353L17.34 21.8353C17.45 21.8953 17.57 21.9253 17.7 21.9253C17.75 21.9253 17.8 21.9153 17.85 21.9153C17.89 21.9053 17.94 21.8853 17.99 21.8653C18.03 21.8453 18.08 21.8253 18.12 21.7953C18.16 21.7753 18.2 21.7353 18.23 21.7053C18.26 21.6653 18.3 21.6353 18.32 21.5953C18.35 21.5553 18.37 21.5053 18.39 21.4653C18.41 21.4153 18.43 21.3653 18.44 21.3253C18.44 21.2753 18.45 21.2253 18.45 21.1753C18.45 21.1053 18.44 21.0353 18.42 20.9753C18.4 20.9053 18.38 20.8453 18.34 20.7853C18.3 20.7253 18.26 20.6753 18.21 20.6253C18.16 20.5753 18.1 20.5353 18.04 20.5053C17.88 20.4153 17.71 20.3153 17.52 20.1953C17.16 19.9453 16.85 19.6953 16.59 19.4253C16 18.8453 15.56 18.1853 15.24 17.4353C14.91 16.6653 14.75 15.8453 14.75 14.9953C14.75 14.1453 14.91 13.3353 15.24 12.5653C15.56 11.8153 16 11.1553 16.58 10.5753C16.85 10.3053 17.16 10.0453 17.52 9.80526C17.71 9.68526 17.89 9.57526 18.06 9.48526L18.06 9.48526C18.12 9.44526 18.17 9.41526 18.22 9.36526Z">
      </path>
    </g>
  </g>
  <defs>
    <rect id="path_0" x="0" y="0" width="30" height="30" />
  </defs>
</svg>