<svg xmlns="http://www.w3.org/2000/svg" xmlns:xlink="http://www.w3.org/1999/xlink" width="30" height="30"
  viewBox="0 0 30 30" fill="none">
  <g opacity="1" transform="translate(0 0)  rotate(0)">
    <mask id="bg-mask-0" fill="white">
      <use transform="translate(0 0)  rotate(0)" xlink:href="#path_0"></use>
    </mask>
    <g mask="url(#bg-mask-0)">
      <g opacity="1" transform="translate(6.25 6.25)  rotate(0)">
        <path id="路径 2 (轮廓)" fill-rule="evenodd" style="fill:#131926" opacity="1"
          d="M15 7.75C15 8.16 15.34 8.5 15.75 8.5C16.16 8.5 16.5 8.16 16.5 7.75L16.5 0.75C16.5 0.34 16.16 0 15.75 0L0.75 0C0.34 0 0 0.34 0 0.75L0 13.75C0 14.16 0.34 14.5 0.75 14.5L8.75 14.5C9.16 14.5 9.5 14.16 9.5 13.75C9.5 13.34 9.16 13 8.75 13L1.5 13L1.5 1.5L15 1.5L15 7.75Z">
        </path>
        <path id="路径 3 (轮廓)" fill-rule="evenodd" style="fill:#131926" opacity="1"
          d="M0.75 17.5L9.75 17.5C10.16 17.5 10.5 17.16 10.5 16.75C10.5 16.34 10.16 16 9.75 16L0.75 16C0.34 16 0 16.34 0 16.75C0 17.16 0.34 17.5 0.75 17.5Z">
        </path>
        <path id="直线 4 (轮廓)" fill-rule="evenodd" style="fill:#131926" opacity="1"
          d="M3.75 5.5L11.75 5.5C12.16 5.5 12.5 5.16 12.5 4.75C12.5 4.34 12.16 4 11.75 4L3.75 4C3.34 4 3 4.34 3 4.75C3 5.16 3.34 5.5 3.75 5.5Z">
        </path>
        <path id="直线 5 (轮廓)" fill-rule="evenodd" style="fill:#131926" opacity="1"
          d="M3.75 8.5L7.75 8.5C8.16 8.5 8.5 8.16 8.5 7.75C8.5 7.34 8.16 7 7.75 7L3.75 7C3.34 7 3 7.34 3 7.75C3 8.16 3.34 8.5 3.75 8.5Z">
        </path>
      </g>
      <g opacity="1" transform="translate(16.4393310546875 15.939346313476562)  rotate(0)">
        <path id="直线 2 (轮廓)" fill-rule="evenodd" style="fill:#495AD4" opacity="1"
          d="M6.31067 7.06065L6.31067 1.06065C6.31067 0.650654 5.97067 0.310654 5.56067 0.310654C5.15067 0.310654 4.81067 0.650654 4.81067 1.06065L4.81067 7.06065C4.81067 7.47065 5.15067 7.81065 5.56067 7.81065C5.97067 7.81065 6.31067 7.47065 6.31067 7.06065Z">
        </path>
        <path id="直线 3 (轮廓)" fill-rule="evenodd" style="fill:#495AD4" opacity="1"
          d="M1.81067 1.06065L1.81067 7.06065C1.81067 7.47065 2.15067 7.81065 2.56067 7.81065C2.97067 7.81065 3.31067 7.47065 3.31067 7.06065L3.31067 1.06065C3.31067 0.650654 2.97067 0.310654 2.56067 0.310654C2.15067 0.310654 1.81067 0.650654 1.81067 1.06065Z">
        </path>
        <path id="直线 6 (轮廓)" fill-rule="evenodd" style="fill:#495AD4" opacity="1"
          d="M2.03035 0.530324L0.531281 2.02939C0.234297 2.32637 0.241368 2.80014 0.531281 3.09005C0.821195 3.37996 1.29496 3.38703 1.59194 3.09005L3.09101 1.59098C3.38092 1.30107 3.38092 0.820237 3.09101 0.530324C2.80109 0.24041 2.32026 0.24041 2.03035 0.530324Z">
        </path>
        <path id="直线 7 (轮廓)" fill-rule="evenodd" style="fill:#495AD4" opacity="1"
          d="M6.09099 7.59098L7.59006 6.09192C7.88704 5.79493 7.87997 5.32117 7.59006 5.03126C7.30014 4.74134 6.82638 4.73427 6.5294 5.03126L5.03033 6.53032C4.74042 6.82024 4.74042 7.30107 5.03033 7.59098C5.32024 7.8809 5.80108 7.8809 6.09099 7.59098Z">
        </path>
      </g>
    </g>
  </g>
  <defs>
    <rect id="path_0" x="0" y="0" width="30" height="30" />
  </defs>
</svg>