<svg xmlns="http://www.w3.org/2000/svg" xmlns:xlink="http://www.w3.org/1999/xlink" width="24" height="24" viewBox="0 0 24 24" fill="none"><g opacity="1" transform="translate(0 0)  rotate(0)"><mask id="bg-mask-0" fill="white"><use xlink:href="#path_0"></use></mask><g mask="url(#bg-mask-0)" ><path id="矩形 3 (轮廓)" fill-rule="evenodd" style="fill:#A0A3B8" opacity="1" d="M6.2,17.8h11.6v-9.99999h-11.6zM18.52,6.61001c0.04,0.01 0.07,0.02 0.11,0.04c0.04,0.01 0.07,0.03 0.1,0.05c0.04,0.02 0.07,0.05 0.09,0.08c0.03,0.02 0.06,0.05 0.08,0.09c0.02,0.03 0.04,0.06 0.05,0.1c0.02,0.04 0.03,0.07 0.04,0.11c0.01,0.04 0.01,0.08 0.01,0.12v11.19999c0,0.04 0,0.08 -0.01,0.12c-0.01,0.04 -0.02,0.07 -0.04,0.11c-0.01,0.04 -0.03,0.07 -0.05,0.1c-0.02,0.04 -0.05,0.07 -0.08,0.09c-0.02,0.03 -0.05,0.06 -0.09,0.08c-0.03,0.02 -0.06,0.04 -0.1,0.05c-0.04,0.02 -0.07,0.03 -0.11,0.04c-0.04,0.01 -0.08,0.01 -0.12,0.01h-12.8c-0.04,0 -0.08,0 -0.12,-0.01c-0.04,-0.01 -0.07,-0.02 -0.11,-0.04c-0.04,-0.01 -0.07,-0.03 -0.1,-0.05c-0.04,-0.02 -0.07,-0.05 -0.09,-0.08c-0.03,-0.02 -0.06,-0.05 -0.08,-0.09c-0.02,-0.03 -0.04,-0.06 -0.05,-0.1c-0.02,-0.04 -0.03,-0.07 -0.04,-0.11c-0.01,-0.04 -0.01,-0.08 -0.01,-0.12v-11.19999c0,-0.04 0,-0.08 0.01,-0.12c0.01,-0.04 0.02,-0.07 0.04,-0.11c0.01,-0.04 0.03,-0.07 0.05,-0.1c0.02,-0.04 0.05,-0.07 0.08,-0.09c0.02,-0.03 0.05,-0.06 0.09,-0.08c0.03,-0.02 0.06,-0.04 0.1,-0.05c0.04,-0.02 0.07,-0.03 0.11,-0.04c0.04,-0.01 0.08,-0.01 0.12,-0.01h12.8c0.04,0 0.08,0 0.12,0.01z"></path><path id="直线 4 (轮廓)" fill-rule="evenodd" style="fill:#A0A3B8" opacity="1" d="M9.3 9.13C9.32 9.1 9.34 9.07 9.36 9.03C9.37 8.99 9.38 8.96 9.39 8.92C9.4 8.88 9.4 8.84 9.4 8.8L9.4 8.8L9.4 5.6L8.8 5.6L9.4 5.6C9.4 5.56 9.4 5.52 9.39 5.48C9.38 5.44 9.37 5.41 9.35 5.37C9.34 5.33 9.32 5.3 9.3 5.27C9.28 5.23 9.25 5.2 9.22 5.18C9.2 5.15 9.17 5.12 9.13 5.1C9.1 5.08 9.07 5.06 9.03 5.05C8.99 5.03 8.96 5.02 8.92 5.01C8.88 5 8.84 5 8.8 5C8.76 5 8.72 5 8.68 5.01C8.64 5.02 8.61 5.03 8.57 5.05C8.53 5.06 8.5 5.08 8.47 5.1C8.43 5.12 8.4 5.15 8.38 5.18C8.35 5.2 8.32 5.23 8.3 5.27C8.28 5.3 8.26 5.33 8.25 5.37C8.23 5.41 8.22 5.44 8.21 5.48C8.2 5.52 8.2 5.56 8.2 5.6L8.2 5.6L8.2 8.8L8.8 8.8L8.2 8.8C8.2 8.88 8.22 8.96 8.25 9.03C8.28 9.1 8.32 9.17 8.38 9.22C8.43 9.28 8.5 9.32 8.57 9.35C8.64 9.38 8.72 9.4 8.8 9.4C8.84 9.4 8.88 9.4 8.92 9.39C8.96 9.38 8.99 9.37 9.03 9.35C9.07 9.34 9.1 9.32 9.13 9.3C9.17 9.28 9.2 9.25 9.23 9.22C9.25 9.2 9.28 9.17 9.3 9.13Z"></path><path id="直线 5 (轮廓)" fill-rule="evenodd" style="fill:#A0A3B8" opacity="1" d="M15.53 5.1C15.5 5.08 15.47 5.06 15.43 5.05C15.39 5.03 15.36 5.02 15.32 5.01C15.28 5 15.24 5 15.2 5C15.16 5 15.12 5 15.08 5.01C15.04 5.02 15.01 5.03 14.97 5.05C14.93 5.06 14.9 5.08 14.87 5.1C14.83 5.12 14.8 5.15 14.78 5.18C14.75 5.2 14.72 5.23 14.7 5.27C14.68 5.3 14.66 5.33 14.65 5.37C14.63 5.41 14.62 5.44 14.61 5.48C14.6 5.52 14.6 5.56 14.6 5.6L14.6 5.6L14.6 8.8L15.2 8.8L14.6 8.8C14.6 8.88 14.62 8.96 14.65 9.03C14.68 9.1 14.72 9.17 14.78 9.22C14.83 9.28 14.9 9.32 14.97 9.35C15.04 9.38 15.12 9.4 15.2 9.4C15.24 9.4 15.28 9.4 15.32 9.39C15.36 9.38 15.39 9.37 15.43 9.35C15.47 9.34 15.5 9.32 15.53 9.3C15.57 9.28 15.6 9.25 15.63 9.22C15.65 9.2 15.68 9.17 15.7 9.13C15.72 9.1 15.74 9.07 15.76 9.03C15.77 8.99 15.78 8.96 15.79 8.92C15.8 8.88 15.8 8.84 15.8 8.8L15.8 8.8L15.8 5.6L15.2 5.6L15.8 5.6C15.8 5.56 15.8 5.52 15.79 5.48C15.78 5.44 15.77 5.41 15.75 5.37C15.74 5.33 15.72 5.3 15.7 5.27C15.68 5.23 15.65 5.2 15.62 5.18C15.6 5.15 15.57 5.12 15.53 5.1Z"></path><path id="直线 7 (轮廓)" fill-rule="evenodd" style="fill:#A0A3B8" opacity="1" d="M7.40999 12.12C7.41999 12.16 7.42999 12.19 7.44999 12.23C7.45999 12.27 7.47999 12.3 7.49999 12.33C7.51999 12.37 7.54999 12.4 7.57999 12.42C7.59999 12.45 7.62999 12.48 7.66999 12.5C7.69999 12.52 7.72999 12.54 7.76999 12.55C7.80999 12.57 7.83999 12.58 7.87999 12.59C7.91999 12.6 7.95999 12.6 7.99999 12.6L7.99999 12L7.99999 12.6L16 12.6L16 12.6C16.04 12.6 16.08 12.6 16.12 12.59C16.16 12.58 16.19 12.57 16.23 12.56C16.27 12.54 16.3 12.52 16.33 12.5C16.37 12.48 16.4 12.45 16.42 12.43C16.45 12.4 16.48 12.37 16.5 12.33C16.52 12.3 16.54 12.27 16.55 12.23C16.57 12.19 16.58 12.16 16.59 12.12C16.6 12.08 16.6 12.04 16.6 12C16.6 11.92 16.58 11.84 16.55 11.77C16.52 11.7 16.48 11.63 16.42 11.58C16.37 11.52 16.3 11.48 16.23 11.45C16.16 11.42 16.08 11.4 16 11.4L16 12L16 11.4L7.99999 11.4C7.95999 11.4 7.91999 11.4 7.87999 11.41C7.83999 11.42 7.80999 11.43 7.76999 11.45C7.72999 11.46 7.69999 11.48 7.66999 11.5C7.62999 11.52 7.59999 11.55 7.57999 11.58C7.54999 11.6 7.51999 11.63 7.49999 11.67C7.47999 11.7 7.45999 11.73 7.44999 11.77C7.42999 11.81 7.41999 11.84 7.40999 11.88C7.39999 11.92 7.39999 11.96 7.39999 12C7.39999 12.04 7.39999 12.08 7.40999 12.12Z"></path><path id="直线 8 (轮廓)" fill-rule="evenodd" style="fill:#495AD4" opacity="1" d="M12.8 15.8L12.8 15.8C12.88 15.8 12.96 15.79 13.03 15.76C13.1 15.72 13.17 15.68 13.22 15.63C13.28 15.57 13.32 15.5 13.35 15.43C13.38 15.36 13.4 15.28 13.4 15.2C13.4 15.16 13.4 15.12 13.39 15.08C13.38 15.05 13.37 15.01 13.35 14.97C13.34 14.93 13.32 14.9 13.3 14.87C13.28 14.83 13.25 14.8 13.22 14.78C13.2 14.75 13.17 14.72 13.13 14.7C13.1 14.68 13.07 14.66 13.03 14.65C12.99 14.63 12.96 14.62 12.92 14.61C12.88 14.6 12.84 14.6 12.8 14.6L12.8 15.2L12.8 14.6L7.99999 14.6C7.95999 14.6 7.91999 14.6 7.87999 14.61C7.83999 14.62 7.80999 14.63 7.76999 14.65C7.72999 14.66 7.69999 14.68 7.66999 14.7C7.62999 14.72 7.59999 14.75 7.57999 14.78C7.54999 14.8 7.51999 14.83 7.49999 14.87C7.47999 14.9 7.45999 14.93 7.44999 14.97C7.42999 15.01 7.41999 15.04 7.40999 15.08C7.39999 15.12 7.39999 15.16 7.39999 15.2C7.39999 15.24 7.39999 15.28 7.40999 15.32C7.41999 15.36 7.42999 15.39 7.44999 15.43C7.45999 15.47 7.47999 15.5 7.49999 15.53C7.51999 15.57 7.54999 15.6 7.57999 15.62C7.59999 15.65 7.62999 15.68 7.66999 15.7C7.69999 15.72 7.72999 15.74 7.76999 15.75C7.80999 15.77 7.83999 15.78 7.87999 15.79C7.91999 15.8 7.95999 15.8 7.99999 15.8L7.99999 15.2L7.99999 15.8L12.8 15.8Z"></path></g></g><defs><rect id="path_0" x="0" y="0" width="24" height="24" /></defs></svg>