<svg xmlns="http://www.w3.org/2000/svg" xmlns:xlink="http://www.w3.org/1999/xlink" width="22" height="14" viewBox="0 0 22 14" fill="none">
<path d="M3 1L19 1C20.1046 1 21 1.89543 21 3L21 11C21 12.1046 20.1046 13 19 13L3 13C1.89543 13 1 12.1046 1 11L1 3C1 1.89543 1.89543 1 3 1Z" fill-rule="evenodd"  fill="#FFFFFF" >
</path>
<path d="M19 0.5L3 0.5C1.61929 0.5 0.5 1.61929 0.5 3L0.5 11C0.5 12.3807 1.61929 13.5 3 13.5L19 13.5C20.3807 13.5 21.5 12.3807 21.5 11L21.5 3C21.5 1.61929 20.3807 0.5 19 0.5ZM1.5 3C1.5 2.17157 2.17157 1.5 3 1.5L19 1.5C19.8284 1.5 20.5 2.17157 20.5 3L20.5 11C20.5 11.8284 19.8284 12.5 19 12.5L3 12.5C2.17157 12.5 1.5 11.8284 1.5 11L1.5 3Z" fill-rule="evenodd"  fill="#495AD4" >
</path>
<path     fill="#495AD4"  d="M5 10.41L7.11 10.41C9.3 10.41 10.69 9.17 10.69 6.67C10.69 4.18 9.3 3 7.03 3L5 3L5 10.41ZM6.48 9.21L6.48 4.19L6.93 4.19C8.32 4.19 9.18 4.87 9.18 6.67C9.18 8.47 8.32 9.21 6.93 9.21L6.48 9.21Z">
</path>
<path     fill="#495AD4"  d="M12.14 10.41L14.78 10.41C16.41 10.41 17.64 9.72 17.64 8.23C17.64 7.24 17.06 6.67 16.26 6.48L16.26 6.44C16.89 6.21 17.27 5.52 17.27 4.83C17.27 3.45 16.11 3 14.59 3L12.14 3L12.14 10.41ZM13.62 6.02L13.62 4.14L14.5 4.14C15.39 4.14 15.83 4.4 15.83 5.05C15.83 5.64 15.43 6.02 14.49 6.02L13.62 6.02ZM13.62 9.27L13.62 7.11L14.65 7.11C15.67 7.11 16.2 7.42 16.2 8.14C16.2 8.91 15.65 9.27 14.65 9.27L13.62 9.27Z">
</path>
</svg>
