<svg xmlns="http://www.w3.org/2000/svg" xmlns:xlink="http://www.w3.org/1999/xlink" width="24" height="24" viewBox="0 0 24 24" fill="none"><g opacity="1"  transform="translate(0 0)  rotate(0)"><mask id="bg-mask-0" fill="white"><use xlink:href="#path_0"></use></mask><g mask="url(#bg-mask-0)" ><path id="直线 1 (轮廓)" fill-rule="evenodd" style="fill:#656A85" opacity="1" d="M5.6 8.5999L18.4 8.5999C18.44 8.5999 18.48 8.5999 18.52 8.5899C18.56 8.5799 18.59 8.5699 18.63 8.5499C18.67 8.5399 18.7 8.5199 18.73 8.4999C18.77 8.4799 18.8 8.4499 18.82 8.4199C18.85 8.3999 18.88 8.3699 18.9 8.3299C18.92 8.2999 18.94 8.2699 18.95 8.2299C18.97 8.1899 18.98 8.1599 18.99 8.1199C19 8.0799 19 8.0399 19 7.9999C19 7.9599 19 7.9199 18.99 7.8799C18.98 7.8399 18.97 7.8099 18.95 7.7699C18.94 7.7299 18.92 7.6999 18.9 7.6699C18.88 7.6299 18.85 7.5999 18.82 7.5799C18.8 7.5499 18.77 7.5199 18.73 7.4999C18.7 7.4799 18.67 7.4599 18.63 7.4499C18.59 7.4299 18.56 7.4199 18.52 7.4099C18.48 7.3999 18.44 7.3999 18.4 7.3999L5.6 7.3999C5.56 7.3999 5.52 7.3999 5.48 7.4099C5.44 7.4199 5.41 7.4299 5.37 7.4499C5.33 7.4599 5.3 7.4799 5.27 7.4999C5.23 7.5199 5.2 7.5499 5.18 7.5799C5.15 7.5999 5.12 7.6299 5.1 7.6699C5.08 7.6999 5.06 7.7299 5.05 7.7699C5.03 7.8099 5.02 7.8399 5.01 7.8799C5 7.9199 5 7.9599 5 7.9999C5 8.0399 5 8.0799 5.01 8.1199C5.02 8.1599 5.03 8.1899 5.05 8.2299C5.06 8.2699 5.08 8.2999 5.1 8.3299C5.12 8.3699 5.15 8.3999 5.18 8.4199C5.2 8.4499 5.23 8.4799 5.27 8.4999C5.3 8.5199 5.33 8.5399 5.37 8.5499C5.41 8.5699 5.44 8.5799 5.48 8.5899C5.52 8.5999 5.56 8.5999 5.6 8.5999Z"></path><path id="矩形 2 (轮廓)" fill-rule="evenodd" style="fill:#656A85" opacity="1" d="M13.8 8C13.8 8.04 13.8 8.08 13.81 8.12C13.82 8.16 13.83 8.19 13.85 8.23C13.86 8.27 13.88 8.3 13.9 8.33C13.92 8.37 13.95 8.4 13.98 8.42C14 8.45 14.03 8.48 14.07 8.5C14.1 8.52 14.13 8.54 14.17 8.55C14.21 8.57 14.24 8.58 14.28 8.59C14.32 8.6 14.36 8.6 14.4 8.6C14.44 8.6 14.48 8.6 14.52 8.59C14.56 8.58 14.59 8.57 14.63 8.55C14.67 8.54 14.7 8.52 14.73 8.5C14.77 8.48 14.8 8.45 14.82 8.42C14.85 8.4 14.88 8.37 14.9 8.33C14.92 8.3 14.94 8.27 14.95 8.23C14.97 8.19 14.98 8.16 14.99 8.12C15 8.08 15 8.04 15 8L15 5.6C15 5.56 15 5.52 14.99 5.48C14.98 5.44 14.97 5.41 14.95 5.37C14.94 5.33 14.92 5.3 14.9 5.27C14.88 5.23 14.85 5.2 14.82 5.18C14.8 5.15 14.77 5.12 14.73 5.1C14.7 5.08 14.67 5.06 14.63 5.05C14.59 5.03 14.56 5.02 14.52 5.01C14.48 5 14.44 5 14.4 5L9.6 5C9.56 5 9.52 5 9.48 5.01C9.44 5.02 9.41 5.03 9.37 5.05C9.33 5.06 9.3 5.08 9.27 5.1C9.23 5.12 9.2 5.15 9.18 5.18C9.15 5.2 9.12 5.23 9.1 5.27C9.08 5.3 9.06 5.33 9.05 5.37C9.03 5.41 9.02 5.44 9.01 5.48C9 5.52 9 5.56 9 5.6L9 8C9 8.04 9 8.08 9.01 8.12C9.02 8.16 9.03 8.19 9.05 8.23C9.06 8.27 9.08 8.3 9.1 8.33C9.12 8.37 9.15 8.4 9.18 8.42C9.2 8.45 9.23 8.48 9.27 8.5C9.3 8.52 9.33 8.54 9.37 8.55C9.41 8.57 9.44 8.58 9.48 8.59C9.52 8.6 9.56 8.6 9.6 8.6C9.64 8.6 9.68 8.6 9.72 8.59C9.76 8.58 9.79 8.57 9.83 8.55C9.87 8.54 9.9 8.52 9.93 8.5C9.97 8.48 10 8.45 10.02 8.42C10.05 8.4 10.08 8.37 10.1 8.33C10.12 8.3 10.14 8.27 10.15 8.23C10.17 8.19 10.18 8.16 10.19 8.12C10.2 8.08 10.2 8.04 10.2 8L10.2 6.2L13.8 6.2L13.8 8Z"></path><path id="矩形 2 (轮廓)" fill-rule="evenodd" style="fill:#656A85" opacity="1" d="M6.6001 7.9999L6.6001 18.3999C6.6001 18.4399 6.6001 18.4799 6.6101 18.5199C6.6201 18.5599 6.6301 18.5899 6.6501 18.6299C6.6601 18.6699 6.6801 18.6999 6.7001 18.7299C6.7201 18.7699 6.7501 18.7999 6.7801 18.8199C6.8001 18.8499 6.8301 18.8799 6.8701 18.8999C6.9001 18.9199 6.9301 18.9399 6.9701 18.9499C7.0101 18.9699 7.0401 18.9799 7.0801 18.9899C7.1201 18.9999 7.1601 18.9999 7.2001 18.9999L16.8001 18.9999C16.8401 18.9999 16.8801 18.9999 16.9201 18.9899C16.9601 18.9799 16.9901 18.9699 17.0301 18.9499C17.0701 18.9399 17.1001 18.9199 17.1301 18.8999C17.1701 18.8799 17.2001 18.8499 17.2201 18.8199C17.2501 18.7999 17.2801 18.7699 17.3001 18.7299C17.3201 18.6999 17.3401 18.6699 17.3501 18.6299C17.3701 18.5899 17.3801 18.5599 17.3901 18.5199C17.4001 18.4799 17.4001 18.4399 17.4001 18.3999L17.4001 7.9999C17.4001 7.9599 17.4001 7.9199 17.3901 7.8799C17.3801 7.8399 17.3701 7.8099 17.3501 7.7699C17.3401 7.7299 17.3201 7.6999 17.3001 7.6699C17.2801 7.6299 17.2501 7.5999 17.2201 7.5799C17.2001 7.5499 17.1701 7.5199 17.1301 7.4999C17.1001 7.4799 17.0701 7.4599 17.0301 7.4499C16.9901 7.4299 16.9601 7.4199 16.9201 7.4099C16.8801 7.3999 16.8401 7.3999 16.8001 7.3999C16.7601 7.3999 16.7201 7.3999 16.6801 7.4099C16.6401 7.4199 16.6101 7.4299 16.5701 7.4499C16.5301 7.4599 16.5001 7.4799 16.4701 7.4999C16.4301 7.5199 16.4001 7.5499 16.3801 7.5799C16.3501 7.5999 16.3201 7.6299 16.3001 7.6699C16.2801 7.6999 16.2601 7.7299 16.2501 7.7699C16.2301 7.8099 16.2201 7.8399 16.2101 7.8799C16.2001 7.9199 16.2001 7.9599 16.2001 7.9999L16.2001 17.7999L7.8001 17.7999L7.8001 7.9999C7.8001 7.9599 7.8001 7.9199 7.7901 7.8799C7.7801 7.8399 7.7701 7.8099 7.7501 7.7699C7.7401 7.7299 7.7201 7.6999 7.7001 7.6699C7.6801 7.6299 7.6501 7.5999 7.6201 7.5799C7.6001 7.5499 7.5701 7.5199 7.5301 7.4999C7.5001 7.4799 7.4701 7.4599 7.4301 7.4499C7.3901 7.4299 7.3601 7.4199 7.3201 7.4099C7.2801 7.3999 7.2401 7.3999 7.2001 7.3999C7.1601 7.3999 7.1201 7.3999 7.0801 7.4099C7.0401 7.4199 7.0101 7.4299 6.9701 7.4499C6.9301 7.4599 6.9001 7.4799 6.8701 7.4999C6.8301 7.5199 6.8001 7.5499 6.7801 7.5799C6.7501 7.5999 6.7201 7.6299 6.7001 7.6699C6.6801 7.6999 6.6601 7.7299 6.6501 7.7699C6.6301 7.8099 6.6201 7.8399 6.6101 7.8799C6.6001 7.9199 6.6001 7.9599 6.6001 7.9999Z"></path><path id="路径 1 (轮廓)" fill-rule="evenodd" style="fill:#656A85" opacity="1" d="M9.18 11.6201L13.98 16.4201C14 16.4501 14.03 16.4801 14.07 16.5001C14.1 16.5201 14.13 16.5401 14.17 16.5501C14.21 16.5701 14.24 16.5801 14.28 16.5901C14.32 16.6001 14.36 16.6001 14.4 16.6001C14.44 16.6001 14.48 16.6001 14.52 16.5901C14.56 16.5801 14.59 16.5701 14.63 16.5501C14.67 16.5401 14.7 16.5201 14.73 16.5001C14.77 16.4801 14.8 16.4501 14.82 16.4201C14.88 16.3701 14.92 16.3001 14.95 16.2301C14.98 16.1601 15 16.0801 15 16.0001C15 15.9201 14.98 15.8401 14.95 15.7701C14.92 15.7001 14.88 15.6301 14.82 15.5801L10.02 10.7801C10 10.7501 9.97 10.7201 9.93 10.7001C9.9 10.6801 9.87 10.6601 9.83 10.6501C9.79 10.6301 9.76 10.6201 9.72 10.6101C9.68 10.6001 9.64 10.6001 9.6 10.6001C9.56 10.6001 9.52 10.6001 9.48 10.6101C9.44 10.6201 9.41 10.6301 9.37 10.6501C9.33 10.6601 9.3 10.6801 9.27 10.7001C9.23 10.7201 9.2 10.7501 9.18 10.7801C9.15 10.8001 9.12 10.8301 9.1 10.8701C9.08 10.9001 9.06 10.9301 9.05 10.9701C9.03 11.0101 9.02 11.0401 9.01 11.0801C9 11.1201 9 11.1601 9 11.2001C9 11.2401 9 11.2801 9.01 11.3201C9.02 11.3601 9.03 11.3901 9.05 11.4301C9.06 11.4701 9.08 11.5001 9.1 11.5301C9.12 11.5701 9.15 11.6001 9.18 11.6201Z"></path><path id="路径 2 (轮廓)" fill-rule="evenodd" style="fill:#656A85" opacity="1" d="M13.98 10.7801L9.18 15.5801C9.15 15.6001 9.12 15.6301 9.1 15.6701C9.08 15.7001 9.06 15.7301 9.05 15.7701C9.03 15.8101 9.02 15.8401 9.01 15.8801C9 15.9201 9 15.9601 9 16.0001C9 16.0401 9 16.0801 9.01 16.1201C9.02 16.1601 9.03 16.1901 9.05 16.2301C9.06 16.2701 9.08 16.3001 9.1 16.3301C9.12 16.3701 9.15 16.4001 9.18 16.4201C9.2 16.4501 9.23 16.4801 9.27 16.5001C9.3 16.5201 9.33 16.5401 9.37 16.5501C9.41 16.5701 9.44 16.5801 9.48 16.5901C9.52 16.6001 9.56 16.6001 9.6 16.6001C9.64 16.6001 9.68 16.6001 9.72 16.5901C9.76 16.5801 9.79 16.5701 9.83 16.5501C9.87 16.5401 9.9 16.5201 9.93 16.5001C9.97 16.4801 10 16.4501 10.02 16.4201L14.82 11.6201C14.85 11.6001 14.88 11.5701 14.9 11.5301C14.92 11.5001 14.94 11.4701 14.95 11.4301C14.97 11.3901 14.98 11.3601 14.99 11.3201C15 11.2801 15 11.2401 15 11.2001C15 11.1601 15 11.1201 14.99 11.0801C14.98 11.0401 14.97 11.0101 14.95 10.9701C14.94 10.9301 14.92 10.9001 14.9 10.8701C14.88 10.8301 14.85 10.8001 14.82 10.7801C14.8 10.7501 14.77 10.7201 14.73 10.7001C14.7 10.6801 14.67 10.6601 14.63 10.6501C14.59 10.6301 14.56 10.6201 14.52 10.6101C14.48 10.6001 14.44 10.6001 14.4 10.6001C14.36 10.6001 14.32 10.6001 14.28 10.6101C14.24 10.6201 14.21 10.6301 14.17 10.6501C14.13 10.6601 14.1 10.6801 14.07 10.7001C14.03 10.7201 14 10.7501 13.98 10.7801Z"></path></g></g><defs><rect id="path_0" x="0" y="0" width="24" height="24" /></defs></svg>