<svg xmlns="http://www.w3.org/2000/svg" xmlns:xlink="http://www.w3.org/1999/xlink" width="30" height="30" viewBox="0 0 30 30" fill="none">
  <path d="M7.61548 15.4287C7.47994 15.6229 7.25481 15.75 7 15.75C6.58579 15.75 6.25 15.4142 6.25 15C6.25 14.8339 6.30396 14.6805 6.39531 14.5562C6.77406 14.0279 7.20394 13.5388 7.68496 13.0887C8.64196 12.1933 9.74009 11.5004 10.9793 11.01C12.2596 10.5033 13.5998 10.25 15 10.25C16.4002 10.25 17.7404 10.5033 19.0207 11.01C20.2599 11.5004 21.358 12.1933 22.315 13.0887C22.7961 13.5388 23.226 14.0279 23.6047 14.5562C23.696 14.6805 23.75 14.8339 23.75 15C23.75 15.4142 23.4142 15.75 23 15.75C22.7452 15.75 22.5201 15.6229 22.3845 15.4287C22.0635 14.9811 21.6987 14.5663 21.2902 14.184C20.4719 13.4184 19.5314 12.8253 18.4687 12.4047C17.3657 11.9682 16.2095 11.75 15 11.75C13.7905 11.75 12.6343 11.9682 11.5313 12.4047C10.4686 12.8253 9.52811 13.4184 8.70978 14.184C8.30126 14.5663 7.93649 14.9811 7.61548 15.4287Z" fill-rule="evenodd"  fill="#FFFFFF" >
  </path>
  <path d="M7.61548 14.5713C7.47994 14.3771 7.25481 14.25 7 14.25C6.58579 14.25 6.25 14.5858 6.25 15C6.25 15.1661 6.30396 15.3195 6.39531 15.4438C6.77406 15.9721 7.20394 16.4612 7.68496 16.9113C8.64196 17.8067 9.74009 18.4996 10.9793 18.99C12.2596 19.4967 13.5998 19.75 15 19.75C16.4002 19.75 17.7404 19.4967 19.0207 18.99C20.2599 18.4996 21.358 17.8067 22.315 16.9113C22.7961 16.4612 23.226 15.9721 23.6047 15.4438C23.696 15.3195 23.75 15.1661 23.75 15C23.75 14.5858 23.4142 14.25 23 14.25C22.7452 14.25 22.5201 14.3771 22.3845 14.5713C22.0635 15.0189 21.6987 15.4337 21.2902 15.816C20.4719 16.5816 19.5314 17.1747 18.4687 17.5953C17.3657 18.0318 16.2095 18.25 15 18.25C13.7905 18.25 12.6343 18.0318 11.5313 17.5953C10.4686 17.1747 9.52811 16.5816 8.70978 15.816C8.30126 15.4337 7.93649 15.0189 7.61548 14.5713Z" fill-rule="evenodd"  fill="#FFFFFF" >
  </path>
  <path d="M15 17.75C16.5188 17.75 17.75 16.5188 17.75 15C17.75 13.4812 16.5188 12.25 15 12.25C13.4812 12.25 12.25 13.4812 12.25 15C12.25 16.5188 13.4812 17.75 15 17.75ZM15 13.75C15.6904 13.75 16.25 14.3096 16.25 15C16.25 15.6904 15.6904 16.25 15 16.25C14.3096 16.25 13.75 15.6904 13.75 15C13.75 14.3096 14.3096 13.75 15 13.75Z" fill-rule="evenodd"  fill="#FFFFFF" >
  </path>
  <path d="M14.9907 8.25204C14.5765 8.25344 14.2419 8.59036 14.2433 9.00457L14.25 11.0027C14.2514 11.4169 14.5883 11.7516 15.0025 11.7502C15.4167 11.7488 15.7514 11.4119 15.75 10.9976L15.7433 8.99951C15.7419 8.5853 15.4049 8.25064 14.9907 8.25204Z" fill-rule="evenodd"  fill="#FFFFFF" >
  </path>
  <path d="M20.3739 9.35059C20.0152 9.14348 19.5565 9.26639 19.3494 9.6251L18.3503 11.3556C18.1432 11.7143 18.2661 12.173 18.6248 12.3801C18.9836 12.5872 19.4423 12.4643 19.6494 12.1056L20.6484 10.3751C20.8555 10.0164 20.7326 9.55769 20.3739 9.35059Z" fill-rule="evenodd"  fill="#FFFFFF" >
  </path>
  <path d="M9.6249 9.35059C9.26618 9.5577 9.14327 10.0164 9.35038 10.3751L10.3495 12.1056C10.5566 12.4643 11.0153 12.5872 11.374 12.3801C11.7327 12.173 11.8556 11.7143 11.6485 11.3556L10.6494 9.6251C10.4423 9.26639 9.98361 9.14348 9.6249 9.35059Z" fill-rule="evenodd"  fill="#FFFFFF" >
  </path>
  </svg>
  