<svg xmlns="http://www.w3.org/2000/svg" xmlns:xlink="http://www.w3.org/1999/xlink" width="24" height="24" viewBox="0 0 24 24" fill="none"><g opacity="1"  transform="translate(0 0)  rotate(0)"><mask id="bg-mask-0" fill="white"><use xlink:href="#path_0"></use></mask><g mask="url(#bg-mask-0)" ><path id="直线 1 (轮廓)" fill-rule="evenodd" style="fill:#A0A3B8" opacity="1" d="M13.7998 12C13.7998 12.04 13.7998 12.08 13.8098 12.12C13.8198 12.16 13.8298 12.19 13.8498 12.23C13.8598 12.27 13.8798 12.3 13.8998 12.33C13.9198 12.37 13.9498 12.4 13.9798 12.42C13.9998 12.45 14.0298 12.48 14.0698 12.5C14.0998 12.52 14.1298 12.54 14.1698 12.55C14.2098 12.57 14.2398 12.58 14.2798 12.59C14.3198 12.6 14.3598 12.6 14.3998 12.6C14.4398 12.6 14.4798 12.6 14.5198 12.59C14.5598 12.58 14.5898 12.57 14.6298 12.55C14.6698 12.54 14.6998 12.52 14.7298 12.5C14.7698 12.48 14.7998 12.45 14.8198 12.42C14.8498 12.4 14.8798 12.37 14.8998 12.33C14.9198 12.3 14.9398 12.27 14.9498 12.23C14.9698 12.19 14.9798 12.16 14.9898 12.12C14.9998 12.08 14.9998 12.04 14.9998 12L14.9998 10.4C14.9998 10.36 14.9998 10.32 14.9898 10.28C14.9798 10.24 14.9698 10.21 14.9498 10.17C14.9398 10.13 14.9198 10.1 14.8998 10.07C14.8798 10.03 14.8498 10 14.8198 9.98001C14.7998 9.95001 14.7698 9.92001 14.7298 9.90001C14.6998 9.88001 14.6698 9.86001 14.6298 9.85001C14.5898 9.83001 14.5598 9.82001 14.5198 9.81001C14.4798 9.80001 14.4398 9.80001 14.3998 9.80001C14.3598 9.80001 14.3198 9.80001 14.2798 9.81001C14.2398 9.82001 14.2098 9.83001 14.1698 9.85001C14.1298 9.86001 14.0998 9.88001 14.0698 9.90001C14.0298 9.92001 13.9998 9.95001 13.9798 9.98001C13.9498 10 13.9198 10.03 13.8998 10.07C13.8798 10.1 13.8598 10.13 13.8498 10.17C13.8298 10.21 13.8198 10.24 13.8098 10.28C13.7998 10.32 13.7998 10.36 13.7998 10.4L13.7998 12Z"></path><path id="圆形 1 (轮廓)" fill-rule="evenodd" style="fill:#495AD4" opacity="1" d="M15.4002 9.59999C15.4002 9.63999 15.4002 9.67999 15.4102 9.71999C15.4202 9.75999 15.4302 9.78999 15.4502 9.82999C15.4602 9.86999 15.4802 9.89999 15.5002 9.92999C15.5202 9.96999 15.5502 9.99999 15.5802 10.02C15.6002 10.05 15.6302 10.08 15.6702 10.1C15.7002 10.12 15.7302 10.14 15.7702 10.15C15.8102 10.17 15.8402 10.18 15.8802 10.19C15.9202 10.2 15.9602 10.2 16.0002 10.2C16.0402 10.2 16.0802 10.2 16.1202 10.19C16.1602 10.18 16.1902 10.17 16.2302 10.15C16.2702 10.14 16.3002 10.12 16.3302 10.1C16.3702 10.08 16.4002 10.05 16.4202 10.02C16.4502 9.99999 16.4802 9.96999 16.5002 9.92999C16.5202 9.89999 16.5402 9.86999 16.5502 9.82999C16.5702 9.78999 16.5802 9.75999 16.5902 9.71999C16.6002 9.67999 16.6002 9.63999 16.6002 9.59999C16.6002 9.29999 16.5402 9.01999 16.4302 8.73999C16.3102 8.47999 16.1602 8.24999 15.9502 8.04999C15.7502 7.83999 15.5202 7.68999 15.2602 7.56999C14.9802 7.45999 14.7002 7.39999 14.4002 7.39999C14.1002 7.39999 13.8202 7.45999 13.5402 7.56999C13.2802 7.68999 13.0502 7.83999 12.8502 8.04999C12.6402 8.24999 12.4902 8.47999 12.3702 8.73999C12.2602 9.01999 12.2002 9.29999 12.2002 9.59999C12.2002 9.63999 12.2002 9.67999 12.2102 9.71999C12.2202 9.75999 12.2302 9.78999 12.2502 9.82999C12.2602 9.86999 12.2802 9.89999 12.3002 9.92999C12.3202 9.96999 12.3502 9.99999 12.3802 10.02C12.4002 10.05 12.4302 10.08 12.4702 10.1C12.5002 10.12 12.5302 10.14 12.5702 10.15C12.6102 10.17 12.6402 10.18 12.6802 10.19C12.7202 10.2 12.7602 10.2 12.8002 10.2C12.8802 10.2 12.9602 10.18 13.0302 10.15C13.1002 10.12 13.1702 10.08 13.2202 10.02C13.2802 9.96999 13.3202 9.89999 13.3502 9.82999C13.3802 9.75999 13.4002 9.67999 13.4002 9.59999C13.4002 9.32999 13.5002 9.08999 13.6902 8.88999C13.8902 8.69999 14.1302 8.59999 14.4002 8.59999C14.6702 8.59999 14.9102 8.69999 15.1102 8.88999C15.3002 9.08999 15.4002 9.32999 15.4002 9.59999Z"></path><path id="圆形 1 (轮廓)" fill-rule="evenodd" style="fill:#495AD4" opacity="1" d="M17.7998 9.6C17.7998 9.64 17.7998 9.68 17.8098 9.72C17.8198 9.76 17.8298 9.79 17.8498 9.83C17.8598 9.87 17.8798 9.9 17.8998 9.93C17.9198 9.97 17.9498 10 17.9798 10.02C17.9998 10.05 18.0298 10.08 18.0698 10.1C18.0998 10.12 18.1298 10.14 18.1698 10.15C18.2098 10.17 18.2398 10.18 18.2798 10.19C18.3198 10.2 18.3598 10.2 18.3998 10.2C18.4398 10.2 18.4798 10.2 18.5198 10.19C18.5598 10.18 18.5898 10.17 18.6298 10.15C18.6698 10.14 18.6998 10.12 18.7298 10.1C18.7698 10.08 18.7998 10.05 18.8198 10.02C18.8498 10 18.8798 9.97 18.8998 9.93C18.9198 9.9 18.9398 9.87 18.9498 9.83C18.9698 9.79 18.9798 9.76 18.9898 9.72C18.9998 9.68 18.9998 9.64 18.9998 9.6C18.9998 8.98 18.8798 8.38 18.6398 7.81C18.4098 7.26 18.0798 6.77 17.6498 6.35C17.2298 5.92 16.7398 5.59 16.1898 5.36C15.6198 5.12 15.0198 5 14.3998 5C13.7798 5 13.1798 5.12 12.6098 5.36C12.0598 5.59 11.5698 5.92 11.1498 6.35C10.7198 6.77 10.3898 7.26 10.1598 7.81C9.9198 8.38 9.7998 8.98 9.7998 9.6L9.7998 9.6C9.7998 9.64 9.7998 9.68 9.8098 9.72C9.81981 9.76 9.8298 9.79 9.8498 9.83C9.85981 9.87 9.8798 9.9 9.89981 9.93C9.9198 9.97 9.9498 10 9.9798 10.02C9.9998 10.05 10.0298 10.08 10.0698 10.1C10.0998 10.12 10.1298 10.14 10.1698 10.15C10.2098 10.17 10.2398 10.18 10.2798 10.19C10.3198 10.2 10.3598 10.2 10.3998 10.2C10.4398 10.2 10.4798 10.2 10.5198 10.19C10.5598 10.18 10.5898 10.17 10.6298 10.15C10.6698 10.14 10.6998 10.12 10.7298 10.1C10.7698 10.08 10.7998 10.05 10.8198 10.02C10.8498 10 10.8798 9.97 10.8998 9.93C10.9198 9.9 10.9398 9.87 10.9498 9.83C10.9698 9.79 10.9798 9.76 10.9898 9.72C10.9998 9.68 10.9998 9.64 10.9998 9.6C10.9998 9.14 11.0898 8.7 11.2698 8.28C11.4398 7.87 11.6798 7.51 11.9998 7.2C12.3098 6.88 12.6698 6.64 13.0798 6.47C13.4998 6.29 13.9398 6.2 14.3998 6.2C14.8598 6.2 15.2998 6.29 15.7198 6.47C16.1298 6.64 16.4898 6.88 16.7998 7.2C17.1198 7.51 17.3598 7.87 17.5298 8.28C17.7098 8.7 17.7998 9.14 17.7998 9.6Z"></path><path id="直线 2 (轮廓)" fill-rule="evenodd" style="fill:#A0A3B8" opacity="1" d="M7.9999 14.6C7.9599 14.6 7.9199 14.6 7.8799 14.61C7.8399 14.62 7.8099 14.63 7.7699 14.65C7.7299 14.66 7.6999 14.68 7.6699 14.7C7.6299 14.72 7.5999 14.75 7.5799 14.78C7.5499 14.8 7.5199 14.83 7.4999 14.87C7.4799 14.9 7.4599 14.93 7.4499 14.97C7.4299 15.01 7.4199 15.04 7.4099 15.08C7.3999 15.12 7.3999 15.16 7.3999 15.2C7.3999 15.24 7.3999 15.28 7.4099 15.32C7.4199 15.36 7.4299 15.39 7.4499 15.43C7.4599 15.47 7.4799 15.5 7.4999 15.53C7.5199 15.57 7.5499 15.6 7.5799 15.62C7.5999 15.65 7.6299 15.68 7.6699 15.7C7.6999 15.72 7.7299 15.74 7.7699 15.75C7.8099 15.77 7.8399 15.78 7.8799 15.79C7.9199 15.8 7.9599 15.8 7.9999 15.8L8.7999 15.8C8.8399 15.8 8.8799 15.8 8.9199 15.79C8.9599 15.78 8.9899 15.77 9.0299 15.75C9.0699 15.74 9.0999 15.72 9.1299 15.7C9.1699 15.68 9.1999 15.65 9.2199 15.62C9.2499 15.6 9.2799 15.57 9.2999 15.53C9.3199 15.5 9.3399 15.47 9.3499 15.43C9.3699 15.39 9.3799 15.36 9.3899 15.32C9.3999 15.28 9.3999 15.24 9.3999 15.2C9.3999 15.16 9.3999 15.12 9.3899 15.08C9.3799 15.04 9.3699 15.01 9.3499 14.97C9.3399 14.93 9.3199 14.9 9.2999 14.87C9.2799 14.83 9.2499 14.8 9.2199 14.78C9.1999 14.75 9.1699 14.72 9.1299 14.7C9.0999 14.68 9.0699 14.66 9.0299 14.65C8.9899 14.63 8.9599 14.62 8.9199 14.61C8.8799 14.6 8.8399 14.6 8.7999 14.6L7.9999 14.6Z"></path><path id="直线 3 (轮廓)" fill-rule="evenodd" style="fill:#A0A3B8" opacity="1" d="M11.2001 14.6C11.1601 14.6 11.1201 14.6 11.0801 14.61C11.0401 14.62 11.0101 14.63 10.9701 14.65C10.9301 14.66 10.9001 14.68 10.8701 14.7C10.8301 14.72 10.8001 14.75 10.7801 14.78C10.7501 14.8 10.7201 14.83 10.7001 14.87C10.6801 14.9 10.6601 14.93 10.6501 14.97C10.6301 15.01 10.6201 15.04 10.6101 15.08C10.6001 15.12 10.6001 15.16 10.6001 15.2C10.6001 15.24 10.6001 15.28 10.6101 15.32C10.6201 15.36 10.6301 15.39 10.6501 15.43C10.6601 15.47 10.6801 15.5 10.7001 15.53C10.7201 15.57 10.7501 15.6 10.7801 15.62C10.8001 15.65 10.8301 15.68 10.8701 15.7C10.9001 15.72 10.9301 15.74 10.9701 15.75C11.0101 15.77 11.0401 15.78 11.0801 15.79C11.1201 15.8 11.1601 15.8 11.2001 15.8L13.6001 15.8C13.6401 15.8 13.6801 15.8 13.7201 15.79C13.7601 15.78 13.7901 15.77 13.8301 15.75C13.8701 15.74 13.9001 15.72 13.9301 15.7C13.9701 15.68 14.0001 15.65 14.0201 15.62C14.0501 15.6 14.0801 15.57 14.1001 15.53C14.1201 15.5 14.1401 15.47 14.1501 15.43C14.1701 15.39 14.1801 15.36 14.1901 15.32C14.2001 15.28 14.2001 15.24 14.2001 15.2C14.2001 15.16 14.2001 15.12 14.1901 15.08C14.1801 15.04 14.1701 15.01 14.1501 14.97C14.1401 14.93 14.1201 14.9 14.1001 14.87C14.0801 14.83 14.0501 14.8 14.0201 14.78C14.0001 14.75 13.9701 14.72 13.9301 14.7C13.9001 14.68 13.8701 14.66 13.8301 14.65C13.7901 14.63 13.7601 14.62 13.7201 14.61C13.6801 14.6 13.6401 14.6 13.6001 14.6L11.2001 14.6Z"></path><path id="矩形 2 (轮廓)" fill-rule="evenodd" style="fill:#A0A3B8" opacity="1" d="M5,18.4v-6.4c0,-0.04 0,-0.08 0.01,-0.12c0.01,-0.04 0.02,-0.07 0.04,-0.11c0.01,-0.04 0.03,-0.07 0.05,-0.1c0.02,-0.04 0.05,-0.07 0.08,-0.09c0.02,-0.03 0.05,-0.06 0.09,-0.08c0.03,-0.02 0.06,-0.04 0.1,-0.05c0.04,-0.02 0.07,-0.03 0.11,-0.04c0.04,-0.01 0.08,-0.01 0.12,-0.01h12.8c0.04,0 0.08,0 0.12,0.01c0.04,0.01 0.07,0.02 0.11,0.04c0.04,0.01 0.07,0.03 0.1,0.05c0.04,0.02 0.07,0.05 0.09,0.08c0.03,0.02 0.06,0.05 0.08,0.09c0.02,0.03 0.04,0.06 0.05,0.1c0.02,0.04 0.03,0.07 0.04,0.11c0.01,0.04 0.01,0.08 0.01,0.12v6.4c0,0.04 0,0.08 -0.01,0.12c-0.01,0.04 -0.02,0.07 -0.04,0.11c-0.01,0.04 -0.03,0.07 -0.05,0.1c-0.02,0.04 -0.05,0.07 -0.08,0.09c-0.02,0.03 -0.05,0.06 -0.09,0.08c-0.03,0.02 -0.06,0.04 -0.1,0.05c-0.04,0.02 -0.07,0.03 -0.11,0.04c-0.04,0.01 -0.08,0.01 -0.12,0.01h-12.8c-0.04,0 -0.08,0 -0.12,-0.01c-0.04,-0.01 -0.07,-0.02 -0.11,-0.04c-0.04,-0.01 -0.07,-0.03 -0.1,-0.05c-0.04,-0.02 -0.07,-0.05 -0.09,-0.08c-0.03,-0.02 -0.06,-0.05 -0.08,-0.09c-0.02,-0.03 -0.04,-0.06 -0.05,-0.1c-0.02,-0.04 -0.03,-0.07 -0.04,-0.11c-0.01,-0.04 -0.01,-0.08 -0.01,-0.12zM6.2,12.6v5.2h11.6v-5.2z"></path></g></g><defs><rect id="path_0" x="0" y="0" width="24" height="24" /></defs></svg>