<svg xmlns="http://www.w3.org/2000/svg" xmlns:xlink="http://www.w3.org/1999/xlink" width="16" height="16" viewBox="0 0 16 16" fill="none"><g opacity="1"  transform="translate(0 0)  rotate(0)"><mask id="bg-mask-0" fill="white"><use xlink:href="#path_0"></use></mask><g mask="url(#bg-mask-0)" ><g opacity="1"  transform="translate(3.333251953125 3.333770751953125)  rotate(0)"><path id="直线 1 (轮廓)" fill-rule="evenodd" style="fill:#656A85" opacity="1" d="M4.89354e-05 5.7329L4.89354e-05 8.9329C4.89354e-05 8.9589 0.00304896 8.9849 0.00804895 9.0109C0.0130489 9.0369 0.020049 9.0619 0.030049 9.0859C0.040049 9.1099 0.053049 9.1329 0.067049 9.1549C0.082049 9.1769 0.099049 9.1969 0.117049 9.2159C0.136049 9.2339 0.156049 9.2509 0.178049 9.2659C0.200049 9.2799 0.223049 9.2929 0.247049 9.3029C0.271049 9.3129 0.296049 9.3199 0.322049 9.3249C0.348049 9.3299 0.374049 9.3329 0.400049 9.3329C0.426049 9.3329 0.452049 9.3299 0.478049 9.3249C0.504049 9.3199 0.529049 9.3129 0.553049 9.3029C0.577049 9.2929 0.600049 9.2799 0.622049 9.2659C0.644049 9.2509 0.664049 9.2339 0.683049 9.2159C0.701049 9.1969 0.718049 9.1769 0.733049 9.1549C0.747049 9.1329 0.760049 9.1099 0.770049 9.0859C0.780049 9.0619 0.787049 9.0369 0.792049 9.0109C0.797049 8.9849 0.800049 8.9589 0.800049 8.9329L0.800049 5.7329C0.800049 5.7069 0.797049 5.6809 0.792049 5.6549C0.787049 5.6289 0.780049 5.6039 0.770049 5.5799C0.759049 5.5559 0.747049 5.5329 0.733049 5.5109C0.718049 5.4889 0.701049 5.4689 0.683049 5.4499C0.664049 5.4319 0.644049 5.4149 0.622049 5.3999C0.600049 5.3859 0.577049 5.3739 0.553049 5.3629C0.529049 5.3529 0.504049 5.3459 0.478049 5.3409C0.452049 5.3359 0.426049 5.3329 0.400049 5.3329C0.374049 5.3329 0.348049 5.3359 0.322049 5.3409C0.296049 5.3459 0.271049 5.3529 0.247049 5.3629C0.223049 5.3739 0.200049 5.3859 0.178049 5.3999C0.156049 5.4149 0.136049 5.4319 0.117049 5.4499C0.099049 5.4689 0.082049 5.4889 0.067049 5.5109C0.053049 5.5329 0.0410489 5.5559 0.030049 5.5799C0.020049 5.6039 0.0130489 5.6289 0.00804895 5.6549C0.00304896 5.6809 4.89354e-05 5.7069 4.89354e-05 5.7329Z"></path><path id="直线 2 (轮廓)" fill-rule="evenodd" style="fill:#656A85" opacity="1" d="M0.4 9.3329L8.933 9.3329C8.96 9.3329 8.986 9.3299 9.011 9.3249C9.037 9.3199 9.062 9.3129 9.086 9.3029C9.111 9.2929 9.134 9.2799 9.156 9.2659C9.177 9.2509 9.198 9.2339 9.216 9.2159C9.235 9.1969 9.251 9.1769 9.266 9.1549C9.28 9.1329 9.293 9.1099 9.303 9.0859C9.313 9.0619 9.321 9.0369 9.326 9.0109C9.331 8.9849 9.333 8.9589 9.333 8.9329C9.333 8.9069 9.331 8.8809 9.326 8.8549C9.321 8.8289 9.313 8.8039 9.303 8.7799C9.293 8.7559 9.28 8.7329 9.266 8.7109C9.251 8.6889 9.235 8.6689 9.216 8.6499C9.198 8.6319 9.177 8.6149 9.156 8.5999C9.134 8.5859 9.111 8.5729 9.086 8.5629C9.062 8.5529 9.037 8.5459 9.011 8.5409C8.986 8.5359 8.96 8.5329 8.933 8.5329L0.4 8.5329C0.374 8.5329 0.348 8.5359 0.322 8.5409C0.296 8.5459 0.271 8.5529 0.247 8.5629C0.223 8.5739 0.2 8.5859 0.178 8.5999C0.156 8.6149 0.136 8.6319 0.117 8.6499C0.099 8.6689 0.082 8.6889 0.067 8.7109C0.053 8.7329 0.041 8.7559 0.03 8.7799C0.02 8.8039 0.013 8.8289 0.008 8.8549C0.003 8.8809 0 8.9069 0 8.9329C0 8.9589 0.003 8.9849 0.008 9.0109C0.013 9.0369 0.02 9.0619 0.03 9.0859C0.041 9.1099 0.053 9.1329 0.067 9.1549C0.082 9.1769 0.099 9.1969 0.117 9.2159C0.136 9.2339 0.156 9.2509 0.178 9.2659C0.2 9.2799 0.223 9.2919 0.247 9.3029C0.271 9.3129 0.296 9.3199 0.322 9.3249C0.348 9.3299 0.374 9.3329 0.4 9.3329Z"></path><path id="直线 3 (轮廓)" fill-rule="evenodd" style="fill:#656A85" opacity="1" d="M9.33345 8.9329L9.33345 5.7329C9.33345 5.7069 9.33045 5.6809 9.32545 5.6549C9.32045 5.6289 9.31345 5.6039 9.30345 5.5799C9.29345 5.5559 9.28045 5.5329 9.26645 5.5109C9.25145 5.4889 9.23445 5.4689 9.21645 5.4499C9.19745 5.4319 9.17745 5.4149 9.15545 5.3999C9.13345 5.3859 9.11045 5.3729 9.08645 5.3629C9.06245 5.3529 9.03745 5.3459 9.01145 5.3409C8.98545 5.3359 8.95945 5.3329 8.93345 5.3329C8.90745 5.3329 8.88145 5.3359 8.85545 5.3409C8.82945 5.3459 8.80445 5.3529 8.78045 5.3629C8.75645 5.3729 8.73345 5.3859 8.71145 5.3999C8.68945 5.4149 8.66945 5.4319 8.65045 5.4499C8.63245 5.4689 8.61545 5.4889 8.60045 5.5109C8.58645 5.5329 8.57345 5.5559 8.56345 5.5799C8.55345 5.6039 8.54645 5.6289 8.54145 5.6549C8.53645 5.6809 8.53345 5.7069 8.53345 5.7329L8.53345 8.9329C8.53345 8.9589 8.53645 8.9849 8.54145 9.0109C8.54645 9.0369 8.55345 9.0619 8.56345 9.0859C8.57445 9.1099 8.58645 9.1329 8.60045 9.1549C8.61545 9.1769 8.63245 9.1969 8.65045 9.2159C8.66945 9.2339 8.68945 9.2509 8.71145 9.2659C8.73345 9.2799 8.75645 9.2919 8.78045 9.3029C8.80445 9.3129 8.82945 9.3199 8.85545 9.3249C8.88145 9.3299 8.90745 9.3329 8.93345 9.3329C8.95945 9.3329 8.98545 9.3299 9.01145 9.3249C9.03745 9.3199 9.06245 9.3129 9.08645 9.3029C9.11045 9.2919 9.13345 9.2799 9.15545 9.2659C9.17745 9.2509 9.19745 9.2339 9.21645 9.2159C9.23445 9.1969 9.25145 9.1769 9.26645 9.1549C9.28045 9.1329 9.29245 9.1099 9.30345 9.0859C9.31345 9.0619 9.32045 9.0369 9.32545 9.0109C9.33045 8.9849 9.33345 8.9589 9.33345 8.9329Z"></path><path id="直线 4 (轮廓)" fill-rule="evenodd" style="fill:#656A85" opacity="1" d="M4.26665 0.399557L4.26665 7.33256C4.26665 7.35956 4.26965 7.38556 4.27465 7.41056C4.27965 7.43656 4.28665 7.46156 4.29665 7.48556C4.30665 7.51056 4.31965 7.53356 4.33365 7.55556C4.34865 7.57656 4.36565 7.59756 4.38365 7.61556C4.40265 7.63456 4.42265 7.65056 4.44465 7.66556C4.46665 7.67956 4.48965 7.69256 4.51365 7.70256C4.53765 7.71256 4.56265 7.72056 4.58865 7.72556C4.61465 7.73056 4.64065 7.73256 4.66665 7.73256C4.69265 7.73256 4.71865 7.73056 4.74465 7.72556C4.77065 7.72056 4.79565 7.71256 4.81965 7.70256C4.84365 7.69256 4.86665 7.67956 4.88865 7.66556C4.91065 7.65056 4.93065 7.63456 4.94965 7.61556C4.96765 7.59756 4.98465 7.57656 4.99965 7.55556C5.01365 7.53356 5.02665 7.51056 5.03665 7.48556C5.04665 7.46156 5.05365 7.43656 5.05865 7.41056C5.06365 7.38556 5.06665 7.35956 5.06665 7.33256L5.06665 0.399557C5.06665 0.373557 5.06365 0.347557 5.05865 0.321557C5.05365 0.295557 5.04665 0.270557 5.03665 0.246557C5.02565 0.222557 5.01365 0.199557 4.99965 0.177557C4.98465 0.155557 4.96765 0.135557 4.94965 0.116557C4.93065 0.0985575 4.91065 0.0815575 4.88865 0.0665575C4.86665 0.0525575 4.84365 0.0405575 4.81965 0.0295575C4.79565 0.0195575 4.77065 0.0125575 4.74465 0.00755749C4.71865 0.00255749 4.69265 -0.000442505 4.66665 -0.000442505C4.64065 -0.000442505 4.61465 0.00255749 4.58865 0.00755749C4.56265 0.0125575 4.53765 0.0195575 4.51365 0.0295575C4.48965 0.0405575 4.46665 0.0525575 4.44465 0.0665575C4.42265 0.0815575 4.40265 0.0985575 4.38365 0.116557C4.36565 0.135557 4.34865 0.155557 4.33365 0.177557C4.31965 0.199557 4.30765 0.222557 4.29665 0.246557C4.28665 0.270557 4.27965 0.295557 4.27465 0.321557C4.26965 0.347557 4.26665 0.373557 4.26665 0.399557Z"></path><path id="直线 5 (轮廓)" fill-rule="evenodd" style="fill:#656A85" opacity="1" d="M4.9496 7.61574L7.6161 4.94924C7.63519 4.93015 7.65146 4.90965 7.6656 4.88843C7.68045 4.86651 7.69318 4.84389 7.70308 4.81984C7.71368 4.7951 7.72075 4.76964 7.7257 4.74489C7.73065 4.71873 7.73348 4.69186 7.73348 4.6664C7.73348 4.63953 7.73065 4.61408 7.7257 4.58791C7.72005 4.56246 7.71298 4.537 7.70308 4.51296C7.69318 4.48892 7.68045 4.46629 7.66631 4.44366C7.65146 4.42174 7.63449 4.40194 7.6161 4.38356C7.59772 4.36517 7.57792 4.3482 7.556 4.33335C7.53337 4.31921 7.51074 4.30648 7.4867 4.29659C7.46266 4.28668 7.4372 4.27961 7.41175 4.27396C7.38558 4.26901 7.36013 4.26618 7.33326 4.26618C7.3078 4.26618 7.28093 4.26901 7.25477 4.27396C7.23002 4.27891 7.20457 4.28598 7.17982 4.29659C7.15578 4.30648 7.13315 4.31921 7.11123 4.33406C7.09001 4.3482 7.06951 4.36447 7.05042 4.38356L4.38392 7.05006C4.36553 7.06844 4.34927 7.08895 4.33442 7.11087C4.31957 7.13279 4.30684 7.15542 4.29694 7.17946C4.28775 7.20421 4.27997 7.22896 4.27432 7.25441C4.26937 7.28058 4.26724 7.30674 4.26654 7.3329C4.26724 7.35906 4.26937 7.38523 4.27432 7.41139C4.27997 7.43685 4.28775 7.46159 4.29694 7.48634C4.30684 7.51039 4.31957 7.53301 4.33442 7.55493C4.34927 7.57685 4.36553 7.59736 4.38392 7.61574C4.4023 7.63413 4.42281 7.65039 4.44473 7.66524C4.46665 7.68009 4.48928 7.69282 4.51332 7.70272C4.53807 7.71191 4.56282 7.71969 4.58827 7.72535C4.61443 7.7303 4.6406 7.73242 4.66676 7.73312C4.69292 7.73242 4.71909 7.7303 4.74525 7.72535C4.7707 7.71969 4.79545 7.71191 4.8202 7.70272C4.84424 7.69282 4.86687 7.68009 4.88879 7.66524C4.91071 7.65039 4.93122 7.63413 4.9496 7.61574Z"></path><path id="直线 5 (轮廓)" fill-rule="evenodd" style="fill:#656A85" opacity="1" d="M4.94959 7.05005L2.28309 4.38355C2.264 4.36446 2.24349 4.34819 2.22228 4.33405C2.20036 4.3192 2.17773 4.30647 2.15369 4.29657C2.12894 4.28597 2.10349 4.2789 2.07874 4.27395C2.05257 4.269 2.0257 4.26617 2.00025 4.26617C1.97338 4.26617 1.94792 4.269 1.92176 4.27395C1.8963 4.2796 1.87085 4.28667 1.84681 4.29657C1.82276 4.30647 1.80014 4.3192 1.77751 4.33334C1.75559 4.34819 1.73579 4.36516 1.71741 4.38355C1.69902 4.40193 1.68205 4.42173 1.6672 4.44365C1.65306 4.46628 1.64033 4.48891 1.63043 4.51295C1.62053 4.53699 1.61346 4.56245 1.6078 4.5879C1.60285 4.61406 1.60003 4.63952 1.60003 4.66639C1.60003 4.69185 1.60285 4.71872 1.6078 4.74488C1.61275 4.76963 1.61983 4.79508 1.63043 4.81983C1.64033 4.84387 1.65306 4.8665 1.66791 4.88842C1.68205 4.90963 1.69831 4.93014 1.71741 4.94923L4.38391 7.61573C4.40229 7.63412 4.4228 7.65038 4.44472 7.66523C4.46664 7.68008 4.48926 7.69281 4.51331 7.70271C4.53805 7.7119 4.5628 7.71968 4.58826 7.72533C4.61442 7.73028 4.64058 7.7324 4.66675 7.73311C4.69291 7.7324 4.71907 7.73028 4.74524 7.72533C4.77069 7.71968 4.79544 7.7119 4.82019 7.70271C4.84423 7.69281 4.86686 7.68008 4.88878 7.66523C4.9107 7.65038 4.93121 7.63412 4.94959 7.61573C4.96798 7.59735 4.98424 7.57684 4.99909 7.55492C5.01394 7.533 5.02667 7.51037 5.03656 7.48633C5.04576 7.46158 5.05354 7.43683 5.05919 7.41138C5.06414 7.38522 5.06626 7.35905 5.06697 7.33289C5.06626 7.30673 5.06414 7.28056 5.05919 7.2544C5.05354 7.22894 5.04576 7.2042 5.03656 7.17945C5.02667 7.15541 5.01394 7.13278 4.99909 7.11086C4.98424 7.08894 4.96798 7.06843 4.94959 7.05005Z"></path></g></g></g><defs><rect id="path_0" x="0" y="0" width="16" height="16" /></defs></svg>