<svg xmlns="http://www.w3.org/2000/svg" xmlns:xlink="http://www.w3.org/1999/xlink" width="16" height="16" viewBox="0 0 16 16" fill="none"><g opacity="1"  transform="translate(0 0)  rotate(0)"><mask id="bg-mask-0" fill="white"><use xlink:href="#path_0"></use></mask><g mask="url(#bg-mask-0)" ><path id="直线 1 (轮廓)" fill-rule="evenodd" style="fill:#656A85" opacity="1" d="M4.1333 8.53333C4.1333 8.50733 4.1303 8.48133 4.1253 8.45533C4.1203 8.42933 4.1133 8.40433 4.1033 8.38033C4.0933 8.35633 4.0803 8.33333 4.0663 8.31133C4.0513 8.28933 4.0343 8.26933 4.0163 8.25033C3.9973 8.23233 3.9773 8.21533 3.9553 8.20033C3.9333 8.18633 3.9103 8.17333 3.8863 8.16333C3.8623 8.15333 3.8373 8.14633 3.8113 8.14133C3.7853 8.13633 3.7593 8.13333 3.7333 8.13333C3.7073 8.13333 3.6813 8.13633 3.6553 8.14133C3.6293 8.14633 3.6043 8.15333 3.5803 8.16333C3.5563 8.17333 3.5333 8.18633 3.5113 8.20033C3.4893 8.21533 3.4693 8.23233 3.4503 8.25033C3.4323 8.26933 3.4153 8.28933 3.4003 8.31133C3.3863 8.33333 3.3733 8.35633 3.3633 8.38033C3.3533 8.40433 3.3463 8.42933 3.3413 8.45533C3.3363 8.48133 3.3333 8.50733 3.3333 8.53333L3.3333 10.6663C3.3333 10.6933 3.3363 10.7193 3.3413 10.7443C3.3463 10.7703 3.3533 10.7953 3.3633 10.8193C3.3733 10.8443 3.3863 10.8673 3.4003 10.8893C3.4153 10.9103 3.4323 10.9313 3.4503 10.9493C3.4693 10.9683 3.4893 10.9843 3.5113 10.9993C3.5333 11.0143 3.5563 11.0263 3.5803 11.0363C3.6043 11.0463 3.6293 11.0543 3.6553 11.0593C3.6813 11.0643 3.7073 11.0663 3.7333 11.0663C3.7593 11.0663 3.7853 11.0643 3.8113 11.0593C3.8373 11.0543 3.8623 11.0463 3.8863 11.0363C3.9103 11.0263 3.9333 11.0143 3.9553 10.9993C3.9773 10.9843 3.9973 10.9683 4.0163 10.9493C4.0343 10.9313 4.0513 10.9103 4.0663 10.8893C4.0803 10.8673 4.0933 10.8443 4.1033 10.8193C4.1133 10.7953 4.1203 10.7703 4.1253 10.7443C4.1303 10.7193 4.1333 10.6933 4.1333 10.6663L4.1333 8.53333Z"></path><path id="直线 2 (轮廓)" fill-rule="evenodd" style="fill:#656A85" opacity="1" d="M3.7335 10.2667C3.7075 10.2667 3.6815 10.2697 3.6555 10.2747C3.6295 10.2797 3.6045 10.2867 3.5805 10.2967C3.5565 10.3067 3.5335 10.3197 3.5115 10.3337C3.4895 10.3487 3.4695 10.3657 3.4505 10.3837C3.4325 10.4027 3.4155 10.4227 3.4005 10.4447C3.3865 10.4667 3.3735 10.4897 3.3635 10.5137C3.3535 10.5377 3.3465 10.5627 3.3415 10.5887C3.3365 10.6147 3.3335 10.6407 3.3335 10.6667C3.3335 10.6927 3.3365 10.7187 3.3415 10.7447C3.3465 10.7707 3.3535 10.7957 3.3635 10.8197C3.3735 10.8437 3.3865 10.8667 3.4005 10.8887C3.4155 10.9107 3.4325 10.9307 3.4505 10.9497C3.4695 10.9677 3.4895 10.9847 3.5115 10.9997C3.5335 11.0137 3.5565 11.0267 3.5805 11.0367C3.6045 11.0467 3.6295 11.0537 3.6555 11.0587C3.6815 11.0637 3.7075 11.0667 3.7335 11.0667L5.8665 11.0667C5.8935 11.0667 5.9195 11.0637 5.9445 11.0587C5.9705 11.0537 5.9955 11.0467 6.0195 11.0367C6.0445 11.0267 6.0675 11.0137 6.0895 10.9997C6.1105 10.9847 6.1315 10.9677 6.1495 10.9497C6.1685 10.9307 6.1845 10.9107 6.1995 10.8887C6.2145 10.8667 6.2265 10.8437 6.2365 10.8197C6.2465 10.7957 6.2545 10.7707 6.2595 10.7447C6.2645 10.7187 6.2665 10.6927 6.2665 10.6667C6.2665 10.6407 6.2645 10.6147 6.2595 10.5887C6.2545 10.5627 6.2465 10.5377 6.2365 10.5137C6.2265 10.4897 6.2145 10.4667 6.1995 10.4447C6.1845 10.4227 6.1685 10.4027 6.1495 10.3837C6.1315 10.3657 6.1105 10.3487 6.0895 10.3337C6.0675 10.3197 6.0445 10.3067 6.0195 10.2967C5.9955 10.2867 5.9705 10.2797 5.9445 10.2747C5.9195 10.2697 5.8935 10.2667 5.8665 10.2667L3.7335 10.2667Z"></path><path id="直线 3 (轮廓)" fill-rule="evenodd" style="fill:#656A85" opacity="1" d="M3.45032 8.25048C3.43194 8.26887 3.41567 8.28937 3.40083 8.31129C3.38598 8.33321 3.37325 8.35584 3.36335 8.37988C3.35345 8.40392 3.34638 8.42938 3.34072 8.45484C3.33577 8.481 3.33365 8.50716 3.33294 8.53333C3.33365 8.55949 3.33577 8.58565 3.34072 8.61181C3.34638 8.63727 3.35345 8.66273 3.36335 8.68677C3.37325 8.71081 3.38598 8.73344 3.40083 8.75536C3.41567 8.77728 3.43194 8.79778 3.45032 8.81617C3.46871 8.83455 3.48921 8.85082 3.51113 8.86567C3.53305 8.88051 3.55568 8.89324 3.57972 8.90314C3.60377 8.91304 3.62922 8.92011 3.65468 8.92577C3.68084 8.93072 3.707 8.93284 3.73317 8.93355C3.75933 8.93284 3.78549 8.93072 3.81165 8.92577C3.83711 8.92011 3.86257 8.91304 3.88661 8.90314C3.91065 8.89324 3.93328 8.88051 3.9552 8.86566C3.97712 8.85082 3.99762 8.83455 4.01601 8.81617L8.81585 4.01633C8.83423 3.99794 8.8505 3.97744 8.86535 3.95552C8.8802 3.9336 8.89292 3.91097 8.90282 3.88693C8.91343 3.86218 8.9205 3.83672 8.92545 3.81197C8.9304 3.78581 8.93252 3.75965 8.93323 3.73348C8.93323 3.70661 8.9304 3.68116 8.92545 3.65499C8.91979 3.62954 8.91272 3.60408 8.90282 3.58004C8.89292 3.556 8.8802 3.53337 8.86605 3.51075C8.8512 3.48883 8.83423 3.46903 8.81585 3.45064C8.79746 3.43226 8.77767 3.41529 8.75574 3.40044C8.73312 3.38629 8.71049 3.37357 8.68645 3.36367C8.66241 3.35377 8.63695 3.3467 8.6115 3.34104C8.58533 3.33609 8.55988 3.33326 8.53301 3.33326C8.50684 3.33397 8.48068 3.33609 8.45452 3.34104C8.42977 3.34599 8.40431 3.35306 8.37956 3.36367C8.35552 3.37357 8.3329 3.3863 8.31097 3.40114C8.28905 3.41599 8.26855 3.43226 8.25016 3.45064L3.45032 8.25048Z"></path><path id="直线 4 (轮廓)" fill-rule="evenodd" style="fill:#656A85" opacity="1" d="M8.81605 3.45048C8.79766 3.43209 8.77715 3.41583 8.75523 3.40098C8.73331 3.38613 8.71069 3.3734 8.68665 3.3635C8.6626 3.3536 8.63715 3.34653 8.61169 3.34087C8.58553 3.33592 8.55937 3.3338 8.5332 3.3331C8.50704 3.3338 8.48088 3.33592 8.45471 3.34087C8.42926 3.34653 8.4038 3.3536 8.37976 3.3635C8.35572 3.3734 8.33309 3.38613 8.31117 3.40098C8.28925 3.41583 8.26875 3.43209 8.25036 3.45048C8.23198 3.46886 8.21571 3.48937 8.20086 3.51129C8.18601 3.53321 8.17329 3.55583 8.16339 3.57988C8.15349 3.60392 8.14642 3.62937 8.14076 3.65483C8.13581 3.68099 8.13369 3.70716 8.13298 3.73332C8.13369 3.75948 8.13581 3.78564 8.14076 3.81181C8.14642 3.83726 8.15349 3.86272 8.16339 3.88676C8.17329 3.9108 8.18601 3.93343 8.20086 3.95535C8.21571 3.97727 8.23198 3.99778 8.25036 4.01616L10.3837 6.1495C10.4021 6.16789 10.4226 6.18415 10.4445 6.199C10.4664 6.21385 10.4891 6.22658 10.5131 6.23648C10.5371 6.24638 10.5626 6.25345 10.5881 6.2591C10.6142 6.26405 10.6404 6.26617 10.6665 6.26688C10.6927 6.26617 10.7189 6.26405 10.745 6.2591C10.7705 6.25345 10.7952 6.24567 10.82 6.23648C10.844 6.22658 10.8667 6.21385 10.8886 6.199C10.9105 6.18415 10.931 6.16789 10.9494 6.1495C10.9678 6.13112 10.984 6.11061 10.9989 6.08869C11.0137 6.06677 11.0265 6.04414 11.0364 6.0201C11.0456 5.99535 11.0533 5.9706 11.059 5.94515C11.0639 5.91899 11.0661 5.89282 11.0668 5.86666C11.0661 5.8405 11.0639 5.81433 11.059 5.78817C11.0533 5.76271 11.0463 5.73726 11.0364 5.71322C11.0265 5.68918 11.0137 5.66655 10.9989 5.64463C10.984 5.62271 10.9678 5.6022 10.9494 5.58382L8.81605 3.45048Z"></path><path id="直线 4 (轮廓)" fill-rule="evenodd" style="fill:#656A85" opacity="1" d="M7.74964 4.51716C7.73125 4.49877 7.71075 4.48251 7.68883 4.46766C7.66691 4.45281 7.64428 4.44008 7.62024 4.43018C7.5962 4.42028 7.57074 4.41321 7.54529 4.40756C7.51912 4.40261 7.49296 4.40048 7.4668 4.39978C7.44063 4.40048 7.41447 4.40261 7.38831 4.40756C7.36285 4.41321 7.3374 4.42028 7.31335 4.43018C7.28931 4.44008 7.26669 4.45281 7.24477 4.46766C7.22285 4.48251 7.20234 4.49877 7.18395 4.51716C7.16557 4.53554 7.14931 4.55605 7.13446 4.57797C7.11961 4.59989 7.10688 4.62252 7.09698 4.64656C7.08708 4.6706 7.08001 4.69605 7.07435 4.72151C7.0694 4.74767 7.06728 4.77384 7.06657 4.8C7.06728 4.82616 7.0694 4.85232 7.07435 4.87849C7.08001 4.90394 7.08708 4.9294 7.09698 4.95344C7.10688 4.97748 7.11961 5.00011 7.13446 5.02203C7.14931 5.04395 7.16557 5.06446 7.18395 5.08284L9.3173 7.21618C9.33568 7.23457 9.35619 7.25083 9.37811 7.26568C9.40003 7.28053 9.42265 7.29326 9.4467 7.30316C9.47074 7.31306 9.49619 7.32013 9.52165 7.32578C9.54781 7.33073 9.57397 7.33286 9.60014 7.33356C9.6263 7.33286 9.65246 7.33073 9.67863 7.32578C9.70408 7.32013 9.72883 7.31235 9.75358 7.30316C9.77762 7.29326 9.80025 7.28053 9.82217 7.26568C9.84409 7.25083 9.8646 7.23457 9.88298 7.21618C9.90137 7.1978 9.91763 7.17729 9.93248 7.15537C9.94733 7.13345 9.96006 7.11082 9.96995 7.08678C9.97915 7.06203 9.98693 7.03728 9.99258 7.01183C9.99753 6.98567 9.99965 6.9595 10.0004 6.93334C9.99965 6.90718 9.99753 6.88101 9.99258 6.85485C9.98693 6.8294 9.97985 6.80394 9.96995 6.7799C9.96006 6.75586 9.94733 6.73323 9.93248 6.71131C9.91763 6.68939 9.90137 6.66888 9.88298 6.6505L7.74964 4.51716Z"></path><path id="直线 5 (轮廓)" fill-rule="evenodd" style="fill:#656A85" opacity="1" d="M5.58362 10.3838C5.56524 10.4022 5.54898 10.4227 5.53413 10.4446C5.51928 10.4665 5.50655 10.4892 5.49665 10.5132C5.48675 10.5373 5.47968 10.5627 5.47402 10.5882C5.46907 10.6143 5.46695 10.6405 5.46624 10.6667C5.46695 10.6928 5.46907 10.719 5.47402 10.7451C5.47968 10.7706 5.48675 10.7961 5.49665 10.8201C5.50655 10.8441 5.51928 10.8668 5.53413 10.8887C5.54898 10.9106 5.56524 10.9311 5.58362 10.9495C5.60201 10.9679 5.62251 10.9841 5.64443 10.999C5.66636 11.0138 5.68898 11.0266 5.71302 11.0365C5.73707 11.0464 5.76252 11.0534 5.78798 11.0591C5.81414 11.0641 5.8403 11.0662 5.86647 11.0669C5.89263 11.0662 5.91879 11.0641 5.94496 11.0591C5.97041 11.0534 5.99587 11.0464 6.01991 11.0365C6.04395 11.0266 6.06658 11.0138 6.0885 10.999C6.11042 10.9841 6.13092 10.9679 6.14931 10.9495L10.9492 6.14966C10.9675 6.13127 10.9838 6.11077 10.9986 6.08885C11.0135 6.06693 11.0262 6.0443 11.0361 6.02026C11.0467 5.99551 11.0538 5.97005 11.0588 5.9453C11.0637 5.91914 11.0658 5.89298 11.0665 5.86681C11.0665 5.83995 11.0637 5.81449 11.0588 5.78833C11.0531 5.76287 11.046 5.73741 11.0361 5.71337C11.0262 5.68933 11.0135 5.6667 10.9994 5.64408C10.9845 5.62216 10.9675 5.60236 10.9492 5.58397C10.9308 5.56559 10.911 5.54862 10.889 5.53377C10.8664 5.51963 10.8438 5.5069 10.8197 5.497C10.7957 5.4871 10.7703 5.48003 10.7448 5.47437C10.7186 5.46942 10.6932 5.46659 10.6663 5.46659C10.6401 5.4673 10.614 5.46942 10.5878 5.47437C10.5631 5.47932 10.5376 5.48639 10.5129 5.497C10.4888 5.5069 10.4662 5.51963 10.4443 5.53448C10.4224 5.54932 10.4018 5.56559 10.3835 5.58397L5.58362 10.3838Z"></path><path id="直线 6 (轮廓)" fill-rule="evenodd" style="fill:#656A85" opacity="1" d="M9.0665 9.73334C9.0405 9.73334 9.0145 9.73634 8.9885 9.74134C8.9625 9.74634 8.9375 9.75334 8.9135 9.76334C8.8895 9.77334 8.8665 9.78634 8.8445 9.80034C8.8225 9.81534 8.8025 9.83234 8.7835 9.85034C8.7655 9.86934 8.7485 9.88934 8.7335 9.91134C8.7195 9.93334 8.7065 9.95634 8.6965 9.98034C8.6865 10.0043 8.6795 10.0293 8.6745 10.0553C8.6695 10.0813 8.6665 10.1073 8.6665 10.1333C8.6665 10.1593 8.6695 10.1853 8.6745 10.2113C8.6795 10.2373 8.6865 10.2623 8.6965 10.2863C8.7065 10.3103 8.7195 10.3333 8.7335 10.3553C8.7485 10.3773 8.7655 10.3973 8.7835 10.4163C8.8025 10.4343 8.8225 10.4513 8.8445 10.4663C8.8665 10.4803 8.8895 10.4933 8.9135 10.5033C8.9375 10.5133 8.9625 10.5203 8.9885 10.5253C9.0145 10.5303 9.0405 10.5333 9.0665 10.5333L12.2665 10.5333C12.2925 10.5333 12.3185 10.5303 12.3445 10.5253C12.3705 10.5203 12.3955 10.5133 12.4195 10.5033C12.4435 10.4933 12.4665 10.4803 12.4885 10.4663C12.5105 10.4513 12.5305 10.4343 12.5495 10.4163C12.5675 10.3973 12.5845 10.3773 12.5995 10.3553C12.6135 10.3333 12.6265 10.3103 12.6365 10.2863C12.6465 10.2623 12.6535 10.2373 12.6585 10.2113C12.6635 10.1853 12.6665 10.1593 12.6665 10.1333C12.6665 10.1073 12.6635 10.0813 12.6585 10.0553C12.6535 10.0293 12.6465 10.0043 12.6365 9.98034C12.6265 9.95634 12.6135 9.93334 12.5995 9.91134C12.5845 9.88934 12.5675 9.86934 12.5495 9.85034C12.5305 9.83234 12.5105 9.81534 12.4885 9.80034C12.4665 9.78634 12.4435 9.77334 12.4195 9.76334C12.3955 9.75334 12.3705 9.74634 12.3445 9.74134C12.3185 9.73634 12.2925 9.73334 12.2665 9.73334L9.0665 9.73334Z"></path><path id="直线 7 (轮廓)" fill-rule="evenodd" style="fill:#656A85" opacity="1" d="M3.7335 11.8667C3.7075 11.8667 3.6815 11.8697 3.6555 11.8747C3.6295 11.8797 3.6045 11.8867 3.5805 11.8967C3.5565 11.9067 3.5335 11.9197 3.5115 11.9337C3.4895 11.9487 3.4695 11.9657 3.4505 11.9837C3.4325 12.0027 3.4155 12.0227 3.4005 12.0447C3.3865 12.0667 3.3735 12.0897 3.3635 12.1137C3.3535 12.1377 3.3465 12.1627 3.3415 12.1887C3.3365 12.2147 3.3335 12.2407 3.3335 12.2667C3.3335 12.2927 3.3365 12.3187 3.3415 12.3447C3.3465 12.3707 3.3535 12.3957 3.3635 12.4197C3.3735 12.4437 3.3865 12.4667 3.4005 12.4887C3.4155 12.5107 3.4325 12.5307 3.4505 12.5497C3.4695 12.5677 3.4895 12.5847 3.5115 12.5997C3.5335 12.6137 3.5565 12.6267 3.5805 12.6367C3.6045 12.6467 3.6295 12.6537 3.6555 12.6587C3.6815 12.6637 3.7075 12.6667 3.7335 12.6667L12.2665 12.6667C12.2935 12.6667 12.3195 12.6637 12.3445 12.6587C12.3705 12.6537 12.3955 12.6467 12.4195 12.6367C12.4445 12.6267 12.4675 12.6137 12.4895 12.5997C12.5105 12.5847 12.5315 12.5677 12.5495 12.5497C12.5685 12.5307 12.5845 12.5107 12.5995 12.4887C12.6135 12.4667 12.6265 12.4437 12.6365 12.4197C12.6465 12.3957 12.6545 12.3707 12.6595 12.3447C12.6645 12.3187 12.6665 12.2927 12.6665 12.2667C12.6665 12.2407 12.6645 12.2147 12.6595 12.1887C12.6545 12.1627 12.6465 12.1377 12.6365 12.1137C12.6265 12.0897 12.6135 12.0667 12.5995 12.0447C12.5845 12.0227 12.5685 12.0027 12.5495 11.9837C12.5315 11.9657 12.5105 11.9487 12.4895 11.9337C12.4675 11.9197 12.4445 11.9067 12.4195 11.8967C12.3955 11.8867 12.3705 11.8797 12.3445 11.8747C12.3195 11.8697 12.2935 11.8667 12.2665 11.8667L3.7335 11.8667Z"></path></g></g><defs><rect id="path_0" x="0" y="0" width="16" height="16" /></defs></svg>