<svg xmlns="http://www.w3.org/2000/svg" xmlns:xlink="http://www.w3.org/1999/xlink" width="16" height="16"
  viewBox="0 0 16 16" fill="none">
  <g opacity="1" transform="translate(0 0)  rotate(0)">
    <mask id="bg-mask-0" fill="white">
      <use transform="translate(0 0)  rotate(0)" xlink:href="#path_0"></use>
    </mask>
    <g mask="url(#bg-mask-0)">
      <path id="直线 1 (轮廓)" fill-rule="evenodd" style="fill:#656A85" opacity="1"
        d="M4.13333 8.53281C4.13333 8.50681 4.13033 8.48081 4.12533 8.45481C4.12033 8.42881 4.11333 8.40381 4.10333 8.37981C4.09333 8.35581 4.08033 8.33281 4.06633 8.31081C4.05133 8.28881 4.03433 8.26881 4.01633 8.24981C3.99733 8.23181 3.97733 8.21481 3.95533 8.19981C3.93333 8.18581 3.91033 8.17281 3.88633 8.16281C3.86233 8.15281 3.83733 8.14581 3.81133 8.14081C3.78533 8.13581 3.75933 8.13281 3.73333 8.13281C3.70733 8.13281 3.68133 8.13581 3.65533 8.14081C3.62933 8.14581 3.60433 8.15281 3.58033 8.16281C3.55633 8.17281 3.53333 8.18581 3.51133 8.19981C3.48933 8.21481 3.46933 8.23181 3.45033 8.24981C3.43233 8.26881 3.41533 8.28881 3.40033 8.31081C3.38633 8.33281 3.37333 8.35581 3.36333 8.37981C3.35333 8.40381 3.34633 8.42881 3.34133 8.45481C3.33633 8.48081 3.33333 8.50681 3.33333 8.53281L3.33333 10.6658C3.33333 10.6928 3.33633 10.7188 3.34133 10.7438C3.34633 10.7698 3.35333 10.7948 3.36333 10.8188C3.37333 10.8438 3.38633 10.8668 3.40033 10.8888C3.41533 10.9098 3.43233 10.9308 3.45033 10.9488C3.46933 10.9678 3.48933 10.9838 3.51133 10.9988C3.53333 11.0138 3.55633 11.0258 3.58033 11.0358C3.60433 11.0458 3.62933 11.0538 3.65533 11.0588C3.68133 11.0638 3.70733 11.0658 3.73333 11.0658C3.75933 11.0658 3.78533 11.0638 3.81133 11.0588C3.83733 11.0538 3.86233 11.0458 3.88633 11.0358C3.91033 11.0258 3.93333 11.0138 3.95533 10.9988C3.97733 10.9838 3.99733 10.9678 4.01633 10.9488C4.03433 10.9308 4.05133 10.9098 4.06633 10.8888C4.08033 10.8668 4.09333 10.8438 4.10333 10.8188C4.11333 10.7948 4.12033 10.7698 4.12533 10.7438C4.13033 10.7188 4.13333 10.6928 4.13333 10.6658L4.13333 8.53281Z">
      </path>
      <path id="直线 2 (轮廓)" fill-rule="evenodd" style="fill:#656A85" opacity="1"
        d="M3.73334 10.2676C3.70734 10.2676 3.68134 10.2706 3.65534 10.2756C3.62934 10.2806 3.60434 10.2876 3.58034 10.2976C3.55634 10.3076 3.53334 10.3206 3.51134 10.3346C3.48934 10.3496 3.46934 10.3666 3.45034 10.3846C3.43234 10.4036 3.41534 10.4236 3.40034 10.4456C3.38634 10.4676 3.37334 10.4906 3.36334 10.5146C3.35334 10.5386 3.34634 10.5636 3.34134 10.5896C3.33634 10.6156 3.33334 10.6416 3.33334 10.6676C3.33334 10.6936 3.33634 10.7196 3.34134 10.7456C3.34634 10.7716 3.35334 10.7966 3.36334 10.8206C3.37334 10.8446 3.38634 10.8676 3.40034 10.8896C3.41534 10.9116 3.43234 10.9316 3.45034 10.9506C3.46934 10.9686 3.48934 10.9856 3.51134 11.0006C3.53334 11.0146 3.55634 11.0276 3.58034 11.0376C3.60434 11.0476 3.62934 11.0546 3.65534 11.0596C3.68134 11.0646 3.70734 11.0676 3.73334 11.0676L5.86634 11.0676C5.89334 11.0676 5.91934 11.0646 5.94434 11.0596C5.97034 11.0546 5.99534 11.0476 6.01934 11.0376C6.04434 11.0276 6.06734 11.0146 6.08934 11.0006C6.11034 10.9856 6.13134 10.9686 6.14934 10.9506C6.16834 10.9316 6.18434 10.9116 6.19934 10.8896C6.21434 10.8676 6.22634 10.8446 6.23634 10.8206C6.24634 10.7966 6.25434 10.7716 6.25934 10.7456C6.26434 10.7196 6.26634 10.6936 6.26634 10.6676C6.26634 10.6416 6.26434 10.6156 6.25934 10.5896C6.25434 10.5636 6.24634 10.5386 6.23634 10.5146C6.22634 10.4906 6.21434 10.4676 6.19934 10.4456C6.18434 10.4236 6.16834 10.4036 6.14934 10.3846C6.13134 10.3666 6.11034 10.3496 6.08934 10.3346C6.06734 10.3206 6.04434 10.3076 6.01934 10.2976C5.99534 10.2876 5.97034 10.2806 5.94434 10.2756C5.91934 10.2706 5.89334 10.2676 5.86634 10.2676L3.73334 10.2676Z">
      </path>
      <path id="直线 3 (轮廓)" fill-rule="evenodd" style="fill:#656A85" opacity="1"
        d="M3.45049 8.25036C3.43211 8.26875 3.41584 8.28925 3.40099 8.31117C3.38614 8.33309 3.37342 8.35572 3.36352 8.37976C3.35362 8.4038 3.34655 8.42926 3.34089 8.45471C3.33594 8.48088 3.33382 8.50704 3.33311 8.5332C3.33382 8.55937 3.33594 8.58553 3.34089 8.61169C3.34655 8.63715 3.35362 8.6626 3.36352 8.68665C3.37342 8.71069 3.38614 8.73331 3.40099 8.75523C3.41584 8.77715 3.43211 8.79766 3.45049 8.81605C3.46888 8.83443 3.48938 8.85069 3.5113 8.86554C3.53322 8.88039 3.55585 8.89312 3.57989 8.90302C3.60393 8.91292 3.62939 8.91999 3.65484 8.92565C3.68101 8.9306 3.70717 8.93272 3.73333 8.93342C3.7595 8.93272 3.78566 8.9306 3.81182 8.92565C3.83728 8.91999 3.86273 8.91292 3.88678 8.90302C3.91082 8.89312 3.93344 8.88039 3.95536 8.86554C3.97728 8.85069 3.99779 8.83443 4.01618 8.81604L8.81602 4.0162C8.8344 3.99782 8.85066 3.97731 8.86551 3.95539C8.88036 3.93347 8.89309 3.91085 8.90299 3.8868C8.9136 3.86206 8.92067 3.8366 8.92562 3.81185C8.93057 3.78569 8.93269 3.75952 8.9334 3.73336C8.9334 3.70649 8.93057 3.68104 8.92562 3.65487C8.91996 3.62942 8.91289 3.60396 8.90299 3.57992C8.89309 3.55588 8.88036 3.53325 8.86622 3.51062C8.85137 3.4887 8.8344 3.4689 8.81602 3.45052C8.79763 3.43213 8.77783 3.41516 8.75591 3.40032C8.73329 3.38617 8.71066 3.37345 8.68662 3.36354C8.66257 3.35365 8.63712 3.34658 8.61166 3.34092C8.5855 3.33597 8.56004 3.33314 8.53317 3.33314C8.50701 3.33385 8.48085 3.33597 8.45469 3.34092C8.42994 3.34587 8.40448 3.35294 8.37973 3.36355C8.35569 3.37345 8.33306 3.38617 8.31114 3.40102C8.28922 3.41587 8.26872 3.43213 8.25033 3.45052L3.45049 8.25036Z">
      </path>
      <path id="直线 4 (轮廓)" fill-rule="evenodd" style="fill:#656A85" opacity="1"
        d="M8.81618 3.45081C8.7978 3.43243 8.77729 3.41616 8.75537 3.40131C8.73345 3.38646 8.71082 3.37374 8.68678 3.36384C8.66274 3.35394 8.63729 3.34687 8.61183 3.34121C8.58567 3.33626 8.5595 3.33414 8.53334 3.33343C8.50718 3.33414 8.48101 3.33626 8.45485 3.34121C8.4294 3.34687 8.40394 3.35394 8.3799 3.36384C8.35586 3.37374 8.33323 3.38646 8.31131 3.40131C8.28939 3.41616 8.26888 3.43243 8.2505 3.45081C8.23211 3.4692 8.21585 3.4897 8.201 3.51162C8.18615 3.53354 8.17342 3.55617 8.16352 3.58021C8.15362 3.60425 8.14655 3.62971 8.1409 3.65517C8.13595 3.68133 8.13383 3.70749 8.13312 3.73365C8.13383 3.75982 8.13595 3.78598 8.1409 3.81214C8.14655 3.8376 8.15362 3.86305 8.16352 3.8871C8.17342 3.91114 8.18615 3.93377 8.201 3.95569C8.21585 3.97761 8.23211 3.99811 8.2505 4.0165L10.3838 6.14984C10.4022 6.16822 10.4227 6.18449 10.4446 6.19934C10.4666 6.21418 10.4892 6.22691 10.5132 6.23681C10.5373 6.24671 10.5627 6.25378 10.5882 6.25944C10.6144 6.26439 10.6405 6.26651 10.6667 6.26722C10.6928 6.26651 10.719 6.26439 10.7452 6.25944C10.7706 6.25378 10.7954 6.246 10.8201 6.23681C10.8442 6.22691 10.8668 6.21418 10.8887 6.19934C10.9106 6.18449 10.9311 6.16822 10.9495 6.14984C10.9679 6.13145 10.9842 6.11095 10.999 6.08903C11.0139 6.06711 11.0266 6.04448 11.0365 6.02044C11.0457 5.99569 11.0535 5.97094 11.0591 5.94548C11.0641 5.91932 11.0662 5.89316 11.0669 5.86699C11.0662 5.84083 11.0641 5.81467 11.0591 5.78851C11.0535 5.76305 11.0464 5.73759 11.0365 5.71355C11.0266 5.68951 11.0139 5.66688 10.999 5.64496C10.9842 5.62304 10.9679 5.60254 10.9495 5.58415L8.81618 3.45081Z">
      </path>
      <path id="直线 4 (轮廓)" fill-rule="evenodd" style="fill:#656A85" opacity="1"
        d="M7.74952 4.51722C7.73113 4.49883 7.71063 4.48257 7.68871 4.46772C7.66679 4.45287 7.64416 4.44014 7.62012 4.43024C7.59608 4.42034 7.57062 4.41327 7.54516 4.40762C7.519 4.40267 7.49284 4.40055 7.46667 4.39984C7.44051 4.40055 7.41435 4.40267 7.38819 4.40762C7.36273 4.41327 7.33727 4.42034 7.31323 4.43024C7.28919 4.44014 7.26656 4.45287 7.24464 4.46772C7.22272 4.48257 7.20222 4.49883 7.18383 4.51722C7.16545 4.5356 7.14918 4.55611 7.13434 4.57803C7.11949 4.59995 7.10676 4.62258 7.09686 4.64662C7.08696 4.67066 7.07989 4.69612 7.07423 4.72157C7.06928 4.74773 7.06716 4.7739 7.06645 4.80006C7.06716 4.82622 7.06928 4.85239 7.07423 4.87855C7.07989 4.90401 7.08696 4.92946 7.09686 4.9535C7.10676 4.97754 7.11949 5.00017 7.13434 5.02209C7.14918 5.04401 7.16545 5.06452 7.18383 5.0829L9.31717 7.21624C9.33556 7.23463 9.35606 7.25089 9.37798 7.26574C9.3999 7.28059 9.42253 7.29332 9.44657 7.30322C9.47062 7.31312 9.49607 7.32019 9.52153 7.32585C9.54769 7.3308 9.57385 7.33292 9.60002 7.33362C9.62618 7.33292 9.65234 7.3308 9.6785 7.32585C9.70396 7.32019 9.72871 7.31241 9.75346 7.30322C9.7775 7.29332 9.80013 7.28059 9.82205 7.26574C9.84397 7.25089 9.86447 7.23463 9.88286 7.21624C9.90124 7.19786 9.91751 7.17735 9.93236 7.15543C9.9472 7.13351 9.95993 7.11088 9.96983 7.08684C9.97902 7.06209 9.9868 7.03735 9.99246 7.01189C9.99741 6.98573 9.99953 6.95956 10.0002 6.9334C9.99953 6.90724 9.99741 6.88108 9.99246 6.85491C9.9868 6.82946 9.97973 6.804 9.96983 6.77996C9.95993 6.75592 9.9472 6.73329 9.93236 6.71137C9.91751 6.68945 9.90124 6.66894 9.88286 6.65056L7.74952 4.51722Z">
      </path>
      <path id="直线 5 (轮廓)" fill-rule="evenodd" style="fill:#656A85" opacity="1"
        d="M5.58382 10.3832C5.56544 10.4016 5.54917 10.4221 5.53432 10.444C5.51948 10.4659 5.50675 10.4885 5.49685 10.5126C5.48695 10.5366 5.47988 10.5621 5.47422 10.5875C5.46927 10.6137 5.46715 10.6399 5.46644 10.666C5.46715 10.6922 5.46927 10.7183 5.47422 10.7445C5.47988 10.77 5.48695 10.7954 5.49685 10.8195C5.50675 10.8435 5.51948 10.8661 5.53432 10.888C5.54917 10.91 5.56544 10.9305 5.58382 10.9489C5.60221 10.9672 5.62271 10.9835 5.64463 10.9984C5.66655 11.0132 5.68918 11.0259 5.71322 11.0358C5.73726 11.0457 5.76272 11.0528 5.78818 11.0585C5.81434 11.0634 5.8405 11.0655 5.86666 11.0662C5.89283 11.0655 5.91899 11.0634 5.94515 11.0585C5.97061 11.0528 5.99607 11.0457 6.02011 11.0358C6.04415 11.0259 6.06678 11.0132 6.0887 10.9984C6.11062 10.9835 6.13112 10.9672 6.14951 10.9489L10.9493 6.14902C10.9677 6.13063 10.984 6.11013 10.9988 6.08821C11.0137 6.06629 11.0264 6.04366 11.0363 6.01962C11.0469 5.99487 11.054 5.96941 11.059 5.94466C11.0639 5.9185 11.066 5.89234 11.0667 5.86617C11.0667 5.8393 11.0639 5.81385 11.059 5.78769C11.0533 5.76223 11.0462 5.73677 11.0363 5.71273C11.0264 5.68869 11.0137 5.66606 10.9996 5.64344C10.9847 5.62152 10.9677 5.60172 10.9493 5.58333C10.931 5.56495 10.9112 5.54798 10.8892 5.53313C10.8666 5.51898 10.844 5.50626 10.8199 5.49636C10.7959 5.48646 10.7705 5.47939 10.745 5.47373C10.7188 5.46878 10.6934 5.46595 10.6665 5.46595C10.6403 5.46666 10.6142 5.46878 10.588 5.47373C10.5633 5.47868 10.5378 5.48575 10.5131 5.49636C10.489 5.50626 10.4664 5.51899 10.4445 5.53383C10.4226 5.54868 10.402 5.56495 10.3837 5.58333L5.58382 10.3832Z">
      </path>
      <path id="直线 6 (轮廓)" fill-rule="evenodd" style="fill:#656A85" opacity="1"
        d="M9.06667 9.73242C9.04067 9.73242 9.01467 9.73542 8.98867 9.74042C8.96267 9.74542 8.93767 9.75242 8.91367 9.76242C8.88967 9.77242 8.86667 9.78542 8.84467 9.79942C8.82267 9.81442 8.80267 9.83142 8.78367 9.84942C8.76567 9.86842 8.74867 9.88842 8.73367 9.91042C8.71967 9.93242 8.70667 9.95542 8.69667 9.97942C8.68667 10.0034 8.67967 10.0284 8.67467 10.0544C8.66967 10.0804 8.66667 10.1064 8.66667 10.1324C8.66667 10.1584 8.66967 10.1844 8.67467 10.2104C8.67967 10.2364 8.68667 10.2614 8.69667 10.2854C8.70667 10.3094 8.71967 10.3324 8.73367 10.3544C8.74867 10.3764 8.76567 10.3964 8.78367 10.4154C8.80267 10.4334 8.82267 10.4504 8.84467 10.4654C8.86667 10.4794 8.88967 10.4924 8.91367 10.5024C8.93767 10.5124 8.96267 10.5194 8.98867 10.5244C9.01467 10.5294 9.04067 10.5324 9.06667 10.5324L12.2667 10.5324C12.2927 10.5324 12.3187 10.5294 12.3447 10.5244C12.3707 10.5194 12.3957 10.5124 12.4197 10.5024C12.4437 10.4924 12.4667 10.4794 12.4887 10.4654C12.5107 10.4504 12.5307 10.4334 12.5497 10.4154C12.5677 10.3964 12.5847 10.3764 12.5997 10.3544C12.6137 10.3324 12.6267 10.3094 12.6367 10.2854C12.6467 10.2614 12.6537 10.2364 12.6587 10.2104C12.6637 10.1844 12.6667 10.1584 12.6667 10.1324C12.6667 10.1064 12.6637 10.0804 12.6587 10.0544C12.6537 10.0284 12.6467 10.0034 12.6367 9.97942C12.6267 9.95542 12.6137 9.93242 12.5997 9.91042C12.5847 9.88842 12.5677 9.86842 12.5497 9.84942C12.5307 9.83142 12.5107 9.81442 12.4887 9.79942C12.4667 9.78542 12.4437 9.77242 12.4197 9.76242C12.3957 9.75242 12.3707 9.74542 12.3447 9.74042C12.3187 9.73542 12.2927 9.73242 12.2667 9.73242L9.06667 9.73242Z">
      </path>
      <path id="直线 7 (轮廓)" fill-rule="evenodd" style="fill:#656A85" opacity="1"
        d="M3.73334 11.8672C3.70734 11.8672 3.68134 11.8702 3.65534 11.8752C3.62934 11.8802 3.60434 11.8872 3.58034 11.8972C3.55634 11.9072 3.53334 11.9202 3.51134 11.9342C3.48934 11.9492 3.46934 11.9662 3.45034 11.9842C3.43234 12.0032 3.41534 12.0232 3.40034 12.0452C3.38634 12.0672 3.37334 12.0902 3.36334 12.1142C3.35334 12.1382 3.34634 12.1632 3.34134 12.1892C3.33634 12.2152 3.33334 12.2412 3.33334 12.2672C3.33334 12.2932 3.33634 12.3192 3.34134 12.3452C3.34634 12.3712 3.35334 12.3962 3.36334 12.4202C3.37334 12.4442 3.38634 12.4672 3.40034 12.4892C3.41534 12.5112 3.43234 12.5312 3.45034 12.5502C3.46934 12.5682 3.48934 12.5852 3.51134 12.6002C3.53334 12.6142 3.55634 12.6272 3.58034 12.6372C3.60434 12.6472 3.62934 12.6542 3.65534 12.6592C3.68134 12.6642 3.70734 12.6672 3.73334 12.6672L12.2663 12.6672C12.2933 12.6672 12.3193 12.6642 12.3443 12.6592C12.3703 12.6542 12.3953 12.6472 12.4193 12.6372C12.4443 12.6272 12.4673 12.6142 12.4893 12.6002C12.5103 12.5852 12.5313 12.5682 12.5493 12.5502C12.5683 12.5312 12.5843 12.5112 12.5993 12.4892C12.6133 12.4672 12.6263 12.4442 12.6363 12.4202C12.6463 12.3962 12.6543 12.3712 12.6593 12.3452C12.6643 12.3192 12.6663 12.2932 12.6663 12.2672C12.6663 12.2412 12.6643 12.2152 12.6593 12.1892C12.6543 12.1632 12.6463 12.1382 12.6363 12.1142C12.6263 12.0902 12.6133 12.0672 12.5993 12.0452C12.5843 12.0232 12.5683 12.0032 12.5493 11.9842C12.5313 11.9662 12.5103 11.9492 12.4893 11.9342C12.4673 11.9202 12.4443 11.9072 12.4193 11.8972C12.3953 11.8872 12.3703 11.8802 12.3443 11.8752C12.3193 11.8702 12.2933 11.8672 12.2663 11.8672L3.73334 11.8672Z">
      </path>
    </g>
  </g>
  <defs>
    <rect id="path_0" x="0" y="0" width="16" height="16" />
  </defs>
</svg>