<svg xmlns="http://www.w3.org/2000/svg" xmlns:xlink="http://www.w3.org/1999/xlink" width="18" height="18" viewBox="0 0 18 18" fill="none"><path id="路径 1" fill-rule="evenodd" style="fill:#D43030" opacity="1" d="M9,0c4.97,0 9,4.03 9,9c0,4.97 -4.03,9 -9,9c-4.97,0 -9,-4.03 -9,-9c0,-4.97 4.03,-9 9,-9zM10.04,9.01l3.29,-3.29c0.28,-0.29 0.28,-0.74 0,-1.03c-0.29,-0.29 -0.75,-0.29 -1.03,0l-3.29,3.29l-3.29,-3.29c-0.29,-0.28 -0.74,-0.28 -1.03,0c-0.28,0.29 -0.28,0.74 0,1.03l3.29,3.29l-3.29,3.29c-0.28,0.28 -0.28,0.73 0,1.02c0.29,0.28 0.74,0.28 1.03,0l3.29,-3.29l3.29,3.29c0.28,0.28 0.73,0.28 1.02,0c0.28,-0.29 0.28,-0.74 0,-1.03z"></path></svg>