<svg xmlns="http://www.w3.org/2000/svg" xmlns:xlink="http://www.w3.org/1999/xlink" width="24" height="18" viewBox="0 0 24 18" fill="none"><path d="M12.4485 1.354L18.8485 8.554L18.8485 8.554C18.8746 8.58345 18.8977 8.61516 18.9176 8.64915C18.9375 8.68314 18.9539 8.71874 18.9669 8.75596C18.9798 8.79318 18.9889 8.8313 18.9943 8.87032C18.9997 8.90935 19.0013 8.94852 18.999 8.98785C18.9967 9.02718 18.9905 9.0659 18.9806 9.10403C18.9706 9.14215 18.9571 9.17893 18.9399 9.21438C18.9227 9.24983 18.9022 9.28326 18.8785 9.31468C18.8547 9.34609 18.8281 9.37489 18.7986 9.40106C18.7692 9.42723 18.7375 9.45028 18.7035 9.47021C18.6695 9.49014 18.6339 9.50655 18.5967 9.51947C18.5595 9.53238 18.5213 9.54154 18.4823 9.54694C18.4433 9.55235 18.4041 9.55389 18.3648 9.55158C18.3254 9.54926 18.2867 9.54314 18.2486 9.53319C18.2105 9.52325 18.1737 9.50969 18.1382 9.4925C18.1028 9.47531 18.0694 9.45483 18.038 9.43106C18.0065 9.40729 17.9777 9.38068 17.9516 9.35123L17.9516 9.35124L11.5516 2.15123C11.5254 2.12177 11.5023 2.09006 11.4824 2.05609C11.4625 2.02209 11.4461 1.98648 11.4332 1.94928C11.4203 1.91208 11.4111 1.87395 11.4057 1.83489C11.4003 1.79588 11.3987 1.75671 11.4011 1.7174C11.4034 1.67804 11.4095 1.63931 11.4194 1.6012C11.4294 1.5631 11.4429 1.52632 11.4601 1.49085C11.4773 1.45539 11.4978 1.42196 11.5216 1.39054C11.5453 1.35913 11.5719 1.33034 11.6014 1.30417C11.6308 1.278 11.6625 1.25494 11.6965 1.23501C11.7305 1.21508 11.7661 1.19867 11.8033 1.18577C11.8406 1.17287 11.8787 1.16371 11.9177 1.15829C11.9567 1.15287 11.9959 1.15133 12.0353 1.15367C12.0746 1.15597 12.1133 1.16209 12.1514 1.17202C12.1896 1.18199 12.2263 1.19557 12.2618 1.21274C12.2972 1.22991 12.3306 1.25039 12.3621 1.27418C12.3935 1.29793 12.4223 1.32454 12.4485 1.354Z"   fill="#A0A3B8" ></path><path d="M12.4485 8.55419L18.8485 15.7542L18.8485 15.7542C18.8746 15.7836 18.8977 15.8154 18.9176 15.8493C18.9375 15.8833 18.9539 15.9189 18.9669 15.9562C18.9798 15.9934 18.9889 16.0315 18.9943 16.0705C18.9997 16.1095 19.0013 16.1487 18.999 16.188C18.9967 16.2274 18.9905 16.2661 18.9806 16.3042C18.9706 16.3423 18.9571 16.3791 18.9399 16.4146C18.9227 16.45 18.9022 16.4835 18.8785 16.5149C18.8547 16.5463 18.8281 16.5751 18.7986 16.6013C18.7692 16.6274 18.7375 16.6505 18.7035 16.6704C18.6695 16.6903 18.6339 16.7068 18.5967 16.7197C18.5595 16.7326 18.5213 16.7417 18.4823 16.7471C18.4433 16.7525 18.4041 16.7541 18.3648 16.7518C18.3254 16.7495 18.2867 16.7433 18.2486 16.7334C18.2105 16.7234 18.1737 16.7099 18.1382 16.6927C18.1028 16.6755 18.0694 16.655 18.038 16.6313C18.0065 16.6075 17.9777 16.5809 17.9516 16.5514L17.9516 16.5514L11.5516 9.35142C11.5254 9.32197 11.5023 9.29025 11.4824 9.25629C11.4625 9.22228 11.4461 9.18668 11.4332 9.14948C11.4203 9.11227 11.4111 9.07415 11.4057 9.03509C11.4003 8.99607 11.3987 8.95691 11.4011 8.91759C11.4034 8.87824 11.4095 8.83951 11.4194 8.8014C11.4294 8.7633 11.4429 8.72651 11.4601 8.69105C11.4773 8.65559 11.4978 8.62215 11.5216 8.59074C11.5453 8.55933 11.5719 8.53054 11.6014 8.50436C11.6308 8.47819 11.6625 8.45514 11.6965 8.43521C11.7305 8.41528 11.7661 8.39886 11.8033 8.38596C11.8406 8.37306 11.8787 8.3639 11.9177 8.35848C11.9567 8.35306 11.9959 8.35152 12.0353 8.35386C12.0746 8.35616 12.1133 8.36228 12.1514 8.37222C12.1896 8.38219 12.2263 8.39576 12.2618 8.41293C12.2972 8.4301 12.3306 8.45058 12.3621 8.47437C12.3935 8.49813 12.4223 8.52473 12.4485 8.55419Z"   fill="#A0A3B8" ></path><path d="M5.15158 8.55421L11.5516 1.3542L11.5516 1.35421C11.5778 1.32476 11.6066 1.29815 11.638 1.27438C11.6694 1.25061 11.7028 1.23013 11.7383 1.21294C11.7737 1.19575 11.8105 1.18219 11.8486 1.17224C11.8867 1.1623 11.9255 1.15618 11.9648 1.15386C12.0041 1.15155 12.0433 1.15309 12.0823 1.1585C12.1213 1.1639 12.1595 1.17306 12.1967 1.18597C12.2339 1.19888 12.2695 1.2153 12.3035 1.23523C12.3375 1.25516 12.3692 1.27821 12.3986 1.30438C12.4281 1.33055 12.4547 1.35935 12.4785 1.39076C12.5022 1.42218 12.5227 1.45561 12.5399 1.49106C12.5571 1.52651 12.5707 1.56329 12.5806 1.60141C12.5905 1.63953 12.5967 1.67826 12.599 1.71759C12.6013 1.75692 12.5998 1.79609 12.5943 1.83512C12.5889 1.87414 12.5798 1.91226 12.5669 1.94948C12.554 1.9867 12.5375 2.0223 12.5176 2.05629C12.4977 2.09027 12.4746 2.12199 12.4485 2.15143L12.4485 2.15144L6.04846 9.35144C6.02228 9.3809 5.99349 9.4075 5.96209 9.43126C5.93066 9.45505 5.89722 9.47553 5.86179 9.4927C5.82636 9.50987 5.78957 9.52344 5.75142 9.53342C5.7133 9.54335 5.67459 9.54947 5.63527 9.55177C5.59592 9.55411 5.55674 9.55257 5.51773 9.54715C5.47872 9.54173 5.4406 9.53257 5.40336 9.51967C5.36613 9.50677 5.33053 9.49036 5.29655 9.47043C5.26256 9.4505 5.23085 9.42744 5.20141 9.40127C5.17196 9.3751 5.14535 9.34631 5.12157 9.31489C5.0978 9.28348 5.07732 9.25005 5.06014 9.21459C5.04297 9.17912 5.0294 9.14234 5.01944 9.10423C5.00949 9.06613 5.00337 9.0274 5.00108 8.98804C4.99875 8.94873 5.00029 8.90956 5.00568 8.87054C5.01112 8.83149 5.02028 8.79336 5.03318 8.75616C5.04607 8.71895 5.06249 8.68335 5.08244 8.64934C5.10235 8.61538 5.12539 8.58366 5.15158 8.55421Z"   fill="#A0A3B8" ></path><path d="M5.15158 15.7534L11.5516 8.55342L11.5516 8.55343C11.5778 8.52398 11.6066 8.49737 11.638 8.4736C11.6694 8.44982 11.7028 8.42934 11.7383 8.41216C11.7737 8.39497 11.8105 8.3814 11.8486 8.37146C11.8867 8.36152 11.9255 8.35539 11.9648 8.35308C12.0041 8.35077 12.0433 8.35231 12.0823 8.35772C12.1213 8.36312 12.1595 8.37228 12.1967 8.38519C12.2339 8.3981 12.2695 8.41452 12.3035 8.43445C12.3375 8.45438 12.3692 8.47743 12.3986 8.5036C12.4281 8.52977 12.4547 8.55857 12.4785 8.58998C12.5022 8.6214 12.5227 8.65483 12.5399 8.69028C12.5571 8.72573 12.5707 8.76251 12.5806 8.80063C12.5905 8.83875 12.5967 8.87748 12.599 8.91681C12.6013 8.95613 12.5998 8.99531 12.5943 9.03434C12.5889 9.07336 12.5798 9.11148 12.5669 9.1487C12.554 9.18592 12.5375 9.22152 12.5176 9.25551C12.4977 9.28949 12.4746 9.32121 12.4485 9.35065L12.4485 9.35066L6.04846 16.5507C6.02228 16.5801 5.99349 16.6067 5.96209 16.6305C5.93066 16.6543 5.89723 16.6748 5.86179 16.6919C5.82636 16.7091 5.78957 16.7227 5.75142 16.7326C5.7133 16.7426 5.67459 16.7487 5.63527 16.751C5.59592 16.7533 5.55674 16.7518 5.51773 16.7464C5.47872 16.741 5.4406 16.7318 5.40337 16.7189C5.36613 16.706 5.33053 16.6896 5.29655 16.6696C5.26256 16.6497 5.23085 16.6267 5.20141 16.6005C5.17196 16.5743 5.14535 16.5455 5.12157 16.5141C5.0978 16.4827 5.07732 16.4493 5.06014 16.4138C5.04297 16.3783 5.0294 16.3416 5.01944 16.3035C5.00949 16.2653 5.00337 16.2266 5.00108 16.1873C4.99875 16.1479 5.00029 16.1088 5.00568 16.0698C5.01112 16.0307 5.02028 15.9926 5.03318 15.9554C5.04607 15.9182 5.06249 15.8826 5.08244 15.8486C5.10235 15.8146 5.12539 15.7829 5.15158 15.7534Z"   fill="#A0A3B8" ></path></svg>