<svg xmlns="http://www.w3.org/2000/svg" xmlns:xlink="http://www.w3.org/1999/xlink" width="24" height="24"
  viewBox="0 0 24 24" fill="none">
  <g opacity="1" transform="translate(0 0)  rotate(0)">
    <mask id="bg-mask-0" fill="white">
      <use transform="translate(0 0)  rotate(0)" xlink:href="#path_0"></use>
    </mask>
    <g mask="url(#bg-mask-0)">
      <g opacity="1" transform="translate(6.25 6.25)  rotate(0)">
        <path id="直线 1 (轮廓)" fill-rule="evenodd" style="fill:#656A85" opacity="1"
          d="M-0.65 -0.0499997L8.15 -0.0499997C8.48 -0.0499997 8.75 -0.32 8.75 -0.65C8.75 -0.98 8.48 -1.25 8.15 -1.25L-0.65 -1.25C-0.98 -1.25 -1.25 -0.98 -1.25 -0.65C-1.25 -0.32 -0.98 -0.0499997 -0.65 -0.0499997Z">
        </path>
        <path id="直线 1 (轮廓)" fill-rule="evenodd" style="fill:#656A85" opacity="1"
          d="M4.14999 6.3499L12.95 6.3499C13.28 6.3499 13.55 6.0799 13.55 5.7499C13.55 5.4199 13.28 5.1499 12.95 5.1499L4.14999 5.1499C3.81999 5.1499 3.54999 5.4199 3.54999 5.7499C3.54999 6.0799 3.81999 6.3499 4.14999 6.3499Z">
        </path>
        <path id="直线 4 (轮廓)" fill-rule="evenodd" style="fill:#656A85" opacity="1"
          d="M13.3743 5.32584L10.9772 2.92875C10.7368 2.68833 10.362 2.6954 10.1287 2.92875C9.89531 3.16209 9.88824 3.53686 10.1287 3.77728L12.5257 6.17437C12.7591 6.40771 13.1409 6.40771 13.3743 6.17437C13.6076 5.94102 13.6076 5.55919 13.3743 5.32584Z">
        </path>
        <path id="直线 5 (轮廓)" fill-rule="evenodd" style="fill:#656A85" opacity="1"
          d="M12.5257 5.32574L10.1286 7.72283C9.88822 7.96324 9.89529 8.33801 10.1286 8.57136C10.362 8.8047 10.7368 8.81177 10.9772 8.57136L13.3743 6.17426C13.6076 5.94092 13.6076 5.55908 13.3743 5.32574C13.1409 5.09239 12.7591 5.09239 12.5257 5.32574Z">
        </path>
        <path id="直线 2 (轮廓)" fill-rule="evenodd" style="fill:#656A85" opacity="1"
          d="M-1.24999 -0.65L-1.24999 12.15C-1.24999 12.48 -0.979988 12.75 -0.649988 12.75C-0.319988 12.75 -0.0499878 12.48 -0.0499878 12.15L-0.0499878 -0.65C-0.0499878 -0.98 -0.319988 -1.25 -0.649988 -1.25C-0.979988 -1.25 -1.24999 -0.98 -1.24999 -0.65Z">
        </path>
        <path id="直线 2 (轮廓)" fill-rule="evenodd" style="fill:#656A85" opacity="1"
          d="M7.55 -0.65L7.55 3.35C7.55 3.68 7.82 3.95 8.15 3.95C8.48 3.95 8.75 3.68 8.75 3.35L8.75 -0.65C8.75 -0.98 8.48 -1.25 8.15 -1.25C7.82 -1.25 7.55 -0.98 7.55 -0.65Z">
        </path>
        <path id="直线 2 (轮廓)" fill-rule="evenodd" style="fill:#656A85" opacity="1"
          d="M7.55 8.14981L7.55 12.1498C7.55 12.4798 7.82 12.7498 8.15 12.7498C8.48 12.7498 8.75 12.4798 8.75 12.1498L8.75 8.14981C8.75 7.8198 8.48 7.5498 8.15 7.5498C7.82 7.5498 7.55 7.8198 7.55 8.14981Z">
        </path>
        <path id="直线 3 (轮廓)" fill-rule="evenodd" style="fill:#656A85" opacity="1"
          d="M-0.65 12.7498L8.15 12.7498C8.48 12.7498 8.75 12.4798 8.75 12.1498C8.75 11.8198 8.48 11.5498 8.15 11.5498L-0.65 11.5498C-0.98 11.5498 -1.25 11.8198 -1.25 12.1498C-1.25 12.4798 -0.98 12.7498 -0.65 12.7498Z">
        </path>
      </g>
    </g>
  </g>
  <defs>
    <rect id="path_0" x="0" y="0" width="24" height="24" />
  </defs>
</svg>