<svg xmlns="http://www.w3.org/2000/svg" xmlns:xlink="http://www.w3.org/1999/xlink" width="16" height="16" viewBox="0 0 16 16" fill="none">
<path d="M7.02298 5.90497C6.98792 5.90497 6.95346 5.90951 6.91959 5.91857C6.88573 5.92763 6.85361 5.94092 6.82324 5.95843C6.79286 5.97593 6.76527 5.99707 6.74045 6.02183C6.71564 6.0466 6.69445 6.07415 6.67687 6.10448L5.69609 7.79772C5.67847 7.82814 5.6651 7.86033 5.65596 7.89428C5.64683 7.92822 5.64225 7.96277 5.64222 7.99793C5.6422 8.03308 5.64673 8.06764 5.65582 8.1016C5.6649 8.13557 5.67824 8.16777 5.69581 8.19821L6.67448 9.89331C6.69206 9.92376 6.71328 9.9514 6.73815 9.97626C6.76301 10.0011 6.79068 10.0223 6.82113 10.0399C6.85159 10.0574 6.8838 10.0707 6.91777 10.0798C6.95174 10.0889 6.9863 10.0934 7.02145 10.0933L8.97823 10.0906C9.01329 10.0905 9.04775 10.0859 9.0816 10.0768C9.11545 10.0677 9.14755 10.0544 9.1779 10.0368C9.20825 10.0193 9.23582 9.99811 9.2606 9.97331C9.28538 9.94851 9.30654 9.92093 9.32407 9.89057L10.3002 8.2C10.3178 8.16959 10.3311 8.13743 10.3402 8.10352C10.3493 8.06961 10.3538 8.0351 10.3538 7.99999C10.3538 7.96488 10.3493 7.93037 10.3402 7.89646C10.3311 7.86254 10.3178 7.83039 10.3002 7.79998L9.32157 6.10488C9.30402 6.07448 9.28283 6.04686 9.258 6.02204C9.23318 5.99721 9.20556 5.97602 9.17515 5.95846C9.14475 5.94091 9.11259 5.92759 9.07867 5.91851C9.04476 5.90942 9.01025 5.90488 8.97514 5.90488L7.02298 5.90497ZM7.25357 6.70496L6.50429 7.99854L7.25164 9.29299L8.74655 9.29088L9.49194 7.99997L8.74423 6.70489L7.25357 6.70496Z" fill-rule="evenodd"  fill="#495AD4" >
</path>
<path d="M7.55171 7.44222L7.28978 7.8952C7.25302 7.95954 7.25073 8.04091 7.28807 8.10558L7.55207 8.56284C7.5894 8.6275 7.66102 8.66621 7.73511 8.66654L8.25838 8.6662C8.33247 8.66653 8.40637 8.62386 8.44313 8.55953L8.70968 8.10388C8.74644 8.03955 8.74872 7.95817 8.71139 7.8935L8.44739 7.43624C8.41005 7.37158 8.33844 7.33287 8.26434 7.33254L7.73646 7.33555C7.66237 7.33522 7.58847 7.37788 7.55171 7.44222Z"   fill="#495AD4" >
</path>
<path d="M9.48652 3.0781C9.62922 3.11887 9.78925 3.17539 9.9666 3.24764C10.6011 3.50959 11.1565 3.88166 11.6328 4.36386C12.1166 4.84771 12.4883 5.40381 12.7477 6.03218C12.8062 6.17057 12.8637 6.3275 12.9201 6.50297L12.9192 6.50325C12.9197 6.50483 12.9202 6.50641 12.9207 6.508C12.9283 6.53313 12.9334 6.55877 12.936 6.58491C12.9385 6.61105 12.9385 6.63718 12.936 6.66332C12.9334 6.68946 12.9283 6.71509 12.9206 6.74022C12.913 6.76535 12.903 6.7895 12.8906 6.81266C12.8782 6.83582 12.8637 6.85754 12.847 6.87784C12.8303 6.89814 12.8118 6.91661 12.7915 6.93327C12.7712 6.94992 12.7495 6.96443 12.7263 6.97681C12.7032 6.98918 12.679 6.99917 12.6539 7.00679C12.6287 7.0144 12.6031 7.01949 12.577 7.02206C12.5508 7.02462 12.5247 7.02461 12.4985 7.02203C12.4724 7.01944 12.4468 7.01434 12.4216 7.0067C12.3965 6.99907 12.3724 6.98906 12.3492 6.97667C12.326 6.96428 12.3043 6.94975 12.284 6.93308C12.2637 6.91641 12.2453 6.89792 12.2286 6.87761C12.2119 6.8573 12.1974 6.83557 12.1851 6.8124C12.1727 6.78923 12.1627 6.76508 12.1551 6.73994C12.1532 6.73378 12.1515 6.72756 12.1499 6.72131C12.1037 6.57939 12.0573 6.45358 12.0109 6.3439C11.7903 5.8096 11.4757 5.33815 11.0671 4.92955C10.6645 4.52194 10.1959 4.20779 9.66132 3.9871C9.51326 3.92679 9.38185 3.88022 9.2671 3.84742L9.26674 3.84732C9.23293 3.83766 9.20095 3.82378 9.17081 3.80569C9.12532 3.7784 9.0868 3.74344 9.05522 3.70082C9.02364 3.6582 9.00143 3.61115 8.98856 3.55969C8.9757 3.50823 8.97318 3.45627 8.98099 3.40381C8.9888 3.35134 9.00635 3.30237 9.03365 3.25688C9.06094 3.2114 9.0959 3.17287 9.13852 3.1413C9.18114 3.10972 9.22818 3.0875 9.27964 3.07464C9.34891 3.05733 9.41787 3.05848 9.48652 3.0781Z"   fill="#495AD4" >
</path>
<path d="M12.6539 8.99372C12.679 9.00133 12.7032 9.01133 12.7263 9.0237C12.7495 9.03607 12.7712 9.05059 12.7915 9.06724C12.8118 9.08389 12.8303 9.10237 12.847 9.12267C12.8637 9.14296 12.8782 9.16469 12.8906 9.18785C12.903 9.21101 12.913 9.23515 12.9206 9.26028C12.9283 9.28541 12.9334 9.31105 12.936 9.33718C12.9385 9.36332 12.9385 9.38946 12.936 9.4156C12.9334 9.44174 12.9283 9.46737 12.9207 9.49251C12.9201 9.49452 12.9195 9.49653 12.9188 9.49853L12.9201 9.49894C12.8717 9.64948 12.8147 9.80534 12.749 9.96651C12.4871 10.601 12.1156 11.1558 11.6345 11.631C11.1571 12.1143 10.6005 12.4872 9.96488 12.7496C9.80486 12.8148 9.64957 12.8716 9.49903 12.92L9.49862 12.9187C9.42631 12.9419 9.35331 12.9443 9.27964 12.9259C9.22818 12.913 9.18114 12.8908 9.13852 12.8592C9.0959 12.8276 9.06094 12.7891 9.03365 12.7436C9.00635 12.6981 8.9888 12.6492 8.98099 12.5967C8.97318 12.5442 8.9757 12.4923 8.98856 12.4408C9.00143 12.3894 9.02364 12.3423 9.05522 12.2997C9.0868 12.2571 9.12532 12.2221 9.17081 12.1948C9.20631 12.1735 9.2442 12.1581 9.2845 12.1486C9.40641 12.1085 9.5326 12.0619 9.66304 12.0088C10.1964 11.7885 10.6639 11.4752 11.0654 11.0688C11.4742 10.665 11.7889 10.1958 12.0096 9.66123C12.0623 9.53185 12.1086 9.40625 12.1486 9.28442C12.1505 9.2764 12.1527 9.26845 12.1551 9.26056C12.1627 9.23543 12.1727 9.21127 12.1851 9.18811C12.1974 9.16494 12.2119 9.1432 12.2286 9.12289C12.2453 9.10258 12.2637 9.08409 12.284 9.06742C12.3043 9.05076 12.326 9.03623 12.3492 9.02384C12.3724 9.01145 12.3965 9.00144 12.4216 8.9938C12.4468 8.98617 12.4724 8.98106 12.4985 8.97848C12.5247 8.97589 12.5508 8.97588 12.577 8.97845C12.6031 8.98101 12.6287 8.9861 12.6539 8.99372Z"   fill="#495AD4" >
</path>
<path d="M3.8472 9.26694C3.88001 9.38171 3.92681 9.51372 3.98761 9.66295C4.20783 10.1964 4.52116 10.6638 4.92761 11.0653C5.33737 11.4751 5.80832 11.7898 6.34048 12.0095C6.45219 12.0567 6.57907 12.1035 6.72112 12.1498C6.7595 12.1595 6.79566 12.1745 6.82959 12.1948C6.85211 12.2083 6.87309 12.2239 6.89255 12.2416C6.912 12.2592 6.92954 12.2786 6.94518 12.2997C6.96081 12.3208 6.97424 12.3432 6.98545 12.367C6.99667 12.3907 7.00546 12.4153 7.01183 12.4408C7.0182 12.4663 7.02202 12.4921 7.02329 12.5184C7.02457 12.5446 7.02327 12.5707 7.01941 12.5967C7.01554 12.6227 7.00917 12.648 7.00031 12.6728C6.99145 12.6975 6.98026 12.7211 6.96675 12.7436C6.95526 12.7628 6.94225 12.7808 6.92774 12.7978C6.91322 12.8148 6.89739 12.8304 6.88025 12.8447C6.86312 12.8591 6.84491 12.8719 6.82562 12.8831C6.80634 12.8944 6.78626 12.904 6.76537 12.9119C6.74448 12.9198 6.72309 12.9259 6.70118 12.9302C6.67926 12.9346 6.65714 12.937 6.63482 12.9376C6.6125 12.9383 6.59028 12.937 6.56816 12.9339C6.54604 12.9308 6.52434 12.9259 6.50305 12.9191L6.50277 12.92C6.3273 12.8636 6.17144 12.8066 6.0352 12.7489C5.40468 12.4886 4.84808 12.1171 4.3654 11.6344C3.88204 11.157 3.50915 10.6004 3.24673 9.96479C3.17495 9.78859 3.11867 9.62913 3.07789 9.48643C3.07075 9.46143 3.06609 9.43598 3.06391 9.41007C3.06173 9.38416 3.06208 9.35829 3.06494 9.33245C3.06781 9.30661 3.07314 9.28129 3.08094 9.2565C3.08874 9.2317 3.09887 9.20788 3.11131 9.18506C3.12376 9.16223 3.13829 9.14082 3.15491 9.12083C3.17153 9.10084 3.18992 9.08264 3.21009 9.06624C3.23026 9.04983 3.25182 9.03553 3.27477 9.02333C3.29773 9.01113 3.32165 9.00126 3.34653 8.99372C3.37167 8.9861 3.3973 8.98101 3.42344 8.97845C3.44958 8.97588 3.47572 8.97589 3.50186 8.97848C3.52799 8.98106 3.55363 8.98617 3.57876 8.9938C3.60389 9.00144 3.62803 9.01145 3.65119 9.02384C3.67435 9.03623 3.69608 9.05076 3.71637 9.06742C3.73667 9.08409 3.75515 9.10258 3.7718 9.12289C3.78846 9.1432 3.80297 9.16494 3.81534 9.18811C3.82771 9.21127 3.83771 9.23543 3.84532 9.26056C3.84594 9.26259 3.84653 9.26462 3.84711 9.26665L3.8472 9.26694Z"   fill="#495AD4" >
</path>
<path d="M6.73495 3.84675L6.73506 3.84712C6.60337 3.88475 6.47184 3.93134 6.34048 3.98691C5.80832 4.20661 5.33795 4.52075 4.92935 4.92935C4.52075 5.33796 4.20615 5.8094 3.98556 6.3437C3.93089 6.47292 3.88474 6.60338 3.84711 6.73507L3.84674 6.73496C3.84628 6.73656 3.84581 6.73816 3.84532 6.73975C3.82994 6.79052 3.80544 6.83641 3.7718 6.87742C3.73817 6.91844 3.69796 6.95145 3.65119 6.97647C3.60442 7.0015 3.55464 7.01661 3.50186 7.02183C3.44907 7.02705 3.39729 7.02197 3.34653 7.00659C3.32139 6.99898 3.29724 6.98898 3.27407 6.97661C3.25091 6.96424 3.22917 6.94973 3.20886 6.93307C3.18855 6.91642 3.17006 6.89794 3.15339 6.87764C3.13672 6.85735 3.12219 6.83562 3.1098 6.81246C3.09742 6.7893 3.0874 6.76516 3.07977 6.74003C3.07214 6.7149 3.06703 6.68926 3.06445 6.66313C3.06186 6.63699 3.06185 6.61085 3.06442 6.58471C3.06698 6.55857 3.07207 6.53294 3.07969 6.5078C3.08087 6.50388 3.08212 6.49997 3.08343 6.49609C3.12896 6.33964 3.18407 6.18494 3.24878 6.03199C3.50819 5.40362 3.87982 4.84751 4.36366 4.36367C4.84751 3.87983 5.40468 3.50775 6.0352 3.24745C6.18608 3.1836 6.3397 3.12893 6.49607 3.08344L6.49609 3.08343C6.49998 3.08213 6.50388 3.08088 6.5078 3.07969C6.55856 3.06431 6.61033 3.05923 6.66312 3.06445C6.7159 3.06967 6.76568 3.08479 6.81246 3.10981C6.85923 3.13483 6.89943 3.16785 6.93306 3.20887C6.9667 3.24988 6.99121 3.29577 7.00658 3.34654C7.0142 3.37167 7.01929 3.39731 7.02185 3.42345C7.02442 3.44959 7.02441 3.47573 7.02183 3.50186C7.01924 3.528 7.01413 3.55363 7.0065 3.57877C6.99887 3.6039 6.98886 3.62804 6.97647 3.6512C6.96408 3.67436 6.94955 3.69609 6.93288 3.71638C6.91621 3.73668 6.89772 3.75515 6.87741 3.77181C6.8571 3.78846 6.83536 3.80298 6.8122 3.81535C6.78903 3.82772 6.76488 3.83772 6.73974 3.84533C6.73815 3.84581 6.73655 3.84629 6.73495 3.84675Z"   fill="#495AD4" >
</path>
<path d="M7.59961 11.5553L7.59961 13.3331C7.59961 13.3594 7.60217 13.3854 7.6073 13.4112C7.61242 13.4369 7.62001 13.4619 7.63006 13.4862C7.64011 13.5105 7.65243 13.5335 7.66702 13.5554C7.68161 13.5772 7.69819 13.5974 7.71677 13.616C7.73534 13.6345 7.75554 13.6511 7.77738 13.6657C7.79922 13.6803 7.82227 13.6926 7.84654 13.7027C7.8708 13.7127 7.89581 13.7203 7.92157 13.7254C7.94733 13.7306 7.97335 13.7331 7.99961 13.7331C8.02587 13.7331 8.05189 13.7306 8.07765 13.7254C8.1034 13.7203 8.12842 13.7127 8.15268 13.7027C8.17695 13.6926 8.2 13.6803 8.22184 13.6657C8.24368 13.6511 8.26388 13.6345 8.28245 13.616C8.30102 13.5974 8.31761 13.5772 8.3322 13.5554C8.34679 13.5335 8.35911 13.5105 8.36916 13.4862C8.37921 13.4619 8.3868 13.4369 8.39192 13.4112C8.39705 13.3854 8.39961 13.3594 8.39961 13.3331L8.39961 11.5553C8.39961 11.5291 8.39705 11.5031 8.39192 11.4773C8.3868 11.4516 8.37921 11.4265 8.36916 11.4023C8.35911 11.378 8.34679 11.355 8.3322 11.3331C8.31761 11.3113 8.30102 11.2911 8.28245 11.2725C8.26388 11.2539 8.24368 11.2373 8.22184 11.2228C8.2 11.2082 8.17695 11.1958 8.15268 11.1858C8.12842 11.1757 8.1034 11.1682 8.07765 11.163C8.05189 11.1579 8.02587 11.1553 7.99961 11.1553C7.97335 11.1553 7.94733 11.1579 7.92157 11.163C7.89581 11.1682 7.8708 11.1757 7.84654 11.1858C7.82227 11.1958 7.79922 11.2082 7.77738 11.2228C7.75554 11.2373 7.73534 11.2539 7.71677 11.2725C7.69819 11.2911 7.68161 11.3113 7.66702 11.3331C7.65243 11.355 7.64011 11.378 7.63006 11.4023C7.62001 11.4265 7.61242 11.4516 7.6073 11.4773C7.60217 11.5031 7.59961 11.5291 7.59961 11.5553Z"   fill="#495AD4" >
</path>
<path d="M7.59961 2.66716L7.59961 4.44494C7.59961 4.4712 7.60217 4.49722 7.6073 4.52298C7.61242 4.54874 7.62001 4.57375 7.63006 4.59801C7.64011 4.62228 7.65243 4.64533 7.66702 4.66717C7.68161 4.68901 7.69819 4.70921 7.71677 4.72778C7.73534 4.74635 7.75554 4.76294 7.77738 4.77753C7.79922 4.79212 7.82227 4.80444 7.84654 4.81449C7.8708 4.82454 7.89581 4.83213 7.92157 4.83725C7.94733 4.84238 7.97335 4.84494 7.99961 4.84494C8.02587 4.84494 8.05189 4.84238 8.07765 4.83725C8.1034 4.83213 8.12842 4.82454 8.15268 4.81449C8.17695 4.80444 8.2 4.79212 8.22184 4.77753C8.24368 4.76294 8.26388 4.74635 8.28245 4.72778C8.30102 4.70921 8.31761 4.68901 8.3322 4.66717C8.34679 4.64533 8.35911 4.62228 8.36916 4.59801C8.37921 4.57375 8.3868 4.54874 8.39192 4.52298C8.39705 4.49722 8.39961 4.4712 8.39961 4.44494L8.39961 2.66716C8.39961 2.6409 8.39705 2.61489 8.39192 2.58913C8.3868 2.56337 8.37921 2.53835 8.36916 2.51409C8.35911 2.48982 8.34679 2.46677 8.3322 2.44494C8.31761 2.4231 8.30102 2.40289 8.28245 2.38432C8.26388 2.36575 8.24368 2.34916 8.22184 2.33457C8.2 2.31998 8.17695 2.30766 8.15268 2.29761C8.12842 2.28756 8.1034 2.27997 8.07765 2.27485C8.05189 2.26972 8.02587 2.26716 7.99961 2.26716C7.97335 2.26716 7.94733 2.26972 7.92157 2.27485C7.89581 2.27997 7.8708 2.28756 7.84654 2.29761C7.82227 2.30766 7.79922 2.31998 7.77738 2.33457C7.75554 2.34916 7.73534 2.36575 7.71677 2.38432C7.69819 2.40289 7.68161 2.4231 7.66702 2.44494C7.65243 2.46677 7.64011 2.48982 7.63006 2.51409C7.62001 2.53835 7.61242 2.56337 7.6073 2.58913C7.60217 2.61489 7.59961 2.6409 7.59961 2.66716Z"   fill="#495AD4" >
</path>
<path d="M11.5556 8.39963L13.3334 8.39963C13.3597 8.39963 13.3857 8.39707 13.4114 8.39194C13.4372 8.38682 13.4622 8.37923 13.4865 8.36918C13.5107 8.35913 13.5338 8.34681 13.5556 8.33222C13.5775 8.31762 13.5977 8.30104 13.6162 8.28247C13.6348 8.2639 13.6514 8.24369 13.666 8.22186C13.6806 8.20002 13.6929 8.17697 13.703 8.1527C13.713 8.12844 13.7206 8.10342 13.7257 8.07766C13.7308 8.0519 13.7334 8.02589 13.7334 7.99963C13.7334 7.97336 13.7308 7.94735 13.7257 7.92159C13.7206 7.89583 13.713 7.87082 13.703 7.84655C13.6929 7.82229 13.6806 7.79924 13.666 7.7774C13.6514 7.75556 13.6348 7.73536 13.6162 7.71678C13.5977 7.69821 13.5775 7.68163 13.5556 7.66704C13.5338 7.65245 13.5107 7.64013 13.4865 7.63008C13.4622 7.62002 13.4372 7.61244 13.4114 7.60731C13.3857 7.60219 13.3597 7.59963 13.3334 7.59963L11.5556 7.59963C11.5294 7.59963 11.5033 7.60219 11.4776 7.60731C11.4518 7.61244 11.4268 7.62002 11.4025 7.63008C11.3783 7.64013 11.3552 7.65245 11.3334 7.66704C11.3116 7.68163 11.2913 7.69821 11.2728 7.71678C11.2542 7.73536 11.2376 7.75556 11.223 7.7774C11.2084 7.79924 11.1961 7.82229 11.1861 7.84655C11.176 7.87082 11.1684 7.89583 11.1633 7.92159C11.1582 7.94735 11.1556 7.97336 11.1556 7.99963C11.1556 8.02589 11.1582 8.0519 11.1633 8.07766C11.1684 8.10342 11.176 8.12844 11.1861 8.1527C11.1961 8.17697 11.2084 8.20002 11.223 8.22186C11.2376 8.24369 11.2542 8.2639 11.2728 8.28247C11.2913 8.30104 11.3116 8.31762 11.3334 8.33222C11.3552 8.34681 11.3783 8.35913 11.4025 8.36918C11.4268 8.37923 11.4518 8.38682 11.4776 8.39194C11.5033 8.39707 11.5294 8.39963 11.5556 8.39963Z"   fill="#495AD4" >
</path>
<path d="M2.66597 8.39963L4.44375 8.39963C4.47001 8.39963 4.49603 8.39707 4.52179 8.39194C4.54755 8.38682 4.57256 8.37923 4.59682 8.36918C4.62109 8.35913 4.64414 8.34681 4.66598 8.33222C4.68782 8.31762 4.70802 8.30104 4.72659 8.28247C4.74516 8.2639 4.76175 8.24369 4.77634 8.22186C4.79093 8.20002 4.80325 8.17697 4.8133 8.1527C4.82335 8.12844 4.83094 8.10342 4.83606 8.07766C4.84119 8.0519 4.84375 8.02589 4.84375 7.99963C4.84375 7.97336 4.84119 7.94735 4.83606 7.92159C4.83094 7.89583 4.82335 7.87082 4.8133 7.84655C4.80325 7.82229 4.79093 7.79924 4.77634 7.7774C4.76175 7.75556 4.74516 7.73536 4.72659 7.71678C4.70802 7.69821 4.68782 7.68163 4.66598 7.66704C4.64414 7.65245 4.62109 7.64013 4.59682 7.63008C4.57256 7.62002 4.54755 7.61244 4.52179 7.60731C4.49603 7.60219 4.47001 7.59963 4.44375 7.59963L2.66597 7.59963C2.63971 7.59963 2.6137 7.60219 2.58794 7.60731C2.56218 7.61244 2.53716 7.62002 2.5129 7.63008C2.48863 7.64013 2.46558 7.65245 2.44374 7.66704C2.42191 7.68163 2.4017 7.69821 2.38313 7.71678C2.36456 7.73536 2.34797 7.75556 2.33338 7.7774C2.31879 7.79924 2.30647 7.82229 2.29642 7.84655C2.28637 7.87082 2.27878 7.89583 2.27366 7.92159C2.26853 7.94735 2.26597 7.97336 2.26597 7.99963C2.26597 8.02589 2.26853 8.0519 2.27366 8.07766C2.27878 8.10342 2.28637 8.12844 2.29642 8.1527C2.30647 8.17697 2.31879 8.20002 2.33338 8.22186C2.34797 8.24369 2.36456 8.2639 2.38313 8.28247C2.4017 8.30104 2.42191 8.31762 2.44374 8.33222C2.46558 8.34681 2.48863 8.35913 2.5129 8.36918C2.53716 8.37923 2.56218 8.38682 2.58794 8.39194C2.6137 8.39707 2.63971 8.39963 2.66597 8.39963Z"   fill="#495AD4" >
</path>
</svg>
