<svg xmlns="http://www.w3.org/2000/svg" xmlns:xlink="http://www.w3.org/1999/xlink" width="80" height="80"
  viewBox="0 0 80 80" fill="none">
  <g opacity="1" transform="translate(0 0)  rotate(0)">
    <g mask="url(#bg-mask-0)">
      <g opacity="1" transform="translate(19.95703125 15.78125)  rotate(0)">
        <path id="路径 1" fill-rule="evenodd" style="fill:#DFE1ED" opacity="1"
          d="M34.8331,3.45905l-29.59,0.02629c-0.95,0.00085 -1.72933,0.75154 -1.72847,1.72154l0.03383,38.08002c0.00084,0.94 0.76153,1.7193 1.73153,1.7184l29.59001,-0.0263c0.95,-0.0008 1.7293,-0.7515 1.7284,-1.7215l-0.0338,-38.07998c-0.0008,-0.97 -0.7815,-1.74931 -1.7315,-1.71847zM36.56,-0.03248c1.89,-0.00168 3.4814,1.54691 3.4831,3.4569l0.0369,41.54998c0.0017,1.91 -1.557,3.4614 -3.4769,3.4631l-33.07004,0.0294c-1.93,0.0017 -3.49137,-1.5469 -3.49307,-3.4569l-0.03692,-41.55c-0.0017,-1.91 1.55693,-3.46139 3.48693,-3.4631z">
        </path>
        <path id="路径 2" fill-rule="evenodd" style="fill:#DFE1ED" opacity="1"
          d="M30.4604,13.8191l-20.90997,0.0185c-0.98,0.0009 -1.73068,-0.7684 -1.73152,-1.7084c-0.00083,-0.94 0.77847,-1.7207 1.72847,-1.7216l20.91002,-0.0185c0.98,-0.0009 1.7307,0.7784 1.7315,1.7184c0.0008,0.94 -0.7785,1.7107 -1.7285,1.7116zM30.4697,24.2091l-20.91004,0.0185c-0.98,0.0009 -1.73068,-0.7684 -1.73153,-1.7184c-0.00083,-0.94 0.77848,-1.7107 1.72848,-1.7116l20.90999,-0.0185c0.98,-0.0009 1.7307,0.7684 1.7315,1.7084c0.0009,0.95 -0.7784,1.7207 -1.7284,1.7216zM20.0289,34.6083l-10.46001,0.0093c-0.98,0.0009 -1.73069,-0.7784 -1.73153,-1.7184c-0.00083,-0.94 0.77848,-1.7207 1.72848,-1.7216l10.45996,-0.0093c0.97,-0.0008 1.7207,0.7785 1.7216,1.7185c0.0008,0.94 -0.7785,1.7207 -1.7185,1.7215z">
        </path>
      </g>
    </g>
  </g>
</svg>