<svg xmlns="http://www.w3.org/2000/svg" xmlns:xlink="http://www.w3.org/1999/xlink" width="24" height="24"
  viewBox="0 0 24 24" fill="none">
  <path
    d="M5 5.6C5 5.93137 5.26863 6.2 5.6 6.2L15.2 6.2C15.5314 6.2 15.8 5.93137 15.8 5.6C15.8 5.26863 15.5314 5 15.2 5L5.6 5C5.26863 5 5 5.26863 5 5.6Z"
    fill-rule="evenodd" fill="#656A85">
  </path>
  <path
    d="M5.22533 5.13147C4.96657 5.33848 4.92462 5.71605 5.13162 5.97481L8.33162 9.97481C8.53863 10.2336 8.9162 10.2755 9.17496 10.0685C9.43372 9.8615 9.47567 9.48393 9.26866 9.22517L6.06866 5.22517C5.86166 4.96642 5.48408 4.92446 5.22533 5.13147Z"
    fill-rule="evenodd" fill="#656A85">
  </path>
  <path
    d="M8.7999 9C8.46853 9 8.1999 9.26863 8.1999 9.6L8.1999 16C8.1999 16.3314 8.46853 16.6 8.7999 16.6C9.13127 16.6 9.3999 16.3314 9.3999 16L9.3999 9.6C9.3999 9.26863 9.13127 9 8.7999 9Z"
    fill-rule="evenodd" fill="#656A85">
  </path>
  <path
    d="M11.9999 19C12.3313 19 12.5999 18.7314 12.5999 18.4L12.5999 9.6C12.5999 9.26864 12.3313 9 11.9999 9C11.6685 9 11.3999 9.26864 11.3999 9.6L11.3999 18.4C11.3999 18.7314 11.6685 19 11.9999 19Z"
    fill-rule="evenodd" fill="#656A85">
  </path>
  <path
    d="M11.6253 10.0685C11.884 10.2755 12.2616 10.2336 12.4686 9.97481L15.6686 5.97481C15.8756 5.71605 15.8336 5.33848 15.5749 5.13147C15.3161 4.92447 14.9386 4.96641 14.7316 5.22518L11.5316 9.22517C11.3245 9.48393 11.3665 9.86151 11.6253 10.0685Z"
    fill-rule="evenodd" fill="#656A85">
  </path>
  <path
    d="M8.32018 15.64C8.12135 15.9051 8.17508 16.2812 8.44018 16.48L11.6402 18.88C11.9053 19.0788 12.2814 19.0251 12.4802 18.76C12.679 18.4949 12.6253 18.1188 12.3602 17.92L9.16018 15.52C8.89508 15.3212 8.519 15.3749 8.32018 15.64Z"
    fill-rule="evenodd" fill="#656A85">
  </path>
  <path
    d="M13.7998 14.4C13.7998 14.7314 14.0684 15 14.3998 15L18.3998 15C18.7312 15 18.9998 14.7314 18.9998 14.4C18.9998 14.0686 18.7312 13.8 18.3998 13.8L14.3998 13.8C14.0684 13.8 13.7998 14.0686 13.7998 14.4Z"
    fill-rule="evenodd" fill="#656A85">
  </path>
  <path
    d="M13.7998 12C13.7998 12.3314 14.0684 12.6 14.3998 12.6L18.3998 12.6C18.7312 12.6 18.9998 12.3314 18.9998 12C18.9998 11.6686 18.7312 11.4 18.3998 11.4L14.3998 11.4C14.0684 11.4 13.7998 11.6686 13.7998 12Z"
    fill-rule="evenodd" fill="#656A85">
  </path>
  <path
    d="M13.7998 16.8C13.7998 17.1314 14.0684 17.4 14.3998 17.4L18.3998 17.4C18.7312 17.4 18.9998 17.1314 18.9998 16.8C18.9998 16.4686 18.7312 16.2 18.3998 16.2L14.3998 16.2C14.0684 16.2 13.7998 16.4686 13.7998 16.8Z"
    fill-rule="evenodd" fill="#656A85">
  </path>
</svg>