<svg xmlns="http://www.w3.org/2000/svg" xmlns:xlink="http://www.w3.org/1999/xlink" width="59.99998474121094" height="60"
  viewBox="0 0 59.99998474121094 60" fill="none">
  <g opacity="1" transform="translate(0 0)  rotate(0)">
    <rect fill="#495AD4" opacity="1" transform="translate(0 0)  rotate(0)" x="0" y="0" width="60" height="60" rx="4"
      ry="4" />
    <g>
      <g opacity="1" transform="translate(9.993789672851562 5.99365234375)  rotate(0)">
        <path id="直线 1 (轮廓)" fill-rule="evenodd" style="fill:#FFFFFF" opacity="1"
          d="M19.3354 6.66478L11.3392 10.6629C10.5968 11.0341 10.2972 11.933 10.6684 12.6753C11.0396 13.4177 11.9385 13.7173 12.6808 13.3462L20.677 9.34807C21.4194 8.97688 21.719 8.07798 21.3478 7.33561C20.9767 6.59323 20.0778 6.2936 19.3354 6.66478Z">
        </path>
        <path id="直线 2 (轮廓)" fill-rule="evenodd" style="fill:#FFFFFF" opacity="1"
          d="M10.5062 12.0063L10.5062 22.0063C10.5062 22.8363 11.1762 23.5063 12.0062 23.5063C12.8362 23.5063 13.5062 22.8363 13.5062 22.0063L13.5062 12.0063C13.5062 11.1763 12.8362 10.5063 12.0062 10.5063C11.1762 10.5063 10.5062 11.1763 10.5062 12.0063Z">
        </path>
        <path id="直线 3 (轮廓)" fill-rule="evenodd" style="fill:#FFFFFF" opacity="1"
          d="M11.3354 23.348L19.3316 27.3461C20.0739 27.7173 20.9728 27.4176 21.344 26.6753C21.7152 25.9329 21.4156 25.034 20.6732 24.6628L12.677 20.6647C11.9347 20.2935 11.0358 20.5932 10.6646 21.3355C10.2934 22.0779 10.593 22.9768 11.3354 23.348Z">
        </path>
        <path id="直线 4 (轮廓)" fill-rule="evenodd" style="fill:#FFFFFF" opacity="1"
          d="M19.3354 9.348L27.3316 13.3461C28.0739 13.7173 28.9728 13.4176 29.344 12.6753C29.7152 11.9329 29.4156 11.034 28.6732 10.6628L20.677 6.66472C19.9347 6.29353 19.0358 6.59316 18.6646 7.33554C18.2934 8.07791 18.593 8.97681 19.3354 9.348Z">
        </path>
        <path id="直线 5 (轮廓)" fill-rule="evenodd" style="fill:#FFFFFF" opacity="1"
          d="M26.5062 12.0063L26.5062 22.0063C26.5062 22.8363 27.1762 23.5063 28.0062 23.5063C28.8362 23.5063 29.5062 22.8363 29.5062 22.0063L29.5062 12.0063C29.5062 11.1763 28.8362 10.5063 28.0062 10.5063C27.1762 10.5063 26.5062 11.1763 26.5062 12.0063Z">
        </path>
        <path id="直线 6 (轮廓)" fill-rule="evenodd" style="fill:#FFFFFF" opacity="1"
          d="M27.3354 20.6648L19.3392 24.6629C18.5968 25.0341 18.2972 25.933 18.6684 26.6753C19.0396 27.4177 19.9385 27.7173 20.6808 27.3462L28.677 23.3481C29.4194 22.9769 29.719 22.078 29.3478 21.3356C28.9767 20.5932 28.0778 20.2936 27.3354 20.6648Z">
        </path>
        <path id="直线 7 (轮廓)" fill-rule="evenodd" style="fill:#FFFFFF" opacity="1"
          d="M11.3354 13.348L19.3316 17.3461C20.0739 17.7173 20.9728 17.4176 21.344 16.6753C21.7152 15.9329 21.4156 15.034 20.6732 14.6628L12.677 10.6647C11.9347 10.2935 11.0358 10.5932 10.6646 11.3355C10.2934 12.0779 10.593 12.9768 11.3354 13.348Z">
        </path>
        <path id="直线 8 (轮廓)" fill-rule="evenodd" style="fill:#FFFFFF" opacity="1"
          d="M20.677 17.3479L28.6732 13.3498C29.4156 12.9786 29.7152 12.0797 29.344 11.3374C28.9728 10.595 28.0739 10.2954 27.3316 10.6665L19.3354 14.6646C18.593 15.0358 18.2934 15.9347 18.6646 16.6771C19.0358 17.4195 19.9347 17.7191 20.677 17.3479Z">
        </path>
      </g>
      <g opacity="1" transform="translate(5.9937896728515625 12.99365234375)  rotate(0)">
        <path id="直线 1 (轮廓)" fill-rule="evenodd" style="fill:#FFFFFF" opacity="1"
          d="M15.3354 13.6648L7.3392 17.6629C6.59683 18.0341 6.2972 18.933 6.66838 19.6753C7.03957 20.4177 7.93847 20.7173 8.68084 20.3462L16.677 16.3481C17.4194 15.9769 17.719 15.078 17.3478 14.3356C16.9767 13.5932 16.0778 13.2936 15.3354 13.6648Z">
        </path>
        <path id="直线 2 (轮廓)" fill-rule="evenodd" style="fill:#FFFFFF" opacity="1"
          d="M6.50621 19.0063L6.50621 29.0063C6.50621 29.8363 7.17621 30.5063 8.00621 30.5063C8.83621 30.5063 9.50621 29.8363 9.50621 29.0063L9.50621 19.0063C9.50621 18.1763 8.83621 17.5063 8.00621 17.5063C7.17621 17.5063 6.50621 18.1763 6.50621 19.0063Z">
        </path>
        <path id="直线 3 (轮廓)" fill-rule="evenodd" style="fill:#FFFFFF" opacity="1"
          d="M7.33539 30.348L15.3316 34.3461C16.0739 34.7173 16.9728 34.4176 17.344 33.6753C17.7152 32.9329 17.4156 32.034 16.6732 31.6628L8.67703 27.6647C7.93465 27.2935 7.03576 27.5932 6.66457 28.3355C6.29338 29.0779 6.59301 29.9768 7.33539 30.348Z">
        </path>
        <path id="直线 5 (轮廓)" fill-rule="evenodd" style="fill:#FFFFFF" opacity="1"
          d="M22.5062 19.0063L22.5062 29.0063C22.5062 29.8363 23.1762 30.5063 24.0062 30.5063C24.8362 30.5063 25.5062 29.8363 25.5062 29.0063L25.5062 19.0063C25.5062 18.1763 24.8362 17.5063 24.0062 17.5063C23.1762 17.5063 22.5062 18.1763 22.5062 19.0063Z">
        </path>
        <path id="直线 6 (轮廓)" fill-rule="evenodd" style="fill:#FFFFFF" opacity="1"
          d="M23.3354 27.6648L15.3392 31.6629C14.5968 32.0341 14.2972 32.933 14.6684 33.6753C15.0396 34.4177 15.9385 34.7173 16.6808 34.3462L24.677 30.3481C25.4194 29.9769 25.719 29.078 25.3478 28.3356C24.9767 27.5932 24.0778 27.2936 23.3354 27.6648Z">
        </path>
        <path id="直线 7 (轮廓)" fill-rule="evenodd" style="fill:#FFFFFF" opacity="1"
          d="M7.33539 20.348L15.3316 24.3461C16.0739 24.7173 16.9728 24.4176 17.344 23.6753C17.7152 22.9329 17.4156 22.034 16.6732 21.6628L8.67703 17.6647C7.93465 17.2935 7.03576 17.5932 6.66457 18.3355C6.29338 19.0779 6.59301 19.9768 7.33539 20.348Z">
        </path>
        <path id="直线 8 (轮廓)" fill-rule="evenodd" style="fill:#FFFFFF" opacity="1"
          d="M16.677 24.3479L24.6732 20.3498C25.4156 19.9786 25.7152 19.0797 25.344 18.3374C24.9728 17.595 24.0739 17.2954 23.3316 17.6665L15.3354 21.6646C14.593 22.0358 14.2934 22.9347 14.6646 23.6771C15.0358 24.4195 15.9347 24.7191 16.677 24.3479Z">
        </path>
      </g>
      <g opacity="1" transform="translate(13.9937744140625 12.99365234375)  rotate(0)">
        <path id="直线 2 (轮廓)" fill-rule="evenodd" style="fill:#FFFFFF" opacity="1"
          d="M14.5062 19.0063L14.5062 29.0063C14.5062 29.8363 15.1762 30.5063 16.0062 30.5063C16.8362 30.5063 17.5062 29.8363 17.5062 29.0063L17.5062 19.0063C17.5062 18.1763 16.8362 17.5063 16.0062 17.5063C15.1762 17.5063 14.5062 18.1763 14.5062 19.0063Z">
        </path>
        <path id="直线 3 (轮廓)" fill-rule="evenodd" style="fill:#FFFFFF" opacity="1"
          d="M15.3354 30.348L23.3316 34.3461C24.074 34.7173 24.9729 34.4176 25.344 33.6753C25.7152 32.9329 25.4156 32.034 24.6732 31.6628L16.677 27.6647C15.9347 27.2935 15.0358 27.5932 14.6646 28.3355C14.2934 29.0779 14.593 29.9768 15.3354 30.348Z">
        </path>
        <path id="直线 4 (轮廓)" fill-rule="evenodd" style="fill:#FFFFFF" opacity="1"
          d="M23.3354 16.348L31.3316 20.3461C32.0739 20.7173 32.9728 20.4176 33.344 19.6753C33.7152 18.9329 33.4156 18.034 32.6732 17.6628L24.677 13.6647C23.9347 13.2935 23.0358 13.5932 22.6646 14.3355C22.2934 15.0779 22.593 15.9768 23.3354 16.348Z">
        </path>
        <path id="直线 5 (轮廓)" fill-rule="evenodd" style="fill:#FFFFFF" opacity="1"
          d="M30.5062 19.0063L30.5062 29.0063C30.5062 29.8363 31.1762 30.5063 32.0062 30.5063C32.8362 30.5063 33.5062 29.8363 33.5062 29.0063L33.5062 19.0063C33.5062 18.1763 32.8362 17.5063 32.0062 17.5063C31.1762 17.5063 30.5062 18.1763 30.5062 19.0063Z">
        </path>
        <path id="直线 6 (轮廓)" fill-rule="evenodd" style="fill:#FFFFFF" opacity="1"
          d="M31.3354 27.6648L23.3392 31.6629C22.5968 32.0341 22.2972 32.933 22.6684 33.6753C23.0396 34.4177 23.9385 34.7173 24.6809 34.3462L32.677 30.3481C33.4194 29.9769 33.719 29.078 33.3479 28.3356C32.9767 27.5932 32.0778 27.2936 31.3354 27.6648Z">
        </path>
        <path id="直线 7 (轮廓)" fill-rule="evenodd" style="fill:#FFFFFF" opacity="1"
          d="M15.3354 20.348L23.3316 24.3461C24.074 24.7173 24.9729 24.4176 25.344 23.6753C25.7152 22.9329 25.4156 22.034 24.6732 21.6628L16.677 17.6647C15.9347 17.2935 15.0358 17.5932 14.6646 18.3355C14.2934 19.0779 14.593 19.9768 15.3354 20.348Z">
        </path>
        <path id="直线 8 (轮廓)" fill-rule="evenodd" style="fill:#FFFFFF" opacity="1"
          d="M24.677 24.3479L32.6732 20.3498C33.4156 19.9786 33.7152 19.0797 33.344 18.3374C32.9729 17.595 32.074 17.2954 31.3316 17.6665L23.3354 21.6646C22.593 22.0358 22.2934 22.9347 22.6646 23.6771C23.0358 24.4195 23.9347 24.7191 24.677 24.3479Z">
        </path>
      </g>
    </g>
  </g>
  <defs>
    <rect id="path_0" x="0" y="0" width="60" height="60" />
  </defs>
</svg>