<svg xmlns="http://www.w3.org/2000/svg" xmlns:xlink="http://www.w3.org/1999/xlink" width="60" height="60"
  viewBox="0 0 60 60" fill="none">
  <g opacity="1" transform="translate(0 0)  rotate(0)">
    <rect fill="#495AD4" opacity="1" transform="translate(0 0)  rotate(0)" x="0" y="0" width="60" height="60" rx="4"
      ry="4" />
    <g mask="url(#bg-mask-0)">
      <g opacity="1" transform="translate(6.25 6.25)  rotate(0)">
        <path id="路径 3 (轮廓)" fill-rule="evenodd" style="fill:#FFFFFF" opacity="1"
          d="M7.75 41.25L39.75 41.25C40.58 41.25 41.25 40.58 41.25 39.75C41.25 38.92 40.58 38.25 39.75 38.25L7.75 38.25C6.92 38.25 6.25 38.92 6.25 39.75C6.25 40.58 6.92 41.25 7.75 41.25Z">
        </path>
        <path id="路径 3 (轮廓)" fill-rule="evenodd" style="fill:#FFFFFF" opacity="1"
          d="M7.75 15.25L39.75 15.25C40.58 15.25 41.25 14.58 41.25 13.75C41.25 12.92 40.58 12.25 39.75 12.25L7.75 12.25C6.92 12.25 6.25 12.92 6.25 13.75C6.25 14.58 6.92 15.25 7.75 15.25Z">
        </path>
        <path id="矩形 1 (轮廓)" fill-rule="evenodd" style="fill:#FFFFFF" opacity="1"
          d="M6.25,33.75v-26c0,-0.83 0.67,-1.5 1.5,-1.5h32c0.83,0 1.5,0.67 1.5,1.5v26c0,0.83 -0.67,1.5 -1.5,1.5h-32c-0.83,0 -1.5,-0.67 -1.5,-1.5zM9.25,9.25v23h29v-23z">
        </path>
      </g>
      <path id="直线 4 (轮廓)" fill-rule="evenodd" style="fill:#FFFFFF" opacity="1"
        d="M22 26.5L20 26.5C19.17 26.5 18.5 27.17 18.5 28C18.5 28.83 19.17 29.5 20 29.5L22 29.5C22.83 29.5 23.5 28.83 23.5 28C23.5 27.17 22.83 26.5 22 26.5Z">
      </path>
      <path id="直线 4 (轮廓)" fill-rule="evenodd" style="fill:#FFFFFF" opacity="1"
        d="M38 26.5L28 26.5C27.17 26.5 26.5 27.17 26.5 28C26.5 28.83 27.17 29.5 28 29.5L38 29.5C38.83 29.5 39.5 28.83 39.5 28C39.5 27.17 38.83 26.5 38 26.5Z">
      </path>
    </g>
  </g>
  <defs>
    <rect id="path_0" x="0" y="0" width="60" height="60" />
  </defs>
</svg>