<svg xmlns="http://www.w3.org/2000/svg" xmlns:xlink="http://www.w3.org/1999/xlink" width="24" height="24"
  viewBox="0 0 24 24" fill="none">
  <g opacity="1" transform="translate(0 0)  rotate(0)">
    <rect rx="4" ry="4" stroke="#DFE1ED" stroke-width="1" stroke-opacity="1" width="23.5" height="23.5" />
    <rect x="0" y="0" width="24" height="24" rx="4" ry="4" />
    <mask id="bg-mask-0" fill="white">
      <use transform="translate(0 0)  rotate(0)" xlink:href="#path_0"></use>
    </mask>
    <g mask="url(#bg-mask-0)">
      <g opacity="1" transform="translate(5 5)  rotate(0)">
        <path id="直线 2 (轮廓)" fill-rule="evenodd" style="fill:#656A85" opacity="1"
          d="M9.6 10.2L9.6 12.6C9.6 12.93 9.87 13.2 10.2 13.2C10.53 13.2 10.8 12.93 10.8 12.6L10.8 10.2C10.8 9.87001 10.53 9.60001 10.2 9.60001C9.87 9.60001 9.6 9.87001 9.6 10.2Z">
        </path>
        <path id="直线 3 (轮廓)" fill-rule="evenodd" style="fill:#656A85" opacity="1"
          d="M10.2 10.8L12.6 10.8C12.93 10.8 13.2 10.53 13.2 10.2C13.2 9.87001 12.93 9.60001 12.6 9.60001L10.2 9.60001C9.87001 9.60001 9.60001 9.87001 9.60001 10.2C9.60001 10.53 9.87001 10.8 10.2 10.8Z">
        </path>
        <path id="直线 4 (轮廓)" fill-rule="evenodd" style="fill:#656A85" opacity="1"
          d="M9.77573 10.6243L12.9789 13.8275C13.2123 14.0608 13.5941 14.0608 13.8275 13.8275C14.0608 13.5941 14.0608 13.2123 13.8275 12.9789L10.6243 9.77573C10.3909 9.54239 10.0091 9.54239 9.77573 9.77573C9.54239 10.0091 9.54239 10.3909 9.77573 10.6243Z">
        </path>
        <path id="矩形 2 (轮廓)" fill-rule="evenodd" style="fill:#656A85" opacity="1"
          d="M2.39999,5.39999v-2.4c0,-0.33 0.27,-0.6 0.6,-0.6h2.4c0.33,0 0.6,0.27 0.6,0.6v2.4c0,0.33 -0.27,0.6 -0.6,0.6h-2.4c-0.33,0 -0.6,-0.27 -0.6,-0.6zM3.59999,3.59999v1.2h1.2v-1.2z">
        </path>
        <path id="矩形 2 (轮廓)" fill-rule="evenodd" style="fill:#656A85" opacity="1"
          d="M2.39999,10.2v-2.4c0,-0.33 0.27,-0.6 0.6,-0.6h2.4c0.33,0 0.6,0.27 0.6,0.6v2.4c0,0.33 -0.27,0.6 -0.6,0.6h-2.4c-0.33,0 -0.6,-0.27 -0.6,-0.6zM3.59999,8.4v1.2h1.2v-1.2z">
        </path>
        <path id="矩形 2 (轮廓)" fill-rule="evenodd" style="fill:#656A85" opacity="1"
          d="M8,5.39999v-2.4c0,-0.33 0.27,-0.6 0.6,-0.6h2.4c0.33,0 0.6,0.27 0.6,0.6v2.4c0,0.33 -0.27,0.6 -0.6,0.6h-2.4c-0.33,0 -0.6,-0.27 -0.6,-0.6zM9.2,3.59999v1.2h1.2v-1.2z">
        </path>
        <path id="路径 2 (轮廓)" fill-rule="evenodd" style="fill:#656A85" opacity="1"
          d="M12.8 7.8C12.8 8.13 13.07 8.4 13.4 8.4C13.73 8.4 14 8.13 14 7.8L14 0.6C14 0.27 13.73 0 13.4 0L0.6 0C0.27 0 0 0.27 0 0.6L0 12.6C0 12.93 0.27 13.2 0.6 13.2L7.8 13.2C8.13 13.2 8.4 12.93 8.4 12.6C8.4 12.27 8.13 12 7.8 12L1.2 12L1.2 1.2L12.8 1.2L12.8 7.8Z">
        </path>
        <path id="直线 1 (轮廓)" fill-rule="evenodd" style="fill:#656A85" opacity="1"
          d="M5.4 4.80001L8.6 4.80001C8.93 4.80001 9.2 4.53001 9.2 4.20001C9.2 3.87001 8.93 3.60001 8.6 3.60001L5.4 3.60001C5.07 3.60001 4.8 3.87001 4.8 4.20001C4.8 4.53001 5.07 4.80001 5.4 4.80001Z">
        </path>
        <path id="直线 1 (轮廓)" fill-rule="evenodd" style="fill:#656A85" opacity="1"
          d="M3.6 5.4L3.6 7.8C3.6 8.13 3.87 8.4 4.2 8.4C4.53 8.4 4.8 8.13 4.8 7.8L4.8 5.4C4.8 5.07 4.53 4.8 4.2 4.8C3.87 4.8 3.6 5.07 3.6 5.4Z">
        </path>
        <path id="矩形 2 (轮廓)" fill-rule="evenodd" style="fill:#656A85" opacity="1"
          d="M2.39999,10.2v-2.4c0,-0.33 0.27,-0.6 0.6,-0.6h2.4c0.33,0 0.6,0.27 0.6,0.6v2.4c0,0.33 -0.27,0.6 -0.6,0.6h-2.4c-0.33,0 -0.6,-0.27 -0.6,-0.6zM3.59999,8.4v1.2h1.2v-1.2z">
        </path>
      </g>
    </g>
  </g>
  <defs>
    <rect id="path_0" x="0" y="0" width="24" height="24" />
  </defs>
</svg>