<svg xmlns="http://www.w3.org/2000/svg" xmlns:xlink="http://www.w3.org/1999/xlink" width="20" height="7"
    viewBox="0 0 20 7" fill="none">
    <path
        d="M1.25 5.06055C1.25 5.47476 1.58579 5.81055 2 5.81055L18 5.81055C18.4142 5.81055 18.75 5.47476 18.75 5.06055C18.75 4.64633 18.4142 4.31055 18 4.31055L2 4.31055C1.58579 4.31055 1.25 4.64633 1.25 5.06055Z"
        fill-rule="evenodd" fill="#656A85">
    </path>
    <path
        d="M18.5303 5.59076C18.8232 5.29787 18.8232 4.823 18.5303 4.5301L14.5303 0.530107C14.2374 0.237208 13.7626 0.237213 13.4697 0.530107C13.1768 0.823 13.1768 1.29787 13.4697 1.59077L17.4697 5.59076C17.7626 5.88366 18.2374 5.88366 18.5303 5.59076Z"
        fill-rule="evenodd" fill="#656A85">
    </path>
</svg>