<svg xmlns="http://www.w3.org/2000/svg" xmlns:xlink="http://www.w3.org/1999/xlink" width="30" height="30" viewBox="0 0 30 30" fill="none"><path    stroke="rgba(19, 25, 38, 1)" stroke-width="1.5" stroke-linejoin="round"   d="M15 20L7 20L7 7L23 7L23 13.5L23 15.125"></path><path    stroke="rgba(19, 25, 38, 1)" stroke-width="1.5" stroke-linejoin="round"   d="M7 23L16 23"></path><path    stroke="rgba(19, 25, 38, 1)" stroke-width="1.5" stroke-linejoin="round"   d="M9 14L12 14L15 11L18 16L21 13"></path><path d="M21 25C23.2091 25 25 23.2091 25 21C25 18.7909 23.2091 17 21 17C18.7909 17 17 18.7909 17 21C17 23.2091 18.7909 25 21 25ZM20.0927 20.7372L22.7766 18.8355C22.9752 18.6947 23.25 18.8368 23.25 19.0802L23.25 22.9143C23.25 23.1589 22.9732 23.3007 22.7747 23.1578L20.0909 21.2254C19.9238 21.1051 19.9247 20.8562 20.0927 20.7372ZM19 23C19.2761 23 19.5 22.7761 19.5 22.5L19.5 19.5C19.5 19.2239 19.2761 19 19 19C18.7239 19 18.5 19.2239 18.5 19.5L18.5 22.5C18.5 22.7761 18.7239 23 19 23Z" fill-rule="evenodd"  fill="#495AD4" ></path></svg>