<svg xmlns="http://www.w3.org/2000/svg" xmlns:xlink="http://www.w3.org/1999/xlink" width="16" height="16" viewBox="0 0 16 16" fill="none"><g opacity="1"  transform="translate(0 0)  rotate(0)"><mask id="bg-mask-0" fill="white"><use xlink:href="#path_0"></use></mask><g mask="url(#bg-mask-0)" ><path id="圆形 1 (轮廓)" fill-rule="evenodd" style="fill:#656A85" opacity="1" d="M10.9033,1.12333c0.9,0.37 1.69,0.91 2.38,1.6c0.69,0.69 1.22,1.48 1.6,2.37c0.39,0.93 0.58,1.89 0.58,2.91c0,1.01 -0.19,1.98 -0.58,2.89997c-0.38,0.9 -0.91,1.69 -1.6,2.38c-0.69,0.69 -1.48,1.22 -2.38,1.6c-0.91997,0.39 -1.88998,0.58 -2.89998,0.58c-1.01999,0 -1.98,-0.19 -2.90999,-0.58c-0.89,-0.38 -1.68,-0.91 -2.37,-1.6c-0.69,-0.69 -1.23,-1.48 -1.6,-2.38c-0.39,-0.91997 -0.59,-1.88997 -0.59,-2.89997c0,-1.02 0.2,-1.98 0.59,-2.91c0.37,-0.89 0.91,-1.68 1.6,-2.37c0.69,-0.69 1.48,-1.23 2.37,-1.6c0.92999,-0.39 1.89,-0.59 2.90999,-0.59c1.01,0 1.98001,0.2 2.89998,0.59zM3.47333,3.47333c-0.59,0.59 -1.05,1.27 -1.37,2.04c-0.34,0.79 -0.5,1.62 -0.5,2.49c0,0.87 0.16,1.7 0.5,2.48997c0.32,0.76 0.78,1.44 1.37,2.03c0.58999,0.59 1.27,1.05 2.04,1.37c0.79,0.34 1.62,0.51 2.48999,0.51c0.87001,0 1.70001,-0.17 2.48998,-0.51c0.76,-0.32 1.44,-0.78 2.03,-1.37c0.59,-0.59 1.05,-1.27 1.37,-2.03c0.34,-0.78997 0.51,-1.61997 0.51,-2.48997c0,-0.87 -0.17,-1.7 -0.51,-2.49c-0.32,-0.77 -0.78,-1.45 -1.37,-2.04c-0.59,-0.59 -1.27,-1.05 -2.03,-1.37c-0.78997,-0.34 -1.61997,-0.5 -2.48998,-0.5c-0.86999,0 -1.69999,0.16 -2.48999,0.5c-0.77,0.32 -1.45001,0.78 -2.04,1.37z"></path><path id="圆形 3" fill-rule="evenodd" style="fill:#656A85" opacity="1" d="M7.99995 11.2C7.55995 11.2 7.19995 11.56 7.19995 12C7.19995 12.44 7.55995 12.8 7.99995 12.8C8.43995 12.8 8.79995 12.44 8.79995 12C8.79995 11.56 8.43995 11.2 7.99995 11.2Z"></path><path id="直线 1 (轮廓)" fill-rule="evenodd" style="fill:#656A85" opacity="1" d="M7.46667 9.60333C7.46667 9.63333 7.46667 9.67333 7.47668 9.70333C7.48667 9.74333 7.49668 9.77333 7.50667 9.80333C7.51667 9.83333 7.53667 9.86333 7.55667 9.89333C7.57667 9.92333 7.59667 9.95333 7.62667 9.97333C7.64667 10.0033 7.67667 10.0233 7.70668 10.0433C7.73667 10.0633 7.76667 10.0833 7.79667 10.0933C7.82667 10.1033 7.85667 10.1133 7.89668 10.1233C7.92667 10.1333 7.96667 10.1333 7.99668 10.1333C8.03667 10.1333 8.06668 10.1333 8.10668 10.1233C8.13667 10.1133 8.17667 10.1033 8.20667 10.0933C8.23668 10.0833 8.26667 10.0633 8.29667 10.0433C8.32668 10.0233 8.35668 10.0033 8.37667 9.97333C8.40668 9.95333 8.42667 9.92333 8.44668 9.89333C8.46667 9.86333 8.47668 9.83333 8.49667 9.80333C8.50667 9.77333 8.51667 9.74333 8.52668 9.70333C8.52668 9.67333 8.53667 9.63333 8.53667 9.60333L8.53667 3.20333C8.53667 3.16333 8.52668 3.13333 8.52668 3.09333C8.51667 3.06333 8.50667 3.02333 8.49667 2.99333C8.47668 2.96333 8.46667 2.93333 8.44668 2.90333C8.42667 2.87333 8.40668 2.84333 8.37667 2.82333C8.35668 2.79333 8.32668 2.77333 8.29667 2.75333C8.26667 2.73333 8.23668 2.72333 8.20667 2.70333C8.17667 2.69333 8.13667 2.68333 8.10668 2.67333C8.06668 2.67333 8.03667 2.66333 7.99668 2.66333C7.96667 2.66333 7.92667 2.67333 7.89668 2.67333C7.85667 2.68333 7.82667 2.69333 7.79667 2.70333C7.76667 2.72333 7.73667 2.73333 7.70668 2.75333C7.67667 2.77333 7.64667 2.79333 7.62667 2.82333C7.59667 2.84333 7.57667 2.87333 7.55667 2.90333C7.53667 2.93333 7.51667 2.96333 7.50667 2.99333C7.49668 3.02333 7.48667 3.06333 7.47668 3.09333C7.46667 3.13333 7.46667 3.16333 7.46667 3.20333L7.46667 9.60333Z"></path></g></g><defs><rect id="path_0" x="0" y="0" width="16" height="16" /></defs></svg>