<svg xmlns="http://www.w3.org/2000/svg" xmlns:xlink="http://www.w3.org/1999/xlink" width="30" height="30"
  viewBox="0 0 30 30" fill="none">
  <path
    d="M24.2811 22.25L24.2811 18.75C24.2811 18.482 24.1382 18.2345 23.9061 18.1005L20.875 16.3505C20.643 16.2165 20.3571 16.2165 20.125 16.3505L17.0939 18.1005C16.8619 18.2345 16.7189 18.482 16.7189 18.75L16.7189 22.25C16.7189 22.518 16.8619 22.7655 17.0939 22.8995L20.125 24.6495C20.3571 24.7835 20.643 24.7835 20.875 24.6495L23.9061 22.8995C24.1382 22.7655 24.2811 22.518 24.2811 22.25ZM22.7811 19.183L22.7811 21.817L20.5 23.134L18.2189 21.817L18.2189 19.183L20.5 17.866L22.7811 19.183Z"
    fill-rule="evenodd" fill="#495AD4">
  </path>
  <path
    d="M21.5 20.5C21.5 21.0523 21.0523 21.5 20.5 21.5C19.9477 21.5 19.5 21.0523 19.5 20.5C19.5 19.9477 19.9477 19.5 20.5 19.5C21.0523 19.5 21.5 19.9477 21.5 20.5Z"
    fill="#131926">
  </path>
  <path
    d="M9.25 20C9.25 20.4142 9.58579 20.75 10 20.75L15 20.75C15.4142 20.75 15.75 20.4142 15.75 20C15.75 19.5858 15.4142 19.25 15 19.25L10 19.25C9.58579 19.25 9.25 19.5858 9.25 20Z"
    fill-rule="evenodd" fill="#131926">
  </path>
  <path
    d="M6.25 13L6.25 7C6.25 6.58579 6.58579 6.25 7 6.25L23 6.25C23.4142 6.25 23.75 6.58579 23.75 7L23.75 13C23.75 13.4142 23.4142 13.75 23 13.75L20.7509 13.75L20.7505 15.3251C20.3242 15.2713 19.8844 15.3554 19.5 15.5773L19.2504 15.7214L19.2509 13.75L10.7502 13.75L10.7507 16.25L18.3349 16.25L16.7369 17.1727C16.4823 17.3196 16.268 17.5178 16.1039 17.75L7.75 17.75L7.75 22.25L15.7428 22.25C15.7898 22.856 16.1103 23.4085 16.6135 23.75L7 23.75C6.58579 23.75 6.25 23.4142 6.25 23L6.25 17C6.25 16.5858 6.58579 16.25 7 16.25L9.25065 16.25L9.25015 13.75L7 13.75C6.58579 13.75 6.25 13.4142 6.25 13ZM7.75 7.75L7.75 12.25L22.25 12.25L22.25 7.75L7.75 7.75ZM10 10.75C9.58579 10.75 9.25 10.4142 9.25 10C9.25 9.58579 9.58579 9.25 10 9.25L15 9.25C15.4142 9.25 15.75 9.58579 15.75 10C15.75 10.4142 15.4142 10.75 15 10.75L10 10.75ZM19.25 10C19.25 10.4142 18.9142 10.75 18.5 10.75L18 10.75C17.5858 10.75 17.25 10.4142 17.25 10C17.25 9.58579 17.5858 9.25 18 9.25L18.5 9.25C18.9142 9.25 19.25 9.58579 19.25 10Z"
    fill-rule="evenodd" fill="#131926">
  </path>
</svg>