<svg xmlns="http://www.w3.org/2000/svg" xmlns:xlink="http://www.w3.org/1999/xlink" width="30" height="30"
  viewBox="0 0 30 30" fill="none">
  <path
    d="M0 28L0 2C0 0.89543 0.89543 0 2 0L28 0C29.1046 0 30 0.89543 30 2L30 28C30 29.1046 29.1046 30 28 30L2 30C0.89543 30 0 29.1046 0 28Z">
  </path>
  <path
    d="M14.6645 23.6709C15.035 23.8561 15.4855 23.7059 15.6707 23.3354L19.6707 15.3355C19.8559 14.965 19.7058 14.5145 19.3353 14.3292C18.9648 14.144 18.5143 14.2941 18.3291 14.6646L14.3291 22.6646C14.1438 23.0351 14.294 23.4856 14.6645 23.6709Z"
    fill-rule="evenodd" fill="#495AD4">
  </path>
  <path
    d="M23.3354 23.6708C23.7059 23.4856 23.856 23.0351 23.6708 22.6646L19.6708 14.6646C19.4855 14.2941 19.035 14.1439 18.6646 14.3292C18.2941 14.5144 18.1439 14.9649 18.3291 15.3354L22.3291 23.3354C22.5144 23.7059 22.9649 23.8561 23.3354 23.6708Z"
    fill-rule="evenodd" fill="#495AD4">
  </path>
  <path
    d="M16.25 20C16.25 20.4142 16.5858 20.75 17 20.75L21 20.75C21.4142 20.75 21.75 20.4142 21.75 20C21.75 19.5858 21.4142 19.25 21 19.25L17 19.25C16.5858 19.25 16.25 19.5858 16.25 20Z"
    fill-rule="evenodd" fill="#495AD4">
  </path>
  <path
    d="M10.9695 8.03013L10.4697 7.53033C10.3339 7.39461 10.25 7.20711 10.25 7C10.25 6.58579 10.5858 6.25 11 6.25C11.2071 6.25 11.3946 6.33395 11.5303 6.46967L12.0301 6.96947L12.0303 6.96967C12.166 7.10539 12.25 7.29289 12.25 7.5C12.25 7.91421 11.9142 8.25 11.5 8.25C11.2929 8.25 11.1054 8.16605 10.9697 8.03033L10.9695 8.03013Z"
    fill-rule="evenodd" fill="#131926">
  </path>
  <path
    d="M7.25 9C7.25 9.41421 7.58579 9.75 8 9.75L15 9.75C15.4142 9.75 15.75 9.41421 15.75 9C15.75 8.58579 15.4142 8.25 15 8.25L8 8.25C7.58579 8.25 7.25 8.58579 7.25 9Z"
    fill-rule="evenodd" fill="#131926">
  </path>
  <path
    d="M8.75 9C8.75 8.58579 9.08579 8.25 9.5 8.25C9.91421 8.25 10.25 8.58579 10.25 9C10.25 9.70956 10.9059 10.7203 12.2178 12.0322C13.4599 13.2742 14.4615 14.0247 15.2228 14.2836C15.5282 14.3785 15.75 14.6634 15.75 15C15.75 15.4142 15.4142 15.75 15 15.75C14.9102 15.75 14.824 15.7342 14.7442 15.7052C13.7608 15.3715 12.5651 14.5007 11.1572 13.0928C9.55239 11.4881 8.75 10.1238 8.75 9Z"
    fill-rule="evenodd" fill="#131926">
  </path>
  <path
    d="M14.25 9C14.25 8.58579 13.9142 8.25 13.5 8.25C13.0858 8.25 12.75 8.58579 12.75 9C12.75 9.70956 12.0941 10.7203 10.7822 12.0322C9.54012 13.2742 8.53846 14.0247 7.77718 14.2836C7.47177 14.3785 7.25 14.6634 7.25 15C7.25 15.4142 7.58579 15.75 8 15.75C8.08982 15.75 8.17596 15.7342 8.25578 15.7052C9.23925 15.3715 10.4349 14.5007 11.8428 13.0928C13.4476 11.4881 14.25 10.1238 14.25 9Z"
    fill-rule="evenodd" fill="#131926">
  </path>
  <path
    d="M6.51582 11.3083C6.5603 11.2125 6.58512 11.1057 6.58512 10.993C6.58512 10.5788 6.24933 10.243 5.83512 10.243C5.5216 10.243 5.25301 10.4354 5.14095 10.7086C4.54698 12.0712 4.25 13.5016 4.25 15C4.25 20.937 9.06294 25.7499 15 25.7499C15.4142 25.7499 15.75 25.4142 15.75 24.9999C15.75 24.5857 15.4142 24.2499 15 24.2499C9.89137 24.2499 5.75 20.1086 5.75 15C5.75 13.7103 6.00527 12.4797 6.51582 11.3083Z"
    fill-rule="evenodd" fill="#131926">
  </path>
  <path
    d="M15 5.75C14.5858 5.75 14.25 5.41421 14.25 5C14.25 4.58579 14.5858 4.25 15 4.25C20.9371 4.25 25.75 9.06294 25.75 15C25.75 16.4983 25.453 17.9288 24.8591 19.2914C24.747 19.5646 24.4784 19.7569 24.1649 19.7569C23.7507 19.7569 23.4149 19.4212 23.4149 19.0069C23.4149 18.8943 23.4397 18.7875 23.4842 18.6916C23.9947 17.5202 24.25 16.2897 24.25 15C24.25 9.89137 20.1086 5.75 15 5.75Z"
    fill-rule="evenodd" fill="#131926">
  </path>
</svg>