<svg xmlns="http://www.w3.org/2000/svg" xmlns:xlink="http://www.w3.org/1999/xlink" width="31" height="31" viewBox="0 0 31 31" fill="none">
<path  transform="translate(0.5, 0.5)"   fill="#FFFFFF"  d="M0 28L0 2C0 0.89543 0.89543 0 2 0L28 0C29.1046 0 30 0.89543 30 2L30 28C30 29.1046 29.1046 30 28 30L2 30C0.89543 30 0 29.1046 0 28Z">
</path>
<path d="M15.1646 24.1708C15.5351 24.3561 15.9856 24.2059 16.1708 23.8354L20.1708 15.8354C20.3561 15.4649 20.2059 15.0144 19.8354 14.8292C19.4649 14.6439 19.0144 14.7941 18.8292 15.1646L14.8292 23.1646C14.6439 23.5351 14.7941 23.9856 15.1646 24.1708Z" fill-rule="evenodd"  fill="#495AD4" >
</path>
<path d="M23.8354 24.1708C24.2059 23.9856 24.3561 23.5351 24.1708 23.1646L20.1708 15.1646C19.9856 14.7941 19.5351 14.6439 19.1646 14.8292C18.7941 15.0144 18.644 15.4649 18.8292 15.8354L22.8292 23.8354C23.0144 24.2059 23.4649 24.3561 23.8354 24.1708Z" fill-rule="evenodd"  fill="#495AD4" >
</path>
<path d="M16.75 20.5C16.75 20.9142 17.0858 21.25 17.5 21.25L21.5 21.25C21.9142 21.25 22.25 20.9142 22.25 20.5C22.25 20.0858 21.9142 19.75 21.5 19.75L17.5 19.75C17.0858 19.75 16.75 20.0858 16.75 20.5Z" fill-rule="evenodd"  fill="#495AD4" >
</path>
<path d="M11.4695 8.53013L10.9697 8.03033C10.8339 7.89461 10.75 7.70711 10.75 7.5C10.75 7.08579 11.0858 6.75 11.5 6.75C11.7071 6.75 11.8946 6.83395 12.0303 6.96967L12.5301 7.46947L12.5303 7.46967C12.666 7.60539 12.75 7.79289 12.75 8C12.75 8.41421 12.4142 8.75 12 8.75C11.7929 8.75 11.6054 8.66605 11.4697 8.53033L11.4695 8.53013Z" fill-rule="evenodd"  fill="#131926" >
</path>
<path d="M7.75 9.5C7.75 9.91421 8.08579 10.25 8.5 10.25L15.5 10.25C15.9142 10.25 16.25 9.91421 16.25 9.5C16.25 9.08579 15.9142 8.75 15.5 8.75L8.5 8.75C8.08579 8.75 7.75 9.08579 7.75 9.5Z" fill-rule="evenodd"  fill="#131926" >
</path>
<path d="M9.25 9.5C9.25 9.08579 9.58579 8.75 10 8.75C10.4142 8.75 10.75 9.08579 10.75 9.5C10.75 10.2096 11.4059 11.2203 12.7178 12.5322C13.9599 13.7742 14.9615 14.5247 15.7228 14.7836C16.0282 14.8785 16.25 15.1634 16.25 15.5C16.25 15.9142 15.9142 16.25 15.5 16.25C15.4102 16.25 15.324 16.2342 15.2442 16.2052C14.2608 15.8715 13.0651 15.0007 11.6572 13.5928C10.0524 11.9881 9.25 10.6238 9.25 9.5Z" fill-rule="evenodd"  fill="#131926" >
</path>
<path d="M14.75 9.5C14.75 9.08579 14.4142 8.75 14 8.75C13.5858 8.75 13.25 9.08579 13.25 9.5C13.25 10.2096 12.5941 11.2203 11.2822 12.5322C10.0401 13.7742 9.03846 14.5247 8.27718 14.7836C7.97177 14.8785 7.75 15.1634 7.75 15.5C7.75 15.9142 8.08579 16.25 8.5 16.25C8.58982 16.25 8.67596 16.2342 8.75578 16.2052C9.73925 15.8715 10.9349 15.0007 12.3428 13.5928C13.9476 11.9881 14.75 10.6238 14.75 9.5Z" fill-rule="evenodd"  fill="#131926" >
</path>
<path d="M7.01582 11.8084C7.0603 11.7125 7.08512 11.6057 7.08512 11.4931C7.08512 11.0789 6.74933 10.7431 6.33512 10.7431C6.0216 10.7431 5.75301 10.9354 5.64095 11.2086C5.04698 12.5712 4.75 14.0017 4.75 15.5C4.75 21.4371 9.56294 26.25 15.5 26.25C15.9142 26.25 16.25 25.9143 16.25 25.5C16.25 25.0858 15.9142 24.75 15.5 24.75C10.3914 24.75 6.25 20.6086 6.25 15.5C6.25 14.2103 6.50527 12.9798 7.01582 11.8084Z" fill-rule="evenodd"  fill="#131926" >
</path>
<path d="M15.5 6.25C15.0858 6.25 14.75 5.91421 14.75 5.5C14.75 5.08579 15.0858 4.75 15.5 4.75C21.4371 4.75 26.25 9.56294 26.25 15.5C26.25 16.9983 25.953 18.4288 25.3591 19.7914C25.247 20.0646 24.9784 20.2569 24.6649 20.2569C24.2507 20.2569 23.9149 19.9212 23.9149 19.5069C23.9149 19.3943 23.9397 19.2875 23.9842 19.1916C24.4947 18.0202 24.75 16.7897 24.75 15.5C24.75 10.3914 20.6086 6.25 15.5 6.25Z" fill-rule="evenodd"  fill="#131926" >
</path>
<path   transform="translate(0.5, 0.5)" stroke="rgba(223, 225, 237, 1)" stroke-width="1"    d="M0 28L0 2C0 0.89543 0.89543 0 2 0L28 0C29.1046 0 30 0.89543 30 2L30 28C30 29.1046 29.1046 30 28 30L2 30C0.89543 30 0 29.1046 0 28Z">
</path>
</svg>
