  <svg xmlns="http://www.w3.org/2000/svg" xmlns:xlink="http://www.w3.org/1999/xlink" width="16" height="16" viewBox="0 0 16 16" fill="none">
    <path d="M4.32303 4.32304C4.3416 4.30447 4.36181 4.28789 4.38365 4.2733C4.40548 4.25871 4.42854 4.24639 4.4528 4.23634C4.47707 4.22628 4.50208 4.2187 4.52784 4.21357C4.5536 4.20845 4.57961 4.20589 4.60588 4.20589C4.63214 4.20589 4.65815 4.20845 4.68391 4.21357C4.70967 4.2187 4.73468 4.22628 4.75895 4.23633C4.78321 4.24639 4.80627 4.25871 4.8281 4.2733C4.84994 4.28789 4.87015 4.30447 4.88872 4.32304C4.90725 4.34157 4.92379 4.36172 4.93836 4.3835C4.95293 4.40528 4.96524 4.42827 4.97528 4.45247C4.98533 4.47667 4.99293 4.50161 4.99808 4.5273C5.00323 4.55299 5.00583 4.57894 5.00588 4.60514C5.00593 4.63134 5.00342 4.6573 4.99837 4.68301C4.99332 4.70872 4.98581 4.73369 4.97585 4.75792C4.9659 4.78216 4.95367 4.80519 4.93919 4.82703C4.9247 4.84886 4.90823 4.86908 4.88977 4.88767L4.89083 4.88873C4.4842 5.29536 4.16934 5.76179 3.94627 6.28801C3.71541 6.83256 3.59999 7.40252 3.59999 7.99789C3.59999 8.59476 3.7152 9.16557 3.94563 9.7103C4.16829 10.2366 4.48269 10.7029 4.88883 11.109C5.29497 11.5152 5.76122 11.8296 6.28758 12.0522C6.83231 12.2827 7.40311 12.3979 7.99999 12.3979L7.99999 12.4C8.02625 12.4 8.05227 12.4026 8.07803 12.4077C8.10379 12.4128 8.1288 12.4204 8.15306 12.4305C8.17733 12.4405 8.20038 12.4528 8.22222 12.4674C8.24406 12.482 8.26426 12.4986 8.28283 12.5171C8.3014 12.5358 8.31798 12.556 8.33257 12.5778C8.34717 12.5996 8.35949 12.6226 8.36954 12.6469C8.37959 12.6712 8.38718 12.6962 8.3923 12.7219C8.39743 12.7477 8.39999 12.7737 8.39999 12.8C8.39999 12.8263 8.39743 12.8523 8.3923 12.878C8.38718 12.9038 8.37959 12.9288 8.36954 12.9531C8.35949 12.9774 8.34717 13.0004 8.33257 13.0222C8.31798 13.0441 8.3014 13.0643 8.28283 13.0828C8.26426 13.1014 8.24406 13.118 8.22222 13.1326C8.20038 13.1472 8.17733 13.1595 8.15306 13.1696C8.1288 13.1796 8.10379 13.1872 8.07803 13.1923C8.05227 13.1975 8.02625 13.2 7.99999 13.2L7.99999 13.1979C7.29495 13.1979 6.62025 13.0616 5.9759 12.789C5.35375 12.5259 4.80284 12.1544 4.32315 11.6747C3.84345 11.1951 3.47202 10.6441 3.20884 10.022C2.93627 9.37763 2.79999 8.70293 2.79999 7.99789C2.79999 7.29414 2.93656 6.6201 3.20971 5.97576C3.47311 5.35444 3.84457 4.80388 4.32409 4.3241L4.32303 4.32304Z"   fill="#44C795" >
    </path>
    <path d="M8.36972 12.6473C8.3597 12.623 8.3474 12.6 8.33283 12.5781L7.13283 10.7781C7.11826 10.7563 7.1017 10.736 7.08315 10.7175C7.0646 10.6989 7.04441 10.6823 7.02258 10.6676C7.00076 10.653 6.97772 10.6407 6.95347 10.6306C6.92921 10.6205 6.90421 10.6129 6.87845 10.6078C6.8527 10.6026 6.82669 10.6 6.80043 10.6C6.77416 10.6 6.74815 10.6025 6.72238 10.6076C6.69662 10.6127 6.6716 10.6203 6.64732 10.6303C6.62305 10.6403 6.59998 10.6526 6.57813 10.6672C6.55628 10.6817 6.53605 10.6983 6.51746 10.7169C6.49887 10.7354 6.48227 10.7556 6.46765 10.7774C6.45304 10.7992 6.44069 10.8223 6.43062 10.8465C6.42054 10.8708 6.41293 10.8958 6.40777 10.9215C6.40263 10.9473 6.40004 10.9733 6.40001 10.9996C6.39998 11.0258 6.40251 11.0519 6.40761 11.0776C6.41271 11.1034 6.42027 11.1284 6.43029 11.1527C6.44032 11.177 6.45262 11.2 6.46719 11.2219L7.66719 13.0219C7.68176 13.0437 7.69832 13.064 7.71687 13.0825C7.73542 13.1011 7.75561 13.1177 7.77743 13.1324C7.79926 13.147 7.82229 13.1593 7.84655 13.1694C7.8708 13.1795 7.89581 13.1871 7.92156 13.1922C7.94732 13.1974 7.97332 13.2 7.99959 13.2C8.02585 13.2 8.05186 13.1975 8.07763 13.1924C8.1034 13.1873 8.12842 13.1797 8.15269 13.1697C8.17697 13.1597 8.20003 13.1474 8.22189 13.1328C8.24374 13.1182 8.26397 13.1017 8.28256 13.0831C8.30115 13.0646 8.31775 13.0444 8.33237 13.0226C8.34698 13.0007 8.35932 12.9777 8.3694 12.9535C8.37947 12.9292 8.38709 12.9042 8.39224 12.8784C8.39739 12.8527 8.39998 12.8267 8.40001 12.8004C8.40004 12.7742 8.3975 12.7481 8.39241 12.7224C8.38731 12.6966 8.37975 12.6716 8.36972 12.6473Z"   fill="#44C795" >
    </path>
    <path d="M11.677 11.677C11.6584 11.6955 11.6382 11.7121 11.6164 11.7267C11.5945 11.7413 11.5715 11.7536 11.5472 11.7637C11.5229 11.7737 11.4979 11.7813 11.4722 11.7864C11.4464 11.7916 11.4204 11.7941 11.3941 11.7941C11.3679 11.7941 11.3418 11.7916 11.3161 11.7864C11.2903 11.7813 11.2653 11.7737 11.2411 11.7637C11.2168 11.7536 11.1937 11.7413 11.1719 11.7267C11.1501 11.7121 11.1299 11.6955 11.1113 11.677C11.0928 11.6584 11.0762 11.6383 11.0616 11.6165C11.0471 11.5947 11.0348 11.5717 11.0247 11.5475C11.0147 11.5233 11.0071 11.4984 11.0019 11.4727C10.9968 11.447 10.9942 11.4211 10.9941 11.3949C10.9941 11.3687 10.9966 11.3427 11.0016 11.317C11.0067 11.2913 11.0142 11.2663 11.0241 11.2421C11.0341 11.2178 11.0463 11.1948 11.0608 11.173C11.0753 11.1511 11.0918 11.1309 11.1102 11.1123L11.1092 11.1113C11.5158 10.7046 11.8307 10.2382 12.0537 9.71199C12.2846 9.16744 12.4 8.59748 12.4 8.00211C12.4 7.40523 12.2848 6.83443 12.0544 6.2897C11.8317 5.76336 11.5173 5.29712 11.1112 4.89097C10.705 4.48481 10.2388 4.17041 9.71242 3.94777C9.16769 3.71733 8.59689 3.60211 8.00001 3.60211L8.00001 3.59998C7.97375 3.59998 7.94773 3.59742 7.92197 3.5923C7.89621 3.58718 7.8712 3.57961 7.84694 3.56953C7.82267 3.5595 7.79962 3.54718 7.77778 3.53257C7.75594 3.51801 7.73574 3.50142 7.71717 3.48286C7.6986 3.46425 7.68202 3.44403 7.66743 3.42222C7.65283 3.40041 7.64051 3.37737 7.63046 3.3531C7.62041 3.32883 7.61282 3.30382 7.6077 3.27806C7.60257 3.2523 7.60001 3.22627 7.60001 3.19998C7.60001 3.17374 7.60257 3.14771 7.6077 3.12195C7.61282 3.09619 7.62041 3.07118 7.63046 3.04691C7.64051 3.02265 7.65283 2.99961 7.66743 2.97779C7.68202 2.95593 7.6986 2.93571 7.71717 2.91715C7.73574 2.89859 7.75594 2.88201 7.77778 2.86739C7.79962 2.85283 7.82267 2.84051 7.84694 2.83043C7.8712 2.82041 7.89621 2.81283 7.92197 2.80766C7.94773 2.80254 7.97375 2.79998 8.00001 2.79998L8.00001 2.80211C8.70505 2.80211 9.37975 2.9384 10.0241 3.21097C10.6462 3.47415 11.1972 3.84558 11.6769 4.32526C12.1565 4.80494 12.528 5.35585 12.7912 5.97801C13.0637 6.62237 13.2 7.29707 13.2 8.00211C13.2 8.70586 13.0634 9.3799 12.7903 10.0242C12.5269 10.6456 12.1554 11.1961 11.6759 11.6759L11.677 11.677Z"   fill="#44C795" >
    </path>
    <path d="M7.63028 3.35269C7.6403 3.37696 7.6526 3.40003 7.66717 3.42188L8.86717 5.22188C8.88174 5.24374 8.8983 5.26396 8.91685 5.28255C8.9354 5.30114 8.95559 5.31774 8.97742 5.33236C8.99924 5.34697 9.02228 5.35932 9.04653 5.36939C9.07079 5.37947 9.09579 5.38708 9.12155 5.39224C9.1473 5.39739 9.17331 5.39998 9.19957 5.4C9.22584 5.40003 9.25185 5.3975 9.27762 5.3924C9.30338 5.3873 9.3284 5.37974 9.35268 5.36971C9.37695 5.35969 9.40002 5.34739 9.42187 5.33282C9.44372 5.31825 9.46395 5.30169 9.48254 5.28314C9.50113 5.26459 9.51773 5.2444 9.53235 5.22258C9.54696 5.20076 9.55931 5.17772 9.56938 5.15346C9.57946 5.12921 9.58707 5.1042 9.59223 5.07845C9.59737 5.05269 9.59996 5.02668 9.59999 5.00042C9.60002 4.97416 9.59749 4.94814 9.59239 4.92238C9.58729 4.89661 9.57973 4.87159 9.56971 4.84732C9.55968 4.82304 9.54738 4.79998 9.53281 4.77812L8.33281 2.97812C8.31824 2.95627 8.30168 2.93604 8.28313 2.91745C8.26458 2.89886 8.24439 2.88226 8.22257 2.86764C8.20074 2.85303 8.17771 2.84069 8.15345 2.83061C8.1292 2.82054 8.10419 2.81292 8.07844 2.80777C8.05268 2.80262 8.02668 2.80003 8.00041 2.8C7.97415 2.79997 7.94814 2.80251 7.92237 2.8076C7.8966 2.8127 7.87158 2.82026 7.84731 2.83029C7.82303 2.84031 7.79997 2.85261 7.77811 2.86718C7.75626 2.88175 7.73603 2.89831 7.71744 2.91686C7.69885 2.93542 7.68225 2.9556 7.66763 2.97743C7.65302 2.99925 7.64068 3.02229 7.6306 3.04654C7.62053 3.0708 7.61291 3.0958 7.60776 3.12156C7.60261 3.14731 7.60002 3.17332 7.59999 3.19958C7.59996 3.22584 7.6025 3.25186 7.60759 3.27762C7.61269 3.30339 7.62025 3.32841 7.63028 3.35269Z"   fill="#44C795" >
    </path>
    </svg>
    