<svg xmlns="http://www.w3.org/2000/svg" xmlns:xlink="http://www.w3.org/1999/xlink" width="30" height="30"
  viewBox="0 0 30 30" fill="none">
  <g opacity="1" transform="translate(0 0)  rotate(0)">
    <mask id="bg-mask-0" fill="white">
      <use transform="translate(0 0)  rotate(0)" xlink:href="#path_0"></use>
    </mask>
    <g mask="url(#bg-mask-0)">
      <g opacity="1" transform="translate(16 17)  rotate(0)">
        <path id="多边形 1 (轮廓)" fill-rule="evenodd" style="fill:#495AD4" opacity="1"
          d="M3.87973,-0.65l3.03,1.75c0.05,0.03 0.1,0.07 0.15,0.12c0.05,0.05 0.09,0.1 0.12,0.16c0.03,0.05 0.06,0.11 0.07,0.18c0.02,0.06 0.03,0.12 0.03,0.19v3.5c0,0.07 -0.01,0.13 -0.03,0.19c-0.01,0.07 -0.04,0.13 -0.07,0.18c-0.03,0.06 -0.07,0.11 -0.12,0.16c-0.05,0.05 -0.1,0.09 -0.15,0.12l-3.03,1.75c-0.06,0.03 -0.12,0.06 -0.19,0.07c-0.06,0.02 -0.12,0.03 -0.19,0.03c-0.07,0 -0.13,-0.01 -0.19,-0.03c-0.07,-0.01 -0.13,-0.04 -0.19,-0.07l-3.03,-1.75c-0.05,-0.03 -0.1,-0.07 -0.15,-0.12c-0.05,-0.05 -0.09,-0.1 -0.12,-0.16c-0.03,-0.05 -0.06,-0.11 -0.07,-0.18c-0.02,-0.06 -0.03,-0.12 -0.03,-0.19v-3.5c0,-0.07 0.01,-0.13 0.03,-0.19c0.01,-0.07 0.04,-0.13 0.07,-0.18c0.03,-0.06 0.07,-0.11 0.12,-0.16c0.05,-0.05 0.1,-0.09 0.15,-0.12l3.03,-1.75c0.06,-0.03 0.12,-0.06 0.19,-0.07c0.06,-0.02 0.12,-0.03 0.19,-0.03c0.07,0 0.13,0.01 0.19,0.03c0.07,0.01 0.13,0.04 0.19,0.07zM1.21973,2.18v2.64l2.28,1.31l2.28,-1.31v-2.64l-2.28,-1.31z">
        </path>
        <path id="圆形 2" fill-rule="evenodd" style="fill:#131926" opacity="1"
          d="M3.5 2.5C2.95 2.5 2.5 2.95 2.5 3.5C2.5 4.05 2.95 4.5 3.5 4.5C4.05 4.5 4.5 4.05 4.5 3.5C4.5 2.95 4.05 2.5 3.5 2.5Z">
        </path>
      </g>
      <path id="矩形 2 (轮廓)" fill-rule="evenodd" style="fill:#131926" opacity="1"
        d="M21.25 15C21.25 15.05 21.25 15.1 21.26 15.15C21.27 15.19 21.29 15.24 21.31 15.29C21.33 15.33 21.35 15.38 21.38 15.42C21.4 15.46 21.43 15.5 21.47 15.53C21.5 15.57 21.54 15.6 21.58 15.62C21.62 15.65 21.67 15.67 21.71 15.69C21.76 15.71 21.81 15.73 21.85 15.74C21.9 15.75 21.95 15.75 22 15.75C22.05 15.75 22.1 15.75 22.15 15.74C22.19 15.73 22.24 15.71 22.29 15.69C22.33 15.67 22.38 15.65 22.42 15.62C22.46 15.6 22.5 15.57 22.53 15.53C22.57 15.5 22.6 15.46 22.62 15.42C22.65 15.38 22.67 15.33 22.69 15.29C22.71 15.24 22.73 15.19 22.74 15.15C22.75 15.1 22.75 15.05 22.75 15L22.75 7C22.75 6.95 22.75 6.9 22.74 6.85C22.73 6.81 22.71 6.76 22.69 6.71C22.67 6.67 22.65 6.62 22.62 6.58C22.6 6.54 22.57 6.5 22.53 6.47C22.5 6.43 22.46 6.4 22.42 6.38C22.38 6.35 22.33 6.33 22.29 6.31C22.24 6.29 22.19 6.27 22.15 6.26C22.1 6.25 22.05 6.25 22 6.25L8 6.25C7.95 6.25 7.9 6.25 7.85 6.26C7.81 6.27 7.76 6.29 7.71 6.31C7.67 6.33 7.62 6.35 7.58 6.38C7.54 6.4 7.5 6.43 7.47 6.47C7.43 6.5 7.4 6.54 7.38 6.58C7.35 6.62 7.33 6.67 7.31 6.71C7.29 6.76 7.27 6.81 7.26 6.85C7.25 6.9 7.25 6.95 7.25 7L7.25 23C7.25 23.05 7.25 23.1 7.26 23.15C7.27 23.19 7.29 23.24 7.31 23.29C7.33 23.33 7.35 23.38 7.38 23.42C7.4 23.46 7.43 23.5 7.47 23.53C7.5 23.57 7.54 23.6 7.58 23.62C7.62 23.65 7.67 23.67 7.71 23.69C7.76 23.71 7.81 23.73 7.85 23.74C7.9 23.75 7.95 23.75 8 23.75L14 23.75C14.05 23.75 14.1 23.75 14.15 23.74C14.19 23.73 14.24 23.71 14.29 23.69C14.33 23.67 14.38 23.65 14.42 23.62C14.46 23.6 14.5 23.57 14.53 23.53C14.57 23.5 14.6 23.46 14.62 23.42C14.65 23.38 14.67 23.33 14.69 23.29C14.71 23.24 14.73 23.19 14.74 23.15C14.75 23.1 14.75 23.05 14.75 23C14.75 22.95 14.75 22.9 14.74 22.85C14.73 22.81 14.71 22.76 14.69 22.71C14.67 22.67 14.65 22.62 14.62 22.58C14.6 22.54 14.57 22.5 14.53 22.47C14.5 22.43 14.46 22.4 14.42 22.38C14.38 22.35 14.33 22.33 14.29 22.31C14.24 22.29 14.19 22.27 14.15 22.26C14.1 22.25 14.05 22.25 14 22.25L8.75 22.25L8.75 7.75L21.25 7.75L21.25 15Z">
      </path>
      <path id="直线 1 (轮廓)" fill-rule="evenodd" style="fill:#131926" opacity="1"
        d="M7 11.25C6.95 11.25 6.9 11.25 6.85 11.26C6.81 11.27 6.76 11.29 6.71 11.31C6.67 11.33 6.62 11.35 6.58 11.38C6.54 11.4 6.5 11.43 6.47 11.47C6.43 11.5 6.4 11.54 6.38 11.58C6.35 11.62 6.33 11.67 6.31 11.71C6.29 11.76 6.27 11.81 6.26 11.85C6.25 11.9 6.25 11.95 6.25 12C6.25 12.05 6.25 12.1 6.26 12.15C6.27 12.19 6.29 12.24 6.31 12.29C6.33 12.33 6.35 12.38 6.38 12.42C6.4 12.46 6.43 12.5 6.47 12.53C6.5 12.57 6.54 12.6 6.58 12.62C6.62 12.65 6.67 12.67 6.71 12.69C6.76 12.71 6.81 12.73 6.85 12.74C6.9 12.75 6.95 12.75 7 12.75L9 12.75C9.05 12.75 9.1 12.75 9.15 12.74C9.19 12.73 9.24 12.71 9.29 12.69C9.33 12.67 9.38 12.65 9.42 12.62C9.46 12.6 9.5 12.57 9.53 12.53C9.57 12.5 9.6 12.46 9.62 12.42C9.65 12.38 9.67 12.33 9.69 12.29C9.71 12.24 9.73 12.19 9.74 12.15C9.75 12.1 9.75 12.05 9.75 12C9.75 11.95 9.75 11.9 9.74 11.85C9.73 11.81 9.71 11.76 9.69 11.71C9.67 11.67 9.65 11.62 9.62 11.58C9.6 11.54 9.57 11.5 9.53 11.47C9.5 11.43 9.46 11.4 9.42 11.38C9.38 11.35 9.33 11.33 9.29 11.31C9.24 11.29 9.19 11.27 9.15 11.26C9.1 11.25 9.05 11.25 9 11.25L7 11.25Z">
      </path>
      <path id="直线 1 (轮廓)" fill-rule="evenodd" style="fill:#131926" opacity="1"
        d="M12 10.25C11.95 10.25 11.9 10.25 11.85 10.26C11.81 10.27 11.76 10.29 11.71 10.31C11.67 10.33 11.62 10.35 11.58 10.38C11.54 10.4 11.5 10.43 11.47 10.47C11.43 10.5 11.4 10.54 11.38 10.58C11.35 10.62 11.33 10.67 11.31 10.71C11.29 10.76 11.27 10.81 11.26 10.85C11.25 10.9 11.25 10.95 11.25 11C11.25 11.05 11.25 11.1 11.26 11.15C11.27 11.19 11.29 11.24 11.31 11.29C11.33 11.33 11.35 11.38 11.38 11.42C11.4 11.46 11.43 11.5 11.47 11.53C11.5 11.57 11.54 11.6 11.58 11.62C11.62 11.65 11.67 11.67 11.71 11.69C11.76 11.71 11.81 11.73 11.85 11.74C11.9 11.75 11.95 11.75 12 11.75L18 11.75C18.05 11.75 18.1 11.75 18.15 11.74C18.19 11.73 18.24 11.71 18.29 11.69C18.33 11.67 18.38 11.65 18.42 11.62C18.46 11.6 18.5 11.57 18.53 11.53C18.57 11.5 18.6 11.46 18.62 11.42C18.65 11.38 18.67 11.33 18.69 11.29C18.71 11.24 18.73 11.19 18.74 11.15C18.75 11.1 18.75 11.05 18.75 11C18.75 10.95 18.75 10.9 18.74 10.85C18.73 10.81 18.71 10.76 18.69 10.71C18.67 10.67 18.65 10.62 18.62 10.58C18.6 10.54 18.57 10.5 18.53 10.47C18.5 10.43 18.46 10.4 18.42 10.38C18.38 10.35 18.33 10.33 18.29 10.31C18.24 10.29 18.19 10.27 18.15 10.26C18.1 10.25 18.05 10.25 18 10.25L12 10.25Z">
      </path>
      <path id="直线 1 (轮廓)" fill-rule="evenodd" style="fill:#131926" opacity="1"
        d="M12 13.25C11.95 13.25 11.9 13.25 11.85 13.26C11.81 13.27 11.76 13.29 11.71 13.31C11.67 13.33 11.62 13.35 11.58 13.38C11.54 13.4 11.5 13.43 11.47 13.47C11.43 13.5 11.4 13.54 11.38 13.58C11.35 13.62 11.33 13.67 11.31 13.71C11.29 13.76 11.27 13.81 11.26 13.85C11.25 13.9 11.25 13.95 11.25 14C11.25 14.05 11.25 14.1 11.26 14.15C11.27 14.19 11.29 14.24 11.31 14.29C11.33 14.33 11.35 14.38 11.38 14.42C11.4 14.46 11.43 14.5 11.47 14.53C11.5 14.57 11.54 14.6 11.58 14.62C11.62 14.65 11.67 14.67 11.71 14.69C11.76 14.71 11.81 14.73 11.85 14.74C11.9 14.75 11.95 14.75 12 14.75L18 14.75C18.05 14.75 18.1 14.75 18.15 14.74C18.19 14.73 18.24 14.71 18.29 14.69C18.33 14.67 18.38 14.65 18.42 14.62C18.46 14.6 18.5 14.57 18.53 14.53C18.57 14.5 18.6 14.46 18.62 14.42C18.65 14.38 18.67 14.33 18.69 14.29C18.71 14.24 18.73 14.19 18.74 14.15C18.75 14.1 18.75 14.05 18.75 14C18.75 13.95 18.75 13.9 18.74 13.85C18.73 13.81 18.71 13.76 18.69 13.71C18.67 13.67 18.65 13.62 18.62 13.58C18.6 13.54 18.57 13.5 18.53 13.47C18.5 13.43 18.46 13.4 18.42 13.38C18.38 13.35 18.33 13.33 18.29 13.31C18.24 13.29 18.19 13.27 18.15 13.26C18.1 13.25 18.05 13.25 18 13.25L12 13.25Z">
      </path>
      <path id="直线 1 (轮廓)" fill-rule="evenodd" style="fill:#131926" opacity="1"
        d="M12 16.25C11.95 16.25 11.9 16.25 11.85 16.26C11.81 16.27 11.76 16.29 11.71 16.31C11.67 16.33 11.62 16.35 11.58 16.38C11.54 16.4 11.5 16.43 11.47 16.47C11.43 16.5 11.4 16.54 11.38 16.58C11.35 16.62 11.33 16.67 11.31 16.71C11.29 16.76 11.27 16.81 11.26 16.85C11.25 16.9 11.25 16.95 11.25 17C11.25 17.05 11.25 17.1 11.26 17.15C11.27 17.19 11.29 17.24 11.31 17.29C11.33 17.33 11.35 17.38 11.38 17.42C11.4 17.46 11.43 17.5 11.47 17.53C11.5 17.57 11.54 17.6 11.58 17.62C11.62 17.65 11.67 17.67 11.71 17.69C11.76 17.71 11.81 17.73 11.85 17.74C11.9 17.75 11.95 17.75 12 17.75L15 17.75C15.05 17.75 15.1 17.75 15.15 17.74C15.19 17.73 15.24 17.71 15.29 17.69C15.33 17.67 15.38 17.65 15.42 17.62C15.46 17.6 15.5 17.57 15.53 17.53C15.57 17.5 15.6 17.46 15.62 17.42C15.65 17.38 15.67 17.33 15.69 17.29C15.71 17.24 15.73 17.19 15.74 17.15C15.75 17.1 15.75 17.05 15.75 17C15.75 16.95 15.75 16.9 15.74 16.85C15.73 16.81 15.71 16.76 15.69 16.71C15.67 16.67 15.65 16.62 15.62 16.58C15.6 16.54 15.57 16.5 15.53 16.47C15.5 16.43 15.46 16.4 15.42 16.38C15.38 16.35 15.33 16.33 15.29 16.31C15.24 16.29 15.19 16.27 15.15 16.26C15.1 16.25 15.05 16.25 15 16.25L12 16.25Z">
      </path>
      <path id="直线 1 (轮廓)" fill-rule="evenodd" style="fill:#131926" opacity="1"
        d="M7 17.25C6.95 17.25 6.9 17.25 6.85 17.26C6.81 17.27 6.76 17.29 6.71 17.31C6.67 17.33 6.62 17.35 6.58 17.38C6.54 17.4 6.5 17.43 6.47 17.47C6.43 17.5 6.4 17.54 6.38 17.58C6.35 17.62 6.33 17.67 6.31 17.71C6.29 17.76 6.27 17.81 6.26 17.85C6.25 17.9 6.25 17.95 6.25 18C6.25 18.05 6.25 18.1 6.26 18.15C6.27 18.19 6.29 18.24 6.31 18.29C6.33 18.33 6.35 18.38 6.38 18.42C6.4 18.46 6.43 18.5 6.47 18.53C6.5 18.57 6.54 18.6 6.58 18.62C6.62 18.65 6.67 18.67 6.71 18.69C6.76 18.71 6.81 18.73 6.85 18.74C6.9 18.75 6.95 18.75 7 18.75L9 18.75C9.05 18.75 9.1 18.75 9.15 18.74C9.19 18.73 9.24 18.71 9.29 18.69C9.33 18.67 9.38 18.65 9.42 18.62C9.46 18.6 9.5 18.57 9.53 18.53C9.57 18.5 9.6 18.46 9.62 18.42C9.65 18.38 9.67 18.33 9.69 18.29C9.71 18.24 9.73 18.19 9.74 18.15C9.75 18.1 9.75 18.05 9.75 18C9.75 17.95 9.75 17.9 9.74 17.85C9.73 17.81 9.71 17.76 9.69 17.71C9.67 17.67 9.65 17.62 9.62 17.58C9.6 17.54 9.57 17.5 9.53 17.47C9.5 17.43 9.46 17.4 9.42 17.38C9.38 17.35 9.33 17.33 9.29 17.31C9.24 17.29 9.19 17.27 9.15 17.26C9.1 17.25 9.05 17.25 9 17.25L7 17.25Z">
      </path>
    </g>
  </g>
  <defs>
    <rect id="path_0" x="0" y="0" width="30" height="30" />
  </defs>
</svg>