<svg xmlns="http://www.w3.org/2000/svg" xmlns:xlink="http://www.w3.org/1999/xlink" width="136.9736328125" height="26.094512939453125" viewBox="0 0 136.9736328125 26.094512939453125" fill="none"><g opacity="1"  transform="translate(0 0)  rotate(0)"><path id="路径 1" fill-rule="evenodd" style="fill:#495AD4" opacity="1" d="M0 1.83L0 25.27C0 25.42 0.12 25.56 0.290001 25.56L4.41001 25.56C4.55001 25.56 4.70001 25.45 4.70001 25.27L4.70001 13.29C4.70001 13.23 4.73001 13.14 4.79001 13.08C6.10002 11.82 7.04002 11.15 8.47003 11.15C10.25 11.15 11.01 12.14 11.01 14.93L11.01 25.3C11.01 25.45 11.12 25.59 11.3 25.59L15.44 25.59C15.59 25.59 15.73 25.47 15.73 25.3L15.73 14.34C15.73 9.77 14.07 7.08 10.19 7.08C8.03002 7.08 6.54002 8.1 5.23002 9.27C5.02002 9.45 4.73001 9.33 4.73001 9.07L4.73001 6.34L4.73001 0.28C4.73001 0.07 4.52001 -0.04 4.32001 0.02L0.200001 1.54C0.0900003 1.6 0 1.69 0 1.83Z"></path><path id="路径 2" fill-rule="evenodd" style="fill:#495AD4" opacity="1" d="M28.8716 23.7145C30.6216 25.1245 33.1916 26.0945 35.5016 26.0945C40.2016 26.0945 42.6816 23.5445 42.6816 20.3745C42.6816 17.0345 40.0216 15.8345 37.6616 14.9245C35.7616 14.2245 33.9816 13.7245 33.9816 12.4045C33.9816 11.3845 34.7416 10.6845 36.3416 10.6845C37.6016 10.6845 38.8016 11.2345 39.9916 12.0545C40.1416 12.1445 40.3116 12.1145 40.4016 11.9945L42.1816 9.59449C42.2716 9.47449 42.2716 9.27449 42.1216 9.18449C40.6416 8.13449 38.7416 7.13449 36.2316 7.13449C32.1716 7.13449 29.5416 9.42449 29.5416 12.6745C29.5416 15.6645 32.1716 17.0345 34.4516 17.9145C36.3416 18.6445 38.2116 19.2645 38.2116 20.6145C38.2116 21.7545 37.4216 22.5145 35.6116 22.5145C34.0416 22.5145 32.5516 21.8745 31.0316 20.7245C30.9116 20.6445 30.7116 20.6445 30.6216 20.7845L28.8116 23.2745C28.7016 23.3945 28.7216 23.5745 28.8716 23.7145Z"></path><path id="路径 3" fill-rule="evenodd" style="fill:#495AD4" opacity="1" d="M52.1135 26.031C53.5435 26.031 54.7035 25.741 55.6435 25.441C55.7835 25.391 55.8735 25.241 55.8435 25.091L55.2035 22.221C55.1735 22.051 55.0035 21.961 54.8235 22.021C54.3835 22.161 53.8335 22.281 53.3635 22.281C51.7635 22.281 50.9134 21.311 50.9134 19.261L50.9134 11.561C50.9134 11.411 51.0334 11.261 51.2034 11.261L55.0535 11.261C55.2035 11.261 55.3535 11.151 55.3535 10.971L55.3535 7.811C55.3535 7.661 55.2335 7.511 55.0535 7.511L51.2034 7.511C51.0634 7.511 50.9134 7.401 50.9134 7.221L50.9134 3.12099C50.9134 2.91099 50.7034 2.77099 50.5034 2.86099L46.5634 4.41099C46.4734 4.44099 46.3834 4.56099 46.3834 4.67099L46.3834 7.251C46.3834 7.401 46.2734 7.541 46.0934 7.541L43.9334 7.541C43.7934 7.541 43.6434 7.661 43.6434 7.841L43.6434 10.971C43.6434 11.121 43.7634 11.261 43.9334 11.261L45.8934 11.261C46.0334 11.261 46.1834 11.381 46.1834 11.561L46.1834 19.261C46.1834 23.341 47.8134 26.061 52.1135 26.031Z"></path><path id="路径 4" fill-rule="evenodd" style="fill:#495AD4" opacity="1" d="M57.2769,16.5959c0,-6.03 4.15,-9.52003 8.64,-9.52003c4.5,0 8.64,3.49003 8.64,9.52003c0,5.98 -4.14,9.47 -8.64,9.47c-4.49,0 -8.64,-3.49 -8.64,-9.47zM65.9169,10.9459c-2.45,0 -3.82,2.22 -3.82,5.65c0,3.4 1.37,5.57 3.82,5.57c2.45,0 3.83,-2.17 3.83,-5.57c0,-3.43 -1.38,-5.65 -3.83,-5.65z"></path><path id="路径 5" fill-rule="evenodd" style="fill:#495AD4" opacity="1" d="M78.5293 7.83519L78.5293 25.3552C78.5293 25.5052 78.6493 25.6552 78.8193 25.6552L82.8793 25.6552C83.0293 25.6552 83.1693 25.5352 83.1693 25.3552L83.1693 14.9252C83.1693 14.8952 83.1993 14.8352 83.1993 14.8152C84.2193 12.2352 85.9193 11.3252 87.3193 11.3252C87.9593 11.3252 88.3993 11.3852 88.8893 11.5252C89.0693 11.5552 89.2393 11.4752 89.2693 11.2952L89.9994 7.74519C90.0294 7.60519 89.9693 7.45519 89.8293 7.39519C89.3293 7.22519 88.7793 7.10519 87.9293 7.10519C86.0593 7.10519 84.1393 8.39519 82.8193 10.7352L82.6993 10.7352L82.6993 7.83519C82.6993 7.69519 82.5893 7.54519 82.4093 7.54519L78.8193 7.54519C78.6493 7.54519 78.5293 7.66519 78.5293 7.83519Z"></path><path id="路径 6" fill-rule="evenodd" style="fill:#495AD4" opacity="1" d="M101.417,20.6959c0,-3.81 3.04,-5.86 10.069,-6.65c0.15,-0.03 0.26,-0.17 0.26,-0.32c-0.14,-1.64 -0.93,-2.84 -3.03,-2.84c-1.58,0 -3.129,0.67 -4.699,1.55c-0.15,0.09 -0.32,0.03 -0.41,-0.12l-1.43,-2.60003c-0.09,-0.15 -0.03,-0.33 0.12,-0.41c2.07,-1.26 4.55,-2.23 7.26,-2.23c4.56,0 6.919,2.75 6.919,7.97003v10.25c0,0.18 -0.14,0.3 -0.29,0.3h-3.62c-0.17,0 -0.29,-0.15 -0.29,-0.3v-1.64h-0.089c-1.57,1.35 -3.38,2.38 -5.43,2.38c-3.24,0.03 -5.34,-2.29 -5.34,-5.34zM111.746,17.2759c0,-0.18 -0.17,-0.33 -0.35,-0.3c-4.11,0.59 -5.509,1.76 -5.509,3.34c0,1.41 0.99,2.02 2.359,2.02c1.311,0 2.311,-0.61 3.39,-1.7c0.091,-0.05 0.11,-0.11 0.11,-0.2z"></path><path id="路径 7" fill-rule="evenodd" style="fill:#495AD4" opacity="1" d="M121.239 7.83587L121.239 25.2659C121.239 25.4159 121.359 25.5659 121.529 25.5659L125.649 25.5659C125.789 25.5659 125.939 25.4459 125.939 25.2659L125.939 13.2859C125.939 13.2259 125.969 13.1359 126.029 13.0859C127.339 11.8259 128.279 11.1459 129.709 11.1459C131.489 11.1459 132.249 12.1459 132.249 14.9259L132.249 25.2959C132.249 25.4459 132.359 25.5959 132.539 25.5959L136.679 25.5959C136.829 25.5959 136.969 25.4759 136.969 25.2959L136.969 14.3459C136.969 9.77586 135.309 7.07587 131.429 7.07587C129.009 7.07587 127.169 8.36587 125.589 9.91586L125.469 9.91586L125.469 7.83587C125.469 7.69587 125.359 7.54587 125.179 7.54587L121.589 7.54587C121.439 7.54587 121.299 7.66587 121.239 7.83587Z"></path><path id="路径 8" fill-rule="evenodd" style="fill:#495AD4" opacity="1" d="M92.6586 7.83465L92.6586 25.2947C92.6586 25.4447 92.7786 25.5947 92.9486 25.5947L97.0686 25.5947C97.2086 25.5947 97.3586 25.4747 97.3586 25.2947L97.3586 7.83465C97.3586 7.69465 97.2386 7.54465 97.0686 7.54465L92.9486 7.54465C92.8086 7.54465 92.6586 7.66465 92.6586 7.83465Z"></path><path id="路径 9" fill-rule="evenodd" style="fill:#495AD4" opacity="1" d="M92.6586 2.15696L92.6586 4.37696C92.6586 4.52696 92.7786 4.67696 92.9486 4.67696L97.0686 4.67696C97.2086 4.67696 97.3586 4.55696 97.3586 4.37696L97.3586 0.366965C97.3586 0.156965 97.1586 0.0169654 96.9486 0.106965L92.8386 1.88696C92.7486 1.94696 92.6586 2.03696 92.6586 2.15696Z"></path><path id="路径 10" fill-rule="evenodd" style="fill:#495AD4" opacity="1" d="M20.5518 7.83465L20.5518 25.2947C20.5518 25.4447 20.6718 25.5947 20.8418 25.5947L24.9618 25.5947C25.1018 25.5947 25.2518 25.4747 25.2518 25.2947L25.2518 7.83465C25.2518 7.69465 25.1318 7.54465 24.9618 7.54465L20.8418 7.54465C20.7018 7.54465 20.5518 7.66465 20.5518 7.83465Z"></path><path id="路径 11" fill-rule="evenodd" style="fill:#495AD4" opacity="1" d="M20.5518 2.15696L20.5518 4.37696C20.5518 4.52696 20.6718 4.67696 20.8418 4.67696L24.9618 4.67696C25.1018 4.67696 25.2518 4.55696 25.2518 4.37696L25.2518 0.366965C25.2518 0.156965 25.0518 0.0169654 24.8418 0.106965L20.7318 1.88696C20.6418 1.94696 20.5518 2.03696 20.5518 2.15696Z"></path></g></svg>