<svg xmlns="http://www.w3.org/2000/svg" xmlns:xlink="http://www.w3.org/1999/xlink" width="36.530046463012695" height="30.00140380859375" viewBox="0 0 36.530046463012695 30.00140380859375" fill="none"><g opacity="1"  transform="translate(0 0)  rotate(0)"><path id="路径 1" fill-rule="evenodd" style="fill:#E8CA99" opacity="1" d="M17.2222 0C17.0422 0 16.9022 0.14 16.9022 0.319999L16.9022 3.80999C16.9022 3.98999 17.0422 4.12999 17.2222 4.12999L20.7022 4.12999C20.8722 4.12999 21.0222 3.98999 21.0222 3.80999L21.0222 0.319999C21.0222 0.179999 20.8722 0 20.6622 0L17.2222 0Z"></path><path id="路径 2" fill-rule="evenodd" style="fill:#495AD4" opacity="1" d="M1.36,29.5381c-0.36,0.14 -0.75,0.29 -0.93,0.43c-0.22,0.11 -0.43,-0.07 -0.43,-0.29v-21.08995c0,-0.18 0.14,-0.32 0.32,-0.32h6.02001c0.18,0 0.32,-0.15 0.32,-0.33v-3.45c0,-0.18 0.14,-0.32 0.32,-0.32h4.79999c0.18,0 0.32,0.14 0.32,0.32v3.42c0,0.18 0.15,0.32 0.33,0.32h4.22c0.18,0 0.32,0.14 0.32,0.32v10.41995c0,0.22 0.18,0.36 0.4,0.33l3.47,-0.86c0.14,-0.04 0.25,-0.18 0.25,-0.33v-9.51995c0,-0.18 0.15,-0.32 0.32,-0.32h3.48c0.18,0 0.32,-0.15 0.32,-0.33v-3.45c0,-0.18 0.14,-0.32 0.32,-0.32h2.69c0.18,0 0.32,0.14 0.32,0.32v3.42c0,0.18 0.14,0.32 0.32,0.32h2.76c0.18,0 0.32,-0.14 0.32,-0.32v-0.72c0,-0.18 0.15,-0.33 0.32,-0.33h1.26c0.18,0 0.32,0.15 0.32,0.33v0.72c0,0.18 0.14,0.32 0.32,0.32h2.04c0.1801,0 0.33,0.14 0.33,0.32v8.47995c0,0.15 -0.11,0.29 -0.25,0.33c-1.26,0.32 -2.62,0.72 -3.94,1.11c-10.6,3.06 -20.95,6.79 -30.98,11.07zM32.3,15.7781l1.22,-0.26c0.14,-0.03 0.25,-0.17 0.25,-0.32v-5.99995c0,-0.18 -0.14,-0.32 -0.32,-0.32h-1.22c-0.18,0 -0.32,0.14 -0.32,0.32v6.21995c0,0.25 0.25,0.39 0.39,0.36zM25.53,17.2481l2.8,-0.61c0.14,-0.04 0.25,-0.18 0.25,-0.32v-7.11995c0,-0.18 -0.15,-0.32 -0.33,-0.32h-2.79c-0.18,0 -0.32,0.14 -0.32,0.32v7.72995c0,0.21 0.18,0.36 0.39,0.32zM7.09001,22.0581l4.82999,-1.33c0.11,-0.07 0.22,-0.17 0.22,-0.32v-11.20995c0,-0.18 -0.14,-0.32 -0.32,-0.32h-4.79999c-0.18,0 -0.32,0.14 -0.32,0.32v12.53995c0,0.18 0.25,0.36 0.39,0.32z"></path></g></svg>