<svg xmlns="http://www.w3.org/2000/svg" xmlns:xlink="http://www.w3.org/1999/xlink" width="28"
  height="22.998382568359375" viewBox="0 0 28 22.998382568359375" fill="none">
  <g opacity="1" transform="translate(0 0)  rotate(0)">
    <path id="路径 1" fill-rule="evenodd" style="fill:#E8CA99" opacity="1"
      d="M13.2068 0C13.0668 0 12.9568 0.11 12.9568 0.25L12.9568 2.92C12.9568 3.06 13.0668 3.17 13.2068 3.17L15.8668 3.17C16.0068 3.17 16.1168 3.06 16.1168 2.92L16.1168 0.25C16.1168 0.14 16.0068 0 15.8368 0L13.2068 0Z">
    </path>
    <path id="路径 2" fill-rule="evenodd" style="fill:#FFFFFF" opacity="1"
      d="M1.04,22.6452c-0.27,0.11 -0.57,0.22 -0.71,0.33c-0.17,0.08 -0.33,-0.06 -0.33,-0.22v-16.17001c0,-0.14 0.11,-0.25 0.25,-0.25h4.61c0.14,0 0.25,-0.11 0.25,-0.25v-2.64c0,-0.14 0.11,-0.25 0.24,-0.25h3.68c0.14,0 0.25,0.11 0.25,0.25v2.61c0,0.14 0.11,0.25 0.25,0.25h3.23c0.14,0 0.25,0.11 0.25,0.25v7.99001c0,0.16 0.14,0.27 0.3,0.25l2.67,-0.66c0.11,-0.03 0.19,-0.14 0.19,-0.25v-7.30001c0,-0.14 0.11,-0.25 0.25,-0.25h2.66c0.14,0 0.25,-0.11 0.25,-0.25v-2.64c0,-0.14 0.11,-0.25 0.24,-0.25h2.06c0.14,0 0.25,0.11 0.25,0.25v2.61c0,0.14 0.11,0.25 0.25,0.25h2.11c0.14,0 0.25,-0.11 0.25,-0.25v-0.55c0,-0.13 0.11,-0.24 0.24,-0.24h0.96c0.14,0 0.25,0.11 0.25,0.24v0.55c0,0.14 0.11,0.25 0.25,0.25h1.56c0.14,0 0.25,0.11 0.25,0.25v6.50001c0,0.11 -0.08,0.22 -0.19,0.25c-0.96,0.25 -2.01,0.55 -3.02,0.85c-8.13,2.34 -16.06,5.21 -23.75,8.49zM24.76,12.0952l0.93,-0.2c0.11,-0.02 0.2,-0.13 0.2,-0.24v-4.60001c0,-0.14 -0.11,-0.25 -0.25,-0.25h-0.93c-0.14,0 -0.25,0.11 -0.25,0.25v4.76001c0,0.19 0.19,0.3 0.3,0.28zM19.57,13.2252l2.14,-0.47c0.11,-0.03 0.2,-0.14 0.2,-0.25v-5.45001c0,-0.14 -0.11,-0.25 -0.25,-0.25h-2.14c-0.14,0 -0.25,0.11 -0.25,0.25v5.92001c0,0.16 0.14,0.27 0.3,0.25zM5.44,16.9152l3.7,-1.02c0.08,-0.06 0.17,-0.14 0.17,-0.25v-8.59001c0,-0.14 -0.11,-0.25 -0.25,-0.25h-3.68c-0.14,0 -0.25,0.11 -0.25,0.25v9.61001c0,0.14 0.2,0.27 0.31,0.25z">
    </path>
  </g>
</svg>