<svg xmlns="http://www.w3.org/2000/svg" xmlns:xlink="http://www.w3.org/1999/xlink" width="30" height="30"
  viewBox="0 0 30 30" fill="none">
  <g opacity="1" transform="translate(0 0)  rotate(0)">
    <mask id="bg-mask-0" fill="white">
      <use transform="translate(0 0)  rotate(0)" xlink:href="#path_0"></use>
    </mask>
    <g mask="url(#bg-mask-0)">
      <path id="多边形 1 (轮廓)" fill-rule="evenodd" style="fill:#495AD4" opacity="1"
        d="M13.165,11.075l3.6603,-0.0002c0.067,-0.004 0.1303,0.0056 0.1986,0.0239c0.0683,0.0183 0.1279,0.0416 0.1789,0.0699c0.056,0.037 0.112,0.0739 0.1556,0.1296c0.0473,0.0419 0.086,0.0889 0.121,0.1495l1.835,3.1783c0.035,0.0607 0.0563,0.1176 0.069,0.1796c0.0264,0.0656 0.0304,0.1326 0.0344,0.1995c-0.001,0.0583 -0.0106,0.1216 -0.0289,0.1899c-0.0183,0.0683 -0.0416,0.128 -0.0786,0.1839l-1.8303,3.1699c-0.0283,0.051 -0.0652,0.1069 -0.1209,0.1506c-0.0419,0.0473 -0.0889,0.086 -0.1495,0.121c-0.0606,0.035 -0.1176,0.0563 -0.1796,0.069c-0.0656,0.0263 -0.1325,0.0304 -0.1908,0.0294l-3.669,0.0051c-0.067,0.0041 -0.1303,-0.0056 -0.1986,-0.0239c-0.0683,-0.0183 -0.1279,-0.0416 -0.1789,-0.0699c-0.056,-0.0369 -0.1119,-0.0739 -0.1556,-0.1295c-0.0473,-0.042 -0.086,-0.089 -0.121,-0.1496l-1.835,-3.1783c-0.035,-0.0606 -0.0563,-0.1176 -0.069,-0.1795c-0.0263,-0.0657 -0.0304,-0.1326 -0.0344,-0.1996c0.001,-0.0583 0.0106,-0.1216 0.0289,-0.1899c0.0183,-0.0683 0.0416,-0.1279 0.0786,-0.1839l1.839,-3.1748c0.0283,-0.051 0.0652,-0.107 0.1208,-0.1507c0.042,-0.0473 0.089,-0.0859 0.1496,-0.1209c0.0606,-0.035 0.1176,-0.0564 0.1795,-0.0691c0.0657,-0.0263 0.1326,-0.0303 0.1909,-0.0293zM12.1952,14.9951l1.405,2.4335l2.7994,-0.0112l1.4008,-2.4138l-1.405,-2.4335l-2.7908,0.0062z">
      </path>
      <path id="多边形 1" fill-rule="evenodd" style="fill:#131926" opacity="1"
        d="M13.6683 14.8024C13.5994 14.9231 13.5951 15.0756 13.6651 15.1969L14.1601 16.0543C14.2301 16.1755 14.3644 16.2481 14.5033 16.2487L15.4844 16.2481C15.6233 16.2487 15.7619 16.1687 15.8308 16.0481L16.3306 15.1937C16.3995 15.0731 16.4038 14.9205 16.3338 14.7993L15.8388 13.9419C15.7688 13.8206 15.6345 13.7481 15.4956 13.7474L14.5058 13.7531C14.3669 13.7525 14.2283 13.8325 14.1594 13.9531L13.6683 14.8024Z">
      </path>
      <path id="圆形 1 (轮廓)" fill-rule="evenodd" style="fill:#131926" opacity="1"
        d="M17.4008 5.76118C17.3008 5.79118 17.2108 5.83118 17.1308 5.89118C17.0508 5.95118 16.9908 6.02118 16.9408 6.10118C16.8908 6.19118 16.8508 6.28118 16.8408 6.38118C16.8208 6.48118 16.8308 6.58118 16.8508 6.67118C16.8808 6.77118 16.9208 6.86118 16.9808 6.94118C17.0408 7.02118 17.1108 7.08118 17.1908 7.13118C17.2508 7.17118 17.3108 7.19118 17.3708 7.21118L17.3708 7.21118C17.5908 7.27118 17.8408 7.36118 18.1108 7.47118C19.1208 7.89118 19.9908 8.48118 20.7508 9.24118C21.5208 10.0112 22.1108 10.8912 22.5208 11.8912C22.6108 12.1012 22.6908 12.3312 22.7808 12.6012C22.7808 12.6112 22.7908 12.6212 22.7908 12.6412C22.8008 12.6812 22.8208 12.7312 22.8508 12.7712C22.8708 12.8112 22.9008 12.8612 22.9308 12.8912C22.9608 12.9312 22.9908 12.9712 23.0308 13.0012C23.0708 13.0312 23.1108 13.0612 23.1508 13.0812C23.2008 13.1012 23.2408 13.1212 23.2908 13.1412C23.3408 13.1512 23.3808 13.1612 23.4308 13.1612C23.4808 13.1712 23.5308 13.1712 23.5808 13.1612C23.6308 13.1612 23.6808 13.1512 23.7208 13.1412C23.7708 13.1212 23.8208 13.1012 23.8608 13.0812C23.9008 13.0612 23.9408 13.0312 23.9808 13.0012C24.0208 12.9712 24.0608 12.9312 24.0908 12.8912C24.1208 12.8612 24.1508 12.8212 24.1708 12.7712C24.1908 12.7312 24.2108 12.6812 24.2308 12.6412C24.2408 12.5912 24.2508 12.5412 24.2508 12.4912C24.2608 12.4412 24.2608 12.3912 24.2508 12.3412C24.2508 12.3012 24.2408 12.2512 24.2308 12.2012C24.2208 12.2012 24.2208 12.1912 24.2208 12.1912L24.2208 12.1912C24.1208 11.8612 24.0108 11.5712 23.9008 11.3112C23.4108 10.1312 22.7208 9.09118 21.8108 8.18118C20.9208 7.28118 19.8808 6.58118 18.6908 6.09118C18.3508 5.95118 18.0508 5.85118 17.7908 5.77118C17.6608 5.73118 17.5308 5.73118 17.4008 5.76118Z">
      </path>
      <path id="圆形 1 (轮廓)" fill-rule="evenodd" style="fill:#131926" opacity="1"
        d="M23.5808 16.831C23.5308 16.831 23.4808 16.831 23.4308 16.831C23.3808 16.841 23.3408 16.851 23.2908 16.861C23.2408 16.881 23.2008 16.901 23.1508 16.921C23.1108 16.941 23.0708 16.971 23.0308 17.001C22.9908 17.031 22.9608 17.071 22.9308 17.101C22.9008 17.141 22.8708 17.181 22.8508 17.231C22.8208 17.271 22.8008 17.321 22.7908 17.361C22.7908 17.381 22.7808 17.391 22.7808 17.411C22.7008 17.641 22.6208 17.871 22.5208 18.111C22.1008 19.121 21.5108 20.001 20.7508 20.751C19.9908 21.521 19.1208 22.101 18.1208 22.521C17.8708 22.621 17.6408 22.701 17.4108 22.781C17.3308 22.801 17.2608 22.821 17.1908 22.861C17.1108 22.921 17.0408 22.981 16.9808 23.061C16.9208 23.141 16.8808 23.231 16.8508 23.331C16.8308 23.421 16.8208 23.521 16.8408 23.621C16.8508 23.721 16.8908 23.811 16.9408 23.891C16.9908 23.981 17.0508 24.051 17.1308 24.111C17.2108 24.171 17.3008 24.211 17.4008 24.231C17.5408 24.271 17.6708 24.271 17.8108 24.221L17.8108 24.221C18.0908 24.131 18.3808 24.031 18.6808 23.901C19.8708 23.411 20.9208 22.711 21.8108 21.811C22.7208 20.921 23.4108 19.881 23.9008 18.691C24.0308 18.381 24.1308 18.091 24.2208 17.811L24.2208 17.811C24.2208 17.801 24.2208 17.801 24.2308 17.801C24.2408 17.751 24.2508 17.701 24.2508 17.651C24.2608 17.601 24.2608 17.561 24.2508 17.511C24.2508 17.461 24.2408 17.411 24.2308 17.361C24.2108 17.311 24.1908 17.271 24.1708 17.231C24.1508 17.181 24.1208 17.141 24.0908 17.101C24.0608 17.071 24.0208 17.031 23.9808 17.001C23.9408 16.971 23.9008 16.941 23.8608 16.921C23.8208 16.901 23.7708 16.881 23.7208 16.861C23.6808 16.851 23.6308 16.841 23.5808 16.831Z">
      </path>
      <path id="圆形 1 (轮廓)" fill-rule="evenodd" style="fill:#131926" opacity="1"
        d="M7.2117 17.371C7.2117 17.371 7.2117 17.371 7.2117 17.361C7.1917 17.321 7.1717 17.271 7.1517 17.231C7.1317 17.181 7.1017 17.141 7.0717 17.101C7.0417 17.071 7.0017 17.031 6.9717 17.001C6.9317 16.971 6.8917 16.941 6.8417 16.921C6.8017 16.901 6.7617 16.881 6.7117 16.861C6.6617 16.851 6.6117 16.841 6.5617 16.831C6.5117 16.831 6.4717 16.831 6.4217 16.831C6.3717 16.841 6.3217 16.851 6.2717 16.861C6.2317 16.881 6.1817 16.891 6.1417 16.921C6.0917 16.941 6.0517 16.971 6.0217 17.001C5.9817 17.031 5.9417 17.061 5.9117 17.101C5.8817 17.141 5.8517 17.181 5.8317 17.221C5.8117 17.261 5.7917 17.311 5.7717 17.351C5.7617 17.401 5.7517 17.451 5.7417 17.501C5.7417 17.551 5.7417 17.591 5.7417 17.641C5.7517 17.691 5.7617 17.741 5.7717 17.791C5.8517 18.051 5.9517 18.351 6.0917 18.681C6.5817 19.871 7.2817 20.921 8.1817 21.811C9.0917 22.721 10.1317 23.421 11.3117 23.901C11.5717 24.011 11.8617 24.121 12.1917 24.221L12.1917 24.221C12.2317 24.241 12.2717 24.241 12.3117 24.251C12.3517 24.261 12.4017 24.261 12.4417 24.261C12.4817 24.261 12.5217 24.251 12.5617 24.241C12.6017 24.241 12.6417 24.221 12.6817 24.211C12.7217 24.191 12.7617 24.181 12.8017 24.151C12.8317 24.131 12.8717 24.111 12.9017 24.081C12.9317 24.061 12.9617 24.031 12.9917 23.991C13.0117 23.961 13.0417 23.931 13.0617 23.891C13.0917 23.851 13.1117 23.811 13.1217 23.761C13.1417 23.711 13.1517 23.671 13.1617 23.621C13.1717 23.571 13.1717 23.521 13.1717 23.471C13.1617 23.421 13.1617 23.371 13.1417 23.331C13.1317 23.281 13.1217 23.231 13.1017 23.191C13.0717 23.141 13.0517 23.101 13.0217 23.061C12.9917 23.021 12.9617 22.991 12.9217 22.951C12.8817 22.921 12.8517 22.891 12.8017 22.861C12.7417 22.831 12.6717 22.801 12.6017 22.781C12.3317 22.691 12.1017 22.611 11.8917 22.521C10.8917 22.101 10.0117 21.511 9.2417 20.751C8.4717 19.991 7.8917 19.121 7.4717 18.121C7.3617 17.841 7.2717 17.591 7.2117 17.371L7.2117 17.371Z">
      </path>
      <path id="圆形 1 (轮廓)" fill-rule="evenodd" style="fill:#131926" opacity="1"
        d="M12.6317 7.21155C12.6817 7.19155 12.7317 7.17155 12.7717 7.15155C12.8117 7.13155 12.8517 7.10155 12.8917 7.07155C12.9317 7.04155 12.9717 7.00155 13.0017 6.97155C13.0317 6.93155 13.0617 6.89155 13.0817 6.84155C13.1017 6.80155 13.1217 6.76155 13.1317 6.71155C13.1517 6.66155 13.1617 6.61155 13.1617 6.56155C13.1717 6.51155 13.1717 6.47155 13.1617 6.42155C13.1617 6.37155 13.1517 6.32155 13.1417 6.27155C13.1117 6.18155 13.0617 6.09155 13.0017 6.01155C12.9317 5.94155 12.8617 5.88155 12.7717 5.83155C12.6817 5.78155 12.5917 5.75155 12.4917 5.74155C12.3917 5.73155 12.3017 5.74155 12.2017 5.77155C12.1917 5.77155 12.1917 5.78155 12.1817 5.78155C11.8817 5.86155 11.6017 5.97155 11.3117 6.09155C10.1317 6.57155 9.0917 7.27155 8.1817 8.18155C7.2717 9.09155 6.5817 10.1315 6.0917 11.3115C5.9717 11.5915 5.8617 11.8815 5.7817 12.1815C5.7817 12.1915 5.7717 12.1915 5.7717 12.2015C5.7617 12.2515 5.7517 12.3015 5.7417 12.3415C5.7417 12.3915 5.7417 12.4415 5.7417 12.4915C5.7517 12.5415 5.7617 12.5915 5.7717 12.6415C5.7917 12.6815 5.8117 12.7315 5.8317 12.7715C5.8517 12.8115 5.8817 12.8615 5.9117 12.8915C5.9417 12.9315 5.9817 12.9715 6.0117 13.0015C6.0517 13.0315 6.0917 13.0615 6.1417 13.0815C6.1817 13.1015 6.2317 13.1215 6.2717 13.1415C6.3717 13.1615 6.4617 13.1715 6.5617 13.1615C6.6617 13.1515 6.7617 13.1315 6.8417 13.0815C6.9317 13.0315 7.0117 12.9715 7.0717 12.8915C7.1317 12.8215 7.1817 12.7315 7.2117 12.6315C7.2117 12.6315 7.2117 12.6315 7.2117 12.6315L7.2117 12.6315C7.2817 12.3815 7.3717 12.1315 7.4717 11.8915C7.8817 10.8915 8.4717 10.0115 9.2417 9.24155C10.0117 8.47155 10.8917 7.89155 11.8917 7.47155C12.1317 7.37155 12.3817 7.28155 12.6317 7.21155L12.6317 7.21155C12.6317 7.21155 12.6317 7.21155 12.6317 7.21155Z">
      </path>
      <path id="直线 1 (轮廓)" fill-rule="evenodd" style="fill:#131926" opacity="1"
        d="M14.25 25C14.25 25.05 14.25 25.1 14.26 25.15C14.27 25.19 14.29 25.24 14.31 25.29C14.33 25.33 14.35 25.38 14.38 25.42C14.4 25.46 14.43 25.5 14.47 25.53C14.5 25.57 14.54 25.6 14.58 25.62C14.62 25.65 14.67 25.67 14.71 25.69C14.76 25.71 14.81 25.73 14.85 25.74C14.9 25.75 14.95 25.75 15 25.75C15.05 25.75 15.1 25.75 15.15 25.74C15.19 25.73 15.24 25.71 15.29 25.69C15.33 25.67 15.38 25.65 15.42 25.62C15.46 25.6 15.5 25.57 15.53 25.53C15.57 25.5 15.6 25.46 15.62 25.42C15.65 25.38 15.67 25.33 15.69 25.29C15.71 25.24 15.73 25.19 15.74 25.15C15.75 25.1 15.75 25.05 15.75 25L15.75 21.67C15.75 21.62 15.75 21.57 15.74 21.52C15.73 21.47 15.71 21.43 15.69 21.38C15.67 21.33 15.65 21.29 15.62 21.25C15.6 21.21 15.57 21.17 15.53 21.14C15.5 21.1 15.46 21.07 15.42 21.04C15.38 21.02 15.33 20.99 15.29 20.97C15.24 20.95 15.19 20.94 15.15 20.93C15.1 20.92 15.05 20.92 15 20.92C14.95 20.92 14.9 20.92 14.85 20.93C14.81 20.94 14.76 20.95 14.71 20.97C14.67 20.99 14.62 21.02 14.58 21.04C14.54 21.07 14.5 21.1 14.47 21.14C14.43 21.17 14.4 21.21 14.38 21.25C14.35 21.29 14.33 21.33 14.31 21.38C14.29 21.43 14.27 21.47 14.26 21.52C14.25 21.57 14.25 21.62 14.25 21.67L14.25 25Z">
      </path>
      <path id="直线 1 (轮廓)" fill-rule="evenodd" style="fill:#131926" opacity="1"
        d="M14.25 8.33334C14.25 8.38334 14.25 8.43334 14.26 8.48334C14.27 8.52334 14.29 8.57334 14.31 8.62334C14.33 8.66334 14.35 8.71334 14.38 8.75334C14.4 8.79334 14.43 8.83334 14.47 8.86334C14.5 8.90334 14.54 8.93334 14.58 8.95334C14.62 8.98334 14.67 9.00334 14.71 9.02334C14.76 9.04334 14.81 9.06334 14.85 9.07334C14.9 9.08334 14.95 9.08334 15 9.08334C15.05 9.08334 15.1 9.08334 15.15 9.07334C15.19 9.06334 15.24 9.04334 15.29 9.02334C15.33 9.00334 15.38 8.98334 15.42 8.95334C15.46 8.93334 15.5 8.90334 15.53 8.86334C15.57 8.83334 15.6 8.79334 15.62 8.75334C15.65 8.71334 15.67 8.66334 15.69 8.62334C15.71 8.57334 15.73 8.52334 15.74 8.48334C15.75 8.43334 15.75 8.38334 15.75 8.33334L15.75 5.00334C15.75 4.95334 15.75 4.90334 15.74 4.85334C15.73 4.80334 15.71 4.76334 15.69 4.71334C15.67 4.66334 15.65 4.62334 15.62 4.58334C15.6 4.54334 15.57 4.50334 15.53 4.47334C15.5 4.43334 15.46 4.40334 15.42 4.37334C15.38 4.35334 15.33 4.32334 15.29 4.30334C15.24 4.28334 15.19 4.27334 15.15 4.26334C15.1 4.25334 15.05 4.25334 15 4.25334C14.95 4.25334 14.9 4.25334 14.85 4.26334C14.81 4.27334 14.76 4.28334 14.71 4.30334C14.67 4.32334 14.62 4.35334 14.58 4.37334C14.54 4.40334 14.5 4.43334 14.47 4.47334C14.43 4.50334 14.4 4.54334 14.38 4.58334C14.35 4.62334 14.33 4.66334 14.31 4.71334C14.29 4.76334 14.27 4.80334 14.26 4.85334C14.25 4.90334 14.25 4.95334 14.25 5.00334L14.25 8.33334Z">
      </path>
      <path id="直线 1 (轮廓)" fill-rule="evenodd" style="fill:#131926" opacity="1"
        d="M25 15.75C25.05 15.75 25.1 15.75 25.15 15.74C25.19 15.73 25.24 15.71 25.29 15.69C25.33 15.67 25.38 15.65 25.42 15.62C25.46 15.6 25.5 15.57 25.53 15.53C25.57 15.5 25.6 15.46 25.62 15.42C25.65 15.38 25.67 15.33 25.69 15.29C25.71 15.24 25.73 15.19 25.74 15.15C25.75 15.1 25.75 15.05 25.75 15C25.75 14.95 25.75 14.9 25.74 14.85C25.73 14.81 25.71 14.76 25.69 14.71C25.67 14.67 25.65 14.62 25.62 14.58C25.6 14.54 25.57 14.5 25.53 14.47C25.5 14.43 25.46 14.4 25.42 14.38C25.38 14.35 25.33 14.33 25.29 14.31C25.24 14.29 25.19 14.27 25.15 14.26C25.1 14.25 25.05 14.25 25 14.25L21.67 14.25C21.62 14.25 21.57 14.25 21.52 14.26C21.47 14.27 21.43 14.29 21.38 14.31C21.33 14.33 21.29 14.35 21.25 14.38C21.21 14.4 21.17 14.43 21.14 14.47C21.1 14.5 21.07 14.54 21.04 14.58C21.02 14.62 20.99 14.67 20.97 14.71C20.95 14.76 20.94 14.81 20.93 14.85C20.92 14.9 20.92 14.95 20.92 15C20.92 15.05 20.92 15.1 20.93 15.15C20.94 15.19 20.95 15.24 20.97 15.29C20.99 15.33 21.02 15.38 21.04 15.42C21.07 15.46 21.1 15.5 21.14 15.53C21.17 15.57 21.21 15.6 21.25 15.62C21.29 15.65 21.33 15.67 21.38 15.69C21.43 15.71 21.47 15.73 21.52 15.74C21.57 15.75 21.62 15.75 21.67 15.75L25 15.75Z">
      </path>
      <path id="直线 1 (轮廓)" fill-rule="evenodd" style="fill:#131926" opacity="1"
        d="M8.33325 15.75C8.38325 15.75 8.43325 15.75 8.48325 15.74C8.52325 15.73 8.57325 15.71 8.62325 15.69C8.66325 15.67 8.71325 15.65 8.75325 15.62C8.79325 15.6 8.83325 15.57 8.86325 15.53C8.90325 15.5 8.93325 15.46 8.95325 15.42C8.98325 15.38 9.00325 15.33 9.02325 15.29C9.04325 15.24 9.06325 15.19 9.07325 15.15C9.08325 15.1 9.08325 15.05 9.08325 15C9.08325 14.95 9.08325 14.9 9.07325 14.85C9.06325 14.81 9.04325 14.76 9.02325 14.71C9.00325 14.67 8.98325 14.62 8.95325 14.58C8.93325 14.54 8.90325 14.5 8.86325 14.47C8.83325 14.43 8.79325 14.4 8.75325 14.38C8.71325 14.35 8.66325 14.33 8.62325 14.31C8.57325 14.29 8.52325 14.27 8.48325 14.26C8.43325 14.25 8.38325 14.25 8.33325 14.25L5.00325 14.25C4.95325 14.25 4.90325 14.25 4.85325 14.26C4.80325 14.27 4.76325 14.29 4.71325 14.31C4.66325 14.33 4.62325 14.35 4.58325 14.38C4.54325 14.4 4.50325 14.43 4.47325 14.47C4.43325 14.5 4.40325 14.54 4.37325 14.58C4.35325 14.62 4.32325 14.67 4.30325 14.71C4.28325 14.76 4.27325 14.81 4.26325 14.85C4.25325 14.9 4.25325 14.95 4.25325 15C4.25325 15.05 4.25325 15.1 4.26325 15.15C4.27325 15.19 4.28325 15.24 4.30325 15.29C4.32325 15.33 4.35325 15.38 4.37325 15.42C4.40325 15.46 4.43325 15.5 4.47325 15.53C4.50325 15.57 4.54325 15.6 4.58325 15.62C4.62325 15.65 4.66325 15.67 4.71325 15.69C4.76325 15.71 4.80325 15.73 4.85325 15.74C4.90325 15.75 4.95325 15.75 5.00325 15.75L8.33325 15.75Z">
      </path>
    </g>
  </g>
  <defs>
    <rect id="path_0" x="0" y="0" width="30" height="30" />
  </defs>
</svg>