<svg xmlns="http://www.w3.org/2000/svg" xmlns:xlink="http://www.w3.org/1999/xlink" width="24" height="24" viewBox="0 0 24 24" fill="none"><g opacity="1"  transform="translate(0 0)  rotate(0)"><mask id="bg-mask-0" fill="white"><use xlink:href="#path_0"></use></mask><g mask="url(#bg-mask-0)" ><path id="多边形 1 (轮廓)" fill-rule="evenodd" style="fill:#495AD4" opacity="1" d="M10.5318,8.85999l2.9297,-0.0056c0.0583,0.00098 0.108,0.00696 0.1539,0.0266c0.0547,0.01464 0.1007,0.03429 0.1467,0.05393c0.0509,0.0283 0.0933,0.0616 0.1269,0.0999c0.0337,0.0383 0.0673,0.0766 0.0923,0.1199l1.47,2.54608c0.025,0.0433 0.0414,0.0916 0.0627,0.1486c0.0164,0.0483 0.019,0.0929 0.0181,0.1512c-0.001,0.0583 -0.007,0.108 -0.0266,0.154c-0.006,0.0496 -0.0257,0.0956 -0.054,0.1466l-1.4697,2.5344c-0.0196,0.0459 -0.0529,0.0883 -0.0912,0.1219c-0.0333,0.0424 -0.0766,0.0674 -0.1286,0.0974c-0.0433,0.025 -0.0866,0.05 -0.1399,0.0576c-0.0483,0.0164 -0.1016,0.024 -0.1599,0.0231l-2.9297,0.0056c-0.0496,-0.006 -0.1079,-0.007 -0.1539,-0.0266c-0.0497,-0.006 -0.0956,-0.0257 -0.1466,-0.054c-0.051,-0.0283 -0.0883,-0.0529 -0.122,-0.0912c-0.0386,-0.047 -0.0723,-0.0853 -0.0973,-0.1286l-1.47,-2.5461c-0.025,-0.0433 -0.04134,-0.0916 -0.05768,-0.1399c-0.01634,-0.0483 -0.02402,-0.1016 -0.02304,-0.1599c0.00598,-0.0496 0.01196,-0.0993 0.0266,-0.1539c0.00598,-0.0496 0.03428,-0.1006 0.05392,-0.1466l1.4697,-2.53441c0.0283,-0.05098 0.0616,-0.0933 0.0999,-0.12696c0.0383,-0.03366 0.0766,-0.06732 0.1199,-0.09232c0.052,-0.03 0.1003,-0.04634 0.1486,-0.06268c0.0483,-0.01634 0.1016,-0.02402 0.1512,-0.01804zM9.75693,11.9978l1.11997,1.9399h2.2401l1.1201,-1.94l-1.12,-1.9399l-2.2401,0.0001z"></path><path id="多边形 1" fill-rule="evenodd" style="fill:#A0A3B8" opacity="1" d="M10.9336 11.8402C10.877 11.9422 10.8751 12.0588 10.9351 12.1627L11.3301 12.8469C11.3851 12.9421 11.487 12.9987 11.6036 13.0007L12.3875 12.9984C12.5041 13.0004 12.6081 12.9404 12.6647 12.8384L13.0672 12.1557C13.1152 12.0587 13.1258 11.9371 13.0708 11.8419L12.6758 11.1577C12.6158 11.0538 12.5052 11.0022 12.3972 10.9952L11.6047 11.0025C11.4931 11.0092 11.3891 11.0692 11.3275 11.1625L10.9336 11.8402Z"></path><path id="圆形 1 (轮廓)" fill-rule="evenodd" style="fill:#A0A3B8" opacity="1" d="M13.9148 4.61293C13.8448 4.63293 13.7748 4.66293 13.7048 4.71293C13.6448 4.76293 13.5948 4.81293 13.5548 4.88293C13.5048 4.95293 13.4848 5.02293 13.4748 5.10293C13.4548 5.18293 13.4648 5.26293 13.4848 5.34293C13.5048 5.41293 13.5348 5.48293 13.5848 5.55293C13.6348 5.61293 13.6848 5.66293 13.7548 5.70293C13.8048 5.73293 13.8448 5.75293 13.9048 5.77293L13.9048 5.77293C14.0748 5.82293 14.2748 5.89293 14.4948 5.98293C15.2948 6.31293 15.9948 6.78293 16.6048 7.39293C17.2148 8.00293 17.6848 8.71292 18.0148 9.51293C18.0848 9.68293 18.1548 9.87293 18.2248 10.0829C18.2248 10.0929 18.2248 10.1029 18.2348 10.1129C18.2448 10.1429 18.2548 10.1829 18.2748 10.2129C18.2948 10.2529 18.3148 10.2829 18.3448 10.3129C18.3648 10.3429 18.3948 10.3729 18.4248 10.4029C18.4548 10.4229 18.4848 10.4429 18.5248 10.4629C18.5548 10.4829 18.5948 10.4929 18.6348 10.5129C18.6748 10.5229 18.7048 10.5329 18.7448 10.5329C18.7848 10.5329 18.8248 10.5329 18.8648 10.5329C18.9048 10.5329 18.9448 10.5229 18.9848 10.5129C19.0148 10.5029 19.0548 10.4829 19.0848 10.4629C19.1248 10.4429 19.1548 10.4229 19.1848 10.4029C19.2148 10.3729 19.2448 10.3429 19.2748 10.3129C19.2948 10.2829 19.3148 10.2529 19.3348 10.2229C19.3548 10.1829 19.3648 10.1429 19.3848 10.1129C19.3948 10.0729 19.4048 10.0329 19.4048 9.99293C19.4048 9.95293 19.4048 9.91293 19.4048 9.87293C19.4048 9.83293 19.3948 9.80293 19.3848 9.76293C19.3848 9.76293 19.3748 9.75293 19.3748 9.75293L19.3848 9.75293C19.2948 9.49293 19.2048 9.25293 19.1248 9.04292C18.7348 8.10293 18.1748 7.27293 17.4448 6.54293C16.7348 5.82293 15.9048 5.26293 14.9548 4.87293C14.6848 4.76293 14.4448 4.67293 14.2248 4.61293C14.1248 4.58293 14.0248 4.58293 13.9148 4.61293Z"></path><path id="圆形 1 (轮廓)" fill-rule="evenodd" style="fill:#A0A3B8" opacity="1" d="M18.8648 13.4648C18.8248 13.4648 18.7848 13.4648 18.7448 13.4648C18.7048 13.4748 18.6748 13.4748 18.6348 13.4948C18.5948 13.5048 18.5548 13.5148 18.5248 13.5348C18.4848 13.5548 18.4548 13.5748 18.4248 13.6048C18.3948 13.6248 18.3648 13.6548 18.3448 13.6848C18.3148 13.7148 18.2948 13.7448 18.2748 13.7848C18.2548 13.8148 18.2448 13.8548 18.2348 13.8948C18.2248 13.9048 18.2248 13.9148 18.2248 13.9248C18.1648 14.1048 18.0948 14.2948 18.0148 14.4948C17.6848 15.2948 17.2148 15.9948 16.5948 16.6048C15.9948 17.2148 15.2948 17.6848 14.4948 18.0148C14.2948 18.0948 14.1048 18.1648 13.9248 18.2248C13.8648 18.2348 13.8048 18.2648 13.7548 18.2948C13.6848 18.3348 13.6348 18.3848 13.5848 18.4448C13.5348 18.5148 13.5048 18.5848 13.4848 18.6648C13.4648 18.7348 13.4548 18.8148 13.4748 18.8948C13.4848 18.9748 13.5048 19.0448 13.5548 19.1148C13.5948 19.1848 13.6448 19.2448 13.7048 19.2848C13.7748 19.3348 13.8448 19.3648 13.9148 19.3848C14.0348 19.4148 14.1348 19.4148 14.2448 19.3748L14.2448 19.3848C14.4748 19.3048 14.7048 19.2248 14.9448 19.1248C15.9048 18.7348 16.7348 18.1748 17.4548 17.4448C18.1748 16.7348 18.7348 15.9048 19.1248 14.9448C19.2248 14.7048 19.3048 14.4748 19.3848 14.2448L19.3748 14.2448C19.3748 14.2448 19.3848 14.2448 19.3848 14.2348C19.3948 14.2048 19.4048 14.1648 19.4048 14.1248C19.4048 14.0848 19.4048 14.0448 19.4048 14.0048C19.4048 13.9648 19.3948 13.9248 19.3848 13.8948C19.3648 13.8548 19.3548 13.8148 19.3348 13.7848C19.3148 13.7448 19.2948 13.7148 19.2748 13.6848C19.2448 13.6548 19.2148 13.6248 19.1848 13.6048C19.1548 13.5748 19.1248 13.5548 19.0848 13.5348C19.0548 13.5148 19.0148 13.5048 18.9848 13.4948C18.9448 13.4748 18.9048 13.4748 18.8648 13.4648Z"></path><path id="圆形 1 (轮廓)" fill-rule="evenodd" style="fill:#A0A3B8" opacity="1" d="M5.77326 13.9048C5.77326 13.8948 5.77326 13.8948 5.76326 13.8948C5.75326 13.8548 5.74326 13.8148 5.72326 13.7848C5.70326 13.7448 5.68326 13.7148 5.65326 13.6848C5.63326 13.6548 5.60326 13.6248 5.57326 13.6048C5.54326 13.5748 5.51326 13.5548 5.47326 13.5348C5.44326 13.5148 5.40326 13.5048 5.36326 13.4948C5.33326 13.4748 5.29326 13.4748 5.25326 13.4648C5.21326 13.4648 5.17326 13.4648 5.13326 13.4648C5.09326 13.4748 5.05326 13.4748 5.02326 13.4948C4.98326 13.5048 4.94326 13.5148 4.91326 13.5348C4.87326 13.5548 4.84326 13.5748 4.81326 13.5948C4.78326 13.6248 4.75326 13.6548 4.73326 13.6848C4.70326 13.7148 4.68326 13.7448 4.66326 13.7748C4.64326 13.8148 4.63326 13.8448 4.62326 13.8848C4.61326 13.9248 4.60326 13.9648 4.59326 13.9948C4.59326 14.0348 4.59326 14.0748 4.59326 14.1148C4.60326 14.1548 4.60326 14.1948 4.61326 14.2248C4.67326 14.4448 4.76326 14.6848 4.87326 14.9448C5.26326 15.9048 5.82326 16.7348 6.54326 17.4548C7.27326 18.1748 8.10326 18.7348 9.05326 19.1248C9.25326 19.2148 9.49326 19.2948 9.75326 19.3848L9.75326 19.3748C9.78326 19.3848 9.82326 19.3948 9.85326 19.4048C9.88326 19.4048 9.91326 19.4048 9.95326 19.4048C9.98326 19.4048 10.0233 19.4048 10.0533 19.3948C10.0833 19.3848 10.1133 19.3748 10.1433 19.3648C10.1833 19.3548 10.2133 19.3448 10.2333 19.3248C10.2633 19.3048 10.2933 19.2848 10.3233 19.2648C10.3433 19.2448 10.3733 19.2248 10.3933 19.1948C10.4133 19.1748 10.4333 19.1448 10.4533 19.1148C10.4733 19.0848 10.4833 19.0448 10.5033 19.0048C10.5133 18.9748 10.5233 18.9348 10.5333 18.8948C10.5333 18.8548 10.5333 18.8148 10.5333 18.7748C10.5333 18.7348 10.5233 18.6948 10.5133 18.6648C10.5033 18.6248 10.4933 18.5848 10.4733 18.5548C10.4633 18.5148 10.4433 18.4848 10.4133 18.4448C10.3933 18.4148 10.3633 18.3848 10.3433 18.3648C10.3133 18.3348 10.2733 18.3148 10.2433 18.2948C10.1933 18.2648 10.1433 18.2348 10.0833 18.2248C9.86326 18.1548 9.67326 18.0848 9.51326 18.0148C8.71326 17.6848 8.00326 17.2148 7.39326 16.5948C6.78326 15.9948 6.31326 15.2948 5.98326 14.4948C5.89326 14.2748 5.82326 14.0748 5.77326 13.9048L5.77326 13.9048Z"></path><path id="圆形 1 (轮廓)" fill-rule="evenodd" style="fill:#A0A3B8" opacity="1" d="M10.1133 5.76323C10.1433 5.75323 10.1833 5.74323 10.2133 5.72323C10.2533 5.70323 10.2833 5.68323 10.3133 5.65323C10.3433 5.63323 10.3733 5.60323 10.4033 5.57323C10.4233 5.54323 10.4433 5.51323 10.4633 5.47323C10.4833 5.44323 10.4933 5.40323 10.5133 5.36323C10.5233 5.33323 10.5333 5.29323 10.5333 5.25323C10.5333 5.21323 10.5333 5.17323 10.5333 5.13323C10.5333 5.09323 10.5233 5.05323 10.5133 5.02323C10.4833 4.94323 10.4533 4.87323 10.4033 4.81323C10.3533 4.75323 10.2933 4.70323 10.2133 4.66323C10.1433 4.62323 10.0733 4.60323 9.99326 4.59323C9.91326 4.59323 9.83326 4.59323 9.76326 4.62323C9.75326 4.62323 9.75326 4.62323 9.74326 4.62323C9.51326 4.69323 9.28326 4.77323 9.05326 4.87323C8.10326 5.26323 7.27326 5.82323 6.54326 6.54323C5.82326 7.27323 5.26326 8.10323 4.87326 9.04323C4.77326 9.27323 4.69326 9.51323 4.62326 9.74323C4.62326 9.75323 4.62326 9.75323 4.62326 9.76323C4.60326 9.80323 4.60326 9.83323 4.59326 9.87323C4.59326 9.91323 4.59326 9.95323 4.59326 9.99323C4.60326 10.0332 4.60326 10.0732 4.62326 10.1132C4.63326 10.1432 4.64326 10.1832 4.66326 10.2132C4.68326 10.2532 4.70326 10.2832 4.73326 10.3132C4.75326 10.3432 4.78326 10.3732 4.81326 10.4032C4.84326 10.4232 4.87326 10.4432 4.91326 10.4632C4.94326 10.4832 4.98326 10.4932 5.02326 10.5132C5.09326 10.5332 5.17326 10.5432 5.25326 10.5332C5.33326 10.5232 5.40326 10.5032 5.47326 10.4632C5.54326 10.4232 5.60326 10.3732 5.65326 10.3132C5.70326 10.2532 5.74326 10.1832 5.76326 10.1132C5.76326 10.1032 5.77326 10.1032 5.77326 10.1032L5.77326 10.1032C5.82326 9.90323 5.89326 9.71323 5.97326 9.51323C6.31326 8.71323 6.78326 8.00323 7.39326 7.39323C8.00326 6.78323 8.71326 6.31323 9.51326 5.98323C9.70326 5.89323 9.90326 5.82323 10.1033 5.77323L10.1033 5.77323C10.1033 5.77323 10.1033 5.77323 10.1133 5.76323Z"></path><path id="直线 1 (轮廓)" fill-rule="evenodd" style="fill:#A0A3B8" opacity="1" d="M11.3999 20C11.3999 20.04 11.3999 20.08 11.4099 20.12C11.4199 20.16 11.4299 20.19 11.4499 20.23C11.4599 20.27 11.4799 20.3 11.4999 20.33C11.5199 20.37 11.5499 20.4 11.5799 20.42C11.5999 20.45 11.6299 20.48 11.6699 20.5C11.6999 20.52 11.7299 20.54 11.7699 20.55C11.8099 20.57 11.8399 20.58 11.8799 20.59C11.9199 20.6 11.9599 20.6 11.9999 20.6C12.0399 20.6 12.0799 20.6 12.1199 20.59C12.1599 20.58 12.1899 20.57 12.2299 20.55C12.2699 20.54 12.2999 20.52 12.3299 20.5C12.3699 20.48 12.3999 20.45 12.4199 20.42C12.4499 20.4 12.4799 20.37 12.4999 20.33C12.5199 20.3 12.5399 20.27 12.5499 20.23C12.5699 20.19 12.5799 20.16 12.5899 20.12C12.5999 20.08 12.5999 20.04 12.5999 20L12.5999 17.33C12.5999 17.29 12.5999 17.25 12.5899 17.22C12.5799 17.18 12.5699 17.14 12.5499 17.1C12.5399 17.07 12.5199 17.03 12.4999 17C12.4799 16.97 12.4499 16.94 12.4199 16.91C12.3999 16.88 12.3699 16.86 12.3299 16.83C12.2999 16.81 12.2699 16.79 12.2299 16.78C12.1899 16.76 12.1599 16.75 12.1199 16.74C12.0799 16.74 12.0399 16.73 11.9999 16.73C11.9599 16.73 11.9199 16.74 11.8799 16.74C11.8399 16.75 11.8099 16.76 11.7699 16.78C11.7299 16.79 11.6999 16.81 11.6699 16.83C11.6299 16.86 11.5999 16.88 11.5799 16.91C11.5499 16.94 11.5199 16.97 11.4999 17C11.4799 17.03 11.4599 17.07 11.4499 17.1C11.4299 17.14 11.4199 17.18 11.4099 17.22C11.3999 17.25 11.3999 17.29 11.3999 17.33L11.3999 20Z"></path><path id="直线 1 (轮廓)" fill-rule="evenodd" style="fill:#A0A3B8" opacity="1" d="M11.3999 6.66666C11.3999 6.70666 11.3999 6.74666 11.4099 6.78666C11.4199 6.82666 11.4299 6.85666 11.4499 6.89666C11.4599 6.93666 11.4799 6.96666 11.4999 6.99666C11.5199 7.03666 11.5499 7.06666 11.5799 7.08666C11.5999 7.11666 11.6299 7.14666 11.6699 7.16666C11.6999 7.18666 11.7299 7.20666 11.7699 7.21666C11.8099 7.23666 11.8399 7.24666 11.8799 7.25666C11.9199 7.26666 11.9599 7.26666 11.9999 7.26666C12.0399 7.26666 12.0799 7.26666 12.1199 7.25666C12.1599 7.24666 12.1899 7.23666 12.2299 7.21666C12.2699 7.20666 12.2999 7.18666 12.3299 7.16666C12.3699 7.14666 12.3999 7.11666 12.4199 7.08666C12.4499 7.06666 12.4799 7.03666 12.4999 6.99666C12.5199 6.96666 12.5399 6.93666 12.5499 6.89666C12.5699 6.85666 12.5799 6.82666 12.5899 6.78666C12.5999 6.74666 12.5999 6.70666 12.5999 6.66666L12.5999 3.99666C12.5999 3.95666 12.5999 3.91666 12.5899 3.88666C12.5799 3.84666 12.5699 3.80666 12.5499 3.76666C12.5399 3.73666 12.5199 3.69666 12.4999 3.66666C12.4799 3.63666 12.4499 3.60666 12.4199 3.57666C12.3999 3.54666 12.3699 3.52666 12.3299 3.49666C12.2999 3.47666 12.2699 3.45666 12.2299 3.44666C12.1899 3.42666 12.1599 3.41666 12.1199 3.40666C12.0799 3.40666 12.0399 3.39666 11.9999 3.39666C11.9599 3.39666 11.9199 3.40666 11.8799 3.40666C11.8399 3.41666 11.8099 3.42666 11.7699 3.44666C11.7299 3.45666 11.6999 3.47666 11.6699 3.49666C11.6299 3.52666 11.5999 3.54666 11.5799 3.57666C11.5499 3.60666 11.5199 3.63666 11.4999 3.66666C11.4799 3.69666 11.4599 3.73666 11.4499 3.76666C11.4299 3.80666 11.4199 3.84666 11.4099 3.88666C11.3999 3.91666 11.3999 3.95666 11.3999 3.99666L11.3999 6.66666Z"></path><path id="直线 1 (轮廓)" fill-rule="evenodd" style="fill:#A0A3B8" opacity="1" d="M20.0001 12.6C20.0401 12.6 20.0801 12.6 20.1201 12.59C20.1601 12.58 20.1901 12.57 20.2301 12.55C20.2701 12.54 20.3001 12.52 20.3301 12.5C20.3701 12.48 20.4001 12.45 20.4201 12.42C20.4501 12.4 20.4801 12.37 20.5001 12.33C20.5201 12.3 20.5401 12.27 20.5501 12.23C20.5701 12.19 20.5801 12.16 20.5901 12.12C20.6001 12.08 20.6001 12.04 20.6001 12C20.6001 11.96 20.6001 11.92 20.5901 11.88C20.5801 11.84 20.5701 11.81 20.5501 11.77C20.5401 11.73 20.5201 11.7 20.5001 11.67C20.4801 11.63 20.4501 11.6 20.4201 11.58C20.4001 11.55 20.3701 11.52 20.3301 11.5C20.3001 11.48 20.2701 11.46 20.2301 11.45C20.1901 11.43 20.1601 11.42 20.1201 11.41C20.0801 11.4 20.0401 11.4 20.0001 11.4L17.3301 11.4C17.2901 11.4 17.2501 11.4 17.2201 11.41C17.1801 11.42 17.1401 11.43 17.1001 11.45C17.0701 11.46 17.0301 11.48 17.0001 11.5C16.9701 11.52 16.9401 11.55 16.9101 11.58C16.8801 11.6 16.8601 11.63 16.8301 11.67C16.8101 11.7 16.7901 11.73 16.7801 11.77C16.7601 11.81 16.7501 11.84 16.7401 11.88C16.7401 11.92 16.7301 11.96 16.7301 12C16.7301 12.04 16.7401 12.08 16.7401 12.12C16.7501 12.16 16.7601 12.19 16.7801 12.23C16.7901 12.27 16.8101 12.3 16.8301 12.33C16.8601 12.37 16.8801 12.4 16.9101 12.42C16.9401 12.45 16.9701 12.48 17.0001 12.5C17.0301 12.52 17.0701 12.54 17.1001 12.55C17.1401 12.57 17.1801 12.58 17.2201 12.59C17.2501 12.6 17.2901 12.6 17.3301 12.6L20.0001 12.6Z"></path><path id="直线 1 (轮廓)" fill-rule="evenodd" style="fill:#A0A3B8" opacity="1" d="M6.6666 12.6C6.7066 12.6 6.7466 12.6 6.7866 12.59C6.8266 12.58 6.8566 12.57 6.8966 12.55C6.9366 12.54 6.9666 12.52 6.9966 12.5C7.0366 12.48 7.0666 12.45 7.0866 12.42C7.1166 12.4 7.1466 12.37 7.1666 12.33C7.1866 12.3 7.2066 12.27 7.2166 12.23C7.2366 12.19 7.2466 12.16 7.2566 12.12C7.2666 12.08 7.2666 12.04 7.2666 12C7.2666 11.96 7.2666 11.92 7.2566 11.88C7.2466 11.84 7.2366 11.81 7.2166 11.77C7.2066 11.73 7.1866 11.7 7.1666 11.67C7.1466 11.63 7.1166 11.6 7.0866 11.58C7.0666 11.55 7.0366 11.52 6.9966 11.5C6.9666 11.48 6.9366 11.46 6.8966 11.45C6.8566 11.43 6.8266 11.42 6.7866 11.41C6.7466 11.4 6.7066 11.4 6.6666 11.4L3.9966 11.4C3.9566 11.4 3.9166 11.4 3.8866 11.41C3.8466 11.42 3.8066 11.43 3.7666 11.45C3.7366 11.46 3.6966 11.48 3.6666 11.5C3.6366 11.52 3.6066 11.55 3.5766 11.58C3.5466 11.6 3.5266 11.63 3.4966 11.67C3.4766 11.7 3.4566 11.73 3.4466 11.77C3.4266 11.81 3.4166 11.84 3.4066 11.88C3.4066 11.92 3.3966 11.96 3.3966 12C3.3966 12.04 3.4066 12.08 3.4066 12.12C3.4166 12.16 3.4266 12.19 3.4466 12.23C3.4566 12.27 3.4766 12.3 3.4966 12.33C3.5266 12.37 3.5466 12.4 3.5766 12.42C3.6066 12.45 3.6366 12.48 3.6666 12.5C3.6966 12.52 3.7366 12.54 3.7666 12.55C3.8066 12.57 3.8466 12.58 3.8866 12.59C3.9166 12.6 3.9566 12.6 3.9966 12.6L6.6666 12.6Z"></path></g></g><defs><rect id="path_0" x="0" y="0" width="24" height="24" /></defs></svg>