<svg xmlns="http://www.w3.org/2000/svg" xmlns:xlink="http://www.w3.org/1999/xlink" width="30" height="30"
  viewBox="0 0 30 30" fill="none">
  <g opacity="1" transform="translate(0 0)  rotate(0)">
    <g mask="url(#bg-mask-0)">
      <g opacity="1" transform="translate(6.25 6.25)  rotate(0)">
        <g opacity="1" transform="translate(0 0)  rotate(0)">
          <path id="矩形 2 (轮廓)" fill-rule="evenodd" style="fill:#131926" opacity="1"
            d="M0,3.75v-3c0,-0.05 0,-0.1 0.01,-0.15c0.01,-0.04 0.03,-0.09 0.05,-0.14c0.02,-0.04 0.04,-0.09 0.07,-0.13c0.02,-0.04 0.05,-0.08 0.09,-0.11c0.03,-0.04 0.07,-0.07 0.11,-0.09c0.04,-0.03 0.09,-0.05 0.13,-0.07c0.05,-0.02 0.1,-0.04 0.14,-0.05c0.05,-0.01 0.1,-0.01 0.15,-0.01h3c0.05,0 0.1,0 0.15,0.01c0.04,0.01 0.09,0.03 0.14,0.05c0.04,0.02 0.09,0.04 0.13,0.07c0.04,0.02 0.08,0.05 0.11,0.09c0.04,0.03 0.07,0.07 0.09,0.11c0.03,0.04 0.05,0.09 0.07,0.13c0.02,0.05 0.04,0.1 0.05,0.14c0.01,0.05 0.01,0.1 0.01,0.15v3c0,0.05 0,0.1 -0.01,0.15c-0.01,0.04 -0.03,0.09 -0.05,0.14c-0.02,0.04 -0.04,0.09 -0.07,0.13c-0.02,0.04 -0.05,0.08 -0.09,0.11c-0.03,0.04 -0.07,0.07 -0.11,0.09c-0.04,0.03 -0.09,0.05 -0.13,0.07c-0.05,0.02 -0.1,0.04 -0.14,0.05c-0.05,0.01 -0.1,0.01 -0.15,0.01h-3c-0.05,0 -0.1,0 -0.15,-0.01c-0.04,-0.01 -0.09,-0.03 -0.14,-0.05c-0.04,-0.02 -0.09,-0.04 -0.13,-0.07c-0.04,-0.02 -0.08,-0.05 -0.11,-0.09c-0.04,-0.03 -0.07,-0.07 -0.09,-0.11c-0.03,-0.04 -0.05,-0.09 -0.07,-0.13c-0.02,-0.05 -0.04,-0.1 -0.05,-0.14c-0.01,-0.05 -0.01,-0.1 -0.01,-0.15zM1.5,1.5v1.5h1.5v-1.5z">
          </path>
          <path id="直线 1 (轮廓)" fill-rule="evenodd" style="fill:#131926" opacity="1"
            d="M6.75 3C6.7 3 6.65 3 6.6 3.01C6.56 3.02 6.51 3.04 6.46 3.06C6.42 3.08 6.37 3.1 6.33 3.13C6.29 3.15 6.25 3.18 6.22 3.22C6.18 3.25 6.15 3.29 6.13 3.33C6.1 3.37 6.08 3.42 6.06 3.46C6.04 3.51 6.02 3.56 6.01 3.6C6 3.65 6 3.7 6 3.75C6 3.8 6 3.85 6.01 3.9C6.02 3.94 6.04 3.99 6.06 4.04C6.08 4.08 6.1 4.13 6.13 4.17C6.15 4.21 6.18 4.25 6.22 4.28C6.25 4.32 6.29 4.35 6.33 4.37C6.37 4.4 6.42 4.42 6.46 4.44C6.51 4.46 6.56 4.48 6.6 4.49C6.65 4.5 6.7 4.5 6.75 4.5L12.75 4.5C12.8 4.5 12.85 4.5 12.9 4.49C12.94 4.48 12.99 4.46 13.04 4.44C13.08 4.42 13.13 4.4 13.17 4.37C13.21 4.35 13.25 4.32 13.28 4.28C13.32 4.25 13.35 4.21 13.37 4.17C13.4 4.13 13.42 4.08 13.44 4.04C13.46 3.99 13.48 3.94 13.49 3.9C13.5 3.85 13.5 3.8 13.5 3.75C13.5 3.7 13.5 3.65 13.49 3.6C13.48 3.56 13.46 3.51 13.44 3.46C13.42 3.42 13.4 3.37 13.37 3.33C13.35 3.29 13.32 3.25 13.28 3.22C13.25 3.18 13.21 3.15 13.17 3.13C13.13 3.1 13.08 3.08 13.04 3.06C12.99 3.04 12.94 3.02 12.9 3.01C12.85 3 12.8 3 12.75 3L6.75 3Z">
          </path>
          <path id="直线 1 (轮廓)" fill-rule="evenodd" style="fill:#131926" opacity="1"
            d="M6.75 0C6.7 0 6.65 0 6.6 0.01C6.56 0.02 6.51 0.04 6.46 0.06C6.42 0.08 6.37 0.1 6.33 0.13C6.29 0.15 6.25 0.18 6.22 0.22C6.18 0.25 6.15 0.29 6.13 0.33C6.1 0.37 6.08 0.42 6.06 0.46C6.04 0.51 6.02 0.56 6.01 0.6C6 0.65 6 0.7 6 0.75C6 0.8 6 0.85 6.01 0.9C6.02 0.94 6.04 0.99 6.06 1.04C6.08 1.08 6.1 1.13 6.13 1.17C6.15 1.21 6.18 1.25 6.22 1.28C6.25 1.32 6.29 1.35 6.33 1.37C6.37 1.4 6.42 1.42 6.46 1.44C6.51 1.46 6.56 1.48 6.6 1.49C6.65 1.5 6.7 1.5 6.75 1.5L16.75 1.5C16.8 1.5 16.85 1.5 16.9 1.49C16.94 1.48 16.99 1.46 17.04 1.44C17.08 1.42 17.13 1.4 17.17 1.37C17.21 1.35 17.25 1.32 17.28 1.28C17.32 1.25 17.35 1.21 17.37 1.17C17.4 1.13 17.42 1.08 17.44 1.04C17.46 0.99 17.48 0.94 17.49 0.9C17.5 0.85 17.5 0.8 17.5 0.75C17.5 0.7 17.5 0.65 17.49 0.6C17.48 0.56 17.46 0.51 17.44 0.46C17.42 0.42 17.4 0.37 17.37 0.33C17.35 0.29 17.32 0.25 17.28 0.22C17.25 0.18 17.21 0.15 17.17 0.13C17.13 0.1 17.08 0.08 17.04 0.06C16.99 0.04 16.94 0.02 16.9 0.01C16.85 0 16.8 0 16.75 0L6.75 0Z">
          </path>
        </g>
        <g opacity="1" transform="translate(0 6.5)  rotate(0)">
          <path id="矩形 2 (轮廓)" fill-rule="evenodd" style="fill:#131926" opacity="1"
            d="M0,3.75v-3c0,-0.05 0,-0.1 0.01,-0.15c0.01,-0.04 0.03,-0.09 0.05,-0.14c0.02,-0.04 0.04,-0.09 0.07,-0.13c0.02,-0.04 0.05,-0.08 0.09,-0.11c0.03,-0.04 0.07,-0.07 0.11,-0.09c0.04,-0.03 0.09,-0.05 0.13,-0.07c0.05,-0.02 0.1,-0.04 0.14,-0.05c0.05,-0.01 0.1,-0.01 0.15,-0.01h3c0.05,0 0.1,0 0.15,0.01c0.04,0.01 0.09,0.03 0.14,0.05c0.04,0.02 0.09,0.04 0.13,0.07c0.04,0.02 0.08,0.05 0.11,0.09c0.04,0.03 0.07,0.07 0.09,0.11c0.03,0.04 0.05,0.09 0.07,0.13c0.02,0.05 0.04,0.1 0.05,0.14c0.01,0.05 0.01,0.1 0.01,0.15v3c0,0.05 0,0.1 -0.01,0.15c-0.01,0.04 -0.03,0.09 -0.05,0.14c-0.02,0.04 -0.04,0.09 -0.07,0.13c-0.02,0.04 -0.05,0.08 -0.09,0.11c-0.03,0.04 -0.07,0.07 -0.11,0.09c-0.04,0.03 -0.09,0.05 -0.13,0.07c-0.05,0.02 -0.1,0.04 -0.14,0.05c-0.05,0.01 -0.1,0.01 -0.15,0.01h-3c-0.05,0 -0.1,0 -0.15,-0.01c-0.04,-0.01 -0.09,-0.03 -0.14,-0.05c-0.04,-0.02 -0.09,-0.04 -0.13,-0.07c-0.04,-0.02 -0.08,-0.05 -0.11,-0.09c-0.04,-0.03 -0.07,-0.07 -0.09,-0.11c-0.03,-0.04 -0.05,-0.09 -0.07,-0.13c-0.02,-0.05 -0.04,-0.1 -0.05,-0.14c-0.01,-0.05 -0.01,-0.1 -0.01,-0.15zM1.5,1.5v1.5h1.5v-1.5z">
          </path>
          <path id="直线 1 (轮廓)" fill-rule="evenodd" style="fill:#131926" opacity="1"
            d="M6.75 3C6.7 3 6.65 3 6.6 3.01C6.56 3.02 6.51 3.04 6.46 3.06C6.42 3.08 6.37 3.1 6.33 3.13C6.29 3.15 6.25 3.18 6.22 3.22C6.18 3.25 6.15 3.29 6.13 3.33C6.1 3.37 6.08 3.42 6.06 3.46C6.04 3.51 6.02 3.56 6.01 3.6C6 3.65 6 3.7 6 3.75C6 3.8 6 3.85 6.01 3.9C6.02 3.94 6.04 3.99 6.06 4.04C6.08 4.08 6.1 4.13 6.13 4.17C6.15 4.21 6.18 4.25 6.22 4.28C6.25 4.32 6.29 4.35 6.33 4.37C6.37 4.4 6.42 4.42 6.46 4.44C6.51 4.46 6.56 4.48 6.6 4.49C6.65 4.5 6.7 4.5 6.75 4.5L12.75 4.5C12.8 4.5 12.85 4.5 12.9 4.49C12.94 4.48 12.99 4.46 13.04 4.44C13.08 4.42 13.13 4.4 13.17 4.37C13.21 4.35 13.25 4.32 13.28 4.28C13.32 4.25 13.35 4.21 13.37 4.17C13.4 4.13 13.42 4.08 13.44 4.04C13.46 3.99 13.48 3.94 13.49 3.9C13.5 3.85 13.5 3.8 13.5 3.75C13.5 3.7 13.5 3.65 13.49 3.6C13.48 3.56 13.46 3.51 13.44 3.46C13.42 3.42 13.4 3.37 13.37 3.33C13.35 3.29 13.32 3.25 13.28 3.22C13.25 3.18 13.21 3.15 13.17 3.13C13.13 3.1 13.08 3.08 13.04 3.06C12.99 3.04 12.94 3.02 12.9 3.01C12.85 3 12.8 3 12.75 3L6.75 3Z">
          </path>
          <path id="直线 1 (轮廓)" fill-rule="evenodd" style="fill:#495AD4" opacity="1"
            d="M6.75 0C6.7 0 6.65 0 6.6 0.01C6.56 0.02 6.51 0.04 6.46 0.06C6.42 0.08 6.37 0.1 6.33 0.13C6.29 0.15 6.25 0.18 6.22 0.22C6.18 0.25 6.15 0.29 6.13 0.33C6.1 0.37 6.08 0.42 6.06 0.46C6.04 0.51 6.02 0.56 6.01 0.6C6 0.65 6 0.7 6 0.75C6 0.8 6 0.85 6.01 0.9C6.02 0.94 6.04 0.99 6.06 1.04C6.08 1.08 6.1 1.13 6.13 1.17C6.15 1.21 6.18 1.25 6.22 1.28C6.25 1.32 6.29 1.35 6.33 1.37C6.37 1.4 6.42 1.42 6.46 1.44C6.51 1.46 6.56 1.48 6.6 1.49C6.65 1.5 6.7 1.5 6.75 1.5L16.75 1.5C16.8 1.5 16.85 1.5 16.9 1.49C16.94 1.48 16.99 1.46 17.04 1.44C17.08 1.42 17.13 1.4 17.17 1.37C17.21 1.35 17.25 1.32 17.28 1.28C17.32 1.25 17.35 1.21 17.37 1.17C17.4 1.13 17.42 1.08 17.44 1.04C17.46 0.99 17.48 0.94 17.49 0.9C17.5 0.85 17.5 0.8 17.5 0.75C17.5 0.7 17.5 0.65 17.49 0.6C17.48 0.56 17.46 0.51 17.44 0.46C17.42 0.42 17.4 0.37 17.37 0.33C17.35 0.29 17.32 0.25 17.28 0.22C17.25 0.18 17.21 0.15 17.17 0.13C17.13 0.1 17.08 0.08 17.04 0.06C16.99 0.04 16.94 0.02 16.9 0.01C16.85 0 16.8 0 16.75 0L6.75 0Z">
          </path>
        </g>
        <g opacity="1" transform="translate(0 13)  rotate(0)">
          <path id="矩形 2 (轮廓)" fill-rule="evenodd" style="fill:#131926" opacity="1"
            d="M0,3.75v-3c0,-0.05 0,-0.1 0.01,-0.15c0.01,-0.04 0.03,-0.09 0.05,-0.14c0.02,-0.04 0.04,-0.09 0.07,-0.13c0.02,-0.04 0.05,-0.08 0.09,-0.11c0.03,-0.04 0.07,-0.07 0.11,-0.09c0.04,-0.03 0.09,-0.05 0.13,-0.07c0.05,-0.02 0.1,-0.04 0.14,-0.05c0.05,-0.01 0.1,-0.01 0.15,-0.01h3c0.05,0 0.1,0 0.15,0.01c0.04,0.01 0.09,0.03 0.14,0.05c0.04,0.02 0.09,0.04 0.13,0.07c0.04,0.02 0.08,0.05 0.11,0.09c0.04,0.03 0.07,0.07 0.09,0.11c0.03,0.04 0.05,0.09 0.07,0.13c0.02,0.05 0.04,0.1 0.05,0.14c0.01,0.05 0.01,0.1 0.01,0.15v3c0,0.05 0,0.1 -0.01,0.15c-0.01,0.04 -0.03,0.09 -0.05,0.14c-0.02,0.04 -0.04,0.09 -0.07,0.13c-0.02,0.04 -0.05,0.08 -0.09,0.11c-0.03,0.04 -0.07,0.07 -0.11,0.09c-0.04,0.03 -0.09,0.05 -0.13,0.07c-0.05,0.02 -0.1,0.04 -0.14,0.05c-0.05,0.01 -0.1,0.01 -0.15,0.01h-3c-0.05,0 -0.1,0 -0.15,-0.01c-0.04,-0.01 -0.09,-0.03 -0.14,-0.05c-0.04,-0.02 -0.09,-0.04 -0.13,-0.07c-0.04,-0.02 -0.08,-0.05 -0.11,-0.09c-0.04,-0.03 -0.07,-0.07 -0.09,-0.11c-0.03,-0.04 -0.05,-0.09 -0.07,-0.13c-0.02,-0.05 -0.04,-0.1 -0.05,-0.14c-0.01,-0.05 -0.01,-0.1 -0.01,-0.15zM1.5,1.5v1.5h1.5v-1.5z">
          </path>
          <path id="直线 1 (轮廓)" fill-rule="evenodd" style="fill:#131926" opacity="1"
            d="M6.75 3C6.7 3 6.65 3 6.6 3.01C6.56 3.02 6.51 3.04 6.46 3.06C6.42 3.08 6.37 3.1 6.33 3.13C6.29 3.15 6.25 3.18 6.22 3.22C6.18 3.25 6.15 3.29 6.13 3.33C6.1 3.37 6.08 3.42 6.06 3.46C6.04 3.51 6.02 3.56 6.01 3.6C6 3.65 6 3.7 6 3.75C6 3.8 6 3.85 6.01 3.9C6.02 3.94 6.04 3.99 6.06 4.04C6.08 4.08 6.1 4.13 6.13 4.17C6.15 4.21 6.18 4.25 6.22 4.28C6.25 4.32 6.29 4.35 6.33 4.37C6.37 4.4 6.42 4.42 6.46 4.44C6.51 4.46 6.56 4.48 6.6 4.49C6.65 4.5 6.7 4.5 6.75 4.5L12.75 4.5C12.8 4.5 12.85 4.5 12.9 4.49C12.94 4.48 12.99 4.46 13.04 4.44C13.08 4.42 13.13 4.4 13.17 4.37C13.21 4.35 13.25 4.32 13.28 4.28C13.32 4.25 13.35 4.21 13.37 4.17C13.4 4.13 13.42 4.08 13.44 4.04C13.46 3.99 13.48 3.94 13.49 3.9C13.5 3.85 13.5 3.8 13.5 3.75C13.5 3.7 13.5 3.65 13.49 3.6C13.48 3.56 13.46 3.51 13.44 3.46C13.42 3.42 13.4 3.37 13.37 3.33C13.35 3.29 13.32 3.25 13.28 3.22C13.25 3.18 13.21 3.15 13.17 3.13C13.13 3.1 13.08 3.08 13.04 3.06C12.99 3.04 12.94 3.02 12.9 3.01C12.85 3 12.8 3 12.75 3L6.75 3Z">
          </path>
          <path id="直线 1 (轮廓)" fill-rule="evenodd" style="fill:#131926" opacity="1"
            d="M6.75 0C6.7 0 6.65 0 6.6 0.01C6.56 0.02 6.51 0.04 6.46 0.06C6.42 0.08 6.37 0.1 6.33 0.13C6.29 0.15 6.25 0.18 6.22 0.22C6.18 0.25 6.15 0.29 6.13 0.33C6.1 0.37 6.08 0.42 6.06 0.46C6.04 0.51 6.02 0.56 6.01 0.6C6 0.65 6 0.7 6 0.75C6 0.8 6 0.85 6.01 0.9C6.02 0.94 6.04 0.99 6.06 1.04C6.08 1.08 6.1 1.13 6.13 1.17C6.15 1.21 6.18 1.25 6.22 1.28C6.25 1.32 6.29 1.35 6.33 1.37C6.37 1.4 6.42 1.42 6.46 1.44C6.51 1.46 6.56 1.48 6.6 1.49C6.65 1.5 6.7 1.5 6.75 1.5L16.75 1.5C16.8 1.5 16.85 1.5 16.9 1.49C16.94 1.48 16.99 1.46 17.04 1.44C17.08 1.42 17.13 1.4 17.17 1.37C17.21 1.35 17.25 1.32 17.28 1.28C17.32 1.25 17.35 1.21 17.37 1.17C17.4 1.13 17.42 1.08 17.44 1.04C17.46 0.99 17.48 0.94 17.49 0.9C17.5 0.85 17.5 0.8 17.5 0.75C17.5 0.7 17.5 0.65 17.49 0.6C17.48 0.56 17.46 0.51 17.44 0.46C17.42 0.42 17.4 0.37 17.37 0.33C17.35 0.29 17.32 0.25 17.28 0.22C17.25 0.18 17.21 0.15 17.17 0.13C17.13 0.1 17.08 0.08 17.04 0.06C16.99 0.04 16.94 0.02 16.9 0.01C16.85 0 16.8 0 16.75 0L6.75 0Z">
          </path>
        </g>
      </g>
    </g>
  </g>
  <defs>
    <rect id="path_0" x="0" y="0" width="30" height="30" />
  </defs>
</svg>