<svg xmlns="http://www.w3.org/2000/svg" xmlns:xlink="http://www.w3.org/1999/xlink" width="30" height="30"
  viewBox="0 0 30 30" fill="none">
  <g opacity="1" transform="translate(0 0)  rotate(0)">
    <mask id="bg-mask-0" fill="white">
      <use transform="translate(0 0)  rotate(0)" xlink:href="#path_0"></use>
    </mask>
    <g mask="url(#bg-mask-0)">
      <g opacity="1" transform="translate(9.9937744140625 5.994140625)  rotate(0)">
        <path id="直线 1 (轮廓)" fill-rule="evenodd" style="fill:#131926" opacity="1"
          d="M4.67081 0.335566L0.672722 2.33461C0.297063 2.52244 0.153955 2.97413 0.337312 3.34084C0.52067 3.70756 0.967883 3.86408 1.34354 3.67625L5.34163 1.67721C5.70835 1.49385 5.8604 1.03769 5.67704 0.670976C5.49368 0.304261 5.03753 0.152209 4.67081 0.335566Z">
        </path>
        <path id="直线 2 (轮廓)" fill-rule="evenodd" style="fill:#131926" opacity="1"
          d="M0.256226 3.00586L0.256226 8.00586C0.256226 8.41586 0.596226 8.75586 1.00623 8.75586C1.41623 8.75586 1.75623 8.41586 1.75623 8.00586L1.75623 3.00586C1.75623 2.59586 1.41623 2.25586 1.00623 2.25586C0.596226 2.25586 0.256226 2.59586 0.256226 3.00586Z">
        </path>
        <path id="直线 3 (轮廓)" fill-rule="evenodd" style="fill:#131926" opacity="1"
          d="M0.670837 8.67705L4.66893 10.6761C5.04459 10.8639 5.4918 10.7074 5.67516 10.3407C5.85851 9.97397 5.71541 9.52229 5.33975 9.33446L1.34166 7.33541C0.974943 7.15205 0.518785 7.30411 0.335427 7.67082C0.15207 8.03754 0.304122 8.49369 0.670837 8.67705Z">
        </path>
        <path id="直线 4 (轮廓)" fill-rule="evenodd" style="fill:#131926" opacity="1"
          d="M4.67084 1.67705L8.66893 3.6761C9.04459 3.86393 9.4918 3.7074 9.67516 3.34069C9.85851 2.97397 9.71541 2.52228 9.33975 2.33446L5.34166 0.33541C4.97494 0.152053 4.51878 0.304105 4.33543 0.67082C4.15207 1.03754 4.30412 1.49369 4.67084 1.67705Z">
        </path>
        <path id="直线 5 (轮廓)" fill-rule="evenodd" style="fill:#131926" opacity="1"
          d="M8.25623 3.00586L8.25623 8.00586C8.25623 8.41586 8.59623 8.75586 9.00623 8.75586C9.41623 8.75586 9.75623 8.41586 9.75623 8.00586L9.75623 3.00586C9.75623 2.59586 9.41623 2.25586 9.00623 2.25586C8.59623 2.25586 8.25623 2.59586 8.25623 3.00586Z">
        </path>
        <path id="直线 6 (轮廓)" fill-rule="evenodd" style="fill:#495AD4" opacity="1"
          d="M8.67081 7.33557L4.67272 9.33461C4.29706 9.52244 4.15395 9.97413 4.33731 10.3408C4.52067 10.7076 4.96788 10.8641 5.34354 10.6763L9.34163 8.67721C9.70835 8.49385 9.8604 8.03769 9.67704 7.67098C9.49368 7.30426 9.03753 7.15221 8.67081 7.33557Z">
        </path>
        <path id="直线 7 (轮廓)" fill-rule="evenodd" style="fill:#131926" opacity="1"
          d="M0.670837 3.67705L4.66893 5.6761C5.04459 5.86393 5.4918 5.7074 5.67516 5.34069C5.85851 4.97397 5.71541 4.52228 5.33975 4.33446L1.34166 2.33541C0.974943 2.15205 0.518785 2.30411 0.335427 2.67082C0.15207 3.03754 0.304122 3.49369 0.670837 3.67705Z">
        </path>
        <path id="直线 8 (轮廓)" fill-rule="evenodd" style="fill:#131926" opacity="1"
          d="M5.34164 5.67615L9.33973 3.67711C9.71539 3.48928 9.8585 3.03759 9.67514 2.67088C9.49178 2.30416 9.04457 2.14764 8.66891 2.33547L4.67082 4.33451C4.30411 4.51787 4.15205 4.97403 4.33541 5.34074C4.51877 5.70746 4.97493 5.85951 5.34164 5.67615Z">
        </path>
      </g>
      <g opacity="1" transform="translate(5.9937744140625 12.994140625)  rotate(0)">
        <path id="直线 1 (轮廓)" fill-rule="evenodd" style="fill:#131926" opacity="1"
          d="M4.67081 0.335566L0.672722 2.33461C0.297063 2.52244 0.153955 2.97413 0.337312 3.34084C0.52067 3.70756 0.967883 3.86408 1.34354 3.67625L5.34163 1.67721C5.70835 1.49385 5.8604 1.03769 5.67704 0.670976C5.49368 0.304261 5.03753 0.152209 4.67081 0.335566Z">
        </path>
        <path id="直线 2 (轮廓)" fill-rule="evenodd" style="fill:#131926" opacity="1"
          d="M0.256226 3.00586L0.256226 8.00586C0.256226 8.41586 0.596226 8.75586 1.00623 8.75586C1.41623 8.75586 1.75623 8.41586 1.75623 8.00586L1.75623 3.00586C1.75623 2.59586 1.41623 2.25586 1.00623 2.25586C0.596226 2.25586 0.256226 2.59586 0.256226 3.00586Z">
        </path>
        <path id="直线 3 (轮廓)" fill-rule="evenodd" style="fill:#131926" opacity="1"
          d="M0.670837 8.67705L4.66893 10.6761C5.04459 10.8639 5.4918 10.7074 5.67516 10.3407C5.85851 9.97397 5.71541 9.52229 5.33975 9.33446L1.34166 7.33541C0.974943 7.15205 0.518785 7.30411 0.335427 7.67082C0.15207 8.03754 0.304122 8.49369 0.670837 8.67705Z">
        </path>
        <path id="直线 5 (轮廓)" fill-rule="evenodd" style="fill:#131926" opacity="1"
          d="M8.25623 3.00586L8.25623 8.00586C8.25623 8.41586 8.59623 8.75586 9.00623 8.75586C9.41623 8.75586 9.75623 8.41586 9.75623 8.00586L9.75623 3.00586C9.75623 2.59586 9.41623 2.25586 9.00623 2.25586C8.59623 2.25586 8.25623 2.59586 8.25623 3.00586Z">
        </path>
        <path id="直线 6 (轮廓)" fill-rule="evenodd" style="fill:#131926" opacity="1"
          d="M8.67081 7.33557L4.67272 9.33461C4.29706 9.52244 4.15395 9.97413 4.33731 10.3408C4.52067 10.7076 4.96788 10.8641 5.34354 10.6763L9.34163 8.67721C9.70835 8.49385 9.8604 8.03769 9.67704 7.67098C9.49368 7.30426 9.03753 7.15221 8.67081 7.33557Z">
        </path>
        <path id="直线 7 (轮廓)" fill-rule="evenodd" style="fill:#131926" opacity="1"
          d="M0.670837 3.67705L4.66893 5.6761C5.04459 5.86393 5.4918 5.7074 5.67516 5.34069C5.85851 4.97397 5.71541 4.52228 5.33975 4.33446L1.34166 2.33541C0.974943 2.15205 0.518785 2.30411 0.335427 2.67082C0.15207 3.03754 0.304122 3.49369 0.670837 3.67705Z">
        </path>
        <path id="直线 8 (轮廓)" fill-rule="evenodd" style="fill:#131926" opacity="1"
          d="M5.34164 5.67615L9.33973 3.67711C9.71539 3.48928 9.8585 3.03759 9.67514 2.67088C9.49178 2.30416 9.04457 2.14764 8.66891 2.33547L4.67082 4.33451C4.30411 4.51787 4.15205 4.97403 4.33541 5.34074C4.51877 5.70746 4.97493 5.85951 5.34164 5.67615Z">
        </path>
      </g>
      <g opacity="1" transform="translate(13.9937744140625 12.994140625)  rotate(0)">
        <path id="直线 2 (轮廓)" fill-rule="evenodd" style="fill:#495AD4" opacity="1"
          d="M0.256226 3.00586L0.256226 8.00586C0.256226 8.41586 0.596226 8.75586 1.00623 8.75586C1.41623 8.75586 1.75623 8.41586 1.75623 8.00586L1.75623 3.00586C1.75623 2.59586 1.41623 2.25586 1.00623 2.25586C0.596226 2.25586 0.256226 2.59586 0.256226 3.00586Z">
        </path>
        <path id="直线 3 (轮廓)" fill-rule="evenodd" style="fill:#495AD4" opacity="1"
          d="M0.670837 8.67705L4.66893 10.6761C5.04459 10.8639 5.4918 10.7074 5.67516 10.3407C5.85851 9.97397 5.71541 9.52229 5.33975 9.33446L1.34166 7.33541C0.974943 7.15205 0.518785 7.30411 0.335427 7.67082C0.15207 8.03754 0.304122 8.49369 0.670837 8.67705Z">
        </path>
        <path id="直线 4 (轮廓)" fill-rule="evenodd" style="fill:#495AD4" opacity="1"
          d="M4.67084 1.67705L8.66893 3.6761C9.04459 3.86393 9.4918 3.7074 9.67516 3.34069C9.85851 2.97397 9.71541 2.52228 9.33975 2.33446L5.34166 0.33541C4.97494 0.152053 4.51878 0.304105 4.33543 0.67082C4.15207 1.03754 4.30412 1.49369 4.67084 1.67705Z">
        </path>
        <path id="直线 5 (轮廓)" fill-rule="evenodd" style="fill:#495AD4" opacity="1"
          d="M8.25623 3.00586L8.25623 8.00586C8.25623 8.41586 8.59623 8.75586 9.00623 8.75586C9.41623 8.75586 9.75623 8.41586 9.75623 8.00586L9.75623 3.00586C9.75623 2.59586 9.41623 2.25586 9.00623 2.25586C8.59623 2.25586 8.25623 2.59586 8.25623 3.00586Z">
        </path>
        <path id="直线 6 (轮廓)" fill-rule="evenodd" style="fill:#495AD4" opacity="1"
          d="M8.67081 7.33557L4.67272 9.33461C4.29706 9.52244 4.15395 9.97413 4.33731 10.3408C4.52067 10.7076 4.96788 10.8641 5.34354 10.6763L9.34163 8.67721C9.70835 8.49385 9.8604 8.03769 9.67704 7.67098C9.49368 7.30426 9.03753 7.15221 8.67081 7.33557Z">
        </path>
        <path id="直线 7 (轮廓)" fill-rule="evenodd" style="fill:#495AD4" opacity="1"
          d="M0.670837 3.67705L4.66893 5.6761C5.04459 5.86393 5.4918 5.7074 5.67516 5.34069C5.85851 4.97397 5.71541 4.52228 5.33975 4.33446L1.34166 2.33541C0.974943 2.15205 0.518785 2.30411 0.335427 2.67082C0.15207 3.03754 0.304122 3.49369 0.670837 3.67705Z">
        </path>
        <path id="直线 8 (轮廓)" fill-rule="evenodd" style="fill:#495AD4" opacity="1"
          d="M5.34164 5.67615L9.33973 3.67711C9.71539 3.48928 9.8585 3.03759 9.67514 2.67088C9.49178 2.30416 9.04457 2.14764 8.66891 2.33547L4.67082 4.33451C4.30411 4.51787 4.15205 4.97403 4.33541 5.34074C4.51877 5.70746 4.97493 5.85951 5.34164 5.67615Z">
        </path>
      </g>
    </g>
  </g>
  <defs>
    <rect id="path_0" x="0" y="0" width="30" height="30" />
  </defs>
</svg>