<svg xmlns="http://www.w3.org/2000/svg" xmlns:xlink="http://www.w3.org/1999/xlink" width="18" height="18" viewBox="0 0 18 18" fill="none"><path id="路径 1" fill-rule="evenodd" style="fill:#FF8D1A" opacity="1" d="M9,0c4.97,0 9,4.03 9,9c0,4.97 -4.03,9 -9,9c-4.97,0 -9,-4.03 -9,-9c0,-4.97 4.03,-9 9,-9zM9.72,14.39c0,-0.4 -0.32,-0.72 -0.72,-0.72c-0.4,0 -0.72,0.32 -0.72,0.72c0,0.4 0.32,0.72 0.72,0.72c0.4,0 0.72,-0.32 0.72,-0.72zM10.06,3.94c0,-0.59 -0.46,-1.05 -1.05,-1.05c-0.59,0 -1.05,0.47 -1.05,1.05c0,0.03 0,0.05 0,0.08l0.32,7.47c0,0.4 0.32,0.72 0.72,0.72c0.4,0 0.72,-0.32 0.72,-0.72l0.32,-7.47c0,-0.03 0.01,-0.06 0.02,-0.08z"></path></svg>