<svg xmlns="http://www.w3.org/2000/svg" xmlns:xlink="http://www.w3.org/1999/xlink" width="24" height="24"
  viewBox="0 0 24 24" fill="none">
  <g opacity="1" transform="translate(0 0)  rotate(0)">
    <g mask="url(#bg-mask-0)">
      <path id="直线 1 (轮廓)" fill-rule="evenodd" style="fill:#656A85" opacity="1"
        d="M6.19922 5.6C6.19922 5.56 6.19922 5.52 6.18922 5.48C6.17922 5.44 6.16922 5.41 6.14922 5.37C6.13922 5.33 6.11922 5.3 6.09922 5.27C6.07922 5.23 6.04922 5.2 6.01922 5.18C5.99922 5.15 5.96922 5.12 5.92922 5.1C5.89922 5.08 5.86922 5.06 5.82922 5.05C5.78922 5.03 5.75922 5.02 5.71922 5.01C5.67922 5 5.63922 5 5.59922 5C5.55922 5 5.51922 5 5.47922 5.01C5.43922 5.02 5.40922 5.03 5.36922 5.05C5.32922 5.06 5.29922 5.08 5.26922 5.1C5.22922 5.12 5.19922 5.15 5.17922 5.18C5.14922 5.2 5.11922 5.23 5.09922 5.27C5.07922 5.3 5.05922 5.33 5.04922 5.37C5.02922 5.41 5.01922 5.44 5.00922 5.48C4.99922 5.52 4.99922 5.56 4.99922 5.6L4.99922 18.4C4.99922 18.44 4.99922 18.48 5.00922 18.52C5.01922 18.56 5.02922 18.59 5.04922 18.63C5.05922 18.67 5.07922 18.7 5.09922 18.73C5.11922 18.77 5.14922 18.8 5.17922 18.82C5.19922 18.85 5.22922 18.88 5.26922 18.9C5.29922 18.92 5.32922 18.94 5.36922 18.95C5.40922 18.97 5.43922 18.98 5.47922 18.99C5.51922 19 5.55922 19 5.59922 19C5.63922 19 5.67922 19 5.71922 18.99C5.75922 18.98 5.78922 18.97 5.82922 18.95C5.86922 18.94 5.89922 18.92 5.92922 18.9C5.96922 18.88 5.99922 18.85 6.01922 18.82C6.04922 18.8 6.07922 18.77 6.09922 18.73C6.11922 18.7 6.13922 18.67 6.14922 18.63C6.16922 18.59 6.17922 18.56 6.18922 18.52C6.19922 18.48 6.19922 18.44 6.19922 18.4L6.19922 5.6Z">
      </path>
      <path id="直线 3 (轮廓)" fill-rule="evenodd" style="fill:#656A85" opacity="1"
        d="M8.00039 5C7.96039 5 7.92039 5 7.88039 5.01C7.84039 5.02 7.81039 5.03 7.77039 5.05C7.73039 5.06 7.70039 5.08 7.67039 5.1C7.63039 5.12 7.60039 5.15 7.58039 5.18C7.55039 5.2 7.52039 5.23 7.50039 5.27C7.48039 5.3 7.46039 5.33 7.45039 5.37C7.43039 5.41 7.42039 5.44 7.41039 5.48C7.40039 5.52 7.40039 5.56 7.40039 5.6C7.40039 5.64 7.40039 5.68 7.41039 5.72C7.42039 5.76 7.43039 5.79 7.45039 5.83C7.46039 5.87 7.48039 5.9 7.50039 5.93C7.52039 5.97 7.55039 6 7.58039 6.02C7.60039 6.05 7.63039 6.08 7.67039 6.1C7.70039 6.12 7.73039 6.14 7.77039 6.15C7.81039 6.17 7.84039 6.18 7.88039 6.19C7.92039 6.2 7.96039 6.2 8.00039 6.2L15.2004 6.2C15.2404 6.2 15.2804 6.2 15.3204 6.19C15.3604 6.18 15.3904 6.17 15.4304 6.15C15.4704 6.14 15.5004 6.12 15.5304 6.1C15.5704 6.08 15.6004 6.05 15.6204 6.02C15.6504 6 15.6804 5.97 15.7004 5.93C15.7204 5.9 15.7404 5.87 15.7504 5.83C15.7704 5.79 15.7804 5.76 15.7904 5.72C15.8004 5.68 15.8004 5.64 15.8004 5.6C15.8004 5.56 15.8004 5.52 15.7904 5.48C15.7804 5.44 15.7704 5.41 15.7504 5.37C15.7404 5.33 15.7204 5.3 15.7004 5.27C15.6804 5.23 15.6504 5.2 15.6204 5.18C15.6004 5.15 15.5704 5.12 15.5304 5.1C15.5004 5.08 15.4704 5.06 15.4304 5.05C15.3904 5.03 15.3604 5.02 15.3204 5.01C15.2804 5 15.2404 5 15.2004 5L8.00039 5Z">
      </path>
      <path id="直线 4 (轮廓)" fill-rule="evenodd" style="fill:#656A85" opacity="1"
        d="M19 8.79995C19 8.75995 19 8.71995 18.99 8.67995C18.98 8.63995 18.97 8.60995 18.95 8.56995C18.94 8.52995 18.92 8.49995 18.9 8.46995C18.88 8.42995 18.85 8.39995 18.82 8.37995C18.8 8.34995 18.77 8.31995 18.73 8.29995C18.7 8.27995 18.67 8.25995 18.63 8.24995C18.59 8.22995 18.56 8.21995 18.52 8.20995C18.48 8.19995 18.44 8.19995 18.4 8.19995C18.36 8.19995 18.32 8.19995 18.28 8.20995C18.24 8.21995 18.21 8.22995 18.17 8.24995C18.13 8.25995 18.1 8.27995 18.07 8.29995C18.03 8.31995 18 8.34995 17.98 8.37995C17.95 8.39995 17.92 8.42995 17.9 8.46995C17.88 8.49995 17.86 8.52995 17.85 8.56995C17.83 8.60995 17.82 8.63995 17.81 8.67995C17.8 8.71995 17.8 8.75995 17.8 8.79995L17.8 18.4C17.8 18.44 17.8 18.48 17.81 18.52C17.82 18.56 17.83 18.59 17.85 18.63C17.86 18.67 17.88 18.7 17.9 18.73C17.92 18.77 17.95 18.8 17.98 18.82C18 18.85 18.03 18.88 18.07 18.9C18.1 18.92 18.13 18.94 18.17 18.95C18.21 18.97 18.24 18.98 18.28 18.99C18.32 19 18.36 19 18.4 19C18.44 19 18.48 19 18.52 18.99C18.56 18.98 18.59 18.97 18.63 18.95C18.67 18.94 18.7 18.92 18.73 18.9C18.77 18.88 18.8 18.85 18.82 18.82C18.85 18.8 18.88 18.77 18.9 18.73C18.92 18.7 18.94 18.67 18.95 18.63C18.97 18.59 18.98 18.56 18.99 18.52C19 18.48 19 18.44 19 18.4L19 8.79995Z">
      </path>
      <path id="直线 5 (轮廓)" fill-rule="evenodd" style="fill:#656A85" opacity="1"
        d="M8.59961 5.6C8.59961 5.56 8.59961 5.52 8.58961 5.48C8.57961 5.44 8.56961 5.41 8.54961 5.37C8.53961 5.33 8.51961 5.3 8.49961 5.27C8.47961 5.23 8.44961 5.2 8.41961 5.18C8.39961 5.15 8.36961 5.12 8.32961 5.1C8.29961 5.08 8.26961 5.06 8.22961 5.05C8.18961 5.03 8.15961 5.02 8.11961 5.01C8.07961 5 8.03961 5 7.99961 5C7.95961 5 7.91961 5 7.87961 5.01C7.83961 5.02 7.80961 5.03 7.76961 5.05C7.72961 5.06 7.69961 5.08 7.66961 5.1C7.62961 5.12 7.59961 5.15 7.57961 5.18C7.54961 5.2 7.51961 5.23 7.49961 5.27C7.47961 5.3 7.45961 5.33 7.44961 5.37C7.42961 5.41 7.41961 5.44 7.40961 5.48C7.39961 5.52 7.39961 5.56 7.39961 5.6L7.39961 18.4C7.39961 18.44 7.39961 18.48 7.40961 18.52C7.41961 18.56 7.42961 18.59 7.44961 18.63C7.45961 18.67 7.47961 18.7 7.49961 18.73C7.51961 18.77 7.54961 18.8 7.57961 18.82C7.59961 18.85 7.62961 18.88 7.66961 18.9C7.69961 18.92 7.72961 18.94 7.76961 18.95C7.80961 18.97 7.83961 18.98 7.87961 18.99C7.91961 19 7.95961 19 7.99961 19C8.03961 19 8.07961 19 8.11961 18.99C8.15961 18.98 8.18961 18.97 8.22961 18.95C8.26961 18.94 8.29961 18.92 8.32961 18.9C8.36961 18.88 8.39961 18.85 8.41961 18.82C8.44961 18.8 8.47961 18.77 8.49961 18.73C8.51961 18.7 8.53961 18.67 8.54961 18.63C8.56961 18.59 8.57961 18.56 8.58961 18.52C8.59961 18.48 8.59961 18.44 8.59961 18.4L8.59961 5.6Z">
      </path>
      <path id="直线 6 (轮廓)" fill-rule="evenodd" style="fill:#656A85" opacity="1"
        d="M8.00039 17.8C7.96039 17.8 7.92039 17.8 7.88039 17.81C7.84039 17.82 7.81039 17.83 7.77039 17.85C7.73039 17.86 7.70039 17.88 7.67039 17.9C7.63039 17.92 7.60039 17.95 7.58039 17.98C7.55039 18 7.52039 18.03 7.50039 18.07C7.48039 18.1 7.46039 18.13 7.45039 18.17C7.43039 18.21 7.42039 18.24 7.41039 18.28C7.40039 18.32 7.40039 18.36 7.40039 18.4C7.40039 18.44 7.40039 18.48 7.41039 18.52C7.42039 18.56 7.43039 18.59 7.45039 18.63C7.46039 18.67 7.48039 18.7 7.50039 18.73C7.52039 18.77 7.55039 18.8 7.58039 18.82C7.60039 18.85 7.63039 18.88 7.67039 18.9C7.70039 18.92 7.73039 18.94 7.77039 18.95C7.81039 18.97 7.84039 18.98 7.88039 18.99C7.92039 19 7.96039 19 8.00039 19L18.4004 19C18.4404 19 18.4804 19 18.5204 18.99C18.5604 18.98 18.5904 18.97 18.6304 18.95C18.6704 18.94 18.7004 18.92 18.7304 18.9C18.7704 18.88 18.8004 18.85 18.8204 18.82C18.8504 18.8 18.8804 18.77 18.9004 18.73C18.9204 18.7 18.9404 18.67 18.9504 18.63C18.9704 18.59 18.9804 18.56 18.9904 18.52C19.0004 18.48 19.0004 18.44 19.0004 18.4C19.0004 18.36 19.0004 18.32 18.9904 18.28C18.9804 18.24 18.9704 18.21 18.9504 18.17C18.9404 18.13 18.9204 18.1 18.9004 18.07C18.8804 18.03 18.8504 18 18.8204 17.98C18.8004 17.95 18.7704 17.92 18.7304 17.9C18.7004 17.88 18.6704 17.86 18.6304 17.85C18.5904 17.83 18.5604 17.82 18.5204 17.81C18.4804 17.8 18.4404 17.8 18.4004 17.8L8.00039 17.8Z">
      </path>
      <path id="直线 7 (轮廓)" fill-rule="evenodd" style="fill:#656A85" opacity="1"
        d="M15.6235 5.17573C15.5952 5.14744 15.5669 5.11916 15.5316 5.09795C15.4962 5.07673 15.4679 5.06259 15.4255 5.04845C15.3901 5.02724 15.3548 5.02017 15.3194 5.01309C15.277 4.99895 15.2346 4.99895 15.1992 5.00602C15.1639 4.99895 15.1214 4.99895 15.079 5.01309C15.0437 5.02017 15.0083 5.02724 14.9729 5.04845C14.9305 5.06259 14.9022 5.07673 14.8669 5.09795C14.8315 5.11916 14.8032 5.14744 14.775 5.17573C14.7467 5.20401 14.7184 5.2323 14.6972 5.26765C14.676 5.30301 14.6618 5.33129 14.6477 5.37372C14.6265 5.40907 14.6194 5.44443 14.6123 5.47978C14.5982 5.52221 14.5982 5.56464 14.6052 5.59999C14.5982 5.63535 14.5982 5.67777 14.6123 5.7202C14.6194 5.75556 14.6265 5.79091 14.6477 5.82627C14.6618 5.86869 14.676 5.89698 14.6972 5.93233C14.7184 5.96769 14.7467 5.99597 14.775 6.02426L17.9781 9.22745C17.9994 9.24866 18.0276 9.27695 18.063 9.29816C18.0984 9.31937 18.1337 9.34059 18.1761 9.35473C18.2044 9.36887 18.2468 9.38301 18.2822 9.39009C18.3176 9.39716 18.36 9.39716 18.4024 9.39716C18.4378 9.40423 18.4731 9.39716 18.5156 9.38301C18.558 9.38301 18.5863 9.36887 18.6287 9.35473C18.664 9.33352 18.6994 9.32644 18.7277 9.29816C18.763 9.27695 18.7984 9.25573 18.8267 9.22745C18.855 9.19917 18.8762 9.16381 18.8974 9.12846C18.9257 9.10017 18.9327 9.06482 18.954 9.02946C18.9681 8.98703 18.9822 8.95875 18.9822 8.91632C18.9964 8.8739 19.0035 8.83854 18.9964 8.80319C18.9964 8.76076 18.9964 8.71833 18.9893 8.68298C18.9822 8.64762 18.9681 8.6052 18.954 8.57691C18.9398 8.53449 18.9186 8.49913 18.8974 8.46378C18.8762 8.42842 18.8479 8.40014 18.8267 8.37892L15.6235 5.17573Z">
      </path>
      <path id="直线 8 (轮廓)" fill-rule="evenodd" style="fill:#656A85" opacity="1"
        d="M15.8008 5.6C15.8008 5.56 15.8008 5.52 15.7908 5.48C15.7808 5.44 15.7708 5.41 15.7508 5.37C15.7408 5.33 15.7208 5.3 15.7008 5.27C15.6808 5.23 15.6508 5.2 15.6208 5.18C15.6008 5.15 15.5708 5.12 15.5308 5.1C15.5008 5.08 15.4708 5.06 15.4308 5.05C15.3908 5.03 15.3608 5.02 15.3208 5.01C15.2808 5 15.2408 5 15.2008 5C15.1608 5 15.1208 5 15.0808 5.01C15.0408 5.02 15.0108 5.03 14.9708 5.05C14.9308 5.06 14.9008 5.08 14.8708 5.1C14.8308 5.12 14.8008 5.15 14.7808 5.18C14.7508 5.2 14.7208 5.23 14.7008 5.27C14.6808 5.3 14.6608 5.33 14.6508 5.37C14.6308 5.41 14.6208 5.44 14.6108 5.48C14.6008 5.52 14.6008 5.56 14.6008 5.6L14.6008 8.8C14.6008 8.84 14.6008 8.88 14.6108 8.92C14.6208 8.96 14.6308 8.99 14.6508 9.03C14.6608 9.07 14.6808 9.1 14.7008 9.13C14.7208 9.17 14.7508 9.2 14.7808 9.22C14.8008 9.25 14.8308 9.28 14.8708 9.3C14.9008 9.32 14.9308 9.34 14.9708 9.35C15.0108 9.37 15.0408 9.38 15.0808 9.39C15.1208 9.4 15.1608 9.4 15.2008 9.4C15.2408 9.4 15.2808 9.4 15.3208 9.39C15.3608 9.38 15.3908 9.37 15.4308 9.35C15.4708 9.34 15.5008 9.32 15.5308 9.3C15.5708 9.28 15.6008 9.25 15.6208 9.22C15.6508 9.2 15.6808 9.17 15.7008 9.13C15.7208 9.1 15.7408 9.07 15.7508 9.03C15.7708 8.99 15.7808 8.96 15.7908 8.92C15.8008 8.88 15.8008 8.84 15.8008 8.8L15.8008 5.6Z">
      </path>
      <path id="直线 9 (轮廓)" fill-rule="evenodd" style="fill:#656A85" opacity="1"
        d="M15.1996 8.19995C15.1596 8.19995 15.1196 8.19995 15.0796 8.20995C15.0396 8.21995 15.0096 8.22995 14.9696 8.24995C14.9296 8.25995 14.8996 8.27995 14.8696 8.29995C14.8296 8.31995 14.7996 8.34995 14.7796 8.37995C14.7496 8.39995 14.7196 8.42995 14.6996 8.46995C14.6796 8.49995 14.6596 8.52995 14.6496 8.56995C14.6296 8.60995 14.6196 8.63995 14.6096 8.67995C14.5996 8.71995 14.5996 8.75995 14.5996 8.79995C14.5996 8.83995 14.5996 8.87995 14.6096 8.91995C14.6196 8.95995 14.6296 8.98995 14.6496 9.02995C14.6596 9.06995 14.6796 9.09995 14.6996 9.12995C14.7196 9.16995 14.7496 9.19995 14.7796 9.21995C14.7996 9.24995 14.8296 9.27995 14.8696 9.29995C14.8996 9.31995 14.9296 9.33995 14.9696 9.34995C15.0096 9.36995 15.0396 9.37995 15.0796 9.38995C15.1196 9.39995 15.1596 9.39995 15.1996 9.39995L18.3996 9.39995C18.4396 9.39995 18.4796 9.39995 18.5196 9.38995C18.5596 9.37995 18.5896 9.36995 18.6296 9.34995C18.6696 9.33995 18.6996 9.31995 18.7296 9.29995C18.7696 9.27995 18.7996 9.24995 18.8196 9.21995C18.8496 9.19995 18.8796 9.16995 18.8996 9.12995C18.9196 9.09995 18.9396 9.06995 18.9496 9.02995C18.9696 8.98995 18.9796 8.95995 18.9896 8.91995C18.9996 8.87995 18.9996 8.83995 18.9996 8.79995C18.9996 8.75995 18.9996 8.71995 18.9896 8.67995C18.9796 8.63995 18.9696 8.60995 18.9496 8.56995C18.9396 8.52995 18.9196 8.49995 18.8996 8.46995C18.8796 8.42995 18.8496 8.39995 18.8196 8.37995C18.7996 8.34995 18.7696 8.31995 18.7296 8.29995C18.6996 8.27995 18.6696 8.25995 18.6296 8.24995C18.5896 8.22995 18.5596 8.21995 18.5196 8.20995C18.4796 8.19995 18.4396 8.19995 18.3996 8.19995L15.1996 8.19995Z">
      </path>
      <g opacity="1" transform="translate(9.193359375 10.39501953125)  rotate(0)">
        <path id="直线 2 (轮廓)" fill-rule="evenodd" style="fill:#495AD4" opacity="1"
          d="M1.34255 0.536656C1.32466 0.500879 1.30677 0.465102 1.27994 0.433797C1.2531 0.402492 1.23074 0.380132 1.19497 0.353299C1.16813 0.321994 1.13683 0.304105 1.10552 0.286217C1.06975 0.259384 1.0295 0.245967 0.99372 0.241495C0.962415 0.223607 0.922166 0.21019 0.877445 0.21019C0.841668 0.205718 0.805891 0.201246 0.765641 0.21019C0.72092 0.21019 0.689615 0.214663 0.649366 0.223607C0.609116 0.232551 0.573339 0.25044 0.537562 0.268328C0.501785 0.286217 0.466008 0.304105 0.434703 0.330938C0.403398 0.357771 0.381037 0.380132 0.354205 0.415909C0.3229 0.442742 0.305011 0.474046 0.287123 0.505351C0.26029 0.541129 0.246873 0.581378 0.242401 0.617155C0.224513 0.64846 0.211096 0.688709 0.211096 0.73343C0.206624 0.769207 0.202152 0.804985 0.211096 0.845234C0.211096 0.889955 0.215568 0.92126 0.224513 0.961509C0.233457 1.00176 0.251345 1.03754 0.269234 1.07331L1.87026 4.27536C1.88815 4.31114 1.90604 4.34692 1.9284 4.36928C1.95523 4.40058 1.98206 4.43189 2.01784 4.45872C2.0402 4.48108 2.07598 4.50791 2.10728 4.5258C2.13859 4.54369 2.17884 4.55711 2.21909 4.57052C2.25039 4.58841 2.28617 4.59288 2.33536 4.60183C2.37114 4.6063 2.40691 4.61077 2.44716 4.60183C2.49189 4.60183 2.52319 4.59736 2.56344 4.58841C2.59922 4.57052 2.63947 4.56158 2.67524 4.54369C2.71102 4.5258 2.74233 4.49897 2.7781 4.48108C2.80941 4.45425 2.83177 4.43189 2.8586 4.39611C2.88991 4.36928 2.90779 4.33797 2.92568 4.30667C2.94804 4.26194 2.96593 4.23064 2.9704 4.19486C2.98382 4.15461 2.99724 4.11436 3.00171 4.07859C3.00618 4.04281 3.00618 3.99809 3.00171 3.96678C3.00171 3.92206 2.99276 3.88181 2.98382 3.84156C2.97935 3.81026 2.96146 3.77448 2.94357 3.7387L1.34255 0.536656Z">
        </path>
        <path id="直线 10 (轮廓)" fill-rule="evenodd" style="fill:#495AD4" opacity="1"
          d="M1.86989 3.73666C1.852 3.77244 1.83411 3.80821 1.82517 3.84846C1.81623 3.88871 1.81175 3.92002 1.81175 3.96474C1.80281 4.00499 1.80728 4.04076 1.81175 4.07654C1.81175 4.12126 1.82517 4.16151 1.84306 4.19282C1.84753 4.22859 1.86095 4.26884 1.88778 4.30462C1.90567 4.33593 1.92356 4.36723 1.95486 4.39406C1.98169 4.42984 2.00405 4.4522 2.03536 4.47903C2.06666 4.50587 2.10244 4.52376 2.13822 4.54164C2.174 4.55953 2.20977 4.57742 2.25002 4.58636C2.29027 4.59531 2.32158 4.59978 2.3663 4.59978C2.40655 4.60873 2.44232 4.60425 2.4781 4.59978C2.52282 4.59978 2.56307 4.58636 2.59438 4.56848C2.63015 4.564 2.6704 4.55059 2.70618 4.52375C2.73748 4.50587 2.76879 4.48798 2.79562 4.45667C2.8314 4.42984 2.85376 4.40748 2.88059 4.37617C2.90743 4.34487 2.92531 4.30909 2.9432 4.27331L4.54423 1.07127C4.56212 1.03549 4.58 0.999711 4.58448 0.968406C4.59342 0.928157 4.60236 0.887908 4.60237 0.843187C4.60684 0.811882 4.60684 0.76716 4.60237 0.731383C4.59789 0.695606 4.58448 0.655357 4.57106 0.615108C4.56659 0.57933 4.5487 0.548026 4.52634 0.503304C4.50845 0.471999 4.49056 0.440695 4.45926 0.413862C4.43242 0.378084 4.41006 0.355724 4.37876 0.328891C4.34298 0.311002 4.31168 0.284169 4.2759 0.266281C4.24012 0.248392 4.19987 0.239449 4.1641 0.22156C4.12385 0.212615 4.09254 0.208143 4.04782 0.208143C4.00757 0.199199 3.97179 0.203671 3.93602 0.208144C3.88682 0.217088 3.85105 0.22156 3.81974 0.239449C3.77949 0.252865 3.73924 0.266282 3.70794 0.28417C3.67663 0.302059 3.64086 0.328891 3.6185 0.351252C3.58272 0.378085 3.55589 0.40939 3.52905 0.440695C3.50669 0.463055 3.4888 0.498833 3.47092 0.53461L1.86989 3.73666Z">
        </path>
        <path id="直线 11 (轮廓)" fill-rule="evenodd" style="fill:#495AD4" opacity="1"
          d="M4.54372 0.536656C4.52583 0.500879 4.50794 0.465102 4.48111 0.433797C4.45428 0.402492 4.43192 0.380132 4.39614 0.353299C4.36931 0.321994 4.338 0.304105 4.3067 0.286217C4.27092 0.259384 4.23067 0.245967 4.19489 0.241495C4.16359 0.223607 4.12334 0.21019 4.07862 0.21019C4.04284 0.205718 4.00706 0.201246 3.96681 0.21019C3.92209 0.21019 3.89079 0.214663 3.85054 0.223607C3.81029 0.232551 3.77451 0.25044 3.73873 0.268328C3.70296 0.286217 3.66718 0.304105 3.63587 0.330938C3.60457 0.357771 3.58221 0.380132 3.55538 0.415909C3.52407 0.442742 3.50618 0.474046 3.48829 0.505351C3.46146 0.541129 3.44805 0.581378 3.44357 0.617155C3.42568 0.64846 3.41227 0.688709 3.41227 0.73343C3.4078 0.769207 3.40332 0.804985 3.41227 0.845234C3.41227 0.889955 3.41674 0.92126 3.42568 0.961509C3.43463 1.00176 3.45252 1.03754 3.47041 1.07331L5.07143 4.27536C5.08932 4.31114 5.10721 4.34692 5.12957 4.36928C5.1564 4.40058 5.18323 4.43189 5.21901 4.45872C5.24137 4.48108 5.27715 4.50791 5.30845 4.5258C5.33976 4.54369 5.38001 4.55711 5.42026 4.57052C5.45156 4.58841 5.48734 4.59288 5.53653 4.60183C5.57231 4.6063 5.60809 4.61077 5.64834 4.60183C5.69306 4.60183 5.72436 4.59736 5.76461 4.58841C5.80039 4.57052 5.84064 4.56158 5.87641 4.54369C5.91219 4.5258 5.9435 4.49897 5.97927 4.48108C6.01058 4.45425 6.03294 4.43189 6.05977 4.39611C6.09108 4.36928 6.10897 4.33797 6.12685 4.30667C6.14922 4.26194 6.1671 4.23064 6.17158 4.19486C6.18499 4.15461 6.19841 4.11436 6.20288 4.07859C6.20735 4.04281 6.20735 3.99809 6.20288 3.96678C6.20288 3.92206 6.19394 3.88181 6.18499 3.84156C6.18052 3.81026 6.16263 3.77448 6.14474 3.7387L4.54372 0.536656Z">
        </path>
        <path id="直线 12 (轮廓)" fill-rule="evenodd" style="fill:#495AD4" opacity="1"
          d="M5.06911 3.73666C5.05122 3.77244 5.03333 3.80821 5.02439 3.84846C5.01544 3.88871 5.01097 3.92002 5.01097 3.96474C5.00203 4.00499 5.0065 4.04076 5.01097 4.07654C5.01097 4.12126 5.02439 4.16151 5.04228 4.19282C5.04675 4.22859 5.06016 4.26884 5.087 4.30462C5.10489 4.33593 5.12278 4.36723 5.15408 4.39406C5.18091 4.42984 5.20327 4.4522 5.23458 4.47903C5.26588 4.50587 5.30166 4.52376 5.33744 4.54164C5.37321 4.55953 5.40899 4.57742 5.44924 4.58636C5.48949 4.59531 5.52079 4.59978 5.56552 4.59978C5.60577 4.60873 5.64154 4.60425 5.67732 4.59978C5.72204 4.59978 5.76229 4.58636 5.7936 4.56848C5.82937 4.564 5.86962 4.55059 5.9054 4.52376C5.9367 4.50587 5.96801 4.48798 5.99484 4.45667C6.03062 4.42984 6.05298 4.40748 6.07981 4.37617C6.10665 4.34487 6.12453 4.30909 6.14242 4.27332L7.74345 1.07127C7.76134 1.03549 7.77922 0.999712 7.7837 0.968407C7.79264 0.928157 7.80158 0.887908 7.80158 0.843187C7.80606 0.811882 7.80606 0.767161 7.80158 0.731384C7.79711 0.695607 7.7837 0.655357 7.77028 0.615108C7.76581 0.579331 7.74792 0.548026 7.72556 0.503305C7.70767 0.472 7.68978 0.440695 7.65848 0.413862C7.63164 0.378085 7.60928 0.355724 7.57798 0.328891C7.5422 0.311003 7.5109 0.28417 7.47512 0.266281C7.43934 0.248393 7.39909 0.239449 7.36332 0.22156C7.32307 0.212615 7.29176 0.208144 7.24704 0.208144C7.20679 0.1992 7.17101 0.203671 7.13524 0.208144C7.08604 0.217088 7.05027 0.22156 7.01896 0.239449C6.97871 0.252865 6.93846 0.266282 6.90716 0.28417C6.87585 0.302059 6.84008 0.328891 6.81771 0.351252C6.78194 0.378085 6.75511 0.40939 6.72827 0.440695C6.70591 0.463055 6.68802 0.498833 6.67013 0.53461L5.06911 3.73666Z">
        </path>
      </g>
    </g>
  </g>
  <defs>
    <rect id="path_0" x="0" y="0" width="24" height="24" />
  </defs>
</svg>