<svg xmlns="http://www.w3.org/2000/svg" xmlns:xlink="http://www.w3.org/1999/xlink" width="24" height="24"
  viewBox="0 0 24 24" fill="none">
  <g opacity="1" transform="translate(0 0)  rotate(0)">
    <mask id="bg-mask-0" fill="white">
      <use transform="translate(0 0)  rotate(0)" xlink:href="#path_0"></use>
    </mask>
    <g mask="url(#bg-mask-0)">
      <path id="直线 1 (轮廓)" fill-rule="evenodd" style="fill:#28D5CB" opacity="1"
        d="M13.8008 12C13.8008 12.04 13.8008 12.08 13.8108 12.12C13.8208 12.16 13.8308 12.19 13.8508 12.23C13.8608 12.27 13.8808 12.3 13.9008 12.33C13.9208 12.37 13.9508 12.4 13.9808 12.42C14.0008 12.45 14.0308 12.48 14.0708 12.5C14.1008 12.52 14.1308 12.54 14.1708 12.55C14.2108 12.57 14.2408 12.58 14.2808 12.59C14.3208 12.6 14.3608 12.6 14.4008 12.6C14.4408 12.6 14.4808 12.6 14.5208 12.59C14.5608 12.58 14.5908 12.57 14.6308 12.55C14.6708 12.54 14.7008 12.52 14.7308 12.5C14.7708 12.48 14.8008 12.45 14.8208 12.42C14.8508 12.4 14.8808 12.37 14.9008 12.33C14.9208 12.3 14.9408 12.27 14.9508 12.23C14.9708 12.19 14.9808 12.16 14.9908 12.12C15.0008 12.08 15.0008 12.04 15.0008 12L15.0008 10.4C15.0008 10.36 15.0008 10.32 14.9908 10.28C14.9808 10.24 14.9708 10.21 14.9508 10.17C14.9408 10.13 14.9208 10.1 14.9008 10.07C14.8808 10.03 14.8508 9.99998 14.8208 9.97998C14.8008 9.94998 14.7708 9.91998 14.7308 9.89998C14.7008 9.87998 14.6708 9.85998 14.6308 9.84998C14.5908 9.82998 14.5608 9.81998 14.5208 9.80998C14.4808 9.79998 14.4408 9.79998 14.4008 9.79998C14.3608 9.79998 14.3208 9.79998 14.2808 9.80998C14.2408 9.81998 14.2108 9.82998 14.1708 9.84998C14.1308 9.85998 14.1008 9.87998 14.0708 9.89998C14.0308 9.91998 14.0008 9.94998 13.9808 9.97998C13.9508 9.99998 13.9208 10.03 13.9008 10.07C13.8808 10.1 13.8608 10.13 13.8508 10.17C13.8308 10.21 13.8208 10.24 13.8108 10.28C13.8008 10.32 13.8008 10.36 13.8008 10.4L13.8008 12Z">
      </path>
      <path id="圆形 1 (轮廓)" fill-rule="evenodd" style="fill:#28D5CB" opacity="1"
        d="M15.3992 9.60002C15.3992 9.64002 15.3992 9.68002 15.4092 9.72002C15.4192 9.76002 15.4292 9.79002 15.4492 9.83002C15.4592 9.87002 15.4792 9.90002 15.4992 9.93002C15.5192 9.97002 15.5492 10 15.5792 10.02C15.5992 10.05 15.6292 10.08 15.6692 10.1C15.6992 10.12 15.7292 10.14 15.7692 10.15C15.8092 10.17 15.8392 10.18 15.8792 10.19C15.9192 10.2 15.9592 10.2 15.9992 10.2C16.0392 10.2 16.0792 10.2 16.1192 10.19C16.1592 10.18 16.1892 10.17 16.2292 10.15C16.2692 10.14 16.2992 10.12 16.3292 10.1C16.3692 10.08 16.3992 10.05 16.4192 10.02C16.4492 10 16.4792 9.97002 16.4992 9.93002C16.5192 9.90002 16.5392 9.87002 16.5492 9.83002C16.5692 9.79002 16.5792 9.76002 16.5892 9.72002C16.5992 9.68002 16.5992 9.64002 16.5992 9.60002C16.5992 9.30002 16.5392 9.02002 16.4292 8.74002C16.3092 8.48002 16.1592 8.25002 15.9492 8.05002C15.7492 7.84002 15.5192 7.69002 15.2592 7.57002C14.9792 7.46002 14.6992 7.40002 14.3992 7.40002C14.0992 7.40002 13.8192 7.46002 13.5392 7.57002C13.2792 7.69002 13.0492 7.84002 12.8492 8.05002C12.6392 8.25002 12.4892 8.48002 12.3692 8.74002C12.2592 9.02002 12.1992 9.30002 12.1992 9.60002C12.1992 9.64002 12.1992 9.68002 12.2092 9.72002C12.2192 9.76002 12.2292 9.79002 12.2492 9.83002C12.2592 9.87002 12.2792 9.90002 12.2992 9.93002C12.3192 9.97002 12.3492 10 12.3792 10.02C12.3992 10.05 12.4292 10.08 12.4692 10.1C12.4992 10.12 12.5292 10.14 12.5692 10.15C12.6092 10.17 12.6392 10.18 12.6792 10.19C12.7192 10.2 12.7592 10.2 12.7992 10.2C12.8792 10.2 12.9592 10.18 13.0292 10.15C13.0992 10.12 13.1692 10.08 13.2192 10.02C13.2792 9.97002 13.3192 9.90002 13.3492 9.83002C13.3792 9.76002 13.3992 9.68002 13.3992 9.60002C13.3992 9.33002 13.4992 9.09002 13.6892 8.89002C13.8892 8.70002 14.1292 8.60002 14.3992 8.60002C14.6692 8.60002 14.9092 8.70002 15.1092 8.89002C15.2992 9.09002 15.3992 9.33002 15.3992 9.60002Z">
      </path>
      <path id="圆形 1 (轮廓)" fill-rule="evenodd" style="fill:#28D5CB" opacity="1"
        d="M17.8008 9.6C17.8008 9.64 17.8008 9.68 17.8108 9.72C17.8208 9.76 17.8308 9.79 17.8508 9.83C17.8608 9.87 17.8808 9.9 17.9008 9.93C17.9208 9.97 17.9508 10 17.9808 10.02C18.0008 10.05 18.0308 10.08 18.0708 10.1C18.1008 10.12 18.1308 10.14 18.1708 10.15C18.2108 10.17 18.2408 10.18 18.2808 10.19C18.3208 10.2 18.3608 10.2 18.4008 10.2C18.4408 10.2 18.4808 10.2 18.5208 10.19C18.5608 10.18 18.5908 10.17 18.6308 10.15C18.6708 10.14 18.7008 10.12 18.7308 10.1C18.7708 10.08 18.8008 10.05 18.8208 10.02C18.8508 10 18.8808 9.97 18.9008 9.93C18.9208 9.9 18.9408 9.87 18.9508 9.83C18.9708 9.79 18.9808 9.76 18.9908 9.72C19.0008 9.68 19.0008 9.64 19.0008 9.6C19.0008 8.98 18.8808 8.38 18.6408 7.81C18.4108 7.26 18.0808 6.77 17.6508 6.35C17.2308 5.92 16.7408 5.59 16.1908 5.36C15.6208 5.12 15.0208 5 14.4008 5C13.7808 5 13.1808 5.12 12.6108 5.36C12.0608 5.59 11.5708 5.92 11.1508 6.35C10.7208 6.77 10.3908 7.26 10.1608 7.81C9.92078 8.38 9.80078 8.98 9.80078 9.6L9.80078 9.6C9.80078 9.64 9.80078 9.68 9.81078 9.72C9.82078 9.76 9.83078 9.79 9.85078 9.83C9.86078 9.87 9.88078 9.9 9.90078 9.93C9.92078 9.97 9.95078 10 9.98078 10.02C10.0008 10.05 10.0308 10.08 10.0708 10.1C10.1008 10.12 10.1308 10.14 10.1708 10.15C10.2108 10.17 10.2408 10.18 10.2808 10.19C10.3208 10.2 10.3608 10.2 10.4008 10.2C10.4408 10.2 10.4808 10.2 10.5208 10.19C10.5608 10.18 10.5908 10.17 10.6308 10.15C10.6708 10.14 10.7008 10.12 10.7308 10.1C10.7708 10.08 10.8008 10.05 10.8208 10.02C10.8508 10 10.8808 9.97 10.9008 9.93C10.9208 9.9 10.9408 9.87 10.9508 9.83C10.9708 9.79 10.9808 9.76 10.9908 9.72C11.0008 9.68 11.0008 9.64 11.0008 9.6C11.0008 9.14 11.0908 8.7 11.2708 8.28C11.4408 7.87 11.6808 7.51 12.0008 7.2C12.3108 6.88 12.6708 6.64 13.0808 6.47C13.5008 6.29 13.9408 6.2 14.4008 6.2C14.8608 6.2 15.3008 6.29 15.7208 6.47C16.1308 6.64 16.4908 6.88 16.8008 7.2C17.1208 7.51 17.3608 7.87 17.5308 8.28C17.7108 8.7 17.8008 9.14 17.8008 9.6Z">
      </path>
      <path id="直线 2 (轮廓)" fill-rule="evenodd" style="fill:#28D5CB" opacity="1"
        d="M8.00039 14.6C7.96039 14.6 7.92039 14.6 7.88039 14.61C7.84039 14.62 7.81039 14.63 7.77039 14.65C7.73039 14.66 7.70039 14.68 7.67039 14.7C7.63039 14.72 7.60039 14.75 7.58039 14.78C7.55039 14.8 7.52039 14.83 7.50039 14.87C7.48039 14.9 7.46039 14.93 7.45039 14.97C7.43039 15.01 7.42039 15.04 7.41039 15.08C7.40039 15.12 7.40039 15.16 7.40039 15.2C7.40039 15.24 7.40039 15.28 7.41039 15.32C7.42039 15.36 7.43039 15.39 7.45039 15.43C7.46039 15.47 7.48039 15.5 7.50039 15.53C7.52039 15.57 7.55039 15.6 7.58039 15.62C7.60039 15.65 7.63039 15.68 7.67039 15.7C7.70039 15.72 7.73039 15.74 7.77039 15.75C7.81039 15.77 7.84039 15.78 7.88039 15.79C7.92039 15.8 7.96039 15.8 8.00039 15.8L8.80039 15.8C8.84039 15.8 8.88039 15.8 8.92039 15.79C8.96039 15.78 8.99039 15.77 9.03039 15.75C9.07039 15.74 9.10039 15.72 9.13039 15.7C9.17039 15.68 9.20039 15.65 9.22039 15.62C9.25039 15.6 9.28039 15.57 9.30039 15.53C9.32039 15.5 9.34039 15.47 9.35039 15.43C9.37039 15.39 9.38039 15.36 9.39039 15.32C9.40039 15.28 9.40039 15.24 9.40039 15.2C9.40039 15.16 9.40039 15.12 9.39039 15.08C9.38039 15.04 9.37039 15.01 9.35039 14.97C9.34039 14.93 9.32039 14.9 9.30039 14.87C9.28039 14.83 9.25039 14.8 9.22039 14.78C9.20039 14.75 9.17039 14.72 9.13039 14.7C9.10039 14.68 9.07039 14.66 9.03039 14.65C8.99039 14.63 8.96039 14.62 8.92039 14.61C8.88039 14.6 8.84039 14.6 8.80039 14.6L8.00039 14.6Z">
      </path>
      <path id="直线 3 (轮廓)" fill-rule="evenodd" style="fill:#28D5CB" opacity="1"
        d="M11.1996 14.6C11.1596 14.6 11.1196 14.6 11.0796 14.61C11.0396 14.62 11.0096 14.63 10.9696 14.65C10.9296 14.66 10.8996 14.68 10.8696 14.7C10.8296 14.72 10.7996 14.75 10.7796 14.78C10.7496 14.8 10.7196 14.83 10.6996 14.87C10.6796 14.9 10.6596 14.93 10.6496 14.97C10.6296 15.01 10.6196 15.04 10.6096 15.08C10.5996 15.12 10.5996 15.16 10.5996 15.2C10.5996 15.24 10.5996 15.28 10.6096 15.32C10.6196 15.36 10.6296 15.39 10.6496 15.43C10.6596 15.47 10.6796 15.5 10.6996 15.53C10.7196 15.57 10.7496 15.6 10.7796 15.62C10.7996 15.65 10.8296 15.68 10.8696 15.7C10.8996 15.72 10.9296 15.74 10.9696 15.75C11.0096 15.77 11.0396 15.78 11.0796 15.79C11.1196 15.8 11.1596 15.8 11.1996 15.8L13.5996 15.8C13.6396 15.8 13.6796 15.8 13.7196 15.79C13.7596 15.78 13.7896 15.77 13.8296 15.75C13.8696 15.74 13.8996 15.72 13.9296 15.7C13.9696 15.68 13.9996 15.65 14.0196 15.62C14.0496 15.6 14.0796 15.57 14.0996 15.53C14.1196 15.5 14.1396 15.47 14.1496 15.43C14.1696 15.39 14.1796 15.36 14.1896 15.32C14.1996 15.28 14.1996 15.24 14.1996 15.2C14.1996 15.16 14.1996 15.12 14.1896 15.08C14.1796 15.04 14.1696 15.01 14.1496 14.97C14.1396 14.93 14.1196 14.9 14.0996 14.87C14.0796 14.83 14.0496 14.8 14.0196 14.78C13.9996 14.75 13.9696 14.72 13.9296 14.7C13.8996 14.68 13.8696 14.66 13.8296 14.65C13.7896 14.63 13.7596 14.62 13.7196 14.61C13.6796 14.6 13.6396 14.6 13.5996 14.6L11.1996 14.6Z">
      </path>
      <path id="矩形 2 (轮廓)" fill-rule="evenodd" style="fill:#28D5CB" opacity="1"
        d="M5,18.4v-6.4c0,-0.04 0,-0.08 0.01,-0.12c0.01,-0.04 0.02,-0.07 0.04,-0.11c0.01,-0.04 0.03,-0.07 0.05,-0.1c0.02,-0.04 0.05,-0.07 0.08,-0.09c0.02,-0.03 0.05,-0.06 0.09,-0.08c0.03,-0.02 0.06,-0.04 0.1,-0.05c0.04,-0.02 0.07,-0.03 0.11,-0.04c0.04,-0.01 0.08,-0.01 0.12,-0.01h12.8c0.04,0 0.08,0 0.12,0.01c0.04,0.01 0.07,0.02 0.11,0.04c0.04,0.01 0.07,0.03 0.1,0.05c0.04,0.02 0.07,0.05 0.09,0.08c0.03,0.02 0.06,0.05 0.08,0.09c0.02,0.03 0.04,0.06 0.05,0.1c0.02,0.04 0.03,0.07 0.04,0.11c0.01,0.04 0.01,0.08 0.01,0.12v6.4c0,0.04 0,0.08 -0.01,0.12c-0.01,0.04 -0.02,0.07 -0.04,0.11c-0.01,0.04 -0.03,0.07 -0.05,0.1c-0.02,0.04 -0.05,0.07 -0.08,0.09c-0.02,0.03 -0.05,0.06 -0.09,0.08c-0.03,0.02 -0.06,0.04 -0.1,0.05c-0.04,0.02 -0.07,0.03 -0.11,0.04c-0.04,0.01 -0.08,0.01 -0.12,0.01h-12.8c-0.04,0 -0.08,0 -0.12,-0.01c-0.04,-0.01 -0.07,-0.02 -0.11,-0.04c-0.04,-0.01 -0.07,-0.03 -0.1,-0.05c-0.04,-0.02 -0.07,-0.05 -0.09,-0.08c-0.03,-0.02 -0.06,-0.05 -0.08,-0.09c-0.02,-0.03 -0.04,-0.06 -0.05,-0.1c-0.02,-0.04 -0.03,-0.07 -0.04,-0.11c-0.01,-0.04 -0.01,-0.08 -0.01,-0.12zM6.2,12.6v5.2h11.6v-5.2z">
      </path>
    </g>
  </g>
  <defs>
    <rect id="path_0" x="0" y="0" width="24" height="24" />
  </defs>
</svg>