<svg xmlns="http://www.w3.org/2000/svg" xmlns:xlink="http://www.w3.org/1999/xlink" width="24" height="24"
  viewBox="0 0 24 24" fill="none">
  <g opacity="1" transform="translate(0 0)  rotate(0)">
    <g mask="url(#bg-mask-0)">
      <g opacity="1" transform="translate(6.25 6.25)  rotate(0)">
        <path id="直线 3 (轮廓)" fill-rule="evenodd" style="fill:#495AD4" opacity="1"
          d="M1.75039 1.15002C1.71039 1.15002 1.67039 1.15002 1.63039 1.16002C1.59039 1.17002 1.56039 1.18002 1.52039 1.20002C1.48039 1.21002 1.45039 1.23002 1.42039 1.25002C1.38039 1.27002 1.35039 1.30002 1.33039 1.33002C1.30039 1.35002 1.27039 1.38002 1.25039 1.42002C1.23039 1.45002 1.21039 1.48002 1.20039 1.52002C1.18039 1.56002 1.17039 1.59002 1.16039 1.63002C1.15039 1.67002 1.15039 1.71002 1.15039 1.75002C1.15039 1.79002 1.15039 1.83002 1.16039 1.87002C1.17039 1.91002 1.18039 1.94002 1.20039 1.98002C1.21039 2.02002 1.23039 2.05002 1.25039 2.08002C1.27039 2.12002 1.30039 2.15002 1.33039 2.17002C1.35039 2.20002 1.38039 2.23002 1.42039 2.25002C1.45039 2.27002 1.48039 2.29002 1.52039 2.30002C1.56039 2.32002 1.59039 2.33002 1.63039 2.34002C1.67039 2.35002 1.71039 2.35002 1.75039 2.35002L5.75039 2.35002C5.79039 2.35002 5.83039 2.35002 5.87039 2.34002C5.91039 2.33002 5.94039 2.32002 5.98039 2.30002C6.02039 2.29002 6.05039 2.27002 6.08039 2.25002C6.12039 2.23002 6.15039 2.20002 6.17039 2.17002C6.20039 2.15002 6.23039 2.12002 6.25039 2.08002C6.27039 2.05002 6.29039 2.02002 6.30039 1.98002C6.32039 1.94002 6.33039 1.91002 6.34039 1.87002C6.35039 1.83002 6.35039 1.79002 6.35039 1.75002C6.35039 1.71002 6.35039 1.67002 6.34039 1.63002C6.33039 1.59002 6.32039 1.56002 6.30039 1.52002C6.29039 1.48002 6.27039 1.45002 6.25039 1.42002C6.23039 1.38002 6.20039 1.35002 6.17039 1.33002C6.15039 1.30002 6.12039 1.27002 6.08039 1.25002C6.05039 1.23002 6.02039 1.21002 5.98039 1.20002C5.94039 1.18002 5.91039 1.17002 5.87039 1.16002C5.83039 1.15002 5.79039 1.15002 5.75039 1.15002L1.75039 1.15002Z">
        </path>
        <path id="直线 3 (轮廓)" fill-rule="evenodd" style="fill:#495AD4" opacity="1"
          d="M1.75039 9.15002C1.71039 9.15002 1.67039 9.15002 1.63039 9.16002C1.59039 9.17002 1.56039 9.18002 1.52039 9.20002C1.48039 9.21002 1.45039 9.23002 1.42039 9.25002C1.38039 9.27002 1.35039 9.30002 1.33039 9.33002C1.30039 9.35002 1.27039 9.38002 1.25039 9.42002C1.23039 9.45002 1.21039 9.48002 1.20039 9.52002C1.18039 9.56002 1.17039 9.59002 1.16039 9.63002C1.15039 9.67002 1.15039 9.71002 1.15039 9.75002C1.15039 9.79002 1.15039 9.83002 1.16039 9.87002C1.17039 9.91002 1.18039 9.94002 1.20039 9.98002C1.21039 10.02 1.23039 10.05 1.25039 10.08C1.27039 10.12 1.30039 10.15 1.33039 10.17C1.35039 10.2 1.38039 10.23 1.42039 10.25C1.45039 10.27 1.48039 10.29 1.52039 10.3C1.56039 10.32 1.59039 10.33 1.63039 10.34C1.67039 10.35 1.71039 10.35 1.75039 10.35L5.75039 10.35C5.79039 10.35 5.83039 10.35 5.87039 10.34C5.91039 10.33 5.94039 10.32 5.98039 10.3C6.02039 10.29 6.05039 10.27 6.08039 10.25C6.12039 10.23 6.15039 10.2 6.17039 10.17C6.20039 10.15 6.23039 10.12 6.25039 10.08C6.27039 10.05 6.29039 10.02 6.30039 9.98002C6.32039 9.94002 6.33039 9.91002 6.34039 9.87002C6.35039 9.83002 6.35039 9.79002 6.35039 9.75002C6.35039 9.71002 6.35039 9.67002 6.34039 9.63002C6.33039 9.59002 6.32039 9.56002 6.30039 9.52002C6.29039 9.48002 6.27039 9.45002 6.25039 9.42002C6.23039 9.38002 6.20039 9.35002 6.17039 9.33002C6.15039 9.30002 6.12039 9.27002 6.08039 9.25002C6.05039 9.23002 6.02039 9.21002 5.98039 9.20002C5.94039 9.18002 5.91039 9.17002 5.87039 9.16002C5.83039 9.15002 5.79039 9.15002 5.75039 9.15002L1.75039 9.15002Z">
        </path>
        <path id="直线 3 (轮廓)" fill-rule="evenodd" style="fill:#495AD4" opacity="1"
          d="M8.15078 1.15002C8.11078 1.15002 8.07078 1.15002 8.03078 1.16002C7.99078 1.17002 7.96078 1.18002 7.92078 1.20002C7.88078 1.21002 7.85078 1.23002 7.82078 1.25002C7.78078 1.27002 7.75078 1.30002 7.73078 1.33002C7.70078 1.35002 7.67078 1.38002 7.65078 1.42002C7.63078 1.45002 7.61078 1.48002 7.60078 1.52002C7.58078 1.56002 7.57078 1.59002 7.56078 1.63002C7.55078 1.67002 7.55078 1.71002 7.55078 1.75002C7.55078 1.79002 7.55078 1.83002 7.56078 1.87002C7.57078 1.91002 7.58078 1.94002 7.60078 1.98002C7.61078 2.02002 7.63078 2.05002 7.65078 2.08002C7.67078 2.12002 7.70078 2.15002 7.73078 2.17002C7.75078 2.20002 7.78078 2.23002 7.82078 2.25002C7.85078 2.27002 7.88078 2.29002 7.92078 2.30002C7.96078 2.32002 7.99078 2.33002 8.03078 2.34002C8.07078 2.35002 8.11078 2.35002 8.15078 2.35002L8.55078 2.35002C8.59078 2.35002 8.63078 2.35002 8.67078 2.34002C8.71078 2.33002 8.74078 2.32002 8.78078 2.30002C8.82078 2.29002 8.85078 2.27002 8.88078 2.25002C8.92078 2.23002 8.95078 2.20002 8.97078 2.17002C9.00078 2.15002 9.03078 2.12002 9.05078 2.08002C9.07078 2.05002 9.09078 2.02002 9.10078 1.98002C9.12078 1.94002 9.13078 1.91002 9.14078 1.87002C9.15078 1.83002 9.15078 1.79002 9.15078 1.75002C9.15078 1.71002 9.15078 1.67002 9.14078 1.63002C9.13078 1.59002 9.12078 1.56002 9.10078 1.52002C9.09078 1.48002 9.07078 1.45002 9.05078 1.42002C9.03078 1.38002 9.00078 1.35002 8.97078 1.33002C8.95078 1.30002 8.92078 1.27002 8.88078 1.25002C8.85078 1.23002 8.82078 1.21002 8.78078 1.20002C8.74078 1.18002 8.71078 1.17002 8.67078 1.16002C8.63078 1.15002 8.59078 1.15002 8.55078 1.15002L8.15078 1.15002Z">
        </path>
        <path id="直线 3 (轮廓)" fill-rule="evenodd" style="fill:#495AD4" opacity="1"
          d="M8.15078 9.15002C8.11078 9.15002 8.07078 9.15002 8.03078 9.16002C7.99078 9.17002 7.96078 9.18002 7.92078 9.20002C7.88078 9.21002 7.85078 9.23002 7.82078 9.25002C7.78078 9.27002 7.75078 9.30002 7.73078 9.33002C7.70078 9.35002 7.67078 9.38002 7.65078 9.42002C7.63078 9.45002 7.61078 9.48002 7.60078 9.52002C7.58078 9.56002 7.57078 9.59002 7.56078 9.63002C7.55078 9.67002 7.55078 9.71002 7.55078 9.75002C7.55078 9.79002 7.55078 9.83002 7.56078 9.87002C7.57078 9.91002 7.58078 9.94002 7.60078 9.98002C7.61078 10.02 7.63078 10.05 7.65078 10.08C7.67078 10.12 7.70078 10.15 7.73078 10.17C7.75078 10.2 7.78078 10.23 7.82078 10.25C7.85078 10.27 7.88078 10.29 7.92078 10.3C7.96078 10.32 7.99078 10.33 8.03078 10.34C8.07078 10.35 8.11078 10.35 8.15078 10.35L8.55078 10.35C8.59078 10.35 8.63078 10.35 8.67078 10.34C8.71078 10.33 8.74078 10.32 8.78078 10.3C8.82078 10.29 8.85078 10.27 8.88078 10.25C8.92078 10.23 8.95078 10.2 8.97078 10.17C9.00078 10.15 9.03078 10.12 9.05078 10.08C9.07078 10.05 9.09078 10.02 9.10078 9.98002C9.12078 9.94002 9.13078 9.91002 9.14078 9.87002C9.15078 9.83002 9.15078 9.79002 9.15078 9.75002C9.15078 9.71002 9.15078 9.67002 9.14078 9.63002C9.13078 9.59002 9.12078 9.56002 9.10078 9.52002C9.09078 9.48002 9.07078 9.45002 9.05078 9.42002C9.03078 9.38002 9.00078 9.35002 8.97078 9.33002C8.95078 9.30002 8.92078 9.27002 8.88078 9.25002C8.85078 9.23002 8.82078 9.21002 8.78078 9.20002C8.74078 9.18002 8.71078 9.17002 8.67078 9.16002C8.63078 9.15002 8.59078 9.15002 8.55078 9.15002L8.15078 9.15002Z">
        </path>
        <path id="直线 1 (轮廓)" fill-rule="evenodd" style="fill:#495AD4" opacity="1"
          d="M2.34976 4.14987C2.34975 4.10987 2.34974 4.06987 2.33973 4.02987C2.32972 3.98987 2.31971 3.95987 2.2997 3.91988C2.28969 3.87988 2.26968 3.84989 2.24968 3.81989C2.22967 3.7799 2.19966 3.7499 2.16965 3.72991C2.14965 3.69992 2.11964 3.66992 2.07963 3.64993C2.04963 3.62994 2.01962 3.60995 1.97962 3.59996C1.93962 3.57997 1.90961 3.56998 1.86961 3.55999C1.82961 3.55 1.78961 3.55001 1.74961 3.55002C1.70961 3.55003 1.66961 3.55004 1.62961 3.56005C1.58961 3.57006 1.55962 3.58006 1.51962 3.60007C1.47962 3.61008 1.44963 3.63009 1.41963 3.6501C1.37964 3.67011 1.34965 3.70012 1.32965 3.73012C1.29966 3.75013 1.26967 3.78014 1.24968 3.82014C1.22968 3.85015 1.20969 3.88015 1.1997 3.92015C1.17971 3.96016 1.16972 3.99016 1.15973 4.03016C1.14974 4.07017 1.14975 4.11017 1.14976 4.15017L1.15056 7.35017C1.15057 7.39017 1.15058 7.43017 1.16059 7.47016C1.1706 7.51016 1.18061 7.54016 1.20062 7.58015C1.21063 7.62015 1.23063 7.65015 1.25064 7.68014C1.27065 7.72014 1.30066 7.75013 1.33066 7.77012C1.35067 7.80012 1.38068 7.83011 1.42068 7.8501C1.45069 7.87009 1.48069 7.89008 1.5207 7.90007C1.5607 7.92006 1.5907 7.93006 1.63071 7.94005C1.67071 7.95004 1.71071 7.95003 1.75071 7.95002C1.79071 7.95001 1.83071 7.95 1.87071 7.93999C1.9107 7.92998 1.9407 7.91997 1.9807 7.89996C2.02069 7.88995 2.05069 7.86994 2.08068 7.84993C2.12068 7.82992 2.15067 7.79992 2.17066 7.76991C2.20066 7.7499 2.23065 7.7199 2.25064 7.67989C2.27063 7.64989 2.29063 7.61988 2.30062 7.57988C2.32061 7.53987 2.3306 7.50987 2.34059 7.46987C2.35058 7.42987 2.35057 7.38987 2.35056 7.34987L2.34976 4.14987Z">
        </path>
        <path id="直线 2 (轮廓)" fill-rule="evenodd" style="fill:#495AD4" opacity="1"
          d="M10.3514 4.15017C10.3514 4.11017 10.3514 4.07017 10.3414 4.03017C10.3315 3.99017 10.3215 3.96016 10.3015 3.92016C10.2915 3.88016 10.2715 3.85015 10.2515 3.82015C10.2315 3.78014 10.2015 3.75013 10.1715 3.73013C10.1515 3.70012 10.1215 3.67011 10.0815 3.6501C10.0515 3.6301 10.0215 3.61009 9.98155 3.60008C9.94156 3.58007 9.91156 3.57006 9.87156 3.56005C9.83156 3.55004 9.79156 3.55003 9.75156 3.55002C9.71156 3.55001 9.67156 3.55 9.63156 3.55999C9.59156 3.56998 9.56156 3.57997 9.52155 3.59996C9.48155 3.60995 9.45154 3.62995 9.42154 3.64994C9.38153 3.66993 9.35153 3.69992 9.33152 3.72992C9.30151 3.74991 9.27151 3.7799 9.2515 3.8199C9.23149 3.84989 9.21148 3.87989 9.20147 3.91988C9.18146 3.95988 9.17145 3.98988 9.16144 4.02987C9.15143 4.06987 9.15142 4.10987 9.15141 4.14987L9.15061 7.34987C9.1506 7.38987 9.15059 7.42987 9.16058 7.46987C9.17057 7.50988 9.18057 7.53988 9.20056 7.57988C9.21055 7.61989 9.23054 7.64989 9.25053 7.6799C9.27052 7.7199 9.30051 7.74991 9.33051 7.76992C9.3505 7.79992 9.38049 7.82993 9.42049 7.84994C9.45048 7.86995 9.48048 7.88995 9.52048 7.89996C9.56047 7.91997 9.59047 7.92998 9.63047 7.93999C9.67046 7.95 9.71046 7.95001 9.75046 7.95002C9.79046 7.95003 9.83046 7.95004 9.87047 7.94005C9.91047 7.93006 9.94047 7.92007 9.98048 7.90008C10.0205 7.89009 10.0505 7.8701 10.0805 7.8501C10.1205 7.83011 10.1505 7.80012 10.1705 7.77013C10.2005 7.75013 10.2305 7.72014 10.2505 7.68015C10.2705 7.65015 10.2905 7.62016 10.3006 7.58016C10.3206 7.54016 10.3306 7.51017 10.3406 7.47017C10.3506 7.43017 10.3506 7.39017 10.3506 7.35017L10.3514 4.15017Z">
        </path>
        <path id="矩形 2 (轮廓)" fill-rule="evenodd" style="fill:#495AD4" opacity="1"
          d="M-1.25,4.15v-4.8c0,-0.04 0,-0.08 0.01,-0.12c0.01,-0.04 0.02,-0.07 0.04,-0.11c0.01,-0.04 0.03,-0.07 0.05,-0.1c0.02,-0.04 0.05,-0.07 0.08,-0.09c0.02,-0.03 0.05,-0.06 0.09,-0.08c0.03,-0.02 0.06,-0.04 0.1,-0.05c0.04,-0.02 0.07,-0.03 0.11,-0.04c0.04,-0.01 0.08,-0.01 0.12,-0.01h12.8c0.04,0 0.08,0 0.12,0.01c0.04,0.01 0.07,0.02 0.11,0.04c0.04,0.01 0.07,0.03 0.1,0.05c0.04,0.02 0.07,0.05 0.09,0.08c0.03,0.02 0.06,0.05 0.08,0.09c0.02,0.03 0.04,0.06 0.05,0.1c0.02,0.04 0.03,0.07 0.04,0.11c0.01,0.04 0.01,0.08 0.01,0.12v4.8c0,0.04 0,0.08 -0.01,0.12c-0.01,0.04 -0.02,0.07 -0.04,0.11c-0.01,0.04 -0.03,0.07 -0.05,0.1c-0.02,0.04 -0.05,0.07 -0.08,0.09c-0.02,0.03 -0.05,0.06 -0.09,0.08c-0.03,0.02 -0.06,0.04 -0.1,0.05c-0.04,0.02 -0.07,0.03 -0.11,0.04c-0.04,0.01 -0.08,0.01 -0.12,0.01h-12.8c-0.04,0 -0.08,0 -0.12,-0.01c-0.04,-0.01 -0.07,-0.02 -0.11,-0.04c-0.04,-0.01 -0.07,-0.03 -0.1,-0.05c-0.04,-0.02 -0.07,-0.05 -0.09,-0.08c-0.03,-0.02 -0.06,-0.05 -0.08,-0.09c-0.02,-0.03 -0.04,-0.06 -0.05,-0.1c-0.02,-0.04 -0.03,-0.07 -0.04,-0.11c-0.01,-0.04 -0.01,-0.08 -0.01,-0.12zM-0.05,-0.05v3.6h11.6v-3.6z">
        </path>
        <path id="矩形 2 (轮廓)" fill-rule="evenodd" style="fill:#495AD4" opacity="1"
          d="M-1.25,12.15v-4.8c0,-0.04 0,-0.08 0.01,-0.12c0.01,-0.04 0.02,-0.07 0.04,-0.11c0.01,-0.04 0.03,-0.07 0.05,-0.1c0.02,-0.04 0.05,-0.07 0.08,-0.09c0.02,-0.03 0.05,-0.06 0.09,-0.08c0.03,-0.02 0.06,-0.04 0.1,-0.05c0.04,-0.02 0.07,-0.03 0.11,-0.04c0.04,-0.01 0.08,-0.01 0.12,-0.01h12.8c0.04,0 0.08,0 0.12,0.01c0.04,0.01 0.07,0.02 0.11,0.04c0.04,0.01 0.07,0.03 0.1,0.05c0.04,0.02 0.07,0.05 0.09,0.08c0.03,0.02 0.06,0.05 0.08,0.09c0.02,0.03 0.04,0.06 0.05,0.1c0.02,0.04 0.03,0.07 0.04,0.11c0.01,0.04 0.01,0.08 0.01,0.12v4.8c0,0.04 0,0.08 -0.01,0.12c-0.01,0.04 -0.02,0.07 -0.04,0.11c-0.01,0.04 -0.03,0.07 -0.05,0.1c-0.02,0.04 -0.05,0.07 -0.08,0.09c-0.02,0.03 -0.05,0.06 -0.09,0.08c-0.03,0.02 -0.06,0.04 -0.1,0.05c-0.04,0.02 -0.07,0.03 -0.11,0.04c-0.04,0.01 -0.08,0.01 -0.12,0.01h-12.8c-0.04,0 -0.08,0 -0.12,-0.01c-0.04,-0.01 -0.07,-0.02 -0.11,-0.04c-0.04,-0.01 -0.07,-0.03 -0.1,-0.05c-0.04,-0.02 -0.07,-0.05 -0.09,-0.08c-0.03,-0.02 -0.06,-0.05 -0.08,-0.09c-0.02,-0.03 -0.04,-0.06 -0.05,-0.1c-0.02,-0.04 -0.03,-0.07 -0.04,-0.11c-0.01,-0.04 -0.01,-0.08 -0.01,-0.12zM-0.05,7.95v3.6h11.6v-3.6z">
        </path>
      </g>
    </g>
  </g>
  <defs>
    <rect id="path_0" x="0" y="0" width="24" height="24" />
  </defs>
</svg>