<svg xmlns="http://www.w3.org/2000/svg" xmlns:xlink="http://www.w3.org/1999/xlink" width="30" height="30"
  viewBox="0 0 30 30" fill="none">
  <g opacity="1" transform="translate(0 0)  rotate(0)">
    <g mask="url(#bg-mask-0)">
      <g opacity="1" transform="translate(6 6)  rotate(0)">
        <path id="路径 2" style="fill:#131926; opacity:1;"
          d="M0.71302,17.6939c-0.0455,-0.0188 -0.08872,-0.0419 -0.12967,-0.0693c-0.04095,-0.0273 -0.07883,-0.0584 -0.11366,-0.0932c-0.03482,-0.0348 -0.06591,-0.0727 -0.09328,-0.1137c-0.02736,-0.0409 -0.05046,-0.0841 -0.06932,-0.1296c-0.01885,-0.0455 -0.03308,-0.0924 -0.04269,-0.1407c-0.00961,-0.0483 -0.01442,-0.0971 -0.01442,-0.1463c0,-0.0493 0.00479,-0.0981 0.0144,-0.1464c0.00961,-0.0483 0.02382,-0.0952 0.04267,-0.1407c0.01885,-0.0455 0.04194,-0.0887 0.0693,-0.1296c0.02736,-0.041 0.05845,-0.0789 0.09326,-0.1137c0.03482,-0.0348 0.0727,-0.0659 0.11364,-0.0933c0.04095,-0.0273 0.08417,-0.0504 0.12965,-0.0693c0.0455,-0.0188 0.0924,-0.0331 0.1407,-0.0427c0.0483,-0.0096 0.09707,-0.0144 0.14632,-0.0144l16.00005,-0.001c0.0492,0 0.09797,0.0048 0.1463,0.0144c0.04827,0.0096 0.09517,0.02383 0.1407,0.0427c0.04547,0.0188 0.08867,0.0419 0.1296,0.0693c0.041,0.02733 0.0789,0.0584 0.1137,0.0932c0.0348,0.03487 0.0659,0.07277 0.0933,0.1137c0.02733,0.04093 0.05043,0.08413 0.0693,0.1296c0.01887,0.04553 0.0331,0.09243 0.0427,0.1407c0.0096,0.04833 0.0144,0.09713 0.0144,0.1464c0,0.0492 -0.0048,0.09797 -0.0144,0.1463c-0.0096,0.04827 -0.02383,0.09517 -0.0427,0.1407c-0.0188,0.04547 -0.0419,0.08867 -0.0693,0.1296c-0.02733,0.041 -0.0584,0.0789 -0.0932,0.1137c-0.03487,0.0348 -0.07277,0.0659 -0.1137,0.0933c-0.04093,0.02733 -0.08413,0.05043 -0.1296,0.0693c-0.04553,0.01887 -0.09243,0.0331 -0.1407,0.0427c-0.04833,0.0096 -0.09713,0.0144 -0.1464,0.0144l-15.99995,0.001c-0.04925,0 -0.09802,-0.0048 -0.14632,-0.0144c-0.0483,-0.0096 -0.0952,-0.0238 -0.1407,-0.0427z">
        </path>
        <path id="路径 3" style="fill:#131926; opacity:1;"
          d="M7.7129,9.69288c-0.0455,-0.01886 -0.08871,-0.04196 -0.12965,-0.06933c-0.04095,-0.02736 -0.07882,-0.05846 -0.11364,-0.09328c-0.03482,-0.03482 -0.0659,-0.07272 -0.09326,-0.11366c-0.02735,-0.04095 -0.05045,-0.08418 -0.06929,-0.12967c-0.01885,-0.0455 -0.03306,-0.0924 -0.04267,-0.1407c-0.0096,-0.0483 -0.0144,-0.09707 -0.01439,-0.14632c0.00001,-0.04925 0.00481,-0.09802 0.01443,-0.14632c0.00961,-0.0483 0.02384,-0.0952 0.04269,-0.1407c0.01886,-0.0455 0.04196,-0.08871 0.06933,-0.12965c0.02736,-0.04095 0.05846,-0.07882 0.09328,-0.11364c0.03482,-0.03482 0.07272,-0.0659 0.11366,-0.09326c0.04095,-0.02735 0.08418,-0.05045 0.12967,-0.06929c0.0455,-0.01885 0.0924,-0.03306 0.1407,-0.04267c0.0483,-0.0096 0.09707,-0.0144 0.14632,-0.01439l9.00002,0.00101c0.04927,0.00001 0.09803,0.00481 0.1463,0.01442c0.04827,0.00961 0.09517,0.02385 0.1407,0.0427c0.04547,0.01885 0.08867,0.04195 0.1296,0.06932c0.041,0.02737 0.0789,0.05846 0.1137,0.09329c0.0348,0.03482 0.06587,0.07271 0.0932,0.11366c0.0274,0.04095 0.0505,0.08417 0.0693,0.12967c0.01887,0.0455 0.0331,0.0924 0.0427,0.1407c0.0096,0.0483 0.0144,0.09707 0.0144,0.14632c0,0.04925 -0.0048,0.09802 -0.0144,0.14632c-0.0096,0.04829 -0.02383,0.09519 -0.0427,0.14069c-0.01887,0.04549 -0.04197,0.08871 -0.0693,0.12965c-0.0274,0.04095 -0.0585,0.07883 -0.0933,0.11364c-0.03487,0.03482 -0.07277,0.06591 -0.1137,0.09326c-0.04093,0.02736 -0.08417,0.05046 -0.1297,0.0693c-0.04547,0.01884 -0.09237,0.03306 -0.1407,0.04266c-0.04827,0.0096 -0.09703,0.0144 -0.1463,0.0144l-8.99998,-0.00101c-0.04925,-0.00001 -0.09802,-0.00481 -0.14632,-0.01443c-0.0483,-0.00961 -0.0952,-0.02384 -0.1407,-0.04269z">
        </path>
        <path id="路径 4" style="fill:#131926; opacity:1;"
          d="M7.7129,1.69288c-0.0455,-0.01886 -0.08871,-0.04196 -0.12965,-0.06933c-0.04095,-0.02736 -0.07882,-0.05846 -0.11364,-0.09328c-0.03482,-0.03482 -0.0659,-0.07272 -0.09326,-0.11366c-0.02735,-0.04095 -0.05045,-0.08418 -0.06929,-0.12967c-0.01885,-0.0455 -0.03306,-0.0924 -0.04267,-0.1407c-0.0096,-0.0483 -0.0144,-0.09707 -0.01439,-0.14632c0.00001,-0.04925 0.00481,-0.09802 0.01443,-0.14632c0.00961,-0.0483 0.02384,-0.0952 0.04269,-0.1407c0.01886,-0.0455 0.04196,-0.08871 0.06933,-0.12965c0.02736,-0.04095 0.05846,-0.07882 0.09328,-0.11364c0.03482,-0.03482 0.07272,-0.0659 0.11366,-0.09326c0.04095,-0.02736 0.08418,-0.05045 0.12967,-0.06929c0.0455,-0.01884 0.0924,-0.03306 0.1407,-0.04266c0.0483,-0.00961 0.09707,-0.0144 0.14632,-0.01439l9.00002,0.00101c0.04927,0.00001 0.09803,0.00481 0.1463,0.01443c0.04827,0.00961 0.09517,0.02385 0.1407,0.0427c0.04547,0.01885 0.08867,0.04196 0.1296,0.06932c0.041,0.02736 0.0789,0.05846 0.1137,0.09329c0.0348,0.03483 0.06587,0.07271 0.0932,0.11366c0.0274,0.04095 0.0505,0.08417 0.0693,0.12967c0.01887,0.0455 0.0331,0.0924 0.0427,0.1407c0.0096,0.0483 0.0144,0.09707 0.0144,0.14632c0,0.04925 -0.0048,0.09802 -0.0144,0.14632c-0.0096,0.04829 -0.02383,0.09519 -0.0427,0.14069c-0.01887,0.04549 -0.04197,0.08871 -0.0693,0.12965c-0.0274,0.04095 -0.0585,0.07883 -0.0933,0.11365c-0.03487,0.03481 -0.07277,0.0659 -0.1137,0.09326c-0.04093,0.02735 -0.08417,0.05045 -0.1297,0.06929c-0.04547,0.01884 -0.09237,0.03306 -0.1407,0.04266c-0.04827,0.00961 -0.09703,0.01441 -0.1463,0.0144l-8.99998,-0.00101c-0.04925,-0.00001 -0.09802,-0.00481 -0.14632,-0.01443c-0.0483,-0.00961 -0.0952,-0.02384 -0.1407,-0.04269z">
        </path>
        <path id="路径 1" fill-rule="evenodd" style="fill:#495AD4" opacity="1"
          d="M0.42 5.42L3.98 8.98C4.36 9.35 5 9.08 5 8.55L5 1.45C5 0.92 4.36 0.65 3.98 1.02L0.42 4.58C0.19 4.81 0.19 5.19 0.42 5.42Z">
        </path>
      </g>
    </g>
  </g>
  <defs>
    <rect id="path_0" x="0" y="0" width="30" height="30" />
  </defs>
</svg>