<svg xmlns="http://www.w3.org/2000/svg" xmlns:xlink="http://www.w3.org/1999/xlink" width="24" height="24" viewBox="0 0 24 24" fill="none"><g opacity="1"  transform="translate(0 0)  rotate(0)"><rect fill="#495AD4" opacity="1" transform="translate(0 0)  rotate(0)" x="0" y="0" width="24" height="24" rx="4" /><mask id="bg-mask-0" fill="white"><use xlink:href="#path_0"></use></mask><g mask="url(#bg-mask-0)" ><g opacity="1"  transform="translate(5 5)  rotate(0)"><path id="减去顶层" fill-rule="evenodd" style="fill:#FFFFFF" opacity="1" d="M0.01,5.52c-0.01,-0.04 -0.01,-0.08 -0.01,-0.12v-4.8c0,-0.04 0,-0.08 0.01,-0.12c0.01,-0.03 0.02,-0.07 0.04,-0.11c0.01,-0.03 0.03,-0.07 0.05,-0.11c0.02,-0.03 0.04,-0.06 0.08,-0.08c0.02,-0.04 0.05,-0.06 0.08,-0.08c0.04,-0.02 0.08,-0.04 0.11,-0.05c0.04,-0.02 0.08,-0.03 0.11,-0.04c0.04,-0.01 0.08,-0.01 0.12,-0.01h12.8c0.04,0 0.08,0 0.12,0.01c0.03,0.01 0.07,0.02 0.11,0.04c0.03,0.01 0.07,0.03 0.11,0.05c0.03,0.02 0.06,0.04 0.08,0.08c0.04,0.02 0.06,0.05 0.08,0.08c0.02,0.04 0.04,0.08 0.05,0.11c0.02,0.04 0.03,0.08 0.04,0.11c0.01,0.04 0.01,0.08 0.01,0.12v4.8c0,0.04 0,0.08 -0.01,0.12c-0.01,0.03 -0.02,0.07 -0.04,0.11c-0.01,0.03 -0.03,0.07 -0.05,0.11c-0.02,0.03 -0.04,0.06 -0.08,0.08c-0.02,0.04 -0.05,0.06 -0.08,0.08c-0.04,0.02 -0.08,0.04 -0.11,0.05c-0.04,0.02 -0.08,0.03 -0.11,0.04c-0.04,0.01 -0.08,0.01 -0.12,0.01h-1.8v1.0041c-0.4158,0.01706 -0.818,0.08707 -1.2,0.20346v-1.20756h-6.8v2h5.26784c-0.43211,0.33398 -0.80574,0.73999 -1.10286,1.2h-6.56498v3.6h5.90442c0.08977,0.4233 0.23537,0.826 0.42871,1.2h-6.93313c-0.04,0 -0.08,0 -0.12,-0.01c-0.03,-0.01 -0.07,-0.02 -0.11,-0.04c-0.03,-0.01 -0.07,-0.03 -0.11,-0.05c-0.03,-0.02 -0.06,-0.04 -0.08,-0.08c-0.04,-0.02 -0.06,-0.05 -0.08,-0.08c-0.02,-0.04 -0.04,-0.08 -0.05,-0.11c-0.02,-0.04 -0.03,-0.08 -0.04,-0.11c-0.01,-0.04 -0.01,-0.08 -0.01,-0.12v-4.8c0,-0.04 0,-0.08 0.01,-0.12c0.01,-0.03 0.02,-0.07 0.04,-0.11c0.01,-0.03 0.03,-0.07 0.05,-0.11c0.02,-0.03 0.04,-0.06 0.08,-0.08c0.02,-0.04 0.05,-0.06 0.08,-0.08c0.04,-0.02 0.08,-0.04 0.11,-0.05c0.04,-0.02 0.08,-0.03 0.11,-0.04c0.04,-0.01 0.08,-0.01 0.12,-0.01h1.8v-2h-1.8c-0.04,0 -0.08,0 -0.12,-0.01c-0.03,-0.01 -0.07,-0.02 -0.11,-0.04c-0.03,-0.01 -0.07,-0.03 -0.11,-0.05c-0.03,-0.02 -0.06,-0.04 -0.08,-0.08c-0.04,-0.02 -0.06,-0.05 -0.08,-0.08c-0.02,-0.04 -0.04,-0.08 -0.05,-0.11c-0.02,-0.04 -0.03,-0.08 -0.04,-0.11zM7.0041,11.6h-4.0041c-0.04,0 -0.08,0 -0.12,-0.01c-0.03,-0.01 -0.07,-0.02 -0.11,-0.04c-0.03,-0.01 -0.07,-0.03 -0.11,-0.05c-0.03,-0.02 -0.06,-0.04 -0.08,-0.08c-0.04,-0.02 -0.06,-0.05 -0.08,-0.08c-0.02,-0.04 -0.04,-0.08 -0.05,-0.11c-0.02,-0.04 -0.03,-0.08 -0.04,-0.11c-0.01,-0.04 -0.01,-0.08 -0.01,-0.12c0,-0.04 0,-0.08 0.01,-0.12c0.01,-0.03 0.02,-0.07 0.04,-0.11c0.01,-0.03 0.03,-0.07 0.05,-0.11c0.02,-0.03 0.04,-0.06 0.08,-0.08c0.02,-0.04 0.05,-0.06 0.08,-0.08c0.04,-0.02 0.08,-0.04 0.11,-0.05c0.04,-0.02 0.08,-0.03 0.11,-0.04c0.04,-0.01 0.08,-0.01 0.12,-0.01h4c0.04,0 0.08,0 0.12,0.01c0.02167,0.0072 0.04857,0.0144 0.07691,0.0254c-0.11002,0.3715 -0.17628,0.7616 -0.19281,1.1646zM1.2,1.2v3.6h11.6v-3.6zM3,2.4h4c0.04,0 0.08,0 0.12,0.01c0.03,0.01 0.07,0.02 0.11,0.04c0.03,0.01 0.07,0.03 0.11,0.05c0.03,0.02 0.06,0.04 0.08,0.08c0.04,0.02 0.06,0.05 0.08,0.08c0.02,0.04 0.04,0.08 0.05,0.11c0.02,0.04 0.03,0.08 0.04,0.11c0.01,0.04 0.01,0.08 0.01,0.12c0,0.04 0,0.08 -0.01,0.12c-0.01,0.03 -0.02,0.07 -0.04,0.11c-0.01,0.03 -0.03,0.07 -0.05,0.11c-0.02,0.03 -0.04,0.06 -0.08,0.08c-0.02,0.04 -0.05,0.06 -0.08,0.08c-0.04,0.02 -0.08,0.04 -0.11,0.05c-0.04,0.02 -0.08,0.03 -0.11,0.04c-0.04,0.01 -0.08,0.01 -0.12,0.01h-4c-0.04,0 -0.08,0 -0.12,-0.01c-0.03,-0.01 -0.07,-0.02 -0.11,-0.04c-0.03,-0.01 -0.07,-0.03 -0.11,-0.05c-0.03,-0.02 -0.06,-0.04 -0.08,-0.08c-0.04,-0.02 -0.06,-0.05 -0.08,-0.08c-0.02,-0.04 -0.04,-0.08 -0.05,-0.11c-0.02,-0.04 -0.03,-0.08 -0.04,-0.11c-0.01,-0.04 -0.01,-0.08 -0.01,-0.12c0,-0.04 0,-0.08 0.01,-0.12c0.01,-0.03 0.02,-0.07 0.04,-0.11c0.01,-0.03 0.03,-0.07 0.05,-0.11c0.02,-0.03 0.04,-0.06 0.08,-0.08c0.02,-0.04 0.05,-0.06 0.08,-0.08c0.04,-0.02 0.08,-0.04 0.11,-0.05c0.04,-0.02 0.08,-0.03 0.11,-0.04c0.04,-0.01 0.08,-0.01 0.12,-0.01zM10.39,2.88c0.01,0.04 0.01,0.08 0.01,0.12c0,0.04 0,0.08 -0.01,0.12c-0.01,0.03 -0.02,0.07 -0.04,0.11c-0.01,0.03 -0.03,0.07 -0.05,0.11c-0.02,0.03 -0.04,0.06 -0.08,0.08c-0.02,0.04 -0.05,0.06 -0.08,0.08c-0.04,0.02 -0.08,0.04 -0.11,0.05c-0.04,0.02 -0.08,0.03 -0.11,0.04c-0.04,0.01 -0.08,0.01 -0.12,0.01h-0.4c-0.04,0 -0.08,0 -0.12,-0.01c-0.03,-0.01 -0.07,-0.02 -0.11,-0.04c-0.03,-0.01 -0.07,-0.03 -0.11,-0.05c-0.03,-0.02 -0.06,-0.04 -0.08,-0.08c-0.04,-0.02 -0.06,-0.05 -0.08,-0.08c-0.02,-0.04 -0.04,-0.08 -0.05,-0.11c-0.02,-0.04 -0.03,-0.08 -0.04,-0.11c-0.01,-0.04 -0.01,-0.08 -0.01,-0.12c0,-0.04 0,-0.08 0.01,-0.12c0.01,-0.03 0.02,-0.07 0.04,-0.11c0.01,-0.03 0.03,-0.07 0.05,-0.11c0.02,-0.03 0.04,-0.06 0.08,-0.08c0.02,-0.04 0.05,-0.06 0.08,-0.08c0.04,-0.02 0.08,-0.04 0.11,-0.05c0.04,-0.02 0.08,-0.03 0.11,-0.04c0.04,-0.01 0.08,-0.01 0.12,-0.01h0.4c0.04,0 0.08,0 0.12,0.01c0.03,0.01 0.07,0.02 0.11,0.04c0.03,0.01 0.07,0.03 0.11,0.05c0.03,0.02 0.06,0.04 0.08,0.08c0.04,0.02 0.06,0.05 0.08,0.08c0.02,0.04 0.04,0.08 0.05,0.11c0.02,0.04 0.03,0.08 0.04,0.11z"></path></g><path id="减去顶层" fill-rule="evenodd" style="fill:#E8CA99" opacity="1" d="M13.6001,16.8c0,-1.77 1.43,-3.2 3.2,-3.2c1.77,0 3.2,1.43 3.2,3.2c0,1.77 -1.43,3.2 -3.2,3.2c-1.77,0 -3.2,-1.43 -3.2,-3.2zM17.3901,15.08c-0.01,-0.03 -0.02,-0.07 -0.04,-0.11c-0.01,-0.03 -0.03,-0.07 -0.05,-0.11c-0.02,-0.03 -0.04,-0.06 -0.08,-0.08c-0.02,-0.04 -0.05,-0.06 -0.08,-0.08c-0.04,-0.02 -0.08,-0.04 -0.11,-0.05c-0.04,-0.02 -0.08,-0.03 -0.11,-0.04c-0.04,-0.01 -0.08,-0.01 -0.12,-0.01c-0.04,0 -0.08,0 -0.12,0.01c-0.03,0.01 -0.07,0.02 -0.11,0.04c-0.03,0.01 -0.07,0.03 -0.11,0.05c-0.03,0.02 -0.06,0.04 -0.08,0.08c-0.04,0.02 -0.06,0.05 -0.08,0.08c-0.02,0.04 -0.04,0.08 -0.05,0.11c-0.02,0.04 -0.03,0.08 -0.04,0.11c-0.01,0.04 -0.01,0.08 -0.01,0.12v1h-1c-0.04,0 -0.08,0 -0.12,0.01c-0.03,0.01 -0.07,0.02 -0.11,0.04c-0.03,0.01 -0.07,0.03 -0.11,0.05c-0.03,0.02 -0.06,0.04 -0.08,0.08c-0.04,0.02 -0.06,0.05 -0.08,0.08c-0.02,0.04 -0.04,0.08 -0.05,0.11c-0.02,0.04 -0.03,0.08 -0.04,0.11c-0.01,0.04 -0.01,0.08 -0.01,0.12c0,0.04 0,0.08 0.01,0.12c0.01,0.03 0.02,0.07 0.04,0.11c0.01,0.03 0.03,0.07 0.05,0.11c0.02,0.03 0.04,0.06 0.08,0.08c0.02,0.04 0.05,0.06 0.08,0.08c0.04,0.02 0.08,0.04 0.11,0.05c0.04,0.02 0.08,0.03 0.11,0.04c0.04,0.01 0.08,0.01 0.12,0.01h1v1c0,0.04 0,0.08 0.01,0.12c0.01,0.03 0.02,0.07 0.04,0.11c0.01,0.03 0.03,0.07 0.05,0.11c0.02,0.03 0.04,0.06 0.08,0.08c0.02,0.04 0.05,0.06 0.08,0.08c0.04,0.02 0.08,0.04 0.11,0.05c0.04,0.02 0.08,0.03 0.11,0.04c0.04,0.01 0.08,0.01 0.12,0.01c0.04,0 0.08,0 0.12,-0.01c0.03,-0.01 0.07,-0.02 0.11,-0.04c0.03,-0.01 0.07,-0.03 0.11,-0.05c0.03,-0.02 0.06,-0.04 0.08,-0.08c0.04,-0.02 0.06,-0.05 0.08,-0.08c0.02,-0.04 0.04,-0.08 0.05,-0.11c0.02,-0.04 0.03,-0.08 0.04,-0.11c0.01,-0.04 0.01,-0.08 0.01,-0.12v-1h1c0.04,0 0.08,0 0.12,-0.01c0.03,-0.01 0.07,-0.02 0.11,-0.04c0.03,-0.01 0.07,-0.03 0.11,-0.05c0.03,-0.02 0.06,-0.04 0.08,-0.08c0.04,-0.02 0.06,-0.05 0.08,-0.08c0.02,-0.04 0.04,-0.08 0.05,-0.11c0.02,-0.04 0.03,-0.08 0.04,-0.11c0.01,-0.04 0.01,-0.08 0.01,-0.12c0,-0.04 0,-0.08 -0.01,-0.12c-0.01,-0.03 -0.02,-0.07 -0.04,-0.11c-0.01,-0.03 -0.03,-0.07 -0.05,-0.11c-0.02,-0.03 -0.04,-0.06 -0.08,-0.08c-0.02,-0.04 -0.05,-0.06 -0.08,-0.08c-0.04,-0.02 -0.08,-0.04 -0.11,-0.05c-0.04,-0.02 -0.08,-0.03 -0.11,-0.04c-0.04,-0.01 -0.08,-0.01 -0.12,-0.01h-1v-1c0,-0.04 0,-0.08 -0.01,-0.12z"></path></g></g><defs><rect id="path_0" x="0" y="0" width="24" height="24" /></defs></svg>