<svg xmlns="http://www.w3.org/2000/svg" xmlns:xlink="http://www.w3.org/1999/xlink" width="24" height="24"
  viewBox="0 0 24 24" fill="none">
  <g opacity="1" transform="translate(0 0)  rotate(0)">
    <rect opacity="1" transform="translate(0 0)  rotate(0)" x="0" y="0" width="24" height="24" rx="4" />
    <mask id="bg-mask-0" fill="white">
      <use xlink:href="#path_0"></use>
    </mask>
    <g mask="url(#bg-mask-0)">
      <path id="矩形 2 (轮廓)" fill-rule="evenodd" style="fill:#FFFFFF" opacity="1"
        d="M14.6 12.4C14.6 12.44 14.6 12.48 14.61 12.52C14.62 12.56 14.63 12.59 14.65 12.63C14.66 12.67 14.68 12.7 14.7 12.73C14.72 12.77 14.75 12.8 14.78 12.82C14.8 12.85 14.83 12.88 14.87 12.9C14.9 12.92 14.93 12.94 14.97 12.95C15.01 12.97 15.04 12.98 15.08 12.99C15.12 13 15.16 13 15.2 13C15.24 13 15.28 13 15.32 12.99C15.36 12.98 15.39 12.97 15.43 12.95C15.47 12.94 15.5 12.92 15.53 12.9C15.57 12.88 15.6 12.85 15.62 12.82C15.65 12.8 15.68 12.77 15.7 12.73C15.72 12.7 15.74 12.67 15.75 12.63C15.77 12.59 15.78 12.56 15.79 12.52C15.8 12.48 15.8 12.44 15.8 12.4L15.8 8.00002C15.8 7.96002 15.8 7.92002 15.79 7.88002C15.78 7.84002 15.77 7.81002 15.75 7.77002C15.74 7.73002 15.72 7.70002 15.7 7.67002C15.68 7.63002 15.65 7.60002 15.62 7.58002C15.6 7.55002 15.57 7.52002 15.53 7.50002C15.5 7.48002 15.47 7.46002 15.43 7.45002C15.39 7.43002 15.36 7.42002 15.32 7.41002C15.28 7.40002 15.24 7.40002 15.2 7.40002L5.6 7.40002C5.56 7.40002 5.52 7.40002 5.48 7.41002C5.44 7.42002 5.41 7.43002 5.37 7.45002C5.33 7.46002 5.3 7.48002 5.27 7.50002C5.23 7.52002 5.2 7.55002 5.18 7.58002C5.15 7.60002 5.12 7.63002 5.1 7.67002C5.08 7.70002 5.06 7.73002 5.05 7.77002C5.03 7.81002 5.02 7.84002 5.01 7.88002C5 7.92002 5 7.96002 5 8.00002L5 18.4C5 18.44 5 18.48 5.01 18.52C5.02 18.56 5.03 18.59 5.05 18.63C5.06 18.67 5.08 18.7 5.1 18.73C5.12 18.77 5.15 18.8 5.18 18.82C5.2 18.85 5.23 18.88 5.27 18.9C5.3 18.92 5.33 18.94 5.37 18.95C5.41 18.97 5.44 18.98 5.48 18.99C5.52 19 5.56 19 5.6 19L12.4 19C12.44 19 12.48 19 12.52 18.99C12.56 18.98 12.59 18.97 12.63 18.95C12.67 18.94 12.7 18.92 12.73 18.9C12.77 18.88 12.8 18.85 12.82 18.82C12.85 18.8 12.88 18.77 12.9 18.73C12.92 18.7 12.94 18.67 12.95 18.63C12.97 18.59 12.98 18.56 12.99 18.52C13 18.48 13 18.44 13 18.4C13 18.36 13 18.32 12.99 18.28C12.98 18.24 12.97 18.21 12.95 18.17C12.94 18.13 12.92 18.1 12.9 18.07C12.88 18.03 12.85 18 12.82 17.98C12.8 17.95 12.77 17.92 12.73 17.9C12.7 17.88 12.67 17.86 12.63 17.85C12.59 17.83 12.56 17.82 12.52 17.81C12.48 17.8 12.44 17.8 12.4 17.8L10.4 17.8L6.2 17.8L6.2 8.60002L14.6 8.60002L14.6 12.4Z">
      </path>
      <path id="矩形 2 (轮廓)" fill-rule="evenodd" style="fill:#FFFFFF" opacity="1"
        d="M7.19961 5C7.15961 5 7.11961 5 7.07961 5.01C7.03961 5.02 7.00961 5.03 6.96961 5.05C6.92961 5.06 6.89961 5.08 6.86961 5.1C6.82961 5.12 6.79961 5.15 6.77961 5.18C6.74961 5.2 6.71961 5.23 6.69961 5.27C6.67961 5.3 6.65961 5.33 6.64961 5.37C6.62961 5.41 6.61961 5.44 6.60961 5.48C6.59961 5.52 6.59961 5.56 6.59961 5.6C6.59961 5.64 6.59961 5.68 6.60961 5.72C6.61961 5.76 6.62961 5.79 6.64961 5.83C6.65961 5.87 6.67961 5.9 6.69961 5.93C6.71961 5.97 6.74961 6 6.77961 6.02C6.79961 6.05 6.82961 6.08 6.86961 6.1C6.89961 6.12 6.92961 6.14 6.96961 6.15C7.00961 6.17 7.03961 6.18 7.07961 6.19C7.11961 6.2 7.15961 6.2 7.19961 6.2L16.9996 6.2L16.9996 12.4C16.9996 12.44 16.9996 12.48 17.0096 12.52C17.0196 12.56 17.0296 12.59 17.0496 12.63C17.0596 12.67 17.0796 12.7 17.0996 12.73C17.1196 12.77 17.1496 12.8 17.1796 12.82C17.1996 12.85 17.2296 12.88 17.2696 12.9C17.2996 12.92 17.3296 12.94 17.3696 12.95C17.4096 12.97 17.4396 12.98 17.4796 12.99C17.5196 13 17.5596 13 17.5996 13C17.6396 13 17.6796 13 17.7196 12.99C17.7596 12.98 17.7896 12.97 17.8296 12.95C17.8696 12.94 17.8996 12.92 17.9296 12.9C17.9696 12.88 17.9996 12.85 18.0196 12.82C18.0496 12.8 18.0796 12.77 18.0996 12.73C18.1196 12.7 18.1396 12.67 18.1496 12.63C18.1696 12.59 18.1796 12.56 18.1896 12.52C18.1996 12.48 18.1996 12.44 18.1996 12.4L18.1996 5.6C18.1996 5.56 18.1996 5.52 18.1896 5.48C18.1796 5.44 18.1696 5.41 18.1496 5.37C18.1396 5.33 18.1196 5.3 18.0996 5.27C18.0796 5.23 18.0496 5.2 18.0196 5.18C17.9996 5.15 17.9696 5.12 17.9296 5.1C17.8996 5.08 17.8696 5.06 17.8296 5.05C17.7896 5.03 17.7596 5.02 17.7196 5.01C17.6796 5 17.6396 5 17.5996 5L7.19961 5Z">
      </path>
      <path id="直线 1 (轮廓)" fill-rule="evenodd" style="fill:#FFFFFF" opacity="1"
        d="M8.02387 11.9757C7.99559 11.9474 7.96731 11.9191 7.93195 11.8979C7.89659 11.8767 7.86831 11.8626 7.82588 11.8484C7.79053 11.8272 7.75517 11.8202 7.71982 11.8131C7.67739 11.7989 7.63496 11.7989 7.59961 11.806C7.56425 11.7989 7.52183 11.7989 7.4794 11.8131C7.44405 11.8202 7.40869 11.8272 7.37334 11.8484C7.33091 11.8626 7.30262 11.8767 7.26727 11.8979C7.23191 11.9191 7.20363 11.9474 7.17534 11.9757C7.14706 12.004 7.11878 12.0323 7.09756 12.0676C7.07635 12.103 7.06221 12.1313 7.04807 12.1737C7.02685 12.2091 7.01978 12.2444 7.01271 12.2798C6.99857 12.3222 6.99857 12.3646 7.00564 12.4C6.99857 12.4353 6.99857 12.4778 7.01271 12.5202C7.01978 12.5555 7.02685 12.5909 7.04807 12.6263C7.06221 12.6687 7.07635 12.697 7.09756 12.7323C7.11878 12.7677 7.14706 12.796 7.17534 12.8242L9.17646 14.8254C9.20474 14.8536 9.23303 14.8819 9.26838 14.9031C9.29667 14.9173 9.33202 14.9385 9.37445 14.9526C9.40273 14.9668 9.44516 14.9809 9.48051 14.988C9.51587 14.9951 9.5583 14.9951 9.60072 14.9951C9.63608 15.0021 9.6785 15.0021 9.72093 14.988C9.75628 14.9809 9.79164 14.9739 9.827 14.9526C9.86942 14.9385 9.89771 14.9244 9.93306 14.9031C9.96135 14.8749 9.9967 14.8536 10.025 14.8254C10.0533 14.7971 10.0745 14.7617 10.1028 14.7334C10.124 14.6981 10.1381 14.6698 10.1523 14.6274C10.1735 14.592 10.1805 14.5567 10.1876 14.5213C10.2018 14.4789 10.2018 14.4364 10.1947 14.4011C10.1947 14.3587 10.1947 14.3162 10.1876 14.2809C10.1805 14.2455 10.1664 14.2031 10.1523 14.1748C10.1381 14.1324 10.1169 14.097 10.1028 14.0688C10.0816 14.0334 10.0533 14.0051 10.025 13.9768L8.02387 11.9757Z">
      </path>
      <path id="直线 2 (轮廓)" fill-rule="evenodd" style="fill:#FFFFFF" opacity="1"
        d="M9.17622 13.9758C9.14793 14.004 9.11965 14.0323 9.09844 14.0677C9.07722 14.103 9.06308 14.1313 9.04894 14.1737C9.02773 14.2091 9.02065 14.2445 9.01358 14.2798C8.99944 14.3222 8.99944 14.3647 9.00651 14.4C8.99944 14.4354 8.99944 14.4778 9.01358 14.5202C9.02065 14.5556 9.02772 14.5909 9.04894 14.6263C9.06308 14.6687 9.07722 14.697 9.09844 14.7324C9.11965 14.7677 9.14793 14.796 9.17622 14.8243C9.2045 14.8526 9.23279 14.8809 9.26814 14.9021C9.3035 14.9233 9.33178 14.9374 9.37421 14.9516C9.40956 14.9728 9.44492 14.9799 9.48027 14.9869C9.5227 15.0011 9.56513 15.0011 9.60048 14.994C9.63584 15.0011 9.67826 15.0011 9.72069 14.9869C9.75604 14.9799 9.7914 14.9728 9.82676 14.9516C9.86918 14.9374 9.89747 14.9233 9.93282 14.9021C9.96818 14.8809 9.99646 14.8526 10.0247 14.8243L13.6239 11.2251C13.6522 11.1968 13.6805 11.1685 13.7017 11.1332C13.7229 11.0978 13.7371 11.0696 13.7512 11.0271C13.7724 10.9918 13.7795 10.9564 13.7866 10.9211C13.8007 10.8786 13.8007 10.8362 13.8007 10.7938C13.8007 10.7655 13.8007 10.7231 13.7866 10.6806C13.7795 10.6453 13.7724 10.6099 13.7583 10.5675C13.7371 10.5322 13.7229 10.5039 13.7017 10.4685C13.6805 10.4332 13.6522 10.4049 13.6239 10.3766C13.5956 10.3483 13.5674 10.32 13.532 10.2988C13.4966 10.2776 13.4684 10.2634 13.433 10.2422C13.3906 10.2281 13.3552 10.221 13.3199 10.214C13.2774 10.1998 13.235 10.1998 13.2067 10.1998C13.1643 10.1998 13.1219 10.1998 13.0794 10.214C13.0441 10.221 13.0087 10.2281 12.9734 10.2493C12.931 10.2634 12.9027 10.2776 12.8673 10.2988C12.832 10.32 12.8037 10.3483 12.7754 10.3766L9.17622 13.9758Z">
      </path>
      <path id="减去顶层" fill-rule="evenodd" style="fill:#E8CA99" opacity="1"
        d="M13.5996,16.8c0,-1.77 1.43,-3.2 3.2,-3.2c1.77,0 3.2,1.43 3.2,3.2c0,1.77 -1.43,3.2 -3.2,3.2c-1.77,0 -3.2,-1.43 -3.2,-3.2zM17.3496,14.97c-0.01,-0.03 -0.03,-0.07 -0.05,-0.11c-0.02,-0.03 -0.04,-0.06 -0.08,-0.08c-0.02,-0.04 -0.05,-0.06 -0.08,-0.08c-0.04,-0.02 -0.08,-0.04 -0.11,-0.05c-0.04,-0.02 -0.08,-0.03 -0.11,-0.04c-0.04,-0.01 -0.08,-0.01 -0.12,-0.01c-0.04,0 -0.08,0 -0.12,0.01c-0.03,0.01 -0.07,0.02 -0.11,0.04c-0.03,0.01 -0.07,0.03 -0.11,0.05c-0.03,0.02 -0.06,0.04 -0.08,0.08c-0.04,0.02 -0.06,0.05 -0.08,0.08c-0.02,0.04 -0.04,0.08 -0.05,0.11c-0.02,0.04 -0.03,0.08 -0.04,0.11c-0.01,0.04 -0.01,0.08 -0.01,0.12v1h-1c-0.04,0 -0.08,0 -0.12,0.01c-0.03,0.01 -0.07,0.02 -0.11,0.04c-0.03,0.01 -0.07,0.03 -0.11,0.05c-0.03,0.02 -0.06,0.04 -0.08,0.08c-0.04,0.02 -0.06,0.05 -0.08,0.08c-0.02,0.04 -0.04,0.08 -0.05,0.11c-0.02,0.04 -0.03,0.08 -0.04,0.11c-0.01,0.04 -0.01,0.08 -0.01,0.12c0,0.04 0,0.08 0.01,0.12c0.01,0.03 0.02,0.07 0.04,0.11c0.01,0.03 0.03,0.07 0.05,0.11c0.02,0.03 0.04,0.06 0.08,0.08c0.02,0.04 0.05,0.06 0.08,0.08c0.04,0.02 0.08,0.04 0.11,0.05c0.04,0.02 0.08,0.03 0.11,0.04c0.04,0.01 0.08,0.01 0.12,0.01h1v1c0,0.04 0,0.08 0.01,0.12c0.01,0.03 0.02,0.07 0.04,0.11c0.01,0.03 0.03,0.07 0.05,0.11c0.02,0.03 0.04,0.06 0.08,0.08c0.02,0.04 0.05,0.06 0.08,0.08c0.04,0.02 0.08,0.04 0.11,0.05c0.04,0.02 0.08,0.03 0.11,0.04c0.04,0.01 0.08,0.01 0.12,0.01c0.04,0 0.08,0 0.12,-0.01c0.03,-0.01 0.07,-0.02 0.11,-0.04c0.03,-0.01 0.07,-0.03 0.11,-0.05c0.03,-0.02 0.06,-0.04 0.08,-0.08c0.04,-0.02 0.06,-0.05 0.08,-0.08c0.02,-0.04 0.04,-0.08 0.05,-0.11c0.02,-0.04 0.03,-0.08 0.04,-0.11c0.01,-0.04 0.01,-0.08 0.01,-0.12v-1h1c0.04,0 0.08,0 0.12,-0.01c0.03,-0.01 0.07,-0.02 0.11,-0.04c0.03,-0.01 0.07,-0.03 0.11,-0.05c0.03,-0.02 0.06,-0.04 0.08,-0.08c0.04,-0.02 0.06,-0.05 0.08,-0.08c0.02,-0.04 0.04,-0.08 0.05,-0.11c0.02,-0.04 0.03,-0.08 0.04,-0.11c0.01,-0.04 0.01,-0.08 0.01,-0.12c0,-0.04 0,-0.08 -0.01,-0.12c-0.01,-0.03 -0.02,-0.07 -0.04,-0.11c-0.01,-0.03 -0.03,-0.07 -0.05,-0.11c-0.02,-0.03 -0.04,-0.06 -0.08,-0.08c-0.02,-0.04 -0.05,-0.06 -0.08,-0.08c-0.04,-0.02 -0.08,-0.04 -0.11,-0.05c-0.04,-0.02 -0.08,-0.03 -0.11,-0.04c-0.04,-0.01 -0.08,-0.01 -0.12,-0.01h-1v-1c0,-0.04 0,-0.08 -0.01,-0.12c-0.01,-0.03 -0.02,-0.07 -0.04,-0.11z">
      </path>
    </g>
  </g>
  <defs>
    <rect id="path_0" x="0" y="0" width="24" height="24" />
  </defs>
</svg>