<svg xmlns="http://www.w3.org/2000/svg" xmlns:xlink="http://www.w3.org/1999/xlink" width="24" height="24"
  viewBox="0 0 24 24" fill="none">
  <g opacity="1" transform="translate(0 0)  rotate(0)">
    <rect fill="#495AD4" opacity="1" transform="translate(0 0)  rotate(0)" x="0" y="0" width="24" height="24" rx="4"
      ry="4" />
    <mask id="bg-mask-0" fill="white">
      <use transform="translate(0 0)  rotate(0)" xlink:href="#path_0"></use>
    </mask>
    <g mask="url(#bg-mask-0)">
      <g opacity="1" transform="translate(5 5)  rotate(0)">
        <path id="路径 1 (轮廓)" fill-rule="evenodd" style="fill:#FFFFFF" opacity="1"
          d="M0.33,3.26l6.4,-3.2c0.17,-0.08 0.37,-0.08 0.54,0l6.4,3.2c0.44,0.22 0.44,0.86 0,1.08l-6.4,3.2c-0.17,0.08 -0.37,0.08 -0.54,0l-6.4,-3.2c-0.44,-0.22 -0.44,-0.86 0,-1.08zM7,6.33l5.06,-2.53l-5.06,-2.53l-5.06,2.53z">
        </path>
        <path id="路径 1 (轮廓)" fill-rule="evenodd" style="fill:#FFFFFF" opacity="1"
          d="M0.6 6.40002C0.27 6.40002 0 6.67002 0 7.00002C0 7.24002 0.14 7.45002 0.34 7.54002L6.73 10.74C6.9 10.82 7.1 10.82 7.27 10.74L10.47 9.14002L13.66 7.54002C13.86 7.45002 14 7.24002 14 7.00002C14 6.67002 13.73 6.40002 13.4 6.40002C13.3 6.40002 13.2 6.42002 13.12 6.47002L9.93 8.06002L8.33 8.86002L7 9.53003L0.88 6.47002C0.8 6.42002 0.7 6.40002 0.6 6.40002Z">
        </path>
        <path id="路径 1 (轮廓)" fill-rule="evenodd" style="fill:#FFFFFF" opacity="1"
          d="M0.6 9.59998C0.27 9.59998 0 9.86998 0 10.2C0 10.44 0.14 10.65 0.34 10.74L6.73 13.94C6.9 14.02 7.1 14.02 7.27 13.94L8.06 13.54C8.26 13.45 8.4 13.24 8.4 13C8.4 12.67 8.13 12.4 7.8 12.4C7.7 12.4 7.6 12.42 7.52 12.47L7 12.73L0.88 9.66998C0.8 9.61998 0.7 9.59998 0.6 9.59998Z">
        </path>
      </g>
      <path id="减去顶层" fill-rule="evenodd" style="fill:#E8CA99" opacity="1"
        d="M13.6,17.6c0,-1.77 1.43,-3.2 3.2,-3.2c1.77,0 3.2,1.43 3.2,3.2c0,1.77 -1.43,3.2 -3.2,3.2c-1.77,0 -3.2,-1.43 -3.2,-3.2zM17.35,15.77c-0.01,-0.03 -0.03,-0.07 -0.05,-0.11c-0.02,-0.03 -0.04,-0.06 -0.08,-0.08c-0.02,-0.04 -0.05,-0.06 -0.08,-0.08c-0.04,-0.02 -0.08,-0.04 -0.11,-0.05c-0.04,-0.02 -0.08,-0.03 -0.11,-0.04c-0.04,-0.01 -0.08,-0.01 -0.12,-0.01c-0.04,0 -0.08,0 -0.12,0.01c-0.03,0.01 -0.07,0.02 -0.11,0.04c-0.03,0.01 -0.07,0.03 -0.11,0.05c-0.03,0.02 -0.06,0.04 -0.08,0.08c-0.04,0.02 -0.06,0.05 -0.08,0.08c-0.02,0.04 -0.04,0.08 -0.05,0.11c-0.02,0.04 -0.03,0.08 -0.04,0.11c-0.01,0.04 -0.01,0.08 -0.01,0.12v1h-1c-0.04,0 -0.08,0 -0.12,0.01c-0.03,0.01 -0.07,0.02 -0.11,0.04c-0.03,0.01 -0.07,0.03 -0.11,0.05c-0.03,0.02 -0.06,0.04 -0.08,0.08c-0.04,0.02 -0.06,0.05 -0.08,0.08c-0.02,0.04 -0.04,0.08 -0.05,0.11c-0.02,0.04 -0.03,0.08 -0.04,0.11c-0.01,0.04 -0.01,0.08 -0.01,0.12c0,0.04 0,0.08 0.01,0.12c0.01,0.03 0.02,0.07 0.04,0.11c0.01,0.03 0.03,0.07 0.05,0.11c0.02,0.03 0.04,0.06 0.08,0.08c0.02,0.04 0.05,0.06 0.08,0.08c0.04,0.02 0.08,0.04 0.11,0.05c0.04,0.02 0.08,0.03 0.11,0.04c0.04,0.01 0.08,0.01 0.12,0.01h1v1c0,0.04 0,0.08 0.01,0.12c0.01,0.03 0.02,0.07 0.04,0.11c0.01,0.03 0.03,0.07 0.05,0.11c0.02,0.03 0.04,0.06 0.08,0.08c0.02,0.04 0.05,0.06 0.08,0.08c0.04,0.02 0.08,0.04 0.11,0.05c0.04,0.02 0.08,0.03 0.11,0.04c0.04,0.01 0.08,0.01 0.12,0.01c0.04,0 0.08,0 0.12,-0.01c0.03,-0.01 0.07,-0.02 0.11,-0.04c0.03,-0.01 0.07,-0.03 0.11,-0.05c0.03,-0.02 0.06,-0.04 0.08,-0.08c0.04,-0.02 0.06,-0.05 0.08,-0.08c0.02,-0.04 0.04,-0.08 0.05,-0.11c0.02,-0.04 0.03,-0.08 0.04,-0.11c0.01,-0.04 0.01,-0.08 0.01,-0.12v-1h1c0.04,0 0.08,0 0.12,-0.01c0.03,-0.01 0.07,-0.02 0.11,-0.04c0.03,-0.01 0.07,-0.03 0.11,-0.05c0.03,-0.02 0.06,-0.04 0.08,-0.08c0.04,-0.02 0.06,-0.05 0.08,-0.08c0.02,-0.04 0.04,-0.08 0.05,-0.11c0.02,-0.04 0.03,-0.08 0.04,-0.11c0.01,-0.04 0.01,-0.08 0.01,-0.12c0,-0.04 0,-0.08 -0.01,-0.12c-0.01,-0.03 -0.02,-0.07 -0.04,-0.11c-0.01,-0.03 -0.03,-0.07 -0.05,-0.11c-0.02,-0.03 -0.04,-0.06 -0.08,-0.08c-0.02,-0.04 -0.05,-0.06 -0.08,-0.08c-0.04,-0.02 -0.08,-0.04 -0.11,-0.05c-0.04,-0.02 -0.08,-0.03 -0.11,-0.04c-0.04,-0.01 -0.08,-0.01 -0.12,-0.01h-1v-1c0,-0.04 0,-0.08 -0.01,-0.12c-0.01,-0.03 -0.02,-0.07 -0.04,-0.11z">
      </path>
    </g>
  </g>
  <defs>
    <rect id="path_0" x="0" y="0" width="24" height="24" />
  </defs>
</svg>