<svg xmlns="http://www.w3.org/2000/svg" xmlns:xlink="http://www.w3.org/1999/xlink" width="24" height="24" viewBox="0 0 24 24" fill="none"><g opacity="1"  transform="translate(0 0)  rotate(0)"><rect fill="#495AD4" opacity="1" transform="translate(0 0)  rotate(0)" x="0" y="0" width="24" height="24" rx="4" /><mask id="bg-mask-0" fill="white"><use xlink:href="#path_0"></use></mask><g mask="url(#bg-mask-0)" ><g opacity="1"  transform="translate(4.199951171875 4.199951171875)  rotate(0)"><path id="减去顶层" fill-rule="evenodd" style="fill:#E8CA99" opacity="1" d="M9.40002,12.6c0,-1.77 1.42998,-3.19998 3.19998,-3.19998c1.77,0 3.2,1.42998 3.2,3.19998c0,1.77 -1.43,3.2 -3.2,3.2c-1.77,0 -3.19998,-1.43 -3.19998,-3.2zM13.15,10.77c-0.01,-0.03 -0.03,-0.07 -0.05,-0.11c-0.02,-0.03 -0.04,-0.06 -0.08,-0.08c-0.02,-0.04 -0.05,-0.06 -0.08,-0.08c-0.04,-0.02 -0.08,-0.04 -0.11,-0.05c-0.04,-0.02 -0.08,-0.03 -0.11,-0.04c-0.04,-0.01 -0.08,-0.01 -0.12,-0.01c-0.04,0 -0.08,0 -0.12,0.01c-0.03,0.01 -0.07,0.02 -0.11,0.04c-0.03,0.01 -0.07,0.03 -0.11,0.05c-0.03,0.02 -0.06,0.04 -0.08,0.08c-0.04,0.02 -0.06,0.05 -0.08,0.08c-0.02,0.04 -0.04,0.08 -0.05,0.11c-0.02,0.04 -0.03,0.08 -0.04,0.11c-0.01,0.04 -0.01,0.08 -0.01,0.12v1h-1c-0.04,0 -0.08,0 -0.12,0.01c-0.03,0.01 -0.07,0.02 -0.11,0.04c-0.03,0.01 -0.07,0.03 -0.11,0.05c-0.03,0.02 -0.06,0.04 -0.08,0.08c-0.04,0.02 -0.06,0.05 -0.08,0.08c-0.02,0.04 -0.04,0.08 -0.05,0.11c-0.02,0.04 -0.03,0.08 -0.04,0.11c-0.01,0.04 -0.01,0.08 -0.01,0.12c0,0.04 0,0.08 0.01,0.12c0.01,0.03 0.02,0.07 0.04,0.11c0.01,0.03 0.03,0.07 0.05,0.11c0.02,0.03 0.04,0.06 0.08,0.08c0.02,0.04 0.05,0.06 0.08,0.08c0.04,0.02 0.08,0.04 0.11,0.05c0.04,0.02 0.08,0.03 0.11,0.04c0.04,0.01 0.08,0.01 0.12,0.01h1v1c0,0.04 0,0.08 0.01,0.12c0.01,0.03 0.02,0.07 0.04,0.11c0.01,0.03 0.03,0.07 0.05,0.11c0.02,0.03 0.04,0.06 0.08,0.08c0.02,0.04 0.05,0.06 0.08,0.08c0.04,0.02 0.08,0.04 0.11,0.05c0.04,0.02 0.08,0.03 0.11,0.04c0.04,0.01 0.08,0.01 0.12,0.01c0.04,0 0.08,0 0.12,-0.01c0.03,-0.01 0.07,-0.02 0.11,-0.04c0.03,-0.01 0.07,-0.03 0.11,-0.05c0.03,-0.02 0.06,-0.04 0.08,-0.08c0.04,-0.02 0.06,-0.05 0.08,-0.08c0.02,-0.04 0.04,-0.08 0.05,-0.11c0.02,-0.04 0.03,-0.08 0.04,-0.11c0.01,-0.04 0.01,-0.08 0.01,-0.12v-1h1c0.04,0 0.08,0 0.12,-0.01c0.03,-0.01 0.07,-0.02 0.11,-0.04c0.03,-0.01 0.07,-0.03 0.11,-0.05c0.03,-0.02 0.06,-0.04 0.08,-0.08c0.04,-0.02 0.06,-0.05 0.08,-0.08c0.02,-0.04 0.04,-0.08 0.05,-0.11c0.02,-0.04 0.03,-0.08 0.04,-0.11c0.01,-0.04 0.01,-0.08 0.01,-0.12c0,-0.04 0,-0.08 -0.01,-0.12c-0.01,-0.03 -0.02,-0.07 -0.04,-0.11c-0.01,-0.03 -0.03,-0.07 -0.05,-0.11c-0.02,-0.03 -0.04,-0.06 -0.08,-0.08c-0.02,-0.04 -0.05,-0.06 -0.08,-0.08c-0.04,-0.02 -0.08,-0.04 -0.11,-0.05c-0.04,-0.02 -0.08,-0.03 -0.11,-0.04c-0.04,-0.01 -0.08,-0.01 -0.12,-0.01h-1v-1c0,-0.04 0,-0.08 -0.01,-0.12c-0.01,-0.03 -0.02,-0.07 -0.04,-0.11z"></path><path id="圆形 1 (轮廓)" fill-rule="evenodd" style="fill:#FFFFFF" opacity="1" d="M8.97005,3.44007c0.36,0.15 0.68,0.36 0.95,0.64c0.27995,0.27 0.48995,0.59 0.63995,0.95c0.16,0.37 0.24,0.76 0.24,1.17c0,0.41 -0.08,0.8 -0.24,1.17c-0.15,0.36 -0.36,0.68 -0.63995,0.95c-0.27,0.28 -0.59,0.49 -0.95,0.64c-0.37,0.16 -0.76,0.24 -1.17,0.24c-0.41,0 -0.8,-0.08 -1.17,-0.24c-0.36,-0.15 -0.68,-0.36 -0.95,-0.64c-0.28,-0.27 -0.49,-0.59 -0.64,-0.95c-0.16,-0.37 -0.24,-0.76 -0.24,-1.17c0,-0.41 0.08,-0.8 0.24,-1.17c0.15,-0.36 0.36,-0.68 0.64,-0.95c0.27,-0.28 0.59,-0.49 0.95,-0.64c0.37,-0.16 0.76,-0.24 1.17,-0.24c0.41,0 0.8,0.08 1.17,0.24zM6.53005,4.93007c-0.17,0.16 -0.3,0.35 -0.39,0.57c-0.09,0.22 -0.14,0.45 -0.14,0.7c0,0.25 0.05,0.48 0.14,0.7c0.09,0.22 0.22,0.41 0.39,0.57c0.16,0.17 0.35,0.3 0.57,0.39c0.22,0.09 0.45,0.14 0.7,0.14c0.25,0 0.48,-0.05 0.7,-0.14c0.22,-0.09 0.41,-0.22 0.57,-0.39c0.17,-0.16 0.3,-0.35 0.39,-0.57c0.09,-0.22 0.14,-0.45 0.14,-0.7c0,-0.25 -0.05,-0.48 -0.14,-0.7c-0.09,-0.22 -0.22,-0.41 -0.39,-0.57c-0.16,-0.17 -0.35,-0.3 -0.57,-0.39c-0.22,-0.09 -0.45,-0.14 -0.7,-0.14c-0.25,0 -0.48,0.05 -0.7,0.14c-0.22,0.09 -0.41,0.22 -0.57,0.39z"></path><path id="圆形 1 (轮廓)" fill-rule="evenodd" style="fill:#FFFFFF" opacity="1" d="M15.56 8.57C15.59 8.34 15.6 8.08 15.6 7.8C15.6 6.74 15.4 5.73 14.99 4.76C14.59 3.83 14.03 3 13.32 2.28C12.6 1.57 11.77 1.01 10.84 0.61C9.87 0.2 8.86 0 7.8 0C6.74 0 5.73 0.2 4.76 0.61C3.83 1.01 3 1.57 2.28 2.28C1.57 3 1.01 3.83 0.61 4.76C0.2 5.73 0 6.74 0 7.8C0 8.86 0.2 9.87 0.61 10.84C1.01 11.77 1.57 12.6 2.28 13.32C3 14.03 3.83 14.59 4.76 14.99C5.73 15.4 6.74 15.6 7.8 15.6C8.08 15.6 8.34 15.59 8.57 15.56L8.57 15.56C8.6 15.56 8.64 15.55 8.67 15.54C8.71 15.53 8.74 15.52 8.78 15.5C8.81 15.48 8.84 15.47 8.87 15.44C8.9 15.42 8.93 15.4 8.95 15.37C8.98 15.34 9 15.31 9.02 15.28C9.04 15.25 9.05 15.22 9.07 15.18C9.08 15.15 9.09 15.11 9.1 15.08C9.1 15.04 9.11 15 9.11 14.97C9.11 14.93 9.1 14.89 9.09 14.85C9.09 14.81 9.08 14.77 9.06 14.74C9.05 14.7 9.03 14.67 9 14.63C8.98 14.6 8.96 14.57 8.93 14.54C8.9 14.51 8.87 14.49 8.84 14.47C8.81 14.45 8.77 14.43 8.74 14.41C8.7 14.4 8.66 14.39 8.62 14.38C8.58 14.37 8.55 14.37 8.51 14.37C8.47 14.37 8.43 14.37 8.4 14.38C8.22 14.39 8.02 14.4 7.8 14.4C6.9 14.4 6.05 14.23 5.23 13.88C4.44 13.55 3.74 13.08 3.13 12.47C2.52 11.86 2.05 11.16 1.72 10.37C1.37 9.55 1.2 8.7 1.2 7.8C1.2 6.9 1.37 6.05 1.72 5.23C2.05 4.44 2.52 3.74 3.13 3.13C3.74 2.52 4.44 2.05 5.23 1.72C6.05 1.37 6.9 1.2 7.8 1.2C8.7 1.2 9.55 1.37 10.37 1.72C11.16 2.05 11.86 2.52 12.47 3.13C13.08 3.74 13.55 4.44 13.88 5.23C14.23 6.05 14.4 6.9 14.4 7.8C14.4 8.02 14.39 8.22 14.38 8.4C14.37 8.43 14.37 8.47 14.37 8.51C14.37 8.55 14.37 8.58 14.38 8.62C14.39 8.66 14.4 8.7 14.41 8.74C14.43 8.77 14.45 8.81 14.47 8.84C14.49 8.87 14.51 8.9 14.54 8.93C14.57 8.96 14.6 8.98 14.63 9C14.67 9.03 14.7 9.05 14.74 9.06C14.77 9.08 14.81 9.09 14.85 9.09C14.89 9.1 14.93 9.11 14.97 9.11C15 9.11 15.04 9.1 15.08 9.1C15.11 9.09 15.15 9.08 15.18 9.07C15.22 9.05 15.25 9.04 15.28 9.02C15.31 9 15.34 8.98 15.37 8.95C15.4 8.93 15.42 8.9 15.44 8.87C15.47 8.84 15.48 8.81 15.5 8.78C15.52 8.74 15.53 8.71 15.54 8.67C15.55 8.64 15.56 8.6 15.56 8.57L15.56 8.57Z"></path><path id="圆形 1 (轮廓)" fill-rule="evenodd" style="fill:#FFFFFF" opacity="1" d="M9.21 9.62C9.27 9.66 9.32 9.69 9.39 9.71C9.45 9.73 9.51 9.74 9.58 9.74C9.62 9.74 9.66 9.74 9.7 9.73C9.73 9.72 9.77 9.71 9.81 9.69C9.84 9.68 9.88 9.66 9.91 9.64C9.94 9.62 9.97 9.59 10 9.56C10.03 9.54 10.05 9.51 10.08 9.47C10.1 9.44 10.12 9.4 10.13 9.37C10.15 9.33 10.16 9.29 10.17 9.26C10.17 9.22 10.18 9.18 10.18 9.14C10.18 9.09 10.17 9.04 10.16 8.99C10.15 8.94 10.13 8.9 10.11 8.85C10.08 8.81 10.05 8.77 10.02 8.73C9.99 8.7 9.95 8.67 9.91 8.64L9.91 8.64C9.7 8.5 9.48 8.38 9.25 8.29C8.78 8.1 8.3 8 7.8 8C7.28 8 6.79 8.1 6.32 8.3C5.87 8.49 5.46 8.76 5.11 9.11C4.76 9.46 4.49 9.87 4.3 10.32C4.1 10.79 4 11.28 4 11.8C4 11.84 4 11.88 4.01 11.92C4.02 11.96 4.03 11.99 4.05 12.03C4.06 12.07 4.08 12.1 4.1 12.13C4.12 12.17 4.15 12.2 4.18 12.22C4.2 12.25 4.23 12.28 4.27 12.3C4.3 12.32 4.33 12.34 4.37 12.35C4.41 12.37 4.44 12.38 4.48 12.39C4.52 12.4 4.56 12.4 4.6 12.4C4.64 12.4 4.68 12.4 4.72 12.39C4.76 12.38 4.79 12.37 4.83 12.35C4.87 12.34 4.9 12.32 4.93 12.3C4.97 12.28 5 12.25 5.02 12.22C5.05 12.2 5.08 12.17 5.1 12.13C5.12 12.1 5.14 12.07 5.15 12.03C5.17 11.99 5.18 11.96 5.19 11.92C5.2 11.88 5.2 11.84 5.2 11.8C5.2 11.45 5.27 11.11 5.4 10.79C5.54 10.48 5.72 10.2 5.96 9.96C6.2 9.72 6.48 9.54 6.79 9.4C7.11 9.27 7.45 9.2 7.8 9.2C8.14 9.2 8.47 9.26 8.79 9.39C8.94 9.45 9.08 9.53 9.21 9.62Z"></path></g></g></g><defs><rect id="path_0" x="0" y="0" width="24" height="24" /></defs></svg>