<svg xmlns="http://www.w3.org/2000/svg" xmlns:xlink="http://www.w3.org/1999/xlink" width="24" height="24" viewBox="0 0 24 24" fill="none"><g opacity="1"  transform="translate(0 0)  rotate(0)"><rect fill="#495AD4" opacity="1" transform="translate(0 0)  rotate(0)" x="0" y="0" width="24" height="24" rx="4" /><mask id="bg-mask-0" fill="white"><use xlink:href="#path_0"></use></mask><g mask="url(#bg-mask-0)" ><path id="矩形 2 (轮廓)" fill-rule="evenodd" style="fill:#FFFFFF" opacity="1" d="M17.8,12.1zM17.8,12.1v-5.9h-11.6v9.2h5.8c0.04,0 0.08,0 0.12,0.01c0.04,0.01 0.07,0.02 0.11,0.04c0.04,0.01 0.07,0.03 0.1,0.05c0.04,0.02 0.07,0.05 0.09,0.08c0.03,0.02 0.06,0.05 0.08,0.09c0.02,0.03 0.04,0.06 0.05,0.1c0.02,0.04 0.03,0.07 0.04,0.11c0.01,0.04 0.01,0.08 0.01,0.12c0,0.04 0,0.08 -0.01,0.12c-0.01,0.04 -0.02,0.07 -0.04,0.11c-0.01,0.04 -0.03,0.07 -0.05,0.1c-0.02,0.04 -0.05,0.07 -0.08,0.09c-0.02,0.03 -0.05,0.06 -0.09,0.08c-0.03,0.02 -0.06,0.04 -0.1,0.05c-0.04,0.02 -0.07,0.03 -0.11,0.04c-0.04,0.01 -0.08,0.01 -0.12,0.01h-6.4c-0.04,0 -0.08,0 -0.12,-0.01c-0.04,-0.01 -0.07,-0.02 -0.11,-0.04c-0.04,-0.01 -0.07,-0.03 -0.1,-0.05c-0.04,-0.02 -0.07,-0.05 -0.09,-0.08c-0.03,-0.02 -0.06,-0.05 -0.08,-0.09c-0.02,-0.03 -0.04,-0.06 -0.05,-0.1c-0.02,-0.04 -0.03,-0.07 -0.04,-0.11c-0.01,-0.04 -0.01,-0.08 -0.01,-0.12v-10.4c0,-0.04 0,-0.08 0.01,-0.12c0.01,-0.04 0.02,-0.07 0.04,-0.11c0.01,-0.04 0.03,-0.07 0.05,-0.1c0.02,-0.04 0.05,-0.07 0.08,-0.09c0.02,-0.03 0.05,-0.06 0.09,-0.08c0.03,-0.02 0.06,-0.04 0.1,-0.05c0.04,-0.02 0.07,-0.03 0.11,-0.04c0.04,-0.01 0.08,-0.01 0.12,-0.01h12.8c0.04,0 0.08,0 0.12,0.01c0.04,0.01 0.07,0.02 0.11,0.04c0.04,0.01 0.07,0.03 0.1,0.05c0.04,0.02 0.07,0.05 0.09,0.08c0.03,0.02 0.06,0.05 0.08,0.09c0.02,0.03 0.04,0.06 0.05,0.1c0.02,0.04 0.03,0.07 0.04,0.11c0.01,0.04 0.01,0.08 0.01,0.12v6.5c0,0.04 0,0.08 -0.01,0.12c-0.01,0.04 -0.02,0.08 -0.04,0.11c-0.01,0.04 -0.03,0.07 -0.05,0.11c-0.02,0.03 -0.05,0.06 -0.08,0.09c-0.02,0.02 -0.06,0.05 -0.09,0.07c-0.03,0.02 -0.07,0.04 -0.1,0.05c-0.04,0.02 -0.07,0.03 -0.11,0.04c-0.04,0.01 -0.08,0.01 -0.12,0.01c-0.04,0 -0.08,0 -0.12,-0.01c-0.04,-0.01 -0.07,-0.02 -0.11,-0.04c-0.03,-0.01 -0.07,-0.03 -0.1,-0.05c-0.03,-0.02 -0.07,-0.05 -0.09,-0.07c-0.03,-0.03 -0.06,-0.06 -0.08,-0.09c-0.02,-0.04 -0.04,-0.07 -0.05,-0.11c-0.02,-0.03 -0.03,-0.07 -0.04,-0.11c-0.01,-0.04 -0.01,-0.08 -0.01,-0.12z"></path><path id="直线 1 (轮廓)" fill-rule="evenodd" style="fill:#FFFFFF" opacity="1" d="M5.6 17.8C5.56 17.8 5.52 17.8 5.48 17.81C5.44 17.82 5.41 17.83 5.37 17.85C5.33 17.86 5.3 17.88 5.27 17.9C5.23 17.92 5.2 17.95 5.18 17.98C5.15 18 5.12 18.03 5.1 18.07C5.08 18.1 5.06 18.13 5.05 18.17C5.03 18.21 5.02 18.24 5.01 18.28C5 18.32 5 18.36 5 18.4C5 18.44 5 18.48 5.01 18.52C5.02 18.56 5.03 18.59 5.05 18.63C5.06 18.67 5.08 18.7 5.1 18.73C5.12 18.77 5.15 18.8 5.18 18.82C5.2 18.85 5.23 18.88 5.27 18.9C5.3 18.92 5.33 18.94 5.37 18.95C5.41 18.97 5.44 18.98 5.48 18.99C5.52 19 5.56 19 5.6 19L12.8 19C12.84 19 12.88 19 12.92 18.99C12.96 18.98 12.99 18.97 13.03 18.95C13.07 18.94 13.1 18.92 13.13 18.9C13.17 18.88 13.2 18.85 13.22 18.82C13.25 18.8 13.28 18.77 13.3 18.73C13.32 18.7 13.34 18.67 13.35 18.63C13.37 18.59 13.38 18.56 13.39 18.52C13.4 18.48 13.4 18.44 13.4 18.4C13.4 18.36 13.4 18.32 13.39 18.28C13.38 18.24 13.37 18.21 13.35 18.17C13.34 18.13 13.32 18.1 13.3 18.07C13.28 18.03 13.25 18 13.22 17.98C13.2 17.95 13.17 17.92 13.13 17.9C13.1 17.88 13.07 17.86 13.03 17.85C12.99 17.83 12.96 17.82 12.92 17.81C12.88 17.8 12.84 17.8 12.8 17.8L5.6 17.8Z"></path><path id="路径 1 (轮廓)" fill-rule="evenodd" style="fill:#FFFFFF" opacity="1" d="M7.2001 10.6C7.1601 10.6 7.1201 10.6 7.0801 10.61C7.0401 10.62 7.0101 10.63 6.9701 10.65C6.9301 10.66 6.9001 10.68 6.8701 10.7C6.8301 10.72 6.8001 10.75 6.7801 10.78C6.7501 10.8 6.7201 10.83 6.7001 10.87C6.6801 10.9 6.6601 10.93 6.6501 10.97C6.6301 11.01 6.6201 11.04 6.6101 11.08C6.6001 11.12 6.6001 11.16 6.6001 11.2C6.6001 11.24 6.6001 11.28 6.6101 11.32C6.6201 11.36 6.6301 11.39 6.6501 11.43C6.6601 11.47 6.6801 11.5 6.7001 11.53C6.7201 11.57 6.7501 11.6 6.7801 11.62C6.8001 11.65 6.8301 11.68 6.8701 11.7C6.9001 11.72 6.9301 11.74 6.9701 11.75C7.0101 11.77 7.0401 11.78 7.0801 11.79C7.1201 11.8 7.1601 11.8 7.2001 11.8L9.6001 11.8C9.6801 11.8 9.7601 11.78 9.8301 11.75C9.9001 11.72 9.9701 11.68 10.0201 11.62L11.8801 9.77L13.8901 13.11C13.9101 13.14 13.9301 13.17 13.9601 13.2C13.9801 13.23 14.0101 13.26 14.0401 13.28C14.0701 13.31 14.1101 13.33 14.1401 13.34C14.1801 13.36 14.2201 13.37 14.2501 13.38C14.2901 13.39 14.3301 13.4 14.3701 13.4C14.4101 13.4 14.4501 13.4 14.4901 13.39C14.5301 13.39 14.5701 13.38 14.6001 13.36C14.6401 13.35 14.6701 13.33 14.7101 13.31C14.7501 13.29 14.7901 13.26 14.8201 13.22L17.2201 10.82C17.2801 10.77 17.3201 10.7 17.3501 10.63C17.3801 10.56 17.4001 10.48 17.4001 10.4C17.4001 10.36 17.4001 10.32 17.3901 10.28C17.3801 10.24 17.3701 10.21 17.3501 10.17C17.3401 10.13 17.3201 10.1 17.3001 10.07C17.2801 10.03 17.2501 10 17.2201 9.98C17.2001 9.95 17.1701 9.92 17.1301 9.9C17.1001 9.88 17.0701 9.86 17.0301 9.85C16.9901 9.83 16.9601 9.82 16.9201 9.81C16.8801 9.8 16.8401 9.8 16.8001 9.8C16.7201 9.8 16.6401 9.82 16.5701 9.85C16.5001 9.88 16.4301 9.92 16.3801 9.98L14.5201 11.83L12.5101 8.49C12.4901 8.45 12.4601 8.41 12.4201 8.38C12.4001 8.35 12.3701 8.32 12.3301 8.3C12.3001 8.28 12.2701 8.26 12.2301 8.25C12.1901 8.23 12.1601 8.22 12.1201 8.21C12.0801 8.2 12.0401 8.2 12.0001 8.2C11.9601 8.2 11.9201 8.2 11.8801 8.21C11.8401 8.22 11.8101 8.23 11.7701 8.25C11.7301 8.26 11.7001 8.28 11.6701 8.3C11.6301 8.32 11.6001 8.35 11.5801 8.38L9.3501 10.6L7.2001 10.6Z"></path><path id="减去顶层" fill-rule="evenodd" style="fill:#E8CA99" opacity="1" d="M13.6001,16.8c0,-1.77 1.43,-3.2 3.2,-3.2c1.77,0 3.2,1.43 3.2,3.2c0,1.77 -1.43,3.2 -3.2,3.2c-1.77,0 -3.2,-1.43 -3.2,-3.2zM17.3501,14.97c-0.01,-0.03 -0.03,-0.07 -0.05,-0.11c-0.02,-0.03 -0.04,-0.06 -0.08,-0.08c-0.02,-0.04 -0.05,-0.06 -0.08,-0.08c-0.04,-0.02 -0.08,-0.04 -0.11,-0.05c-0.04,-0.02 -0.08,-0.03 -0.11,-0.04c-0.04,-0.01 -0.08,-0.01 -0.12,-0.01c-0.04,0 -0.08,0 -0.12,0.01c-0.03,0.01 -0.07,0.02 -0.11,0.04c-0.03,0.01 -0.07,0.03 -0.11,0.05c-0.03,0.02 -0.06,0.04 -0.08,0.08c-0.04,0.02 -0.06,0.05 -0.08,0.08c-0.02,0.04 -0.04,0.08 -0.05,0.11c-0.02,0.04 -0.03,0.08 -0.04,0.11c-0.01,0.04 -0.01,0.08 -0.01,0.12v1h-1c-0.04,0 -0.08,0 -0.12,0.01c-0.03,0.01 -0.07,0.02 -0.11,0.04c-0.03,0.01 -0.07,0.03 -0.11,0.05c-0.03,0.02 -0.06,0.04 -0.08,0.08c-0.04,0.02 -0.06,0.05 -0.08,0.08c-0.02,0.04 -0.04,0.08 -0.05,0.11c-0.02,0.04 -0.03,0.08 -0.04,0.11c-0.01,0.04 -0.01,0.08 -0.01,0.12c0,0.04 0,0.08 0.01,0.12c0.01,0.03 0.02,0.07 0.04,0.11c0.01,0.03 0.03,0.07 0.05,0.11c0.02,0.03 0.04,0.06 0.08,0.08c0.02,0.04 0.05,0.06 0.08,0.08c0.04,0.02 0.08,0.04 0.11,0.05c0.04,0.02 0.08,0.03 0.11,0.04c0.04,0.01 0.08,0.01 0.12,0.01h1v1c0,0.04 0,0.08 0.01,0.12c0.01,0.03 0.02,0.07 0.04,0.11c0.01,0.03 0.03,0.07 0.05,0.11c0.02,0.03 0.04,0.06 0.08,0.08c0.02,0.04 0.05,0.06 0.08,0.08c0.04,0.02 0.08,0.04 0.11,0.05c0.04,0.02 0.08,0.03 0.11,0.04c0.04,0.01 0.08,0.01 0.12,0.01c0.04,0 0.08,0 0.12,-0.01c0.03,-0.01 0.07,-0.02 0.11,-0.04c0.03,-0.01 0.07,-0.03 0.11,-0.05c0.03,-0.02 0.06,-0.04 0.08,-0.08c0.04,-0.02 0.06,-0.05 0.08,-0.08c0.02,-0.04 0.04,-0.08 0.05,-0.11c0.02,-0.04 0.03,-0.08 0.04,-0.11c0.01,-0.04 0.01,-0.08 0.01,-0.12v-1h1c0.04,0 0.08,0 0.12,-0.01c0.03,-0.01 0.07,-0.02 0.11,-0.04c0.03,-0.01 0.07,-0.03 0.11,-0.05c0.03,-0.02 0.06,-0.04 0.08,-0.08c0.04,-0.02 0.06,-0.05 0.08,-0.08c0.02,-0.04 0.04,-0.08 0.05,-0.11c0.02,-0.04 0.03,-0.08 0.04,-0.11c0.01,-0.04 0.01,-0.08 0.01,-0.12c0,-0.04 0,-0.08 -0.01,-0.12c-0.01,-0.03 -0.02,-0.07 -0.04,-0.11c-0.01,-0.03 -0.03,-0.07 -0.05,-0.11c-0.02,-0.03 -0.04,-0.06 -0.08,-0.08c-0.02,-0.04 -0.05,-0.06 -0.08,-0.08c-0.04,-0.02 -0.08,-0.04 -0.11,-0.05c-0.04,-0.02 -0.08,-0.03 -0.11,-0.04c-0.04,-0.01 -0.08,-0.01 -0.12,-0.01h-1v-1c0,-0.04 0,-0.08 -0.01,-0.12c-0.01,-0.03 -0.02,-0.07 -0.04,-0.11z"></path></g></g><defs><rect id="path_0" x="0" y="0" width="24" height="24" /></defs></svg>