<svg xmlns="http://www.w3.org/2000/svg" xmlns:xlink="http://www.w3.org/1999/xlink" width="30" height="30" viewBox="0 0 30 30" fill="none"><g opacity="1"  transform="translate(0 0)  rotate(0)"><mask id="bg-mask-0" fill="white"><use xlink:href="#path_0"></use></mask><g mask="url(#bg-mask-0)" ><path id="圆形 1 (轮廓)" fill-rule="evenodd" style="fill:#A0A3B8" opacity="1" d="M6.39 14.56C6.3 14.69 6.25 14.84 6.25 15C6.25 15.05 6.25 15.1 6.26 15.15C6.27 15.19 6.29 15.24 6.31 15.29C6.33 15.33 6.35 15.38 6.38 15.42C6.4 15.46 6.43 15.5 6.47 15.53C6.5 15.57 6.54 15.6 6.58 15.62C6.62 15.65 6.67 15.67 6.71 15.69C6.76 15.71 6.81 15.73 6.85 15.74C6.9 15.75 6.95 15.75 7 15.75C7.06 15.75 7.12 15.74 7.18 15.73C7.23 15.71 7.29 15.69 7.34 15.67C7.4 15.64 7.45 15.61 7.49 15.57C7.54 15.53 7.58 15.48 7.61 15.44C7.94 14.97 8.31 14.56 8.71 14.19C9.53 13.42 10.47 12.83 11.53 12.41C12.63 11.97 13.79 11.75 15 11.75C16.21 11.75 17.37 11.97 18.47 12.41C19.53 12.83 20.47 13.42 21.29 14.19C21.69 14.55 22.06 14.97 22.39 15.44C22.42 15.48 22.46 15.53 22.51 15.57C22.55 15.61 22.6 15.64 22.66 15.67C22.71 15.69 22.77 15.71 22.82 15.73C22.88 15.74 22.94 15.75 23 15.75C23.05 15.75 23.1 15.75 23.15 15.74C23.19 15.73 23.24 15.71 23.29 15.69C23.33 15.67 23.38 15.65 23.42 15.62C23.46 15.6 23.5 15.57 23.53 15.53C23.57 15.5 23.6 15.46 23.62 15.42C23.65 15.38 23.67 15.33 23.69 15.29C23.71 15.24 23.73 15.19 23.74 15.15C23.75 15.1 23.75 15.05 23.75 15C23.75 14.84 23.7 14.69 23.61 14.56C23.22 14.01 22.78 13.52 22.31 13.09C21.36 12.2 20.26 11.5 19.02 11.01C17.74 10.5 16.4 10.25 15 10.25C13.6 10.25 12.26 10.5 10.98 11.01C9.74 11.5 8.65 12.19 7.69 13.09C7.22 13.52 6.78 14.01 6.39 14.56Z"></path><path id="圆形 1 (轮廓)" fill-rule="evenodd" style="fill:#A0A3B8" opacity="1" d="M6.39 15.44C6.3 15.31 6.25 15.16 6.25 15C6.25 14.95 6.25 14.9 6.26 14.85C6.27 14.81 6.29 14.76 6.31 14.71C6.33 14.67 6.35 14.62 6.38 14.58C6.4 14.54 6.43 14.5 6.47 14.47C6.5 14.43 6.54 14.4 6.58 14.38C6.62 14.35 6.67 14.33 6.71 14.31C6.76 14.29 6.81 14.27 6.85 14.26C6.9 14.25 6.95 14.25 7 14.25C7.06 14.25 7.12 14.26 7.18 14.27C7.23 14.29 7.29 14.31 7.34 14.33C7.4 14.36 7.45 14.39 7.49 14.43C7.54 14.47 7.58 14.52 7.61 14.56C7.94 15.03 8.31 15.44 8.71 15.81C9.53 16.58 10.47 17.17 11.53 17.59C12.63 18.03 13.79 18.25 15 18.25C16.21 18.25 17.37 18.03 18.47 17.59C19.53 17.17 20.47 16.58 21.29 15.81C21.69 15.45 22.06 15.03 22.39 14.56C22.42 14.52 22.46 14.47 22.51 14.43C22.55 14.39 22.6 14.36 22.66 14.33C22.71 14.31 22.77 14.29 22.82 14.27C22.88 14.26 22.94 14.25 23 14.25C23.05 14.25 23.1 14.25 23.15 14.26C23.19 14.27 23.24 14.29 23.29 14.31C23.33 14.33 23.38 14.35 23.42 14.38C23.46 14.4 23.5 14.43 23.53 14.47C23.57 14.5 23.6 14.54 23.62 14.58C23.65 14.62 23.67 14.67 23.69 14.71C23.71 14.76 23.73 14.81 23.74 14.85C23.75 14.9 23.75 14.95 23.75 15C23.75 15.16 23.7 15.31 23.61 15.44C23.22 15.99 22.78 16.48 22.31 16.91C21.36 17.8 20.26 18.5 19.02 18.99C17.74 19.5 16.4 19.75 15 19.75C13.6 19.75 12.26 19.5 10.98 18.99C9.74 18.5 8.65 17.81 7.69 16.91C7.22 16.48 6.78 15.99 6.39 15.44Z"></path><path id="圆形 2 (轮廓)" fill-rule="evenodd" style="fill:#A0A3B8" opacity="1" d="M16.07,12.47c0.33,0.14 0.62,0.33 0.87,0.59c0.26,0.25 0.45,0.54 0.59,0.87c0.15,0.34 0.22,0.7 0.22,1.07c0,0.37 -0.07,0.73 -0.22,1.07c-0.14,0.33 -0.33,0.62 -0.59,0.87c-0.25,0.26 -0.54,0.45 -0.87,0.59c-0.34,0.15 -0.7,0.22 -1.07,0.22c-0.37,0 -0.73,-0.07 -1.07,-0.22c-0.33,-0.14 -0.62,-0.33 -0.87,-0.59c-0.26,-0.25 -0.45,-0.54 -0.59,-0.87c-0.15,-0.34 -0.22,-0.7 -0.22,-1.07c0,-0.37 0.07,-0.73 0.22,-1.07c0.14,-0.33 0.33,-0.62 0.59,-0.87c0.25,-0.26 0.54,-0.45 0.87,-0.59c0.34,-0.15 0.7,-0.22 1.07,-0.22c0.37,0 0.73,0.07 1.07,0.22zM13.75,15c0,0.34 0.12,0.64 0.37,0.88c0.24,0.25 0.54,0.37 0.88,0.37c0.34,0 0.64,-0.12 0.88,-0.37c0.25,-0.24 0.37,-0.54 0.37,-0.88c0,-0.34 -0.12,-0.64 -0.37,-0.88c-0.24,-0.25 -0.54,-0.37 -0.88,-0.37c-0.34,0 -0.64,0.12 -0.88,0.37c-0.25,0.24 -0.37,0.54 -0.37,0.88z"></path></g></g><defs><rect id="path_0" x="0" y="0" width="30" height="30" /></defs></svg>