<svg xmlns="http://www.w3.org/2000/svg" xmlns:xlink="http://www.w3.org/1999/xlink" width="30" height="30" viewBox="0 0 30 30" fill="none"><g opacity="1"  transform="translate(0 0)  rotate(0)"><mask id="bg-mask-0" fill="white"><use xlink:href="#path_0"></use></mask><g mask="url(#bg-mask-0)" ><path id="矩形 2 (轮廓)" fill-rule="evenodd" style="fill:#131926" opacity="1" d="M6.25,23v-10c0,-0.05 0,-0.1 0.01,-0.15c0.01,-0.04 0.03,-0.09 0.05,-0.14c0.02,-0.04 0.04,-0.09 0.07,-0.13c0.02,-0.04 0.05,-0.08 0.09,-0.11c0.03,-0.04 0.07,-0.07 0.11,-0.09c0.04,-0.03 0.09,-0.05 0.13,-0.07c0.05,-0.02 0.1,-0.04 0.14,-0.05c0.05,-0.01 0.1,-0.01 0.15,-0.01h16c0.05,0 0.1,0 0.15,0.01c0.04,0.01 0.09,0.03 0.14,0.05c0.04,0.02 0.09,0.04 0.13,0.07c0.04,0.02 0.08,0.05 0.11,0.09c0.04,0.03 0.07,0.07 0.09,0.11c0.03,0.04 0.05,0.09 0.07,0.13c0.02,0.05 0.04,0.1 0.05,0.14c0.01,0.05 0.01,0.1 0.01,0.15v10c0,0.05 0,0.1 -0.01,0.15c-0.01,0.04 -0.03,0.09 -0.05,0.14c-0.02,0.04 -0.04,0.09 -0.07,0.13c-0.02,0.04 -0.05,0.08 -0.09,0.11c-0.03,0.04 -0.07,0.07 -0.11,0.09c-0.04,0.03 -0.09,0.05 -0.13,0.07c-0.05,0.02 -0.1,0.04 -0.14,0.05c-0.05,0.01 -0.1,0.01 -0.15,0.01h-16c-0.05,0 -0.1,0 -0.15,-0.01c-0.04,-0.01 -0.09,-0.03 -0.14,-0.05c-0.04,-0.02 -0.09,-0.04 -0.13,-0.07c-0.04,-0.02 -0.08,-0.05 -0.11,-0.09c-0.04,-0.03 -0.07,-0.07 -0.09,-0.11c-0.03,-0.04 -0.05,-0.09 -0.07,-0.13c-0.02,-0.05 -0.04,-0.1 -0.05,-0.14c-0.01,-0.05 -0.01,-0.1 -0.01,-0.15zM7.75,13.75v8.5h14.5v-8.5z"></path><path id="圆形 1 (轮廓)" fill-rule="evenodd" style="fill:#131926" opacity="1" d="M18.25 10C18.25 10.05 18.25 10.1 18.26 10.15C18.27 10.19 18.29 10.24 18.31 10.29C18.33 10.33 18.35 10.38 18.38 10.42C18.4 10.46 18.43 10.5 18.47 10.53C18.5 10.57 18.54 10.6 18.58 10.62C18.62 10.65 18.67 10.67 18.71 10.69C18.76 10.71 18.81 10.73 18.85 10.74C18.9 10.75 18.95 10.75 19 10.75C19.05 10.75 19.1 10.75 19.15 10.74C19.19 10.73 19.24 10.71 19.29 10.69C19.33 10.67 19.38 10.65 19.42 10.62C19.46 10.6 19.5 10.57 19.53 10.53C19.57 10.5 19.6 10.46 19.62 10.42C19.65 10.38 19.67 10.33 19.69 10.29C19.71 10.24 19.73 10.19 19.74 10.15C19.75 10.1 19.75 10.05 19.75 10C19.75 9.36 19.63 8.74 19.38 8.15C19.14 7.58 18.8 7.08 18.36 6.64C17.92 6.2 17.42 5.86 16.85 5.62C16.26 5.37 15.64 5.25 15 5.25C14.36 5.25 13.74 5.37 13.15 5.62C12.58 5.86 12.08 6.2 11.64 6.64C11.2 7.08 10.86 7.58 10.62 8.15C10.37 8.74 10.25 9.36 10.25 10C10.25 10.05 10.25 10.1 10.26 10.15C10.27 10.19 10.29 10.24 10.31 10.29C10.33 10.33 10.35 10.38 10.38 10.42C10.4 10.46 10.43 10.5 10.47 10.53C10.5 10.57 10.54 10.6 10.58 10.62C10.62 10.65 10.67 10.67 10.71 10.69C10.76 10.71 10.81 10.73 10.85 10.74C10.9 10.75 10.95 10.75 11 10.75C11.05 10.75 11.1 10.75 11.15 10.74C11.19 10.73 11.24 10.71 11.29 10.69C11.33 10.67 11.38 10.65 11.42 10.62C11.46 10.6 11.5 10.57 11.53 10.53C11.57 10.5 11.6 10.46 11.62 10.42C11.65 10.38 11.67 10.33 11.69 10.29C11.71 10.24 11.73 10.19 11.74 10.15C11.75 10.1 11.75 10.05 11.75 10C11.75 9.56 11.84 9.14 12.01 8.73C12.17 8.35 12.4 8 12.7 7.7C13 7.4 13.35 7.17 13.73 7.01C14.14 6.84 14.56 6.75 15 6.75C15.44 6.75 15.86 6.84 16.27 7.01C16.65 7.17 17 7.4 17.3 7.7C17.6 8 17.83 8.35 17.99 8.73C18.16 9.14 18.25 9.56 18.25 10Z"></path><path id="直线 1 (轮廓)" fill-rule="evenodd" style="fill:#131926" opacity="1" d="M11.75 10C11.75 9.95 11.75 9.9 11.74 9.85C11.73 9.81 11.71 9.76 11.69 9.71C11.67 9.67 11.65 9.62 11.62 9.58C11.6 9.54 11.57 9.5 11.53 9.47C11.5 9.43 11.46 9.4 11.42 9.38C11.38 9.35 11.33 9.33 11.29 9.31C11.24 9.29 11.19 9.27 11.15 9.26C11.1 9.25 11.05 9.25 11 9.25C10.95 9.25 10.9 9.25 10.85 9.26C10.81 9.27 10.76 9.29 10.71 9.31C10.67 9.33 10.62 9.35 10.58 9.38C10.54 9.4 10.5 9.43 10.47 9.47C10.43 9.5 10.4 9.54 10.38 9.58C10.35 9.62 10.33 9.67 10.31 9.71C10.29 9.76 10.27 9.81 10.26 9.85C10.25 9.9 10.25 9.95 10.25 10L10.25 13C10.25 13.05 10.25 13.1 10.26 13.15C10.27 13.19 10.29 13.24 10.31 13.29C10.33 13.33 10.35 13.38 10.38 13.42C10.4 13.46 10.43 13.5 10.47 13.53C10.5 13.57 10.54 13.6 10.58 13.62C10.62 13.65 10.67 13.67 10.71 13.69C10.76 13.71 10.81 13.73 10.85 13.74C10.9 13.75 10.95 13.75 11 13.75C11.05 13.75 11.1 13.75 11.15 13.74C11.19 13.73 11.24 13.71 11.29 13.69C11.33 13.67 11.38 13.65 11.42 13.62C11.46 13.6 11.5 13.57 11.53 13.53C11.57 13.5 11.6 13.46 11.62 13.42C11.65 13.38 11.67 13.33 11.69 13.29C11.71 13.24 11.73 13.19 11.74 13.15C11.75 13.1 11.75 13.05 11.75 13L11.75 10Z"></path><path id="直线 2 (轮廓)" fill-rule="evenodd" style="fill:#495AD4" opacity="1" d="M12 17.25C11.95 17.25 11.9 17.25 11.85 17.26C11.81 17.27 11.76 17.29 11.71 17.31C11.67 17.33 11.62 17.35 11.58 17.38C11.54 17.4 11.5 17.43 11.47 17.47C11.43 17.5 11.4 17.54 11.38 17.58C11.35 17.62 11.33 17.67 11.31 17.71C11.29 17.76 11.27 17.81 11.26 17.85C11.25 17.9 11.25 17.95 11.25 18C11.25 18.05 11.25 18.1 11.26 18.15C11.27 18.19 11.29 18.24 11.31 18.29C11.33 18.33 11.35 18.38 11.38 18.42C11.4 18.46 11.43 18.5 11.47 18.53C11.5 18.57 11.54 18.6 11.58 18.62C11.62 18.65 11.67 18.67 11.71 18.69C11.76 18.71 11.81 18.73 11.85 18.74C11.9 18.75 11.95 18.75 12 18.75L18 18.75C18.05 18.75 18.1 18.75 18.15 18.74C18.19 18.73 18.24 18.71 18.29 18.69C18.33 18.67 18.38 18.65 18.42 18.62C18.46 18.6 18.5 18.57 18.53 18.53C18.57 18.5 18.6 18.46 18.62 18.42C18.65 18.38 18.67 18.33 18.69 18.29C18.71 18.24 18.73 18.19 18.74 18.15C18.75 18.1 18.75 18.05 18.75 18C18.75 17.95 18.75 17.9 18.74 17.85C18.73 17.81 18.71 17.76 18.69 17.71C18.67 17.67 18.65 17.62 18.62 17.58C18.6 17.54 18.57 17.5 18.53 17.47C18.5 17.43 18.46 17.4 18.42 17.38C18.38 17.35 18.33 17.33 18.29 17.31C18.24 17.29 18.19 17.27 18.15 17.26C18.1 17.25 18.05 17.25 18 17.25L12 17.25Z"></path></g></g><defs><rect id="path_0" x="0" y="0" width="30" height="30" /></defs></svg>