<svg xmlns="http://www.w3.org/2000/svg" xmlns:xlink="http://www.w3.org/1999/xlink" width="30" height="30" viewBox="0 0 30 30" fill="none"><g opacity="1"  transform="translate(0 0)  rotate(0)"><mask id="bg-mask-0" fill="white"><use xlink:href="#path_0"></use></mask><g mask="url(#bg-mask-0)" ><path id="圆形 1 (轮廓)" fill-rule="evenodd" style="fill:#A0A3B8" opacity="1" d="M6.39002 13.44C6.30002 13.31 6.25002 13.16 6.25002 13C6.25002 12.95 6.25002 12.9 6.26002 12.85C6.27002 12.81 6.29002 12.76 6.31002 12.71C6.33002 12.67 6.35002 12.62 6.38002 12.58C6.40002 12.54 6.43002 12.5 6.47002 12.47C6.50002 12.43 6.54002 12.4 6.58002 12.38C6.62002 12.35 6.67002 12.33 6.71002 12.31C6.76002 12.29 6.81002 12.27 6.85002 12.26C6.90002 12.25 6.95002 12.25 7.00002 12.25C7.06002 12.25 7.12002 12.26 7.18002 12.27C7.23002 12.29 7.29002 12.31 7.34002 12.33C7.40002 12.36 7.45002 12.39 7.49002 12.43C7.54002 12.47 7.58002 12.52 7.61002 12.56C7.94002 13.03 8.31001 13.44 8.71002 13.81C9.53001 14.58 10.47 15.17 11.53 15.59C12.63 16.03 13.79 16.25 15 16.25C16.21 16.25 17.37 16.03 18.47 15.59C19.53 15.17 20.47 14.58 21.29 13.81C21.69 13.45 22.06 13.03 22.39 12.56C22.42 12.52 22.46 12.47 22.51 12.43C22.55 12.39 22.6 12.36 22.66 12.33C22.71 12.31 22.77 12.29 22.82 12.27C22.88 12.26 22.94 12.25 23 12.25C23.05 12.25 23.1 12.25 23.15 12.26C23.19 12.27 23.24 12.29 23.29 12.31C23.33 12.33 23.38 12.35 23.42 12.38C23.46 12.4 23.5 12.43 23.53 12.47C23.57 12.5 23.6 12.54 23.62 12.58C23.65 12.62 23.67 12.67 23.69 12.71C23.71 12.76 23.73 12.81 23.74 12.85C23.75 12.9 23.75 12.95 23.75 13C23.75 13.16 23.7 13.31 23.61 13.44C23.22 13.99 22.78 14.48 22.31 14.91C21.36 15.8 20.26 16.5 19.02 16.99C17.74 17.5 16.4 17.75 15 17.75C13.6 17.75 12.26 17.5 10.98 16.99C9.74002 16.5 8.65001 15.81 7.69002 14.91C7.22002 14.48 6.78001 13.99 6.39002 13.44Z"></path><path id="直线 1 (轮廓)" fill-rule="evenodd" style="fill:#A0A3B8" opacity="1" d="M15.75 17C15.75 16.95 15.75 16.9 15.74 16.85C15.73 16.81 15.71 16.76 15.69 16.71C15.67 16.67 15.65 16.62 15.62 16.58C15.6 16.54 15.57 16.5 15.53 16.47C15.5 16.43 15.46 16.4 15.42 16.38C15.38 16.35 15.33 16.33 15.29 16.31C15.24 16.29 15.19 16.27 15.15 16.26C15.1 16.25 15.05 16.25 15 16.25C14.95 16.25 14.9 16.25 14.85 16.26C14.81 16.27 14.76 16.29 14.71 16.31C14.67 16.33 14.62 16.35 14.58 16.38C14.54 16.4 14.5 16.43 14.47 16.47C14.43 16.5 14.4 16.54 14.38 16.58C14.35 16.62 14.33 16.67 14.31 16.71C14.29 16.76 14.27 16.81 14.26 16.85C14.25 16.9 14.25 16.95 14.25 17L14.25 20C14.25 20.05 14.25 20.1 14.26 20.15C14.27 20.19 14.29 20.24 14.31 20.29C14.33 20.33 14.35 20.38 14.38 20.42C14.4 20.46 14.43 20.5 14.47 20.53C14.5 20.57 14.54 20.6 14.58 20.62C14.62 20.65 14.67 20.67 14.71 20.69C14.76 20.71 14.81 20.73 14.85 20.74C14.9 20.75 14.95 20.75 15 20.75C15.05 20.75 15.1 20.75 15.15 20.74C15.19 20.73 15.24 20.71 15.29 20.69C15.33 20.67 15.38 20.65 15.42 20.62C15.46 20.6 15.5 20.57 15.53 20.53C15.57 20.5 15.6 20.46 15.62 20.42C15.65 20.38 15.67 20.33 15.69 20.29C15.71 20.24 15.73 20.19 15.74 20.15C15.75 20.1 15.75 20.05 15.75 20L15.75 17Z"></path><g opacity="1"  transform="translate(8.75 16)  rotate(0)"><path id="直线 1 (轮廓)" fill-rule="evenodd" style="fill:#A0A3B8" opacity="1" d="M11.6495 -0.375017C11.6245 -0.418318 11.5995 -0.46162 11.5659 -0.499921C11.5372 -0.529562 11.4949 -0.562863 11.4526 -0.596164C11.4152 -0.620806 11.3729 -0.654107 11.3269 -0.673748C11.2896 -0.698389 11.2436 -0.71803 11.194 -0.724011C11.148 -0.743652 11.0984 -0.749632 11.0537 -0.746953C11.0041 -0.752934 10.9508 -0.745254 10.9061 -0.742575C10.8528 -0.734895 10.7995 -0.727216 10.7599 -0.715876C10.7116 -0.699536 10.6683 -0.674536 10.625 -0.649536C10.5817 -0.624536 10.5384 -0.599536 10.5001 -0.565876C10.4705 -0.537216 10.4372 -0.494895 10.4039 -0.452575C10.3792 -0.415254 10.3459 -0.372934 10.3263 -0.326953C10.3016 -0.289632 10.282 -0.243652 10.276 -0.194011C10.2564 -0.14803 10.2504 -0.0983888 10.2531 -0.0537478C10.2471 -0.00410676 10.2548 0.0491945 10.2574 0.0938356C10.2651 0.147137 10.2728 0.200438 10.2841 0.240079C10.3005 0.28838 10.3255 0.331682 10.3505 0.374983L11.8505 2.97306C11.8755 3.01636 11.9005 3.05966 11.9341 3.09796C11.9628 3.1276 12.0051 3.1609 12.0474 3.19421C12.0848 3.21885 12.1271 3.25215 12.1731 3.27179C12.2104 3.29643 12.2564 3.31607 12.306 3.32205C12.352 3.34169 12.4016 3.34767 12.4463 3.34499C12.4959 3.35098 12.5492 3.3433 12.5939 3.34062C12.6472 3.33294 12.7005 3.32526 12.7401 3.31392C12.7884 3.29758 12.8317 3.27258 12.875 3.24758C12.9183 3.22258 12.9616 3.19758 12.9999 3.16392C13.0295 3.13526 13.0628 3.09294 13.0961 3.05062C13.1208 3.0133 13.1541 2.97098 13.1737 2.92499C13.1984 2.88767 13.218 2.84169 13.224 2.79205C13.2436 2.74607 13.2496 2.69643 13.2469 2.65179C13.2529 2.60215 13.2452 2.54885 13.2426 2.50421C13.2349 2.45091 13.2272 2.3976 13.2159 2.35796C13.1995 2.30966 13.1745 2.26636 13.1495 2.22306L11.6495 -0.375017Z"></path><path id="直线 1 (轮廓)" fill-rule="evenodd" style="fill:#A0A3B8" opacity="1" d="M2.14952 0.374983C2.17452 0.331682 2.19952 0.28838 2.21586 0.240079C2.2272 0.200438 2.23488 0.147137 2.24256 0.0938356C2.24524 0.0491945 2.25292 -0.00410676 2.24694 -0.0537477C2.24962 -0.0983888 2.24364 -0.14803 2.224 -0.194011C2.21801 -0.243652 2.19837 -0.289632 2.17373 -0.326953C2.15409 -0.372934 2.12079 -0.415254 2.09615 -0.452575C2.06285 -0.494895 2.02955 -0.537216 1.99991 -0.565876C1.9616 -0.599536 1.9183 -0.624536 1.875 -0.649536C1.8317 -0.674536 1.7884 -0.699536 1.7401 -0.715876C1.70046 -0.727216 1.64716 -0.734895 1.59385 -0.742575C1.54921 -0.745254 1.49591 -0.752934 1.44627 -0.746953C1.40163 -0.749632 1.35199 -0.743652 1.30601 -0.724011C1.25637 -0.71803 1.21039 -0.698389 1.17307 -0.673748C1.12709 -0.654107 1.08476 -0.620806 1.04744 -0.596165C1.00512 -0.562863 0.962803 -0.529562 0.934143 -0.499921C0.900483 -0.46162 0.875483 -0.418319 0.850483 -0.375017L-0.649518 2.22306C-0.674517 2.26636 -0.699517 2.30966 -0.715857 2.35796C-0.727197 2.3976 -0.734877 2.45091 -0.742556 2.50421C-0.745235 2.54885 -0.752915 2.60215 -0.746934 2.65179C-0.749614 2.69643 -0.743633 2.74607 -0.723992 2.79205C-0.718011 2.84169 -0.69837 2.88767 -0.673729 2.92499C-0.654088 2.97098 -0.620787 3.0133 -0.596146 3.05062C-0.562845 3.09294 -0.529543 3.13526 -0.499902 3.16392C-0.461601 3.19758 -0.4183 3.22258 -0.374998 3.24758C-0.331697 3.27258 -0.288396 3.29758 -0.240094 3.31392C-0.200454 3.32526 -0.147152 3.33294 -0.0938511 3.34062C-0.0492101 3.3433 0.00409126 3.35098 0.0537324 3.34499C0.0983734 3.34767 0.148014 3.34169 0.193995 3.32205C0.243636 3.31607 0.289617 3.29643 0.326937 3.27179C0.372918 3.25215 0.415239 3.21885 0.452559 3.19421C0.49488 3.16091 0.5372 3.1276 0.56586 3.09796C0.599521 3.05966 0.624521 3.01636 0.649521 2.97306L2.14952 0.374983Z"></path></g></g></g><defs><rect id="path_0" x="0" y="0" width="30" height="30" /></defs></svg>