<svg xmlns="http://www.w3.org/2000/svg" xmlns:xlink="http://www.w3.org/1999/xlink" width="30" height="30" viewBox="0 0 30 30" fill="none"><g opacity="1"  transform="translate(0 0)  rotate(0)"><rect fill="#495AD4" opacity="1" transform="translate(0 0)  rotate(0)" x="0" y="0" width="30" height="30" rx="2" /><mask id="bg-mask-0" fill="white"><use xlink:href="#path_0"></use></mask><g mask="url(#bg-mask-0)" ><g opacity="1"  transform="translate(10.25 8.25)  rotate(0)"><path id="直线 1 (轮廓)" fill-rule="evenodd" style="fill:#FFFFFF" opacity="1" d="M1.5 0.75C1.5 0.7 1.5 0.65 1.49 0.6C1.48 0.56 1.46 0.51 1.44 0.46C1.42 0.42 1.4 0.37 1.37 0.33C1.35 0.29 1.32 0.25 1.28 0.22C1.25 0.18 1.21 0.15 1.17 0.13C1.13 0.1 1.08 0.08 1.04 0.06C0.99 0.04 0.94 0.02 0.9 0.01C0.85 3.9801e-17 0.8 4.28626e-17 0.75 4.59243e-17C0.7 4.89859e-17 0.65 5.20475e-17 0.6 0.01C0.56 0.02 0.51 0.04 0.46 0.06C0.42 0.08 0.37 0.1 0.33 0.13C0.29 0.15 0.25 0.18 0.22 0.22C0.18 0.25 0.15 0.29 0.13 0.33C0.1 0.37 0.08 0.42 0.0599999 0.46C0.04 0.51 0.02 0.56 0.00999999 0.6C0 0.65 0 0.7 0 0.75L0 12.75C0 12.8 0 12.85 0.00999999 12.9C0.02 12.94 0.04 12.99 0.0599999 13.04C0.08 13.08 0.1 13.13 0.13 13.17C0.15 13.21 0.18 13.25 0.22 13.28C0.25 13.32 0.29 13.35 0.33 13.37C0.37 13.4 0.42 13.42 0.46 13.44C0.51 13.46 0.56 13.48 0.6 13.49C0.65 13.5 0.7 13.5 0.75 13.5C0.8 13.5 0.85 13.5 0.9 13.49C0.94 13.48 0.99 13.46 1.04 13.44C1.08 13.42 1.13 13.4 1.17 13.37C1.21 13.35 1.25 13.32 1.28 13.28C1.32 13.25 1.35 13.21 1.37 13.17C1.4 13.13 1.42 13.08 1.44 13.04C1.46 12.99 1.48 12.94 1.49 12.9C1.5 12.85 1.5 12.8 1.5 12.75L1.5 0.75Z"></path><path id="直线 1 (轮廓)" fill-rule="evenodd" style="fill:#FFFFFF" opacity="1" d="M9.5 0.75C9.5 0.7 9.5 0.65 9.49 0.6C9.48 0.56 9.46 0.51 9.44 0.46C9.42 0.42 9.4 0.37 9.37 0.33C9.35 0.29 9.32 0.25 9.28 0.22C9.25 0.18 9.21 0.15 9.17 0.13C9.13 0.1 9.08 0.08 9.04 0.06C8.99 0.04 8.94 0.02 8.9 0.01C8.85 3.9801e-17 8.8 4.28626e-17 8.75 4.59243e-17C8.7 4.89859e-17 8.65 5.20475e-17 8.6 0.01C8.56 0.02 8.51 0.04 8.46 0.06C8.42 0.08 8.37 0.1 8.33 0.13C8.29 0.15 8.25 0.18 8.22 0.22C8.18 0.25 8.15 0.29 8.13 0.33C8.1 0.37 8.08 0.42 8.06 0.46C8.04 0.51 8.02 0.56 8.01 0.6C8 0.65 8 0.7 8 0.75L8 12.75C8 12.8 8 12.85 8.01 12.9C8.02 12.94 8.04 12.99 8.06 13.04C8.08 13.08 8.1 13.13 8.13 13.17C8.15 13.21 8.18 13.25 8.22 13.28C8.25 13.32 8.29 13.35 8.33 13.37C8.37 13.4 8.42 13.42 8.46 13.44C8.51 13.46 8.56 13.48 8.6 13.49C8.65 13.5 8.7 13.5 8.75 13.5C8.8 13.5 8.85 13.5 8.9 13.49C8.94 13.48 8.99 13.46 9.04 13.44C9.08 13.42 9.13 13.4 9.17 13.37C9.21 13.35 9.25 13.32 9.28 13.28C9.32 13.25 9.35 13.21 9.37 13.17C9.4 13.13 9.42 13.08 9.44 13.04C9.46 12.99 9.48 12.94 9.49 12.9C9.5 12.85 9.5 12.8 9.5 12.75L9.5 0.75Z"></path></g></g></g><defs><rect id="path_0" x="0" y="0" width="30" height="30" /></defs></svg>