<svg xmlns="http://www.w3.org/2000/svg" xmlns:xlink="http://www.w3.org/1999/xlink" width="24" height="24" viewBox="0 0 24 24" fill="none"><path d="M5 5.6L5 18.4C5 18.7314 5.26863 19 5.6 19L18.4 19C18.7313 19 19 18.7314 19 18.4L19 5.6C19 5.26863 18.7313 5 18.4 5L5.6 5C5.26863 5 5 5.26863 5 5.6ZM6.2 17.8L6.2 6.2L17.8 6.2L17.8 17.8L6.2 17.8Z" fill-rule="evenodd"  fill="#FFFFFF" ></path><path d="M9.59995 8.19995C9.26858 8.19995 8.99995 8.46858 8.99995 8.79995L8.99995 15.2C8.99995 15.5313 9.26858 15.8 9.59995 15.8C9.93132 15.8 10.2 15.5313 10.2 15.2L10.2 8.79995C10.2 8.46858 9.93132 8.19995 9.59995 8.19995Z" fill-rule="evenodd"  fill="#FFFFFF" ></path><path d="M14.4 8.19995C14.0686 8.19995 13.8 8.46858 13.8 8.79995L13.8 15.2C13.8 15.5313 14.0686 15.8 14.4 15.8C14.7314 15.8 15 15.5313 15 15.2L15 8.79995C15 8.46858 14.7314 8.19995 14.4 8.19995Z" fill-rule="evenodd"  fill="#FFFFFF" ></path></svg>