<svg xmlns="http://www.w3.org/2000/svg" xmlns:xlink="http://www.w3.org/1999/xlink" width="24" height="24" viewBox="0 0 24 24" fill="none"><path d="M9.60019 8.2002C9.26882 8.2002 9.0002 8.46882 9.0002 8.8002L9.0002 15.2002C9.0002 15.5316 9.26882 15.8002 9.60019 15.8002C9.93157 15.8002 10.2002 15.5316 10.2002 15.2002L10.2002 8.8002C10.2002 8.46882 9.93157 8.2002 9.60019 8.2002Z" fill-rule="evenodd"  fill="#656A85" ></path><path d="M14.4 8.2002C14.0686 8.2002 13.8 8.46882 13.8 8.8002L13.8 15.2002C13.8 15.5316 14.0686 15.8002 14.4 15.8002C14.7314 15.8002 15 15.5316 15 15.2002L15 8.8002C15 8.46882 14.7314 8.2002 14.4 8.2002Z" fill-rule="evenodd"  fill="#656A85" ></path><path d="M12.0002 19.8002C16.308 19.8002 19.8002 16.308 19.8002 12.0002C19.8002 7.69237 16.308 4.2002 12.0002 4.2002C7.69237 4.2002 4.2002 7.69237 4.2002 12.0002C4.2002 16.308 7.69237 19.8002 12.0002 19.8002ZM12.0002 5.4002C15.6452 5.4002 18.6002 8.35512 18.6002 12.0002C18.6002 15.6452 15.6452 18.6002 12.0002 18.6002C8.35512 18.6002 5.4002 15.6452 5.4002 12.0002C5.4002 8.35512 8.35512 5.4002 12.0002 5.4002Z" fill-rule="evenodd"  fill="#656A85" ></path></svg>