<svg xmlns="http://www.w3.org/2000/svg" xmlns:xlink="http://www.w3.org/1999/xlink" width="24" height="24" viewBox="0 0 24 24" fill="none"><path d="M8.75 7C8.33579 7 8 7.33579 8 7.75L8 15.75C8 16.1642 8.33579 16.5 8.75 16.5C9.16421 16.5 9.5 16.1642 9.5 15.75L9.5 7.75C9.5 7.33579 9.16421 7 8.75 7Z" fill-rule="evenodd"  fill="#656A85" ></path><path d="M14.75 7C14.3358 7 14 7.33579 14 7.75L14 15.75C14 16.1642 14.3358 16.5 14.75 16.5C15.1642 16.5 15.5 16.1642 15.5 15.75L15.5 7.75C15.5 7.33579 15.1642 7 14.75 7Z" fill-rule="evenodd"  fill="#656A85" ></path></svg>