<svg xmlns="http://www.w3.org/2000/svg" xmlns:xlink="http://www.w3.org/1999/xlink" width="24" height="24" viewBox="0 0 24 24" fill="none"><path d="M5 5.6L5 18.4C5 18.7314 5.26863 19 5.6 19L18.4 19C18.7313 19 19 18.7314 19 18.4L19 5.6C19 5.26863 18.7313 5 18.4 5L5.6 5C5.26863 5 5 5.26863 5 5.6ZM6.2 17.8L6.2 6.2L17.8 6.2L17.8 17.8L6.2 17.8Z" fill-rule="evenodd"  fill="#FFFFFF" ></path><path d="M9.59995 7.3999C9.26858 7.3999 8.99995 7.66853 8.99995 7.9999L8.99995 15.9999C8.99995 16.3313 9.26858 16.5999 9.59995 16.5999C9.93132 16.5999 10.2 16.3313 10.2 15.9999L10.2 7.9999C10.2 7.66853 9.93132 7.3999 9.59995 7.3999Z" fill-rule="evenodd"  fill="#FFFFFF" ></path><path d="M9.25777 8.49279C9.10197 8.38441 9 8.20407 9 7.9999C9 7.66853 9.26863 7.3999 9.6 7.3999C9.73258 7.3999 9.85512 7.4429 9.95443 7.51572L15.5422 11.507C15.698 11.6154 15.8 11.7957 15.8 11.9999C15.8 12.3313 15.5314 12.5999 15.2 12.5999C15.0674 12.5999 14.9449 12.5569 14.8456 12.4841L9.25777 8.49279Z" fill-rule="evenodd"  fill="#FFFFFF" ></path><path d="M9.25777 15.5072C9.10197 15.6156 9 15.7959 9 16.0001C9 16.3315 9.26863 16.6001 9.6 16.6001C9.73258 16.6001 9.85512 16.5571 9.95443 16.4843L15.5422 12.493C15.698 12.3846 15.8 12.2043 15.8 12.0001C15.8 11.6687 15.5314 11.4001 15.2 11.4001C15.0674 11.4001 14.9449 11.4431 14.8456 11.5159L9.25777 15.5072Z" fill-rule="evenodd"  fill="#FFFFFF" ></path></svg>