<svg xmlns="http://www.w3.org/2000/svg" xmlns:xlink="http://www.w3.org/1999/xlink" width="24" height="24" viewBox="0 0 24 24" fill="none"><path d="M9 6.25C8.58579 6.25 8.25 6.58579 8.25 7L8.25 17C8.25 17.4142 8.58579 17.75 9 17.75C9.41421 17.75 9.75 17.4142 9.75 17L9.75 7C9.75 6.58579 9.41421 6.25 9 6.25Z" fill-rule="evenodd"  fill="#656A85" ></path><path d="M8.57221 7.61611C8.37747 7.48064 8.25 7.25521 8.25 7C8.25 6.58579 8.58579 6.25 9 6.25C9.16573 6.25 9.3189 6.30375 9.44303 6.39477L16.4278 11.3839C16.6225 11.5194 16.75 11.7448 16.75 12C16.75 12.4142 16.4142 12.75 16 12.75C15.8343 12.75 15.6811 12.6962 15.557 12.6052L8.57221 7.61611Z" fill-rule="evenodd"  fill="#656A85" ></path><path d="M8.57221 16.3839C8.37747 16.5194 8.25 16.7448 8.25 17C8.25 17.4142 8.58579 17.75 9 17.75C9.16573 17.75 9.3189 17.6962 9.44303 17.6052L16.4278 12.6161C16.6225 12.4806 16.75 12.2552 16.75 12C16.75 11.5858 16.4142 11.25 16 11.25C15.8343 11.25 15.6811 11.3038 15.557 11.3948L8.57221 16.3839Z" fill-rule="evenodd"  fill="#656A85" ></path></svg>