<svg xmlns="http://www.w3.org/2000/svg" xmlns:xlink="http://www.w3.org/1999/xlink" width="30" height="30" viewBox="0 0 30 30" fill="none"><g opacity="1"  transform="translate(0 0)  rotate(0)"><rect fill="#F0F1FA" opacity="1" transform="translate(0 0)  rotate(0)" x="0" y="0" width="30" height="30" rx="2" /><mask id="bg-mask-0" fill="white"><use xlink:href="#path_0"></use></mask><g mask="url(#bg-mask-0)" ><path id="直线 1 (轮廓)" fill-rule="evenodd" style="fill:#A0A3B8" opacity="1" d="M11.75 8C11.75 7.95 11.75 7.9 11.74 7.85C11.73 7.81 11.71 7.76 11.69 7.71C11.67 7.67 11.65 7.62 11.62 7.58C11.6 7.54 11.57 7.5 11.53 7.47C11.5 7.43 11.46 7.4 11.42 7.38C11.38 7.35 11.33 7.33 11.29 7.31C11.24 7.29 11.19 7.27 11.15 7.26C11.1 7.25 11.05 7.25 11 7.25C10.95 7.25 10.9 7.25 10.85 7.26C10.81 7.27 10.76 7.29 10.71 7.31C10.67 7.33 10.62 7.35 10.58 7.38C10.54 7.4 10.5 7.43 10.47 7.47C10.43 7.5 10.4 7.54 10.38 7.58C10.35 7.62 10.33 7.67 10.31 7.71C10.29 7.76 10.27 7.81 10.26 7.85C10.25 7.9 10.25 7.95 10.25 8L10.25 22C10.25 22.05 10.25 22.1 10.26 22.15C10.27 22.19 10.29 22.24 10.31 22.29C10.33 22.33 10.35 22.38 10.38 22.42C10.4 22.46 10.43 22.5 10.47 22.53C10.5 22.57 10.54 22.6 10.58 22.62C10.62 22.65 10.67 22.67 10.71 22.69C10.76 22.71 10.81 22.73 10.85 22.74C10.9 22.75 10.95 22.75 11 22.75C11.05 22.75 11.1 22.75 11.15 22.74C11.19 22.73 11.24 22.71 11.29 22.69C11.33 22.67 11.38 22.65 11.42 22.62C11.46 22.6 11.5 22.57 11.53 22.53C11.57 22.5 11.6 22.46 11.62 22.42C11.65 22.38 11.67 22.33 11.69 22.29C11.71 22.24 11.73 22.19 11.74 22.15C11.75 22.1 11.75 22.05 11.75 22L11.75 8Z"></path><path id="直线 2 (轮廓)" fill-rule="evenodd" style="fill:#A0A3B8" opacity="1" d="M11.4303 7.38566C11.3894 7.35699 11.3484 7.32832 11.3017 7.30784C11.2632 7.29309 11.2108 7.2808 11.1584 7.26851C11.1141 7.26196 11.0617 7.24967 11.0117 7.25131C10.9675 7.24476 10.9175 7.24639 10.87 7.26196C10.82 7.2636 10.7725 7.27916 10.7332 7.30046C10.6857 7.31603 10.6406 7.34552 10.6013 7.36682C10.5562 7.39631 10.5112 7.42581 10.48 7.45284C10.4432 7.48807 10.4145 7.52903 10.3858 7.56999C10.3571 7.61095 10.3285 7.65191 10.308 7.69861C10.2932 7.73711 10.281 7.78954 10.2687 7.84198C10.2621 7.88621 10.2498 7.93864 10.2515 7.98862C10.2449 8.03286 10.2466 8.08283 10.2621 8.13035C10.2638 8.18032 10.2793 8.22783 10.3006 8.26716C10.3162 8.31467 10.3457 8.35973 10.367 8.39905C10.3965 8.44411 10.426 8.48917 10.453 8.5203C10.4882 8.55717 10.5292 8.58584 10.5701 8.61451L20.573 15.6165C20.6139 15.6452 20.6467 15.6681 20.6934 15.6886C20.7401 15.7091 20.7925 15.7213 20.8368 15.7279C20.8892 15.7402 20.9334 15.7467 20.9834 15.7451C21.0276 15.7517 21.0776 15.75 21.1333 15.7402C21.1751 15.7328 21.2226 15.7173 21.2701 15.7017C21.3177 15.6861 21.3627 15.6566 21.402 15.6353C21.4471 15.6058 21.484 15.5706 21.5151 15.5436C21.552 15.5083 21.5888 15.4731 21.6175 15.4322C21.6462 15.3912 21.6666 15.3445 21.6871 15.2978C21.7019 15.2593 21.7224 15.2126 21.7346 15.1602C21.7412 15.1159 21.7535 15.0635 21.7518 15.0135C21.7502 14.9636 21.7486 14.9136 21.7412 14.8718C21.7314 14.8161 21.7158 14.7686 21.6945 14.7293C21.6789 14.6817 21.6576 14.6424 21.6281 14.5974C21.6068 14.558 21.5773 14.513 21.5421 14.4761C21.5069 14.4393 21.4741 14.4163 21.4332 14.3876L11.4303 7.38566Z"></path><path id="直线 3 (轮廓)" fill-rule="evenodd" style="fill:#A0A3B8" opacity="1" d="M21.43 15.6144C21.471 15.5857 21.5119 15.5571 21.5472 15.5202C21.5742 15.4891 21.6037 15.444 21.6332 15.399C21.6545 15.3596 21.684 15.3146 21.6995 15.2671C21.7208 15.2277 21.7364 15.1802 21.738 15.1303C21.7536 15.0827 21.7552 15.0328 21.7487 14.9885C21.7503 14.9386 21.738 14.8861 21.7315 14.8419C21.7192 14.7895 21.7069 14.737 21.6922 14.6985C21.6717 14.6518 21.643 14.6109 21.6143 14.5699C21.5857 14.5289 21.557 14.488 21.5201 14.4528C21.489 14.4257 21.4439 14.3962 21.3989 14.3667C21.3596 14.3454 21.3145 14.3159 21.267 14.3004C21.2277 14.2791 21.1801 14.2635 21.1302 14.2619C21.0827 14.2463 21.0327 14.2447 20.9884 14.2512C20.9385 14.2496 20.886 14.2619 20.8418 14.2684C20.7894 14.2807 20.7369 14.293 20.6984 14.3077C20.6517 14.3282 20.6108 14.3569 20.5698 14.3856L10.567 21.3876C10.526 21.4162 10.4933 21.4392 10.458 21.476C10.4228 21.5129 10.3933 21.5579 10.372 21.5973C10.3425 21.6423 10.3212 21.6817 10.3057 21.7292C10.2844 21.7685 10.2688 21.816 10.259 21.8717C10.2516 21.9135 10.25 21.9635 10.2483 22.0134C10.2467 22.0634 10.259 22.1158 10.2655 22.1601C10.2778 22.2125 10.2983 22.2592 10.313 22.2977C10.3335 22.3444 10.354 22.3911 10.3827 22.4321C10.4113 22.473 10.4482 22.5083 10.4851 22.5435C10.5162 22.5705 10.5531 22.6057 10.5981 22.6352C10.6374 22.6565 10.6825 22.686 10.73 22.7016C10.7775 22.7172 10.8251 22.7327 10.8668 22.7401C10.9225 22.7499 10.9725 22.7516 11.0168 22.745C11.0667 22.7467 11.111 22.7401 11.1634 22.7278C11.2076 22.7213 11.2601 22.709 11.3068 22.6885C11.3535 22.668 11.3862 22.6451 11.4272 22.6164L21.43 15.6144Z"></path></g></g><defs><rect id="path_0" x="0" y="0" width="30" height="30" /></defs></svg>