<svg xmlns="http://www.w3.org/2000/svg" xmlns:xlink="http://www.w3.org/1999/xlink" width="24" height="24" viewBox="0 0 24 24" fill="none"><g  clip-path="url(#clip-path-70_6)"><path d="M9.60019 7.40039C9.26882 7.40039 9.0002 7.66902 9.0002 8.00039L9.0002 16.0004C9.0002 16.3318 9.26882 16.6004 9.60019 16.6004C9.93157 16.6004 10.2002 16.3318 10.2002 16.0004L10.2002 8.00039C10.2002 7.66902 9.93157 7.40039 9.60019 7.40039Z" fill-rule="evenodd"  fill="#656A85" ></path><path d="M9.25777 8.49328C9.10197 8.3849 9 8.20456 9 8.00039C9 7.66902 9.26863 7.40039 9.6 7.40039C9.73258 7.40039 9.85512 7.44339 9.95443 7.51621L15.5422 11.5075C15.698 11.6159 15.8 11.7962 15.8 12.0004C15.8 12.3318 15.5314 12.6004 15.2 12.6004C15.0674 12.6004 14.9449 12.5574 14.8456 12.4846L9.25777 8.49328Z" fill-rule="evenodd"  fill="#656A85" ></path><path d="M9.25777 15.5067C9.10197 15.6151 9 15.7954 9 15.9996C9 16.331 9.26863 16.5996 9.6 16.5996C9.73258 16.5996 9.85512 16.5566 9.95443 16.4838L15.5422 12.4925C15.698 12.3841 15.8 12.2038 15.8 11.9996C15.8 11.6682 15.5314 11.3996 15.2 11.3996C15.0674 11.3996 14.9449 11.4426 14.8456 11.5154L9.25777 15.5067Z" fill-rule="evenodd"  fill="#656A85" ></path><path d="M12.0002 19.8002C16.308 19.8002 19.8002 16.308 19.8002 12.0002C19.8002 7.69237 16.308 4.2002 12.0002 4.2002C7.69237 4.2002 4.2002 7.69237 4.2002 12.0002C4.2002 16.308 7.69237 19.8002 12.0002 19.8002ZM12.0002 5.4002C15.6452 5.4002 18.6002 8.35512 18.6002 12.0002C18.6002 15.6452 15.6452 18.6002 12.0002 18.6002C8.35512 18.6002 5.4002 15.6452 5.4002 12.0002C5.4002 8.35512 8.35512 5.4002 12.0002 5.4002Z" fill-rule="evenodd"  fill="#656A85" ></path></g><defs><clipPath id="clip-path-70_6"><path d="M0 24L24 24L24 0L0 0L0 24Z" fill="white"/></clipPath></defs></svg>