<svg xmlns="http://www.w3.org/2000/svg" xmlns:xlink="http://www.w3.org/1999/xlink" width="24" height="24" viewBox="0 0 24 24" fill="none"><g opacity="1"  transform="translate(0 0)  rotate(0)"><mask id="bg-mask-0" fill="white"><use xlink:href="#path_0"></use></mask><g mask="url(#bg-mask-0)" ><g opacity="1"  transform="translate(5 5)  rotate(0)"><path id="路径 3 (轮廓)" fill-rule="evenodd" style="fill:#D43030" opacity="1" d="M12.22 5.7799ZM2.07998 6.4099C2.03998 6.4199 2.00998 6.4299 1.96998 6.4499C1.92998 6.4599 1.89998 6.4799 1.86998 6.4999C1.82998 6.5199 1.79998 6.5499 1.77998 6.5799C1.74998 6.5999 1.71998 6.6299 1.69998 6.6699C1.67998 6.6999 1.65998 6.7299 1.64998 6.7699C1.62998 6.8099 1.61998 6.8399 1.60998 6.8799C1.59998 6.9199 1.59998 6.9599 1.59998 6.9999C1.59998 7.0399 1.59998 7.0799 1.60998 7.1199C1.61998 7.1599 1.62998 7.1899 1.64998 7.2299C1.65998 7.2699 1.67998 7.2999 1.69998 7.3299C1.71998 7.3699 1.74998 7.3999 1.77998 7.4199C1.79998 7.4499 1.82998 7.4799 1.86998 7.4999C1.89998 7.5199 1.92998 7.5399 1.96998 7.5499C2.00998 7.5699 2.03998 7.5799 2.07998 7.5899C2.11998 7.5999 2.15998 7.5999 2.19998 7.5999L2.99998 7.5999C3.05998 7.5999 3.11998 7.5899 3.17998 7.5699C3.22998 7.5599 3.28998 7.5299 3.33998 7.4999C3.38998 7.4599 3.42998 7.4199 3.46998 7.3799C3.49998 7.3299 3.52998 7.2799 3.55998 7.2199L4.61998 4.5699L6.44998 8.8399C6.47998 8.9099 6.51998 8.9699 6.57998 9.0299C6.63998 9.0799 6.69998 9.1299 6.77998 9.1599C6.84998 9.1899 6.92998 9.1999 7.00998 9.1999C7.08998 9.1999 7.15998 9.1799 7.23998 9.1499C7.29998 9.1199 7.35998 9.0899 7.40998 9.0399C7.45998 8.9899 7.49998 8.9299 7.53998 8.8699L8.75998 6.4099L9.77998 7.4199C9.82998 7.4799 9.89998 7.5199 9.96998 7.5499C10.04 7.5799 10.12 7.5999 10.2 7.5999C10.28 7.5999 10.36 7.5799 10.43 7.5499C10.5 7.5199 10.57 7.4799 10.62 7.4199C10.67 7.3799 10.71 7.3299 10.74 7.2699L11.16 6.4099L11.38 6.6199C11.4 6.6499 11.43 6.6799 11.47 6.6999C11.5 6.7199 11.53 6.7399 11.57 6.7499C11.61 6.7699 11.64 6.7799 11.68 6.7899C11.72 6.7999 11.76 6.7999 11.8 6.7999C11.84 6.7999 11.88 6.7999 11.92 6.7899C11.96 6.7799 11.99 6.7699 12.03 6.7499C12.07 6.7399 12.1 6.7199 12.13 6.6999C12.17 6.6799 12.2 6.6499 12.22 6.6199C12.25 6.5999 12.28 6.5699 12.3 6.5299C12.32 6.4999 12.34 6.4699 12.35 6.4299C12.37 6.3899 12.38 6.3599 12.39 6.3199C12.4 6.2799 12.4 6.2399 12.4 6.1999C12.4 6.1599 12.4 6.1199 12.39 6.0799C12.38 6.0399 12.37 6.0099 12.35 5.9699C12.34 5.9299 12.32 5.8999 12.3 5.8699C12.28 5.8299 12.25 5.7999 12.22 5.7799L11.42 4.9799C11.38 4.9299 11.33 4.8899 11.27 4.8599C11.2 4.8299 11.12 4.8099 11.04 4.7999C10.96 4.7999 10.89 4.8099 10.81 4.8299C10.73 4.8599 10.67 4.8899 10.61 4.9499C10.55 4.9999 10.5 5.0599 10.46 5.1299L10.04 5.9899L9.01998 4.9799C8.97998 4.9299 8.92998 4.8899 8.86998 4.8599C8.79998 4.8299 8.71998 4.8099 8.63998 4.7999C8.55998 4.7999 8.48998 4.8099 8.40998 4.8299C8.32998 4.8599 8.26998 4.8899 8.20998 4.9499C8.14998 4.9999 8.09998 5.0599 8.05998 5.1299L7.03998 7.1699L5.14998 2.7599C5.11998 2.6899 5.07998 2.6299 5.01998 2.5699C4.95998 2.5199 4.89998 2.4699 4.81998 2.4399C4.78998 2.4299 4.74998 2.4199 4.70998 2.4099C4.66998 2.3999 4.62998 2.3999 4.58998 2.3999C4.54998 2.3999 4.50998 2.3999 4.47998 2.4099C4.43998 2.4199 4.39998 2.4299 4.35998 2.4499C4.32998 2.4599 4.28998 2.4799 4.25998 2.5099C4.22998 2.5299 4.19998 2.5499 4.16998 2.5799C4.13998 2.6099 4.11998 2.6399 4.09998 2.6699C4.07998 2.7099 4.05998 2.7399 4.03998 2.7799L2.58998 6.3999L2.19998 6.3999C2.15998 6.3999 2.11998 6.3999 2.07998 6.4099Z"></path><path id="圆形 2" fill-rule="evenodd" style="fill:#A0A3B8" opacity="1" d="M9 9.3999C7.9 9.3999 7 10.2999 7 11.3999C7 12.4999 7.9 13.3999 9 13.3999C10.1 13.3999 11 12.4999 11 11.3999C11 10.2999 10.1 9.3999 9 9.3999Z"></path><path id="路径 1 (轮廓)" fill-rule="evenodd" style="fill:#A0A3B8" opacity="1" d="M8.97999 12.22L11.38 14.62C11.43 14.68 11.5 14.72 11.57 14.75C11.64 14.78 11.72 14.8 11.8 14.8C11.88 14.8 11.96 14.78 12.03 14.75C12.1 14.72 12.17 14.68 12.22 14.62C12.28 14.57 12.32 14.5 12.35 14.43C12.38 14.36 12.4 14.28 12.4 14.2C12.4 14.12 12.38 14.04 12.35 13.97C12.32 13.9 12.28 13.83 12.22 13.78L9.81999 11.38C9.79999 11.35 9.76999 11.32 9.72999 11.3C9.69999 11.28 9.66999 11.26 9.62999 11.25C9.58999 11.23 9.55999 11.22 9.51999 11.21C9.47999 11.2 9.43999 11.2 9.39999 11.2C9.35999 11.2 9.31999 11.2 9.27999 11.21C9.23999 11.22 9.20999 11.23 9.16999 11.25C9.12999 11.26 9.09999 11.28 9.06999 11.3C9.02999 11.32 8.99999 11.35 8.97999 11.38C8.94999 11.4 8.91999 11.43 8.89999 11.47C8.87999 11.5 8.85999 11.53 8.84999 11.57C8.82999 11.61 8.81999 11.64 8.80999 11.68C8.79999 11.72 8.79999 11.76 8.79999 11.8C8.79999 11.84 8.79999 11.88 8.80999 11.92C8.81999 11.96 8.82999 11.99 8.84999 12.03C8.85999 12.07 8.87999 12.1 8.89999 12.13C8.91999 12.17 8.94999 12.2 8.97999 12.22Z"></path><path id="路径 2 (轮廓)" fill-rule="evenodd" style="fill:#A0A3B8" opacity="1" d="M12.2 11.2C12.16 11.2 12.12 11.2 12.08 11.21C12.04 11.22 12.01 11.23 11.97 11.25C11.93 11.26 11.9 11.28 11.87 11.3C11.83 11.32 11.8 11.35 11.78 11.38C11.75 11.4 11.72 11.43 11.7 11.47C11.68 11.5 11.66 11.53 11.65 11.57C11.63 11.61 11.62 11.64 11.61 11.68C11.6 11.72 11.6 11.76 11.6 11.8C11.6 11.84 11.6 11.88 11.61 11.92C11.62 11.96 11.63 11.99 11.65 12.03C11.66 12.07 11.68 12.1 11.7 12.13C11.72 12.17 11.75 12.2 11.78 12.22C11.8 12.25 11.83 12.28 11.87 12.3C11.9 12.32 11.93 12.34 11.97 12.35C12.01 12.37 12.04 12.38 12.08 12.39C12.12 12.4 12.16 12.4 12.2 12.4L13.4 12.4C13.44 12.4 13.48 12.4 13.52 12.39C13.56 12.38 13.59 12.37 13.63 12.35C13.67 12.34 13.7 12.32 13.73 12.3C13.77 12.28 13.8 12.25 13.82 12.22C13.85 12.2 13.88 12.17 13.9 12.13C13.92 12.1 13.94 12.07 13.95 12.03C13.97 11.99 13.98 11.96 13.99 11.92C14 11.88 14 11.84 14 11.8L14 0.6C14 0.56 14 0.52 13.99 0.48C13.98 0.44 13.97 0.41 13.95 0.37C13.94 0.33 13.92 0.3 13.9 0.27C13.88 0.23 13.85 0.2 13.82 0.18C13.8 0.15 13.77 0.12 13.73 0.1C13.7 0.08 13.67 0.06 13.63 0.05C13.59 0.03 13.56 0.02 13.52 0.01C13.48 0 13.44 0 13.4 0L0.6 0C0.56 0 0.52 0 0.48 0.01C0.44 0.02 0.41 0.03 0.37 0.05C0.33 0.06 0.3 0.08 0.27 0.1C0.23 0.12 0.2 0.15 0.18 0.18C0.15 0.2 0.12 0.23 0.1 0.27C0.08 0.3 0.06 0.33 0.05 0.37C0.03 0.41 0.02 0.44 0.01 0.48C0 0.52 0 0.56 0 0.6L0 11.8C0 11.84 0 11.88 0.01 11.92C0.02 11.96 0.03 11.99 0.05 12.03C0.06 12.07 0.08 12.1 0.1 12.13C0.12 12.17 0.15 12.2 0.18 12.22C0.2 12.25 0.23 12.28 0.27 12.3C0.3 12.32 0.33 12.34 0.37 12.35C0.41 12.37 0.44 12.38 0.48 12.39C0.52 12.4 0.56 12.4 0.6 12.4L5.4 12.4C5.44 12.4 5.48 12.4 5.52 12.39C5.56 12.38 5.59 12.37 5.63 12.35C5.67 12.34 5.7 12.32 5.73 12.3C5.77 12.28 5.8 12.25 5.82 12.22C5.85 12.2 5.88 12.17 5.9 12.13C5.92 12.1 5.94 12.07 5.95 12.03C5.97 11.99 5.98 11.96 5.99 11.92C6 11.88 6 11.84 6 11.8C6 11.76 6 11.72 5.99 11.68C5.98 11.64 5.97 11.61 5.95 11.57C5.94 11.53 5.92 11.5 5.9 11.47C5.88 11.43 5.85 11.4 5.82 11.38C5.8 11.35 5.77 11.32 5.73 11.3C5.7 11.28 5.67 11.26 5.63 11.25C5.59 11.23 5.56 11.22 5.52 11.21C5.48 11.2 5.44 11.2 5.4 11.2L1.2 11.2L1.2 1.2L12.8 1.2L12.8 11.2L12.2 11.2Z"></path></g></g></g><defs><rect id="path_0" x="0" y="0" width="24" height="24" /></defs></svg>