<svg xmlns="http://www.w3.org/2000/svg" xmlns:xlink="http://www.w3.org/1999/xlink" width="30" height="30"
  viewBox="0 0 30 30" fill="none">
  <g opacity="1" transform="translate(0 0)  rotate(0)">
    <g mask="url(#bg-mask-0)">
      <path id="圆形 1 (轮廓)" fill-rule="evenodd" style="fill:#131926" opacity="1"
        d="M18.93,6.74c0.75,0.32 1.41,0.76 1.99,1.34c0.58,0.58 1.02,1.24 1.34,1.99c0.33,0.77 0.49,1.58 0.49,2.43c0,0.85 -0.16,1.66 -0.49,2.43c-0.32,0.75 -0.76,1.41 -1.34,1.99c-0.58,0.58 -1.24,1.02 -1.99,1.34c-0.77,0.33 -1.58,0.49 -2.43,0.49c-0.85,0 -1.66,-0.16 -2.43,-0.49c-0.75,-0.32 -1.41,-0.76 -1.99,-1.34c-0.58,-0.58 -1.02,-1.24 -1.34,-1.99c-0.33,-0.77 -0.49,-1.58 -0.49,-2.43c0,-0.85 0.16,-1.66 0.49,-2.43c0.32,-0.75 0.76,-1.41 1.34,-1.99c0.58,-0.58 1.24,-1.02 1.99,-1.34c0.77,-0.33 1.58,-0.49 2.43,-0.49c0.85,0 1.66,0.16 2.43,0.49zM13.14,9.14c-0.44,0.44 -0.78,0.94 -1.02,1.51c-0.25,0.59 -0.37,1.2 -0.37,1.85c0,0.65 0.12,1.26 0.37,1.85c0.24,0.57 0.58,1.07 1.02,1.51c0.44,0.44 0.94,0.78 1.51,1.02c0.59,0.25 1.2,0.37 1.85,0.37c0.65,0 1.26,-0.12 1.85,-0.37c0.57,-0.24 1.07,-0.58 1.51,-1.02c0.44,-0.44 0.78,-0.94 1.02,-1.51c0.25,-0.59 0.37,-1.2 0.37,-1.85c0,-0.65 -0.12,-1.26 -0.37,-1.85c-0.24,-0.57 -0.58,-1.07 -1.02,-1.51c-0.44,-0.44 -0.94,-0.78 -1.51,-1.02c-0.59,-0.25 -1.2,-0.37 -1.85,-0.37c-0.65,0 -1.26,0.12 -1.85,0.37c-0.57,0.24 -1.07,0.58 -1.51,1.02z">
      </path>
      <path id="直线 1 (轮廓)" fill-rule="evenodd" style="fill:#131926" opacity="1"
        d="M20 17C19.9723 16.9584 19.9445 16.9168 19.9085 16.8807C19.878 16.853 19.8336 16.8225 19.7892 16.792C19.7504 16.7698 19.706 16.7393 19.6589 16.7226C19.62 16.7004 19.5729 16.6838 19.523 16.681C19.4758 16.6644 19.4259 16.6616 19.3815 16.6672C19.3316 16.6644 19.2789 16.6755 19.2345 16.681C19.1818 16.6921 19.1291 16.7032 19.0903 16.7171C19.0432 16.7365 19.0015 16.7642 18.9599 16.792C18.9183 16.8197 18.8767 16.8474 18.8407 16.8835C18.813 16.914 18.7824 16.9584 18.7519 17.0028C18.7297 17.0416 18.6992 17.086 18.6826 17.1331C18.6604 17.1719 18.6438 17.2191 18.641 17.269C18.6244 17.3162 18.6216 17.3661 18.6271 17.4105C18.6244 17.4604 18.6354 17.5131 18.641 17.5575C18.6521 17.6102 18.6632 17.6629 18.677 17.7017C18.6965 17.7488 18.7242 17.7904 18.7519 17.832L22.3797 23.4179C22.4074 23.4595 22.4296 23.4928 22.4657 23.5288C22.5017 23.5649 22.5461 23.5954 22.5849 23.6176C22.621 23.6536 22.6681 23.6703 22.7069 23.6924C22.7541 23.7091 22.8012 23.7257 22.8567 23.7368C22.8983 23.7451 22.9482 23.7479 22.9982 23.7507C23.0481 23.7535 23.1008 23.7424 23.1452 23.7368C23.1979 23.7257 23.2367 23.7119 23.2838 23.6924C23.331 23.673 23.3781 23.6536 23.4197 23.6259C23.4613 23.5981 23.4974 23.5621 23.5251 23.5316C23.5612 23.4955 23.5972 23.4595 23.6194 23.4206C23.6499 23.3763 23.6721 23.3374 23.6888 23.2903C23.7137 23.2376 23.722 23.196 23.7387 23.1488C23.7415 23.0989 23.7442 23.049 23.747 22.9991C23.7498 22.9491 23.7442 22.9048 23.7331 22.8521C23.7276 22.8077 23.7082 22.7605 23.6888 22.7134C23.6694 22.6662 23.6555 22.6274 23.6277 22.5858L20 17Z">
      </path>
      <path id="直线 2 (轮廓)" fill-rule="evenodd" style="fill:#495AD4" opacity="1"
        d="M7 14.25C6.95 14.25 6.9 14.25 6.85 14.26C6.81 14.27 6.76 14.29 6.71 14.31C6.67 14.33 6.62 14.35 6.58 14.38C6.54 14.4 6.5 14.43 6.47 14.47C6.43 14.5 6.4 14.54 6.38 14.58C6.35 14.62 6.33 14.67 6.31 14.71C6.29 14.76 6.27 14.81 6.26 14.85C6.25 14.9 6.25 14.95 6.25 15C6.25 15.05 6.25 15.1 6.26 15.15C6.27 15.19 6.29 15.24 6.31 15.29C6.33 15.33 6.35 15.38 6.38 15.42C6.4 15.46 6.43 15.5 6.47 15.53C6.5 15.57 6.54 15.6 6.58 15.62C6.62 15.65 6.67 15.67 6.71 15.69C6.76 15.71 6.81 15.73 6.85 15.74C6.9 15.75 6.95 15.75 7 15.75L8 15.75C8.05 15.75 8.1 15.75 8.15 15.74C8.19 15.73 8.24 15.71 8.29 15.69C8.33 15.67 8.38 15.65 8.42 15.62C8.46 15.6 8.5 15.57 8.53 15.53C8.57 15.5 8.6 15.46 8.62 15.42C8.65 15.38 8.67 15.33 8.69 15.29C8.71 15.24 8.73 15.19 8.74 15.15C8.75 15.1 8.75 15.05 8.75 15C8.75 14.95 8.75 14.9 8.74 14.85C8.73 14.81 8.71 14.76 8.69 14.71C8.67 14.67 8.65 14.62 8.62 14.58C8.6 14.54 8.57 14.5 8.53 14.47C8.5 14.43 8.46 14.4 8.42 14.38C8.38 14.35 8.33 14.33 8.29 14.31C8.24 14.29 8.19 14.27 8.15 14.26C8.1 14.25 8.05 14.25 8 14.25L7 14.25Z">
      </path>
      <path id="直线 3 (轮廓)" fill-rule="evenodd" style="fill:#495AD4" opacity="1"
        d="M7 18.25C6.95 18.25 6.9 18.25 6.85 18.26C6.81 18.27 6.76 18.29 6.71 18.31C6.67 18.33 6.62 18.35 6.58 18.38C6.54 18.4 6.5 18.43 6.47 18.47C6.43 18.5 6.4 18.54 6.38 18.58C6.35 18.62 6.33 18.67 6.31 18.71C6.29 18.76 6.27 18.81 6.26 18.85C6.25 18.9 6.25 18.95 6.25 19C6.25 19.05 6.25 19.1 6.26 19.15C6.27 19.19 6.29 19.24 6.31 19.29C6.33 19.33 6.35 19.38 6.38 19.42C6.4 19.46 6.43 19.5 6.47 19.53C6.5 19.57 6.54 19.6 6.58 19.62C6.62 19.65 6.67 19.67 6.71 19.69C6.76 19.71 6.81 19.73 6.85 19.74C6.9 19.75 6.95 19.75 7 19.75L11 19.75C11.05 19.75 11.1 19.75 11.15 19.74C11.19 19.73 11.24 19.71 11.29 19.69C11.33 19.67 11.38 19.65 11.42 19.62C11.46 19.6 11.5 19.57 11.53 19.53C11.57 19.5 11.6 19.46 11.62 19.42C11.65 19.38 11.67 19.33 11.69 19.29C11.71 19.24 11.73 19.19 11.74 19.15C11.75 19.1 11.75 19.05 11.75 19C11.75 18.95 11.75 18.9 11.74 18.85C11.73 18.81 11.71 18.76 11.69 18.71C11.67 18.67 11.65 18.62 11.62 18.58C11.6 18.54 11.57 18.5 11.53 18.47C11.5 18.43 11.46 18.4 11.42 18.38C11.38 18.35 11.33 18.33 11.29 18.31C11.24 18.29 11.19 18.27 11.15 18.26C11.1 18.25 11.05 18.25 11 18.25L7 18.25Z">
      </path>
      <path id="直线 4 (轮廓)" fill-rule="evenodd" style="fill:#495AD4" opacity="1"
        d="M7 22.25C6.95 22.25 6.9 22.25 6.85 22.26C6.81 22.27 6.76 22.29 6.71 22.31C6.67 22.33 6.62 22.35 6.58 22.38C6.54 22.4 6.5 22.43 6.47 22.47C6.43 22.5 6.4 22.54 6.38 22.58C6.35 22.62 6.33 22.67 6.31 22.71C6.29 22.76 6.27 22.81 6.26 22.85C6.25 22.9 6.25 22.95 6.25 23C6.25 23.05 6.25 23.1 6.26 23.15C6.27 23.19 6.29 23.24 6.31 23.29C6.33 23.33 6.35 23.38 6.38 23.42C6.4 23.46 6.43 23.5 6.47 23.53C6.5 23.57 6.54 23.6 6.58 23.62C6.62 23.65 6.67 23.67 6.71 23.69C6.76 23.71 6.81 23.73 6.85 23.74C6.9 23.75 6.95 23.75 7 23.75L15 23.75C15.05 23.75 15.1 23.75 15.15 23.74C15.19 23.73 15.24 23.71 15.29 23.69C15.33 23.67 15.38 23.65 15.42 23.62C15.46 23.6 15.5 23.57 15.53 23.53C15.57 23.5 15.6 23.46 15.62 23.42C15.65 23.38 15.67 23.33 15.69 23.29C15.71 23.24 15.73 23.19 15.74 23.15C15.75 23.1 15.75 23.05 15.75 23C15.75 22.95 15.75 22.9 15.74 22.85C15.73 22.81 15.71 22.76 15.69 22.71C15.67 22.67 15.65 22.62 15.62 22.58C15.6 22.54 15.57 22.5 15.53 22.47C15.5 22.43 15.46 22.4 15.42 22.38C15.38 22.35 15.33 22.33 15.29 22.31C15.24 22.29 15.19 22.27 15.15 22.26C15.1 22.25 15.05 22.25 15 22.25L7 22.25Z">
      </path>
    </g>
  </g>
  <defs>
    <rect id="path_0" x="0" y="0" width="30" height="30" />
  </defs>
</svg>