<svg xmlns="http://www.w3.org/2000/svg" xmlns:xlink="http://www.w3.org/1999/xlink" width="30" height="30"
  viewBox="0 0 30 30" fill="none">
  <g opacity="1" transform="translate(0 0)  rotate(0)">
    <mask id="bg-mask-0" fill="white">
      <use xlink:href="#path_0"></use>
    </mask>
    <g mask="url(#bg-mask-0)">
      <g opacity="1" transform="translate(6.25 6.25)  rotate(0)">
        <path id="路径 2 (轮廓)" fill-rule="evenodd" style="fill:#131926" opacity="1"
          d="M15 7.75C15 7.8 15 7.85 15.01 7.9C15.02 7.94 15.04 7.99 15.06 8.04C15.08 8.08 15.1 8.13 15.13 8.17C15.15 8.21 15.18 8.25 15.22 8.28C15.25 8.32 15.29 8.35 15.33 8.37C15.37 8.4 15.42 8.42 15.46 8.44C15.51 8.46 15.56 8.48 15.6 8.49C15.65 8.5 15.7 8.5 15.75 8.5C15.8 8.5 15.85 8.5 15.9 8.49C15.94 8.48 15.99 8.46 16.04 8.44C16.08 8.42 16.13 8.4 16.17 8.37C16.21 8.35 16.25 8.32 16.28 8.28C16.32 8.25 16.35 8.21 16.37 8.17C16.4 8.13 16.42 8.08 16.44 8.04C16.46 7.99 16.48 7.94 16.49 7.9C16.5 7.85 16.5 7.8 16.5 7.75L16.5 0.75C16.5 0.7 16.5 0.65 16.49 0.6C16.48 0.56 16.46 0.51 16.44 0.46C16.42 0.42 16.4 0.37 16.37 0.33C16.35 0.29 16.32 0.25 16.28 0.22C16.25 0.18 16.21 0.15 16.17 0.13C16.13 0.1 16.08 0.08 16.04 0.06C15.99 0.04 15.94 0.02 15.9 0.01C15.85 0 15.8 0 15.75 0L0.75 0C0.7 0 0.65 0 0.6 0.01C0.56 0.02 0.51 0.04 0.46 0.06C0.42 0.08 0.37 0.1 0.33 0.13C0.29 0.15 0.25 0.18 0.22 0.22C0.18 0.25 0.15 0.29 0.13 0.33C0.1 0.37 0.08 0.42 0.06 0.46C0.04 0.51 0.02 0.56 0.01 0.6C0 0.65 0 0.7 0 0.75L0 13.75C0 13.8 0 13.85 0.01 13.9C0.02 13.94 0.04 13.99 0.06 14.04C0.08 14.08 0.1 14.13 0.13 14.17C0.15 14.21 0.18 14.25 0.22 14.28C0.25 14.32 0.29 14.35 0.33 14.37C0.37 14.4 0.42 14.42 0.46 14.44C0.51 14.46 0.56 14.48 0.6 14.49C0.65 14.5 0.7 14.5 0.75 14.5L7.25 14.5C7.3 14.5 7.35 14.5 7.4 14.49C7.44 14.48 7.49 14.46 7.54 14.44C7.58 14.42 7.63 14.4 7.67 14.37C7.71 14.35 7.75 14.32 7.78 14.28C7.82 14.25 7.85 14.21 7.87 14.17C7.9 14.13 7.92 14.08 7.94 14.04C7.96 13.99 7.98 13.94 7.99 13.9C8 13.85 8 13.8 8 13.75C8 13.7 8 13.65 7.99 13.6C7.98 13.56 7.96 13.51 7.94 13.46C7.92 13.42 7.9 13.37 7.87 13.33C7.85 13.29 7.82 13.25 7.78 13.22C7.75 13.18 7.71 13.15 7.67 13.13C7.63 13.1 7.58 13.08 7.54 13.06C7.49 13.04 7.44 13.02 7.4 13.01C7.35 13 7.3 13 7.25 13L1.5 13L1.5 1.5L15 1.5L15 7.75Z">
        </path>
        <path id="圆形 2 (轮廓)" fill-rule="evenodd" style="fill:#E8CA99" opacity="1"
          d="M14.21,8.29c0.45,0.19 0.85,0.46 1.19,0.81c0.35,0.34 0.62,0.74 0.81,1.19c0.19,0.46 0.29,0.95 0.29,1.46c0,0.51 -0.1,1 -0.29,1.46c-0.19,0.45 -0.46,0.85 -0.81,1.19c-0.34,0.35 -0.74,0.62 -1.19,0.81c-0.46,0.19 -0.95,0.29 -1.46,0.29c-0.51,0 -1,-0.1 -1.46,-0.29c-0.45,-0.19 -0.85,-0.46 -1.19,-0.81c-0.35,-0.34 -0.62,-0.74 -0.81,-1.19c-0.19,-0.46 -0.29,-0.95 -0.29,-1.46c0,-0.51 0.1,-1 0.29,-1.46c0.19,-0.45 0.46,-0.85 0.81,-1.19c0.34,-0.35 0.74,-0.62 1.19,-0.81c0.46,-0.19 0.95,-0.29 1.46,-0.29c0.51,0 1,0.1 1.46,0.29zM11.16,10.16c-0.21,0.21 -0.37,0.44 -0.48,0.71c-0.12,0.28 -0.18,0.57 -0.18,0.88c0,0.31 0.06,0.6 0.18,0.88c0.11,0.27 0.27,0.5 0.48,0.71c0.21,0.21 0.44,0.37 0.71,0.48c0.28,0.12 0.57,0.18 0.88,0.18c0.31,0 0.6,-0.06 0.88,-0.18c0.27,-0.11 0.5,-0.27 0.71,-0.48c0.21,-0.21 0.37,-0.44 0.48,-0.71c0.12,-0.28 0.18,-0.57 0.18,-0.88c0,-0.31 -0.06,-0.6 -0.18,-0.88c-0.11,-0.27 -0.27,-0.5 -0.48,-0.71c-0.21,-0.21 -0.44,-0.37 -0.71,-0.48c-0.28,-0.12 -0.57,-0.18 -0.88,-0.18c-0.31,0 -0.6,0.06 -0.88,0.18c-0.27,0.11 -0.5,0.27 -0.71,0.48z">
        </path>
        <path id="路径 1 (轮廓)" fill-rule="evenodd" style="fill:#E8CA99" opacity="1"
          d="M14.72 14.78L16.22 16.28C16.25 16.32 16.29 16.35 16.33 16.37C16.37 16.4 16.42 16.42 16.46 16.44C16.51 16.46 16.56 16.48 16.6 16.49C16.65 16.5 16.7 16.5 16.75 16.5C16.8 16.5 16.85 16.5 16.9 16.49C16.94 16.48 16.99 16.46 17.04 16.44C17.08 16.42 17.13 16.4 17.17 16.37C17.21 16.35 17.25 16.32 17.28 16.28C17.32 16.25 17.35 16.21 17.37 16.17C17.4 16.13 17.42 16.08 17.44 16.04C17.46 15.99 17.48 15.94 17.49 15.9C17.5 15.85 17.5 15.8 17.5 15.75C17.5 15.7 17.5 15.65 17.49 15.6C17.48 15.56 17.46 15.51 17.44 15.46C17.42 15.42 17.4 15.37 17.37 15.33C17.35 15.29 17.32 15.25 17.28 15.22L15.78 13.72C15.75 13.68 15.71 13.65 15.67 13.63C15.63 13.6 15.58 13.58 15.54 13.56C15.49 13.54 15.44 13.52 15.4 13.51C15.35 13.5 15.3 13.5 15.25 13.5C15.2 13.5 15.15 13.5 15.1 13.51C15.06 13.52 15.01 13.54 14.96 13.56C14.92 13.58 14.87 13.6 14.83 13.63C14.79 13.65 14.75 13.68 14.72 13.72C14.68 13.75 14.65 13.79 14.63 13.83C14.6 13.87 14.58 13.92 14.56 13.96C14.54 14.01 14.52 14.06 14.51 14.1C14.5 14.15 14.5 14.2 14.5 14.25C14.5 14.3 14.5 14.35 14.51 14.4C14.52 14.44 14.54 14.49 14.56 14.54C14.58 14.58 14.6 14.63 14.63 14.67C14.65 14.71 14.68 14.75 14.72 14.78Z">
        </path>
        <path id="路径 3 (轮廓)" fill-rule="evenodd" style="fill:#131926" opacity="1"
          d="M0.75 17.5L14.75 17.5C14.8 17.5 14.85 17.5 14.9 17.49C14.94 17.48 14.99 17.46 15.04 17.44C15.08 17.42 15.13 17.4 15.17 17.37C15.21 17.35 15.25 17.32 15.28 17.28C15.32 17.25 15.35 17.21 15.37 17.17C15.4 17.13 15.42 17.08 15.44 17.04C15.46 16.99 15.48 16.94 15.49 16.9C15.5 16.85 15.5 16.8 15.5 16.75C15.5 16.7 15.5 16.65 15.49 16.6C15.48 16.56 15.46 16.51 15.44 16.46C15.42 16.42 15.4 16.37 15.37 16.33C15.35 16.29 15.32 16.25 15.28 16.22C15.25 16.18 15.21 16.15 15.17 16.13C15.13 16.1 15.08 16.08 15.04 16.06C14.99 16.04 14.94 16.02 14.9 16.01C14.85 16 14.8 16 14.75 16L0.75 16C0.7 16 0.65 16 0.6 16.01C0.56 16.02 0.51 16.04 0.46 16.06C0.42 16.08 0.37 16.1 0.33 16.13C0.29 16.15 0.25 16.18 0.22 16.22C0.18 16.25 0.15 16.29 0.13 16.33C0.1 16.37 0.08 16.42 0.06 16.46C0.04 16.51 0.02 16.56 0.01 16.6C0 16.65 0 16.7 0 16.75C0 16.8 0 16.85 0.01 16.9C0.02 16.94 0.04 16.99 0.06 17.04C0.08 17.08 0.1 17.13 0.13 17.17C0.15 17.21 0.18 17.25 0.22 17.28C0.25 17.32 0.29 17.35 0.33 17.37C0.37 17.4 0.42 17.42 0.46 17.44C0.51 17.46 0.56 17.48 0.6 17.49C0.65 17.5 0.7 17.5 0.75 17.5Z">
        </path>
        <path id="直线 4 (轮廓)" fill-rule="evenodd" style="fill:#131926" opacity="1"
          d="M3.75 5.5L11.75 5.5C11.8 5.5 11.85 5.5 11.9 5.49C11.94 5.48 11.99 5.46 12.04 5.44C12.08 5.42 12.13 5.4 12.17 5.37C12.21 5.35 12.25 5.32 12.28 5.28C12.32 5.25 12.35 5.21 12.37 5.17C12.4 5.13 12.42 5.08 12.44 5.04C12.46 4.99 12.48 4.94 12.49 4.9C12.5 4.85 12.5 4.8 12.5 4.75C12.5 4.7 12.5 4.65 12.49 4.6C12.48 4.56 12.46 4.51 12.44 4.46C12.42 4.42 12.4 4.37 12.37 4.33C12.35 4.29 12.32 4.25 12.28 4.22C12.25 4.18 12.21 4.15 12.17 4.13C12.13 4.1 12.08 4.08 12.04 4.06C11.99 4.04 11.94 4.02 11.9 4.01C11.85 4 11.8 4 11.75 4L3.75 4C3.7 4 3.65 4 3.6 4.01C3.56 4.02 3.51 4.04 3.46 4.06C3.42 4.08 3.37 4.1 3.33 4.13C3.29 4.15 3.25 4.18 3.22 4.22C3.18 4.25 3.15 4.29 3.13 4.33C3.1 4.37 3.08 4.42 3.06 4.46C3.04 4.51 3.02 4.56 3.01 4.6C3 4.65 3 4.7 3 4.75C3 4.8 3 4.85 3.01 4.9C3.02 4.94 3.04 4.99 3.06 5.04C3.08 5.08 3.1 5.13 3.13 5.17C3.15 5.21 3.18 5.25 3.22 5.28C3.25 5.32 3.29 5.35 3.33 5.37C3.37 5.4 3.42 5.42 3.46 5.44C3.51 5.46 3.56 5.48 3.6 5.49C3.65 5.5 3.7 5.5 3.75 5.5Z">
        </path>
        <path id="直线 5 (轮廓)" fill-rule="evenodd" style="fill:#131926" opacity="1"
          d="M3.75 8.5L7.75 8.5C7.8 8.5 7.85 8.5 7.9 8.49C7.94 8.48 7.99 8.46 8.04 8.44C8.08 8.42 8.13 8.4 8.17 8.37C8.21 8.35 8.25 8.32 8.28 8.28C8.32 8.25 8.35 8.21 8.37 8.17C8.4 8.13 8.42 8.08 8.44 8.04C8.46 7.99 8.48 7.94 8.49 7.9C8.5 7.85 8.5 7.8 8.5 7.75C8.5 7.7 8.5 7.65 8.49 7.6C8.48 7.56 8.46 7.51 8.44 7.46C8.42 7.42 8.4 7.37 8.37 7.33C8.35 7.29 8.32 7.25 8.28 7.22C8.25 7.18 8.21 7.15 8.17 7.13C8.13 7.1 8.08 7.08 8.04 7.06C7.99 7.04 7.94 7.02 7.9 7.01C7.85 7 7.8 7 7.75 7L3.75 7C3.7 7 3.65 7 3.6 7.01C3.56 7.02 3.51 7.04 3.46 7.06C3.42 7.08 3.37 7.1 3.33 7.13C3.29 7.15 3.25 7.18 3.22 7.22C3.18 7.25 3.15 7.29 3.13 7.33C3.1 7.37 3.08 7.42 3.06 7.46C3.04 7.51 3.02 7.56 3.01 7.6C3 7.65 3 7.7 3 7.75C3 7.8 3 7.85 3.01 7.9C3.02 7.94 3.04 7.99 3.06 8.04C3.08 8.08 3.1 8.13 3.13 8.17C3.15 8.21 3.18 8.25 3.22 8.28C3.25 8.32 3.29 8.35 3.33 8.37C3.37 8.4 3.42 8.42 3.46 8.44C3.51 8.46 3.56 8.48 3.6 8.49C3.65 8.5 3.7 8.5 3.75 8.5Z">
        </path>
      </g>
    </g>
  </g>
  <defs>
    <rect id="path_0" x="0" y="0" width="30" height="30" />
  </defs>
</svg>