<svg xmlns="http://www.w3.org/2000/svg" xmlns:xlink="http://www.w3.org/1999/xlink" width="30" height="30"
  viewBox="0 0 30 30" fill="none">
  <g opacity="1" transform="translate(0 0)  rotate(0)">
    <g mask="url(#bg-mask-0)">
      <path id="路径 2 (轮廓)" fill-rule="evenodd" style="fill:#131926" opacity="1"
        d="M22 20.25C21.95 20.25 21.9 20.25 21.85 20.26C21.81 20.27 21.76 20.29 21.71 20.31C21.67 20.33 21.62 20.35 21.58 20.38C21.54 20.4 21.5 20.43 21.47 20.47C21.43 20.5 21.4 20.54 21.38 20.58C21.35 20.62 21.33 20.67 21.31 20.71C21.29 20.76 21.27 20.81 21.26 20.85C21.25 20.9 21.25 20.95 21.25 21C21.25 21.05 21.25 21.1 21.26 21.15C21.27 21.19 21.29 21.24 21.31 21.29C21.33 21.33 21.35 21.38 21.38 21.42C21.4 21.46 21.43 21.5 21.47 21.53C21.5 21.57 21.54 21.6 21.58 21.62C21.62 21.65 21.67 21.67 21.71 21.69C21.76 21.71 21.81 21.73 21.85 21.74C21.9 21.75 21.95 21.75 22 21.75L23 21.75C23.05 21.75 23.1 21.75 23.15 21.74C23.19 21.73 23.24 21.71 23.29 21.69C23.33 21.67 23.38 21.65 23.42 21.62C23.46 21.6 23.5 21.57 23.53 21.53C23.57 21.5 23.6 21.46 23.62 21.42C23.65 21.38 23.67 21.33 23.69 21.29C23.71 21.24 23.73 21.19 23.74 21.15C23.75 21.1 23.75 21.05 23.75 21L23.75 7C23.75 6.95 23.75 6.9 23.74 6.85C23.73 6.81 23.71 6.76 23.69 6.71C23.67 6.67 23.65 6.62 23.62 6.58C23.6 6.54 23.57 6.5 23.53 6.47C23.5 6.43 23.46 6.4 23.42 6.38C23.38 6.35 23.33 6.33 23.29 6.31C23.24 6.29 23.19 6.27 23.15 6.26C23.1 6.25 23.05 6.25 23 6.25L7 6.25C6.95 6.25 6.9 6.25 6.85 6.26C6.81 6.27 6.76 6.29 6.71 6.31C6.67 6.33 6.62 6.35 6.58 6.38C6.54 6.4 6.5 6.43 6.47 6.47C6.43 6.5 6.4 6.54 6.38 6.58C6.35 6.62 6.33 6.67 6.31 6.71C6.29 6.76 6.27 6.81 6.26 6.85C6.25 6.9 6.25 6.95 6.25 7L6.25 21C6.25 21.05 6.25 21.1 6.26 21.15C6.27 21.19 6.29 21.24 6.31 21.29C6.33 21.33 6.35 21.38 6.38 21.42C6.4 21.46 6.43 21.5 6.47 21.53C6.5 21.57 6.54 21.6 6.58 21.62C6.62 21.65 6.67 21.67 6.71 21.69C6.76 21.71 6.81 21.73 6.85 21.74C6.9 21.75 6.95 21.75 7 21.75L12 21.75C12.05 21.75 12.1 21.75 12.15 21.74C12.19 21.73 12.24 21.71 12.29 21.69C12.33 21.67 12.38 21.65 12.42 21.62C12.46 21.6 12.5 21.57 12.53 21.53C12.57 21.5 12.6 21.46 12.62 21.42C12.65 21.38 12.67 21.33 12.69 21.29C12.71 21.24 12.73 21.19 12.74 21.15C12.75 21.1 12.75 21.05 12.75 21C12.75 20.95 12.75 20.9 12.74 20.85C12.73 20.81 12.71 20.76 12.69 20.71C12.67 20.67 12.65 20.62 12.62 20.58C12.6 20.54 12.57 20.5 12.53 20.47C12.5 20.43 12.46 20.4 12.42 20.38C12.38 20.35 12.33 20.33 12.29 20.31C12.24 20.29 12.19 20.27 12.15 20.26C12.1 20.25 12.05 20.25 12 20.25L7.75 20.25L7.75 7.75L22.25 7.75L22.25 20.25L22 20.25Z">
      </path>
      <path id="圆形 2 (轮廓)" fill-rule="evenodd" style="fill:#131926" opacity="1"
        d="M18.46,17.54c0.45,0.19 0.85,0.46 1.19,0.81c0.35,0.34 0.62,0.74 0.81,1.19c0.19,0.46 0.29,0.95 0.29,1.46c0,0.51 -0.1,1 -0.29,1.46c-0.19,0.45 -0.46,0.85 -0.81,1.19c-0.34,0.35 -0.74,0.62 -1.19,0.81c-0.46,0.19 -0.95,0.29 -1.46,0.29c-0.51,0 -1,-0.1 -1.46,-0.29c-0.45,-0.19 -0.85,-0.46 -1.19,-0.81c-0.35,-0.34 -0.62,-0.74 -0.81,-1.19c-0.19,-0.46 -0.29,-0.95 -0.29,-1.46c0,-0.51 0.1,-1 0.29,-1.46c0.19,-0.45 0.46,-0.85 0.81,-1.19c0.34,-0.35 0.74,-0.62 1.19,-0.81c0.46,-0.19 0.95,-0.29 1.46,-0.29c0.51,0 1,0.1 1.46,0.29zM15.41,19.41c-0.21,0.21 -0.37,0.44 -0.48,0.71c-0.12,0.28 -0.18,0.57 -0.18,0.88c0,0.31 0.06,0.6 0.18,0.88c0.11,0.27 0.27,0.5 0.48,0.71c0.21,0.21 0.44,0.37 0.71,0.48c0.28,0.12 0.57,0.18 0.88,0.18c0.31,0 0.6,-0.06 0.88,-0.18c0.27,-0.11 0.5,-0.27 0.71,-0.48c0.21,-0.21 0.37,-0.44 0.48,-0.71c0.12,-0.28 0.18,-0.57 0.18,-0.88c0,-0.31 -0.06,-0.6 -0.18,-0.88c-0.11,-0.27 -0.27,-0.5 -0.48,-0.71c-0.21,-0.21 -0.44,-0.37 -0.71,-0.48c-0.28,-0.12 -0.57,-0.18 -0.88,-0.18c-0.31,0 -0.6,0.06 -0.88,0.18c-0.27,0.11 -0.5,0.27 -0.71,0.48z">
      </path>
      <path id="路径 1 (轮廓)" fill-rule="evenodd" style="fill:#131926" opacity="1"
        d="M18.97 24.03L20.47 25.53C20.5 25.57 20.54 25.6 20.58 25.62C20.62 25.65 20.67 25.67 20.71 25.69C20.76 25.71 20.81 25.73 20.85 25.74C20.9 25.75 20.95 25.75 21 25.75C21.05 25.75 21.1 25.75 21.15 25.74C21.19 25.73 21.24 25.71 21.29 25.69C21.33 25.67 21.38 25.65 21.42 25.62C21.46 25.6 21.5 25.57 21.53 25.53C21.57 25.5 21.6 25.46 21.62 25.42C21.65 25.38 21.67 25.33 21.69 25.29C21.71 25.24 21.73 25.19 21.74 25.15C21.75 25.1 21.75 25.05 21.75 25C21.75 24.95 21.75 24.9 21.74 24.85C21.73 24.81 21.71 24.76 21.69 24.71C21.67 24.67 21.65 24.62 21.62 24.58C21.6 24.54 21.57 24.5 21.53 24.47L20.03 22.97C20 22.93 19.96 22.9 19.92 22.88C19.88 22.85 19.83 22.83 19.79 22.81C19.74 22.79 19.69 22.77 19.65 22.76C19.6 22.75 19.55 22.75 19.5 22.75C19.45 22.75 19.4 22.75 19.35 22.76C19.31 22.77 19.26 22.79 19.21 22.81C19.17 22.83 19.12 22.85 19.08 22.88C19.04 22.9 19 22.93 18.97 22.97C18.93 23 18.9 23.04 18.88 23.08C18.85 23.12 18.83 23.17 18.81 23.21C18.79 23.26 18.77 23.31 18.76 23.35C18.75 23.4 18.75 23.45 18.75 23.5C18.75 23.55 18.75 23.6 18.76 23.65C18.77 23.69 18.79 23.74 18.81 23.79C18.83 23.83 18.85 23.88 18.88 23.92C18.9 23.96 18.93 24 18.97 24.03Z">
      </path>
      <g opacity="1" transform="translate(8.5 9.5)  rotate(0)">
        <path id="直线 5 (轮廓)" fill-rule="evenodd" style="fill:#E8CA99" opacity="1"
          d="M10.5 6L12.5 6C12.53 6 12.57 6 12.6 5.99C12.63 5.98 12.66 5.97 12.69 5.96C12.72 5.95 12.75 5.93 12.78 5.92C12.81 5.9 12.83 5.88 12.85 5.85C12.88 5.83 12.9 5.81 12.92 5.78C12.93 5.75 12.95 5.72 12.96 5.69C12.97 5.66 12.98 5.63 12.99 5.6C13 5.57 13 5.53 13 5.5C13 5.47 13 5.43 12.99 5.4C12.98 5.37 12.97 5.34 12.96 5.31C12.95 5.28 12.93 5.25 12.92 5.22C12.9 5.19 12.88 5.17 12.85 5.15C12.83 5.12 12.81 5.1 12.78 5.08C12.75 5.07 12.72 5.05 12.69 5.04C12.66 5.03 12.63 5.02 12.6 5.01C12.57 5 12.53 5 12.5 5L10.5 5C10.47 5 10.43 5 10.4 5.01C10.37 5.02 10.34 5.03 10.31 5.04C10.28 5.05 10.25 5.07 10.22 5.08C10.19 5.1 10.17 5.12 10.15 5.15C10.12 5.17 10.1 5.19 10.08 5.22C10.07 5.25 10.05 5.28 10.04 5.31C10.03 5.34 10.02 5.37 10.01 5.4C10 5.43 10 5.47 10 5.5C10 5.53 10 5.57 10.01 5.6C10.02 5.63 10.03 5.66 10.04 5.69C10.05 5.72 10.07 5.75 10.08 5.78C10.1 5.81 10.12 5.83 10.15 5.85C10.17 5.88 10.19 5.9 10.22 5.92C10.25 5.93 10.28 5.95 10.31 5.96C10.34 5.97 10.37 5.98 10.4 5.99C10.43 6 10.47 6 10.5 6Z">
        </path>
        <path id="路径 4 (轮廓)" fill-rule="evenodd" style="fill:#E8CA99" opacity="1"
          d="M10 0.5L10 5.5C10 5.53 10 5.57 10.01 5.6C10.02 5.63 10.03 5.66 10.04 5.69C10.05 5.72 10.07 5.75 10.08 5.78C10.1 5.81 10.12 5.83 10.15 5.85C10.17 5.88 10.19 5.9 10.22 5.92C10.25 5.93 10.28 5.95 10.31 5.96C10.34 5.97 10.37 5.98 10.4 5.99C10.43 6 10.47 6 10.5 6C10.53 6 10.57 6 10.6 5.99C10.63 5.98 10.66 5.97 10.69 5.96C10.72 5.95 10.75 5.93 10.78 5.92C10.81 5.9 10.83 5.88 10.85 5.85C10.88 5.83 10.9 5.81 10.92 5.78C10.93 5.75 10.95 5.72 10.96 5.69C10.97 5.66 10.98 5.63 10.99 5.6C11 5.57 11 5.53 11 5.5L11 0.5C11 0.47 11 0.43 10.99 0.4C10.98 0.37 10.97 0.34 10.96 0.31C10.95 0.28 10.93 0.25 10.92 0.22C10.9 0.19 10.88 0.17 10.85 0.15C10.83 0.12 10.81 0.1 10.78 0.08C10.75 0.07 10.72 0.05 10.69 0.04C10.66 0.03 10.63 0.02 10.6 0.01C10.57 0 10.53 0 10.5 0C10.47 0 10.43 0 10.4 0.01C10.37 0.02 10.34 0.03 10.31 0.04C10.28 0.05 10.25 0.07 10.22 0.08C10.19 0.1 10.17 0.12 10.15 0.15C10.12 0.17 10.1 0.19 10.08 0.22C10.07 0.25 10.05 0.28 10.04 0.31C10.03 0.34 10.02 0.37 10.01 0.4C10 0.43 10 0.47 10 0.5Z">
        </path>
        <path id="圆形 3 (轮廓)" fill-rule="evenodd" style="fill:#E8CA99" opacity="1"
          d="M7.94,0.28c0.25,0.17 0.45,0.41 0.62,0.71c0.29,0.53 0.44,1.2 0.44,2.01c0,0.81 -0.15,1.48 -0.44,2.01c-0.17,0.3 -0.37,0.54 -0.62,0.71c-0.28,0.19 -0.59,0.28 -0.94,0.28c-0.35,0 -0.66,-0.09 -0.94,-0.28c-0.25,-0.17 -0.45,-0.41 -0.62,-0.71c-0.29,-0.53 -0.44,-1.2 -0.44,-2.01c0,-0.81 0.15,-1.48 0.44,-2.01c0.17,-0.3 0.37,-0.54 0.62,-0.71c0.28,-0.19 0.59,-0.28 0.94,-0.28c0.35,0 0.66,0.09 0.94,0.28zM6,3c0,0.64 0.1,1.15 0.31,1.53c0.18,0.31 0.41,0.47 0.69,0.47c0.28,0 0.51,-0.16 0.69,-0.47c0.21,-0.38 0.31,-0.89 0.31,-1.53c0,-0.64 -0.1,-1.15 -0.31,-1.53c-0.18,-0.31 -0.41,-0.47 -0.69,-0.47c-0.28,0 -0.51,0.16 -0.69,0.47c-0.21,0.38 -0.31,0.89 -0.31,1.53z">
        </path>
        <path id="路径 3 (轮廓)" fill-rule="evenodd" style="fill:#E8CA99" opacity="1"
          d="M3 1.75C3 1.78 3 1.82 3.01 1.85C3.02 1.88 3.03 1.91 3.04 1.94C3.05 1.97 3.07 2 3.08 2.03C3.1 2.06 3.12 2.08 3.15 2.1C3.17 2.13 3.19 2.15 3.22 2.17C3.25 2.18 3.28 2.2 3.31 2.21C3.34 2.22 3.37 2.23 3.4 2.24C3.43 2.25 3.47 2.25 3.5 2.25C3.53 2.25 3.57 2.25 3.6 2.24C3.63 2.23 3.66 2.22 3.69 2.21C3.72 2.2 3.75 2.18 3.78 2.17C3.81 2.15 3.83 2.13 3.85 2.1C3.88 2.08 3.9 2.06 3.92 2.03C3.93 2 3.95 1.97 3.96 1.94C3.97 1.91 3.98 1.88 3.99 1.85C4 1.82 4 1.78 4 1.75C4 1.47 3.94 1.21 3.81 0.97C3.7 0.75 3.54 0.57 3.33 0.41C2.96 0.14 2.52 0 2 0C1.48 0 1.04 0.14 0.67 0.41C0.46 0.57 0.3 0.75 0.19 0.97C0.06 1.21 0 1.47 0 1.75C0 2.03 0.06 2.29 0.19 2.53C0.3 2.75 0.46 2.93 0.67 3.09C1.04 3.36 1.48 3.5 2 3.5C2.3 3.5 2.54 3.57 2.73 3.72C2.91 3.85 3 4.03 3 4.25C3 4.47 2.91 4.65 2.73 4.78C2.54 4.93 2.3 5 2 5C1.7 5 1.46 4.93 1.27 4.78C1.09 4.65 1 4.47 1 4.25C1 4.18 0.99 4.12 0.96 4.06C0.94 4 0.9 3.94 0.85 3.9C0.81 3.85 0.75 3.81 0.69 3.79C0.63 3.76 0.57 3.75 0.5 3.75C0.43 3.75 0.37 3.76 0.31 3.79C0.25 3.81 0.19 3.85 0.15 3.9C0.1 3.94 0.06 4 0.04 4.06C0.01 4.12 0 4.18 0 4.25C0 4.53 0.06 4.79 0.19 5.03C0.3 5.25 0.46 5.43 0.67 5.59C1.04 5.86 1.48 6 2 6C2.52 6 2.96 5.86 3.33 5.59C3.54 5.43 3.7 5.25 3.81 5.03C3.94 4.79 4 4.53 4 4.25C4 3.97 3.94 3.71 3.81 3.47C3.7 3.25 3.54 3.07 3.33 2.91C2.96 2.64 2.52 2.5 2 2.5C1.7 2.5 1.46 2.43 1.27 2.28C1.09 2.15 1 1.97 1 1.75C1 1.53 1.09 1.35 1.27 1.22C1.46 1.07 1.7 1 2 1C2.3 1 2.54 1.07 2.73 1.22C2.91 1.35 3 1.53 3 1.75Z">
        </path>
        <path id="直线 4 (轮廓)" fill-rule="evenodd" style="fill:#E8CA99" opacity="1"
          d="M7.14645 4.8536L8.16468 5.87183C8.18589 5.89305 8.20711 5.91426 8.23539 5.9284C8.27075 5.94961 8.29903 5.96376 8.32732 5.9779C8.3556 5.99204 8.39095 5.99911 8.41217 6.00618C8.44752 6.01325 8.48288 6.02032 8.51823 6.01325C8.54652 6.01325 8.5748 6.01325 8.61016 6.00618C8.64551 5.99911 8.6738 5.98497 8.70915 5.9779C8.73744 5.96376 8.76572 5.94961 8.79401 5.93547C8.81522 5.91426 8.85057 5.89305 8.87179 5.87183C8.893 5.85062 8.91421 5.81526 8.93543 5.79405C8.94957 5.76577 8.96371 5.73748 8.97785 5.7092C8.98492 5.67384 8.99907 5.64556 9.00614 5.6102C9.01321 5.57485 9.01321 5.54656 9.01321 5.51828C9.02028 5.48292 9.01321 5.44757 9.00614 5.41221C8.99907 5.391 8.99199 5.35564 8.97785 5.32736C8.96371 5.29908 8.94957 5.27079 8.92836 5.23544C8.91421 5.20715 8.893 5.18594 8.87179 5.16473L7.85355 4.14649C7.83234 4.12528 7.80406 4.09699 7.77577 4.08285C7.74749 4.06871 7.7192 4.05457 7.69092 4.04043C7.66263 4.02628 7.62728 4.01921 7.59899 4.00507C7.56364 3.998 7.53536 3.998 7.5 4.00507C7.46464 3.998 7.43636 3.998 7.40101 4.00507C7.37272 4.01921 7.33737 4.02628 7.30908 4.04043C7.2808 4.05457 7.25251 4.06871 7.22423 4.08285C7.19594 4.09699 7.16766 4.12528 7.14645 4.14649C7.12523 4.1677 7.09695 4.19599 7.08281 4.22427C7.06867 4.25256 7.05452 4.28084 7.04038 4.30913C7.02624 4.33741 7.01917 4.37277 7.00503 4.40105C6.99795 4.43641 6.99795 4.46469 7.00503 4.50004C6.99795 4.5354 6.99795 4.56368 7.00503 4.59904C7.01917 4.62732 7.02624 4.66268 7.04038 4.69096C7.05452 4.71925 7.06867 4.74753 7.08281 4.77582C7.09695 4.8041 7.12523 4.83239 7.14645 4.8536Z">
        </path>
      </g>
    </g>
  </g>
  <defs>
    <rect id="path_0" x="0" y="0" width="30" height="30" />
  </defs>
</svg>