<svg xmlns="http://www.w3.org/2000/svg" xmlns:xlink="http://www.w3.org/1999/xlink" width="24" height="24" viewBox="0 0 24 24" fill="none"><g opacity="1"  transform="translate(0 0)  rotate(0)"><mask id="bg-mask-0" fill="white"><use xlink:href="#path_0"></use></mask><g mask="url(#bg-mask-0)" ><path id="圆形 1 (轮廓)" fill-rule="evenodd" style="fill:#A0A3B8" opacity="1" d="M4.20001 12C4.20001 12.04 4.20001 12.08 4.21001 12.12C4.22001 12.16 4.23001 12.19 4.25001 12.23C4.26001 12.27 4.28001 12.3 4.30001 12.33C4.32001 12.37 4.35001 12.4 4.38001 12.42C4.40001 12.45 4.43001 12.48 4.47001 12.5C4.50001 12.52 4.53001 12.54 4.57001 12.55C4.61001 12.57 4.64001 12.58 4.68001 12.59C4.72001 12.6 4.76001 12.6 4.80001 12.6C4.84001 12.6 4.88001 12.6 4.92001 12.59C4.96001 12.58 4.99001 12.57 5.03001 12.55C5.07001 12.54 5.10001 12.52 5.13001 12.5C5.17001 12.48 5.20001 12.45 5.22001 12.42C5.25001 12.4 5.28001 12.37 5.30001 12.33C5.32001 12.3 5.34001 12.27 5.35001 12.23C5.37001 12.19 5.38001 12.16 5.39001 12.12C5.40001 12.08 5.40001 12.04 5.40001 12C5.40001 11.1 5.57001 10.25 5.92001 9.43005C6.25001 8.64005 6.72001 7.94005 7.33001 7.33005C7.94001 6.72005 8.64001 6.25005 9.43001 5.92005C10.25 5.57005 11.1 5.40005 12 5.40005C12.9 5.40005 13.75 5.57005 14.57 5.92005C15.36 6.25005 16.06 6.72005 16.67 7.33005C17.28 7.94005 17.75 8.64005 18.08 9.43005C18.43 10.25 18.6 11.1 18.6 12C18.6 12.9 18.43 13.75 18.08 14.57C17.75 15.36 17.28 16.06 16.67 16.67C16.06 17.28 15.36 17.75 14.57 18.08C13.75 18.43 12.9 18.6 12 18.6L12 18.6C11.96 18.6 11.92 18.6 11.88 18.61C11.84 18.62 11.81 18.63 11.77 18.65C11.73 18.66 11.7 18.68 11.67 18.7C11.63 18.72 11.6 18.75 11.58 18.78C11.55 18.8 11.52 18.83 11.5 18.87C11.48 18.9 11.46 18.93 11.45 18.97C11.43 19.01 11.42 19.04 11.41 19.08C11.4 19.12 11.4 19.16 11.4 19.2C11.4 19.24 11.4 19.28 11.41 19.32C11.42 19.36 11.43 19.39 11.45 19.43C11.46 19.47 11.48 19.5 11.5 19.53C11.52 19.57 11.55 19.6 11.58 19.62C11.6 19.65 11.63 19.68 11.67 19.7C11.7 19.72 11.73 19.74 11.77 19.75C11.81 19.77 11.84 19.78 11.88 19.79C11.92 19.8 11.96 19.8 12 19.8C13.06 19.8 14.07 19.6 15.04 19.19C15.97 18.79 16.8 18.23 17.52 17.52C18.23 16.8 18.79 15.97 19.19 15.04C19.6 14.07 19.8 13.06 19.8 12C19.8 10.94 19.6 9.93005 19.19 8.96005C18.79 8.03005 18.23 7.20005 17.52 6.48005C16.8 5.77005 15.97 5.21005 15.04 4.81005C14.07 4.40005 13.06 4.20005 12 4.20005C10.94 4.20005 9.93001 4.40005 8.96001 4.81005C8.03001 5.21005 7.20001 5.77005 6.48001 6.48005C5.77001 7.20005 5.21001 8.03005 4.81001 8.96005C4.40001 9.93005 4.20001 10.94 4.20001 12Z"></path><path id="直线 1 (轮廓)" fill-rule="evenodd" style="fill:#A0A3B8" opacity="1" d="M12.6 7.9999C12.6 7.9599 12.6 7.9199 12.59 7.8799C12.58 7.8399 12.57 7.8099 12.55 7.7699C12.54 7.7299 12.52 7.6999 12.5 7.6699C12.48 7.6299 12.45 7.5999 12.42 7.5799C12.4 7.5499 12.37 7.5199 12.33 7.4999C12.3 7.4799 12.27 7.4599 12.23 7.4499C12.19 7.4299 12.16 7.4199 12.12 7.4099C12.08 7.3999 12.04 7.3999 12 7.3999C11.96 7.3999 11.92 7.3999 11.88 7.4099C11.84 7.4199 11.81 7.4299 11.77 7.4499C11.73 7.4599 11.7 7.4799 11.67 7.4999C11.63 7.5199 11.6 7.5499 11.58 7.5799C11.55 7.5999 11.52 7.6299 11.5 7.6699C11.48 7.6999 11.46 7.7299 11.45 7.7699C11.43 7.8099 11.42 7.8399 11.41 7.8799C11.4 7.9199 11.4 7.9599 11.4 7.9999L11.4 11.9999C11.4 12.0399 11.4 12.0799 11.41 12.1199C11.42 12.1599 11.43 12.1899 11.45 12.2299C11.46 12.2699 11.48 12.2999 11.5 12.3299C11.52 12.3699 11.55 12.3999 11.58 12.4199C11.6 12.4499 11.63 12.4799 11.67 12.4999C11.7 12.5199 11.73 12.5399 11.77 12.5499C11.81 12.5699 11.84 12.5799 11.88 12.5899C11.92 12.5999 11.96 12.5999 12 12.5999C12.04 12.5999 12.08 12.5999 12.12 12.5899C12.16 12.5799 12.19 12.5699 12.23 12.5499C12.27 12.5399 12.3 12.5199 12.33 12.4999C12.37 12.4799 12.4 12.4499 12.42 12.4199C12.45 12.3999 12.48 12.3699 12.5 12.3299C12.52 12.2999 12.54 12.2699 12.55 12.2299C12.57 12.1899 12.58 12.1599 12.59 12.1199C12.6 12.0799 12.6 12.0399 12.6 11.9999L12.6 7.9999Z"></path><path id="直线 2 (轮廓)" fill-rule="evenodd" style="fill:#A0A3B8" opacity="1" d="M12.4243 11.5756C12.396 11.5473 12.3677 11.5191 12.3323 11.4978C12.297 11.4766 12.2687 11.4625 12.2263 11.4484C12.1909 11.4271 12.1556 11.4201 12.1202 11.413C12.0778 11.3989 12.0354 11.3989 12 11.4059C11.9646 11.3989 11.9222 11.3989 11.8798 11.413C11.8444 11.4201 11.8091 11.4271 11.7737 11.4484C11.7313 11.4625 11.703 11.4766 11.6677 11.4978C11.6323 11.5191 11.604 11.5473 11.5757 11.5756C11.5475 11.6039 11.5192 11.6322 11.498 11.6676C11.4767 11.7029 11.4626 11.7312 11.4485 11.7736C11.4272 11.809 11.4202 11.8443 11.4131 11.8797C11.399 11.9221 11.399 11.9645 11.406 11.9999C11.399 12.0353 11.399 12.0777 11.4131 12.1201C11.4202 12.1555 11.4272 12.1908 11.4485 12.2262C11.4626 12.2686 11.4767 12.2969 11.498 12.3322C11.5192 12.3676 11.5475 12.3959 11.5757 12.4242L15.1749 16.0233C15.2032 16.0516 15.2315 16.0799 15.2668 16.1011C15.3022 16.1223 15.3305 16.1365 15.3729 16.1506C15.4083 16.1718 15.4436 16.1789 15.479 16.186C15.5214 16.2001 15.5638 16.2001 15.6062 16.2001C15.6345 16.2001 15.677 16.2001 15.7194 16.186C15.7547 16.1789 15.7901 16.1718 15.8325 16.1577C15.8679 16.1365 15.8962 16.1223 15.9315 16.1011C15.9669 16.0799 15.9952 16.0516 16.0234 16.0233C16.0517 15.995 16.08 15.9668 16.1012 15.9314C16.1224 15.8961 16.1366 15.8678 16.1578 15.8324C16.1719 15.79 16.179 15.7546 16.1861 15.7193C16.2002 15.6769 16.2002 15.6344 16.2002 15.6061C16.2002 15.5637 16.2002 15.5213 16.1861 15.4789C16.179 15.4435 16.1719 15.4082 16.1507 15.3728C16.1366 15.3304 16.1224 15.3021 16.1012 15.2667C16.08 15.2314 16.0517 15.2031 16.0234 15.1748L12.4243 11.5756Z"></path><path id="路径 1" fill-rule="evenodd" style="fill:#495AD4" opacity="1" d="M10.6 16.3966C10.89 16.2066 10.89 15.7966 10.6 15.5966L7.13999 13.2966C6.81999 13.0866 6.39999 13.3166 6.39999 13.6966L6.39999 18.3066C6.39999 18.6866 6.81999 18.9166 7.13999 18.7066L10.6 16.3966Z"></path></g></g><defs><rect id="path_0" x="0" y="0" width="24" height="24" /></defs></svg>