<svg xmlns="http://www.w3.org/2000/svg" xmlns:xlink="http://www.w3.org/1999/xlink" width="30" height="30"
  viewBox="0 0 30 30" fill="none">
  <g opacity="1" transform="translate(0 0)  rotate(0)">
    <mask id="bg-mask-0" fill="white">
      <use transform="translate(0 0)  rotate(0)" xlink:href="#path_0"></use>
    </mask>
    <g mask="url(#bg-mask-0)">
      <g opacity="1" transform="translate(6.25 6.25)  rotate(0)">
        <path id="路径 2 (轮廓)" fill-rule="evenodd" style="fill:#131926" opacity="1"
          d="M15 7.75C15 8.16 15.34 8.5 15.75 8.5C16.16 8.5 16.5 8.16 16.5 7.75L16.5 0.75C16.5 0.34 16.16 0 15.75 0L0.75 0C0.34 0 0 0.34 0 0.75L0 13.75C0 14.16 0.34 14.5 0.75 14.5L7.25 14.5C7.66 14.5 8 14.16 8 13.75C8 13.34 7.66 13 7.25 13L1.5 13L1.5 1.5L15 1.5L15 7.75Z">
        </path>
        <path id="圆形 2 (轮廓)" fill-rule="evenodd" style="fill:#131926" opacity="1"
          d="M16.5,11.75c0,2.07 -1.68,3.75 -3.75,3.75c-2.07,0 -3.75,-1.68 -3.75,-3.75c0,-2.07 1.68,-3.75 3.75,-3.75c2.07,0 3.75,1.68 3.75,3.75zM12.75,14c1.24,0 2.25,-1.01 2.25,-2.25c0,-1.24 -1.01,-2.25 -2.25,-2.25c-1.24,0 -2.25,1.01 -2.25,2.25c0,1.24 1.01,2.25 2.25,2.25z">
        </path>
        <path id="路径 1 (轮廓)" fill-rule="evenodd" style="fill:#131926" opacity="1"
          d="M16.75 16.5C17.16 16.5 17.5 16.16 17.5 15.75C17.5 15.54 17.42 15.36 17.28 15.22L15.78 13.72C15.64 13.58 15.46 13.5 15.25 13.5C14.84 13.5 14.5 13.84 14.5 14.25C14.5 14.46 14.58 14.64 14.72 14.78L16.22 16.28C16.36 16.42 16.54 16.5 16.75 16.5Z">
        </path>
        <path id="路径 3 (轮廓)" fill-rule="evenodd" style="fill:#131926" opacity="1"
          d="M0.75 17.5L14.75 17.5C15.16 17.5 15.5 17.16 15.5 16.75C15.5 16.34 15.16 16 14.75 16L0.75 16C0.34 16 0 16.34 0 16.75C0 17.16 0.34 17.5 0.75 17.5Z">
        </path>
      </g>
      <path id="直线 1 (轮廓)" fill-rule="evenodd" style="fill:#495AD4" opacity="1"
        d="M10.5304 15.5303L13.5286 12.5322C13.8256 12.2352 13.8185 11.7615 13.5286 11.4715C13.2387 11.1816 12.7649 11.1746 12.4679 11.4715L9.46978 14.4697C9.17987 14.7596 9.17987 15.2404 9.46978 15.5303C9.7597 15.8202 10.2405 15.8202 10.5304 15.5303Z">
      </path>
      <path id="直线 2 (轮廓)" fill-rule="evenodd" style="fill:#495AD4" opacity="1"
        d="M12.4697 12.5303L14.4708 14.5314C14.7607 14.8213 15.2415 14.8213 15.5314 14.5314C15.8214 14.2415 15.8214 13.7607 15.5314 13.4708L13.5303 11.4697C13.2404 11.1797 12.7596 11.1797 12.4697 11.4697C12.1798 11.7596 12.1798 12.2404 12.4697 12.5303Z">
      </path>
      <path id="直线 3 (轮廓)" fill-rule="evenodd" style="fill:#495AD4" opacity="1"
        d="M15.5304 14.5303L19.5327 10.5281C19.8226 10.2382 19.8226 9.75736 19.5327 9.46745C19.2428 9.17753 18.7619 9.17753 18.472 9.46745L14.4698 13.4697C14.1799 13.7596 14.1799 14.2404 14.4698 14.5303C14.7597 14.8202 15.2405 14.8202 15.5304 14.5303Z">
      </path>
    </g>
  </g>
  <defs>
    <rect id="path_0" x="0" y="0" width="30" height="30" />
  </defs>
</svg>