<svg xmlns="http://www.w3.org/2000/svg" xmlns:xlink="http://www.w3.org/1999/xlink" width="24" height="24"
  viewBox="0 0 24 24" fill="none">
  <g opacity="1" transform="translate(0 0)  rotate(0)">
    <mask id="bg-mask-0" fill="white">
      <use xlink:href="#path_0"></use>
    </mask>
    <g mask="url(#bg-mask-0)">
      <g opacity="1" transform="translate(5 5)  rotate(0)">
        <path id="路径 3 (轮廓)" fill-rule="evenodd" style="fill:#495AD4" opacity="1"
          d="M12.22 5.77999ZM2.08001 6.40999C2.04001 6.41999 2.01001 6.42999 1.97001 6.44999C1.93001 6.45999 1.90001 6.47999 1.87001 6.49999C1.83001 6.51999 1.80001 6.54999 1.78001 6.57999C1.75001 6.59999 1.72001 6.62999 1.70001 6.66999C1.68001 6.69999 1.66001 6.72999 1.65001 6.76999C1.63001 6.80999 1.62001 6.83999 1.61001 6.87999C1.60001 6.91999 1.60001 6.95999 1.60001 6.99999C1.60001 7.03999 1.60001 7.07999 1.61001 7.11999C1.62001 7.15999 1.63001 7.18999 1.65001 7.22999C1.66001 7.26999 1.68001 7.29999 1.70001 7.32999C1.72001 7.36999 1.75001 7.39999 1.78001 7.41999C1.80001 7.44999 1.83001 7.47999 1.87001 7.49999C1.90001 7.51999 1.93001 7.53999 1.97001 7.54999C2.01001 7.56999 2.04001 7.57999 2.08001 7.58999C2.12001 7.59999 2.16001 7.59999 2.20001 7.59999L3.00001 7.59999C3.06001 7.59999 3.12001 7.58999 3.18001 7.56999C3.23001 7.55999 3.29001 7.52999 3.34001 7.49999C3.39001 7.45999 3.43001 7.41999 3.47001 7.37999C3.50001 7.32999 3.53001 7.27999 3.56001 7.21999L4.62001 4.56999L6.45001 8.83999C6.48001 8.90999 6.52001 8.96999 6.58001 9.02999C6.64001 9.07999 6.70001 9.12999 6.78001 9.15999C6.85001 9.18999 6.93001 9.19999 7.01001 9.19999C7.09001 9.19999 7.16001 9.17999 7.24001 9.14999C7.30001 9.11999 7.36001 9.08999 7.41001 9.03999C7.46001 8.98999 7.50001 8.92999 7.54001 8.86999L8.76001 6.40999L9.78001 7.41999C9.83001 7.47999 9.90001 7.51999 9.97001 7.54999C10.04 7.57999 10.12 7.59999 10.2 7.59999C10.28 7.59999 10.36 7.57999 10.43 7.54999C10.5 7.51999 10.57 7.47999 10.62 7.41999C10.67 7.37999 10.71 7.32999 10.74 7.26999L11.16 6.40999L11.38 6.61999C11.4 6.64999 11.43 6.67999 11.47 6.69999C11.5 6.71999 11.53 6.73999 11.57 6.74999C11.61 6.76999 11.64 6.77999 11.68 6.78999C11.72 6.79999 11.76 6.79999 11.8 6.79999C11.84 6.79999 11.88 6.79999 11.92 6.78999C11.96 6.77999 11.99 6.76999 12.03 6.74999C12.07 6.73999 12.1 6.71999 12.13 6.69999C12.17 6.67999 12.2 6.64999 12.22 6.61999C12.25 6.59999 12.28 6.56999 12.3 6.52999C12.32 6.49999 12.34 6.46999 12.35 6.42999C12.37 6.38999 12.38 6.35999 12.39 6.31999C12.4 6.27999 12.4 6.23999 12.4 6.19999C12.4 6.15999 12.4 6.11999 12.39 6.07999C12.38 6.03999 12.37 6.00999 12.35 5.96999C12.34 5.92999 12.32 5.89999 12.3 5.86999C12.28 5.82999 12.25 5.79999 12.22 5.77999L11.42 4.97999C11.38 4.92999 11.33 4.88999 11.27 4.85999C11.2 4.82999 11.12 4.80999 11.04 4.79999C10.96 4.79999 10.89 4.80999 10.81 4.82999C10.73 4.85999 10.67 4.88999 10.61 4.94999C10.55 4.99999 10.5 5.05999 10.46 5.12999L10.04 5.98999L9.02001 4.97999C8.98001 4.92999 8.93001 4.88999 8.87001 4.85999C8.80001 4.82999 8.72001 4.80999 8.64001 4.79999C8.56001 4.79999 8.49001 4.80999 8.41001 4.82999C8.33001 4.85999 8.27001 4.88999 8.21001 4.94999C8.15001 4.99999 8.10001 5.05999 8.06001 5.12999L7.04001 7.16999L5.15001 2.75999C5.12001 2.68999 5.08001 2.62999 5.02001 2.56999C4.96001 2.51999 4.90001 2.46999 4.82001 2.43999C4.79001 2.42999 4.75001 2.41999 4.71001 2.40999C4.67001 2.39999 4.63001 2.39999 4.59001 2.39999C4.55001 2.39999 4.51001 2.39999 4.48001 2.40999C4.44001 2.41999 4.40001 2.42999 4.36001 2.44999C4.33001 2.45999 4.29001 2.47999 4.26001 2.50999C4.23001 2.52999 4.20001 2.54999 4.17001 2.57999C4.14001 2.60999 4.12001 2.63999 4.10001 2.66999C4.08001 2.70999 4.06001 2.73999 4.04001 2.77999L2.59001 6.39999L2.20001 6.39999C2.16001 6.39999 2.12001 6.39999 2.08001 6.40999Z">
        </path>
        <path id="圆形 2" fill-rule="evenodd" style="fill:#A0A3B8" opacity="1"
          d="M9 9.39999C7.9 9.39999 7 10.3 7 11.4C7 12.5 7.9 13.4 9 13.4C10.1 13.4 11 12.5 11 11.4C11 10.3 10.1 9.39999 9 9.39999Z">
        </path>
        <path id="路径 1 (轮廓)" fill-rule="evenodd" style="fill:#A0A3B8" opacity="1"
          d="M8.97999 12.22L11.38 14.62C11.43 14.68 11.5 14.72 11.57 14.75C11.64 14.78 11.72 14.8 11.8 14.8C11.88 14.8 11.96 14.78 12.03 14.75C12.1 14.72 12.17 14.68 12.22 14.62C12.28 14.57 12.32 14.5 12.35 14.43C12.38 14.36 12.4 14.28 12.4 14.2C12.4 14.12 12.38 14.04 12.35 13.97C12.32 13.9 12.28 13.83 12.22 13.78L9.81999 11.38C9.79999 11.35 9.76999 11.32 9.72999 11.3C9.69999 11.28 9.66999 11.26 9.62999 11.25C9.58999 11.23 9.55999 11.22 9.51999 11.21C9.47999 11.2 9.43999 11.2 9.39999 11.2C9.35999 11.2 9.31999 11.2 9.27999 11.21C9.23999 11.22 9.20999 11.23 9.16999 11.25C9.12999 11.26 9.09999 11.28 9.06999 11.3C9.02999 11.32 8.99999 11.35 8.97999 11.38C8.94999 11.4 8.91999 11.43 8.89999 11.47C8.87999 11.5 8.85999 11.53 8.84999 11.57C8.82999 11.61 8.81999 11.64 8.80999 11.68C8.79999 11.72 8.79999 11.76 8.79999 11.8C8.79999 11.84 8.79999 11.88 8.80999 11.92C8.81999 11.96 8.82999 11.99 8.84999 12.03C8.85999 12.07 8.87999 12.1 8.89999 12.13C8.91999 12.17 8.94999 12.2 8.97999 12.22Z">
        </path>
        <path id="路径 2 (轮廓)" fill-rule="evenodd" style="fill:#A0A3B8" opacity="1"
          d="M12.2 11.2C12.16 11.2 12.12 11.2 12.08 11.21C12.04 11.22 12.01 11.23 11.97 11.25C11.93 11.26 11.9 11.28 11.87 11.3C11.83 11.32 11.8 11.35 11.78 11.38C11.75 11.4 11.72 11.43 11.7 11.47C11.68 11.5 11.66 11.53 11.65 11.57C11.63 11.61 11.62 11.64 11.61 11.68C11.6 11.72 11.6 11.76 11.6 11.8C11.6 11.84 11.6 11.88 11.61 11.92C11.62 11.96 11.63 11.99 11.65 12.03C11.66 12.07 11.68 12.1 11.7 12.13C11.72 12.17 11.75 12.2 11.78 12.22C11.8 12.25 11.83 12.28 11.87 12.3C11.9 12.32 11.93 12.34 11.97 12.35C12.01 12.37 12.04 12.38 12.08 12.39C12.12 12.4 12.16 12.4 12.2 12.4L13.4 12.4C13.44 12.4 13.48 12.4 13.52 12.39C13.56 12.38 13.59 12.37 13.63 12.35C13.67 12.34 13.7 12.32 13.73 12.3C13.77 12.28 13.8 12.25 13.82 12.22C13.85 12.2 13.88 12.17 13.9 12.13C13.92 12.1 13.94 12.07 13.95 12.03C13.97 11.99 13.98 11.96 13.99 11.92C14 11.88 14 11.84 14 11.8L14 0.6C14 0.56 14 0.52 13.99 0.48C13.98 0.44 13.97 0.41 13.95 0.37C13.94 0.33 13.92 0.3 13.9 0.27C13.88 0.23 13.85 0.2 13.82 0.18C13.8 0.15 13.77 0.12 13.73 0.1C13.7 0.08 13.67 0.06 13.63 0.05C13.59 0.03 13.56 0.02 13.52 0.01C13.48 0 13.44 0 13.4 0L0.6 0C0.56 0 0.52 0 0.48 0.01C0.44 0.02 0.41 0.03 0.37 0.05C0.33 0.06 0.3 0.08 0.27 0.1C0.23 0.12 0.2 0.15 0.18 0.18C0.15 0.2 0.12 0.23 0.1 0.27C0.08 0.3 0.06 0.33 0.05 0.37C0.03 0.41 0.02 0.44 0.01 0.48C0 0.52 0 0.56 0 0.6L0 11.8C0 11.84 0 11.88 0.01 11.92C0.02 11.96 0.03 11.99 0.05 12.03C0.06 12.07 0.08 12.1 0.1 12.13C0.12 12.17 0.15 12.2 0.18 12.22C0.2 12.25 0.23 12.28 0.27 12.3C0.3 12.32 0.33 12.34 0.37 12.35C0.41 12.37 0.44 12.38 0.48 12.39C0.52 12.4 0.56 12.4 0.6 12.4L5.4 12.4C5.44 12.4 5.48 12.4 5.52 12.39C5.56 12.38 5.59 12.37 5.63 12.35C5.67 12.34 5.7 12.32 5.73 12.3C5.77 12.28 5.8 12.25 5.82 12.22C5.85 12.2 5.88 12.17 5.9 12.13C5.92 12.1 5.94 12.07 5.95 12.03C5.97 11.99 5.98 11.96 5.99 11.92C6 11.88 6 11.84 6 11.8C6 11.76 6 11.72 5.99 11.68C5.98 11.64 5.97 11.61 5.95 11.57C5.94 11.53 5.92 11.5 5.9 11.47C5.88 11.43 5.85 11.4 5.82 11.38C5.8 11.35 5.77 11.32 5.73 11.3C5.7 11.28 5.67 11.26 5.63 11.25C5.59 11.23 5.56 11.22 5.52 11.21C5.48 11.2 5.44 11.2 5.4 11.2L1.2 11.2L1.2 1.2L12.8 1.2L12.8 11.2L12.2 11.2Z">
        </path>
      </g>
    </g>
  </g>
  <defs>
    <rect id="path_0" x="0" y="0" width="24" height="24" />
  </defs>
</svg>