<svg xmlns="http://www.w3.org/2000/svg" xmlns:xlink="http://www.w3.org/1999/xlink" width="24" height="24" viewBox="0 0 24 24" fill="none"><g opacity="1"  transform="translate(0 0)  rotate(0)"><mask id="bg-mask-0" fill="white"><use xlink:href="#path_0"></use></mask><g mask="url(#bg-mask-0)" ><path id="圆形 1 (轮廓)" fill-rule="evenodd" style="fill:#A0A3B8" opacity="1" d="M12 4.19995C11.96 4.19995 11.92 4.19995 11.88 4.20995C11.84 4.21995 11.81 4.22995 11.77 4.24995C11.73 4.25995 11.7 4.27995 11.67 4.29995C11.63 4.31995 11.6 4.34995 11.58 4.37995C11.55 4.39995 11.52 4.42995 11.5 4.46995C11.48 4.49995 11.46 4.52995 11.45 4.56995C11.43 4.60995 11.42 4.63995 11.41 4.67995C11.4 4.71995 11.4 4.75995 11.4 4.79995C11.4 4.83995 11.4 4.87995 11.41 4.91995C11.42 4.95995 11.43 4.98995 11.45 5.02995C11.46 5.06995 11.48 5.09995 11.5 5.12995C11.52 5.16995 11.55 5.19995 11.58 5.21995C11.6 5.24995 11.63 5.27995 11.67 5.29995C11.7 5.31995 11.73 5.33995 11.77 5.34995C11.81 5.36995 11.84 5.37995 11.88 5.38995C11.92 5.39995 11.96 5.39995 12 5.39995C12.9 5.39995 13.75 5.56995 14.57 5.91995C15.36 6.24995 16.06 6.71995 16.67 7.32995C17.28 7.93995 17.75 8.63995 18.08 9.42995C18.43 10.25 18.6 11.1 18.6 12C18.6 12.9 18.43 13.75 18.08 14.57C17.75 15.36 17.28 16.06 16.67 16.67C16.06 17.28 15.36 17.75 14.57 18.08C13.75 18.43 12.9 18.6 12 18.6C11.1 18.6 10.25 18.43 9.43 18.08C8.64 17.75 7.94 17.28 7.33 16.67C6.72 16.06 6.25 15.36 5.92 14.57C5.57 13.75 5.4 12.9 5.4 12C5.4 11.1 5.57 10.25 5.92 9.42995C6.25 8.63995 6.73 7.93995 7.33 7.33995L7.33 7.32995C7.33 7.32995 7.33 7.32995 7.33 7.32995C7.36 7.30995 7.39 7.26995 7.41 7.23995C7.43 7.20995 7.45 7.16995 7.46 7.13995C7.48 7.09995 7.49 7.05995 7.5 7.02995C7.5 6.98995 7.51 6.94995 7.51 6.90995C7.51 6.86995 7.5 6.82995 7.5 6.78995C7.49 6.74995 7.48 6.71995 7.46 6.67995C7.45 6.63995 7.43 6.60995 7.41 6.57995C7.39 6.53995 7.36 6.50995 7.33 6.47995C7.31 6.45995 7.27 6.42995 7.24 6.40995C7.21 6.38995 7.17 6.36995 7.14 6.34995C7.1 6.33995 7.06 6.32995 7.03 6.31995C6.99 6.30995 6.95 6.30995 6.91 6.30995C6.87 6.30995 6.83 6.30995 6.79 6.31995C6.75 6.32995 6.72 6.33995 6.68 6.34995C6.64 6.36995 6.61 6.38995 6.58 6.40995C6.54 6.42995 6.51 6.45995 6.48 6.47995C6.47 6.49995 6.45 6.51995 6.44 6.53995C5.74 7.23995 5.2 8.04995 4.81 8.95995C4.4 9.92995 4.2 10.94 4.2 12C4.2 13.06 4.4 14.07 4.81 15.04C5.21 15.97 5.77 16.8 6.48 17.52C7.2 18.2299 8.03 18.79 8.96 19.19C9.93 19.6 10.94 19.8 12 19.8C13.06 19.8 14.07 19.6 15.04 19.19C15.97 18.79 16.8 18.2299 17.52 17.52C18.23 16.8 18.79 15.97 19.19 15.04C19.6 14.07 19.8 13.06 19.8 12C19.8 10.94 19.6 9.92995 19.19 8.95995C18.79 8.02995 18.23 7.19995 17.52 6.47995C16.8 5.76995 15.97 5.20995 15.04 4.80995C14.07 4.39995 13.06 4.19995 12 4.19995Z"></path><path id="直线 1 (轮廓)" fill-rule="evenodd" style="fill:#495AD4" opacity="1" d="M12.6 7.9999C12.6 7.9599 12.6 7.9199 12.59 7.8799C12.58 7.8399 12.57 7.8099 12.55 7.7699C12.54 7.7299 12.52 7.6999 12.5 7.6699C12.48 7.6299 12.45 7.5999 12.42 7.5799C12.4 7.5499 12.37 7.5199 12.33 7.4999C12.3 7.4799 12.27 7.4599 12.23 7.4499C12.19 7.4299 12.16 7.4199 12.12 7.4099C12.08 7.3999 12.04 7.3999 12 7.3999C11.96 7.3999 11.92 7.3999 11.88 7.4099C11.84 7.4199 11.81 7.4299 11.77 7.4499C11.73 7.4599 11.7 7.4799 11.67 7.4999C11.63 7.5199 11.6 7.5499 11.58 7.5799C11.55 7.5999 11.52 7.6299 11.5 7.6699C11.48 7.6999 11.46 7.7299 11.45 7.7699C11.43 7.8099 11.42 7.8399 11.41 7.8799C11.4 7.9199 11.4 7.9599 11.4 7.9999L11.4 11.9999C11.4 12.0399 11.4 12.0799 11.41 12.1199C11.42 12.1599 11.43 12.1899 11.45 12.2299C11.46 12.2699 11.48 12.2999 11.5 12.3299C11.52 12.3699 11.55 12.3999 11.58 12.4199C11.6 12.4499 11.63 12.4799 11.67 12.4999C11.7 12.5199 11.73 12.5399 11.77 12.5499C11.81 12.5699 11.84 12.5799 11.88 12.5899C11.92 12.5999 11.96 12.5999 12 12.5999C12.04 12.5999 12.08 12.5999 12.12 12.5899C12.16 12.5799 12.19 12.5699 12.23 12.5499C12.27 12.5399 12.3 12.5199 12.33 12.4999C12.37 12.4799 12.4 12.4499 12.42 12.4199C12.45 12.3999 12.48 12.3699 12.5 12.3299C12.52 12.2999 12.54 12.2699 12.55 12.2299C12.57 12.1899 12.58 12.1599 12.59 12.1199C12.6 12.0799 12.6 12.0399 12.6 11.9999L12.6 7.9999Z"></path><path id="直线 2 (轮廓)" fill-rule="evenodd" style="fill:#495AD4" opacity="1" d="M12.4243 11.5756C12.396 11.5473 12.3677 11.5191 12.3323 11.4978C12.297 11.4766 12.2687 11.4625 12.2263 11.4484C12.1909 11.4271 12.1556 11.4201 12.1202 11.413C12.0778 11.3989 12.0354 11.3989 12 11.4059C11.9646 11.3989 11.9222 11.3989 11.8798 11.413C11.8444 11.4201 11.8091 11.4271 11.7737 11.4484C11.7313 11.4625 11.703 11.4766 11.6677 11.4978C11.6323 11.5191 11.604 11.5473 11.5757 11.5756C11.5475 11.6039 11.5192 11.6322 11.498 11.6676C11.4767 11.7029 11.4626 11.7312 11.4485 11.7736C11.4272 11.809 11.4202 11.8443 11.4131 11.8797C11.399 11.9221 11.399 11.9645 11.406 11.9999C11.399 12.0353 11.399 12.0777 11.4131 12.1201C11.4202 12.1555 11.4272 12.1908 11.4485 12.2262C11.4626 12.2686 11.4767 12.2969 11.498 12.3322C11.5192 12.3676 11.5475 12.3959 11.5757 12.4242L15.1749 16.0233C15.2032 16.0516 15.2315 16.0799 15.2668 16.1011C15.3022 16.1223 15.3305 16.1365 15.3729 16.1506C15.4083 16.1718 15.4436 16.1789 15.479 16.186C15.5214 16.2001 15.5638 16.2001 15.6062 16.2001C15.6345 16.2001 15.677 16.2001 15.7194 16.186C15.7547 16.1789 15.7901 16.1718 15.8325 16.1577C15.8679 16.1365 15.8962 16.1223 15.9315 16.1011C15.9669 16.0799 15.9952 16.0516 16.0234 16.0233C16.0517 15.995 16.08 15.9668 16.1012 15.9314C16.1224 15.8961 16.1366 15.8678 16.1578 15.8324C16.1719 15.79 16.179 15.7546 16.1861 15.7193C16.2002 15.6769 16.2002 15.6344 16.2002 15.6061C16.2002 15.5637 16.2002 15.5213 16.1861 15.4789C16.179 15.4435 16.1719 15.4082 16.1507 15.3728C16.1366 15.3304 16.1224 15.3021 16.1012 15.2667C16.08 15.2314 16.0517 15.2031 16.0234 15.1748L12.4243 11.5756Z"></path></g></g><defs><rect id="path_0" x="0" y="0" width="24" height="24" /></defs></svg>