<svg xmlns="http://www.w3.org/2000/svg" xmlns:xlink="http://www.w3.org/1999/xlink" width="16" height="16"
  viewBox="0 0 16 16" fill="none">
  <g opacity="1" transform="translate(0 0)  rotate(0)">
    <mask id="bg-mask-0" fill="white">
      <use transform="translate(0 0)  rotate(0)" xlink:href="#path_0"></use>
    </mask>
    <g mask="url(#bg-mask-0)">
      <path id="圆形 1 (轮廓)" fill-rule="evenodd" style="fill:#656A85" opacity="1"
        d="M10.9033,1.1232c0.9,0.37 1.69,0.91 2.38,1.6c0.69,0.69 1.22,1.48 1.6,2.37c0.39,0.93 0.58,1.89 0.58,2.91c0,1.01 -0.19,1.98 -0.58,2.9c-0.38,0.9 -0.91,1.69 -1.6,2.38c-0.69,0.69 -1.48,1.22 -2.38,1.6c-0.91997,0.39 -1.88998,0.58 -2.89998,0.58c-1.01999,0 -1.98,-0.19 -2.90999,-0.58c-0.89,-0.38 -1.68,-0.91 -2.37,-1.6c-0.69,-0.69 -1.23,-1.48 -1.6,-2.38c-0.39,-0.92 -0.59,-1.89 -0.59,-2.9c0,-1.02 0.2,-1.98 0.59,-2.91c0.37,-0.89 0.91,-1.68 1.6,-2.37c0.69,-0.69 1.48,-1.23 2.37,-1.6c0.92999,-0.39 1.89,-0.59 2.90999,-0.59c1.01,0 1.98001,0.2 2.89998,0.59zM3.47333,3.4732c-0.59,0.59 -1.05,1.27 -1.37,2.04c-0.34,0.79 -0.5,1.62 -0.5,2.49c0,0.87 0.16,1.7 0.5,2.49c0.32,0.76 0.78,1.44 1.37,2.03c0.58999,0.59 1.27,1.05 2.04,1.37c0.79,0.34 1.62,0.51 2.48999,0.51c0.87001,0 1.70001,-0.17 2.48998,-0.51c0.76,-0.32 1.44,-0.78 2.03,-1.37c0.59,-0.59 1.05,-1.27 1.37,-2.03c0.34,-0.79 0.51,-1.62 0.51,-2.49c0,-0.87 -0.17,-1.7 -0.51,-2.49c-0.32,-0.77 -0.78,-1.45 -1.37,-2.04c-0.59,-0.59 -1.27,-1.05 -2.03,-1.37c-0.78997,-0.34 -1.61997,-0.5 -2.48998,-0.5c-0.86999,0 -1.69999,0.16 -2.48999,0.5c-0.77,0.32 -1.45001,0.78 -2.04,1.37z">
      </path>
      <path id="圆形 2 (轮廓)" fill-rule="evenodd" style="fill:#656A85" opacity="1"
        d="M8.53334 9.07019C8.53334 8.89019 8.60334 8.7102 8.75334 8.5202C8.82334 8.42019 8.92334 8.32019 9.04334 8.2002C9.12334 8.13019 9.24334 8.0202 9.41334 7.87019C9.60334 7.7102 9.73334 7.58019 9.82334 7.5002C9.98334 7.35019 10.1133 7.20019 10.2233 7.07019C10.5233 6.6902 10.6633 6.28019 10.6633 5.8702C10.6633 5.47019 10.5933 5.10019 10.4633 4.7702C10.3233 4.4402 10.1333 4.1502 9.87334 3.9102C9.63334 3.6802 9.34334 3.5002 9.01334 3.3802C8.70334 3.2602 8.36334 3.2002 8.00334 3.2002C7.64334 3.2002 7.29334 3.2702 6.96334 3.4102C6.64334 3.5402 6.36334 3.7402 6.11334 3.9802C5.87334 4.2302 5.67334 4.5102 5.54334 4.83019C5.40334 5.1602 5.33334 5.51019 5.33334 5.8702C5.33334 5.9002 5.33334 5.9402 5.34334 5.97019C5.35334 6.01019 5.36334 6.04019 5.37334 6.0702C5.38334 6.10019 5.40334 6.1302 5.42334 6.1602C5.44334 6.1902 5.46334 6.22019 5.49334 6.24019C5.51334 6.2702 5.54334 6.29019 5.57334 6.31019C5.60334 6.33019 5.63334 6.35019 5.66334 6.3602C5.69334 6.37019 5.72334 6.38019 5.76334 6.39019C5.79334 6.4002 5.83334 6.4002 5.86334 6.4002C5.90334 6.4002 5.93334 6.4002 5.97334 6.39019C6.00334 6.38019 6.04334 6.37019 6.07334 6.3602C6.10334 6.35019 6.13334 6.33019 6.16334 6.31019C6.19334 6.29019 6.22334 6.2702 6.24334 6.24019C6.27334 6.22019 6.29334 6.1902 6.31334 6.1602C6.33334 6.1302 6.34334 6.10019 6.36334 6.0702C6.37334 6.04019 6.38334 6.01019 6.39334 5.97019C6.39334 5.9402 6.40334 5.9002 6.40334 5.8702C6.40334 5.6502 6.44334 5.4402 6.52334 5.2402C6.60334 5.0502 6.72334 4.8802 6.87334 4.7402C7.01334 4.5902 7.18334 4.4702 7.37334 4.3902C7.57334 4.31019 7.78334 4.2702 8.00334 4.2702C8.23334 4.2702 8.44334 4.3002 8.64334 4.3802C8.83334 4.4502 9.00334 4.5502 9.14334 4.6902C9.44334 4.9802 9.60334 5.3702 9.60334 5.8702C9.60334 6.04019 9.52334 6.22019 9.37334 6.42019C9.30334 6.51019 9.21334 6.6102 9.09334 6.7302C9.01334 6.80019 8.88334 6.92019 8.71334 7.07019C8.53334 7.2302 8.39334 7.35019 8.30334 7.43019C8.14334 7.59019 8.01334 7.7302 7.91334 7.87019C7.61334 8.25019 7.46334 8.65019 7.46334 9.07019L7.46334 10.1302C7.46334 10.1702 7.47334 10.2002 7.47334 10.2402C7.48334 10.2702 7.49334 10.3102 7.50334 10.3402C7.52334 10.3702 7.53334 10.4002 7.55334 10.4302C7.57334 10.4602 7.59334 10.4902 7.62334 10.5102C7.64334 10.5402 7.67334 10.5602 7.70334 10.5802C7.73334 10.6002 7.76334 10.6102 7.79334 10.6302C7.82334 10.6402 7.86334 10.6502 7.89334 10.6602C7.93334 10.6602 7.96334 10.6702 8.00334 10.6702C8.03334 10.6702 8.07334 10.6602 8.10334 10.6602C8.14334 10.6502 8.17334 10.6402 8.20334 10.6302C8.23334 10.6102 8.26334 10.6002 8.29334 10.5802C8.32334 10.5602 8.35334 10.5402 8.37334 10.5102C8.40334 10.4902 8.42334 10.4602 8.44334 10.4302C8.46334 10.4002 8.48334 10.3702 8.49334 10.3402C8.50334 10.3102 8.51334 10.2702 8.52334 10.2402C8.53334 10.2002 8.53334 10.1702 8.53334 10.1302L8.53334 9.07019Z">
      </path>
      <path id="圆形 3" fill-rule="evenodd" style="fill:#656A85" opacity="1"
        d="M8.00001 11.2002C7.56001 11.2002 7.20001 11.5602 7.20001 12.0002C7.20001 12.4402 7.56001 12.8002 8.00001 12.8002C8.44001 12.8002 8.80001 12.4402 8.80001 12.0002C8.80001 11.5602 8.44001 11.2002 8.00001 11.2002Z">
      </path>
    </g>
  </g>
  <defs>
    <rect id="path_0" x="0" y="0" width="16" height="16" />
  </defs>
</svg>