<svg xmlns="http://www.w3.org/2000/svg" xmlns:xlink="http://www.w3.org/1999/xlink" width="8" height="8" viewBox="0 0 8 8" fill="none"><g opacity="1"  transform="translate(0 0)  rotate(0)"><mask id="bg-mask-0" fill="white"><use xlink:href="#path_0"></use></mask><g mask="url(#bg-mask-0)" ><path id="圆形 1 (轮廓)" fill-rule="evenodd" style="fill:#DFE1ED" opacity="1" d="M5.4566,0.55666c0.44,0.19 0.84,0.46 1.18,0.8c0.35,0.35 0.61,0.74 0.8,1.19c0.2,0.46 0.3,0.95 0.3,1.45c0,0.51 -0.1,0.99 -0.3,1.46c-0.19,0.44 -0.45,0.84 -0.8,1.18c-0.34,0.35 -0.74,0.61 -1.18,0.8c-0.47,0.2 -0.95,0.3 -1.46,0.3c-0.5,0 -0.99,-0.1 -1.45,-0.3c-0.45,-0.19 -0.84,-0.45 -1.19,-0.8c-0.34,-0.34 -0.61,-0.74 -0.8,-1.18c-0.19,-0.47 -0.29,-0.95 -0.29,-1.46c0,-0.5 0.1,-0.99 0.29,-1.45c0.19,-0.45 0.46,-0.84 0.8,-1.19c0.35,-0.34 0.74,-0.61 1.19,-0.8c0.46,-0.19 0.95,-0.29 1.45,-0.29c0.51,0 0.99,0.1 1.46,0.29zM1.7366,1.73666c-0.29,0.3 -0.52,0.63 -0.69,1.02c-0.16,0.39 -0.25,0.81 -0.25,1.24c0,0.44 0.09,0.85 0.25,1.25c0.17,0.38 0.4,0.72 0.69,1.02c0.3,0.29 0.63,0.52 1.02,0.68c0.39,0.17 0.81,0.25 1.24,0.25c0.44,0 0.85,-0.08 1.25,-0.25c0.38,-0.16 0.72,-0.39 1.02,-0.68c0.29,-0.3 0.52,-0.64 0.68,-1.02c0.17,-0.4 0.25,-0.81 0.25,-1.25c0,-0.43 -0.08,-0.85 -0.25,-1.24c-0.16,-0.39 -0.39,-0.72 -0.68,-1.02c-0.3,-0.29 -0.64,-0.52 -1.02,-0.69c-0.4,-0.16 -0.81,-0.25 -1.25,-0.25c-0.43,0 -0.85,0.09 -1.24,0.25c-0.39,0.17 -0.72,0.4 -1.02,0.69z"></path><path id="圆形 2 (轮廓)" fill-rule="evenodd" style="fill:#DFE1ED" opacity="1" d="M4.26699 4.53001C4.26699 4.45001 4.30699 4.35001 4.37699 4.26001C4.41699 4.21001 4.46699 4.16001 4.52699 4.10001C4.55699 4.07001 4.62699 4.01001 4.70699 3.93001C4.79699 3.85001 4.86699 3.79001 4.91699 3.75001C4.99699 3.67001 5.05699 3.60001 5.10699 3.53001C5.25699 3.34001 5.33699 3.14001 5.33699 2.93001C5.33699 2.74001 5.29699 2.55001 5.22699 2.38001C5.16699 2.22001 5.06699 2.08001 4.93699 1.96001C4.81699 1.84001 4.67699 1.75001 4.50699 1.69001C4.34699 1.63001 4.17699 1.60001 3.99699 1.60001C3.81699 1.60001 3.64699 1.63001 3.47699 1.70001C3.31699 1.77001 3.17699 1.87001 3.05699 1.99001C2.93699 2.11001 2.83699 2.25001 2.76699 2.41001C2.69699 2.58001 2.66699 2.75001 2.66699 2.93001C2.66699 2.95001 2.66699 2.97001 2.67699 2.99001C2.67699 3.00001 2.67699 3.02001 2.68699 3.04001C2.69699 3.05001 2.70699 3.07001 2.70699 3.08001C2.71699 3.10001 2.73699 3.11001 2.74699 3.12001C2.75699 3.13001 2.76699 3.15001 2.78699 3.16001C2.79699 3.16001 2.81699 3.17001 2.82699 3.18001C2.84699 3.19001 2.86699 3.19001 2.87699 3.19001C2.89699 3.20001 2.91699 3.20001 2.93699 3.20001C2.94699 3.20001 2.96699 3.20001 2.98699 3.19001C3.00699 3.19001 3.01699 3.19001 3.03699 3.18001C3.04699 3.17001 3.06699 3.16001 3.07699 3.16001C3.09699 3.15001 3.10699 3.13001 3.12699 3.12001C3.13699 3.11001 3.14699 3.10001 3.15699 3.08001C3.16699 3.07001 3.17699 3.05001 3.17699 3.04001C3.18699 3.02001 3.18699 3.00001 3.19699 2.99001C3.19699 2.97001 3.19699 2.95001 3.19699 2.93001C3.19699 2.82001 3.21699 2.72001 3.26699 2.62001C3.30699 2.53001 3.35699 2.44001 3.43699 2.37001C3.50699 2.29001 3.59699 2.24001 3.68699 2.20001C3.78699 2.15001 3.88699 2.13001 3.99699 2.13001C4.11699 2.13001 4.22699 2.15001 4.31699 2.19001C4.41699 2.23001 4.49699 2.28001 4.56699 2.34001C4.72699 2.49001 4.79699 2.69001 4.79699 2.93001C4.79699 3.02001 4.76699 3.11001 4.68699 3.21001C4.65699 3.25001 4.60699 3.31001 4.54699 3.36001C4.50699 3.40001 4.44699 3.46001 4.35699 3.53001C4.26699 3.61001 4.19699 3.67001 4.15699 3.72001C4.07699 3.79001 4.00699 3.86001 3.95699 3.93001C3.80699 4.12001 3.73699 4.32001 3.73699 4.53001L3.73699 5.07001C3.73699 5.08001 3.73699 5.10001 3.73699 5.12001C3.74699 5.14001 3.74699 5.15001 3.75699 5.17001C3.75699 5.18001 3.76699 5.20001 3.77699 5.21001C3.78699 5.23001 3.79699 5.24001 3.80699 5.26001C3.82699 5.27001 3.83699 5.28001 3.85699 5.29001C3.86699 5.30001 3.88699 5.31001 3.89699 5.31001C3.91699 5.32001 3.92699 5.32001 3.94699 5.33001C3.96699 5.33001 3.98699 5.33001 3.99699 5.33001C4.01699 5.33001 4.03699 5.33001 4.05699 5.33001C4.06699 5.32001 4.08699 5.32001 4.10699 5.31001C4.11699 5.31001 4.13699 5.30001 4.14699 5.29001C4.16699 5.28001 4.17699 5.27001 4.18699 5.26001C4.19699 5.24001 4.21699 5.23001 4.22699 5.21001C4.22699 5.20001 4.23699 5.18001 4.24699 5.17001C4.25699 5.15001 4.25699 5.14001 4.25699 5.12001C4.26699 5.10001 4.26699 5.08001 4.26699 5.07001L4.26699 4.53001Z"></path><path id="圆形 3" fill-rule="evenodd" style="fill:#DFE1ED" opacity="1" d="M3.99961 5.60001C3.77861 5.60001 3.59961 5.77901 3.59961 6.00001C3.59961 6.22101 3.77861 6.40001 3.99961 6.40001C4.22061 6.40001 4.39961 6.22101 4.39961 6.00001C4.39961 5.77901 4.22061 5.60001 3.99961 5.60001Z"></path></g></g><defs><rect id="path_0" x="0" y="0" width="8" height="8" /></defs></svg>