<svg xmlns="http://www.w3.org/2000/svg" xmlns:xlink="http://www.w3.org/1999/xlink" width="8" height="8" viewBox="0 0 8 8" fill="none"><g opacity="1"  transform="translate(0 0)  rotate(0)"><mask id="bg-mask-0" fill="white"><use xlink:href="#path_0"></use></mask><g mask="url(#bg-mask-0)" ><path id="圆形 1 (轮廓)" fill-rule="evenodd" style="fill:#424561" opacity="1" d="M5.45666,0.55666c0.44,0.19 0.84,0.46 1.18,0.8c0.35,0.35 0.61,0.74 0.8,1.19c0.2,0.46 0.3,0.95 0.3,1.45c0,0.51 -0.1,0.99 -0.3,1.46c-0.19,0.44 -0.45,0.84 -0.8,1.18c-0.34,0.35 -0.74,0.61 -1.18,0.8c-0.47,0.2 -0.95,0.3 -1.46,0.3c-0.5,0 -0.99,-0.1 -1.45,-0.3c-0.45,-0.19 -0.84,-0.45 -1.19,-0.8c-0.34,-0.34 -0.61,-0.74 -0.8,-1.18c-0.19,-0.47 -0.29,-0.95 -0.29,-1.46c0,-0.5 0.1,-0.99 0.29,-1.45c0.19,-0.45 0.46,-0.84 0.8,-1.19c0.35,-0.34 0.74,-0.61 1.19,-0.8c0.46,-0.19 0.95,-0.29 1.45,-0.29c0.51,0 0.99,0.1 1.46,0.29zM1.73666,1.73666c-0.29,0.3 -0.52,0.63 -0.69,1.02c-0.16,0.39 -0.25,0.81 -0.25,1.24c0,0.44 0.09,0.85 0.25,1.25c0.17,0.38 0.4,0.72 0.69,1.02c0.3,0.29 0.63,0.52 1.02,0.68c0.39,0.17 0.81,0.25 1.24,0.25c0.44,0 0.85,-0.08 1.25,-0.25c0.38,-0.16 0.72,-0.39 1.02,-0.68c0.29,-0.3 0.52,-0.64 0.68,-1.02c0.17,-0.4 0.25,-0.81 0.25,-1.25c0,-0.43 -0.08,-0.85 -0.25,-1.24c-0.16,-0.39 -0.39,-0.72 -0.68,-1.02c-0.3,-0.29 -0.64,-0.52 -1.02,-0.69c-0.4,-0.16 -0.81,-0.25 -1.25,-0.25c-0.43,0 -0.85,0.09 -1.24,0.25c-0.39,0.17 -0.72,0.4 -1.02,0.69z"></path><path id="圆形 2 (轮廓)" fill-rule="evenodd" style="fill:#424561" opacity="1" d="M4.26669 4.53001C4.26669 4.45001 4.30669 4.35001 4.37669 4.26001C4.41669 4.21001 4.46669 4.16001 4.52669 4.10001C4.55669 4.07001 4.62669 4.01001 4.70669 3.93001C4.79669 3.85001 4.86669 3.79001 4.91669 3.75001C4.99669 3.67001 5.05669 3.60001 5.10669 3.53001C5.25669 3.34001 5.33669 3.14001 5.33669 2.93001C5.33669 2.74001 5.29669 2.55001 5.22669 2.38001C5.16669 2.22001 5.06669 2.08001 4.93669 1.96001C4.81669 1.84001 4.67669 1.75001 4.50669 1.69001C4.34669 1.63001 4.17669 1.60001 3.99669 1.60001C3.81669 1.60001 3.64669 1.63001 3.47669 1.70001C3.31669 1.77001 3.17669 1.87001 3.05669 1.99001C2.93669 2.11001 2.83669 2.25001 2.76669 2.41001C2.69669 2.58001 2.66669 2.75001 2.66669 2.93001C2.66669 2.95001 2.66669 2.97001 2.67669 2.99001C2.67669 3.00001 2.67669 3.02001 2.68669 3.04001C2.69669 3.05001 2.70669 3.07001 2.70669 3.08001C2.71669 3.10001 2.73669 3.11001 2.74669 3.12001C2.75669 3.13001 2.76669 3.15001 2.78669 3.16001C2.79669 3.16001 2.81669 3.17001 2.82669 3.18001C2.84669 3.19001 2.86669 3.19001 2.87669 3.19001C2.89669 3.20001 2.91669 3.20001 2.93669 3.20001C2.94669 3.20001 2.96669 3.20001 2.98669 3.19001C3.00669 3.19001 3.01669 3.19001 3.03669 3.18001C3.04669 3.17001 3.06669 3.16001 3.07669 3.16001C3.09669 3.15001 3.10669 3.13001 3.12669 3.12001C3.13669 3.11001 3.14669 3.10001 3.15669 3.08001C3.16669 3.07001 3.17669 3.05001 3.17669 3.04001C3.18669 3.02001 3.18669 3.00001 3.19669 2.99001C3.19669 2.97001 3.19669 2.95001 3.19669 2.93001C3.19669 2.82001 3.21669 2.72001 3.26669 2.62001C3.30669 2.53001 3.35669 2.44001 3.43669 2.37001C3.50669 2.29001 3.59669 2.24001 3.68669 2.20001C3.78669 2.15001 3.88669 2.13001 3.99669 2.13001C4.11669 2.13001 4.22669 2.15001 4.31669 2.19001C4.41669 2.23001 4.49669 2.28001 4.56669 2.34001C4.72669 2.49001 4.79669 2.69001 4.79669 2.93001C4.79669 3.02001 4.76669 3.11001 4.68669 3.21001C4.65669 3.25001 4.60669 3.31001 4.54669 3.36001C4.50669 3.40001 4.44669 3.46001 4.35669 3.53001C4.26669 3.61001 4.19669 3.67001 4.15669 3.72001C4.07669 3.79001 4.00669 3.86001 3.95669 3.93001C3.80669 4.12001 3.73669 4.32001 3.73669 4.53001L3.73669 5.07001C3.73669 5.08001 3.73669 5.10001 3.73669 5.12001C3.74669 5.14001 3.74669 5.15001 3.75669 5.17001C3.75669 5.18001 3.76669 5.20001 3.77669 5.21001C3.78669 5.23001 3.79669 5.24001 3.80669 5.26001C3.82669 5.27001 3.83669 5.28001 3.85669 5.29001C3.86669 5.30001 3.88669 5.31001 3.89669 5.31001C3.91669 5.32001 3.92669 5.32001 3.94669 5.33001C3.96669 5.33001 3.98669 5.33001 3.99669 5.33001C4.01669 5.33001 4.03669 5.33001 4.05669 5.33001C4.06669 5.32001 4.08669 5.32001 4.10669 5.31001C4.11669 5.31001 4.13669 5.30001 4.14669 5.29001C4.16669 5.28001 4.17669 5.27001 4.18669 5.26001C4.19669 5.24001 4.21669 5.23001 4.22669 5.21001C4.22669 5.20001 4.23669 5.18001 4.24669 5.17001C4.25669 5.15001 4.25669 5.14001 4.25669 5.12001C4.26669 5.10001 4.26669 5.08001 4.26669 5.07001L4.26669 4.53001Z"></path><path id="圆形 3" fill-rule="evenodd" style="fill:#424561" opacity="1" d="M3.99998 5.60001C3.77898 5.60001 3.59998 5.77901 3.59998 6.00001C3.59998 6.22101 3.77898 6.40001 3.99998 6.40001C4.22098 6.40001 4.39998 6.22101 4.39998 6.00001C4.39998 5.77901 4.22098 5.60001 3.99998 5.60001Z"></path></g></g><defs><rect id="path_0" x="0" y="0" width="8" height="8" /></defs></svg>