<svg xmlns="http://www.w3.org/2000/svg" xmlns:xlink="http://www.w3.org/1999/xlink" width="24" height="24" viewBox="0 0 24 24" fill="none"><g opacity="1"  transform="translate(0 0)  rotate(0)"><rect stroke="#DFE1ED" stroke-width="1" stroke-opacity="1" width="24" height="24" /><rect x="0" y="0" width="24" height="24" rx="4" /><mask id="bg-mask-0" fill="white"><use xlink:href="#path_0"></use></mask><g mask="url(#bg-mask-0)" ><g opacity="1"  transform="translate(4.200439453125 3.968017578125)  rotate(0)"><path id="圆形 1 (轮廓)" fill-rule="evenodd" style="fill:#656A85" opacity="1" d="M2.28951 2.52082C1.56951 3.24082 1.00951 4.06082 0.609512 4.99082C0.199512 5.96082 -0.000488281 6.97082 -0.000488281 8.03082C-0.000488281 9.09082 0.199512 10.1008 0.609512 11.0608C1.00951 12.0008 1.56951 12.8208 2.27951 13.5408C2.99951 14.2608 3.82951 14.8208 4.75951 15.2108C5.72951 15.6208 6.73951 15.8308 7.79951 15.8308L7.79951 15.8308C7.83951 15.8308 7.87951 15.8308 7.91951 15.8208C7.95951 15.8108 7.98951 15.8008 8.02951 15.7908C8.06951 15.7708 8.09951 15.7508 8.12951 15.7308C8.16951 15.7108 8.19951 15.6808 8.21951 15.6608C8.24951 15.6308 8.27951 15.6008 8.29951 15.5608C8.31951 15.5308 8.33951 15.5008 8.34951 15.4608C8.36951 15.4208 8.37951 15.3908 8.38951 15.3508C8.39951 15.3108 8.39951 15.2708 8.39951 15.2308C8.39951 15.1908 8.39951 15.1508 8.38951 15.1108C8.37951 15.0808 8.36951 15.0408 8.34951 15.0008C8.33951 14.9708 8.31951 14.9308 8.29951 14.9008C8.27951 14.8708 8.24951 14.8308 8.21951 14.8108C8.19951 14.7808 8.16951 14.7508 8.12951 14.7308C8.09951 14.7108 8.06951 14.6908 8.02951 14.6808C7.98951 14.6608 7.95951 14.6508 7.91951 14.6408C7.87951 14.6408 7.83951 14.6308 7.79951 14.6308L7.79951 14.6308C6.89951 14.6308 6.04951 14.4608 5.22951 14.1108C4.43951 13.7808 3.73951 13.3008 3.12951 12.6908C2.51951 12.0908 2.04951 11.3908 1.71951 10.6008C1.36951 9.78082 1.19951 8.92082 1.19951 8.03082C1.19951 7.13082 1.36951 6.28082 1.71951 5.46082C2.04951 4.67082 2.52951 3.97082 3.13951 3.36082L3.12951 3.36082C3.15951 3.33082 3.18951 3.30082 3.20951 3.27082C3.22951 3.24082 3.24951 3.20082 3.25951 3.17082C3.27951 3.13082 3.28951 3.09082 3.29951 3.06082C3.30951 3.02082 3.30951 2.98082 3.30951 2.94082C3.30951 2.90082 3.29951 2.86082 3.29951 2.82082C3.28951 2.78082 3.27951 2.75082 3.25951 2.71082C3.24951 2.67082 3.22951 2.64082 3.20951 2.61082C3.18951 2.57082 3.15951 2.54082 3.12951 2.52082C3.10951 2.49082 3.06951 2.46082 3.03951 2.44082C3.00951 2.42082 2.96951 2.40082 2.93951 2.39082C2.89951 2.37082 2.85951 2.36082 2.82951 2.35082C2.78951 2.34082 2.74951 2.34082 2.70951 2.34082C2.66951 2.34082 2.62951 2.34082 2.58951 2.35082C2.54951 2.36082 2.51951 2.37082 2.47951 2.39082C2.43951 2.40082 2.40951 2.42082 2.37951 2.44082C2.33951 2.46082 2.30951 2.49082 2.27951 2.52082L2.28951 2.52082Z"></path><path id="直线 1 (轮廓)" fill-rule="evenodd" style="fill:#656A85" opacity="1" d="M8.2987 14.8991L6.50147 12.2033C6.47928 12.17 6.45709 12.1367 6.42658 12.109C6.39607 12.0812 6.36557 12.0535 6.33228 12.0396C6.30178 12.0119 6.26295 11.9897 6.22966 11.9758C6.19638 11.962 6.15478 11.9536 6.11318 11.9453C6.0799 11.9314 6.04384 11.9314 5.99946 11.937C5.95786 11.9287 5.92735 11.937 5.88298 11.9425C5.84415 11.9564 5.80809 11.9564 5.77481 11.9786C5.73598 11.9925 5.7027 12.0147 5.66942 12.0368C5.63614 12.059 5.60285 12.0812 5.57512 12.1117C5.54184 12.1339 5.52797 12.1672 5.50023 12.1977C5.47805 12.2365 5.45863 12.2615 5.45031 12.3031C5.42812 12.3419 5.41426 12.3752 5.41426 12.4113C5.40594 12.4529 5.39761 12.4945 5.39761 12.5305C5.39761 12.5666 5.40316 12.611 5.41703 12.6498C5.41703 12.6858 5.4309 12.7247 5.44476 12.7635C5.45863 12.8023 5.48082 12.8356 5.50301 12.8689L7.30024 15.5647C7.32242 15.598 7.34461 15.6313 7.37512 15.659C7.40563 15.6868 7.43059 15.7062 7.46942 15.7284C7.49993 15.7561 7.53321 15.77 7.56649 15.7838C7.60532 15.806 7.64692 15.8144 7.68298 15.8144C7.71626 15.8282 7.75786 15.8365 7.80224 15.831C7.8383 15.831 7.87435 15.831 7.91318 15.8171C7.95756 15.8116 7.98806 15.8033 8.02689 15.7894C8.06572 15.7755 8.099 15.7533 8.13229 15.7311C8.16557 15.709 8.19885 15.6868 8.22659 15.6563C8.25432 15.6258 8.27374 15.6008 8.29592 15.562C8.32366 15.5315 8.33753 15.4982 8.35139 15.4649C8.37358 15.4261 8.3819 15.3845 8.3819 15.3484C8.39577 15.3151 8.40409 15.2735 8.39854 15.2291C8.39854 15.1931 8.39854 15.157 8.38468 15.1182C8.37913 15.0738 8.37081 15.0433 8.35694 15.0045C8.34307 14.9657 8.32088 14.9324 8.2987 14.8991Z"></path><path id="圆形 1 (轮廓)" fill-rule="evenodd" style="fill:#656A85" opacity="1" d="M13.3096 13.5431C14.0296 12.8231 14.5896 12.0031 14.9896 11.0731C15.3996 10.1031 15.5996 9.09315 15.5996 8.03314C15.5996 6.97315 15.3996 5.96315 14.9896 5.00315C14.5896 4.06315 14.0296 3.24315 13.3196 2.52315C12.5996 1.80315 11.7696 1.24315 10.8396 0.853147C9.86961 0.443147 8.85961 0.233147 7.79961 0.233147L7.79961 0.233147C7.75961 0.233147 7.71961 0.233147 7.67961 0.243147C7.63961 0.253146 7.60961 0.263146 7.56961 0.273147C7.52961 0.293146 7.49961 0.313147 7.46961 0.333146C7.42961 0.353147 7.39961 0.383146 7.37961 0.403147C7.34961 0.433146 7.31961 0.463146 7.29961 0.503146C7.27961 0.533147 7.25961 0.563147 7.24961 0.603147C7.22961 0.643147 7.21961 0.673146 7.20961 0.713146C7.19961 0.753146 7.19961 0.793146 7.19961 0.833146C7.19961 0.873146 7.19961 0.913146 7.20961 0.953146C7.21961 0.983147 7.22961 1.02315 7.24961 1.06315C7.25961 1.09315 7.27961 1.13315 7.29961 1.16315C7.31961 1.19315 7.34961 1.23315 7.37961 1.25315C7.39961 1.28315 7.42961 1.31315 7.46961 1.33315C7.49961 1.35315 7.52961 1.37315 7.56961 1.38315C7.60961 1.40315 7.63961 1.41315 7.67961 1.42315C7.71961 1.42315 7.75961 1.43315 7.79961 1.43315L7.79961 1.43315C8.69961 1.43315 9.54961 1.60315 10.3696 1.95315C11.1596 2.28315 11.8596 2.76315 12.4696 3.37315C13.0796 3.97315 13.5496 4.67315 13.8796 5.46315C14.2296 6.28315 14.3996 7.14315 14.3996 8.03314C14.3996 8.93315 14.2296 9.78314 13.8796 10.6031C13.5496 11.3931 13.0696 12.0931 12.4596 12.7031L12.4696 12.7031C12.4396 12.7331 12.4096 12.7631 12.3896 12.7931C12.3696 12.8231 12.3496 12.8631 12.3396 12.8931C12.3196 12.9331 12.3096 12.9731 12.2996 13.0031C12.2896 13.0431 12.2896 13.0831 12.2896 13.1231C12.2896 13.1631 12.2996 13.2031 12.2996 13.2431C12.3096 13.2831 12.3196 13.3131 12.3396 13.3531C12.3496 13.3931 12.3696 13.4231 12.3896 13.4531C12.4096 13.4931 12.4396 13.5231 12.4696 13.5431C12.4896 13.5731 12.5296 13.6031 12.5596 13.6231C12.5896 13.6431 12.6296 13.6631 12.6596 13.6731C12.6996 13.6931 12.7396 13.7031 12.7696 13.7131C12.8096 13.7231 12.8496 13.7231 12.8896 13.7231C12.9296 13.7231 12.9696 13.7231 13.0096 13.7131C13.0496 13.7031 13.0796 13.6931 13.1196 13.6731C13.1596 13.6631 13.1896 13.6431 13.2196 13.6231C13.2596 13.6031 13.2896 13.5731 13.3196 13.5431L13.3096 13.5431Z"></path><path id="直线 1 (轮廓)" fill-rule="evenodd" style="fill:#656A85" opacity="1" d="M7.30042 1.16487L9.1032 3.86903C9.11984 3.89399 9.14203 3.92728 9.17254 3.95501C9.20305 3.98275 9.23355 4.01048 9.26684 4.02435C9.29735 4.05208 9.33617 4.07427 9.36946 4.08814C9.40274 4.10201 9.44434 4.11033 9.48594 4.11865C9.51923 4.13252 9.55528 4.13252 9.59966 4.12697C9.64126 4.13529 9.67177 4.12697 9.71614 4.12142C9.75497 4.10755 9.79103 4.10755 9.82431 4.08537C9.86314 4.0715 9.89642 4.04931 9.93525 4.03544C9.96299 4.00493 9.99627 3.98275 10.024 3.95224C10.0573 3.93005 10.0712 3.89677 10.0989 3.86626C10.1211 3.82743 10.1405 3.80247 10.1488 3.76087C10.171 3.72204 10.1849 3.68876 10.1849 3.6527C10.1932 3.6111 10.2015 3.5695 10.2015 3.53344C10.2015 3.49738 10.196 3.45301 10.1821 3.41418C10.1821 3.37812 10.1682 3.33929 10.1544 3.30047C10.1405 3.26164 10.1183 3.22835 10.1017 3.20339L8.29888 0.49923C8.2767 0.465948 8.25451 0.432666 8.224 0.404931C8.19349 0.377196 8.16853 0.357782 8.1297 0.335594C8.09919 0.307859 8.06591 0.293991 8.03263 0.280124C7.9938 0.257936 7.9522 0.249615 7.91614 0.249615C7.88286 0.235748 7.84126 0.227427 7.79688 0.232974C7.76083 0.232974 7.72477 0.232974 7.68594 0.246842C7.64156 0.252389 7.61106 0.260709 7.57223 0.274577C7.5334 0.288444 7.50012 0.310632 7.46683 0.33282C7.43355 0.355008 7.40027 0.377196 7.37254 0.407705C7.3448 0.438213 7.32539 0.463175 7.3032 0.502004C7.27546 0.532512 7.2616 0.565794 7.24773 0.599076C7.22554 0.637905 7.21722 0.679508 7.21722 0.715563C7.20335 0.748845 7.19503 0.790448 7.20058 0.834824C7.20058 0.870879 7.20058 0.906935 7.21445 0.945764C7.21999 0.99014 7.22831 1.02065 7.24218 1.05948C7.25605 1.09831 7.27824 1.13159 7.30042 1.16487Z"></path></g></g></g><defs><rect id="path_0" x="0" y="0" width="24" height="24" /></defs></svg>