<svg xmlns="http://www.w3.org/2000/svg" xmlns:xlink="http://www.w3.org/1999/xlink" width="16" height="16" viewBox="0 0 16 16" fill="none"><g opacity="1"  transform="translate(0 0)  rotate(0)"><mask id="bg-mask-0" fill="white"><use xlink:href="#path_0"></use></mask><g mask="url(#bg-mask-0)" ><g opacity="1"  transform="translate(2.800048828125 2.6457366943359375)  rotate(0)"><path id="圆形 1 (轮廓)" fill-rule="evenodd" style="fill:#656A85" opacity="1" d="M1.52 1.68015C1.04 2.16015 0.67 2.71015 0.41 3.33015C0.14 3.97015 0 4.65015 0 5.35015C0 6.06015 0.14 6.73015 0.41 7.38015C0.67 8.00015 1.04 8.55015 1.52 9.03015C2 9.51015 2.55 9.88015 3.18 10.1401C3.82 10.4201 4.49 10.5501 5.2 10.5501L5.2 10.5501C5.23 10.5501 5.25 10.5501 5.28 10.5501C5.3 10.5401 5.33 10.5301 5.35 10.5201C5.38 10.5101 5.4 10.5001 5.42 10.4901C5.44 10.4701 5.46 10.4601 5.48 10.4401C5.5 10.4201 5.52 10.4001 5.53 10.3801C5.55 10.3501 5.56 10.3301 5.57 10.3101C5.58 10.2801 5.59 10.2601 5.59 10.2301C5.6 10.2101 5.6 10.1801 5.6 10.1501C5.6 10.1301 5.6 10.1001 5.59 10.0801C5.59 10.0501 5.58 10.0301 5.57 10.0001C5.56 9.98015 5.55 9.95015 5.53 9.93015C5.52 9.91015 5.5 9.89015 5.48 9.87015C5.46 9.85015 5.44 9.84015 5.42 9.82015C5.4 9.81015 5.38 9.79015 5.35 9.78015C5.33 9.77015 5.3 9.77015 5.28 9.76015C5.25 9.76015 5.23 9.75015 5.2 9.75015L5.2 9.75015C4.6 9.75015 4.03 9.64015 3.49 9.41015C2.96 9.18015 2.49 8.87015 2.09 8.46015C1.68 8.06015 1.37 7.59015 1.15 7.06015C0.92 6.52015 0.8 5.95015 0.8 5.35015C0.8 4.76015 0.92 4.19015 1.15 3.64015C1.37 3.12015 1.68 2.65015 2.09 2.24015L2.09 2.24015C2.11 2.22015 2.12 2.20015 2.14 2.18015C2.15 2.16015 2.17 2.14015 2.18 2.11015C2.19 2.09015 2.19 2.06015 2.2 2.04015C2.2 2.01015 2.21 1.99015 2.21 1.96015C2.21 1.93015 2.2 1.91015 2.2 1.88015C2.19 1.86015 2.19 1.83015 2.18 1.81015C2.17 1.78015 2.15 1.76015 2.14 1.74015C2.12 1.72015 2.11 1.70015 2.09 1.68015C2.07 1.66015 2.05 1.64015 2.03 1.63015C2.01 1.61015 1.98 1.60015 1.96 1.59015C1.93 1.58015 1.91 1.57015 1.88 1.57015C1.86 1.56015 1.83 1.56015 1.81 1.56015C1.78 1.56015 1.75 1.56015 1.73 1.57015C1.7 1.57015 1.68 1.58015 1.65 1.59015C1.63 1.60015 1.61 1.61015 1.58 1.63015C1.56 1.64015 1.54 1.66015 1.52 1.68015L1.52 1.68015Z"></path><path id="直线 1 (轮廓)" fill-rule="evenodd" style="fill:#656A85" opacity="1" d="M5.53287 9.93239L4.33306 8.13266C4.31808 8.1102 4.30116 8.09023 4.28313 8.0722C4.26455 8.05334 4.24486 8.03642 4.22322 8.022C4.20104 8.00675 4.17746 7.99482 4.15361 7.98428C4.12948 7.97513 4.10369 7.96709 4.07873 7.96209C4.05238 7.95682 4.02686 7.95461 4.00024 7.95433C3.97361 7.95405 3.94782 7.95682 3.9223 7.96182C3.89678 7.96681 3.87154 7.97402 3.84714 7.98428C3.82273 7.99454 3.79999 8.0073 3.77836 8.02172C3.75672 8.03615 3.7362 8.05223 3.71734 8.07082C3.69848 8.0894 3.68211 8.10992 3.66769 8.13156C3.65327 8.15319 3.64079 8.17593 3.6308 8.20061C3.62082 8.2253 3.61305 8.24971 3.60778 8.27605C3.60279 8.30102 3.6003 8.32792 3.59946 8.35371C3.60002 8.37978 3.60196 8.40613 3.60751 8.43248C3.6125 8.458 3.62054 8.48268 3.6308 8.50709C3.64051 8.53066 3.65244 8.55396 3.66741 8.57642L4.86723 10.3761C4.88165 10.3978 4.89857 10.4178 4.91715 10.4366C4.93574 10.4555 4.95543 10.4724 4.97706 10.4868C4.99953 10.5007 5.02227 10.5132 5.04612 10.5237C5.07081 10.5337 5.09605 10.5409 5.12156 10.5467C5.14736 10.5512 5.17343 10.5542 5.20005 10.5545C5.22612 10.5539 5.25192 10.5512 5.27799 10.547C5.3035 10.542 5.32819 10.534 5.35259 10.5237C5.377 10.5134 5.4003 10.5015 5.42193 10.4871C5.44356 10.4727 5.46353 10.4557 5.48239 10.4372C5.50125 10.4186 5.51817 10.3989 5.53259 10.3773C5.54646 10.3548 5.55894 10.3321 5.56948 10.3082C5.57947 10.2835 5.58668 10.2583 5.5925 10.2328C5.59694 10.207 5.59999 10.1809 5.60027 10.1543C5.59971 10.1282 5.59694 10.1024 5.59278 10.0763C5.58779 10.0508 5.57974 10.0261 5.56948 10.0017C5.55922 9.97732 5.54729 9.95402 5.53287 9.93239Z"></path><path id="圆形 1 (轮廓)" fill-rule="evenodd" style="fill:#656A85" opacity="1" d="M8.8799 9.02838C9.3599 8.54838 9.7299 7.99838 9.9899 7.37838C10.2599 6.73838 10.3999 6.05838 10.3999 5.35838C10.3999 4.64838 10.2599 3.97838 9.9899 3.32838C9.7299 2.70838 9.3599 2.15838 8.8799 1.67838C8.3999 1.19838 7.8499 0.828378 7.2199 0.568377C6.5799 0.288378 5.9099 0.158378 5.1999 0.158378L5.1999 0.158378C5.1699 0.158378 5.1499 0.158378 5.1199 0.158378C5.0999 0.168378 5.0699 0.178377 5.0499 0.188377C5.0199 0.198378 4.9999 0.208378 4.9799 0.218377C4.9599 0.238378 4.9399 0.248378 4.9199 0.268377C4.8999 0.288378 4.8799 0.308377 4.8699 0.328378C4.8499 0.358377 4.8399 0.378377 4.8299 0.398377C4.8199 0.428377 4.8099 0.448378 4.8099 0.478377C4.7999 0.498378 4.7999 0.528378 4.7999 0.558377C4.7999 0.578378 4.7999 0.608377 4.8099 0.628377C4.8099 0.658378 4.8199 0.678377 4.8299 0.708378C4.8399 0.728377 4.8499 0.758377 4.8699 0.778378C4.8799 0.798377 4.8999 0.818377 4.9199 0.838377C4.9399 0.858377 4.9599 0.868378 4.9799 0.888377C4.9999 0.898377 5.0199 0.918378 5.0499 0.928377C5.0699 0.938377 5.0999 0.938377 5.1199 0.948378C5.1499 0.948378 5.1699 0.958378 5.1999 0.958378L5.1999 0.958378C5.7999 0.958378 6.3699 1.06838 6.9099 1.29838C7.4399 1.52838 7.9099 1.83838 8.3099 2.24838C8.7199 2.64838 9.0299 3.11838 9.2499 3.64838C9.4799 4.18838 9.5999 4.75838 9.5999 5.35838C9.5999 5.94838 9.4799 6.51838 9.2499 7.06838C9.0299 7.58838 8.7199 8.05838 8.3099 8.46838L8.3099 8.46838C8.2899 8.48838 8.2799 8.50838 8.2599 8.52838C8.2499 8.54838 8.2299 8.56838 8.2199 8.59838C8.2099 8.61838 8.2099 8.64838 8.1999 8.66838C8.1999 8.69838 8.1899 8.71838 8.1899 8.74838C8.1899 8.77838 8.1999 8.79838 8.1999 8.82838C8.2099 8.84838 8.2099 8.87838 8.2199 8.89838C8.2299 8.92838 8.2499 8.94838 8.2599 8.96838C8.2799 8.98838 8.2899 9.00838 8.3099 9.02838C8.3299 9.04838 8.3499 9.06838 8.3699 9.07838C8.3899 9.09838 8.4199 9.10838 8.4399 9.11838C8.4699 9.12838 8.4899 9.13838 8.5199 9.13838C8.5399 9.14838 8.5699 9.14838 8.5899 9.14838C8.6199 9.14838 8.6499 9.14838 8.6699 9.13838C8.6999 9.13838 8.7199 9.12838 8.7499 9.11838C8.7699 9.10838 8.7899 9.09838 8.8199 9.07838C8.8399 9.06838 8.8599 9.04838 8.8799 9.02838L8.8799 9.02838Z"></path><path id="直线 1 (轮廓)" fill-rule="evenodd" style="fill:#656A85" opacity="1" d="M4.86703 0.776138L6.06685 2.57586C6.08182 2.59833 6.09874 2.6183 6.11677 2.63632C6.13535 2.65518 6.15504 2.6721 6.17668 2.68653C6.19887 2.70178 6.22244 2.71371 6.24629 2.72424C6.27042 2.7334 6.29622 2.74144 6.32118 2.74643C6.34753 2.7517 6.37304 2.75392 6.39967 2.7542C6.42629 2.75448 6.45209 2.7517 6.4776 2.74671C6.50312 2.74172 6.52836 2.73451 6.55276 2.72424C6.57717 2.71398 6.59991 2.70122 6.62155 2.6868C6.64318 2.67238 6.6637 2.65629 6.68256 2.63771C6.70142 2.61913 6.71779 2.59861 6.73221 2.57697C6.74663 2.55534 6.75911 2.5326 6.7691 2.50791C6.77908 2.48323 6.78685 2.45882 6.79212 2.43247C6.79711 2.40751 6.79961 2.38061 6.80044 2.35481C6.79988 2.32874 6.79794 2.3024 6.7924 2.27605C6.7874 2.25053 6.77936 2.22585 6.7691 2.20144C6.75939 2.17787 6.74746 2.15457 6.73249 2.1321L5.53267 0.332378C5.51825 0.310744 5.50133 0.290775 5.48275 0.271915C5.46417 0.253055 5.44447 0.236137 5.42284 0.221715C5.40037 0.207847 5.37763 0.195367 5.35378 0.184827C5.3291 0.174843 5.30386 0.167632 5.27834 0.161807C5.25255 0.15737 5.22648 0.154319 5.19985 0.154041C5.17378 0.154596 5.14799 0.15737 5.12192 0.16153C5.0964 0.166522 5.07172 0.174565 5.04731 0.184827C5.0229 0.195089 4.9996 0.207015 4.97797 0.221438C4.95634 0.23586 4.93637 0.252778 4.91751 0.271361C4.89865 0.289943 4.88173 0.309635 4.86731 0.331268C4.85344 0.353734 4.84096 0.376476 4.83042 0.400328C4.82044 0.425013 4.81322 0.450251 4.8074 0.475768C4.80296 0.501561 4.79991 0.527632 4.79963 0.554258C4.80019 0.580329 4.80296 0.606122 4.80712 0.632193C4.81212 0.657709 4.82016 0.682393 4.83042 0.7068C4.84068 0.731207 4.85261 0.754505 4.86703 0.776138Z"></path></g></g></g><defs><rect id="path_0" x="0" y="0" width="16" height="16" /></defs></svg>