<svg xmlns="http://www.w3.org/2000/svg" xmlns:xlink="http://www.w3.org/1999/xlink" width="24" height="24" viewBox="0 0 24 24" fill="none"><g opacity="1"  transform="translate(0 0)  rotate(0)"><rect stroke="#DFE1ED" stroke-width="1" stroke-opacity="1" width="24" height="24" /><rect x="0" y="0" width="24" height="24" rx="4" /><mask id="bg-mask-0" fill="white"><use xlink:href="#path_0"></use></mask><g mask="url(#bg-mask-0)" ><g opacity="1"  transform="translate(4.200439453125 3.96795654296875)  rotate(0)"><path id="圆形 1 (轮廓)" fill-rule="evenodd" style="fill:#656A85" opacity="1" d="M2.28951 2.52088C1.56951 3.24088 1.00951 4.06088 0.609512 4.99088C0.199512 5.96088 -0.000488281 6.97088 -0.000488281 8.03088C-0.000488281 9.09088 0.199512 10.1009 0.609512 11.0609C1.00951 12.0009 1.56951 12.8209 2.27951 13.5409C2.99951 14.2609 3.82951 14.8209 4.75951 15.2109C5.72951 15.6209 6.73951 15.8309 7.79951 15.8309L7.79951 15.8309C7.83951 15.8309 7.87951 15.8309 7.91951 15.8209C7.95951 15.8109 7.98951 15.8009 8.02951 15.7909C8.06951 15.7709 8.09951 15.7509 8.12951 15.7309C8.16951 15.7109 8.19951 15.6809 8.21951 15.6609C8.24951 15.6309 8.27951 15.6009 8.29951 15.5609C8.31951 15.5309 8.33951 15.5009 8.34951 15.4609C8.36951 15.4209 8.37951 15.3909 8.38951 15.3509C8.39951 15.3109 8.39951 15.2709 8.39951 15.2309C8.39951 15.1909 8.39951 15.1509 8.38951 15.1109C8.37951 15.0809 8.36951 15.0409 8.34951 15.0009C8.33951 14.9709 8.31951 14.9309 8.29951 14.9009C8.27951 14.8709 8.24951 14.8309 8.21951 14.8109C8.19951 14.7809 8.16951 14.7509 8.12951 14.7309C8.09951 14.7109 8.06951 14.6909 8.02951 14.6809C7.98951 14.6609 7.95951 14.6509 7.91951 14.6409C7.87951 14.6409 7.83951 14.6309 7.79951 14.6309L7.79951 14.6309C6.89951 14.6309 6.04951 14.4609 5.22951 14.1109C4.43951 13.7809 3.73951 13.3009 3.12951 12.6909C2.51951 12.0909 2.04951 11.3909 1.71951 10.6009C1.36951 9.78088 1.19951 8.92088 1.19951 8.03088C1.19951 7.13088 1.36951 6.28088 1.71951 5.46088C2.04951 4.67088 2.52951 3.97088 3.13951 3.36088L3.12951 3.36088C3.15951 3.33088 3.18951 3.30088 3.20951 3.27088C3.22951 3.24088 3.24951 3.20088 3.25951 3.17088C3.27951 3.13088 3.28951 3.09088 3.29951 3.06088C3.30951 3.02088 3.30951 2.98088 3.30951 2.94088C3.30951 2.90088 3.29951 2.86088 3.29951 2.82088C3.28951 2.78088 3.27951 2.75088 3.25951 2.71088C3.24951 2.67088 3.22951 2.64088 3.20951 2.61088C3.18951 2.57088 3.15951 2.54088 3.12951 2.52088C3.10951 2.49088 3.06951 2.46088 3.03951 2.44088C3.00951 2.42088 2.96951 2.40088 2.93951 2.39088C2.89951 2.37088 2.85951 2.36088 2.82951 2.35088C2.78951 2.34088 2.74951 2.34088 2.70951 2.34088C2.66951 2.34088 2.62951 2.34088 2.58951 2.35088C2.54951 2.36088 2.51951 2.37088 2.47951 2.39088C2.43951 2.40088 2.40951 2.42088 2.37951 2.44088C2.33951 2.46088 2.30951 2.49088 2.27951 2.52088L2.28951 2.52088Z"></path><path id="直线 1 (轮廓)" fill-rule="evenodd" style="fill:#656A85" opacity="1" d="M8.2987 14.8992L6.50147 12.2034C6.47928 12.1701 6.45709 12.1368 6.42658 12.1091C6.39607 12.0813 6.36557 12.0536 6.33228 12.0397C6.30178 12.012 6.26295 11.9898 6.22966 11.9759C6.19638 11.9621 6.15478 11.9538 6.11318 11.9454C6.0799 11.9316 6.04384 11.9316 5.99946 11.9371C5.95786 11.9288 5.92735 11.9371 5.88298 11.9427C5.84415 11.9565 5.80809 11.9565 5.77481 11.9787C5.73598 11.9926 5.7027 12.0148 5.66942 12.037C5.63614 12.0592 5.60285 12.0813 5.57512 12.1118C5.54184 12.134 5.52797 12.1673 5.50023 12.1978C5.47805 12.2367 5.45863 12.2616 5.45031 12.3032C5.42812 12.342 5.41426 12.3753 5.41426 12.4114C5.40594 12.453 5.39761 12.4946 5.39761 12.5306C5.39761 12.5667 5.40316 12.6111 5.41703 12.6499C5.41703 12.686 5.4309 12.7248 5.44476 12.7636C5.45863 12.8025 5.48082 12.8357 5.50301 12.869L7.30024 15.5649C7.32242 15.5981 7.34461 15.6314 7.37512 15.6592C7.40563 15.6869 7.43059 15.7063 7.46942 15.7285C7.49993 15.7562 7.53321 15.7701 7.56649 15.784C7.60532 15.8062 7.64692 15.8145 7.68298 15.8145C7.71626 15.8283 7.75786 15.8367 7.80224 15.8311C7.8383 15.8311 7.87435 15.8311 7.91318 15.8172C7.95756 15.8117 7.98806 15.8034 8.02689 15.7895C8.06572 15.7756 8.099 15.7535 8.13229 15.7313C8.16557 15.7091 8.19885 15.6869 8.22659 15.6564C8.25432 15.6259 8.27374 15.6009 8.29592 15.5621C8.32366 15.5316 8.33753 15.4983 8.35139 15.465C8.37358 15.4262 8.3819 15.3846 8.3819 15.3485C8.39577 15.3152 8.40409 15.2736 8.39854 15.2293C8.39854 15.1932 8.39854 15.1572 8.38468 15.1183C8.37913 15.0739 8.37081 15.0434 8.35694 15.0046C8.34307 14.9658 8.32088 14.9325 8.2987 14.8992Z"></path><path id="圆形 1 (轮廓)" fill-rule="evenodd" style="fill:#656A85" opacity="1" d="M13.3096 13.5432C14.0296 12.8232 14.5896 12.0032 14.9896 11.0732C15.3996 10.1032 15.5996 9.09321 15.5996 8.03321C15.5996 6.97321 15.3996 5.96321 14.9896 5.00321C14.5896 4.06321 14.0296 3.24321 13.3196 2.52321C12.5996 1.80321 11.7696 1.24321 10.8396 0.853208C9.86961 0.443208 8.85961 0.233208 7.79961 0.233208L7.79961 0.233208C7.75961 0.233208 7.71961 0.233208 7.67961 0.243208C7.63961 0.253207 7.60961 0.263207 7.56961 0.273208C7.52961 0.293207 7.49961 0.313208 7.46961 0.333207C7.42961 0.353208 7.39961 0.383207 7.37961 0.403208C7.34961 0.433208 7.31961 0.463207 7.29961 0.503207C7.27961 0.533208 7.25961 0.563208 7.24961 0.603208C7.22961 0.643208 7.21961 0.673207 7.20961 0.713207C7.19961 0.753207 7.19961 0.793207 7.19961 0.833207C7.19961 0.873207 7.19961 0.913207 7.20961 0.953207C7.21961 0.983208 7.22961 1.02321 7.24961 1.06321C7.25961 1.09321 7.27961 1.13321 7.29961 1.16321C7.31961 1.19321 7.34961 1.23321 7.37961 1.25321C7.39961 1.28321 7.42961 1.31321 7.46961 1.33321C7.49961 1.35321 7.52961 1.37321 7.56961 1.38321C7.60961 1.40321 7.63961 1.41321 7.67961 1.42321C7.71961 1.42321 7.75961 1.43321 7.79961 1.43321L7.79961 1.43321C8.69961 1.43321 9.54961 1.60321 10.3696 1.95321C11.1596 2.28321 11.8596 2.76321 12.4696 3.37321C13.0796 3.97321 13.5496 4.67321 13.8796 5.46321C14.2296 6.28321 14.3996 7.14321 14.3996 8.03321C14.3996 8.93321 14.2296 9.78321 13.8796 10.6032C13.5496 11.3932 13.0696 12.0932 12.4596 12.7032L12.4696 12.7032C12.4396 12.7332 12.4096 12.7632 12.3896 12.7932C12.3696 12.8232 12.3496 12.8632 12.3396 12.8932C12.3196 12.9332 12.3096 12.9732 12.2996 13.0032C12.2896 13.0432 12.2896 13.0832 12.2896 13.1232C12.2896 13.1632 12.2996 13.2032 12.2996 13.2432C12.3096 13.2832 12.3196 13.3132 12.3396 13.3532C12.3496 13.3932 12.3696 13.4232 12.3896 13.4532C12.4096 13.4932 12.4396 13.5232 12.4696 13.5432C12.4896 13.5732 12.5296 13.6032 12.5596 13.6232C12.5896 13.6432 12.6296 13.6632 12.6596 13.6732C12.6996 13.6932 12.7396 13.7032 12.7696 13.7132C12.8096 13.7232 12.8496 13.7232 12.8896 13.7232C12.9296 13.7232 12.9696 13.7232 13.0096 13.7132C13.0496 13.7032 13.0796 13.6932 13.1196 13.6732C13.1596 13.6632 13.1896 13.6432 13.2196 13.6232C13.2596 13.6032 13.2896 13.5732 13.3196 13.5432L13.3096 13.5432Z"></path><path id="直线 1 (轮廓)" fill-rule="evenodd" style="fill:#656A85" opacity="1" d="M7.30042 1.16487L9.1032 3.86903C9.11984 3.89399 9.14203 3.92728 9.17254 3.95501C9.20305 3.98275 9.23355 4.01048 9.26684 4.02435C9.29735 4.05208 9.33617 4.07427 9.36946 4.08814C9.40274 4.10201 9.44434 4.11033 9.48594 4.11865C9.51923 4.13252 9.55528 4.13252 9.59966 4.12697C9.64126 4.13529 9.67177 4.12697 9.71614 4.12142C9.75497 4.10755 9.79103 4.10755 9.82431 4.08537C9.86314 4.0715 9.89642 4.04931 9.93525 4.03544C9.96299 4.00493 9.99627 3.98275 10.024 3.95224C10.0573 3.93005 10.0712 3.89677 10.0989 3.86626C10.1211 3.82743 10.1405 3.80247 10.1488 3.76087C10.171 3.72204 10.1849 3.68876 10.1849 3.6527C10.1932 3.6111 10.2015 3.5695 10.2015 3.53344C10.2015 3.49738 10.196 3.45301 10.1821 3.41418C10.1821 3.37812 10.1682 3.33929 10.1544 3.30047C10.1405 3.26164 10.1183 3.22835 10.1017 3.20339L8.29888 0.49923C8.2767 0.465948 8.25451 0.432666 8.224 0.404931C8.19349 0.377196 8.16853 0.357782 8.1297 0.335594C8.09919 0.307859 8.06591 0.293991 8.03263 0.280124C7.9938 0.257936 7.9522 0.249615 7.91614 0.249615C7.88286 0.235748 7.84126 0.227427 7.79688 0.232974C7.76083 0.232974 7.72477 0.232974 7.68594 0.246842C7.64156 0.252389 7.61106 0.260709 7.57223 0.274577C7.5334 0.288444 7.50012 0.310632 7.46683 0.33282C7.43355 0.355008 7.40027 0.377196 7.37254 0.407705C7.3448 0.438213 7.32539 0.463175 7.3032 0.502004C7.27546 0.532512 7.2616 0.565794 7.24773 0.599076C7.22554 0.637905 7.21722 0.679508 7.21722 0.715563C7.20335 0.748845 7.19503 0.790448 7.20058 0.834824C7.20058 0.870879 7.20058 0.906935 7.21445 0.945764C7.21999 0.99014 7.22831 1.02065 7.24218 1.05948C7.25605 1.09831 7.27824 1.13159 7.30042 1.16487Z"></path></g></g></g><defs><rect id="path_0" x="0" y="0" width="24" height="24" /></defs></svg>