<svg xmlns="http://www.w3.org/2000/svg" xmlns:xlink="http://www.w3.org/1999/xlink" width="16" height="16" viewBox="0 0 16 16" fill="none">
<path d="M4.51722 9.88294C4.67343 10.0392 4.92669 10.0392 5.0829 9.88294L6.14957 8.81627C6.30578 8.66006 6.30578 8.4068 6.14957 8.25059C5.99336 8.09438 5.74009 8.09438 5.58389 8.25059L4.51722 9.31726C4.36101 9.47346 4.36101 9.72673 4.51722 9.88294Z" fill-rule="evenodd"  fill="#656A85" >
</path>
<path d="M5.08265 9.88268C5.23886 9.72647 5.23886 9.47321 5.08265 9.317L4.01598 8.25033C3.85977 8.09412 3.6065 8.09412 3.45029 8.25033C3.29408 8.40654 3.29409 8.65981 3.45029 8.81602L4.51696 9.88268C4.67317 10.0389 4.92644 10.0389 5.08265 9.88268Z" fill-rule="evenodd"  fill="#656A85" >
</path>
<path d="M8.53372 4.93311C6.25095 4.93311 4.40039 6.78366 4.40039 9.06644C4.40039 9.28735 4.57948 9.46644 4.80039 9.46644C5.0213 9.46644 5.20039 9.28735 5.20039 9.06644C5.20039 7.22549 6.69277 5.73311 8.53372 5.73311C10.3747 5.73311 11.8671 7.22549 11.8671 9.06644L11.8671 9.59977C11.8671 9.82068 12.0462 9.99977 12.2671 9.99977C12.488 9.99977 12.6671 9.82068 12.6671 9.59977L12.6671 9.06644C12.6671 6.78366 10.8165 4.93311 8.53372 4.93311Z" fill-rule="evenodd"  fill="#656A85" >
</path>
<path d="M3.33301 11.1998C3.33301 11.4207 3.51209 11.5998 3.73301 11.5998L12.283 11.5998C12.5039 11.5998 12.683 11.4207 12.683 11.1998C12.683 10.9789 12.5039 10.7998 12.283 10.7998L3.73301 10.7998C3.51209 10.7998 3.33301 10.9789 3.33301 11.1998Z" fill-rule="evenodd"  fill="#656A85" >
</path>
</svg>
