<svg xmlns="http://www.w3.org/2000/svg" xmlns:xlink="http://www.w3.org/1999/xlink" width="30" height="30" viewBox="0 0 30 30" fill="none">
<path d="M15 24.75C20.3848 24.75 24.75 20.3848 24.75 15C24.75 9.61522 20.3848 5.25 15 5.25C9.61522 5.25 5.25 9.61522 5.25 15C5.25 20.3848 9.61522 24.75 15 24.75ZM15 6.75C19.5563 6.75 23.25 10.4436 23.25 15C23.25 19.5563 19.5563 23.25 15 23.25C10.4436 23.25 6.75 19.5563 6.75 15C6.75 10.4436 10.4436 6.75 15 6.75Z" fill-rule="evenodd"  fill="#495AD4" >
</path>
<path d="M15 16.75C17.0711 16.75 18.75 15.0711 18.75 13C18.75 10.9289 17.0711 9.25 15 9.25C12.9289 9.25 11.25 10.9289 11.25 13C11.25 15.0711 12.9289 16.75 15 16.75ZM15 10.75C16.2426 10.75 17.25 11.7574 17.25 13C17.25 14.2426 16.2426 15.25 15 15.25C13.7574 15.25 12.75 14.2426 12.75 13C12.75 11.7574 13.7574 10.75 15 10.75Z" fill-rule="evenodd"  fill="#495AD4" >
</path>
<path d="M15 16.75C16.7949 16.75 18.25 18.2051 18.25 20C18.25 20.4142 18.5858 20.75 19 20.75C19.4142 20.75 19.75 20.4142 19.75 20C19.75 17.3766 17.6234 15.25 15 15.25C12.3766 15.25 10.25 17.3766 10.25 20C10.25 20.4142 10.5858 20.75 11 20.75C11.4142 20.75 11.75 20.4142 11.75 20C11.75 18.2051 13.2051 16.75 15 16.75Z" fill-rule="evenodd"  fill="#495AD4" >
</path>
</svg>
