<svg xmlns="http://www.w3.org/2000/svg" xmlns:xlink="http://www.w3.org/1999/xlink" width="30" height="30" viewBox="0 0 30 30" fill="none"><path    stroke="rgba(19, 25, 38, 1)" stroke-width="1.5" stroke-linejoin="round"   d="M15 20L7 20L7 7L23 7L23 13.5L23 15.125"></path><path    stroke="rgba(19, 25, 38, 1)" stroke-width="1.5" stroke-linejoin="round"   d="M7 23L16 23"></path><path    stroke="rgba(19, 25, 38, 1)" stroke-width="1.5" stroke-linejoin="round"   d="M9 14L12 14L15 11L18 16L21 13"></path><path d="M21 25C23.2091 25 25 23.2091 25 21C25 18.7909 23.2091 17 21 17C18.7909 17 17 18.7909 17 21C17 23.2091 18.7909 25 21 25ZM21 18.5C21.2761 18.5 21.5 18.7239 21.5 19L21.5 20.7929L22.3535 21.6465L23.1035 22.3965C23.194 22.4869 23.25 22.6119 23.25 22.75C23.25 23.0261 23.0261 23.25 22.75 23.25C22.6119 23.25 22.4869 23.194 22.3965 23.1035L20.6464 21.3535Q20.5763 21.2831 20.5381 21.1913C20.5128 21.1301 20.5001 21.0663 20.5 21L20.5 19C20.5 18.7239 20.7239 18.5 21 18.5Z" fill-rule="evenodd"  fill="#495AD4" ></path></svg>