<svg xmlns="http://www.w3.org/2000/svg" xmlns:xlink="http://www.w3.org/1999/xlink" width="24" height="24" viewBox="0 0 24 24" fill="none"><path d="M7.41163 5.48319C7.40394 5.52183 7.4001 5.56084 7.4001 5.60024L7.4001 10.4002C7.4001 10.4396 7.40394 10.4787 7.41163 10.5173C7.41931 10.5559 7.43069 10.5935 7.44577 10.6299C7.46085 10.6663 7.47933 10.7008 7.50122 10.7336C7.5231 10.7663 7.54798 10.7967 7.57583 10.8245C7.60369 10.8524 7.634 10.8772 7.66676 10.8991C7.69951 10.921 7.73409 10.9395 7.77049 10.9546C7.80689 10.9696 7.8444 10.981 7.88304 10.9887C7.92168 10.9964 7.9607 11.0002 8.0001 11.0002C8.03949 11.0002 8.07851 10.9964 8.11715 10.9887C8.15579 10.981 8.19331 10.9696 8.22971 10.9546C8.26611 10.9395 8.30068 10.921 8.33344 10.8991C8.3662 10.8772 8.3965 10.8524 8.42436 10.8245C8.45222 10.7967 8.47709 10.7663 8.49898 10.7336C8.52087 10.7008 8.53935 10.6663 8.55443 10.6299C8.5695 10.5935 8.58088 10.5559 8.58857 10.5173C8.59625 10.4787 8.6001 10.4396 8.6001 10.4002L8.6001 5.60024C8.6001 5.56084 8.59626 5.52183 8.58857 5.48319C8.58088 5.44455 8.56951 5.40703 8.55443 5.37063C8.53935 5.33424 8.52087 5.29966 8.49898 5.2669C8.47709 5.23415 8.45222 5.20384 8.42436 5.17598C8.39651 5.14812 8.3662 5.12325 8.33344 5.10136C8.30069 5.07948 8.26611 5.061 8.22971 5.04592C8.19331 5.03084 8.15579 5.01946 8.11715 5.01177C8.07851 5.00408 8.0395 5.00024 8.0001 5.00024C7.9607 5.00024 7.92168 5.00408 7.88304 5.01177C7.8444 5.01946 7.80688 5.03084 7.77048 5.04592C7.73409 5.061 7.69951 5.07948 7.66675 5.10136C7.634 5.12325 7.60369 5.14812 7.57583 5.17598C7.54798 5.20384 7.52311 5.23414 7.50122 5.2669C7.47933 5.29965 7.46085 5.33423 7.44577 5.37063C7.43069 5.40703 7.41931 5.44455 7.41163 5.48319Z"   fill="#656A85" ></path><path d="M7.8826 10.9883C7.92124 10.996 7.96026 10.9998 7.99966 10.9998L15.9997 10.9998C16.0391 10.9998 16.0781 10.996 16.1167 10.9883C16.1554 10.9806 16.1929 10.9692 16.2293 10.9541C16.2657 10.9391 16.3003 10.9206 16.333 10.8987C16.3658 10.8768 16.3961 10.8519 16.4239 10.8241C16.4518 10.7962 16.4767 10.7659 16.4985 10.7331C16.5204 10.7004 16.5389 10.6658 16.554 10.6294C16.5691 10.593 16.5805 10.5555 16.5881 10.5169C16.5958 10.4782 16.5997 10.4392 16.5997 10.3998C16.5997 10.3604 16.5958 10.3214 16.5881 10.2828C16.5805 10.2441 16.5691 10.2066 16.554 10.1702C16.5389 10.1338 16.5204 10.0992 16.4985 10.0665C16.4767 10.0337 16.4518 10.0034 16.4239 9.97554C16.3961 9.94768 16.3658 9.92281 16.333 9.90092C16.3003 9.87904 16.2657 9.86055 16.2293 9.84548C16.1929 9.8304 16.1554 9.81902 16.1167 9.81133C16.0781 9.80365 16.0391 9.7998 15.9997 9.7998L7.99966 9.7998C7.96026 9.7998 7.92124 9.80365 7.8826 9.81133C7.84396 9.81902 7.80644 9.8304 7.77004 9.84548C7.73365 9.86056 7.69907 9.87904 7.66631 9.90092C7.63356 9.92281 7.60325 9.94768 7.57539 9.97554C7.54754 10.0034 7.52267 10.0337 7.50078 10.0665C7.47889 10.0992 7.46041 10.1338 7.44533 10.1702C7.43025 10.2066 7.41887 10.2441 7.41119 10.2827C7.4035 10.3214 7.39966 10.3604 7.39966 10.3998C7.39966 10.4392 7.4035 10.4782 7.41119 10.5169C7.41887 10.5555 7.43025 10.593 7.44533 10.6294C7.46041 10.6658 7.47889 10.7004 7.50078 10.7331C7.52267 10.7659 7.54754 10.7962 7.57539 10.8241C7.60325 10.8519 7.63355 10.8768 7.66631 10.8987C7.69907 10.9206 7.73364 10.9391 7.77004 10.9541C7.80644 10.9692 7.84396 10.9806 7.8826 10.9883Z"   fill="#656A85" ></path><path d="M16.5884 10.5173C16.5961 10.4787 16.5999 10.4396 16.5999 10.4002L16.5999 5.60024C16.5999 5.56085 16.5961 5.52183 16.5884 5.48319C16.5807 5.44455 16.5693 5.40703 16.5542 5.37064C16.5392 5.33424 16.5207 5.29966 16.4988 5.2669C16.4769 5.23414 16.452 5.20384 16.4242 5.17598C16.3963 5.14812 16.366 5.12325 16.3332 5.10136C16.3005 5.07948 16.2659 5.06099 16.2295 5.04592C16.1931 5.03084 16.1556 5.01946 16.117 5.01177C16.0783 5.00409 16.0393 5.00024 15.9999 5.00024C15.9605 5.00024 15.9215 5.00409 15.8828 5.01177C15.8442 5.01946 15.8067 5.03084 15.7703 5.04592C15.7339 5.06099 15.6993 5.07948 15.6666 5.10136C15.6338 5.12325 15.6035 5.14812 15.5756 5.17598C15.5478 5.20384 15.5229 5.23414 15.501 5.2669C15.4791 5.29966 15.4607 5.33424 15.4456 5.37064C15.4305 5.40703 15.4191 5.44455 15.4114 5.48319C15.4037 5.52183 15.3999 5.56085 15.3999 5.60024L15.3999 10.4002C15.3999 10.4396 15.4037 10.4787 15.4114 10.5173C15.4191 10.5559 15.4305 10.5935 15.4456 10.6299C15.4607 10.6663 15.4791 10.7008 15.501 10.7336C15.5229 10.7663 15.5478 10.7967 15.5756 10.8245C15.6035 10.8524 15.6338 10.8772 15.6666 10.8991C15.6993 10.921 15.7339 10.9395 15.7703 10.9546C15.8067 10.9697 15.8442 10.981 15.8828 10.9887C15.9215 10.9964 15.9605 11.0002 15.9999 11.0002C16.0393 11.0002 16.0783 10.9964 16.117 10.9887C16.1556 10.981 16.1931 10.9697 16.2295 10.9546C16.2659 10.9395 16.3005 10.921 16.3332 10.8991C16.366 10.8772 16.3963 10.8524 16.4242 10.8245C16.452 10.7967 16.4769 10.7663 16.4988 10.7336C16.5207 10.7008 16.5392 10.6663 16.5542 10.6299C16.5693 10.5935 16.5807 10.5559 16.5884 10.5173Z"   fill="#656A85" ></path><path d="M14.1882 8.49948C14.1959 8.46084 14.1998 8.42182 14.1998 8.38242L14.1998 7.60381C14.1998 7.56442 14.1959 7.5254 14.1882 7.48676C14.1805 7.44812 14.1692 7.4106 14.1541 7.37421C14.139 7.33781 14.1205 7.30323 14.0986 7.27047C14.0767 7.23771 14.0519 7.20741 14.024 7.17955C13.9962 7.15169 13.9659 7.12682 13.9331 7.10493C13.9003 7.08305 13.8658 7.06456 13.8294 7.04949C13.793 7.03441 13.7554 7.02303 13.7168 7.01534C13.6782 7.00766 13.6392 7.00381 13.5998 7.00381C13.5604 7.00381 13.5213 7.00766 13.4827 7.01534C13.4441 7.02303 13.4065 7.03441 13.3701 7.04949C13.3337 7.06456 13.2992 7.08305 13.2664 7.10493C13.2337 7.12682 13.2033 7.15169 13.1755 7.17955C13.1476 7.20741 13.1228 7.23771 13.1009 7.27047C13.079 7.30323 13.0605 7.33781 13.0454 7.37421C13.0304 7.4106 13.019 7.44812 13.0113 7.48676C13.0036 7.5254 12.9998 7.56442 12.9998 7.60381L12.9998 8.38242C12.9998 8.42182 13.0036 8.46084 13.0113 8.49948C13.019 8.53812 13.0303 8.57564 13.0454 8.61204C13.0605 8.64843 13.079 8.68301 13.1009 8.71577C13.1228 8.74852 13.1476 8.77883 13.1755 8.80669C13.2033 8.83454 13.2337 8.85941 13.2664 8.8813C13.2992 8.90319 13.3337 8.92167 13.3701 8.93675C13.4065 8.95183 13.4441 8.96321 13.4827 8.97089C13.5213 8.97858 13.5604 8.98242 13.5998 8.98242C13.6392 8.98242 13.6782 8.97858 13.7168 8.97089C13.7555 8.96321 13.793 8.95183 13.8294 8.93675C13.8658 8.92167 13.9003 8.90319 13.9331 8.8813C13.9659 8.85941 13.9962 8.83454 14.024 8.80669C14.0519 8.77883 14.0767 8.74853 14.0986 8.71577C14.1205 8.68301 14.139 8.64844 14.1541 8.61204C14.1692 8.57564 14.1805 8.53812 14.1882 8.49948Z"   fill="#656A85" ></path><path d="M5.00024 18.4002L5.00024 5.60024C5.00024 5.56085 5.00409 5.52183 5.01177 5.48319C5.01946 5.44455 5.03084 5.40703 5.04592 5.37063C5.06099 5.33424 5.07947 5.29966 5.10136 5.2669C5.12325 5.23415 5.14812 5.20384 5.17598 5.17598C5.20384 5.14812 5.23415 5.12325 5.2669 5.10136C5.29966 5.07947 5.33424 5.06099 5.37063 5.04592C5.40703 5.03084 5.44455 5.01946 5.48319 5.01177C5.52183 5.00409 5.56085 5.00024 5.60024 5.00024L18.4002 5.00024C18.4397 5.00024 18.4787 5.00409 18.5173 5.01177C18.556 5.01946 18.5935 5.03084 18.6298 5.04592C18.6663 5.06099 18.7009 5.07947 18.7336 5.10136C18.7663 5.12325 18.7966 5.14812 18.8245 5.17598C18.8524 5.20384 18.8773 5.23415 18.8991 5.2669C18.921 5.29966 18.9395 5.33424 18.9546 5.37063C18.9697 5.40703 18.981 5.44455 18.9887 5.48319C18.9964 5.52183 19.0002 5.56085 19.0002 5.60024L19.0002 18.4002C19.0002 18.4397 18.9964 18.4787 18.9887 18.5173C18.981 18.556 18.9697 18.5935 18.9546 18.6298C18.9395 18.6663 18.921 18.7009 18.8991 18.7336C18.8773 18.7663 18.8524 18.7966 18.8245 18.8245C18.7966 18.8524 18.7663 18.8773 18.7336 18.8991C18.7009 18.921 18.6663 18.9395 18.6298 18.9546C18.5935 18.9697 18.556 18.981 18.5173 18.9887C18.4787 18.9964 18.4397 19.0002 18.4002 19.0002L5.60024 19.0002C5.56085 19.0002 5.52183 18.9964 5.48319 18.9887C5.44455 18.981 5.40703 18.9697 5.37063 18.9546C5.33424 18.9395 5.29966 18.921 5.2669 18.8991C5.23415 18.8773 5.20384 18.8524 5.17598 18.8245C5.14812 18.7966 5.12325 18.7663 5.10136 18.7336C5.07947 18.7009 5.06099 18.6663 5.04592 18.6298C5.03084 18.5935 5.01946 18.556 5.01177 18.5173C5.00409 18.4787 5.00024 18.4397 5.00024 18.4002ZM17.8002 6.20024L6.20024 6.20024L6.20024 17.8002L17.8002 17.8002L17.8002 6.20024Z" fill-rule="evenodd"  fill="#656A85" ></path></svg>