<svg xmlns="http://www.w3.org/2000/svg" xmlns:xlink="http://www.w3.org/1999/xlink" width="30" height="30" viewBox="0 0 30 30" fill="none">
  <path d="M10 6.25C9.58579 6.25 9.25 6.58579 9.25 7L9.25 13C9.25 13.4142 9.58579 13.75 10 13.75C10.4142 13.75 10.75 13.4142 10.75 13L10.75 7C10.75 6.58579 10.4142 6.25 10 6.25Z" fill-rule="evenodd"  fill="#FFFFFF" >
  </path>
  <path d="M9.25 13C9.25 13.4142 9.58579 13.75 10 13.75L20 13.75C20.4142 13.75 20.75 13.4142 20.75 13C20.75 12.5858 20.4142 12.25 20 12.25L10 12.25C9.58579 12.25 9.25 12.5858 9.25 13Z" fill-rule="evenodd"  fill="#FFFFFF" >
  </path>
  <path d="M20 13.75C20.4142 13.75 20.75 13.4142 20.75 13L20.75 7C20.75 6.58579 20.4142 6.25 20 6.25C19.5858 6.25 19.25 6.58579 19.25 7L19.25 13C19.25 13.4142 19.5858 13.75 20 13.75Z" fill-rule="evenodd"  fill="#FFFFFF" >
  </path>
  <path d="M17 11.228C17.4142 11.228 17.75 10.8922 17.75 10.478L17.75 9.50477C17.75 9.09056 17.4142 8.75477 17 8.75477C16.5858 8.75477 16.25 9.09056 16.25 9.50477L16.25 10.478C16.25 10.8922 16.5858 11.228 17 11.228Z" fill-rule="evenodd"  fill="#FFFFFF" >
  </path>
  <path d="M6.25 7L6.25 23C6.25 23.4142 6.58579 23.75 7 23.75L23 23.75C23.4142 23.75 23.75 23.4142 23.75 23L23.75 7C23.75 6.58579 23.4142 6.25 23 6.25L7 6.25C6.58579 6.25 6.25 6.58579 6.25 7ZM7.75 22.25L7.75 7.75L22.25 7.75L22.25 22.25L7.75 22.25Z" fill-rule="evenodd"  fill="#FFFFFF" >
  </path>
  </svg>
  