<svg xmlns="http://www.w3.org/2000/svg" xmlns:xlink="http://www.w3.org/1999/xlink" width="24" height="24" viewBox="0 0 24 24" fill="none"><g opacity="1"  transform="translate(0 0)  rotate(0)"><mask id="bg-mask-0" fill="white"><use xlink:href="#path_0"></use></mask><g mask="url(#bg-mask-0)" ><path  id="圆形 2" style="fill:#495AD4; opacity:1;" d="M15.6309,5.16914c0.68267,0.68271 1.21143,1.46659 1.5863,2.35163c0.38853,0.91729 0.5828,1.87703 0.5828,2.87923c0,1.0022 -0.19427,1.96193 -0.5828,2.8792c-0.37487,0.88507 -0.90363,1.66897 -1.5863,2.3517c-0.68273,0.68267 -1.46663,1.21143 -2.3517,1.5863c-0.91727,0.38853 -1.877,0.5828 -2.8792,0.5828c-1.0022,0 -1.96194,-0.19427 -2.87923,-0.5828c-0.88504,-0.37487 -1.66892,-0.90363 -2.35163,-1.5863c-0.68271,-0.68273 -1.21149,-1.46663 -1.58636,-2.3517c-0.38852,-0.91727 -0.58278,-1.877 -0.58278,-2.8792c0,-1.0022 0.19426,-1.96194 0.58278,-2.87923c0.37487,-0.88505 0.90365,-1.66892 1.58636,-2.35163c0.68271,-0.68271 1.46658,-1.21149 2.35163,-1.58636c0.91729,-0.38852 1.87703,-0.58278 2.87923,-0.58278c1.0022,0 1.96193,0.19426 2.8792,0.58278c0.88507,0.37487 1.66897,0.90365 2.3517,1.58636zM6.58336,6.58336c-0.49907,0.49906 -0.88539,1.07154 -1.15896,1.71744c-0.28293,0.66799 -0.4244,1.36773 -0.4244,2.0992c0,0.73147 0.14147,1.4312 0.4244,2.0992c0.27357,0.64593 0.65989,1.2184 1.15896,1.7174c0.49906,0.49907 1.07154,0.8854 1.71744,1.159c0.668,0.28293 1.36773,0.4244 2.0992,0.4244c0.73147,0 1.4312,-0.14147 2.0992,-0.4244c0.64587,-0.2736 1.21833,-0.65993 1.7174,-1.159c0.49907,-0.49907 0.8854,-1.07153 1.159,-1.7174c0.28293,-0.668 0.4244,-1.36773 0.4244,-2.0992c0,-0.73147 -0.14147,-1.4312 -0.4244,-2.0992c-0.2736,-0.6459 -0.65993,-1.21838 -1.159,-1.71744c-0.499,-0.49907 -1.07147,-0.88539 -1.7174,-1.15896c-0.668,-0.28293 -1.36773,-0.4244 -2.0992,-0.4244c-0.73147,0 -1.4312,0.14147 -2.0992,0.4244c-0.6459,0.27357 -1.21838,0.65989 -1.71744,1.15896z"></path><path  id="直线 1" style="fill:#495AD4; opacity:1;" d="M19.2315,18.6446c0.03647,0.0546 0.06727,0.11223 0.0924,0.1729c0.02513,0.06067 0.0441,0.1232 0.0569,0.1876c0.0128,0.0644 0.0192,0.12943 0.0192,0.1951c0,0.06567 -0.0064,0.1307 -0.0192,0.1951c-0.0128,0.0644 -0.03177,0.12693 -0.0569,0.1876c-0.02513,0.06067 -0.05593,0.1183 -0.0924,0.1729c-0.03653,0.0546 -0.078,0.1051 -0.1244,0.1515c-0.04647,0.04647 -0.09697,0.08793 -0.1515,0.1244c-0.0546,0.03647 -0.11223,0.06727 -0.1729,0.0924c-0.06067,0.02513 -0.1232,0.0441 -0.1876,0.0569c-0.0644,0.0128 -0.12943,0.0192 -0.1951,0.0192c-0.06567,0 -0.1307,-0.0064 -0.1951,-0.0192c-0.0644,-0.0128 -0.12693,-0.03177 -0.1876,-0.0569c-0.06067,-0.02513 -0.1183,-0.05593 -0.1729,-0.0924c-0.0546,-0.03653 -0.1051,-0.078 -0.1515,-0.1244l-3.6,-3.6001c-0.04647,-0.0464 -0.08793,-0.0969 -0.1244,-0.1515c-0.03647,-0.0546 -0.06727,-0.11223 -0.0924,-0.1729c-0.02513,-0.06067 -0.0441,-0.1232 -0.0569,-0.1876c-0.0128,-0.0644 -0.0192,-0.12943 -0.0192,-0.1951c0,-0.06567 0.0064,-0.1307 0.0192,-0.1951c0.0128,-0.0644 0.03177,-0.12693 0.0569,-0.1876c0.02513,-0.06067 0.05593,-0.1183 0.0924,-0.1729c0.03647,-0.0546 0.07793,-0.1051 0.1244,-0.1515c0.0464,-0.04647 0.0969,-0.08793 0.1515,-0.1244c0.0546,-0.03647 0.11223,-0.06727 0.1729,-0.0924c0.06067,-0.02513 0.1232,-0.0441 0.1876,-0.0569c0.0644,-0.0128 0.12943,-0.0192 0.1951,-0.0192c0.06567,0 0.1307,0.0064 0.1951,0.0192c0.0644,0.0128 0.12693,0.03177 0.1876,0.0569c0.06067,0.02513 0.1183,0.05593 0.1729,0.0924c0.0546,0.03653 0.1051,0.078 0.1515,0.1244l3.6,3.6001c0.04647,0.0464 0.08793,0.0969 0.1244,0.1515z"></path></g></g><defs><rect id="path_0" x="0" y="0" width="24" height="24" /></defs></svg>