<svg xmlns="http://www.w3.org/2000/svg" xmlns:xlink="http://www.w3.org/1999/xlink" width="17.505126953125"
  height="17.49993896484375" viewBox="0 0 17.505126953125 17.49993896484375" fill="none">
  <g opacity="1" transform="translate(0.0025634765625 0)  rotate(0)">
    <path id="路径 1 (轮廓)" fill-rule="evenodd" style="fill:#131926" opacity="1"
      d="M9.09,9.42c-0.06,0.03 -0.11,0.05 -0.17,0.06c-0.05,0.01 -0.11,0.02 -0.17,0.02c-0.06,0 -0.12,-0.01 -0.17,-0.02c-0.06,-0.01 -0.11,-0.03 -0.17,-0.06l-8,-4c-0.07,-0.04 -0.13,-0.08 -0.19,-0.14c-0.06,-0.06 -0.1,-0.12 -0.14,-0.19c-0.05,-0.09 -0.07,-0.19 -0.08,-0.29c-0.01,-0.1 0.01,-0.19 0.04,-0.29c0.03,-0.09 0.08,-0.18 0.14,-0.25c0.07,-0.08 0.15,-0.14 0.23,-0.18l8,-4c0.06,-0.03 0.11,-0.05 0.17,-0.06c0.05,-0.01 0.11,-0.02 0.17,-0.02c0.06,0 0.12,0.01 0.17,0.02c0.06,0.01 0.11,0.03 0.17,0.06l8,4c0.07,0.04 0.13,0.08 0.19,0.14c0.06,0.06 0.1,0.12 0.14,0.19c0.05,0.09 0.07,0.19 0.08,0.29c0.01,0.1 -0.01,0.19 -0.04,0.29c-0.03,0.09 -0.08,0.18 -0.14,0.25c-0.07,0.08 -0.15,0.14 -0.23,0.18zM2.43,4.75l6.32,3.16l6.32,-3.16l-6.32,-3.16z">
    </path>
    <path id="路径 1 (轮廓)" fill-rule="evenodd" style="fill:#495AD4" opacity="1"
      d="M16.99 8.03994C16.89 8.00994 16.8 7.98994 16.7 7.99994C16.6 8.00994 16.5 8.02994 16.41 8.07994L8.75 11.9099L1.09 8.07994C1 8.02994 0.9 8.00994 0.8 7.99994C0.7 7.98994 0.61 8.00994 0.51 8.03994C0.42 8.06994 0.33 8.11994 0.26 8.17994C0.18 8.24994 0.12 8.32994 0.08 8.40994C0.03 8.49994 0.01 8.59994 0 8.69994C-0.01 8.79994 0.01 8.88994 0.04 8.98994C0.07 9.07994 0.12 9.16994 0.18 9.23994C0.25 9.31994 0.33 9.37994 0.41 9.41994L8.41 13.4199C8.47 13.4499 8.52 13.4699 8.58 13.4799C8.63 13.4899 8.69 13.4999 8.75 13.4999C8.81 13.4999 8.87 13.4899 8.92 13.4799C8.98 13.4699 9.03 13.4499 9.09 13.4199L17.09 9.41994C17.13 9.39994 17.17 9.36994 17.21 9.33994C17.25 9.30994 17.28 9.27994 17.32 9.23994C17.35 9.19994 17.38 9.15994 17.4 9.11994C17.43 9.07994 17.45 9.02994 17.46 8.98994C17.48 8.93994 17.49 8.88994 17.49 8.83994C17.5 8.78994 17.5 8.74994 17.5 8.69994C17.49 8.64994 17.49 8.59994 17.47 8.54994C17.46 8.49994 17.44 8.45994 17.42 8.40994C17.38 8.32994 17.32 8.24994 17.24 8.17994C17.17 8.11994 17.08 8.06994 16.99 8.03994Z">
    </path>
    <path id="路径 1 (轮廓)" fill-rule="evenodd" style="fill:#131926" opacity="1"
      d="M0.26 12.1799C0.18 12.2499 0.12 12.3299 0.08 12.4099C0.03 12.4999 0.01 12.5999 0 12.6999C-0.01 12.7999 0.01 12.8899 0.04 12.9899C0.07 13.0799 0.12 13.1699 0.18 13.2399C0.25 13.3199 0.33 13.3799 0.41 13.4199L8.41 17.4199C8.47 17.4499 8.52 17.4699 8.58 17.4799C8.63 17.4899 8.69 17.4999 8.75 17.4999C8.81 17.4999 8.87 17.4899 8.92 17.4799C8.98 17.4699 9.03 17.4499 9.09 17.4199L17.09 13.4199C17.13 13.3999 17.17 13.3699 17.21 13.3399C17.25 13.3099 17.28 13.2799 17.32 13.2399C17.35 13.1999 17.38 13.1599 17.4 13.1199C17.43 13.0799 17.45 13.0299 17.46 12.9899C17.48 12.9399 17.49 12.8899 17.49 12.8399C17.5 12.7899 17.5 12.7499 17.5 12.6999C17.49 12.6499 17.49 12.5999 17.47 12.5499C17.46 12.4999 17.44 12.4599 17.42 12.4099C17.38 12.3299 17.32 12.2499 17.24 12.1799C17.17 12.1199 17.08 12.0699 16.99 12.0399C16.89 12.0099 16.8 11.9899 16.7 11.9999C16.6 12.0099 16.5 12.0299 16.41 12.0799L8.75 15.9099L1.09 12.0799C1 12.0299 0.9 12.0099 0.8 11.9999C0.7 11.9899 0.61 12.0099 0.51 12.0399C0.42 12.0699 0.33 12.1199 0.26 12.1799Z">
    </path>
  </g>
</svg>