<svg xmlns="http://www.w3.org/2000/svg" xmlns:xlink="http://www.w3.org/1999/xlink" width="30" height="30"
  viewBox="0 0 30 30" fill="none">
  <path
    d="M6.25 7L6.25 20C6.25 20.4142 6.58579 20.75 7 20.75L23 20.75C23.4142 20.75 23.75 20.4142 23.75 20L23.75 7C23.75 6.58579 23.4142 6.25 23 6.25L7 6.25C6.58579 6.25 6.25 6.58579 6.25 7ZM7.75 19.25L7.75 7.75L22.25 7.75L22.25 19.25L7.75 19.25Z"
    fill-rule="evenodd" fill="#131926">
  </path>
  <path
    d="M6.25 23C6.25 23.4142 6.58579 23.75 7 23.75L23 23.75C23.4142 23.75 23.75 23.4142 23.75 23C23.75 22.5858 23.4142 22.25 23 22.25L7 22.25C6.58579 22.25 6.25 22.5858 6.25 23Z"
    fill-rule="evenodd" fill="#131926">
  </path>
  <path
    d="M10.5 13.5L9 13.5C8.72386 13.5 8.5 13.7239 8.5 14C8.5 14.2761 8.72386 14.5 9 14.5L11 14.5C11.2761 14.5 11.5 14.2761 11.5 14L11.5 11.5L12.5 11.5L12.5 18C12.5 18.2761 12.7239 18.5 13 18.5L15 18.5C15.2761 18.5 15.5 18.2761 15.5 18L15.5 9.5L16.5 9.5L16.5 16C16.5 16.2761 16.7239 16.5 17 16.5L19 16.5C19.2761 16.5 19.5 16.2761 19.5 16L19.5 14.5L21 14.5C21.2761 14.5 21.5 14.2761 21.5 14C21.5 13.7239 21.2761 13.5 21 13.5L19 13.5C18.7239 13.5 18.5 13.7239 18.5 14L18.5 15.5L17.5 15.5L17.5 9C17.5 8.72386 17.2761 8.5 17 8.5L15 8.5C14.7239 8.5 14.5 8.72386 14.5 9L14.5 17.5L13.5 17.5L13.5 11C13.5 10.7239 13.2761 10.5 13 10.5L11 10.5C10.7239 10.5 10.5 10.7239 10.5 11L10.5 13.5Z"
    fill-rule="evenodd" fill="#495AD4">
  </path>
</svg>