<svg xmlns="http://www.w3.org/2000/svg" xmlns:xlink="http://www.w3.org/1999/xlink" width="16" height="16" viewBox="0 0 16 16" fill="none"><g opacity="1"  transform="translate(0 0)  rotate(0)"><mask id="bg-mask-0" fill="white"><use xlink:href="#path_0"></use></mask><g mask="url(#bg-mask-0)" ><path id="圆形 1 (轮廓)" fill-rule="evenodd" style="fill:#656A85" opacity="1" d="M8.00005 3.59999C8.60005 3.59999 9.17005 3.71999 9.71005 3.94999C10.24 4.16999 10.7 4.47999 11.11 4.88999C11.52 5.28999 11.83 5.75999 12.05 6.28999C12.28 6.82999 12.4 7.39999 12.4 7.99999C12.4 8.59999 12.28 9.16999 12.05 9.70999C11.83 10.24 11.52 10.7 11.11 11.11C10.7 11.52 10.24 11.83 9.71005 12.05C9.17005 12.28 8.60005 12.4 8.00005 12.4C7.40005 12.4 6.83005 12.28 6.29005 12.05C5.76005 11.83 5.29005 11.52 4.89005 11.11C4.48005 10.7 4.17005 10.24 3.95005 9.70999C3.72005 9.16999 3.60005 8.59999 3.60005 7.99999C3.60005 7.39999 3.72005 6.82999 3.95005 6.28999C4.17005 5.75999 4.48005 5.29999 4.89005 4.88999L4.61005 4.60999L4.89005 4.88999C4.91005 4.86999 4.92005 4.84999 4.94005 4.82999C4.95005 4.80999 4.97005 4.77999 4.98005 4.75999C4.99005 4.72999 4.99005 4.70999 5.00005 4.67999C5.00005 4.65999 5.01005 4.62999 5.01005 4.60999C5.01005 4.57999 5.00005 4.54999 5.00005 4.52999C4.99005 4.49999 4.99005 4.47999 4.98005 4.44999C4.97005 4.42999 4.95005 4.40999 4.94005 4.37999C4.92005 4.35999 4.91005 4.33999 4.89005 4.31999C4.87005 4.29999 4.85005 4.28999 4.83005 4.26999C4.81005 4.25999 4.78005 4.24999 4.76005 4.23999C4.73005 4.22999 4.71005 4.21999 4.68005 4.20999C4.66005 4.20999 4.63005 4.20999 4.61005 4.20999C4.58005 4.20999 4.55005 4.20999 4.53005 4.20999C4.50005 4.21999 4.48005 4.22999 4.45005 4.23999C4.43005 4.24999 4.41005 4.25999 4.38005 4.26999C4.36005 4.28999 4.34005 4.29999 4.32005 4.31999L4.33005 4.32999C3.85005 4.79999 3.47005 5.34999 3.21005 5.96999C2.94005 6.61999 2.80005 7.28999 2.80005 7.99999C2.80005 8.70999 2.94005 9.37999 3.21005 10.02C3.47005 10.65 3.84005 11.2 4.32005 11.68C4.80005 12.16 5.35005 12.53 5.98005 12.79C6.62005 13.06 7.29005 13.2 8.00005 13.2C8.71005 13.2 9.38005 13.06 10.02 12.79C10.65 12.53 11.2 12.16 11.68 11.68C12.16 11.2 12.53 10.65 12.79 10.02C13.06 9.37999 13.2 8.70999 13.2 7.99999C13.2 7.28999 13.06 6.61999 12.79 5.97999C12.53 5.34999 12.16 4.79999 11.68 4.31999C11.2 3.83999 10.65 3.46999 10.02 3.20999C9.38005 2.93999 8.71005 2.79999 8.00005 2.79999C7.97005 2.79999 7.95005 2.79999 7.92005 2.80999C7.90005 2.80999 7.87005 2.81999 7.85005 2.82999C7.82005 2.83999 7.80005 2.84999 7.78005 2.86999C7.76005 2.87999 7.74005 2.89999 7.72005 2.91999C7.70005 2.93999 7.68005 2.95999 7.67005 2.97999C7.65005 2.99999 7.64005 3.01999 7.63005 3.04999C7.62005 3.06999 7.61005 3.09999 7.61005 3.11999C7.60005 3.14999 7.60005 3.16999 7.60005 3.19999C7.60005 3.22999 7.60005 3.24999 7.61005 3.27999C7.61005 3.29999 7.62005 3.32999 7.63005 3.34999C7.64005 3.37999 7.65005 3.39999 7.67005 3.41999C7.68005 3.43999 7.70005 3.45999 7.72005 3.47999C7.74005 3.49999 7.76005 3.51999 7.78005 3.52999C7.80005 3.54999 7.82005 3.55999 7.85005 3.56999C7.87005 3.57999 7.90005 3.58999 7.92005 3.58999C7.95005 3.59999 7.97005 3.59999 8.00005 3.59999Z"></path><path id="三角形 1 (轮廓)" fill-rule="evenodd" style="fill:#656A85" opacity="1" d="M6.45005,5.71999c0.02,-0.02 0.03,-0.04 0.05,-0.06c0.02,-0.02 0.04,-0.04 0.06,-0.06c0.02,-0.01 0.04,-0.03 0.06,-0.04c0.03,-0.01 0.05,-0.02 0.08,-0.03c0.02,0 0.05,-0.01 0.07,-0.01c0.03,0 0.06,0 0.08,0c0.03,0.01 0.05,0.01 0.08,0.02c0.02,0.01 0.05,0.02 0.07,0.03l3.59995,2.08c0.06,0.04 0.11,0.09 0.15,0.15c0.01,0.02 0.02,0.05 0.03,0.07c0.01,0.03 0.01,0.05 0.02,0.08c0,0.02 0,0.05 0,0.08c0,0.02 -0.01,0.05 -0.01,0.07c-0.01,0.03 -0.02,0.05 -0.03,0.08c-0.01,0.02 -0.03,0.04 -0.04,0.06c-0.02,0.02 -0.04,0.04 -0.06,0.06c-0.02,0.02 -0.04,0.03 -0.06,0.05l-3.59995,2.08001c-0.06,0.03 -0.13,0.05 -0.2,0.05c-0.03,0 -0.05,0 -0.08,-0.01c-0.02,0 -0.05,-0.01 -0.07,-0.02c-0.03,-0.01 -0.05,-0.02 -0.07,-0.04c-0.02,-0.01 -0.04,-0.03 -0.06,-0.05c-0.02,-0.02 -0.04,-0.04 -0.05,-0.06c-0.02,-0.02 -0.03,-0.04 -0.04,-0.07c-0.01,-0.02 -0.02,-0.05 -0.02,-0.07c-0.01,-0.03 -0.01,-0.05 -0.01,-0.08v-4.16001c0,-0.07 0.02,-0.14 0.05,-0.2zM7.20005,9.38999l2.4,-1.39l-2.4,-1.39z"></path></g></g><defs><rect id="path_0" x="0" y="0" width="16" height="16" /></defs></svg>