<svg xmlns="http://www.w3.org/2000/svg" xmlns:xlink="http://www.w3.org/1999/xlink" width="16" height="16" viewBox="0 0 16 16" fill="none"><g opacity="1"  transform="translate(0 0)  rotate(0)"><mask id="bg-mask-0" fill="white"><use xlink:href="#path_0"></use></mask><g mask="url(#bg-mask-0)" ><g opacity="1"  transform="translate(3.333251953125 3.333343505859375)  rotate(0)"><path id="直线 1 (轮廓)" fill-rule="evenodd" style="fill:#656A85" opacity="1" d="M1.60015 0.4L1.60015 3.6C1.60015 3.626 1.60315 3.652 1.60815 3.678C1.61315 3.704 1.62015 3.729 1.63015 3.753C1.64015 3.777 1.65315 3.8 1.66715 3.822C1.68215 3.844 1.69915 3.864 1.71715 3.883C1.73615 3.901 1.75615 3.918 1.77815 3.933C1.80015 3.947 1.82315 3.96 1.84715 3.97C1.87115 3.98 1.89615 3.987 1.92215 3.992C1.94815 3.997 1.97415 4 2.00015 4C2.02615 4 2.05215 3.997 2.07815 3.992C2.10415 3.987 2.12915 3.98 2.15315 3.97C2.17715 3.96 2.20015 3.947 2.22215 3.933C2.24415 3.918 2.26415 3.901 2.28315 3.883C2.30115 3.864 2.31815 3.844 2.33315 3.822C2.34715 3.8 2.36015 3.777 2.37015 3.753C2.38015 3.729 2.38715 3.704 2.39215 3.678C2.39715 3.652 2.40015 3.626 2.40015 3.6L2.40015 0.4C2.40015 0.374 2.39715 0.348 2.39215 0.322C2.38715 0.296 2.38015 0.271 2.37015 0.247C2.35915 0.223 2.34715 0.2 2.33315 0.178C2.31815 0.156 2.30115 0.136 2.28315 0.117C2.26415 0.099 2.24415 0.082 2.22215 0.067C2.20015 0.053 2.17715 0.041 2.15315 0.03C2.12915 0.02 2.10415 0.013 2.07815 0.008C2.05215 0.003 2.02615 0 2.00015 0C1.97415 0 1.94815 0.003 1.92215 0.008C1.89615 0.013 1.87115 0.02 1.84715 0.03C1.82315 0.041 1.80015 0.053 1.77815 0.067C1.75615 0.082 1.73615 0.099 1.71715 0.117C1.69915 0.136 1.68215 0.156 1.66715 0.178C1.65315 0.2 1.64115 0.223 1.63015 0.247C1.62015 0.271 1.61315 0.296 1.60815 0.322C1.60315 0.348 1.60015 0.374 1.60015 0.4Z"></path><path id="直线 2 (轮廓)" fill-rule="evenodd" style="fill:#656A85" opacity="1" d="M2.0001 3.99998L7.3331 3.99998C7.3601 3.99998 7.3861 3.99698 7.4111 3.99198C7.4371 3.98698 7.4621 3.97998 7.4861 3.96998C7.5111 3.95998 7.5341 3.94698 7.5561 3.93298C7.5771 3.91798 7.5981 3.90098 7.6161 3.88298C7.6351 3.86398 7.6511 3.84398 7.6661 3.82198C7.6801 3.79998 7.6931 3.77698 7.7031 3.75298C7.7131 3.72898 7.7211 3.70398 7.7261 3.67798C7.7311 3.65198 7.7331 3.62598 7.7331 3.59998C7.7331 3.57398 7.7311 3.54798 7.7261 3.52198C7.7211 3.49598 7.7131 3.47098 7.7031 3.44698C7.6931 3.42298 7.6801 3.39998 7.6661 3.37798C7.6511 3.35598 7.6351 3.33598 7.6161 3.31698C7.5981 3.29898 7.5771 3.28198 7.5561 3.26698C7.5341 3.25298 7.5111 3.23998 7.4861 3.22998C7.4621 3.21998 7.4371 3.21298 7.4111 3.20798C7.3861 3.20298 7.3601 3.19998 7.3331 3.19998L2.0001 3.19998C1.9741 3.19998 1.9481 3.20298 1.9221 3.20798C1.8961 3.21298 1.8711 3.21998 1.8471 3.22998C1.8231 3.24098 1.8001 3.25298 1.7781 3.26698C1.7561 3.28198 1.7361 3.29898 1.7171 3.31698C1.6991 3.33598 1.6821 3.35598 1.6671 3.37798C1.6531 3.39998 1.6411 3.42298 1.6301 3.44698C1.6201 3.47098 1.6131 3.49598 1.6081 3.52198C1.6031 3.54798 1.6001 3.57398 1.6001 3.59998C1.6001 3.62598 1.6031 3.65198 1.6081 3.67798C1.6131 3.70398 1.6201 3.72898 1.6301 3.75298C1.6411 3.77698 1.6531 3.79998 1.6671 3.82198C1.6821 3.84398 1.6991 3.86398 1.7171 3.88298C1.7361 3.90098 1.7561 3.91798 1.7781 3.93298C1.8001 3.94698 1.8231 3.95898 1.8471 3.96998C1.8711 3.97998 1.8961 3.98698 1.9221 3.99198C1.9481 3.99698 1.9741 3.99998 2.0001 3.99998Z"></path><path id="直线 3 (轮廓)" fill-rule="evenodd" style="fill:#656A85" opacity="1" d="M7.73335 3.6L7.73335 0.4C7.73335 0.374 7.73035 0.348 7.72535 0.322C7.72035 0.296 7.71335 0.271 7.70335 0.247C7.69335 0.223 7.68035 0.2 7.66635 0.178C7.65135 0.156 7.63435 0.136 7.61635 0.117C7.59735 0.099 7.57735 0.082 7.55535 0.0669999C7.53335 0.053 7.51035 0.04 7.48635 0.03C7.46235 0.02 7.43735 0.013 7.41135 0.0079999C7.38535 0.00300002 7.35935 0 7.33335 0C7.30735 0 7.28135 0.00300002 7.25535 0.0079999C7.22935 0.013 7.20435 0.02 7.18035 0.03C7.15635 0.04 7.13335 0.053 7.11135 0.0669999C7.08935 0.082 7.06935 0.099 7.05035 0.117C7.03235 0.136 7.01535 0.156 7.00035 0.178C6.98635 0.2 6.97335 0.223 6.96335 0.247C6.95335 0.271 6.94635 0.296 6.94135 0.322C6.93635 0.348 6.93335 0.374 6.93335 0.4L6.93335 3.6C6.93335 3.626 6.93635 3.652 6.94135 3.678C6.94635 3.704 6.95335 3.729 6.96335 3.753C6.97435 3.777 6.98635 3.8 7.00035 3.822C7.01535 3.844 7.03235 3.864 7.05035 3.883C7.06935 3.901 7.08935 3.918 7.11135 3.933C7.13335 3.947 7.15635 3.959 7.18035 3.97C7.20435 3.98 7.22935 3.987 7.25535 3.992C7.28135 3.997 7.30735 4 7.33335 4C7.35935 4 7.38535 3.997 7.41135 3.992C7.43735 3.987 7.46235 3.98 7.48635 3.97C7.51035 3.959 7.53335 3.947 7.55535 3.933C7.57735 3.918 7.59735 3.901 7.61635 3.883C7.63435 3.864 7.65135 3.844 7.66635 3.822C7.68035 3.8 7.69235 3.777 7.70335 3.753C7.71335 3.729 7.72035 3.704 7.72535 3.678C7.73035 3.652 7.73335 3.626 7.73335 3.6Z"></path><path id="直线 4 (轮廓)" fill-rule="evenodd" style="fill:#656A85" opacity="1" d="M6.1335 2.25494L6.1335 1.73594C6.1335 1.70994 6.1305 1.68394 6.1255 1.65794C6.1205 1.63194 6.1135 1.60694 6.1035 1.58294C6.0935 1.55894 6.0805 1.53594 6.0665 1.51394C6.0515 1.49194 6.0345 1.47194 6.0165 1.45294C5.9975 1.43494 5.9775 1.41794 5.9555 1.40294C5.9335 1.38894 5.9105 1.37594 5.8865 1.36594C5.8625 1.35594 5.8375 1.34894 5.8115 1.34394C5.7855 1.33794 5.7595 1.33594 5.7335 1.33594C5.7075 1.33594 5.6815 1.33794 5.6555 1.34394C5.6295 1.34894 5.6045 1.35594 5.5805 1.36594C5.5565 1.37594 5.5335 1.38894 5.5115 1.40294C5.4895 1.41794 5.4695 1.43494 5.4505 1.45294C5.4325 1.47194 5.4155 1.49194 5.4005 1.51394C5.3865 1.53594 5.3735 1.55894 5.3635 1.58294C5.3535 1.60694 5.3465 1.63194 5.3415 1.65794C5.3365 1.68394 5.3335 1.70994 5.3335 1.73594L5.3335 2.25494C5.3335 2.28094 5.3365 2.30694 5.3415 2.33294C5.3465 2.35894 5.3535 2.38394 5.3635 2.40794C5.3745 2.43194 5.3865 2.45494 5.4005 2.47694C5.4155 2.49894 5.4325 2.51894 5.4505 2.53794C5.4695 2.55594 5.4895 2.57294 5.5115 2.58794C5.5335 2.60194 5.5565 2.61394 5.5805 2.62494C5.6045 2.63494 5.6295 2.64194 5.6555 2.64694C5.6815 2.65194 5.7075 2.65494 5.7335 2.65494C5.7595 2.65494 5.7855 2.65194 5.8115 2.64694C5.8375 2.64194 5.8625 2.63494 5.8865 2.62494C5.9105 2.61394 5.9335 2.60194 5.9555 2.58794C5.9775 2.57294 5.9975 2.55594 6.0165 2.53794C6.0345 2.51894 6.0515 2.49894 6.0665 2.47694C6.0805 2.45494 6.0925 2.43194 6.1035 2.40794C6.1135 2.38394 6.1205 2.35894 6.1255 2.33294C6.1305 2.30694 6.1335 2.28094 6.1335 2.25494Z"></path><path id="矩形 2 (轮廓)" fill-rule="evenodd" style="fill:#656A85" opacity="1" d="M0,8.93v-8.53c0,-0.03 0,-0.05 0.01,-0.08c0,-0.02 0.01,-0.05 0.02,-0.07c0.01,-0.03 0.02,-0.05 0.04,-0.07c0.01,-0.02 0.03,-0.04 0.05,-0.06c0.02,-0.02 0.04,-0.04 0.06,-0.05c0.02,-0.02 0.04,-0.03 0.07,-0.04c0.02,-0.01 0.05,-0.02 0.07,-0.02c0.03,-0.01 0.05,-0.01 0.08,-0.01h8.53c0.03,0 0.06,0 0.08,0.01c0.03,0 0.05,0.01 0.08,0.02c0.02,0.01 0.04,0.02 0.07,0.04c0.02,0.01 0.04,0.03 0.06,0.05c0.01,0.02 0.03,0.04 0.05,0.06c0.01,0.02 0.02,0.04 0.03,0.07c0.01,0.02 0.02,0.05 0.03,0.07c0,0.03 0,0.05 0,0.08v8.53c0,0.03 0,0.06 0,0.08c-0.01,0.03 -0.02,0.05 -0.03,0.08c-0.01,0.02 -0.02,0.04 -0.03,0.07c-0.02,0.02 -0.04,0.04 -0.05,0.06c-0.02,0.01 -0.04,0.03 -0.06,0.05c-0.03,0.01 -0.05,0.02 -0.07,0.03c-0.03,0.01 -0.05,0.02 -0.08,0.03c-0.02,0 -0.05,0 -0.08,0h-8.53c-0.03,0 -0.05,0 -0.08,0c-0.02,-0.01 -0.05,-0.02 -0.07,-0.03c-0.03,-0.01 -0.05,-0.02 -0.07,-0.03c-0.02,-0.02 -0.04,-0.04 -0.06,-0.05c-0.02,-0.02 -0.04,-0.04 -0.05,-0.06c-0.02,-0.03 -0.03,-0.05 -0.04,-0.07c-0.01,-0.03 -0.02,-0.05 -0.02,-0.08c-0.01,-0.02 -0.01,-0.05 -0.01,-0.08zM0.8,0.8v7.73h7.73v-7.73z"></path></g></g></g><defs><rect id="path_0" x="0" y="0" width="16" height="16" /></defs></svg>