<svg xmlns="http://www.w3.org/2000/svg" xmlns:xlink="http://www.w3.org/1999/xlink" width="16" height="16" viewBox="0 0 16 16" fill="none"><g opacity="1"  transform="translate(0 0)  rotate(0)"><mask id="bg-mask-0" fill="white"><use xlink:href="#path_0"></use></mask><g mask="url(#bg-mask-0)" ><path id="直线 1 (轮廓)" fill-rule="evenodd" style="fill:#656A85" opacity="1" d="M3.73325 5.73332L12.2663 5.73332C12.2933 5.73332 12.3193 5.73032 12.3443 5.72532C12.3703 5.72032 12.3953 5.71332 12.4193 5.70332C12.4443 5.69332 12.4673 5.68032 12.4893 5.66632C12.5103 5.65132 12.5313 5.63432 12.5493 5.61632C12.5683 5.59732 12.5843 5.57732 12.5993 5.55532C12.6133 5.53332 12.6263 5.51032 12.6363 5.48632C12.6463 5.46232 12.6543 5.43732 12.6593 5.41132C12.6643 5.38532 12.6663 5.35932 12.6663 5.33332C12.6663 5.30732 12.6643 5.28132 12.6593 5.25532C12.6543 5.22932 12.6463 5.20432 12.6363 5.18032C12.6263 5.15632 12.6133 5.13332 12.5993 5.11132C12.5843 5.08932 12.5683 5.06932 12.5493 5.05032C12.5313 5.03232 12.5103 5.01532 12.4893 5.00032C12.4673 4.98632 12.4443 4.97332 12.4193 4.96332C12.3953 4.95332 12.3703 4.94632 12.3443 4.94132C12.3193 4.93632 12.2933 4.93332 12.2663 4.93332L3.73325 4.93332C3.70725 4.93332 3.68125 4.93632 3.65525 4.94132C3.62925 4.94632 3.60425 4.95332 3.58025 4.96332C3.55625 4.97432 3.53325 4.98632 3.51125 5.00032C3.48925 5.01532 3.46925 5.03232 3.45025 5.05032C3.43225 5.06932 3.41525 5.08932 3.40025 5.11132C3.38625 5.13332 3.37425 5.15632 3.36325 5.18032C3.35325 5.20432 3.34625 5.22932 3.34125 5.25532C3.33625 5.28132 3.33325 5.30732 3.33325 5.33332C3.33325 5.35932 3.33625 5.38532 3.34125 5.41132C3.34625 5.43732 3.35325 5.46232 3.36325 5.48632C3.37425 5.51032 3.38625 5.53332 3.40025 5.55532C3.41525 5.57732 3.43225 5.59732 3.45025 5.61632C3.46925 5.63432 3.48925 5.65132 3.51125 5.66632C3.53325 5.68032 3.55625 5.69232 3.58025 5.70332C3.60425 5.71332 3.62925 5.72032 3.65525 5.72532C3.68125 5.73032 3.70725 5.73332 3.73325 5.73332Z"></path><path id="矩形 2 (轮廓)" fill-rule="evenodd" style="fill:#656A85" opacity="1" d="M9.2 5.33334C9.2 5.36334 9.2 5.38334 9.21 5.41334C9.21 5.43334 9.22 5.46334 9.23 5.48334C9.24 5.51334 9.25 5.53334 9.27 5.55334C9.28 5.57334 9.3 5.59334 9.32 5.61334C9.34 5.63334 9.36 5.65334 9.38 5.66334C9.4 5.68334 9.42 5.69334 9.45 5.70334C9.47 5.71334 9.5 5.72334 9.52 5.72334C9.55 5.73334 9.57 5.73334 9.6 5.73334C9.63 5.73334 9.65 5.73334 9.68 5.72334C9.7 5.72334 9.73 5.71334 9.75 5.70334C9.78 5.69334 9.8 5.68334 9.82 5.66334C9.84 5.65334 9.86 5.63334 9.88 5.61334C9.9 5.59334 9.92 5.57334 9.93 5.55334C9.95 5.53334 9.96 5.51334 9.97 5.48334C9.98 5.46334 9.99 5.43334 9.99 5.41334C10 5.38334 10 5.36334 10 5.33334L10 3.73334C10 3.70334 10 3.68334 9.99 3.65334C9.99 3.63334 9.98 3.60334 9.97 3.58334C9.96 3.55334 9.95 3.53334 9.93 3.51334C9.92 3.49334 9.9 3.47334 9.88 3.45334C9.86 3.43334 9.84 3.41334 9.82 3.40334C9.8 3.38334 9.78 3.37334 9.75 3.36334C9.73 3.35334 9.7 3.34334 9.68 3.34334C9.65 3.33334 9.63 3.33334 9.6 3.33334L6.4 3.33334C6.37 3.33334 6.35 3.33334 6.32 3.34334C6.3 3.34334 6.27 3.35334 6.25 3.36334C6.22 3.37334 6.2 3.38334 6.18 3.40334C6.16 3.41334 6.14 3.43334 6.12 3.45334C6.1 3.47334 6.08 3.49334 6.07 3.51334C6.05 3.53334 6.04 3.55334 6.03 3.58334C6.02 3.60334 6.01 3.63334 6.01 3.65334C6 3.68334 6 3.70334 6 3.73334L6 5.33334C6 5.36334 6 5.38334 6.01 5.41334C6.01 5.43334 6.02 5.46334 6.03 5.48334C6.04 5.51334 6.05 5.53334 6.07 5.55334C6.08 5.57334 6.1 5.59334 6.12 5.61334C6.14 5.63334 6.16 5.65334 6.18 5.66334C6.2 5.68334 6.22 5.69334 6.25 5.70334C6.27 5.71334 6.3 5.72334 6.32 5.72334C6.35 5.73334 6.37 5.73334 6.4 5.73334C6.43 5.73334 6.45 5.73334 6.48 5.72334C6.5 5.72334 6.53 5.71334 6.55 5.70334C6.58 5.69334 6.6 5.68334 6.62 5.66334C6.64 5.65334 6.66 5.63334 6.68 5.61334C6.7 5.59334 6.72 5.57334 6.73 5.55334C6.75 5.53334 6.76 5.51334 6.77 5.48334C6.78 5.46334 6.79 5.43334 6.79 5.41334C6.8 5.38334 6.8 5.36334 6.8 5.33334L6.8 4.13334L9.2 4.13334L9.2 5.33334Z"></path><path id="矩形 2 (轮廓)" fill-rule="evenodd" style="fill:#656A85" opacity="1" d="M4.3999 5.33332L4.3999 12.2633C4.3999 12.2933 4.3999 12.3233 4.4099 12.3433C4.4099 12.3733 4.4199 12.3933 4.4299 12.4233C4.4399 12.4433 4.4499 12.4633 4.4699 12.4933C4.4799 12.5133 4.4999 12.5333 4.5199 12.5533C4.5399 12.5633 4.5599 12.5833 4.5799 12.6033C4.5999 12.6133 4.6199 12.6233 4.6499 12.6333C4.6699 12.6433 4.6999 12.6533 4.7199 12.6633C4.7499 12.6633 4.7699 12.6633 4.7999 12.6633L11.1999 12.6633C11.2299 12.6633 11.2499 12.6633 11.2799 12.6633C11.2999 12.6533 11.3299 12.6433 11.3499 12.6333C11.3799 12.6233 11.3999 12.6133 11.4199 12.6033C11.4399 12.5833 11.4599 12.5633 11.4799 12.5533C11.4999 12.5333 11.5199 12.5133 11.5299 12.4933C11.5499 12.4633 11.5599 12.4433 11.5699 12.4233C11.5799 12.3933 11.5899 12.3733 11.5899 12.3433C11.5999 12.3233 11.5999 12.2933 11.5999 12.2633L11.5999 5.33332C11.5999 5.30332 11.5999 5.28332 11.5899 5.25332C11.5899 5.23332 11.5799 5.20332 11.5699 5.18332C11.5599 5.15332 11.5499 5.13332 11.5299 5.11332C11.5199 5.09332 11.4999 5.07332 11.4799 5.05332C11.4599 5.03332 11.4399 5.01332 11.4199 5.00332C11.3999 4.98332 11.3799 4.97332 11.3499 4.96332C11.3299 4.95332 11.2999 4.94332 11.2799 4.94332C11.2499 4.93332 11.2299 4.93332 11.1999 4.93332C11.1699 4.93332 11.1499 4.93332 11.1199 4.94332C11.0999 4.94332 11.0699 4.95332 11.0499 4.96332C11.0199 4.97332 10.9999 4.98332 10.9799 5.00332C10.9599 5.01332 10.9399 5.03332 10.9199 5.05332C10.8999 5.07332 10.8799 5.09332 10.8699 5.11332C10.8499 5.13332 10.8399 5.15332 10.8299 5.18332C10.8199 5.20332 10.8099 5.23332 10.8099 5.25332C10.7999 5.28332 10.7999 5.30332 10.7999 5.33332L10.7999 11.8633L5.1999 11.8633L5.1999 5.33332C5.1999 5.30332 5.1999 5.28332 5.1899 5.25332C5.1899 5.23332 5.1799 5.20332 5.1699 5.18332C5.1599 5.15332 5.1499 5.13332 5.1299 5.11332C5.1199 5.09332 5.0999 5.07332 5.0799 5.05332C5.0599 5.03332 5.0399 5.01332 5.0199 5.00332C4.9999 4.98332 4.9799 4.97332 4.9499 4.96332C4.9299 4.95332 4.8999 4.94332 4.8799 4.94332C4.8499 4.93332 4.8299 4.93332 4.7999 4.93332C4.7699 4.93332 4.7499 4.93332 4.7199 4.94332C4.6999 4.94332 4.6699 4.95332 4.6499 4.96332C4.6199 4.97332 4.5999 4.98332 4.5799 5.00332C4.5599 5.01332 4.5399 5.03332 4.5199 5.05332C4.4999 5.07332 4.4799 5.09332 4.4699 5.11332C4.4499 5.13332 4.4399 5.15332 4.4299 5.18332C4.4199 5.20332 4.4099 5.23332 4.4099 5.25332C4.3999 5.28332 4.3999 5.30332 4.3999 5.33332Z"></path><path id="路径 1 (轮廓)" fill-rule="evenodd" style="fill:#656A85" opacity="1" d="M6.12 7.74668L9.32 10.9467C9.34 10.9667 9.36 10.9867 9.38 10.9967C9.4 11.0167 9.42 11.0267 9.45 11.0367C9.47 11.0467 9.5 11.0567 9.52 11.0567C9.55 11.0667 9.57 11.0667 9.6 11.0667C9.63 11.0667 9.65 11.0667 9.68 11.0567C9.7 11.0567 9.73 11.0467 9.75 11.0367C9.78 11.0267 9.8 11.0167 9.82 10.9967C9.84 10.9867 9.86 10.9667 9.88 10.9467C9.92 10.9167 9.95 10.8667 9.97 10.8167C9.99 10.7667 10 10.7167 10 10.6667C10 10.6167 9.99 10.5667 9.97 10.5167C9.95 10.4667 9.92 10.4167 9.88 10.3867L6.68 7.18668C6.66 7.16668 6.64 7.14668 6.62 7.13668C6.6 7.11668 6.58 7.10668 6.55 7.09668C6.53 7.08668 6.5 7.07668 6.48 7.07668C6.45 7.06668 6.43 7.06668 6.4 7.06668C6.37 7.06668 6.35 7.06668 6.32 7.07668C6.3 7.07668 6.27 7.08668 6.25 7.09668C6.22 7.10668 6.2 7.11668 6.18 7.13668C6.16 7.14668 6.14 7.16668 6.12 7.18668C6.1 7.20668 6.08 7.22668 6.07 7.24668C6.05 7.26668 6.04 7.28668 6.03 7.31668C6.02 7.33668 6.01 7.36668 6.01 7.38668C6 7.41668 6 7.43668 6 7.46668C6 7.49668 6 7.51668 6.01 7.54668C6.01 7.56668 6.02 7.59668 6.03 7.61668C6.04 7.64668 6.05 7.66668 6.07 7.68668C6.08 7.70668 6.1 7.72668 6.12 7.74668Z"></path><path id="路径 2 (轮廓)" fill-rule="evenodd" style="fill:#656A85" opacity="1" d="M9.32 7.18668L6.12 10.3867C6.1 10.4067 6.08 10.4267 6.07 10.4467C6.05 10.4667 6.04 10.4867 6.03 10.5167C6.02 10.5367 6.01 10.5667 6.01 10.5867C6 10.6167 6 10.6367 6 10.6667C6 10.6967 6 10.7167 6.01 10.7467C6.01 10.7667 6.02 10.7967 6.03 10.8167C6.04 10.8467 6.05 10.8667 6.07 10.8867C6.08 10.9067 6.1 10.9267 6.12 10.9467C6.14 10.9667 6.16 10.9867 6.18 10.9967C6.2 11.0167 6.22 11.0267 6.25 11.0367C6.27 11.0467 6.3 11.0567 6.32 11.0567C6.35 11.0667 6.37 11.0667 6.4 11.0667C6.43 11.0667 6.45 11.0667 6.48 11.0567C6.5 11.0567 6.53 11.0467 6.55 11.0367C6.58 11.0267 6.6 11.0167 6.62 10.9967C6.64 10.9867 6.66 10.9667 6.68 10.9467L9.88 7.74668C9.9 7.72668 9.92 7.70668 9.93 7.68668C9.95 7.66668 9.96 7.64668 9.97 7.61668C9.98 7.59668 9.99 7.56668 9.99 7.54668C10 7.51668 10 7.49668 10 7.46668C10 7.43668 10 7.41668 9.99 7.38668C9.99 7.36668 9.98 7.33668 9.97 7.31668C9.96 7.28668 9.95 7.26668 9.93 7.24668C9.92 7.22668 9.9 7.20668 9.88 7.18668C9.86 7.16668 9.84 7.14668 9.82 7.13668C9.8 7.11668 9.78 7.10668 9.75 7.09668C9.73 7.08668 9.7 7.07668 9.68 7.07668C9.65 7.06668 9.63 7.06668 9.6 7.06668C9.57 7.06668 9.55 7.06668 9.52 7.07668C9.5 7.07668 9.47 7.08668 9.45 7.09668C9.42 7.10668 9.4 7.11668 9.38 7.13668C9.36 7.14668 9.34 7.16668 9.32 7.18668Z"></path></g></g><defs><rect id="path_0" x="0" y="0" width="15.999999999999998" height="15.999999999999998" /></defs></svg>