<svg xmlns="http://www.w3.org/2000/svg" xmlns:xlink="http://www.w3.org/1999/xlink" width="16" height="16" viewBox="0 0 16 16" fill="none"><g opacity="1"  transform="translate(0 0)  rotate(0)"><mask id="bg-mask-0" fill="white"><use xlink:href="#path_0"></use></mask><g mask="url(#bg-mask-0)" ><path id="路径 1 (轮廓)" fill-rule="evenodd" style="fill:#656A85" opacity="1" d="M5.58655 6.14667L9.84655 10.4167C9.88655 10.4567 9.92655 10.4867 9.97655 10.5067C10.0266 10.5267 10.0766 10.5367 10.1366 10.5367C10.1866 10.5367 10.2366 10.5267 10.2866 10.5067C10.3366 10.4867 10.3766 10.4567 10.4166 10.4167C10.4566 10.3767 10.4866 10.3367 10.5066 10.2867C10.5266 10.2367 10.5366 10.1867 10.5366 10.1367C10.5366 10.0767 10.5266 10.0267 10.5066 9.97668C10.4866 9.92667 10.4566 9.88667 10.4166 9.84667L6.14655 5.58667C6.12655 5.56667 6.10655 5.54667 6.08655 5.53667C6.06655 5.51667 6.04655 5.50667 6.01655 5.49668C5.99655 5.48667 5.96655 5.47668 5.94655 5.47668C5.91655 5.46667 5.89655 5.46667 5.86655 5.46667C5.83655 5.46667 5.81655 5.46667 5.78655 5.47668C5.76655 5.47668 5.73655 5.48667 5.71655 5.49668C5.68655 5.50667 5.66655 5.51667 5.64655 5.53667C5.62655 5.54667 5.60655 5.56667 5.58655 5.58667C5.56655 5.60667 5.54655 5.62667 5.53655 5.64667C5.51655 5.66667 5.50655 5.68667 5.49655 5.71667C5.48655 5.73667 5.47655 5.76667 5.47655 5.78667C5.46655 5.81667 5.46655 5.83667 5.46655 5.86667C5.46655 5.89667 5.46655 5.91667 5.47655 5.94667C5.47655 5.96667 5.48655 5.99667 5.49655 6.01667C5.50655 6.04667 5.51655 6.06667 5.53655 6.08667C5.54655 6.10667 5.56655 6.12667 5.58655 6.14667Z"></path><path id="路径 2 (轮廓)" fill-rule="evenodd" style="fill:#656A85" opacity="1" d="M9.84655 5.58667L5.58655 9.84667C5.56655 9.86667 5.54655 9.88667 5.53655 9.90668C5.51655 9.93667 5.50655 9.95667 5.49655 9.97668C5.48655 10.0067 5.47655 10.0267 5.47655 10.0567C5.46655 10.0767 5.46655 10.1067 5.46655 10.1367C5.46655 10.1567 5.46655 10.1867 5.47655 10.2067C5.47655 10.2367 5.48655 10.2667 5.49655 10.2867C5.50655 10.3067 5.51655 10.3367 5.53655 10.3567C5.54655 10.3767 5.56655 10.3967 5.58655 10.4167C5.61655 10.4567 5.66655 10.4867 5.71655 10.5067C5.76655 10.5267 5.81655 10.5367 5.86655 10.5367C5.91655 10.5367 5.96655 10.5267 6.01655 10.5067C6.06655 10.4867 6.11655 10.4567 6.14655 10.4167L10.4166 6.14667C10.4366 6.12667 10.4466 6.10667 10.4666 6.08667C10.4766 6.06667 10.4966 6.04667 10.5066 6.01667C10.5166 5.99667 10.5166 5.96667 10.5266 5.94667C10.5266 5.91667 10.5366 5.89667 10.5366 5.86667C10.5366 5.83667 10.5266 5.81667 10.5266 5.78667C10.5166 5.76667 10.5166 5.73667 10.5066 5.71667C10.4966 5.68667 10.4766 5.66667 10.4666 5.64667C10.4466 5.62667 10.4366 5.60667 10.4166 5.58667C10.3966 5.56667 10.3766 5.54667 10.3566 5.53667C10.3366 5.51667 10.3066 5.50667 10.2866 5.49668C10.2666 5.48667 10.2366 5.47668 10.2066 5.47668C10.1866 5.46667 10.1566 5.46667 10.1366 5.46667C10.1066 5.46667 10.0766 5.46667 10.0566 5.47668C10.0266 5.47668 10.0066 5.48667 9.97655 5.49668C9.95655 5.50667 9.93655 5.51667 9.90655 5.53667C9.88655 5.54667 9.86655 5.56667 9.84655 5.58667Z"></path><path id="圆形 1 (轮廓)" fill-rule="evenodd" style="fill:#656A85" opacity="1" d="M8.00005 3.59999C8.60005 3.59999 9.17005 3.71999 9.71005 3.94999C10.24 4.16999 10.7 4.47999 11.11 4.88999C11.52 5.28999 11.83 5.75999 12.05 6.28999C12.28 6.82999 12.4 7.39999 12.4 7.99999C12.4 8.59999 12.28 9.16999 12.05 9.70999C11.83 10.24 11.52 10.7 11.11 11.11C10.7 11.52 10.24 11.83 9.71005 12.05C9.17005 12.28 8.60005 12.4 8.00005 12.4C7.40005 12.4 6.83005 12.28 6.29005 12.05C5.76005 11.83 5.29005 11.52 4.89005 11.11C4.48005 10.7 4.17005 10.24 3.95005 9.70999C3.72005 9.16999 3.60005 8.59999 3.60005 7.99999C3.60005 7.39999 3.72005 6.82999 3.95005 6.28999C4.17005 5.75999 4.48005 5.29999 4.89005 4.88999L4.61005 4.60999L4.89005 4.88999C4.91005 4.86999 4.92005 4.84999 4.94005 4.82999C4.95005 4.80999 4.97005 4.77999 4.98005 4.75999C4.99005 4.72999 4.99005 4.70999 5.00005 4.67999C5.00005 4.65999 5.01005 4.62999 5.01005 4.60999C5.01005 4.57999 5.00005 4.54999 5.00005 4.52999C4.99005 4.49999 4.99005 4.47999 4.98005 4.44999C4.97005 4.42999 4.95005 4.40999 4.94005 4.37999C4.92005 4.35999 4.91005 4.33999 4.89005 4.31999C4.87005 4.29999 4.85005 4.28999 4.83005 4.26999C4.81005 4.25999 4.78005 4.24999 4.76005 4.23999C4.73005 4.22999 4.71005 4.21999 4.68005 4.20999C4.66005 4.20999 4.63005 4.20999 4.61005 4.20999C4.58005 4.20999 4.55005 4.20999 4.53005 4.20999C4.50005 4.21999 4.48005 4.22999 4.45005 4.23999C4.43005 4.24999 4.41005 4.25999 4.38005 4.26999C4.36005 4.28999 4.34005 4.29999 4.32005 4.31999L4.33005 4.32999C3.85005 4.79999 3.47005 5.34999 3.21005 5.96999C2.94005 6.61999 2.80005 7.28999 2.80005 7.99999C2.80005 8.70999 2.94005 9.37999 3.21005 10.02C3.47005 10.65 3.84005 11.2 4.32005 11.68C4.80005 12.16 5.35005 12.53 5.98005 12.79C6.62005 13.06 7.29005 13.2 8.00005 13.2C8.71005 13.2 9.38005 13.06 10.02 12.79C10.65 12.53 11.2 12.16 11.68 11.68C12.16 11.2 12.53 10.65 12.79 10.02C13.06 9.37999 13.2 8.70999 13.2 7.99999C13.2 7.28999 13.06 6.61999 12.79 5.97999C12.53 5.34999 12.16 4.79999 11.68 4.31999C11.2 3.83999 10.65 3.46999 10.02 3.20999C9.38005 2.93999 8.71005 2.79999 8.00005 2.79999C7.97005 2.79999 7.95005 2.79999 7.92005 2.80999C7.90005 2.80999 7.87005 2.81999 7.85005 2.82999C7.82005 2.83999 7.80005 2.84999 7.78005 2.86999C7.76005 2.87999 7.74005 2.89999 7.72005 2.91999C7.70005 2.93999 7.68005 2.95999 7.67005 2.97999C7.65005 2.99999 7.64005 3.01999 7.63005 3.04999C7.62005 3.06999 7.61005 3.09999 7.61005 3.11999C7.60005 3.14999 7.60005 3.16999 7.60005 3.19999C7.60005 3.22999 7.60005 3.24999 7.61005 3.27999C7.61005 3.29999 7.62005 3.32999 7.63005 3.34999C7.64005 3.37999 7.65005 3.39999 7.67005 3.41999C7.68005 3.43999 7.70005 3.45999 7.72005 3.47999C7.74005 3.49999 7.76005 3.51999 7.78005 3.52999C7.80005 3.54999 7.82005 3.55999 7.85005 3.56999C7.87005 3.57999 7.90005 3.58999 7.92005 3.58999C7.95005 3.59999 7.97005 3.59999 8.00005 3.59999Z"></path></g></g><defs><rect id="path_0" x="0" y="0" width="16" height="16" /></defs></svg>