<svg xmlns="http://www.w3.org/2000/svg" xmlns:xlink="http://www.w3.org/1999/xlink" width="24" height="24" viewBox="0 0 24 24" fill="none"><g opacity="1"  transform="translate(0 0)  rotate(0)"><mask id="bg-mask-0" fill="white"><use xlink:href="#path_0"></use></mask><g mask="url(#bg-mask-0)" ><g opacity="1"  transform="translate(5 5)  rotate(0)"><path id="直线 3 (轮廓)" fill-rule="evenodd" style="fill:#495AD4" opacity="1" d="M2.9999 2.39999C2.9599 2.39999 2.9199 2.39999 2.8799 2.40999C2.8399 2.41999 2.8099 2.42999 2.7699 2.44999C2.7299 2.45999 2.6999 2.47999 2.6699 2.49999C2.6299 2.51999 2.5999 2.54999 2.5799 2.57999C2.5499 2.59999 2.5199 2.62999 2.4999 2.66999C2.4799 2.69999 2.4599 2.72999 2.4499 2.76999C2.4299 2.80999 2.4199 2.83999 2.4099 2.87999C2.3999 2.91999 2.3999 2.95999 2.3999 2.99999C2.3999 3.03999 2.3999 3.07999 2.4099 3.11999C2.4199 3.15999 2.4299 3.18999 2.4499 3.22999C2.4599 3.26999 2.4799 3.29999 2.4999 3.32999C2.5199 3.36999 2.5499 3.39999 2.5799 3.41999C2.5999 3.44999 2.6299 3.47999 2.6699 3.49999C2.6999 3.51999 2.7299 3.53999 2.7699 3.54999C2.8099 3.56999 2.8399 3.57999 2.8799 3.58999C2.9199 3.59999 2.9599 3.59999 2.9999 3.59999L6.9999 3.59999C7.0399 3.59999 7.0799 3.59999 7.1199 3.58999C7.1599 3.57999 7.1899 3.56999 7.2299 3.54999C7.2699 3.53999 7.2999 3.51999 7.3299 3.49999C7.3699 3.47999 7.3999 3.44999 7.4199 3.41999C7.4499 3.39999 7.4799 3.36999 7.4999 3.32999C7.5199 3.29999 7.5399 3.26999 7.5499 3.22999C7.5699 3.18999 7.5799 3.15999 7.5899 3.11999C7.5999 3.07999 7.5999 3.03999 7.5999 2.99999C7.5999 2.95999 7.5999 2.91999 7.5899 2.87999C7.5799 2.83999 7.5699 2.80999 7.5499 2.76999C7.5399 2.72999 7.5199 2.69999 7.4999 2.66999C7.4799 2.62999 7.4499 2.59999 7.4199 2.57999C7.3999 2.54999 7.3699 2.51999 7.3299 2.49999C7.2999 2.47999 7.2699 2.45999 7.2299 2.44999C7.1899 2.42999 7.1599 2.41999 7.1199 2.40999C7.0799 2.39999 7.0399 2.39999 6.9999 2.39999L2.9999 2.39999Z"></path><path id="直线 3 (轮廓)" fill-rule="evenodd" style="fill:#495AD4" opacity="1" d="M2.9999 10.4C2.9599 10.4 2.9199 10.4 2.8799 10.41C2.8399 10.42 2.8099 10.43 2.7699 10.45C2.7299 10.46 2.6999 10.48 2.6699 10.5C2.6299 10.52 2.5999 10.55 2.5799 10.58C2.5499 10.6 2.5199 10.63 2.4999 10.67C2.4799 10.7 2.4599 10.73 2.4499 10.77C2.4299 10.81 2.4199 10.84 2.4099 10.88C2.3999 10.92 2.3999 10.96 2.3999 11C2.3999 11.04 2.3999 11.08 2.4099 11.12C2.4199 11.16 2.4299 11.19 2.4499 11.23C2.4599 11.27 2.4799 11.3 2.4999 11.33C2.5199 11.37 2.5499 11.4 2.5799 11.42C2.5999 11.45 2.6299 11.48 2.6699 11.5C2.6999 11.52 2.7299 11.54 2.7699 11.55C2.8099 11.57 2.8399 11.58 2.8799 11.59C2.9199 11.6 2.9599 11.6 2.9999 11.6L6.9999 11.6C7.0399 11.6 7.0799 11.6 7.1199 11.59C7.1599 11.58 7.1899 11.57 7.2299 11.55C7.2699 11.54 7.2999 11.52 7.3299 11.5C7.3699 11.48 7.3999 11.45 7.4199 11.42C7.4499 11.4 7.4799 11.37 7.4999 11.33C7.5199 11.3 7.5399 11.27 7.5499 11.23C7.5699 11.19 7.5799 11.16 7.5899 11.12C7.5999 11.08 7.5999 11.04 7.5999 11C7.5999 10.96 7.5999 10.92 7.5899 10.88C7.5799 10.84 7.5699 10.81 7.5499 10.77C7.5399 10.73 7.5199 10.7 7.4999 10.67C7.4799 10.63 7.4499 10.6 7.4199 10.58C7.3999 10.55 7.3699 10.52 7.3299 10.5C7.2999 10.48 7.2699 10.46 7.2299 10.45C7.1899 10.43 7.1599 10.42 7.1199 10.41C7.0799 10.4 7.0399 10.4 6.9999 10.4L2.9999 10.4Z"></path><path id="直线 3 (轮廓)" fill-rule="evenodd" style="fill:#A0A3B8" opacity="1" d="M10.3898 2.87999C10.3798 2.83999 10.3698 2.80999 10.3498 2.76999C10.3398 2.72999 10.3198 2.69999 10.2998 2.66999C10.2798 2.62999 10.2498 2.59999 10.2198 2.57999C10.1998 2.54999 10.1698 2.51999 10.1298 2.49999C10.0998 2.47999 10.0698 2.45999 10.0298 2.44999C9.9898 2.42999 9.9598 2.41999 9.9198 2.40999C9.8798 2.39999 9.8398 2.39999 9.7998 2.39999L9.39981 2.39999C9.3598 2.39999 9.3198 2.39999 9.2798 2.40999C9.2398 2.41999 9.2098 2.42999 9.1698 2.44999C9.1298 2.45999 9.0998 2.47999 9.0698 2.49999C9.0298 2.51999 8.9998 2.54999 8.9798 2.57999C8.9498 2.59999 8.9198 2.62999 8.89981 2.66999C8.8798 2.69999 8.85981 2.72999 8.8498 2.76999C8.8298 2.80999 8.81981 2.83999 8.8098 2.87999C8.7998 2.91999 8.7998 2.95999 8.7998 2.99999C8.7998 3.03999 8.7998 3.07999 8.8098 3.11999C8.81981 3.15999 8.8298 3.18999 8.8498 3.22999C8.85981 3.26999 8.8798 3.29999 8.89981 3.32999C8.9198 3.36999 8.9498 3.39999 8.9798 3.41999C8.9998 3.44999 9.0298 3.47999 9.0698 3.49999C9.0998 3.51999 9.1298 3.53999 9.1698 3.54999C9.2098 3.56999 9.2398 3.57999 9.2798 3.58999C9.3198 3.59999 9.3598 3.59999 9.39981 3.59999L9.7998 3.59999C9.8398 3.59999 9.8798 3.59999 9.9198 3.58999C9.9598 3.57999 9.9898 3.56999 10.0298 3.54999C10.0698 3.53999 10.0998 3.51999 10.1298 3.49999C10.1698 3.47999 10.1998 3.44999 10.2198 3.41999C10.2498 3.39999 10.2798 3.36999 10.2998 3.32999C10.3198 3.29999 10.3398 3.26999 10.3498 3.22999C10.3698 3.18999 10.3798 3.15999 10.3898 3.11999C10.3998 3.07999 10.3998 3.03999 10.3998 2.99999C10.3998 2.95999 10.3998 2.91999 10.3898 2.87999Z"></path><path id="直线 3 (轮廓)" fill-rule="evenodd" style="fill:#A0A3B8" opacity="1" d="M10.3898 10.88C10.3798 10.84 10.3698 10.81 10.3498 10.77C10.3398 10.73 10.3198 10.7 10.2998 10.67C10.2798 10.63 10.2498 10.6 10.2198 10.58C10.1998 10.55 10.1698 10.52 10.1298 10.5C10.0998 10.48 10.0698 10.46 10.0298 10.45C9.9898 10.43 9.9598 10.42 9.9198 10.41C9.8798 10.4 9.8398 10.4 9.7998 10.4L9.39981 10.4C9.3598 10.4 9.3198 10.4 9.2798 10.41C9.2398 10.42 9.2098 10.43 9.1698 10.45C9.1298 10.46 9.0998 10.48 9.0698 10.5C9.0298 10.52 8.9998 10.55 8.9798 10.58C8.9498 10.6 8.9198 10.63 8.89981 10.67C8.8798 10.7 8.85981 10.73 8.8498 10.77C8.8298 10.81 8.81981 10.84 8.8098 10.88C8.7998 10.92 8.7998 10.96 8.7998 11C8.7998 11.04 8.7998 11.08 8.8098 11.12C8.81981 11.16 8.8298 11.19 8.8498 11.23C8.85981 11.27 8.8798 11.3 8.89981 11.33C8.9198 11.37 8.9498 11.4 8.9798 11.42C8.9998 11.45 9.0298 11.48 9.0698 11.5C9.0998 11.52 9.1298 11.54 9.1698 11.55C9.2098 11.57 9.2398 11.58 9.2798 11.59C9.3198 11.6 9.3598 11.6 9.39981 11.6L9.7998 11.6C9.8398 11.6 9.8798 11.6 9.9198 11.59C9.9598 11.58 9.9898 11.57 10.0298 11.55C10.0698 11.54 10.0998 11.52 10.1298 11.5C10.1698 11.48 10.1998 11.45 10.2198 11.42C10.2498 11.4 10.2798 11.37 10.2998 11.33C10.3198 11.3 10.3398 11.27 10.3498 11.23C10.3698 11.19 10.3798 11.16 10.3898 11.12C10.3998 11.08 10.3998 11.04 10.3998 11C10.3998 10.96 10.3998 10.92 10.3898 10.88Z"></path><path id="直线 1 (轮廓)" fill-rule="evenodd" style="fill:#A0A3B8" opacity="1" d="M3.59976 5.39987C3.59975 5.35987 3.59974 5.31987 3.58973 5.27987C3.57972 5.23987 3.56971 5.20987 3.5497 5.16988C3.53969 5.12988 3.51968 5.09989 3.49968 5.06989C3.47967 5.0299 3.44966 4.9999 3.41965 4.97991C3.39965 4.94992 3.36964 4.91992 3.32963 4.89993C3.29963 4.87994 3.26962 4.85995 3.22962 4.84996C3.18962 4.82997 3.15961 4.81998 3.11961 4.80999C3.07961 4.8 3.03961 4.80001 2.99961 4.80002C2.95961 4.80003 2.91961 4.80004 2.87961 4.81005C2.83961 4.82006 2.80962 4.83006 2.76962 4.85007C2.72962 4.86008 2.69963 4.88009 2.66963 4.9001C2.62964 4.92011 2.59965 4.95012 2.57965 4.98012C2.54966 5.00013 2.51967 5.03014 2.49968 5.07014C2.47968 5.10015 2.45969 5.13015 2.4497 5.17015C2.42971 5.21016 2.41972 5.24016 2.40973 5.28016C2.39974 5.32017 2.39975 5.36017 2.39976 5.40017L2.40056 8.60017C2.40057 8.64017 2.40058 8.68017 2.41059 8.72016C2.4206 8.76016 2.43061 8.79016 2.45062 8.83015C2.46063 8.87015 2.48063 8.90015 2.50064 8.93014C2.52065 8.97014 2.55066 9.00013 2.58066 9.02012C2.60067 9.05012 2.63068 9.08011 2.67068 9.1001C2.70069 9.12009 2.73069 9.14008 2.7707 9.15007C2.8107 9.17006 2.8407 9.18006 2.88071 9.19005C2.92071 9.20004 2.96071 9.20003 3.00071 9.20002C3.04071 9.20001 3.08071 9.2 3.12071 9.18999C3.1607 9.17998 3.1907 9.16997 3.2307 9.14996C3.27069 9.13995 3.30069 9.11994 3.33068 9.09993C3.37068 9.07992 3.40067 9.04992 3.42066 9.01991C3.45066 8.9999 3.48065 8.9699 3.50064 8.92989C3.52063 8.89989 3.54063 8.86988 3.55062 8.82988C3.57061 8.78987 3.5806 8.75987 3.59059 8.71987C3.60058 8.67987 3.60057 8.63987 3.60056 8.59987L3.59976 5.39987Z"></path><path id="直线 2 (轮廓)" fill-rule="evenodd" style="fill:#A0A3B8" opacity="1" d="M11.6009 5.40014C11.6009 5.36014 11.6009 5.32014 11.591 5.28014C11.581 5.24014 11.571 5.21013 11.551 5.17013C11.541 5.13013 11.521 5.10012 11.501 5.07012C11.481 5.03011 11.451 5.0001 11.421 4.9801C11.401 4.95009 11.371 4.92008 11.331 4.90007C11.3011 4.88007 11.2711 4.86006 11.2311 4.85005C11.1911 4.83004 11.1611 4.82003 11.1211 4.81002C11.0811 4.80001 11.0411 4.8 11.0011 4.79999C10.9611 4.79998 10.9211 4.79997 10.8811 4.80996C10.8411 4.81995 10.8111 4.82994 10.7711 4.84993C10.7311 4.85992 10.7011 4.87992 10.6711 4.89991C10.631 4.9199 10.601 4.94989 10.581 4.97989C10.551 4.99988 10.521 5.02987 10.501 5.06987C10.481 5.09986 10.461 5.12986 10.451 5.16985C10.431 5.20985 10.421 5.23985 10.411 5.27984C10.4009 5.31984 10.4009 5.35984 10.4009 5.39984L10.4001 8.59984C10.4001 8.63984 10.4001 8.67984 10.4101 8.71984C10.4201 8.75985 10.4301 8.78985 10.4501 8.82985C10.4601 8.86986 10.4801 8.89986 10.5 8.92987C10.52 8.96987 10.55 8.99988 10.58 9.01989C10.6 9.04989 10.63 9.0799 10.67 9.09991C10.7 9.11992 10.73 9.13992 10.77 9.14993C10.81 9.16994 10.84 9.17995 10.88 9.18996C10.92 9.19997 10.96 9.19998 11 9.19999C11.04 9.2 11.08 9.20001 11.12 9.19002C11.16 9.18003 11.19 9.17004 11.23 9.15005C11.27 9.14006 11.3 9.12007 11.33 9.10007C11.37 9.08008 11.4 9.05009 11.42 9.0201C11.45 9.0001 11.48 8.97011 11.5 8.93012C11.5201 8.90012 11.5401 8.87013 11.5501 8.83013C11.5701 8.79013 11.5801 8.76014 11.5901 8.72014C11.6001 8.68014 11.6001 8.64014 11.6001 8.60014L11.6009 5.40014Z"></path><path id="矩形 2 (轮廓)" fill-rule="evenodd" style="fill:#A0A3B8" opacity="1" d="M0,5.4v-4.8c0,-0.04 0,-0.08 0.01,-0.12c0.01,-0.04 0.02,-0.07 0.04,-0.11c0.01,-0.04 0.03,-0.07 0.05,-0.1c0.02,-0.04 0.05,-0.07 0.08,-0.09c0.02,-0.03 0.05,-0.06 0.09,-0.08c0.03,-0.02 0.06,-0.04 0.1,-0.05c0.04,-0.02 0.07,-0.03 0.11,-0.04c0.04,-0.01 0.08,-0.01 0.12,-0.01h12.8c0.04,0 0.08,0 0.12,0.01c0.04,0.01 0.07,0.02 0.11,0.04c0.04,0.01 0.07,0.03 0.1,0.05c0.04,0.02 0.07,0.05 0.09,0.08c0.03,0.02 0.06,0.05 0.08,0.09c0.02,0.03 0.04,0.06 0.05,0.1c0.02,0.04 0.03,0.07 0.04,0.11c0.01,0.04 0.01,0.08 0.01,0.12v4.8c0,0.04 0,0.08 -0.01,0.12c-0.01,0.04 -0.02,0.07 -0.04,0.11c-0.01,0.04 -0.03,0.07 -0.05,0.1c-0.02,0.04 -0.05,0.07 -0.08,0.09c-0.02,0.03 -0.05,0.06 -0.09,0.08c-0.03,0.02 -0.06,0.04 -0.1,0.05c-0.04,0.02 -0.07,0.03 -0.11,0.04c-0.04,0.01 -0.08,0.01 -0.12,0.01h-12.8c-0.04,0 -0.08,0 -0.12,-0.01c-0.04,-0.01 -0.07,-0.02 -0.11,-0.04c-0.04,-0.01 -0.07,-0.03 -0.1,-0.05c-0.04,-0.02 -0.07,-0.05 -0.09,-0.08c-0.03,-0.02 -0.06,-0.05 -0.08,-0.09c-0.02,-0.03 -0.04,-0.06 -0.05,-0.1c-0.02,-0.04 -0.03,-0.07 -0.04,-0.11c-0.01,-0.04 -0.01,-0.08 -0.01,-0.12zM1.2,1.2v3.6h11.6v-3.6z"></path><path id="矩形 2 (轮廓)" fill-rule="evenodd" style="fill:#A0A3B8" opacity="1" d="M0,13.4v-4.8c0,-0.04 0,-0.08 0.01,-0.12c0.01,-0.04 0.02,-0.07 0.04,-0.11c0.01,-0.04 0.03,-0.07 0.05,-0.1c0.02,-0.04 0.05,-0.07 0.08,-0.09c0.02,-0.03 0.05,-0.06 0.09,-0.08c0.03,-0.02 0.06,-0.04 0.1,-0.05c0.04,-0.02 0.07,-0.03 0.11,-0.04c0.04,-0.01 0.08,-0.01 0.12,-0.01h12.8c0.04,0 0.08,0 0.12,0.01c0.04,0.01 0.07,0.02 0.11,0.04c0.04,0.01 0.07,0.03 0.1,0.05c0.04,0.02 0.07,0.05 0.09,0.08c0.03,0.02 0.06,0.05 0.08,0.09c0.02,0.03 0.04,0.06 0.05,0.1c0.02,0.04 0.03,0.07 0.04,0.11c0.01,0.04 0.01,0.08 0.01,0.12v4.8c0,0.04 0,0.08 -0.01,0.12c-0.01,0.04 -0.02,0.07 -0.04,0.11c-0.01,0.04 -0.03,0.07 -0.05,0.1c-0.02,0.04 -0.05,0.07 -0.08,0.09c-0.02,0.03 -0.05,0.06 -0.09,0.08c-0.03,0.02 -0.06,0.04 -0.1,0.05c-0.04,0.02 -0.07,0.03 -0.11,0.04c-0.04,0.01 -0.08,0.01 -0.12,0.01h-12.8c-0.04,0 -0.08,0 -0.12,-0.01c-0.04,-0.01 -0.07,-0.02 -0.11,-0.04c-0.04,-0.01 -0.07,-0.03 -0.1,-0.05c-0.04,-0.02 -0.07,-0.05 -0.09,-0.08c-0.03,-0.02 -0.06,-0.05 -0.08,-0.09c-0.02,-0.03 -0.04,-0.06 -0.05,-0.1c-0.02,-0.04 -0.03,-0.07 -0.04,-0.11c-0.01,-0.04 -0.01,-0.08 -0.01,-0.12zM1.2,9.2v3.6h11.6v-3.6z"></path></g></g></g><defs><rect id="path_0" x="0" y="0" width="24" height="24" /></defs></svg>