<svg xmlns="http://www.w3.org/2000/svg" xmlns:xlink="http://www.w3.org/1999/xlink" width="16" height="16" viewBox="0 0 16 16" fill="none">
<path d="M2.79999 10.1334L2.79999 12.2667C2.79999 12.4876 2.97907 12.6667 3.19999 12.6667L5.33332 12.6667C5.55423 12.6667 5.73332 12.4876 5.73332 12.2667L5.73332 10.1334C5.73332 9.91248 5.55423 9.7334 5.33332 9.7334L3.19999 9.7334C2.97907 9.7334 2.79999 9.91248 2.79999 10.1334ZM3.59999 11.8667L3.59999 10.5334L4.93332 10.5334L4.93332 11.8667L3.59999 11.8667Z" fill-rule="evenodd"  fill="#495AD4" >
</path>
<path d="M6.53333 10.1334L6.53333 12.2667C6.53333 12.4876 6.71241 12.6667 6.93333 12.6667L9.06666 12.6667C9.28757 12.6667 9.46666 12.4876 9.46666 12.2667L9.46666 10.1334C9.46666 9.91248 9.28757 9.7334 9.06666 9.7334L6.93333 9.7334C6.71241 9.7334 6.53333 9.91248 6.53333 10.1334ZM7.33333 11.8667L7.33333 10.5334L8.66666 10.5334L8.66666 11.8667L7.33333 11.8667Z" fill-rule="evenodd"  fill="#495AD4" >
</path>
<path d="M10.2667 10.1334L10.2667 12.2667C10.2667 12.4876 10.4457 12.6667 10.6667 12.6667L12.8 12.6667C13.0209 12.6667 13.2 12.4876 13.2 12.2667L13.2 10.1334C13.2 9.91248 13.0209 9.7334 12.8 9.7334L10.6667 9.7334C10.4457 9.7334 10.2667 9.91248 10.2667 10.1334ZM11.0667 11.8667L11.0667 10.5334L12.4 10.5334L12.4 11.8667L11.0667 11.8667Z" fill-rule="evenodd"  fill="#495AD4" >
</path>
<path d="M2.79999 3.73325L2.79999 5.33325C2.79999 5.55416 2.97907 5.73325 3.19999 5.73325L12.8 5.73325C13.0209 5.73325 13.2 5.55416 13.2 5.33325L13.2 3.73325C13.2 3.51234 13.0209 3.33325 12.8 3.33325L3.19999 3.33325C2.97907 3.33325 2.79999 3.51234 2.79999 3.73325ZM3.59999 4.93325L3.59999 4.13325L12.4 4.13325L12.4 4.93325L3.59999 4.93325Z" fill-rule="evenodd"  fill="#495AD4" >
</path>
<path d="M2.79999 7.46665C2.79999 7.68756 2.97907 7.86665 3.19999 7.86665L12.8 7.86665C13.0209 7.86665 13.2 7.68756 13.2 7.46665C13.2 7.24574 13.0209 7.06665 12.8 7.06665L3.19999 7.06665C2.97907 7.06665 2.79999 7.24574 2.79999 7.46665Z" fill-rule="evenodd"  fill="#495AD4" >
</path>
<path d="M8.00001 9.46655C8.22092 9.46655 8.40001 9.28747 8.40001 9.06655L8.40001 6.39989C8.40001 6.17897 8.22092 5.99989 8.00001 5.99989C7.77909 5.99989 7.60001 6.17897 7.60001 6.39989L7.60001 9.06655C7.60001 9.28747 7.77909 9.46655 8.00001 9.46655Z" fill-rule="evenodd"  fill="#495AD4" >
</path>
</svg>
