<svg xmlns="http://www.w3.org/2000/svg" xmlns:xlink="http://www.w3.org/1999/xlink" width="44" height="44" viewBox="0 0 44 44" fill="none"><path id="路径 1" fill-rule="evenodd" style="fill:#44C795" opacity="1" d="M22,0c12.15,0 22,9.85 22,22c0,12.15 -9.85,22 -22,22c-12.15,0 -22,-9.85 -22,-22c0,-12.15 9.85,-22 22,-22zM33.66,14.35c-0.62,-0.62 -1.63,-0.62 -2.26,0l-11.91,11.92l-6.89,-6.89c-0.63,-0.62 -1.64,-0.62 -2.26,0c-0.62,0.62 -0.62,1.63 0,2.25l8.02,8.02c0.62,0.62 1.63,0.62 2.25,0l13.05,-13.04c0.62,-0.63 0.62,-1.64 0,-2.26z"></path></svg>