<svg xmlns="http://www.w3.org/2000/svg" xmlns:xlink="http://www.w3.org/1999/xlink" width="24" height="24" viewBox="0 0 24 24" fill="none"><path id="路径 1" fill-rule="evenodd" style="fill:#495AD4" opacity="1" d="M12,0c6.63,0 12,5.37 12,12c0,6.63 -5.37,12 -12,12c-6.63,0 -12,-5.37 -12,-12c0,-6.63 5.37,-12 12,-12zM18.36,7.83c-0.34,-0.34 -0.89,-0.34 -1.23,0l-6.5,6.5l-3.76,-3.76c-0.34,-0.34 -0.89,-0.34 -1.23,0c-0.34,0.34 -0.34,0.89 0,1.23l4.37,4.37c0.34,0.34 0.89,0.34 1.23,0l7.12,-7.11c0.34,-0.34 0.34,-0.89 0,-1.23z"></path></svg>