<svg xmlns="http://www.w3.org/2000/svg" xmlns:xlink="http://www.w3.org/1999/xlink" width="16" height="16"
  viewBox="0 0 16 16" fill="none">
  <g opacity="1" transform="translate(0 0)  rotate(0)">
    <mask id="bg-mask-0" fill="white">
      <use transform="translate(0 0)  rotate(0)" xlink:href="#path_0"></use>
    </mask>
    <g mask="url(#bg-mask-0)">
      <path id="圆形 1 (轮廓)" fill-rule="evenodd" style="fill:#656A85" opacity="1"
        d="M7.99999 2.79999C7.77999 2.79999 7.59999 2.97999 7.59999 3.19999C7.59999 3.41999 7.77999 3.59999 7.99999 3.59999C10.43 3.59999 12.4 5.56999 12.4 7.99999C12.4 10.43 10.43 12.4 7.99999 12.4C5.56999 12.4 3.59999 10.43 3.59999 7.99999C3.59999 6.77999 4.02999 5.74999 4.88999 4.88999L4.88999 4.88999C4.95999 4.81999 5.00999 4.71999 5.00999 4.60999C5.00999 4.37999 4.82999 4.20999 4.60999 4.20999C4.47999 4.20999 4.35999 4.26999 4.28999 4.35999C3.29999 5.35999 2.79999 6.57999 2.79999 7.99999C2.79999 10.87 5.12999 13.2 7.99999 13.2C10.87 13.2 13.2 10.87 13.2 7.99999C13.2 5.12999 10.87 2.79999 7.99999 2.79999Z">
      </path>
      <path id="直线 1 (轮廓)" fill-rule="evenodd" style="fill:#656A85" opacity="1"
        d="M7.59999 5.33335L7.59999 8.00035C7.59999 8.22135 7.77899 8.40035 7.99999 8.40035C8.22099 8.40035 8.39999 8.22135 8.39999 8.00035L8.39999 5.33335C8.39999 5.11235 8.22099 4.93335 7.99999 4.93335C7.77899 4.93335 7.59999 5.11235 7.59999 5.33335Z">
      </path>
      <path id="直线 2 (轮廓)" fill-rule="evenodd" style="fill:#656A85" opacity="1"
        d="M7.71716 8.28285L10.1171 10.6828C10.2733 10.839 10.5265 10.839 10.6828 10.6828C10.839 10.5265 10.839 10.2734 10.6828 10.1171L8.28284 7.71717C8.12657 7.5609 7.87343 7.5609 7.71716 7.71717C7.56089 7.87344 7.56089 8.12658 7.71716 8.28285Z">
      </path>
    </g>
  </g>
  <defs>
    <rect id="path_0" x="0" y="0" width="16" height="16" />
  </defs>
</svg>