<svg xmlns="http://www.w3.org/2000/svg" xmlns:xlink="http://www.w3.org/1999/xlink" width="30" height="30"
  viewBox="0 0 30 30" fill="none">
  <g opacity="1" transform="translate(0 0)  rotate(0)">
    <mask id="bg-mask-0" fill="white">
      <use transform="translate(0 0)  rotate(0)" xlink:href="#path_0"></use>
    </mask>
    <g mask="url(#bg-mask-0)">
      <g opacity="1" transform="translate(6.2498779296875 6.25)  rotate(0)">
        <path id="路径 2 (轮廓)" fill-rule="evenodd" style="fill:#131926" opacity="1"
          d="M15.0001 7.75C15.0001 7.8 15.0001 7.85 15.0101 7.9C15.0201 7.94 15.0401 7.99 15.0601 8.04C15.0801 8.08 15.1001 8.13 15.1301 8.17C15.1501 8.21 15.1801 8.25 15.2201 8.28C15.2501 8.32 15.2901 8.35 15.3301 8.37C15.3701 8.4 15.4201 8.42 15.4601 8.44C15.5101 8.46 15.5601 8.48 15.6001 8.49C15.6501 8.5 15.7001 8.5 15.7501 8.5C15.8001 8.5 15.8501 8.5 15.9001 8.49C15.9401 8.48 15.9901 8.46 16.0401 8.44C16.0801 8.42 16.1301 8.4 16.1701 8.37C16.2101 8.35 16.2501 8.32 16.2801 8.28C16.3201 8.25 16.3501 8.21 16.3701 8.17C16.4001 8.13 16.4201 8.08 16.4401 8.04C16.4601 7.99 16.4801 7.94 16.4901 7.9C16.5001 7.85 16.5001 7.8 16.5001 7.75L16.5001 0.75C16.5001 0.7 16.5001 0.65 16.4901 0.6C16.4801 0.56 16.4601 0.51 16.4401 0.46C16.4201 0.42 16.4001 0.37 16.3701 0.33C16.3501 0.29 16.3201 0.25 16.2801 0.22C16.2501 0.18 16.2101 0.15 16.1701 0.13C16.1301 0.1 16.0801 0.08 16.0401 0.06C15.9901 0.04 15.9401 0.02 15.9001 0.01C15.8501 0 15.8001 0 15.7501 0L0.750122 0C0.700122 0 0.650122 0 0.600122 0.01C0.560122 0.02 0.510122 0.04 0.460122 0.06C0.420122 0.08 0.370122 0.1 0.330122 0.13C0.290122 0.15 0.250122 0.18 0.220122 0.22C0.180122 0.25 0.150122 0.29 0.130122 0.33C0.100122 0.37 0.0801221 0.42 0.0601221 0.46C0.0401221 0.51 0.0201221 0.56 0.0101221 0.6C0.00012207 0.65 0.00012207 0.7 0.00012207 0.75L0.00012207 13.75C0.00012207 13.8 0.00012207 13.85 0.0101221 13.9C0.0201221 13.94 0.0401221 13.99 0.0601221 14.04C0.0801221 14.08 0.100122 14.13 0.130122 14.17C0.150122 14.21 0.180122 14.25 0.220122 14.28C0.250122 14.32 0.290122 14.35 0.330122 14.37C0.370122 14.4 0.420122 14.42 0.460122 14.44C0.510122 14.46 0.560122 14.48 0.600122 14.49C0.650122 14.5 0.700122 14.5 0.750122 14.5L7.25012 14.5C7.30012 14.5 7.35012 14.5 7.40012 14.49C7.44012 14.48 7.49012 14.46 7.54012 14.44C7.58012 14.42 7.63012 14.4 7.67012 14.37C7.71012 14.35 7.75012 14.32 7.78012 14.28C7.82012 14.25 7.85012 14.21 7.87012 14.17C7.90012 14.13 7.92012 14.08 7.94012 14.04C7.96012 13.99 7.98012 13.94 7.99012 13.9C8.00012 13.85 8.00012 13.8 8.00012 13.75C8.00012 13.7 8.00012 13.65 7.99012 13.6C7.98012 13.56 7.96012 13.51 7.94012 13.46C7.92012 13.42 7.90012 13.37 7.87012 13.33C7.85012 13.29 7.82012 13.25 7.78012 13.22C7.75012 13.18 7.71012 13.15 7.67012 13.13C7.63012 13.1 7.58012 13.08 7.54012 13.06C7.49012 13.04 7.44012 13.02 7.40012 13.01C7.35012 13 7.30012 13 7.25012 13L1.50012 13L1.50012 1.5L15.0001 1.5L15.0001 7.75Z">
        </path>
        <path id="路径 3 (轮廓)" fill-rule="evenodd" style="fill:#131926" opacity="1"
          d="M0.75 16C0.7 16 0.65 16 0.600001 16.01C0.560002 16.02 0.510004 16.04 0.460006 16.06C0.420008 16.08 0.37001 16.1 0.330013 16.13C0.290015 16.15 0.250017 16.18 0.220021 16.22C0.180024 16.25 0.150028 16.29 0.130032 16.33C0.100036 16.3701 0.0800407 16.4201 0.0600446 16.4601C0.0400494 16.5101 0.0200542 16.5601 0.0100581 16.6001C6.29656e-05 16.6501 6.78091e-05 16.7001 7.26526e-05 16.7501C7.74961e-05 16.8001 8.23396e-05 16.8501 0.0100872 16.9001C0.0200911 16.9401 0.0400959 16.9901 0.0601007 17.0401C0.0801046 17.0801 0.100109 17.1301 0.130113 17.17C0.150117 17.21 0.180121 17.25 0.220124 17.28C0.250128 17.32 0.290131 17.35 0.330133 17.37C0.370136 17.4 0.420138 17.42 0.46014 17.44C0.510141 17.46 0.560143 17.48 0.600144 17.49C0.650145 17.5 0.700145 17.5 0.750145 17.5L10.7501 17.499L10.7501 17.499C10.8001 17.499 10.8501 17.499 10.9001 17.489C10.9501 17.479 10.9901 17.459 11.0401 17.439C11.0801 17.419 11.1301 17.399 11.1701 17.369C11.2101 17.349 11.2501 17.319 11.2801 17.279C11.3201 17.249 11.3501 17.209 11.3801 17.169C11.4001 17.129 11.4301 17.079 11.4501 17.039C11.4601 16.989 11.4801 16.9389 11.4901 16.8989C11.5001 16.8489 11.5001 16.7989 11.5001 16.7489C11.5001 16.6989 11.5001 16.6489 11.4901 16.5989C11.4801 16.5589 11.46 16.509 11.45 16.459C11.43 16.419 11.4 16.369 11.38 16.329C11.35 16.289 11.32 16.249 11.28 16.219C11.25 16.179 11.21 16.149 11.17 16.129C11.13 16.099 11.08 16.079 11.04 16.059C10.99 16.039 10.95 16.019 10.9 16.009C10.85 15.999 10.8 15.999 10.75 15.999L10.75 15.999L0.75 16Z">
        </path>
        <path id="直线 4 (轮廓)" fill-rule="evenodd" style="fill:#131926" opacity="1"
          d="M0.750122 3.00052C0.700122 3.00053 0.650122 3.00053 0.600122 3.01053C0.560123 3.02053 0.510123 3.04053 0.460124 3.06053C0.420125 3.08054 0.370125 3.10054 0.330126 3.13054C0.290127 3.15054 0.250128 3.18054 0.220129 3.22054C0.18013 3.25054 0.150132 3.29054 0.130133 3.33054C0.100134 3.37055 0.0801362 3.42055 0.0601375 3.46055C0.0401392 3.51055 0.0201409 3.56055 0.0101422 3.60055C0.00014389 3.65055 0.000145569 3.70055 0.000147247 3.75055C0.000148926 3.80055 0.000150604 3.85055 0.0101523 3.90055C0.0201536 3.94055 0.0401553 3.99055 0.060157 4.04055C0.0801583 4.08055 0.10016 4.13055 0.130161 4.17054C0.150163 4.21054 0.180164 4.25054 0.220165 4.28054C0.250166 4.32054 0.290167 4.35054 0.330168 4.37054C0.370169 4.40054 0.42017 4.42054 0.46017 4.44053C0.510171 4.46053 0.560172 4.48053 0.600172 4.49053C0.650172 4.50053 0.700172 4.50053 0.750172 4.50052L15.7502 4.50002C15.8002 4.50002 15.8502 4.50002 15.9002 4.49002C15.9402 4.48001 15.9902 4.46001 16.0402 4.44001C16.0802 4.42001 16.1302 4.40001 16.1702 4.37001C16.2102 4.35001 16.2502 4.32 16.2802 4.28C16.3202 4.25 16.3502 4.21 16.3702 4.17C16.4002 4.13 16.4202 4.08 16.4402 4.04C16.4602 3.99 16.4802 3.94 16.4902 3.9C16.5002 3.85 16.5001 3.8 16.5001 3.75C16.5001 3.7 16.5001 3.65 16.4901 3.6C16.4801 3.56 16.4601 3.51 16.4401 3.46C16.4201 3.42 16.4001 3.37 16.3701 3.33C16.3501 3.29 16.3201 3.25 16.2801 3.22C16.2501 3.18 16.2101 3.15001 16.1701 3.13001C16.1301 3.10001 16.0801 3.08001 16.0401 3.06001C15.9901 3.04001 15.9401 3.02001 15.9001 3.01002C15.8501 3.00002 15.8001 3.00002 15.7501 3.00002L0.750122 3.00052Z">
        </path>
        <path id="多边形 1 (轮廓)" fill-rule="evenodd" style="fill:#495AD4" opacity="1"
          d="M13.6301,8.1l3.03,1.75c0.05,0.03 0.1,0.07 0.15,0.12c0.05,0.05 0.09,0.1 0.12,0.16c0.03,0.05 0.06,0.11 0.07,0.18c0.02,0.06 0.03,0.12 0.03,0.19v3.5c0,0.07 -0.01,0.13 -0.03,0.19c-0.01,0.07 -0.04,0.13 -0.07,0.18c-0.03,0.06 -0.07,0.11 -0.12,0.16c-0.05,0.05 -0.1,0.09 -0.15,0.12l-3.03,1.75c-0.06,0.03 -0.12,0.06 -0.19,0.07c-0.06,0.02 -0.12,0.03 -0.19,0.03c-0.07,0 -0.13,-0.01 -0.19,-0.03c-0.07,-0.01 -0.13,-0.04 -0.19,-0.07l-3.03001,-1.75c-0.05,-0.03 -0.1,-0.07 -0.15,-0.12c-0.05,-0.05 -0.09,-0.1 -0.12,-0.16c-0.03,-0.05 -0.06,-0.11 -0.07,-0.18c-0.02,-0.06 -0.03,-0.12 -0.03,-0.19v-3.5c0,-0.07 0.01,-0.13 0.03,-0.19c0.01,-0.07 0.04,-0.13 0.07,-0.18c0.03,-0.06 0.07,-0.11 0.12,-0.16c0.05,-0.05 0.1,-0.09 0.15,-0.12l3.03001,-1.75c0.06,-0.03 0.12,-0.06 0.19,-0.07c0.06,-0.02 0.12,-0.03 0.19,-0.03c0.07,0 0.13,0.01 0.19,0.03c0.07,0.01 0.13,0.04 0.19,0.07zM10.9701,10.93v2.64l2.28,1.31l2.28,-1.31v-2.64l-2.28,-1.31z">
        </path>
        <path id="圆形 2" fill-rule="evenodd" style="fill:#131926" opacity="1"
          d="M13.2501 11.25C12.7001 11.25 12.2501 11.7 12.2501 12.25C12.2501 12.8 12.7001 13.25 13.2501 13.25C13.8001 13.25 14.2501 12.8 14.2501 12.25C14.2501 11.7 13.8001 11.25 13.2501 11.25Z">
        </path>
      </g>
    </g>
  </g>
  <defs>
    <rect id="path_0" x="0" y="0" width="30" height="30" />
  </defs>
</svg>