<svg xmlns="http://www.w3.org/2000/svg" xmlns:xlink="http://www.w3.org/1999/xlink" width="24" height="24"
  viewBox="0 0 24 24" fill="none">
  <g opacity="1" transform="translate(0 0)  rotate(0)">
    <mask id="bg-mask-0" fill="white">
      <use transform="translate(0 0)  rotate(0)" xlink:href="#path_0"></use>
    </mask>
    <g mask="url(#bg-mask-0)">
      <g opacity="1" transform="translate(5 5)  rotate(0)">
        <path id="矩形 3 (轮廓)" fill-rule="evenodd" style="fill:#A0A3B8" opacity="1"
          d="M0,4.6v-4c0,-0.04 0,-0.08 0.01,-0.12c0.01,-0.04 0.02,-0.07 0.04,-0.11c0.01,-0.04 0.03,-0.07 0.05,-0.1c0.02,-0.04 0.05,-0.07 0.08,-0.09c0.02,-0.03 0.05,-0.06 0.09,-0.08c0.03,-0.02 0.06,-0.04 0.1,-0.05c0.04,-0.02 0.07,-0.03 0.11,-0.04c0.04,-0.01 0.08,-0.01 0.12,-0.01h12.8c0.04,0 0.08,0 0.12,0.01c0.04,0.01 0.07,0.02 0.11,0.04c0.04,0.01 0.07,0.03 0.1,0.05c0.04,0.02 0.07,0.05 0.09,0.08c0.03,0.02 0.06,0.05 0.08,0.09c0.02,0.03 0.04,0.06 0.05,0.1c0.02,0.04 0.03,0.07 0.04,0.11c0.01,0.04 0.01,0.08 0.01,0.12v4c0,0.04 0,0.08 -0.01,0.12c-0.01,0.04 -0.02,0.07 -0.04,0.11c-0.01,0.04 -0.03,0.07 -0.05,0.1c-0.02,0.04 -0.05,0.07 -0.08,0.09c-0.02,0.03 -0.05,0.06 -0.09,0.08c-0.03,0.02 -0.06,0.04 -0.1,0.05c-0.04,0.02 -0.07,0.03 -0.11,0.04c-0.04,0.01 -0.08,0.01 -0.12,0.01h-12.8c-0.04,0 -0.08,0 -0.12,-0.01c-0.04,-0.01 -0.07,-0.02 -0.11,-0.04c-0.04,-0.01 -0.07,-0.03 -0.1,-0.05c-0.04,-0.02 -0.07,-0.05 -0.09,-0.08c-0.03,-0.02 -0.06,-0.05 -0.08,-0.09c-0.02,-0.03 -0.04,-0.06 -0.05,-0.1c-0.02,-0.04 -0.03,-0.07 -0.04,-0.11c-0.01,-0.04 -0.01,-0.08 -0.01,-0.12zM1.2,1.2v2.8h11.6v-2.8z">
        </path>
        <path id="直线 4 (轮廓)" fill-rule="evenodd" style="fill:#495AD4" opacity="1"
          d="M10.9996 3.20001C11.0396 3.20001 11.0796 3.20001 11.1196 3.19001C11.1596 3.18001 11.1896 3.17001 11.2296 3.15001C11.2696 3.14001 11.2996 3.12001 11.3296 3.10001C11.3696 3.08001 11.3996 3.05001 11.4196 3.02001C11.4496 3.00001 11.4796 2.97001 11.4996 2.93001C11.5196 2.90001 11.5396 2.87001 11.5496 2.83001C11.5696 2.79001 11.5796 2.76001 11.5896 2.72001C11.5996 2.68001 11.5996 2.64001 11.5996 2.60001C11.5996 2.56001 11.5996 2.52001 11.5896 2.48001C11.5796 2.44001 11.5696 2.41001 11.5496 2.37001C11.5396 2.33001 11.5196 2.30001 11.4996 2.27001C11.4796 2.23001 11.4496 2.20001 11.4196 2.18001C11.3996 2.15001 11.3696 2.12001 11.3296 2.10001C11.2996 2.08001 11.2696 2.06001 11.2296 2.05001C11.1896 2.03001 11.1596 2.02001 11.1196 2.01001C11.0796 2.00001 11.0396 2.00001 10.9996 2.00001L8.59961 2.00001C8.55961 2.00001 8.51961 2.00001 8.47961 2.01001C8.43961 2.02001 8.40961 2.03001 8.36961 2.05001C8.32961 2.06001 8.29961 2.08001 8.26961 2.10001C8.22961 2.12001 8.19961 2.15001 8.17961 2.18001C8.14961 2.20001 8.11961 2.23001 8.09961 2.27001C8.07961 2.30001 8.05961 2.33001 8.04961 2.37001C8.02961 2.41001 8.01961 2.44001 8.00961 2.48001C7.99961 2.52001 7.99961 2.56001 7.99961 2.60001C7.99961 2.64001 7.99961 2.68001 8.00961 2.72001C8.01961 2.76001 8.02961 2.79001 8.04961 2.83001C8.05961 2.87001 8.07961 2.90001 8.09961 2.93001C8.11961 2.97001 8.14961 3.00001 8.17961 3.02001C8.19961 3.05001 8.22961 3.08001 8.26961 3.10001C8.29961 3.12001 8.32961 3.14001 8.36961 3.15001C8.40961 3.17001 8.43961 3.18001 8.47961 3.19001C8.51961 3.20001 8.55961 3.20001 8.59961 3.20001L10.9996 3.20001Z">
        </path>
      </g>
      <g opacity="1" transform="translate(5 11.4000244140625)  rotate(0)">
        <path id="矩形 3 (轮廓)" fill-rule="evenodd" style="fill:#A0A3B8" opacity="1"
          d="M0,4.6v-4c0,-0.04 0,-0.08 0.01,-0.12c0.01,-0.04 0.02,-0.07 0.04,-0.11c0.01,-0.04 0.03,-0.07 0.05,-0.1c0.02,-0.04 0.05,-0.07 0.08,-0.09c0.02,-0.03 0.05,-0.06 0.09,-0.08c0.03,-0.02 0.06,-0.04 0.1,-0.05c0.04,-0.02 0.07,-0.03 0.11,-0.04c0.04,-0.01 0.08,-0.01 0.12,-0.01h12.8c0.04,0 0.08,0 0.12,0.01c0.04,0.01 0.07,0.02 0.11,0.04c0.04,0.01 0.07,0.03 0.1,0.05c0.04,0.02 0.07,0.05 0.09,0.08c0.03,0.02 0.06,0.05 0.08,0.09c0.02,0.03 0.04,0.06 0.05,0.1c0.02,0.04 0.03,0.07 0.04,0.11c0.01,0.04 0.01,0.08 0.01,0.12v4c0,0.04 0,0.08 -0.01,0.12c-0.01,0.04 -0.02,0.07 -0.04,0.11c-0.01,0.04 -0.03,0.07 -0.05,0.1c-0.02,0.04 -0.05,0.07 -0.08,0.09c-0.02,0.03 -0.05,0.06 -0.09,0.08c-0.03,0.02 -0.06,0.04 -0.1,0.05c-0.04,0.02 -0.07,0.03 -0.11,0.04c-0.04,0.01 -0.08,0.01 -0.12,0.01h-12.8c-0.04,0 -0.08,0 -0.12,-0.01c-0.04,-0.01 -0.07,-0.02 -0.11,-0.04c-0.04,-0.01 -0.07,-0.03 -0.1,-0.05c-0.04,-0.02 -0.07,-0.05 -0.09,-0.08c-0.03,-0.02 -0.06,-0.05 -0.08,-0.09c-0.02,-0.03 -0.04,-0.06 -0.05,-0.1c-0.02,-0.04 -0.03,-0.07 -0.04,-0.11c-0.01,-0.04 -0.01,-0.08 -0.01,-0.12zM1.2,1.2v2.8h11.6v-2.8z">
        </path>
        <path id="直线 4 (轮廓)" fill-rule="evenodd" style="fill:#495AD4" opacity="1"
          d="M10.9996 3.19995C11.0396 3.19995 11.0796 3.19995 11.1196 3.18995C11.1596 3.17995 11.1896 3.16995 11.2296 3.14995C11.2696 3.13995 11.2996 3.11995 11.3296 3.09995C11.3696 3.07995 11.3996 3.04995 11.4196 3.01995C11.4496 2.99995 11.4796 2.96995 11.4996 2.92995C11.5196 2.89995 11.5396 2.86995 11.5496 2.82995C11.5696 2.78995 11.5796 2.75995 11.5896 2.71995C11.5996 2.67995 11.5996 2.63995 11.5996 2.59995C11.5996 2.55995 11.5996 2.51995 11.5896 2.47995C11.5796 2.43995 11.5696 2.40995 11.5496 2.36995C11.5396 2.32995 11.5196 2.29995 11.4996 2.26995C11.4796 2.22995 11.4496 2.19995 11.4196 2.17995C11.3996 2.14995 11.3696 2.11995 11.3296 2.09995C11.2996 2.07995 11.2696 2.05995 11.2296 2.04995C11.1896 2.02995 11.1596 2.01995 11.1196 2.00995C11.0796 1.99995 11.0396 1.99995 10.9996 1.99995L8.59961 1.99995C8.55961 1.99995 8.51961 1.99995 8.47961 2.00995C8.43961 2.01995 8.40961 2.02995 8.36961 2.04995C8.32961 2.05995 8.29961 2.07995 8.26961 2.09995C8.22961 2.11995 8.19961 2.14995 8.17961 2.17995C8.14961 2.19995 8.11961 2.22995 8.09961 2.26995C8.07961 2.29995 8.05961 2.32995 8.04961 2.36995C8.02961 2.40995 8.01961 2.43995 8.00961 2.47995C7.99961 2.51995 7.99961 2.55995 7.99961 2.59995C7.99961 2.63995 7.99961 2.67995 8.00961 2.71995C8.01961 2.75995 8.02961 2.78995 8.04961 2.82995C8.05961 2.86995 8.07961 2.89995 8.09961 2.92995C8.11961 2.96995 8.14961 2.99995 8.17961 3.01995C8.19961 3.04995 8.22961 3.07995 8.26961 3.09995C8.29961 3.11995 8.32961 3.13995 8.36961 3.14995C8.40961 3.16995 8.43961 3.17995 8.47961 3.18995C8.51961 3.19995 8.55961 3.19995 8.59961 3.19995L10.9996 3.19995Z">
        </path>
      </g>
      <path id="直线 5 (轮廓)" fill-rule="evenodd" style="fill:#A0A3B8" opacity="1"
        d="M12.5996 9.6C12.5996 9.56 12.5996 9.52 12.5896 9.48C12.5796 9.44 12.5696 9.41 12.5496 9.37C12.5396 9.33 12.5196 9.3 12.4996 9.27C12.4796 9.23 12.4496 9.2 12.4196 9.18C12.3996 9.15 12.3696 9.12 12.3296 9.1C12.2996 9.08 12.2696 9.06 12.2296 9.05C12.1896 9.03 12.1596 9.02 12.1196 9.01C12.0796 9 12.0396 9 11.9996 9C11.9596 9 11.9196 9 11.8796 9.01C11.8396 9.02 11.8096 9.03 11.7696 9.05C11.7296 9.06 11.6996 9.08 11.6696 9.1C11.6296 9.12 11.5996 9.15 11.5796 9.18C11.5496 9.2 11.5196 9.23 11.4996 9.27C11.4796 9.3 11.4596 9.33 11.4496 9.37C11.4296 9.41 11.4196 9.44 11.4096 9.48C11.3996 9.52 11.3996 9.56 11.3996 9.6L11.3996 12C11.3996 12.04 11.3996 12.08 11.4096 12.12C11.4196 12.16 11.4296 12.19 11.4496 12.23C11.4596 12.27 11.4796 12.3 11.4996 12.33C11.5196 12.37 11.5496 12.4 11.5796 12.42C11.5996 12.45 11.6296 12.48 11.6696 12.5C11.6996 12.52 11.7296 12.54 11.7696 12.55C11.8096 12.57 11.8396 12.58 11.8796 12.59C11.9196 12.6 11.9596 12.6 11.9996 12.6C12.0396 12.6 12.0796 12.6 12.1196 12.59C12.1596 12.58 12.1896 12.57 12.2296 12.55C12.2696 12.54 12.2996 12.52 12.3296 12.5C12.3696 12.48 12.3996 12.45 12.4196 12.42C12.4496 12.4 12.4796 12.37 12.4996 12.33C12.5196 12.3 12.5396 12.27 12.5496 12.23C12.5696 12.19 12.5796 12.16 12.5896 12.12C12.5996 12.08 12.5996 12.04 12.5996 12L12.5996 9.6Z">
      </path>
      <path id="直线 6 (轮廓)" fill-rule="evenodd" style="fill:#A0A3B8" opacity="1"
        d="M12.5996 16C12.5996 15.96 12.5996 15.92 12.5896 15.88C12.5796 15.84 12.5696 15.81 12.5496 15.77C12.5396 15.73 12.5196 15.7 12.4996 15.67C12.4796 15.63 12.4496 15.6 12.4196 15.58C12.3996 15.55 12.3696 15.52 12.3296 15.5C12.2996 15.48 12.2696 15.46 12.2296 15.45C12.1896 15.43 12.1596 15.42 12.1196 15.41C12.0796 15.4 12.0396 15.4 11.9996 15.4C11.9596 15.4 11.9196 15.4 11.8796 15.41C11.8396 15.42 11.8096 15.43 11.7696 15.45C11.7296 15.46 11.6996 15.48 11.6696 15.5C11.6296 15.52 11.5996 15.55 11.5796 15.58C11.5496 15.6 11.5196 15.63 11.4996 15.67C11.4796 15.7 11.4596 15.73 11.4496 15.77C11.4296 15.81 11.4196 15.84 11.4096 15.88C11.3996 15.92 11.3996 15.96 11.3996 16L11.3996 18.4C11.3996 18.44 11.3996 18.48 11.4096 18.52C11.4196 18.56 11.4296 18.59 11.4496 18.63C11.4596 18.67 11.4796 18.7 11.4996 18.73C11.5196 18.77 11.5496 18.8 11.5796 18.82C11.5996 18.85 11.6296 18.88 11.6696 18.9C11.6996 18.92 11.7296 18.94 11.7696 18.95C11.8096 18.97 11.8396 18.98 11.8796 18.99C11.9196 19 11.9596 19 11.9996 19C12.0396 19 12.0796 19 12.1196 18.99C12.1596 18.98 12.1896 18.97 12.2296 18.95C12.2696 18.94 12.2996 18.92 12.3296 18.9C12.3696 18.88 12.3996 18.85 12.4196 18.82C12.4496 18.8 12.4796 18.77 12.4996 18.73C12.5196 18.7 12.5396 18.67 12.5496 18.63C12.5696 18.59 12.5796 18.56 12.5896 18.52C12.5996 18.48 12.5996 18.44 12.5996 18.4L12.5996 16Z">
      </path>
      <path id="直线 7 (轮廓)" fill-rule="evenodd" style="fill:#A0A3B8" opacity="1"
        d="M6.3998 17.8C6.3598 17.8 6.3198 17.8 6.2798 17.81C6.2398 17.82 6.2098 17.83 6.1698 17.85C6.1298 17.86 6.0998 17.88 6.0698 17.9C6.0298 17.92 5.9998 17.95 5.9798 17.98C5.9498 18 5.9198 18.03 5.8998 18.07C5.8798 18.1 5.8598 18.13 5.8498 18.17C5.8298 18.21 5.8198 18.24 5.8098 18.28C5.7998 18.32 5.7998 18.36 5.7998 18.4C5.7998 18.44 5.7998 18.48 5.8098 18.52C5.8198 18.56 5.8298 18.59 5.8498 18.63C5.8598 18.67 5.8798 18.7 5.8998 18.73C5.9198 18.77 5.9498 18.8 5.9798 18.82C5.9998 18.85 6.0298 18.88 6.0698 18.9C6.0998 18.92 6.1298 18.94 6.1698 18.95C6.2098 18.97 6.2398 18.98 6.2798 18.99C6.3198 19 6.3598 19 6.3998 19L17.5998 19C17.6398 19 17.6798 19 17.7198 18.99C17.7598 18.98 17.7898 18.97 17.8298 18.95C17.8698 18.94 17.8998 18.92 17.9298 18.9C17.9698 18.88 17.9998 18.85 18.0198 18.82C18.0498 18.8 18.0798 18.77 18.0998 18.73C18.1198 18.7 18.1398 18.67 18.1498 18.63C18.1698 18.59 18.1798 18.56 18.1898 18.52C18.1998 18.48 18.1998 18.44 18.1998 18.4C18.1998 18.36 18.1998 18.32 18.1898 18.28C18.1798 18.24 18.1698 18.21 18.1498 18.17C18.1398 18.13 18.1198 18.1 18.0998 18.07C18.0798 18.03 18.0498 18 18.0198 17.98C17.9998 17.95 17.9698 17.92 17.9298 17.9C17.8998 17.88 17.8698 17.86 17.8298 17.85C17.7898 17.83 17.7598 17.82 17.7198 17.81C17.6798 17.8 17.6398 17.8 17.5998 17.8L6.3998 17.8Z">
      </path>
    </g>
  </g>
  <defs>
    <rect id="path_0" x="0" y="0" width="24" height="24" />
  </defs>
</svg>