<svg xmlns="http://www.w3.org/2000/svg" xmlns:xlink="http://www.w3.org/1999/xlink" width="24" height="24"
  viewBox="0 0 24 24" fill="none">
  <g opacity="1" transform="translate(0 0)  rotate(0)">
    <g mask="url(#bg-mask-0)">
      <g opacity="1" transform="translate(5 5)  rotate(0)">
        <path id="矩形 3 (轮廓)" fill-rule="evenodd" style="fill:#A0A3B8" opacity="1"
          d="M0,4.6v-4c0,-0.04 0,-0.08 0.01,-0.12c0.01,-0.04 0.02,-0.07 0.04,-0.11c0.01,-0.04 0.03,-0.07 0.05,-0.1c0.02,-0.04 0.05,-0.07 0.08,-0.09c0.02,-0.03 0.05,-0.06 0.09,-0.08c0.03,-0.02 0.06,-0.04 0.1,-0.05c0.04,-0.02 0.07,-0.03 0.11,-0.04c0.04,-0.01 0.08,-0.01 0.12,-0.01h12.8c0.04,0 0.08,0 0.12,0.01c0.04,0.01 0.07,0.02 0.11,0.04c0.04,0.01 0.07,0.03 0.1,0.05c0.04,0.02 0.07,0.05 0.09,0.08c0.03,0.02 0.06,0.05 0.08,0.09c0.02,0.03 0.04,0.06 0.05,0.1c0.02,0.04 0.03,0.07 0.04,0.11c0.01,0.04 0.01,0.08 0.01,0.12v4c0,0.04 0,0.08 -0.01,0.12c-0.01,0.04 -0.02,0.07 -0.04,0.11c-0.01,0.04 -0.03,0.07 -0.05,0.1c-0.02,0.04 -0.05,0.07 -0.08,0.09c-0.02,0.03 -0.05,0.06 -0.09,0.08c-0.03,0.02 -0.06,0.04 -0.1,0.05c-0.04,0.02 -0.07,0.03 -0.11,0.04c-0.04,0.01 -0.08,0.01 -0.12,0.01h-12.8c-0.04,0 -0.08,0 -0.12,-0.01c-0.04,-0.01 -0.07,-0.02 -0.11,-0.04c-0.04,-0.01 -0.07,-0.03 -0.1,-0.05c-0.04,-0.02 -0.07,-0.05 -0.09,-0.08c-0.03,-0.02 -0.06,-0.05 -0.08,-0.09c-0.02,-0.03 -0.04,-0.06 -0.05,-0.1c-0.02,-0.04 -0.03,-0.07 -0.04,-0.11c-0.01,-0.04 -0.01,-0.08 -0.01,-0.12zM1.2,1.2v2.8h11.6v-2.8z">
        </path>
        <path id="直线 4 (轮廓)" fill-rule="evenodd" style="fill:#495AD4" opacity="1"
          d="M10.9996 3.19995C11.0396 3.19995 11.0796 3.19995 11.1196 3.18995C11.1596 3.17995 11.1896 3.16995 11.2296 3.14995C11.2696 3.13995 11.2996 3.11995 11.3296 3.09995C11.3696 3.07995 11.3996 3.04995 11.4196 3.01995C11.4496 2.99995 11.4796 2.96995 11.4996 2.92995C11.5196 2.89995 11.5396 2.86995 11.5496 2.82995C11.5696 2.78995 11.5796 2.75995 11.5896 2.71995C11.5996 2.67995 11.5996 2.63995 11.5996 2.59995C11.5996 2.55995 11.5996 2.51995 11.5896 2.47995C11.5796 2.43995 11.5696 2.40995 11.5496 2.36995C11.5396 2.32995 11.5196 2.29995 11.4996 2.26995C11.4796 2.22995 11.4496 2.19995 11.4196 2.17995C11.3996 2.14995 11.3696 2.11995 11.3296 2.09995C11.2996 2.07995 11.2696 2.05995 11.2296 2.04995C11.1896 2.02995 11.1596 2.01995 11.1196 2.00995C11.0796 1.99995 11.0396 1.99995 10.9996 1.99995L8.59961 1.99995C8.55961 1.99995 8.51961 1.99995 8.47961 2.00995C8.43961 2.01995 8.40961 2.02995 8.36961 2.04995C8.32961 2.05995 8.29961 2.07995 8.26961 2.09995C8.22961 2.11995 8.19961 2.14995 8.17961 2.17995C8.14961 2.19995 8.11961 2.22995 8.09961 2.26995C8.07961 2.29995 8.05961 2.32995 8.04961 2.36995C8.02961 2.40995 8.01961 2.43995 8.00961 2.47995C7.99961 2.51995 7.99961 2.55995 7.99961 2.59995C7.99961 2.63995 7.99961 2.67995 8.00961 2.71995C8.01961 2.75995 8.02961 2.78995 8.04961 2.82995C8.05961 2.86995 8.07961 2.89995 8.09961 2.92995C8.11961 2.96995 8.14961 2.99995 8.17961 3.01995C8.19961 3.04995 8.22961 3.07995 8.26961 3.09995C8.29961 3.11995 8.32961 3.13995 8.36961 3.14995C8.40961 3.16995 8.43961 3.17995 8.47961 3.18995C8.51961 3.19995 8.55961 3.19995 8.59961 3.19995L10.9996 3.19995Z">
        </path>
      </g>
      <g opacity="1" transform="translate(5 11.39990234375)  rotate(0)">
        <path id="矩形 3 (轮廓)" fill-rule="evenodd" style="fill:#A0A3B8" opacity="1"
          d="M0,4.6v-4c0,-0.04 0,-0.08 0.01,-0.12c0.01,-0.04 0.02,-0.07 0.04,-0.11c0.01,-0.04 0.03,-0.07 0.05,-0.1c0.02,-0.04 0.05,-0.07 0.08,-0.09c0.02,-0.03 0.05,-0.06 0.09,-0.08c0.03,-0.02 0.06,-0.04 0.1,-0.05c0.04,-0.02 0.07,-0.03 0.11,-0.04c0.04,-0.01 0.08,-0.01 0.12,-0.01h12.8c0.04,0 0.08,0 0.12,0.01c0.04,0.01 0.07,0.02 0.11,0.04c0.04,0.01 0.07,0.03 0.1,0.05c0.04,0.02 0.07,0.05 0.09,0.08c0.03,0.02 0.06,0.05 0.08,0.09c0.02,0.03 0.04,0.06 0.05,0.1c0.02,0.04 0.03,0.07 0.04,0.11c0.01,0.04 0.01,0.08 0.01,0.12v4c0,0.04 0,0.08 -0.01,0.12c-0.01,0.04 -0.02,0.07 -0.04,0.11c-0.01,0.04 -0.03,0.07 -0.05,0.1c-0.02,0.04 -0.05,0.07 -0.08,0.09c-0.02,0.03 -0.05,0.06 -0.09,0.08c-0.03,0.02 -0.06,0.04 -0.1,0.05c-0.04,0.02 -0.07,0.03 -0.11,0.04c-0.04,0.01 -0.08,0.01 -0.12,0.01h-12.8c-0.04,0 -0.08,0 -0.12,-0.01c-0.04,-0.01 -0.07,-0.02 -0.11,-0.04c-0.04,-0.01 -0.07,-0.03 -0.1,-0.05c-0.04,-0.02 -0.07,-0.05 -0.09,-0.08c-0.03,-0.02 -0.06,-0.05 -0.08,-0.09c-0.02,-0.03 -0.04,-0.06 -0.05,-0.1c-0.02,-0.04 -0.03,-0.07 -0.04,-0.11c-0.01,-0.04 -0.01,-0.08 -0.01,-0.12zM1.2,1.2v2.8h11.6v-2.8z">
        </path>
        <path id="直线 4 (轮廓)" fill-rule="evenodd" style="fill:#495AD4" opacity="1"
          d="M10.9996 3.2002C11.0396 3.2002 11.0796 3.2002 11.1196 3.1902C11.1596 3.1802 11.1896 3.1702 11.2296 3.1502C11.2696 3.1402 11.2996 3.1202 11.3296 3.1002C11.3696 3.0802 11.3996 3.0502 11.4196 3.0202C11.4496 3.0002 11.4796 2.9702 11.4996 2.9302C11.5196 2.9002 11.5396 2.8702 11.5496 2.8302C11.5696 2.7902 11.5796 2.7602 11.5896 2.7202C11.5996 2.6802 11.5996 2.6402 11.5996 2.6002C11.5996 2.5602 11.5996 2.5202 11.5896 2.4802C11.5796 2.4402 11.5696 2.4102 11.5496 2.3702C11.5396 2.3302 11.5196 2.3002 11.4996 2.2702C11.4796 2.2302 11.4496 2.2002 11.4196 2.1802C11.3996 2.1502 11.3696 2.1202 11.3296 2.1002C11.2996 2.0802 11.2696 2.0602 11.2296 2.0502C11.1896 2.0302 11.1596 2.0202 11.1196 2.0102C11.0796 2.0002 11.0396 2.0002 10.9996 2.0002L8.59961 2.0002C8.55961 2.0002 8.51961 2.0002 8.47961 2.0102C8.43961 2.0202 8.40961 2.0302 8.36961 2.0502C8.32961 2.0602 8.29961 2.0802 8.26961 2.1002C8.22961 2.1202 8.19961 2.1502 8.17961 2.1802C8.14961 2.2002 8.11961 2.2302 8.09961 2.2702C8.07961 2.3002 8.05961 2.3302 8.04961 2.3702C8.02961 2.4102 8.01961 2.4402 8.00961 2.4802C7.99961 2.5202 7.99961 2.5602 7.99961 2.6002C7.99961 2.6402 7.99961 2.6802 8.00961 2.7202C8.01961 2.7602 8.02961 2.7902 8.04961 2.8302C8.05961 2.8702 8.07961 2.9002 8.09961 2.9302C8.11961 2.9702 8.14961 3.0002 8.17961 3.0202C8.19961 3.0502 8.22961 3.0802 8.26961 3.1002C8.29961 3.1202 8.32961 3.1402 8.36961 3.1502C8.40961 3.1702 8.43961 3.1802 8.47961 3.1902C8.51961 3.2002 8.55961 3.2002 8.59961 3.2002L10.9996 3.2002Z">
        </path>
      </g>
      <path id="直线 5 (轮廓)" fill-rule="evenodd" style="fill:#A0A3B8" opacity="1"
        d="M12.5996 9.6C12.5996 9.56 12.5996 9.52 12.5896 9.48C12.5796 9.44 12.5696 9.41 12.5496 9.37C12.5396 9.33 12.5196 9.3 12.4996 9.27C12.4796 9.23 12.4496 9.2 12.4196 9.18C12.3996 9.15 12.3696 9.12 12.3296 9.1C12.2996 9.08 12.2696 9.06 12.2296 9.05C12.1896 9.03 12.1596 9.02 12.1196 9.01C12.0796 9 12.0396 9 11.9996 9C11.9596 9 11.9196 9 11.8796 9.01C11.8396 9.02 11.8096 9.03 11.7696 9.05C11.7296 9.06 11.6996 9.08 11.6696 9.1C11.6296 9.12 11.5996 9.15 11.5796 9.18C11.5496 9.2 11.5196 9.23 11.4996 9.27C11.4796 9.3 11.4596 9.33 11.4496 9.37C11.4296 9.41 11.4196 9.44 11.4096 9.48C11.3996 9.52 11.3996 9.56 11.3996 9.6L11.3996 12C11.3996 12.04 11.3996 12.08 11.4096 12.12C11.4196 12.16 11.4296 12.19 11.4496 12.23C11.4596 12.27 11.4796 12.3 11.4996 12.33C11.5196 12.37 11.5496 12.4 11.5796 12.42C11.5996 12.45 11.6296 12.48 11.6696 12.5C11.6996 12.52 11.7296 12.54 11.7696 12.55C11.8096 12.57 11.8396 12.58 11.8796 12.59C11.9196 12.6 11.9596 12.6 11.9996 12.6C12.0396 12.6 12.0796 12.6 12.1196 12.59C12.1596 12.58 12.1896 12.57 12.2296 12.55C12.2696 12.54 12.2996 12.52 12.3296 12.5C12.3696 12.48 12.3996 12.45 12.4196 12.42C12.4496 12.4 12.4796 12.37 12.4996 12.33C12.5196 12.3 12.5396 12.27 12.5496 12.23C12.5696 12.19 12.5796 12.16 12.5896 12.12C12.5996 12.08 12.5996 12.04 12.5996 12L12.5996 9.6Z">
      </path>
      <path id="直线 6 (轮廓)" fill-rule="evenodd" style="fill:#A0A3B8" opacity="1"
        d="M12.5996 15.9999C12.5996 15.9599 12.5996 15.9199 12.5896 15.8799C12.5796 15.8399 12.5696 15.8099 12.5496 15.7699C12.5396 15.7299 12.5196 15.6999 12.4996 15.6699C12.4796 15.6299 12.4496 15.5999 12.4196 15.5799C12.3996 15.5499 12.3696 15.5199 12.3296 15.4999C12.2996 15.4799 12.2696 15.4599 12.2296 15.4499C12.1896 15.4299 12.1596 15.4199 12.1196 15.4099C12.0796 15.3999 12.0396 15.3999 11.9996 15.3999C11.9596 15.3999 11.9196 15.3999 11.8796 15.4099C11.8396 15.4199 11.8096 15.4299 11.7696 15.4499C11.7296 15.4599 11.6996 15.4799 11.6696 15.4999C11.6296 15.5199 11.5996 15.5499 11.5796 15.5799C11.5496 15.5999 11.5196 15.6299 11.4996 15.6699C11.4796 15.6999 11.4596 15.7299 11.4496 15.7699C11.4296 15.8099 11.4196 15.8399 11.4096 15.8799C11.3996 15.9199 11.3996 15.9599 11.3996 15.9999L11.3996 18.3999C11.3996 18.4399 11.3996 18.4799 11.4096 18.5199C11.4196 18.5599 11.4296 18.5899 11.4496 18.6299C11.4596 18.6699 11.4796 18.6999 11.4996 18.7299C11.5196 18.7699 11.5496 18.7999 11.5796 18.8199C11.5996 18.8499 11.6296 18.8799 11.6696 18.8999C11.6996 18.9199 11.7296 18.9399 11.7696 18.9499C11.8096 18.9699 11.8396 18.9799 11.8796 18.9899C11.9196 18.9999 11.9596 18.9999 11.9996 18.9999C12.0396 18.9999 12.0796 18.9999 12.1196 18.9899C12.1596 18.9799 12.1896 18.9699 12.2296 18.9499C12.2696 18.9399 12.2996 18.9199 12.3296 18.8999C12.3696 18.8799 12.3996 18.8499 12.4196 18.8199C12.4496 18.7999 12.4796 18.7699 12.4996 18.7299C12.5196 18.6999 12.5396 18.6699 12.5496 18.6299C12.5696 18.5899 12.5796 18.5599 12.5896 18.5199C12.5996 18.4799 12.5996 18.4399 12.5996 18.3999L12.5996 15.9999Z">
      </path>
      <path id="直线 7 (轮廓)" fill-rule="evenodd" style="fill:#A0A3B8" opacity="1"
        d="M6.3998 17.8C6.3598 17.8 6.3198 17.8 6.2798 17.81C6.2398 17.82 6.2098 17.83 6.1698 17.85C6.1298 17.86 6.0998 17.88 6.0698 17.9C6.0298 17.92 5.9998 17.95 5.9798 17.98C5.9498 18 5.9198 18.03 5.8998 18.07C5.8798 18.1 5.8598 18.13 5.8498 18.17C5.8298 18.21 5.8198 18.24 5.8098 18.28C5.7998 18.32 5.7998 18.36 5.7998 18.4C5.7998 18.44 5.7998 18.48 5.8098 18.52C5.8198 18.56 5.8298 18.59 5.8498 18.63C5.8598 18.67 5.8798 18.7 5.8998 18.73C5.9198 18.77 5.9498 18.8 5.9798 18.82C5.9998 18.85 6.0298 18.88 6.0698 18.9C6.0998 18.92 6.1298 18.94 6.1698 18.95C6.2098 18.97 6.2398 18.98 6.2798 18.99C6.3198 19 6.3598 19 6.3998 19L17.5998 19C17.6398 19 17.6798 19 17.7198 18.99C17.7598 18.98 17.7898 18.97 17.8298 18.95C17.8698 18.94 17.8998 18.92 17.9298 18.9C17.9698 18.88 17.9998 18.85 18.0198 18.82C18.0498 18.8 18.0798 18.77 18.0998 18.73C18.1198 18.7 18.1398 18.67 18.1498 18.63C18.1698 18.59 18.1798 18.56 18.1898 18.52C18.1998 18.48 18.1998 18.44 18.1998 18.4C18.1998 18.36 18.1998 18.32 18.1898 18.28C18.1798 18.24 18.1698 18.21 18.1498 18.17C18.1398 18.13 18.1198 18.1 18.0998 18.07C18.0798 18.03 18.0498 18 18.0198 17.98C17.9998 17.95 17.9698 17.92 17.9298 17.9C17.8998 17.88 17.8698 17.86 17.8298 17.85C17.7898 17.83 17.7598 17.82 17.7198 17.81C17.6798 17.8 17.6398 17.8 17.5998 17.8L6.3998 17.8Z">
      </path>
    </g>
  </g>
  <defs>
    <rect id="path_0" x="0" y="0" width="24" height="24" />
  </defs>
</svg>