<svg xmlns="http://www.w3.org/2000/svg" xmlns:xlink="http://www.w3.org/1999/xlink" width="24" height="24" viewBox="0 0 24 24" fill="none">
<path d="M15.0364 4.81348C14.0698 4.40462 13.0577 4.2002 12.0002 4.2002C11.9608 4.2002 11.9218 4.20404 11.8831 4.21172C11.8445 4.21941 11.807 4.23079 11.7706 4.24587C11.7342 4.26094 11.6996 4.27943 11.6669 4.30131C11.6341 4.3232 11.6038 4.34807 11.5759 4.37593C11.5481 4.40379 11.5232 4.4341 11.5013 4.46685C11.4794 4.49961 11.4609 4.53419 11.4459 4.57058C11.4308 4.60698 11.4194 4.6445 11.4117 4.68314C11.404 4.72178 11.4002 4.7608 11.4002 4.8002C11.4002 4.83959 11.404 4.87861 11.4117 4.91725C11.4194 4.95589 11.4308 4.99341 11.4459 5.02981C11.4609 5.0662 11.4794 5.10078 11.5013 5.13354C11.5232 5.16629 11.5481 5.1966 11.5759 5.22446C11.6038 5.25232 11.6341 5.27719 11.6669 5.29908C11.6996 5.32096 11.7342 5.33945 11.7706 5.35452C11.807 5.3696 11.8445 5.38098 11.8831 5.38867C11.9218 5.39635 11.9608 5.4002 12.0002 5.4002C12.8955 5.4002 13.7517 5.57302 14.5688 5.91866C15.3583 6.25264 16.0577 6.72424 16.6669 7.33346C17.2761 7.94267 17.7477 8.64205 18.0817 9.43158C18.4274 10.2487 18.6002 11.1049 18.6002 12.0002C18.6002 12.8955 18.4274 13.7517 18.0817 14.5688C17.7477 15.3583 17.2761 16.0577 16.6669 16.6669C16.0577 17.2761 15.3583 17.7477 14.5688 18.0817C13.7517 18.4274 12.8955 18.6002 12.0002 18.6002C11.1049 18.6002 10.2487 18.4274 9.43158 18.0817C8.64205 17.7477 7.94268 17.2761 7.33346 16.6669C6.72424 16.0577 6.25264 15.3583 5.91866 14.5688C5.57302 13.7517 5.4002 12.8955 5.4002 12.0002C5.4002 11.1031 5.57333 10.2462 5.9196 9.42938C6.25403 8.6405 6.72588 7.9433 7.33516 7.33776L7.332 7.33459C7.33243 7.33416 7.33286 7.33372 7.33329 7.33329C7.36115 7.30544 7.38602 7.27513 7.40791 7.24237C7.4298 7.20961 7.44828 7.17504 7.46336 7.13864C7.47843 7.10224 7.48981 7.06472 7.4975 7.02608C7.50519 6.98744 7.50903 6.94842 7.50903 6.90903C7.50903 6.86963 7.50519 6.83061 7.4975 6.79197C7.48981 6.75333 7.47843 6.71581 7.46336 6.67942C7.44828 6.64302 7.4298 6.60844 7.40791 6.57568C7.38602 6.54293 7.36115 6.51262 7.33329 6.48476C7.30544 6.45691 7.27513 6.43204 7.24237 6.41015C7.20961 6.38826 7.17504 6.36978 7.13864 6.3547C7.10224 6.33962 7.06472 6.32824 7.02608 6.32056C6.98744 6.31287 6.94843 6.30903 6.90903 6.30903C6.86963 6.30903 6.83061 6.31287 6.79197 6.32056C6.75333 6.32824 6.71581 6.33962 6.67942 6.3547C6.64302 6.36978 6.60844 6.38826 6.57568 6.41015C6.54293 6.43204 6.51262 6.45691 6.48476 6.48476C6.4672 6.50233 6.45079 6.52091 6.43553 6.54051C5.74084 7.2441 5.20059 8.05093 4.81478 8.96101C4.40506 9.92752 4.2002 10.9406 4.2002 12.0002C4.2002 13.0577 4.40462 14.0698 4.81348 15.0364C5.20825 15.9696 5.7654 16.796 6.48493 17.5155C7.20447 18.235 8.03085 18.7921 8.96407 19.1869C9.93059 19.5958 10.9426 19.8002 12.0002 19.8002C13.0577 19.8002 14.0698 19.5958 15.0364 19.1869C15.9696 18.7921 16.796 18.235 17.5155 17.5155C18.235 16.796 18.7921 15.9696 19.1869 15.0364C19.5958 14.0698 19.8002 13.0577 19.8002 12.0002C19.8002 10.9426 19.5958 9.93059 19.1869 8.96407C18.7921 8.03085 18.235 7.20447 17.5155 6.48493C16.796 5.7654 15.9696 5.20824 15.0364 4.81348Z"   fill="#A0A3B8" >
</path>
<path d="M12.5996 12.0004L12.5996 8.00039C12.5996 7.96099 12.5958 7.92198 12.5881 7.88334C12.5804 7.8447 12.569 7.80718 12.5539 7.77078C12.5389 7.73438 12.5204 7.69981 12.4985 7.66705C12.4766 7.63429 12.4517 7.60398 12.4239 7.57613C12.396 7.54827 12.3657 7.5234 12.333 7.50151C12.3002 7.47962 12.2656 7.46114 12.2292 7.44606C12.1928 7.43099 12.1553 7.41961 12.1167 7.41192C12.078 7.40423 12.039 7.40039 11.9996 7.40039C11.9602 7.40039 11.9212 7.40423 11.8826 7.41192C11.8439 7.41961 11.8064 7.43099 11.77 7.44606C11.7336 7.46114 11.699 7.47962 11.6663 7.50151C11.6335 7.5234 11.6032 7.54827 11.5753 7.57613C11.5475 7.60398 11.5226 7.63429 11.5007 7.66705C11.4788 7.69981 11.4604 7.73438 11.4453 7.77078C11.4302 7.80718 11.4188 7.8447 11.4111 7.88334C11.4035 7.92198 11.3996 7.96099 11.3996 8.00039L11.3996 12.0004C11.3996 12.0398 11.4035 12.0788 11.4111 12.1174C11.4188 12.1561 11.4302 12.1936 11.4453 12.23C11.4604 12.2664 11.4788 12.301 11.5007 12.3337C11.5226 12.3665 11.5475 12.3968 11.5753 12.4247C11.6032 12.4525 11.6335 12.4774 11.6663 12.4993C11.699 12.5212 11.7336 12.5396 11.77 12.5547C11.8064 12.5698 11.8439 12.5812 11.8826 12.5889C11.9212 12.5965 11.9602 12.6004 11.9996 12.6004C12.039 12.6004 12.078 12.5965 12.1167 12.5889C12.1553 12.5812 12.1928 12.5698 12.2292 12.5547C12.2656 12.5396 12.3002 12.5212 12.333 12.4993C12.3657 12.4774 12.396 12.4525 12.4239 12.4247C12.4517 12.3968 12.4766 12.3665 12.4985 12.3337C12.5204 12.301 12.5389 12.2664 12.5539 12.23C12.569 12.1936 12.5804 12.1561 12.5881 12.1174C12.5958 12.0788 12.5996 12.0398 12.5996 12.0004Z"   fill="#495AD4" >
</path>
<path d="M16.0243 15.1756L12.4243 11.5756C12.3964 11.5478 12.3661 11.5229 12.3333 11.501C12.3006 11.4791 12.266 11.4606 12.2296 11.4456C12.1932 11.4305 12.1557 11.4191 12.1171 11.4114C12.0784 11.4037 12.0394 11.3999 12 11.3999C11.9606 11.3999 11.9216 11.4037 11.8829 11.4114C11.8443 11.4191 11.8068 11.4305 11.7704 11.4456C11.734 11.4606 11.6994 11.4791 11.6667 11.501C11.6339 11.5229 11.6036 11.5478 11.5757 11.5756C11.5479 11.6035 11.523 11.6338 11.5011 11.6666C11.4792 11.6993 11.4607 11.7339 11.4457 11.7703C11.4306 11.8067 11.4192 11.8442 11.4115 11.8828C11.4038 11.9215 11.4 11.9605 11.4 11.9999C11.4 12.0393 11.4038 12.0783 11.4115 12.1169C11.4192 12.1556 11.4306 12.1931 11.4457 12.2295C11.4607 12.2659 11.4792 12.3005 11.5011 12.3332C11.523 12.366 11.5479 12.3963 11.5757 12.4242L15.1757 16.0242C15.2036 16.052 15.2339 16.0769 15.2667 16.0988C15.2994 16.1207 15.334 16.1391 15.3704 16.1542C15.4068 16.1693 15.4443 16.1807 15.4829 16.1884C15.5216 16.1961 15.5606 16.1999 15.6 16.1999C15.6394 16.1999 15.6784 16.196 15.7171 16.1884C15.7557 16.1807 15.7932 16.1693 15.8296 16.1542C15.866 16.1391 15.9006 16.1207 15.9333 16.0988C15.9661 16.0769 15.9964 16.052 16.0243 16.0242C16.0521 15.9963 16.077 15.966 16.0989 15.9332C16.1208 15.9005 16.1393 15.8659 16.1543 15.8295C16.1694 15.7931 16.1808 15.7556 16.1885 15.7169C16.1962 15.6783 16.2 15.6393 16.2 15.5999C16.2 15.5605 16.1962 15.5215 16.1885 15.4828C16.1808 15.4442 16.1694 15.4067 16.1543 15.3703C16.1393 15.3339 16.1208 15.2993 16.0989 15.2666C16.077 15.2338 16.0521 15.2035 16.0243 15.1756Z"   fill="#495AD4" >
</path>
</svg>
