<svg xmlns="http://www.w3.org/2000/svg" xmlns:xlink="http://www.w3.org/1999/xlink" width="24" height="24" viewBox="0 0 24 24" fill="none">
<path d="M4.19995 8.79995L4.19995 18.4C4.19995 18.7313 4.46858 19 4.79995 19L19.2 19C19.5313 19 19.8 18.7313 19.8 18.4L19.8 8.79995C19.8 8.46858 19.5313 8.19995 19.2 8.19995L4.79995 8.19995C4.46858 8.19995 4.19995 8.46858 4.19995 8.79995ZM5.39995 17.8L5.39995 9.39995L18.6 9.39995L18.6 17.8L5.39995 17.8Z" fill-rule="evenodd"  fill="#A0A3B8" >
</path>
<path d="M4.19995 6.4L4.19995 5.6C4.19995 5.26863 4.46858 5 4.79995 5L19.2 5C19.5313 5 19.8 5.26863 19.8 5.6L19.8 6.4C19.8 6.73137 19.5313 7 19.2 7L4.79995 7C4.46858 7 4.19995 6.73137 4.19995 6.4Z" fill-rule="evenodd"  fill="#495AD4" >
</path>
<path d="M9.59995 8.19995C9.26858 8.19995 8.99995 8.46858 8.99995 8.79995L8.99995 18.4C8.99995 18.7313 9.26858 19 9.59995 19C9.93132 19 10.2 18.7313 10.2 18.4L10.2 8.79995C10.2 8.46858 9.93132 8.19995 9.59995 8.19995Z" fill-rule="evenodd"  fill="#A0A3B8" >
</path>
<path d="M14.4 8.19995C14.0686 8.19995 13.8 8.46858 13.8 8.79995L13.8 18.4C13.8 18.7313 14.0686 19 14.4 19C14.7314 19 15 18.7313 15 18.4L15 8.79995C15 8.46858 14.7314 8.19995 14.4 8.19995Z" fill-rule="evenodd"  fill="#A0A3B8" >
</path>
<path d="M4.19995 13.6C4.19995 13.9314 4.46858 14.2 4.79995 14.2L19.2 14.2C19.5313 14.2 19.8 13.9314 19.8 13.6C19.8 13.2686 19.5313 13 19.2 13L4.79995 13C4.46858 13 4.19995 13.2686 4.19995 13.6Z" fill-rule="evenodd"  fill="#A0A3B8" >
</path>
</svg>
