<svg xmlns="http://www.w3.org/2000/svg" xmlns:xlink="http://www.w3.org/1999/xlink" width="16" height="16" viewBox="0 0 16 16" fill="none">
<path d="M2.8 3.73334L2.8 12.2667C2.8 12.4876 2.97909 12.6667 3.2 12.6667L12.8 12.6667C13.0209 12.6667 13.2 12.4876 13.2 12.2667L13.2 3.73334C13.2 3.51242 13.0209 3.33334 12.8 3.33334L3.2 3.33334C2.97909 3.33334 2.8 3.51242 2.8 3.73334ZM3.6 11.8667L3.6 4.13334L12.4 4.13334L12.4 11.8667L3.6 11.8667Z" fill-rule="evenodd"  fill="#495AD4" >
</path>
<path d="M6.4 5.46667C6.17909 5.46667 6 5.64575 6 5.86667L6 12.2667C6 12.4876 6.17909 12.6667 6.4 12.6667C6.62091 12.6667 6.8 12.4876 6.8 12.2667L6.8 5.86667C6.8 5.64575 6.62091 5.46667 6.4 5.46667Z" fill-rule="evenodd"  fill="#495AD4" >
</path>
<path d="M9.6 5.46667C9.37909 5.46667 9.2 5.64575 9.2 5.86667L9.2 12.2667C9.2 12.4876 9.37909 12.6667 9.6 12.6667C9.82091 12.6667 10 12.4876 10 12.2667L10 5.86667C10 5.64575 9.82091 5.46667 9.6 5.46667Z" fill-rule="evenodd"  fill="#495AD4" >
</path>
<path d="M2.8 5.86667C2.8 6.08758 2.97909 6.26667 3.2 6.26667L12.8 6.26667C13.0209 6.26667 13.2 6.08758 13.2 5.86667C13.2 5.64575 13.0209 5.46667 12.8 5.46667L3.2 5.46667C2.97909 5.46667 2.8 5.64575 2.8 5.86667Z" fill-rule="evenodd"  fill="#495AD4" >
</path>
<path d="M2.8 9.06666C2.8 9.28758 2.97909 9.46666 3.2 9.46666L12.8 9.46666C13.0209 9.46666 13.2 9.28758 13.2 9.06666C13.2 8.84575 13.0209 8.66666 12.8 8.66666L3.2 8.66666C2.97909 8.66666 2.8 8.84575 2.8 9.06666Z" fill-rule="evenodd"  fill="#495AD4" >
</path>
</svg>
