<svg xmlns="http://www.w3.org/2000/svg" xmlns:xlink="http://www.w3.org/1999/xlink" width="16" height="16" viewBox="0 0 16 16" fill="none">
<path d="M2.8 3.73333C2.80154 3.62351 2.8406 3.52923 2.91716 3.45049C2.9959 3.37393 3.09018 3.33487 3.2 3.33333L6.4 3.33333C6.45302 3.33343 6.50405 3.34358 6.55307 3.36378C6.60202 3.38416 6.64528 3.41306 6.68284 3.45049L12.0162 8.78382C12.0927 8.86257 12.1318 8.95684 12.1333 9.06666C12.1318 9.17648 12.0927 9.27077 12.0162 9.34949L8.81616 12.5495C8.73744 12.6261 8.64315 12.6651 8.53333 12.6667C8.42351 12.6651 8.32924 12.6261 8.25049 12.5495L2.91716 7.21617C2.87973 7.17861 2.85083 7.13535 2.83045 7.0864C2.81025 7.03738 2.8001 6.98635 2.8 6.93333L2.8 3.73333ZM3.6 4.13333L3.6 6.76764L8.53333 11.701L11.1676 9.06666L6.23431 4.13333L3.6 4.13333ZM9.88299 5.05065L13.6162 8.78382C13.6927 8.86257 13.7318 8.95684 13.7333 9.06666C13.7318 9.17648 13.6927 9.27077 13.6162 9.34949L10.9498 12.0159L10.9495 12.0162C10.8771 12.0886 10.7771 12.1333 10.6667 12.1333C10.4458 12.1333 10.2667 11.9542 10.2667 11.7333C10.2667 11.6229 10.3114 11.5229 10.3838 11.4505L12.7676 9.06666L9.31733 5.61633L9.31717 5.61617C9.24475 5.54379 9.2 5.44379 9.2 5.33333C9.2 5.11242 9.37909 4.93333 9.6 4.93333C9.71045 4.93333 9.81045 4.9781 9.88283 5.05049L9.88299 5.05065Z" fill-rule="evenodd"  fill="#495AD4" >
</path>
<path d="M5.6 7.33333C6.26274 7.33333 6.8 6.79608 6.8 6.13333C6.8 5.47059 6.26274 4.93333 5.6 4.93333C4.93726 4.93333 4.4 5.47059 4.4 6.13333C4.4 6.79608 4.93726 7.33333 5.6 7.33333ZM5.6 5.73333C5.82091 5.73333 6 5.91242 6 6.13333C6 6.35425 5.82091 6.53333 5.6 6.53333C5.37909 6.53333 5.2 6.35425 5.2 6.13333C5.2 5.91242 5.37909 5.73333 5.6 5.73333Z" fill-rule="evenodd"  fill="#495AD4" >
</path>
</svg>
