<svg xmlns="http://www.w3.org/2000/svg" xmlns:xlink="http://www.w3.org/1999/xlink" width="24" height="24" viewBox="0 0 24 24" fill="none">
<path d="M12.0002 19.8C16.308 19.8 19.8002 16.3078 19.8002 12C19.8002 7.69213 16.308 4.19995 12.0002 4.19995C7.69237 4.19995 4.2002 7.69213 4.2002 12C4.2002 16.3078 7.69237 19.8 12.0002 19.8ZM12.0002 5.39995C15.6452 5.39995 18.6002 8.35487 18.6002 12C18.6002 15.645 15.6452 18.6 12.0002 18.6C8.35512 18.6 5.4002 15.645 5.4002 12C5.4002 8.35487 8.35512 5.39995 12.0002 5.39995Z" fill-rule="evenodd"  fill="#656A85" >
</path>
<path d="M6.6001 11.9999C6.6001 12.3313 6.86873 12.5999 7.2001 12.5999L16.8334 12.5999C17.1647 12.5999 17.4334 12.3313 17.4334 11.9999C17.4334 11.6685 17.1647 11.3999 16.8334 11.3999L7.2001 11.3999C6.86873 11.3999 6.6001 11.6685 6.6001 11.9999Z" fill-rule="evenodd"  fill="#656A85" >
</path>
<path d="M12.0001 6.6001C11.6687 6.6001 11.4001 6.86873 11.4001 7.2001L11.4001 16.8334C11.4001 17.1647 11.6687 17.4334 12.0001 17.4334C12.3315 17.4334 12.6001 17.1647 12.6001 16.8334L12.6001 7.2001C12.6001 6.86873 12.3315 6.6001 12.0001 6.6001Z" fill-rule="evenodd"  fill="#656A85" >
</path>
<path fill-rule="evenodd"  fill="rgba(223, 225, 237, 1)"  d="M0 4L0 20C0 22.2091 1.79086 24 4 24L20 24C22.2091 24 24 22.2091 24 20L24 4C24 1.79086 22.2091 0 20 0L4 0C1.79086 0 0 1.79086 0 4ZM4 23C2.34315 23 1 21.6569 1 20L1 4C1 2.34315 2.34315 1 4 1L20 1C21.6569 1 23 2.34315 23 4L23 20C23 21.6569 21.6569 23 20 23L4 23Z">
</path>
</svg>
