<svg xmlns="http://www.w3.org/2000/svg" xmlns:xlink="http://www.w3.org/1999/xlink" width="24" height="24" viewBox="0 0 24 24" fill="none">
<path     fill="#495AD4"  d="M0 20L0 4C0 1.79086 1.79086 0 4 0L20 0C22.2091 0 24 1.79086 24 4L24 20C24 22.2091 22.2091 24 20 24L4 24C1.79086 24 0 22.2091 0 20Z">
</path>
<path d="M11.2 17.6C15.1765 17.6 18.4 14.3764 18.4 10.4C18.4 6.4235 15.1765 3.19995 11.2 3.19995C7.22355 3.19995 4 6.4235 4 10.4C4 14.3764 7.22355 17.6 11.2 17.6ZM11.2 4.79995C14.2928 4.79995 16.8 7.30716 16.8 10.4C16.8 13.4928 14.2928 16 11.2 16C8.10721 16 5.6 13.4928 5.6 10.4C5.6 7.30716 8.10721 4.79995 11.2 4.79995Z" fill-rule="evenodd"  fill="#FFFFFF" >
</path>
<path d="M15.0344 15.0344C14.722 15.3469 14.722 15.8534 15.0344 16.1658L18.6344 19.7658C18.9468 20.0782 19.4534 20.0782 19.7658 19.7658C20.0782 19.4534 20.0782 18.9469 19.7658 18.6344L16.1658 15.0344C15.8534 14.722 15.3468 14.722 15.0344 15.0344Z" fill-rule="evenodd"  fill="#FFFFFF" >
</path>
</svg>
