<svg xmlns="http://www.w3.org/2000/svg" xmlns:xlink="http://www.w3.org/1999/xlink" width="24" height="24" viewBox="0 0 24 24" fill="none"><g opacity="1"  transform="translate(0 0)  rotate(0)"><mask id="bg-mask-0" fill="white"><use xlink:href="#path_0"></use></mask><g mask="url(#bg-mask-0)" ><path id="直线 1 (轮廓)" fill-rule="evenodd" style="fill:#656A85" opacity="1" d="M6.19995 6.3998C6.19995 6.3598 6.19995 6.3198 6.18995 6.2798C6.17995 6.2398 6.16995 6.2098 6.14995 6.1698C6.13995 6.1298 6.11995 6.0998 6.09995 6.0698C6.07995 6.0298 6.04995 5.9998 6.01995 5.9798C5.99995 5.9498 5.96995 5.9198 5.92995 5.8998C5.89995 5.8798 5.86995 5.8598 5.82995 5.8498C5.78995 5.8298 5.75995 5.8198 5.71995 5.8098C5.67995 5.7998 5.63995 5.7998 5.59995 5.7998C5.55995 5.7998 5.51995 5.7998 5.47995 5.8098C5.43995 5.8198 5.40995 5.8298 5.36995 5.8498C5.32995 5.8598 5.29995 5.8798 5.26995 5.8998C5.22995 5.9198 5.19995 5.9498 5.17995 5.9798C5.14995 5.9998 5.11995 6.0298 5.09995 6.0698C5.07995 6.0998 5.05995 6.1298 5.04995 6.1698C5.02995 6.2098 5.01995 6.2398 5.00995 6.2798C4.99995 6.3198 4.99995 6.3598 4.99995 6.3998L4.99995 18.3998C4.99995 18.4398 4.99995 18.4798 5.00995 18.5198C5.01995 18.5598 5.02995 18.5898 5.04995 18.6298C5.05995 18.6698 5.07995 18.6998 5.09995 18.7298C5.11995 18.7698 5.14995 18.7998 5.17995 18.8198C5.19995 18.8498 5.22995 18.8798 5.26995 18.8998C5.29995 18.9198 5.32995 18.9398 5.36995 18.9498C5.40995 18.9698 5.43995 18.9798 5.47995 18.9898C5.51995 18.9998 5.55995 18.9998 5.59995 18.9998C5.63995 18.9998 5.67995 18.9998 5.71995 18.9898C5.75995 18.9798 5.78995 18.9698 5.82995 18.9498C5.86995 18.9398 5.89995 18.9198 5.92995 18.8998C5.96995 18.8798 5.99995 18.8498 6.01995 18.8198C6.04995 18.7998 6.07995 18.7698 6.09995 18.7298C6.11995 18.6998 6.13995 18.6698 6.14995 18.6298C6.16995 18.5898 6.17995 18.5598 6.18995 18.5198C6.19995 18.4798 6.19995 18.4398 6.19995 18.3998L6.19995 6.3998Z"></path><path id="直线 2 (轮廓)" fill-rule="evenodd" style="fill:#656A85" opacity="1" d="M5.6 17.7998C5.56 17.7998 5.52 17.7998 5.48 17.8098C5.44 17.8198 5.41 17.8298 5.37 17.8498C5.33 17.8598 5.3 17.8798 5.27 17.8998C5.23 17.9198 5.2 17.9498 5.18 17.9798C5.15 17.9998 5.12 18.0298 5.1 18.0698C5.08 18.0998 5.06 18.1298 5.05 18.1698C5.03 18.2098 5.02 18.2398 5.01 18.2798C5 18.3198 5 18.3598 5 18.3998C5 18.4398 5 18.4798 5.01 18.5198C5.02 18.5598 5.03 18.5898 5.05 18.6298C5.06 18.6698 5.08 18.6998 5.1 18.7298C5.12 18.7698 5.15 18.7998 5.18 18.8198C5.2 18.8498 5.23 18.8798 5.27 18.8998C5.3 18.9198 5.33 18.9398 5.37 18.9498C5.41 18.9698 5.44 18.9798 5.48 18.9898C5.52 18.9998 5.56 18.9998 5.6 18.9998L18.4 18.9998C18.44 18.9998 18.48 18.9998 18.52 18.9898C18.56 18.9798 18.59 18.9698 18.63 18.9498C18.67 18.9398 18.7 18.9198 18.73 18.8998C18.77 18.8798 18.8 18.8498 18.82 18.8198C18.85 18.7998 18.88 18.7698 18.9 18.7298C18.92 18.6998 18.94 18.6698 18.95 18.6298C18.97 18.5898 18.98 18.5598 18.99 18.5198C19 18.4798 19 18.4398 19 18.3998C19 18.3598 19 18.3198 18.99 18.2798C18.98 18.2398 18.97 18.2098 18.95 18.1698C18.94 18.1298 18.92 18.0998 18.9 18.0698C18.88 18.0298 18.85 17.9998 18.82 17.9798C18.8 17.9498 18.77 17.9198 18.73 17.8998C18.7 17.8798 18.67 17.8598 18.63 17.8498C18.59 17.8298 18.56 17.8198 18.52 17.8098C18.48 17.7998 18.44 17.7998 18.4 17.7998L5.6 17.7998Z"></path><path id="直线 3 (轮廓)" fill-rule="evenodd" style="fill:#656A85" opacity="1" d="M17.8 18.4C17.8 18.44 17.8 18.48 17.81 18.52C17.82 18.56 17.83 18.59 17.85 18.63C17.86 18.67 17.88 18.7 17.9 18.73C17.92 18.77 17.95 18.8 17.98 18.82C18 18.85 18.03 18.88 18.07 18.9C18.1 18.92 18.13 18.94 18.17 18.95C18.21 18.97 18.24 18.98 18.28 18.99C18.32 19 18.36 19 18.4 19C18.44 19 18.48 19 18.52 18.99C18.56 18.98 18.59 18.97 18.63 18.95C18.67 18.94 18.7 18.92 18.73 18.9C18.77 18.88 18.8 18.85 18.82 18.82C18.85 18.8 18.88 18.77 18.9 18.73C18.92 18.7 18.94 18.67 18.95 18.63C18.97 18.59 18.98 18.56 18.99 18.52C19 18.48 19 18.44 19 18.4L19 8.8C19 8.76 19 8.72 18.99 8.68C18.98 8.64 18.97 8.61 18.95 8.57C18.94 8.53 18.92 8.5 18.9 8.47C18.88 8.43 18.85 8.4 18.82 8.38C18.8 8.35 18.77 8.32 18.73 8.3C18.7 8.28 18.67 8.26 18.63 8.25C18.59 8.23 18.56 8.22 18.52 8.21C18.48 8.2 18.44 8.2 18.4 8.2C18.36 8.2 18.32 8.2 18.28 8.21C18.24 8.22 18.21 8.23 18.17 8.25C18.13 8.26 18.1 8.28 18.07 8.3C18.03 8.32 18 8.35 17.98 8.38C17.95 8.4 17.92 8.43 17.9 8.47C17.88 8.5 17.86 8.53 17.85 8.57C17.83 8.61 17.82 8.64 17.81 8.68C17.8 8.72 17.8 8.76 17.8 8.8L17.8 18.4Z"></path><path id="直线 4 (轮廓)" fill-rule="evenodd" style="fill:#656A85" opacity="1" d="M18.4 9.3999C18.44 9.3999 18.48 9.3999 18.52 9.3899C18.56 9.3799 18.59 9.3699 18.63 9.3499C18.67 9.3399 18.7 9.3199 18.73 9.2999C18.77 9.2799 18.8 9.2499 18.82 9.2199C18.85 9.1999 18.88 9.1699 18.9 9.1299C18.92 9.0999 18.94 9.0699 18.95 9.0299C18.97 8.9899 18.98 8.9599 18.99 8.9199C19 8.8799 19 8.8399 19 8.7999C19 8.7599 19 8.7199 18.99 8.6799C18.98 8.6399 18.97 8.6099 18.95 8.5699C18.94 8.5299 18.92 8.4999 18.9 8.4699C18.88 8.4299 18.85 8.3999 18.82 8.3799C18.8 8.3499 18.77 8.3199 18.73 8.2999C18.7 8.2799 18.67 8.2599 18.63 8.2499C18.59 8.2299 18.56 8.2199 18.52 8.2099C18.48 8.1999 18.44 8.1999 18.4 8.1999L5.6 8.1999C5.56 8.1999 5.52 8.1999 5.48 8.2099C5.44 8.2199 5.41 8.2299 5.37 8.2499C5.33 8.2599 5.3 8.2799 5.27 8.2999C5.23 8.3199 5.2 8.3499 5.18 8.3799C5.15 8.3999 5.12 8.4299 5.1 8.4699C5.08 8.4999 5.06 8.5299 5.05 8.5699C5.03 8.6099 5.02 8.6399 5.01 8.6799C5 8.7199 5 8.7599 5 8.7999C5 8.8399 5 8.8799 5.01 8.9199C5.02 8.9599 5.03 8.9899 5.05 9.0299C5.06 9.0699 5.08 9.0999 5.1 9.1299C5.12 9.1699 5.15 9.1999 5.18 9.2199C5.2 9.2499 5.23 9.2799 5.27 9.2999C5.3 9.3199 5.33 9.3399 5.37 9.3499C5.41 9.3699 5.44 9.3799 5.48 9.3899C5.52 9.3999 5.56 9.3999 5.6 9.3999L18.4 9.3999Z"></path><path id="直线 4 (轮廓)" fill-rule="evenodd" style="fill:#656A85" opacity="1" d="M11.2 7C11.24 7 11.28 7 11.32 6.99C11.36 6.98 11.39 6.97 11.43 6.95C11.47 6.94 11.5 6.92 11.53 6.9C11.57 6.88 11.6 6.85 11.62 6.82C11.65 6.8 11.68 6.77 11.7 6.73C11.72 6.7 11.74 6.67 11.75 6.63C11.77 6.59 11.78 6.56 11.79 6.52C11.8 6.48 11.8 6.44 11.8 6.4C11.8 6.36 11.8 6.32 11.79 6.28C11.78 6.24 11.77 6.21 11.75 6.17C11.74 6.13 11.72 6.1 11.7 6.07C11.68 6.03 11.65 6 11.62 5.98C11.6 5.95 11.57 5.92 11.53 5.9C11.5 5.88 11.47 5.86 11.43 5.85C11.39 5.83 11.36 5.82 11.32 5.81C11.28 5.8 11.24 5.8 11.2 5.8L5.60005 5.8C5.56005 5.8 5.52005 5.8 5.48005 5.81C5.44005 5.82 5.41005 5.83 5.37005 5.85C5.33005 5.86 5.30005 5.88 5.27005 5.9C5.23005 5.92 5.20005 5.95 5.18005 5.98C5.15005 6 5.12005 6.03 5.10005 6.07C5.08005 6.1 5.06005 6.13 5.05005 6.17C5.03005 6.21 5.02005 6.24 5.01005 6.28C5.00005 6.32 5.00005 6.36 5.00005 6.4C5.00005 6.44 5.00005 6.48 5.01005 6.52C5.02005 6.56 5.03005 6.59 5.05005 6.63C5.06005 6.67 5.08005 6.7 5.10005 6.73C5.12005 6.77 5.15005 6.8 5.18005 6.82C5.20005 6.85 5.23005 6.88 5.27005 6.9C5.30005 6.92 5.33005 6.94 5.37005 6.95C5.41005 6.97 5.44005 6.98 5.48005 6.99C5.52005 7 5.56005 7 5.60005 7L11.2 7Z"></path><path id="直线 4 (轮廓)" fill-rule="evenodd" style="fill:#656A85" opacity="1" d="M8.7999 13.3999C8.8399 13.3999 8.8799 13.3999 8.9199 13.3899C8.9599 13.3799 8.9899 13.3699 9.0299 13.3499C9.0699 13.3399 9.0999 13.3199 9.1299 13.2999C9.1699 13.2799 9.1999 13.2499 9.2199 13.2199C9.2499 13.1999 9.2799 13.1699 9.2999 13.1299C9.3199 13.0999 9.3399 13.0699 9.3499 13.0299C9.3699 12.9899 9.3799 12.9599 9.3899 12.9199C9.3999 12.8799 9.3999 12.8399 9.3999 12.7999C9.3999 12.7599 9.3999 12.7199 9.3899 12.6799C9.3799 12.6399 9.3699 12.6099 9.3499 12.5699C9.3399 12.5299 9.3199 12.4999 9.2999 12.4699C9.2799 12.4299 9.2499 12.3999 9.2199 12.3799C9.1999 12.3499 9.1699 12.3199 9.1299 12.2999C9.0999 12.2799 9.0699 12.2599 9.0299 12.2499C8.9899 12.2299 8.9599 12.2199 8.9199 12.2099C8.8799 12.1999 8.8399 12.1999 8.7999 12.1999L7.9999 12.1999C7.9599 12.1999 7.9199 12.1999 7.8799 12.2099C7.8399 12.2199 7.8099 12.2299 7.7699 12.2499C7.7299 12.2599 7.6999 12.2799 7.6699 12.2999C7.6299 12.3199 7.5999 12.3499 7.5799 12.3799C7.5499 12.3999 7.5199 12.4299 7.4999 12.4699C7.4799 12.4999 7.4599 12.5299 7.4499 12.5699C7.4299 12.6099 7.4199 12.6399 7.4099 12.6799C7.3999 12.7199 7.3999 12.7599 7.3999 12.7999C7.3999 12.8399 7.3999 12.8799 7.4099 12.9199C7.4199 12.9599 7.4299 12.9899 7.4499 13.0299C7.4599 13.0699 7.4799 13.0999 7.4999 13.1299C7.5199 13.1699 7.5499 13.1999 7.5799 13.2199C7.5999 13.2499 7.6299 13.2799 7.6699 13.2999C7.6999 13.3199 7.7299 13.3399 7.7699 13.3499C7.8099 13.3699 7.8399 13.3799 7.8799 13.3899C7.9199 13.3999 7.9599 13.3999 7.9999 13.3999L8.7999 13.3999Z"></path><path id="直线 4 (轮廓)" fill-rule="evenodd" style="fill:#656A85" opacity="1" d="M15.2 13.3999C15.24 13.3999 15.28 13.3999 15.32 13.3899C15.36 13.3799 15.39 13.3699 15.43 13.3499C15.47 13.3399 15.5 13.3199 15.53 13.2999C15.57 13.2799 15.6 13.2499 15.62 13.2199C15.65 13.1999 15.68 13.1699 15.7 13.1299C15.72 13.0999 15.74 13.0699 15.75 13.0299C15.77 12.9899 15.78 12.9599 15.79 12.9199C15.8 12.8799 15.8 12.8399 15.8 12.7999C15.8 12.7599 15.8 12.7199 15.79 12.6799C15.78 12.6399 15.77 12.6099 15.75 12.5699C15.74 12.5299 15.72 12.4999 15.7 12.4699C15.68 12.4299 15.65 12.3999 15.62 12.3799C15.6 12.3499 15.57 12.3199 15.53 12.2999C15.5 12.2799 15.47 12.2599 15.43 12.2499C15.39 12.2299 15.36 12.2199 15.32 12.2099C15.28 12.1999 15.24 12.1999 15.2 12.1999L11.2 12.1999C11.16 12.1999 11.12 12.1999 11.08 12.2099C11.04 12.2199 11.01 12.2299 10.97 12.2499C10.93 12.2599 10.9 12.2799 10.87 12.2999C10.83 12.3199 10.8 12.3499 10.78 12.3799C10.75 12.3999 10.72 12.4299 10.7 12.4699C10.68 12.4999 10.66 12.5299 10.65 12.5699C10.63 12.6099 10.62 12.6399 10.61 12.6799C10.6 12.7199 10.6 12.7599 10.6 12.7999C10.6 12.8399 10.6 12.8799 10.61 12.9199C10.62 12.9599 10.63 12.9899 10.65 13.0299C10.66 13.0699 10.68 13.0999 10.7 13.1299C10.72 13.1699 10.75 13.1999 10.78 13.2199C10.8 13.2499 10.83 13.2799 10.87 13.2999C10.9 13.3199 10.93 13.3399 10.97 13.3499C11.01 13.3699 11.04 13.3799 11.08 13.3899C11.12 13.3999 11.16 13.3999 11.2 13.3999L15.2 13.3999Z"></path><path id="直线 4 (轮廓)" fill-rule="evenodd" style="fill:#656A85" opacity="1" d="M15.2 15.7998C15.24 15.7998 15.28 15.7998 15.32 15.7898C15.36 15.7798 15.39 15.7698 15.43 15.7498C15.47 15.7398 15.5 15.7198 15.53 15.6998C15.57 15.6798 15.6 15.6498 15.62 15.6198C15.65 15.5998 15.68 15.5698 15.7 15.5298C15.72 15.4998 15.74 15.4698 15.75 15.4298C15.77 15.3898 15.78 15.3598 15.79 15.3198C15.8 15.2798 15.8 15.2398 15.8 15.1998C15.8 15.1598 15.8 15.1198 15.79 15.0798C15.78 15.0398 15.77 15.0098 15.75 14.9698C15.74 14.9298 15.72 14.8998 15.7 14.8698C15.68 14.8298 15.65 14.7998 15.62 14.7798C15.6 14.7498 15.57 14.7198 15.53 14.6998C15.5 14.6798 15.47 14.6598 15.43 14.6498C15.39 14.6298 15.36 14.6198 15.32 14.6098C15.28 14.5998 15.24 14.5998 15.2 14.5998L8.00005 14.5998C7.96005 14.5998 7.92005 14.5998 7.88005 14.6098C7.84005 14.6198 7.81005 14.6298 7.77005 14.6498C7.73005 14.6598 7.70005 14.6798 7.67005 14.6998C7.63005 14.7198 7.60005 14.7498 7.58005 14.7798C7.55005 14.7998 7.52005 14.8298 7.50005 14.8698C7.48005 14.8998 7.46005 14.9298 7.45005 14.9698C7.43005 15.0098 7.42005 15.0398 7.41005 15.0798C7.40005 15.1198 7.40005 15.1598 7.40005 15.1998C7.40005 15.2398 7.40005 15.2798 7.41005 15.3198C7.42005 15.3598 7.43005 15.3898 7.45005 15.4298C7.46005 15.4698 7.48005 15.4998 7.50005 15.5298C7.52005 15.5698 7.55005 15.5998 7.58005 15.6198C7.60005 15.6498 7.63005 15.6798 7.67005 15.6998C7.70005 15.7198 7.73005 15.7398 7.77005 15.7498C7.81005 15.7698 7.84005 15.7798 7.88005 15.7898C7.92005 15.7998 7.96005 15.7998 8.00005 15.7998L15.2 15.7998Z"></path><path id="直线 5 (轮廓)" fill-rule="evenodd" style="fill:#656A85" opacity="1" d="M11.6993 6.0671C11.6771 6.03382 11.6549 6.00054 11.6244 5.9728C11.5939 5.94507 11.5689 5.92565 11.5301 5.90346C11.4996 5.87573 11.4663 5.86186 11.433 5.84799C11.3942 5.82581 11.3526 5.81749 11.3165 5.81749C11.2832 5.80362 11.2416 5.7953 11.1973 5.80085C11.1612 5.80085 11.1252 5.80085 11.0863 5.81471C11.042 5.82026 11.0114 5.82858 10.9726 5.84245C10.9338 5.85632 10.9005 5.8785 10.8672 5.90069C10.8339 5.92288 10.8007 5.94507 10.7729 5.97558C10.7452 6.00608 10.7258 6.03105 10.7036 6.06987C10.6759 6.10038 10.662 6.13367 10.6481 6.16695C10.6259 6.20578 10.6176 6.24738 10.6176 6.28343C10.6037 6.31672 10.5954 6.35832 10.601 6.4027C10.601 6.43875 10.601 6.47481 10.6148 6.51364C10.6204 6.55801 10.6287 6.58852 10.6426 6.62735C10.6564 6.66618 10.6786 6.69946 10.7008 6.73274L12.2984 9.12905C12.3205 9.16233 12.3427 9.19561 12.3732 9.22335C12.4037 9.25108 12.4343 9.27882 12.4675 9.29268C12.498 9.32042 12.5369 9.34261 12.5702 9.35647C12.6034 9.37034 12.645 9.37866 12.6866 9.38698C12.7199 9.40085 12.756 9.40085 12.8004 9.3953C12.842 9.40362 12.8725 9.3953 12.9168 9.38976C12.9557 9.37589 12.9917 9.37589 13.025 9.3537C13.0638 9.33983 13.0971 9.31765 13.1304 9.29546C13.1637 9.27327 13.197 9.25108 13.2247 9.22057C13.258 9.19839 13.2719 9.1651 13.2996 9.13459C13.3218 9.09577 13.3412 9.0708 13.3495 9.0292C13.3717 8.99037 13.3856 8.95709 13.3856 8.92103C13.3939 8.87943 13.4022 8.83783 13.4022 8.80177C13.4022 8.76572 13.3967 8.72134 13.3828 8.68251C13.3828 8.64646 13.3689 8.60763 13.3551 8.5688C13.3412 8.52997 13.319 8.49669 13.2968 8.46341L11.6993 6.0671Z"></path></g></g><defs><rect id="path_0" x="0" y="0" width="24" height="24" /></defs></svg>