<svg xmlns="http://www.w3.org/2000/svg" xmlns:xlink="http://www.w3.org/1999/xlink" width="121.25823974609375"
  height="30.00140380859375" viewBox="0 0 121.25823974609375 30.00140380859375" fill="none">
  <g opacity="1" transform="translate(0 0)  rotate(0)">
    <g opacity="1" transform="translate(45.05859375 1.46484375)  rotate(0)">
      <g opacity="1" transform="translate(0 0)  rotate(0)">
        <path id="路径 3" fill-rule="evenodd" style="fill:#495AD4" opacity="1"
          d="M4.28365 13.9137C4.42365 13.9137 4.53365 13.8037 4.53365 13.6637L4.53365 6.61371C4.53365 6.47371 4.42365 6.36371 4.28365 6.36371L2.23364 6.36371C2.09364 6.36371 1.98364 6.47371 1.98364 6.61371L1.98364 13.6637C1.98364 13.8037 2.09364 13.9137 2.23364 13.9137L4.28365 13.9137Z">
        </path>
        <path id="路径 4" fill-rule="evenodd" style="fill:#495AD4" opacity="1"
          d="M2.09 1.08619C2.02 1.11619 1.95 1.19619 1.95 1.29619L1.95 3.13618C1.95 3.28618 1.84 3.38618 1.7 3.38618L0.25 3.38618C0.11 3.38618 0 3.49618 0 3.63618L0 5.26618C0 5.40618 0.11 5.51618 0.25 5.51618L6.13 5.51618C6.27 5.51618 6.38 5.40618 6.38 5.26618L6.38 3.63618C6.38 3.49618 6.27 3.38618 6.13 3.38618L4.68 3.38618C4.53 3.38618 4.43 3.28618 4.43 3.13618L4.43 0.266193C4.5 0.0961937 4.32 -0.013806 4.14 0.0561938L2.09 1.08619Z">
        </path>
        <path id="路径 5" fill-rule="evenodd" style="fill:#495AD4" opacity="1"
          d="M10.2348 13.9127C10.3748 13.9127 10.4848 13.8027 10.4848 13.6627L10.4848 3.60272C10.4848 3.46272 10.3748 3.35272 10.2348 3.35272L8.18482 3.35272C8.04482 3.35272 7.93481 3.46272 7.93481 3.60272L7.93481 13.6627C7.93481 13.8027 8.04482 13.9127 8.18482 13.9127L10.2348 13.9127Z">
        </path>
        <path id="路径 6" fill-rule="evenodd" style="fill:#495AD4" opacity="1"
          d="M27.627 3.74272C27.097 3.49272 26.457 3.35272 25.7169 3.35272C24.9069 3.35272 24.1569 3.53272 23.4869 3.85272C22.917 4.13272 22.3869 4.55272 21.8569 5.16272C21.7469 5.26272 21.5369 5.26272 21.4669 5.12272C21.1869 4.59272 20.7969 4.16272 20.3369 3.88272C19.7669 3.53272 19.0569 3.39272 18.2069 3.39272C17.3569 3.39272 16.6169 3.56272 15.9369 3.88272C15.4769 4.13272 15.0569 4.48272 14.6669 4.94272C14.5269 5.12272 14.2369 5.01272 14.2369 4.80272L14.2369 3.63272C14.2369 3.49272 14.1369 3.39272 13.9969 3.39272L12.1169 3.39272C11.9769 3.39272 11.8669 3.49272 11.8669 3.63272L11.8669 13.6927C11.8669 13.8427 11.9769 13.9427 12.1169 13.9427L14.1669 13.9427C14.3069 13.9427 14.4169 13.8427 14.4169 13.6927L14.4169 9.44272C14.4169 8.49272 14.4569 7.85272 14.5269 7.49272C14.5969 7.14272 14.6969 6.86272 14.8469 6.61272C15.0869 6.25272 15.4069 5.94272 15.7969 5.72272C16.2269 5.51272 16.6469 5.40272 17.1469 5.40272C17.9569 5.40272 18.5269 5.65272 18.8469 6.15272C19.1669 6.64272 19.3369 7.57272 19.3369 8.84272L19.3369 13.6927C19.3369 13.8427 19.4469 13.9427 19.5869 13.9427L21.6469 13.9427C21.7869 13.9427 21.8869 13.8427 21.8869 13.6927L21.8869 9.44272C21.8869 7.96272 22.1069 6.89272 22.5269 6.29272C22.9569 5.69272 23.667 5.40272 24.6569 5.40272C25.4669 5.40272 25.997 5.62272 26.3169 6.08272C26.637 6.54272 26.777 7.46272 26.777 8.84272L26.777 13.6927C26.777 13.8427 26.887 13.9427 27.027 13.9427L29.087 13.9427C29.227 13.9427 29.327 13.8427 29.327 13.6927L29.327 7.00272C29.327 6.40272 29.297 5.97272 29.227 5.65272C29.157 5.33272 29.047 5.05272 28.907 4.84272C28.587 4.34272 28.197 3.99272 27.627 3.74272Z">
        </path>
        <path id="路径 7" fill-rule="evenodd" style="fill:#495AD4" opacity="1"
          d="M44.9529 4.76732C43.8529 5.72732 43.3229 6.99732 43.3229 8.59732C43.3229 10.1573 43.8529 11.4273 44.9129 12.4173C45.9829 13.4173 47.3629 13.9073 49.0229 13.9073C49.5929 13.9073 50.1629 13.8373 50.6929 13.7273C51.1529 13.6273 51.6129 13.4873 52.0029 13.2673C52.0729 13.2373 52.1429 13.1673 52.1429 13.0573L52.1429 11.0373C52.1429 10.8973 51.9629 10.8273 51.8629 10.8973C51.5729 11.1473 51.2529 11.3573 50.9429 11.4973C50.4829 11.7173 49.9429 11.8173 49.3429 11.8173C48.2829 11.8173 47.4329 11.5373 46.8329 10.9373C46.2229 10.3673 45.9129 9.54732 45.9129 8.52732C45.9129 7.53732 46.1929 6.75732 46.8329 6.14732C47.4329 5.54732 48.2429 5.26732 49.2429 5.26732C49.8029 5.26732 50.3729 5.36732 50.8729 5.58732C51.2529 5.72732 51.5729 5.93732 51.8929 6.18732C52.0029 6.29732 52.1829 6.21732 52.1829 6.04732L52.1829 4.05732C52.1829 3.98732 52.1429 3.88732 52.0329 3.84732C51.6829 3.66732 51.2929 3.52732 50.8729 3.45732C50.3029 3.38732 49.8029 3.31732 49.2429 3.31732C47.4629 3.31732 46.0129 3.81732 44.9529 4.76732Z">
        </path>
        <path id="路径 8" fill-rule="evenodd" style="fill:#495AD4" opacity="1"
          d="M62.2703 3.74C61.7103 3.49 61.0003 3.39 60.1803 3.39C59.2303 3.39 58.3803 3.57 57.7003 3.88C57.2103 4.13 56.7503 4.49 56.3603 4.95C56.2203 5.12 55.9303 5.02 55.9303 4.81L55.9303 0.16C55.9303 0.06 55.7903 -0.05 55.6903 0.02L53.7003 1.01C53.6303 1.05 53.5603 1.12 53.5603 1.23L53.5603 13.66C53.5603 13.8 53.6703 13.91 53.8103 13.91L55.8603 13.91C56.0003 13.91 56.1103 13.8 56.1103 13.66L56.1103 9.40999C56.1103 8.55999 56.1503 7.91999 56.2203 7.52999C56.2903 7.13999 56.4303 6.82 56.6103 6.58C56.8503 6.22 57.2403 5.9 57.6703 5.69C58.1303 5.48 58.6603 5.37 59.2303 5.37C60.1103 5.37 60.7503 5.58 61.1103 6.04C61.4603 6.51 61.6403 7.42999 61.6403 8.76999L61.6403 13.63C61.6403 13.77 61.7403 13.87 61.8803 13.87L63.9403 13.87C64.0803 13.87 64.1903 13.77 64.1903 13.63L64.1903 7.84999C64.1903 6.9 64.1503 6.22 64.0803 5.83C63.9403 5.44 63.8003 5.12 63.6203 4.84C63.3003 4.34 62.8403 3.99 62.2703 3.74Z">
        </path>
        <path id="路径 9" fill-rule="evenodd" style="fill:#495AD4" opacity="1"
          d="M75.8096,6.64818c0.28,0.6 0.39,1.27 0.39,1.98c0,0.70999 -0.1499,1.38002 -0.39,2.02002c-0.25,0.6 -0.64,1.17 -1.14,1.67c-0.49,0.53 -1.1,0.92 -1.7299,1.17c-0.64,0.24 -1.3101,0.39 -2.0201,0.39c-0.71,0 -1.38,-0.11 -2.0199,-0.39c-0.64,-0.25 -1.21,-0.64 -1.7001,-1.14c-0.53,-0.49 -0.92,-1.06 -1.17,-1.7c-0.25,-0.64 -0.39,-1.31003 -0.39,-2.02002c0,-0.71 0.11,-1.38 0.39,-2.02c0.25,-0.63 0.64,-1.2 1.13,-1.7c0.5,-0.49 1.07,-0.88 1.7,-1.13c0.64,-0.25 1.31,-0.39 2.02,-0.39c0.75,0 1.4201,0.14 2.0601,0.39c0.6299,0.28 1.1999,0.67 1.6999,1.17c0.53,0.49 0.92,1.06 1.17,1.7zM73.8596,8.62818c0,-0.92 -0.29,-1.66 -0.8499,-2.3c-0.57,-0.64 -1.2801,-0.96 -2.0901,-0.96c-0.82,0 -1.53,0.32 -2.0899,0.96c-0.57,0.64 -0.8501,1.38 -0.8501,2.3c0,0.91999 0.2801,1.67002 0.8501,2.31002c0.5599,0.63 1.2699,0.95 2.0899,0.95c0.81,0 1.5201,-0.32 2.0901,-0.95c0.5999,-0.61 0.8799,-1.39003 0.8499,-2.31002z">
        </path>
        <path id="路径 10" fill-rule="evenodd" style="fill:#495AD4" opacity="1"
          d="M33.5784 10.1173ZM39.5684 9.08732ZM33.4784 7.38732ZM33.3384 9.05732ZM32.3384 12.4573C33.3384 13.4173 34.7184 13.9073 36.3784 13.9073C37.5484 13.9073 38.5784 13.6573 39.4584 13.1973C40.2384 12.7773 40.8784 12.1773 41.4484 11.3573C41.5484 11.2173 41.4484 11.0073 41.2684 11.0073L39.0384 11.0073C38.8984 11.0073 38.7884 11.0373 38.6784 11.1073C38.5384 11.2173 38.3984 11.3273 38.2584 11.3973C37.7284 11.7173 37.0884 11.8573 36.3084 11.8573C35.4284 11.8573 34.7184 11.6073 34.2184 11.0773C33.9384 10.8273 33.7184 10.5073 33.5784 10.1173C33.4384 9.79732 33.3684 9.44732 33.3384 9.05732C33.3384 9.01732 33.3384 8.91732 33.3384 8.91732C33.2984 8.16732 33.4784 7.49732 33.4784 7.38732C33.6484 6.68732 34.0084 6.11732 34.4984 5.75732C34.9984 5.40732 35.6384 5.22732 36.4184 5.22732C37.2684 5.22732 37.8984 5.40732 38.3984 5.79732C38.7184 6.04732 38.9684 6.39732 39.1084 6.78732C39.1784 6.92732 39.0384 7.10732 38.8984 7.10732L36.3484 7.10732C36.1684 7.10732 36.0284 7.17732 35.9184 7.31732L34.7884 8.69732C34.6784 8.84732 34.7884 9.08732 34.9584 9.08732L39.5684 9.08732L41.5484 9.08732C41.6884 9.08732 41.7684 8.98732 41.7684 8.84732L41.7684 8.48732C41.7684 6.85732 41.3084 5.58732 40.3484 4.69732C39.4284 3.77732 38.0784 3.31732 36.3784 3.31732C34.7484 3.31732 33.4084 3.81732 32.3784 4.80732C31.3484 5.79732 30.8184 7.06732 30.8184 8.59732C30.8184 10.1873 31.3184 11.4673 32.3384 12.4573Z">
        </path>
        <path id="路径 11" fill-rule="evenodd" style="fill:#495AD4" opacity="1"
          d="M7.93481 2.22071C7.93481 2.36071 8.04482 2.47071 8.18482 2.47071L10.2348 2.47071C10.3748 2.47071 10.4848 2.36071 10.4848 2.22071L10.4848 0.23073C10.4848 0.0607319 10.3048 -0.0492671 10.1348 0.0207322C9.52482 0.340729 8.46482 0.870725 8.07481 1.05072C7.97481 1.12072 7.93481 1.19072 7.93481 1.30072L7.93481 2.22071Z">
        </path>
      </g>
      <g opacity="1" transform="translate(0.05615234375 17.91180419921875)  rotate(0)">
        <path id="路径 12" fill-rule="evenodd" style="fill:#495AD4" opacity="1"
          d="M8.59 5.13808C8.62 5.13808 8.66 5.09808 8.66 5.06808L8.66 4.03808C8.66 3.99808 8.62 3.96808 8.59 3.96808L4.97 3.96808C4.97 3.71808 5.01 3.46808 5.01 3.25808L5.01 2.26808L8.23 2.26808C8.27 2.26808 8.3 2.22808 8.3 2.19808L8.3 1.16808C8.3 1.13808 8.27 1.09808 8.23 1.09808L0.72 1.09808C0.69 1.09808 0.65 1.13808 0.65 1.16808L0.65 2.19808C0.65 2.22808 0.69 2.26808 0.72 2.26808L3.8 2.26808L3.8 3.22808C3.8 3.46808 3.8 3.68808 3.77 3.96808L0.37 3.96808C0.33 3.96808 0.3 3.99808 0.3 4.03808L0.3 5.06808C0.3 5.09808 0.33 5.13808 0.37 5.13808L3.52 5.13808C3.13 6.33808 2.21 7.54808 0.05 8.32808C0.01 8.32808 -0.02 8.39808 0.01 8.42808L0.69 9.31808C0.69 9.34808 0.72 9.34808 0.76 9.34808C2.88 8.53808 3.98 7.36808 4.51 6.08808C5.33 7.64808 6.46 8.74808 8.27 9.31808C8.3 9.31808 8.34 9.31808 8.34 9.27808L9.05 8.32808C9.08 8.28808 9.05 8.25808 9.01 8.21808C7.17 7.71808 5.97 6.62808 5.29 5.13808L8.59 5.13808Z">
        </path>
        <path id="路径 13" fill-rule="evenodd" style="fill:#495AD4" opacity="1"
          d="M28.5687 0.491662C28.5287 0.491662 28.5287 0.531661 28.5287 0.571661L28.5287 6.06164L25.4887 6.59164C25.4487 6.59164 25.4487 6.62164 25.4487 6.66164L25.4487 7.61164C25.4487 7.65164 25.4887 7.69164 25.5187 7.69164L28.5287 7.19164L28.5287 9.31164C28.5287 9.35163 28.5687 9.39163 28.5987 9.39163L29.5887 9.39163C29.6287 9.39163 29.6687 9.35163 29.6687 9.31164L29.6687 6.98164L30.7587 6.80164C30.7987 6.80164 30.7987 6.76164 30.7987 6.73164L30.7987 5.77165C30.7987 5.74165 30.7587 5.70165 30.7287 5.70165L29.6687 5.84165L29.6687 0.181662C29.6287 0.181662 29.5887 0.141663 29.5587 0.141663L28.5687 0.491662Z">
        </path>
        <path id="路径 14" fill-rule="evenodd" style="fill:#495AD4" opacity="1"
          d="M25.9801 1.73441L27.4701 3.04442C27.5001 3.08442 27.5401 3.08442 27.5701 3.04442L28.2801 2.33442C28.3201 2.30442 28.3201 2.26442 28.2801 2.23442L26.7901 0.924409C26.7601 0.884409 26.7201 0.884409 26.6901 0.924409L25.9801 1.63441C25.9801 1.66441 25.9801 1.70441 25.9801 1.73441Z">
        </path>
        <path id="路径 15" fill-rule="evenodd" style="fill:#495AD4" opacity="1"
          d="M25.771 4.35575L27.251 5.66576C27.291 5.70576 27.331 5.70576 27.361 5.66576L28.071 4.95576C28.101 4.92576 28.101 4.88576 28.071 4.85576L26.581 3.54575C26.551 3.50575 26.511 3.50575 26.481 3.54575L25.771 4.25575C25.731 4.28575 25.731 4.32575 25.771 4.35575Z">
        </path>
        <path id="路径 16" fill-rule="evenodd" style="fill:#495AD4" opacity="1"
          d="M24.3127 4.21419L25.5227 4.21419C25.5527 4.21419 25.5927 4.18419 25.5927 4.14419L25.5927 3.22419C25.5927 3.18419 25.5527 3.15419 25.5227 3.15419L24.3127 3.15419L24.3127 1.73419L25.2027 1.55419C25.2327 1.55419 25.2327 1.52419 25.2327 1.48419L25.2327 0.424187C25.2327 0.394187 25.2027 0.354187 25.1627 0.354187L21.9427 1.13419C21.9027 1.13419 21.9027 1.16419 21.9027 1.20419L21.9027 2.19419C21.9027 2.23419 21.9427 2.26419 21.9727 2.26419L23.2127 2.01419L23.2127 3.18419L21.8327 3.18419C21.8027 3.18419 21.7627 3.22419 21.7627 3.25419L21.7627 4.18419C21.7627 4.21419 21.8027 4.25419 21.8327 4.25419L23.0727 4.25419C22.7227 5.1742 22.1927 6.1642 21.6627 6.7642C21.6627 6.8042 21.6227 6.8042 21.6627 6.8342L22.1227 7.7942C22.1527 7.8242 22.1927 7.8242 22.2227 7.7942C22.5827 7.3342 22.9027 6.6942 23.2127 5.9842L23.2127 9.3142C23.2127 9.3542 23.2527 9.3842 23.2927 9.3842L24.2827 9.3842C24.3127 9.3842 24.3527 9.3542 24.3527 9.3142L24.3527 5.5242C24.5627 5.8842 24.7727 6.2342 24.8827 6.4842C24.9127 6.5142 24.9527 6.5142 24.9927 6.4842L25.5527 5.7042C25.5527 5.6642 25.5527 5.6342 25.5527 5.6342C25.3027 5.3442 24.5627 4.53419 24.3127 4.28419L24.3127 4.21419Z">
        </path>
        <path id="路径 17" fill-rule="evenodd" style="fill:#495AD4" opacity="1"
          d="M34.8734 4.75165L34.8734 3.33165L35.7534 3.33165C35.7934 3.33165 35.8234 3.29165 35.8234 3.26165L35.8234 2.34166C35.8234 2.30166 35.7934 2.27166 35.7534 2.27166L34.8734 2.27166L34.8734 0.211662C34.8734 0.181662 34.8334 0.141663 34.8034 0.141663L33.7734 0.491662C33.7334 0.491662 33.7334 0.531661 33.7334 0.571661L33.7334 2.27166L32.7134 2.27166C32.6734 2.27166 32.6434 2.30166 32.6434 2.34166L32.6434 3.26165C32.6434 3.29165 32.6734 3.33165 32.7134 3.33165L33.7334 3.33165L33.7334 5.03165C33.3134 5.13165 32.8834 5.24165 32.5734 5.31165C32.5334 5.31165 32.5334 5.35165 32.5334 5.38165L32.5334 6.34164C32.5334 6.37164 32.5734 6.41164 32.6034 6.41164L33.7734 6.20164L33.7734 8.22164C33.7734 8.36164 33.7334 8.39164 33.5934 8.39164C33.4934 8.39164 32.9634 8.39164 32.7434 8.39164C32.7134 8.39164 32.6734 8.43164 32.6734 8.46164L32.6734 9.31164C32.6734 9.35163 32.7134 9.39163 32.7434 9.39163L33.1034 9.39163C33.7334 9.39163 34.1634 9.35163 34.4434 9.17163C34.7634 9.00164 34.8734 8.71164 34.8734 8.18164L34.8734 5.84165C35.1934 5.77165 35.5434 5.67165 35.8634 5.60165C35.9034 5.60165 35.9034 5.56165 35.9034 5.52165L35.9034 4.60165C35.9034 4.57165 35.8634 4.53165 35.8234 4.53165L34.8734 4.75165Z">
        </path>
        <path id="路径 18" fill-rule="evenodd" style="fill:#495AD4" opacity="1"
          d="M38.2006,1.03166zM41.3906,4.11166c-0.39,1.31 -0.99,2.55 -1.77,3.33c0.53,0.53 1.77,0.88 2.09,0.99c0.03,0 0.07,0.07 0.03,0.11l-0.63,0.85c0,0.03 -0.04,0.03 -0.08,0.03c-0.24,-0.11 -1.73,-0.67 -2.33,-1.17c-0.75,0.53 -1.56,0.89 -2.48,1.17c-0.04,0 -0.07,0 -0.07,-0.03l-0.54,-0.93c-0.03,-0.03 0,-0.1 0.04,-0.1c0.81,-0.21 1.59,-0.5 2.23,-0.92c-0.57,-0.64 -1.06,-1.53 -1.42,-2.38h-0.17c-0.04,0 -0.07,-0.03 -0.07,-0.07v-0.88c0,-0.04 0.03,-0.07 0.07,-0.07h1.91v-1.14h-2.02c-0.03,0 -0.07,-0.03 -0.07,-0.07v-0.92c0,-0.03 0.04,-0.07 0.07,-0.07h2.02v-0.81v-0.46c0,-0.04 0,-0.08 0.04,-0.08l1.02,-0.35c0.04,0 0.07,0.04 0.07,0.07v1.59h2.09c0.04,0 0.07,0.04 0.07,0.08v0.92c0,0.03 -0.03,0.07 -0.07,0.07h-2.09v1.13h1.17h0.82c0.03,0 0.07,0.04 0.07,0.11zM38.7706,6.73166c0.49,-0.5 0.92,-1.06 1.2,-1.7h-2.34c0.25,0.64 0.64,1.2 1.14,1.7z">
        </path>
        <path id="路径 19" fill-rule="evenodd" style="fill:#495AD4" opacity="1"
          d="M13.0534 6.90516L13.0534 3.43517C13.0534 3.40517 13.0134 3.36517 12.9834 3.36517L10.8534 3.36517C10.8234 3.36517 10.7834 3.40517 10.7834 3.43517L10.7834 4.39517C10.7834 4.42517 10.8234 4.46517 10.8534 4.46517L11.9534 4.46517L11.9534 7.89515L11.4534 8.35515C11.4234 8.39515 11.4234 8.43515 11.4534 8.43515L12.0234 9.20515C12.0634 9.24515 12.0934 9.24515 12.1334 9.20515L14.0734 7.29516C14.1134 7.26516 14.1134 7.22516 14.0734 7.22516L13.5434 6.55516L13.4734 6.55516L13.0534 6.90516Z">
        </path>
        <path id="路径 20" fill-rule="evenodd" style="fill:#495AD4" opacity="1"
          d="M19.2164,9.14163zM19.6064,6.69164h-1.6c0.5,0.61 1.21,1.17 1.95,1.53c0.04,0.03 0.04,0.07 0,0.1l-0.74,0.81999c-0.68,-0.42999 -1.35,-1.13999 -1.88,-1.91999v2.09c0,0.03999 -0.04,0.07999 -0.07,0.07999h-0.99c-0.04,0 -0.07,-0.04 -0.07,-0.07999v-1.87c-0.29,0.35 -0.61,0.71 -0.92,0.99c-0.32,0.32 -0.64,0.57 -1,0.73999c0,0.04 -0.03,0.04 -0.07,0l-0.67,-0.77999c0,-0.03 0,-0.07 0.04,-0.1c0.31,-0.18 1.55,-0.85 2.01,-1.6h-1.55c-0.04,0 -0.07,-0.03 -0.07,-0.07v-0.80999c0,-0.04 0.03,-0.07 0.07,-0.07h2.16v-0.57h-1.31c-0.04,0 -0.07,-0.04 -0.07,-0.07v-2.68999h-0.93c-0.03,0 -0.07,-0.04 -0.07,-0.07v-0.82c0,-0.03 0.04,-0.07 0.07,-0.07h0.93v-0.92c0,-0.04 0,-0.07 0.03,-0.07l0.92,-0.32c0.04,0 0.07,0.04 0.07,0.07v1.24h1.7v-0.88c0,-0.04 0,-0.08 0.04,-0.08l0.99,-0.35c0.04,0 0.07,0.04 0.07,0.07v1.24h0.92c0.04,0 0.07,0.04 0.07,0.07v0.82c0,0.03 -0.03,0.07 -0.07,0.07h-0.88v2.68999c0,0.03 -0.04,0.07 -0.07,0.07h-1.32v0.57h2.31c0.03,0 0.07,0.03 0.07,0.07v0.80999c0,0.04 -0.04,0.07 -0.07,0.07zM17.5464,4.25165v-0.53h-1.31c-0.03,0 -0.07,-0.04 -0.07,-0.07l0.18,-0.71c0,0 0.03,-0.04 0.07,-0.04h1.13v-0.48999h-1.7v1.83999z">
        </path>
        <path id="路径 21" fill-rule="evenodd" style="fill:#495AD4" opacity="1"
          d="M11.8865 0.641023C11.8465 0.601023 11.8065 0.601023 11.8065 0.641023L11.1765 1.27102C11.1365 1.31102 11.1365 1.35101 11.1765 1.38101L12.6265 2.801C12.6565 2.831 12.6965 2.831 12.7365 2.801L13.3665 2.12101C13.3665 2.05101 13.3665 2.02101 13.3365 1.98101L11.8865 0.641023Z">
        </path>
        <path id="路径 22" fill-rule="evenodd" style="fill:#495AD4" opacity="1"
          d="M47.5907 0.531311C47.4507 0.881314 47.1607 1.42132 46.9507 1.73132L47.6907 2.05133C47.9107 1.77132 48.2307 1.34132 48.5407 0.921315L47.5907 0.531311Z">
        </path>
        <path id="路径 23" fill-rule="evenodd" style="fill:#495AD4" opacity="1"
          d="M45.7473 3.86251L45.7473 4.7125L46.8073 4.7125L46.8073 3.68251C47.1673 3.9625 47.5573 4.2825 47.7673 4.5025L48.3673 3.72251C48.1873 3.61251 47.6573 3.29251 47.2373 3.04251L48.6173 3.04251L48.6173 2.16251L46.8073 2.16251L46.7773 2.16251L46.7773 0.282524C46.7773 0.252524 46.7373 0.212524 46.7073 0.212524L45.7773 0.532523C45.7473 0.532523 45.7473 0.562523 45.7473 0.602522L45.7473 2.16251L44.7873 2.16251L45.5673 1.80252C45.4973 1.49252 45.2473 0.99252 45.0073 0.642522L44.1873 0.952521C44.3973 1.34252 44.6173 1.80252 44.6873 2.12251L43.9373 2.12251L43.9373 3.01251L45.3573 3.01251C44.8973 3.47251 44.2973 3.89251 43.7273 4.1425C43.9773 4.3225 44.2273 4.7125 44.3273 4.9625C44.7873 4.7125 45.3173 4.2825 45.7473 3.86251Z">
        </path>
        <path id="路径 24" fill-rule="evenodd" style="fill:#495AD4" opacity="1"
          d="M47.3089,7.61217c0.24,0.15 0.46,0.29 0.78,0.46l-0.68,0.75c-0.21,-0.14 -0.46,-0.32 -0.74,-0.5c-0.64,0.5 -1.42,0.82 -2.27,1.07c-0.1,-0.25 -0.35,-0.68 -0.53,-0.86c0.71,-0.17 1.35,-0.42 1.88,-0.74c-0.43,-0.25 -0.92,-0.46 -1.35,-0.64c0.14,-0.24 0.36,-0.56 0.53,-0.88h-0.74v-0.92h1.2c0.07,-0.22 0.14,-0.39 0.22,-0.57l0.99,0.18c-0.07,0.14 -0.11,0.25 -0.18,0.39h1.2l0.18,-0.04l0.6,0.21c-0.21,0.85 -0.6,1.53 -1.09,2.09zM47.1289,6.23217h-1.17c-0.11,0.18 -0.18,0.36 -0.28,0.5c0.24,0.1 0.53,0.25 0.78,0.39c0.24,-0.25 0.49,-0.57 0.67,-0.89z">
        </path>
        <path id="路径 25" fill-rule="evenodd" style="fill:#495AD4" opacity="1"
          d="M51.1355,6.62503c0.42,0.74 1.02,1.34999 1.73,1.76999c-0.25,0.18 -0.6,0.6 -0.74,0.89c-0.68,-0.43 -1.21,-0.96 -1.63,-1.63c-0.53,0.7 -1.24,1.27 -2.13,1.73c-0.1,-0.21 -0.39,-0.71 -0.6,-0.92c0.96,-0.46 1.66,-1.05999 2.16,-1.83999c-0.28,-0.6 -0.5,-1.24 -0.67,-1.98c-0.14,0.31 -0.32,0.6 -0.5,0.85c-0.14,-0.22 -0.6,-0.57 -0.81,-0.75c0.78,-0.98999 1.2,-2.61999 1.41,-4.31998l1.03,0.14c-0.07,0.57 -0.18,1.09999 -0.28,1.59999h2.55v1.06h-0.6c-0.18,1.33999 -0.46,2.47999 -0.92,3.39999zM51.0255,3.22504h-1.06c0.14,0.78 0.32,1.51999 0.56,2.18999c0.22,-0.67 0.39,-1.37999 0.5,-2.18999z">
        </path>
        <path id="路径 26" fill-rule="evenodd" style="fill:#495AD4" opacity="1"
          d="M61.726,5.35001v0.92h1.73v3.05001h-1.03v-0.29h-2.3v0.29h-0.99v-3.09001h1.52v-0.92h-1.48c-0.11,1.39 -0.43,2.94001 -1.14,4.01001c-0.21,-0.22 -0.67,-0.54 -0.92,-0.68c0.92,-1.41001 1.03,-3.50001 1.03,-4.99001v-2.84001h5.24v2.77001h-1.66v0.85h1.94v0.95h-1.94zM60.696,3.54001h-1.42v0.14c0,0.22 0,0.43 0,0.68h1.42v0.03zM59.276,2.59h3.08v-0.82h-3.08zM60.126,7.23001v0.95001h2.3v-0.95001zM57.786,4.39001c0.04,0 0.08,0 0.08,0.14v0.93c0,0.03 0,0.07 -0.04,0.07c-0.32,0.07 -0.67,0.17 -0.99,0.24v2.34c0,0.53001 -0.11,0.82001 -0.43,0.99001c-0.28,0.18 -0.71,0.22 -1.34,0.22h-0.36c-0.03,0 -0.07,-0.04 -0.07,-0.07v-0.93c0,-0.03 0.04,-0.07 0.07,-0.07c0.22,0 0.75,0 0.85,0c0.14,0 0.18,-0.03 0.18,-0.17v-2.02001l-1.17,0.21c-0.03,0 -0.07,-0.04 -0.07,-0.07v-0.96c0,-0.03 0,-0.07 0.04,-0.07c0.31,-0.07 0.74,-0.18 1.16,-0.28v-1.7h-1.02c-0.04,0 -0.07,-0.04 -0.07,-0.07v-0.92001c0,-0.04 0.03,-0.07 0.07,-0.07h1.02v-1.7c0,-0.04 0,-0.08 0.04,-0.08l1.03,-0.35c0.03,0 0.07,0.04 0.07,0.07v2.06h0.88c0.04,0 0.07,0.03 0.07,0.07v0.92001c0,0.03 -0.03,0.07 -0.07,0.07h-0.88v1.42z">
        </path>
        <path id="路径 27" fill-rule="evenodd" style="fill:#495AD4" opacity="1"
          d="M74.6552 1.30965L71.4652 1.30965C71.3552 1.02965 71.2152 0.669648 71.0352 0.389648L69.9052 0.639648C70.0152 0.849648 70.1152 1.05965 70.1852 1.30965L66.5752 1.30965L66.5752 3.99965C66.5752 5.41964 66.5052 7.39964 65.7252 8.74964C65.9752 8.85964 66.4652 9.20964 66.6852 9.38964C67.5652 7.93964 67.7052 5.55964 67.7052 3.99965L67.7052 2.36965L69.9052 2.36965C69.8352 2.65965 69.7252 2.90965 69.6252 3.18965L68.0952 3.18965L68.0952 4.21965L69.1652 4.21965C69.0152 4.52965 68.8752 4.74965 68.8052 4.84965C68.6252 5.13965 68.4552 5.34965 68.2452 5.37964C68.3852 5.69964 68.5552 6.26964 68.6252 6.47964C68.7352 6.40964 69.1252 6.33964 69.5852 6.33964L71.0052 6.33964L71.0052 7.11964L67.8552 7.11964L67.8552 8.14964L71.0052 8.14964L71.0052 9.34964L72.1352 9.34964L72.1352 8.14964L74.6552 8.14964L74.6552 7.11964L72.1352 7.11964L72.1352 6.33964L74.0152 6.33964L74.0152 5.30965L72.1352 5.30965L72.1352 4.52965L71.0052 4.52965L71.0052 5.30965L69.7252 5.30965C69.9452 4.99965 70.1852 4.60965 70.4052 4.21965L74.3352 4.21965L74.3352 3.18965L70.8952 3.18965C70.9652 3.00965 71.0352 2.86965 71.1052 2.68965L70.0852 2.36965L74.6552 2.36965L74.6552 1.30965Z">
        </path>
      </g>
    </g>
    <g opacity="1" transform="translate(0 0)  rotate(0)">
      <path id="路径 1" fill-rule="evenodd" style="fill:#E8CA99" opacity="1"
        d="M17.2222 0C17.0422 0 16.9022 0.14 16.9022 0.319999L16.9022 3.80999C16.9022 3.98999 17.0422 4.12999 17.2222 4.12999L20.7022 4.12999C20.8722 4.12999 21.0222 3.98999 21.0222 3.80999L21.0222 0.319999C21.0222 0.179999 20.8722 0 20.6622 0L17.2222 0Z">
      </path>
      <path id="路径 2" fill-rule="evenodd" style="fill:#495AD4" opacity="1"
        d="M1.36,29.5381c-0.36,0.14 -0.75,0.29 -0.93,0.43c-0.22,0.11 -0.43,-0.07 -0.43,-0.29v-21.08995c0,-0.18 0.14,-0.32 0.32,-0.32h6.02001c0.18,0 0.32,-0.15 0.32,-0.33v-3.45c0,-0.18 0.14,-0.32 0.32,-0.32h4.79999c0.18,0 0.32,0.14 0.32,0.32v3.42c0,0.18 0.15,0.32 0.33,0.32h4.22c0.18,0 0.32,0.14 0.32,0.32v10.41995c0,0.22 0.18,0.36 0.4,0.33l3.47,-0.86c0.14,-0.04 0.25,-0.18 0.25,-0.33v-9.51995c0,-0.18 0.15,-0.32 0.32,-0.32h3.48c0.18,0 0.32,-0.15 0.32,-0.33v-3.45c0,-0.18 0.14,-0.32 0.32,-0.32h2.69c0.18,0 0.32,0.14 0.32,0.32v3.42c0,0.18 0.14,0.32 0.32,0.32h2.76c0.18,0 0.32,-0.14 0.32,-0.32v-0.72c0,-0.18 0.15,-0.33 0.32,-0.33h1.26c0.18,0 0.32,0.15 0.32,0.33v0.72c0,0.18 0.14,0.32 0.32,0.32h2.04c0.1801,0 0.33,0.14 0.33,0.32v8.47995c0,0.15 -0.11,0.29 -0.25,0.33c-1.26,0.32 -2.62,0.72 -3.94,1.11c-10.6,3.06 -20.95,6.79 -30.98,11.07zM32.3,15.7781l1.22,-0.26c0.14,-0.03 0.25,-0.17 0.25,-0.32v-5.99995c0,-0.18 -0.14,-0.32 -0.32,-0.32h-1.22c-0.18,0 -0.32,0.14 -0.32,0.32v6.21995c0,0.25 0.25,0.39 0.39,0.36zM25.53,17.2481l2.8,-0.61c0.14,-0.04 0.25,-0.18 0.25,-0.32v-7.11995c0,-0.18 -0.15,-0.32 -0.33,-0.32h-2.79c-0.18,0 -0.32,0.14 -0.32,0.32v7.72995c0,0.21 0.18,0.36 0.39,0.32zM7.09001,22.0581l4.82999,-1.33c0.11,-0.07 0.22,-0.17 0.22,-0.32v-11.20995c0,-0.18 -0.14,-0.32 -0.32,-0.32h-4.79999c-0.18,0 -0.32,0.14 -0.32,0.32v12.53995c0,0.18 0.25,0.36 0.39,0.32z">
      </path>
    </g>
  </g>
</svg>