<svg xmlns="http://www.w3.org/2000/svg" xmlns:xlink="http://www.w3.org/1999/xlink" width="132.33575439453125"
  height="26.000015258789062" viewBox="0 0 132.33575439453125 26.000015258789062" fill="none">
  <path
    d="M18.0893 0L15.0744 0C14.9174 0 14.7917 0.12562 14.7917 0.282644L14.7917 3.29751C14.7917 3.45454 14.9174 3.58016 15.0744 3.58016L18.0893 3.58016C18.2463 3.58016 18.3719 3.45454 18.3719 3.29751L18.3719 0.282644C18.3719 0.12562 18.2463 0 18.0893 0Z"
    fill="#E8CA99">
  </path>
  <path
    d="M1.2562 25.6264C9.98675 21.8892 19 18.6859 28.2644 16.0165C29.4264 15.6711 30.5884 15.3256 31.6875 15.043C31.8131 15.0115 31.9074 14.8859 31.9074 14.7603L31.9074 7.38016C31.9074 7.22314 31.7817 7.09752 31.6247 7.09752L29.8346 7.09752C29.6776 7.09752 29.552 6.9719 29.552 6.81488L29.552 6.18678C29.552 6.02975 29.4264 5.90413 29.2693 5.90413L28.1702 5.90413C28.0132 5.90413 27.8875 6.02975 27.8875 6.18678L27.8875 6.81488C27.8875 6.9719 27.7619 7.09752 27.6049 7.09752L25.2181 7.09752C25.0611 7.09752 24.9355 6.9719 24.9355 6.81488L24.9355 3.83141C24.9355 3.67439 24.8099 3.54877 24.6528 3.54877L22.2347 3.54877C22.0776 3.54877 21.952 3.67439 21.952 3.83141L21.952 6.81488C21.952 6.9719 21.8264 7.09752 21.6694 7.09752L18.6231 7.09752C18.4661 7.09752 18.3405 7.22314 18.3405 7.38016L18.3405 15.6396C18.3405 15.7653 18.2462 15.8909 18.1206 15.9223L15.1057 16.676C14.9173 16.7074 14.7603 16.5818 14.7603 16.3934L14.7603 7.41157C14.7603 7.25454 14.6347 7.12892 14.4776 7.12892L10.8975 7.12892C10.7405 7.12892 10.6149 7.0033 10.6149 6.84628L10.6149 3.86282C10.6149 3.70579 10.4892 3.58017 10.3322 3.58017L6.15536 3.58017C5.99833 3.58017 5.87271 3.70579 5.87271 3.86282L5.87271 6.84628C5.87271 7.0033 5.74709 7.12892 5.59007 7.12892L0.282644 7.12892C0.12562 7.12892 0 7.25454 0 7.41157L0 25.7206C0 25.909 0.188429 26.0661 0.376859 25.9719C0.596693 25.909 0.879337 25.7834 1.2562 25.6264ZM27.8875 13.4099L27.8875 7.97686C27.8875 7.81983 28.0132 7.69421 28.1702 7.69421L29.2379 7.69421C29.395 7.69421 29.5206 7.81983 29.5206 7.97686L29.5206 13.1901C29.5206 13.3157 29.4264 13.4413 29.3008 13.4727L28.233 13.6925C28.0446 13.724 27.8875 13.5983 27.8875 13.4099ZM21.952 14.6975L21.952 7.97686C21.952 7.81983 22.0776 7.69421 22.2347 7.69421L24.6528 7.69421C24.8099 7.69421 24.9355 7.81983 24.9355 7.97686L24.9355 14.1636C24.9355 14.2892 24.8413 14.4149 24.7156 14.4463L22.2975 14.9801C22.1404 15.0115 21.952 14.8859 21.952 14.6975ZM5.87271 18.8744L5.87271 7.97686C5.87271 7.81983 5.99833 7.69421 6.15536 7.69421L10.3322 7.69421C10.4892 7.69421 10.6149 7.81983 10.6149 7.97686L10.6149 17.7124C10.6149 17.838 10.5206 17.9322 10.4264 17.995L6.24957 19.157C6.06114 19.1884 5.87271 19.0314 5.87271 18.8744Z"
    fill="#495AD4">
  </path>
  <path
    d="M41.7057 21.1355L44.2181 21.1355C44.3752 21.1355 44.5008 21.0098 44.5008 20.8528L44.5008 12.1851C44.5008 12.0281 44.3752 11.9024 44.2181 11.9024L41.7057 11.9024C41.5487 11.9024 41.4231 12.0281 41.4231 12.1851L41.4231 20.8214C41.4231 20.9784 41.5487 21.1355 41.7057 21.1355Z"
    fill="#495AD4">
  </path>
  <path
    d="M44.0611 4.14545L41.5487 5.40164C41.4545 5.46445 41.3917 5.55867 41.3917 5.65288L41.3917 7.88262C41.3917 8.03965 41.2661 8.16527 41.1091 8.16527L39.3504 8.16527C39.1934 8.16527 39.0677 8.29089 39.0677 8.44791L39.0677 10.4264C39.0677 10.5834 39.1934 10.7091 39.3504 10.7091L46.5421 10.7091C46.6991 10.7091 46.8248 10.5834 46.8248 10.4264L46.8248 8.44791C46.8248 8.29089 46.6991 8.16527 46.5421 8.16527L44.7834 8.16527C44.6264 8.16527 44.5008 8.03965 44.5008 7.88262L44.5008 4.42809C44.5008 4.20826 44.2496 4.05123 44.0611 4.14545Z"
    fill="#495AD4">
  </path>
  <path
    d="M48.9916 21.1041L51.504 21.1041C51.6611 21.1041 51.7867 20.9785 51.7867 20.8214L51.7867 8.47933C51.7867 8.32231 51.6611 8.19669 51.504 8.19669L48.9916 8.19669C48.8346 8.19669 48.709 8.32231 48.709 8.47933L48.709 20.8214C48.6776 20.9785 48.8346 21.1041 48.9916 21.1041Z"
    fill="#495AD4">
  </path>
  <path
    d="M74.3983 10.0182C74.0214 9.42148 73.5189 8.98181 72.8594 8.66776C72.1999 8.35371 71.4148 8.19669 70.5355 8.19669C69.5305 8.19669 68.6198 8.38511 67.8033 8.79338C67.1123 9.13883 66.4528 9.67272 65.8247 10.395C65.6991 10.5521 65.4479 10.5206 65.3537 10.3322C65.0082 9.67272 64.5371 9.17024 63.9719 8.82478C63.2809 8.41652 62.4016 8.19669 61.3652 8.19669C60.2975 8.19669 59.3867 8.41652 58.6016 8.82478C58.0363 9.13883 57.5024 9.5471 57.0314 10.1124C56.8429 10.3322 56.5289 10.2066 56.5289 9.92395L56.5289 8.47933C56.5289 8.32231 56.4033 8.19669 56.2463 8.19669L53.9223 8.19669C53.7653 8.19669 53.6396 8.32231 53.6396 8.47933L53.6396 20.8214C53.6396 20.9785 53.7653 21.1041 53.9223 21.1041L56.4347 21.1041C56.5917 21.1041 56.7173 20.9785 56.7173 20.8214L56.7173 15.6396C56.7173 14.4777 56.7487 13.6611 56.8429 13.2529C56.9058 12.8132 57.0628 12.4363 57.2512 12.1537C57.5339 11.714 57.9421 11.3372 58.4446 11.0859C58.9471 10.8347 59.5124 10.7091 60.1091 10.7091C61.0826 10.7091 61.7735 11.0231 62.1818 11.6198C62.59 12.2479 62.7785 13.3471 62.7785 14.9173L62.7785 20.8529C62.7785 21.0099 62.9041 21.1355 63.0611 21.1355L65.5735 21.1355C65.7305 21.1355 65.8561 21.0099 65.8561 20.8529L65.8561 15.6396C65.8561 13.7868 66.1074 12.4992 66.6413 11.7768C67.1437 11.0545 68.0231 10.6777 69.2165 10.6777C70.19 10.6777 70.8809 10.9603 71.2578 11.4942C71.6346 12.0281 71.8231 13.1901 71.8231 14.8859L71.8231 20.8214C71.8231 20.9785 71.9487 21.1041 72.1057 21.1041L74.6181 21.1041C74.7751 21.1041 74.9008 20.9785 74.9008 20.8214L74.9008 12.6562C74.9008 11.9339 74.8693 11.3686 74.7751 10.9917C74.7123 10.6463 74.5867 10.3008 74.3983 10.0182Z"
    fill="#495AD4">
  </path>
  <path
    d="M99.3337 8.16525C97.1667 8.16525 95.4081 8.76195 94.0576 9.95533C92.7072 11.1487 92.0477 12.719 92.0477 14.6347C92.0477 16.5504 92.7072 18.1206 93.9948 19.314C95.2824 20.5074 96.9783 21.1041 99.0196 21.1041C99.7419 21.1041 100.401 21.0413 101.03 20.8842C101.595 20.7586 102.129 20.5702 102.663 20.3189C102.757 20.2561 102.82 20.1619 102.82 20.0677L102.82 17.5867C102.82 17.3983 102.6 17.3041 102.443 17.4297C102.097 17.7437 101.72 17.995 101.312 18.1834C100.747 18.4346 100.087 18.5603 99.3651 18.5603C98.0461 18.5603 97.0097 18.2148 96.2874 17.4925C95.5337 16.7702 95.1882 15.7966 95.1882 14.5404C95.1882 13.3471 95.5651 12.3735 96.2874 11.6512C97.0411 10.9289 98.0147 10.552 99.2394 10.552C99.9618 10.552 100.621 10.6776 101.218 10.9289C101.689 11.1173 102.097 11.3686 102.474 11.6512C102.631 11.7768 102.82 11.6826 102.82 11.4942L102.82 9.04459C102.82 8.95037 102.757 8.82475 102.663 8.79335C102.223 8.57352 101.72 8.41649 101.218 8.32228C100.621 8.22806 99.9932 8.16525 99.3337 8.16525Z"
    fill="#495AD4">
  </path>
  <path
    d="M116.952 10.0181C116.544 9.42141 116.01 8.98175 115.287 8.6677C114.596 8.35365 113.717 8.22803 112.712 8.22803C111.519 8.22803 110.514 8.41646 109.666 8.82472C109.069 9.10737 108.504 9.54703 108.001 10.1123C107.813 10.3008 107.499 10.1751 107.499 9.92389L107.499 4.30243C107.499 4.14541 107.342 4.05119 107.216 4.114L104.767 5.3388C104.673 5.40161 104.61 5.49582 104.61 5.59003L104.61 20.8214C104.61 20.9784 104.735 21.104 104.892 21.104L107.405 21.104C107.562 21.104 107.687 20.9784 107.687 20.8214L107.687 15.6396C107.687 14.5718 107.75 13.8181 107.813 13.347C107.907 12.876 108.064 12.4677 108.284 12.1536C108.598 11.714 109.038 11.3371 109.603 11.0859C110.168 10.8346 110.797 10.709 111.519 10.709C112.618 10.709 113.372 10.9917 113.811 11.5255C114.251 12.0908 114.439 13.19 114.439 14.8859L114.439 20.8528C114.439 21.0098 114.565 21.1354 114.722 21.1354L117.235 21.1354C117.392 21.1354 117.517 21.0098 117.517 20.8528L117.517 13.6925C117.517 12.5305 117.486 11.714 117.36 11.2429C117.36 10.7718 117.203 10.3636 116.952 10.0181Z"
    fill="#495AD4">
  </path>
  <path
    d="M131.901 12.2165C131.586 11.4314 131.115 10.7404 130.487 10.1438C129.859 9.51566 129.168 9.04458 128.383 8.73053C127.598 8.41648 126.782 8.25946 125.871 8.25946C125.023 8.25946 124.175 8.41648 123.39 8.73053C122.605 9.04458 121.914 9.51566 121.317 10.1123C120.689 10.709 120.218 11.3999 119.904 12.1851C119.59 12.9702 119.401 13.7867 119.401 14.6661C119.401 15.5454 119.558 16.3619 119.872 17.147C120.186 17.9322 120.658 18.6231 121.286 19.2512C121.914 19.8793 122.605 20.3503 123.39 20.6644C124.175 20.9784 124.991 21.1669 125.839 21.1669C126.719 21.1669 127.535 21.0098 128.32 20.6644C129.105 20.3503 129.828 19.8479 130.456 19.2198C131.084 18.6231 131.524 17.9322 131.838 17.147C132.152 16.3619 132.309 15.5454 132.309 14.6661C132.403 13.8181 132.246 13.0016 131.901 12.2165ZM128.477 17.5239C127.786 18.2776 126.907 18.6859 125.902 18.6859C124.897 18.6859 124.018 18.309 123.327 17.5239C122.605 16.7388 122.259 15.7966 122.259 14.6975C122.259 13.5983 122.605 12.6561 123.327 11.871C124.018 11.0859 124.897 10.709 125.902 10.709C126.907 10.709 127.786 11.0859 128.477 11.871C129.168 12.6561 129.545 13.5983 129.545 14.6975C129.545 15.7966 129.2 16.7388 128.477 17.5239Z"
    fill="#495AD4">
  </path>
  <path
    d="M83.5684 8.16525C81.5585 8.16525 79.9254 8.76195 78.6692 9.98674C77.413 11.2115 76.7535 12.7504 76.7535 14.6347C76.7535 16.6132 77.3816 18.1834 78.6064 19.3454C79.8312 20.5074 81.4957 21.1041 83.5684 21.1041C85.013 21.1041 86.2692 20.79 87.3684 20.2247C88.3105 19.6908 89.1271 18.9371 89.7866 17.9636C89.9122 17.7751 89.7866 17.5239 89.5667 17.5239L86.8345 17.5239C86.6775 17.5239 86.5205 17.5867 86.4262 17.6809C86.2692 17.8066 86.0808 17.9322 85.9238 18.0264C85.2957 18.4032 84.4791 18.5917 83.537 18.5917C82.4692 18.5917 81.5899 18.2776 80.9618 17.6495C80.6163 17.3355 80.3651 16.9272 80.1767 16.4875L80.1767 16.4875L80.1767 16.4875C80.0196 16.1107 79.9254 15.671 79.894 15.1999L79.894 15.1999L79.894 15.1999C79.894 15.1371 79.894 15.0429 79.894 15.0429C79.8626 14.1322 80.0511 13.2842 80.0825 13.19C80.0825 13.19 80.0825 13.19 80.0825 13.1586C80.3337 12.2793 80.742 11.6198 81.3387 11.1801C81.9353 10.7405 82.7205 10.5206 83.694 10.5206C84.7304 10.5206 85.5469 10.7405 86.1436 11.2115C86.5519 11.5256 86.8345 11.9338 87.0229 12.4363C87.0857 12.6247 86.9601 12.8132 86.7403 12.8132L83.6312 12.8132C83.4428 12.8132 83.2229 12.9074 83.0973 13.0644L81.7155 14.7603C81.5585 14.9487 81.6841 15.2314 81.9353 15.2314L87.5568 15.2314L89.975 15.2314C90.132 15.2314 90.2576 15.1057 90.2576 14.9487L90.2576 14.5404C90.2576 12.5305 89.6609 10.9917 88.499 9.89252C87.3056 8.73054 85.6725 8.16525 83.5684 8.16525Z"
    fill="#495AD4">
  </path>
  <path
    d="M48.6776 5.65288L48.6776 6.78346C48.6776 6.94048 48.8032 7.0661 48.9603 7.0661L51.4726 7.0661C51.6297 7.0661 51.7553 6.94048 51.7553 6.78346L51.7553 4.39669C51.7553 4.17685 51.5355 4.05123 51.347 4.14545C50.6247 4.52231 49.3057 5.18181 48.8346 5.43305C48.7404 5.46445 48.6776 5.55867 48.6776 5.65288Z"
    fill="#495AD4">
  </path>
</svg>