<svg xmlns="http://www.w3.org/2000/svg" xmlns:xlink="http://www.w3.org/1999/xlink" width="106.8865966796875"
  height="21.00006103515625" viewBox="0 0 106.8865966796875 21.00006103515625" fill="none">
  <path
    d="M14.6105 0L12.1754 0C12.0486 0 11.9471 0.101462 11.9471 0.228289L11.9471 2.66338C11.9471 2.7902 12.0486 2.89167 12.1754 2.89167L14.6105 2.89167C14.7373 2.89167 14.8388 2.7902 14.8388 2.66338L14.8388 0.228289C14.8388 0.101462 14.7373 0 14.6105 0Z"
    fill="#E8CA99">
  </path>
  <path
    d="M1.01462 20.6983C8.06622 17.6798 15.3461 15.0925 22.8289 12.9364C23.7675 12.6574 24.706 12.3784 25.5938 12.1501C25.6952 12.1247 25.7713 12.0233 25.7713 11.9218L25.7713 5.96092C25.7713 5.83409 25.6699 5.73263 25.543 5.73263L24.0972 5.73263C23.9704 5.73263 23.8689 5.63117 23.8689 5.50434L23.8689 4.99703C23.8689 4.87021 23.7675 4.76874 23.6406 4.76874L22.7528 4.76874C22.626 4.76874 22.5245 4.87021 22.5245 4.99703L22.5245 5.50434C22.5245 5.63117 22.4231 5.73263 22.2963 5.73263L20.3685 5.73263C20.2417 5.73263 20.1402 5.63117 20.1402 5.50434L20.1402 3.09462C20.1402 2.96779 20.0387 2.86633 19.9119 2.86633L17.9588 2.86633C17.8319 2.86633 17.7305 2.96779 17.7305 3.09462L17.7305 5.50434C17.7305 5.63117 17.629 5.73263 17.5022 5.73263L15.0417 5.73263C14.9149 5.73263 14.8134 5.83409 14.8134 5.96092L14.8134 12.632C14.8134 12.7335 14.7373 12.835 14.6359 12.8603L12.2008 13.4691C12.0486 13.4945 11.9218 13.393 11.9218 13.2408L11.9218 5.98629C11.9218 5.85946 11.8203 5.758 11.6935 5.758L8.80182 5.758C8.675 5.758 8.57353 5.65654 8.57353 5.52971L8.57353 3.11999C8.57353 2.99316 8.47207 2.8917 8.34524 2.8917L4.97163 2.8917C4.84481 2.8917 4.74335 2.99316 4.74335 3.11999L4.74335 5.52971C4.74335 5.65654 4.64188 5.758 4.51506 5.758L0.228289 5.758C0.101462 5.758 0 5.85946 0 5.98629L0 20.7744C0 20.9266 0.152193 21.0534 0.304386 20.9773C0.481944 20.9266 0.710234 20.8251 1.01462 20.6983ZM22.5245 10.8311L22.5245 6.44287C22.5245 6.31604 22.626 6.21458 22.7528 6.21458L23.6153 6.21458C23.7421 6.21458 23.8436 6.31604 23.8436 6.44287L23.8436 10.6535C23.8436 10.755 23.7675 10.8565 23.666 10.8818L22.8036 11.0594C22.6514 11.0848 22.5245 10.9833 22.5245 10.8311ZM17.7305 11.8711L17.7305 6.44287C17.7305 6.31604 17.8319 6.21458 17.9588 6.21458L19.9119 6.21458C20.0387 6.21458 20.1402 6.31604 20.1402 6.44287L20.1402 11.4399C20.1402 11.5413 20.0641 11.6428 19.9626 11.6682L18.0095 12.0994C17.8827 12.1247 17.7305 12.0233 17.7305 11.8711ZM4.74335 15.2447L4.74335 6.44287C4.74335 6.31604 4.84481 6.21458 4.97163 6.21458L8.34524 6.21458C8.47207 6.21458 8.57353 6.31604 8.57353 6.44287L8.57353 14.3062C8.57353 14.4076 8.49744 14.4837 8.42134 14.5345L5.04773 15.473C4.89554 15.4983 4.74335 15.3715 4.74335 15.2447Z"
    fill="#FFFFFF">
  </path>
  <path
    d="M33.6854 17.071L35.7147 17.071C35.8415 17.071 35.943 16.9695 35.943 16.8427L35.943 9.84181C35.943 9.71499 35.8415 9.61353 35.7147 9.61353L33.6854 9.61353C33.5586 9.61353 33.4572 9.71499 33.4572 9.84181L33.4572 16.8173C33.4572 16.9441 33.5586 17.071 33.6854 17.071Z"
    fill="#FFFFFF">
  </path>
  <path
    d="M35.5878 3.34827L33.5586 4.36289C33.4825 4.41362 33.4317 4.48972 33.4317 4.56582L33.4317 6.36676C33.4317 6.49359 33.3303 6.59505 33.2034 6.59505L31.783 6.59505C31.6562 6.59505 31.5547 6.69651 31.5547 6.82334L31.5547 8.42137C31.5547 8.54819 31.6562 8.64965 31.783 8.64965L37.5917 8.64965C37.7185 8.64965 37.82 8.54819 37.82 8.42137L37.82 6.82334C37.82 6.69651 37.7185 6.59505 37.5917 6.59505L36.1712 6.59505C36.0444 6.59505 35.9429 6.49359 35.9429 6.36676L35.9429 3.57656C35.9429 3.399 35.74 3.27218 35.5878 3.34827Z"
    fill="#FFFFFF">
  </path>
  <path
    d="M39.5702 17.0456L41.5994 17.0456C41.7262 17.0456 41.8277 16.9441 41.8277 16.8173L41.8277 6.84865C41.8277 6.72182 41.7262 6.62036 41.5994 6.62036L39.5702 6.62036C39.4434 6.62036 39.3419 6.72182 39.3419 6.84865L39.3419 16.8173C39.3165 16.9441 39.4434 17.0456 39.5702 17.0456Z"
    fill="#FFFFFF">
  </path>
  <path
    d="M60.0909 8.09156C59.7865 7.60962 59.3807 7.2545 58.848 7.00084C58.3153 6.74719 57.6812 6.62036 56.971 6.62036C56.1593 6.62036 55.4237 6.77255 54.7642 7.10231C54.2061 7.38133 53.6735 7.81254 53.1661 8.39595C53.0647 8.52277 52.8618 8.49741 52.7857 8.34521C52.5066 7.81254 52.1262 7.40669 51.6696 7.12767C51.1115 6.79792 50.4013 6.62036 49.5642 6.62036C48.7018 6.62036 47.9662 6.79792 47.3321 7.12767C46.8755 7.38133 46.4443 7.71108 46.0638 8.16766C45.9116 8.34521 45.658 8.24375 45.658 8.01546L45.658 6.84865C45.658 6.72182 45.5565 6.62036 45.4297 6.62036L43.5526 6.62036C43.4258 6.62036 43.3243 6.72182 43.3243 6.84865L43.3243 16.8173C43.3243 16.9441 43.4258 17.0456 43.5526 17.0456L45.5819 17.0456C45.7087 17.0456 45.8102 16.9441 45.8102 16.8173L45.8102 12.632C45.8102 11.6935 45.8355 11.034 45.9116 10.7042C45.9623 10.3491 46.0892 10.0447 46.2414 9.81641C46.4697 9.4613 46.7994 9.15691 47.2053 8.95399C47.6111 8.75106 48.0677 8.6496 48.5496 8.6496C49.336 8.6496 49.894 8.90326 50.2238 9.3852C50.5535 9.89251 50.7057 10.7803 50.7057 12.0486L50.7057 16.8427C50.7057 16.9695 50.8072 17.0709 50.934 17.0709L52.9632 17.0709C53.09 17.0709 53.1915 16.9695 53.1915 16.8427L53.1915 12.632C53.1915 11.1354 53.3944 10.0954 53.8256 9.51203C54.2315 8.92862 54.9417 8.62424 55.9056 8.62424C56.6919 8.62424 57.25 8.85252 57.5544 9.28374C57.8588 9.71495 58.011 10.6535 58.011 12.0232L58.011 16.8173C58.011 16.9441 58.1124 17.0456 58.2392 17.0456L60.2685 17.0456C60.3953 17.0456 60.4968 16.9441 60.4968 16.8173L60.4968 10.2223C60.4968 9.63885 60.4714 9.18228 60.3953 8.87789C60.3446 8.59887 60.2431 8.31985 60.0909 8.09156Z"
    fill="#FFFFFF">
  </path>
  <path
    d="M80.231 6.59503C78.4808 6.59503 77.0603 7.07698 75.9696 8.04086C74.8789 9.00475 74.3462 10.273 74.3462 11.8203C74.3462 13.3676 74.8789 14.6359 75.9188 15.5998C76.9588 16.5637 78.3286 17.0456 79.9773 17.0456C80.5607 17.0456 81.0934 16.9949 81.6007 16.8681C82.0573 16.7666 82.4885 16.6144 82.9197 16.4115C82.9958 16.3607 83.0466 16.2846 83.0466 16.2085L83.0466 14.2047C83.0466 14.0525 82.869 13.9764 82.7422 14.0779C82.4632 14.3315 82.1588 14.5344 81.829 14.6866C81.3724 14.8895 80.8398 14.991 80.2563 14.991C79.191 14.991 78.3539 14.712 77.7705 14.1286C77.1618 13.5452 76.8827 12.7588 76.8827 11.7442C76.8827 10.7803 77.1871 9.99401 77.7705 9.4106C78.3793 8.82719 79.1656 8.52281 80.1549 8.52281C80.7383 8.52281 81.271 8.62427 81.7529 8.82719C82.1334 8.97939 82.4632 9.18231 82.7675 9.4106C82.8944 9.51206 83.0466 9.43597 83.0466 9.28377L83.0466 7.30527C83.0466 7.22917 82.9958 7.12771 82.9197 7.10234C82.5646 6.92478 82.1588 6.79796 81.7529 6.72186C81.271 6.64576 80.7637 6.59503 80.231 6.59503Z"
    fill="#FFFFFF">
  </path>
  <path
    d="M94.4611 8.0916C94.1313 7.60965 93.7001 7.25454 93.1167 7.00088C92.5587 6.74723 91.8484 6.64576 91.0367 6.64576C90.0728 6.64576 89.2611 6.79796 88.5763 7.12771C88.0943 7.356 87.6377 7.71111 87.2319 8.16769C87.0797 8.31989 86.826 8.21842 86.826 8.0155L86.826 3.47509C86.826 3.34826 86.6992 3.27217 86.5978 3.3229L84.6193 4.31215C84.5432 4.36288 84.4924 4.43898 84.4924 4.51508L84.4924 16.8173C84.4924 16.9441 84.5939 17.0456 84.7207 17.0456L86.75 17.0456C86.8768 17.0456 86.9782 16.9441 86.9782 16.8173L86.9782 12.632C86.9782 11.7696 87.029 11.1608 87.0797 10.7803C87.1558 10.3999 87.2826 10.0701 87.4602 9.81645C87.7138 9.46133 88.069 9.15695 88.5255 8.95402C88.9821 8.7511 89.4894 8.64964 90.0728 8.64964C90.9606 8.64964 91.5694 8.87793 91.9245 9.30914C92.2796 9.76572 92.4318 10.6535 92.4318 12.0232L92.4318 16.8427C92.4318 16.9695 92.5333 17.071 92.6601 17.071L94.6894 17.071C94.8162 17.071 94.9176 16.9695 94.9176 16.8427L94.9176 11.0594C94.9176 10.1208 94.8923 9.46133 94.7908 9.08085C94.7908 8.70037 94.664 8.37062 94.4611 8.0916Z"
    fill="#FFFFFF">
  </path>
  <path
    d="M106.535 9.86713C106.281 9.233 105.901 8.67495 105.394 8.19301C104.886 7.6857 104.328 7.30522 103.694 7.05156C103.06 6.79791 102.4 6.67108 101.665 6.67108C100.98 6.67108 100.295 6.79791 99.661 7.05156C99.0269 7.30522 98.4688 7.6857 97.9869 8.16764C97.4796 8.64959 97.0991 9.20763 96.8454 9.84177C96.5918 10.4759 96.4396 11.1354 96.4396 11.8456C96.4396 12.5559 96.5664 13.2154 96.8201 13.8495C97.0737 14.4837 97.4542 15.0417 97.9615 15.549C98.4688 16.0563 99.0269 16.4368 99.661 16.6904C100.295 16.9441 100.955 17.0963 101.639 17.0963C102.35 17.0963 103.009 16.9695 103.643 16.6904C104.278 16.4368 104.861 16.0309 105.368 15.5236C105.876 15.0417 106.231 14.4837 106.484 13.8495C106.738 13.2154 106.865 12.5559 106.865 11.8456C106.941 11.1608 106.814 10.5013 106.535 9.86713ZM103.77 14.1539C103.212 14.7627 102.502 15.0924 101.69 15.0924C100.879 15.0924 100.168 14.788 99.6103 14.1539C99.0269 13.5198 98.7478 12.7588 98.7478 11.871C98.7478 10.9832 99.0269 10.2222 99.6103 9.58811C100.168 8.95397 100.879 8.64959 101.69 8.64959C102.502 8.64959 103.212 8.95397 103.77 9.58811C104.328 10.2222 104.633 10.9832 104.633 11.871C104.633 12.7588 104.354 13.5198 103.77 14.1539Z"
    fill="#FFFFFF">
  </path>
  <path
    d="M67.4976 6.59503C65.8742 6.59503 64.5552 7.07698 63.5406 8.06623C62.526 9.05548 61.9933 10.2984 61.9933 11.8203C61.9933 13.4183 62.5006 14.6866 63.4899 15.6251C64.4791 16.5637 65.8235 17.0456 67.4976 17.0456C68.6644 17.0456 69.679 16.792 70.5668 16.3354C71.3278 15.9042 71.9873 15.2954 72.52 14.5091C72.6214 14.3569 72.52 14.1539 72.3424 14.1539L70.1356 14.1539C70.0088 14.1539 69.882 14.2047 69.8059 14.2808C69.679 14.3822 69.5268 14.4837 69.4 14.5598C68.8927 14.8642 68.2332 15.0164 67.4722 15.0164C66.6098 15.0164 65.8996 14.7627 65.3923 14.2554C65.1132 14.0018 64.9103 13.672 64.7581 13.3169L64.7581 13.3169L64.7581 13.3169C64.6313 13.0125 64.5552 12.6574 64.5298 12.2769L64.5298 12.2769L64.5298 12.2769C64.5298 12.2262 64.5298 12.1501 64.5298 12.1501C64.5045 11.4145 64.6567 10.7296 64.682 10.6535C64.682 10.6535 64.682 10.6535 64.682 10.6281C64.8849 9.91791 65.2147 9.38523 65.6966 9.03012C66.1786 8.675 66.8127 8.49744 67.5991 8.49744C68.4361 8.49744 69.0956 8.675 69.5776 9.05548C69.9073 9.30914 70.1356 9.63889 70.2878 10.0447C70.3385 10.1969 70.2371 10.3491 70.0595 10.3491L67.5483 10.3491C67.3961 10.3491 67.2186 10.4252 67.1171 10.552L66.001 11.9218C65.8742 12.074 65.9757 12.3023 66.1786 12.3023L70.719 12.3023L72.6721 12.3023C72.799 12.3023 72.9004 12.2008 72.9004 12.074L72.9004 11.7442C72.9004 10.1208 72.4185 8.87793 71.48 7.99013C70.5161 7.05161 69.1971 6.59503 67.4976 6.59503Z"
    fill="#FFFFFF">
  </path>
  <path
    d="M39.3165 4.56574L39.3165 5.4789C39.3165 5.60572 39.418 5.70718 39.5448 5.70718L41.5741 5.70718C41.7009 5.70718 41.8023 5.60572 41.8023 5.4789L41.8023 3.55112C41.8023 3.37356 41.6248 3.2721 41.4726 3.34819C40.8892 3.65258 39.8238 4.18526 39.4434 4.38818C39.3673 4.41355 39.3165 4.48964 39.3165 4.56574Z"
    fill="#FFFFFF">
  </path>
</svg>