<svg xmlns="http://www.w3.org/2000/svg" xmlns:xlink="http://www.w3.org/1999/xlink" width="24" height="24" viewBox="0 0 24 24" fill="none"><g opacity="1"  transform="translate(0 0)  rotate(0)"><mask id="bg-mask-0" fill="white"><use xlink:href="#path_0"></use></mask><g mask="url(#bg-mask-0)" ><path id="圆形 1 (轮廓)" fill-rule="evenodd" style="fill:#A0A3B8" opacity="1" d="M12.0002 4.20001C11.9602 4.20001 11.9202 4.20001 11.8802 4.21001C11.8402 4.22001 11.8102 4.23001 11.7702 4.25001C11.7302 4.26001 11.7002 4.28001 11.6702 4.30001C11.6302 4.32001 11.6002 4.35001 11.5802 4.38001C11.5502 4.40001 11.5202 4.43001 11.5002 4.47001C11.4802 4.50001 11.4602 4.53001 11.4502 4.57001C11.4302 4.61001 11.4202 4.64001 11.4102 4.68001C11.4002 4.72001 11.4002 4.76001 11.4002 4.80001C11.4002 4.84001 11.4002 4.88001 11.4102 4.92001C11.4202 4.96001 11.4302 4.99001 11.4502 5.03001C11.4602 5.07001 11.4802 5.10001 11.5002 5.13001C11.5202 5.17001 11.5502 5.20001 11.5802 5.22001C11.6002 5.25001 11.6302 5.28001 11.6702 5.30001C11.7002 5.32001 11.7302 5.34001 11.7702 5.35001C11.8102 5.37001 11.8402 5.38001 11.8802 5.39001C11.9202 5.40001 11.9602 5.40001 12.0002 5.40001C12.9002 5.40001 13.7502 5.57001 14.5702 5.92001C15.3602 6.25001 16.0602 6.72001 16.6702 7.33001C17.2802 7.94001 17.7502 8.64001 18.0802 9.43001C18.4302 10.25 18.6002 11.1 18.6002 12C18.6002 12.9 18.4302 13.75 18.0802 14.57C17.7502 15.36 17.2802 16.06 16.6702 16.67C16.0602 17.28 15.3602 17.75 14.5702 18.08C13.7502 18.43 12.9002 18.6 12.0002 18.6C11.1002 18.6 10.2502 18.43 9.43019 18.08C8.6402 17.75 7.9402 17.28 7.3302 16.67C6.7202 16.06 6.2502 15.36 5.9202 14.57C5.5702 13.75 5.4002 12.9 5.4002 12C5.4002 11.1 5.5702 10.25 5.9202 9.43001C6.2502 8.64001 6.7302 7.94001 7.3302 7.34001L7.3302 7.33001C7.3302 7.33001 7.3302 7.33001 7.3302 7.33001C7.3602 7.31001 7.3902 7.27001 7.4102 7.24001C7.4302 7.21001 7.4502 7.17001 7.4602 7.14001C7.4802 7.10001 7.4902 7.06001 7.5002 7.03001C7.5002 6.99001 7.5102 6.95001 7.5102 6.91001C7.5102 6.87001 7.5002 6.83001 7.5002 6.79001C7.4902 6.75001 7.4802 6.72001 7.4602 6.68001C7.4502 6.64001 7.4302 6.61001 7.4102 6.58001C7.3902 6.54001 7.3602 6.51001 7.3302 6.48001C7.31019 6.46001 7.2702 6.43001 7.2402 6.41001C7.2102 6.39001 7.1702 6.37001 7.1402 6.35001C7.1002 6.34001 7.06019 6.33001 7.0302 6.32001C6.9902 6.31001 6.9502 6.31001 6.9102 6.31001C6.8702 6.31001 6.8302 6.31001 6.7902 6.32001C6.7502 6.33001 6.7202 6.34001 6.6802 6.35001C6.6402 6.37001 6.6102 6.39001 6.5802 6.41001C6.5402 6.43001 6.5102 6.46001 6.4802 6.48001C6.4702 6.50001 6.4502 6.52001 6.4402 6.54001C5.7402 7.24001 5.2002 8.05001 4.8102 8.96001C4.4002 9.93001 4.2002 10.94 4.2002 12C4.2002 13.06 4.4002 14.07 4.8102 15.04C5.2102 15.97 5.7702 16.8 6.4802 17.52C7.2002 18.23 8.0302 18.79 8.9602 19.19C9.93019 19.6 10.9402 19.8 12.0002 19.8C13.0602 19.8 14.0702 19.6 15.0402 19.19C15.9702 18.79 16.8002 18.23 17.5202 17.52C18.2302 16.8 18.7902 15.97 19.1902 15.04C19.6002 14.07 19.8002 13.06 19.8002 12C19.8002 10.94 19.6002 9.93001 19.1902 8.96001C18.7902 8.03001 18.2302 7.20001 17.5202 6.48001C16.8002 5.77001 15.9702 5.21001 15.0402 4.81001C14.0702 4.40001 13.0602 4.20001 12.0002 4.20001Z"></path><path id="直线 1 (轮廓)" fill-rule="evenodd" style="fill:#495AD4" opacity="1" d="M12.6001 7.99999C12.6001 7.95999 12.6001 7.91999 12.5901 7.87999C12.5801 7.83999 12.5701 7.80999 12.5501 7.76999C12.5401 7.72999 12.5201 7.69999 12.5001 7.66999C12.4801 7.62999 12.4501 7.59999 12.4201 7.57999C12.4001 7.54999 12.3701 7.51999 12.3301 7.49999C12.3001 7.47999 12.2701 7.45999 12.2301 7.44999C12.1901 7.42999 12.1601 7.41999 12.1201 7.40999C12.0801 7.39999 12.0401 7.39999 12.0001 7.39999C11.9601 7.39999 11.9201 7.39999 11.8801 7.40999C11.8401 7.41999 11.8101 7.42999 11.7701 7.44999C11.7301 7.45999 11.7001 7.47999 11.6701 7.49999C11.6301 7.51999 11.6001 7.54999 11.5801 7.57999C11.5501 7.59999 11.5201 7.62999 11.5001 7.66999C11.4801 7.69999 11.4601 7.72999 11.4501 7.76999C11.4301 7.80999 11.4201 7.83999 11.4101 7.87999C11.4001 7.91999 11.4001 7.95999 11.4001 7.99999L11.4001 12C11.4001 12.04 11.4001 12.08 11.4101 12.12C11.4201 12.16 11.4301 12.19 11.4501 12.23C11.4601 12.27 11.4801 12.3 11.5001 12.33C11.5201 12.37 11.5501 12.4 11.5801 12.42C11.6001 12.45 11.6301 12.48 11.6701 12.5C11.7001 12.52 11.7301 12.54 11.7701 12.55C11.8101 12.57 11.8401 12.58 11.8801 12.59C11.9201 12.6 11.9601 12.6 12.0001 12.6C12.0401 12.6 12.0801 12.6 12.1201 12.59C12.1601 12.58 12.1901 12.57 12.2301 12.55C12.2701 12.54 12.3001 12.52 12.3301 12.5C12.3701 12.48 12.4001 12.45 12.4201 12.42C12.4501 12.4 12.4801 12.37 12.5001 12.33C12.5201 12.3 12.5401 12.27 12.5501 12.23C12.5701 12.19 12.5801 12.16 12.5901 12.12C12.6001 12.08 12.6001 12.04 12.6001 12L12.6001 7.99999Z"></path><path id="直线 2 (轮廓)" fill-rule="evenodd" style="fill:#495AD4" opacity="1" d="M12.4243 11.5757C12.396 11.5474 12.3677 11.5192 12.3323 11.4979C12.297 11.4767 12.2687 11.4626 12.2263 11.4484C12.1909 11.4272 12.1556 11.4202 12.1202 11.4131C12.0778 11.3989 12.0354 11.3989 12 11.406C11.9646 11.3989 11.9222 11.3989 11.8798 11.4131C11.8444 11.4202 11.8091 11.4272 11.7737 11.4484C11.7313 11.4626 11.703 11.4767 11.6677 11.4979C11.6323 11.5192 11.604 11.5474 11.5757 11.5757C11.5475 11.604 11.5192 11.6323 11.498 11.6676C11.4767 11.703 11.4626 11.7313 11.4485 11.7737C11.4272 11.8091 11.4202 11.8444 11.4131 11.8798C11.399 11.9222 11.399 11.9646 11.406 12C11.399 12.0353 11.399 12.0778 11.4131 12.1202C11.4202 12.1556 11.4272 12.1909 11.4485 12.2263C11.4626 12.2687 11.4767 12.297 11.498 12.3323C11.5192 12.3677 11.5475 12.396 11.5757 12.4243L15.1749 16.0234C15.2032 16.0517 15.2315 16.08 15.2668 16.1012C15.3022 16.1224 15.3305 16.1366 15.3729 16.1507C15.4083 16.1719 15.4436 16.179 15.479 16.1861C15.5214 16.2002 15.5638 16.2002 15.6062 16.2002C15.6345 16.2002 15.677 16.2002 15.7194 16.1861C15.7547 16.179 15.7901 16.1719 15.8325 16.1578C15.8679 16.1366 15.8962 16.1224 15.9315 16.1012C15.9669 16.08 15.9952 16.0517 16.0234 16.0234C16.0517 15.9951 16.08 15.9669 16.1012 15.9315C16.1224 15.8961 16.1366 15.8679 16.1578 15.8325C16.1719 15.7901 16.179 15.7547 16.1861 15.7194C16.2002 15.6769 16.2002 15.6345 16.2002 15.6062C16.2002 15.5638 16.2002 15.5214 16.1861 15.479C16.179 15.4436 16.1719 15.4082 16.1507 15.3729C16.1366 15.3305 16.1224 15.3022 16.1012 15.2668C16.08 15.2315 16.0517 15.2032 16.0234 15.1749L12.4243 11.5757Z"></path></g></g><defs><rect id="path_0" x="0" y="0" width="24" height="24" /></defs></svg>