<svg xmlns="http://www.w3.org/2000/svg" xmlns:xlink="http://www.w3.org/1999/xlink" width="97.0035400390625"
  height="24.0015869140625" viewBox="0 0 97.0035400390625 24.0015869140625" fill="none">
  <g opacity="1" transform="translate(0 0)  rotate(0)">
    <g opacity="1" transform="translate(36.046875 1.171875)  rotate(0)">
      <g opacity="1" transform="translate(0 0)  rotate(0)">
        <path id="路径 3" fill-rule="evenodd" style="fill:#FFFFFF" opacity="1"
          d="M3.42691 11.1311C3.54691 11.1311 3.62691 11.0411 3.62691 10.9311L3.62691 5.29106C3.62691 5.18106 3.54691 5.09106 3.42691 5.09106L1.78691 5.09106C1.67691 5.09106 1.58691 5.18106 1.58691 5.29106L1.58691 10.9311C1.58691 11.0411 1.67691 11.1311 1.78691 11.1311L3.42691 11.1311Z">
        </path>
        <path id="路径 4" fill-rule="evenodd" style="fill:#FFFFFF" opacity="1"
          d="M1.67 0.868931C1.62 0.898931 1.56 0.948931 1.56 1.03893L1.56 2.50893C1.56 2.62893 1.47 2.70893 1.36 2.70893L0.2 2.70893C0.09 2.70893 0 2.79893 0 2.90893L0 4.20893C0 4.32893 0.09 4.40893 0.2 4.40893L4.9 4.40893C5.02 4.40893 5.1 4.32893 5.1 4.20893L5.1 2.90893C5.1 2.79893 5.02 2.70893 4.9 2.70893L3.74 2.70893C3.63 2.70893 3.54 2.62893 3.54 2.50893L3.54 0.218931C3.6 0.0789307 3.46 -0.0110693 3.32 0.0489307L1.67 0.868931Z">
        </path>
        <path id="路径 5" fill-rule="evenodd" style="fill:#FFFFFF" opacity="1"
          d="M8.1879 11.1222C8.3079 11.1222 8.3879 11.0422 8.3879 10.9323L8.3879 2.88225C8.3879 2.77225 8.3079 2.68225 8.1879 2.68225L6.5479 2.68225C6.4379 2.68225 6.3479 2.77225 6.3479 2.88225L6.3479 10.9323C6.3479 11.0422 6.4379 11.1222 6.5479 11.1222L8.1879 11.1222Z">
        </path>
        <path id="路径 6" fill-rule="evenodd" style="fill:#FFFFFF" opacity="1"
          d="M22.1035 2.99225C21.6835 2.79225 21.1735 2.68225 20.5735 2.68225C19.9235 2.68225 19.3235 2.82225 18.7935 3.08225C18.3335 3.30225 17.9135 3.64225 17.4835 4.13225C17.4035 4.21225 17.2335 4.21225 17.1735 4.10225C16.9435 3.67225 16.6335 3.33225 16.2635 3.11225C15.8135 2.82225 15.2435 2.71225 14.5635 2.71225C13.8835 2.71225 13.2935 2.85225 12.7535 3.11225C12.3835 3.30225 12.0435 3.59225 11.7335 3.96225C11.6235 4.10225 11.3935 4.01225 11.3935 3.84225L11.3935 2.91225C11.3935 2.79225 11.3035 2.71225 11.1935 2.71225L9.69353 2.71225C9.58353 2.71225 9.49353 2.79225 9.49353 2.91225L9.49353 10.9523C9.49353 11.0723 9.58353 11.1523 9.69353 11.1523L11.3335 11.1523C11.4535 11.1523 11.5335 11.0723 11.5335 10.9523L11.5335 7.55225C11.5335 6.79225 11.5635 6.28225 11.6235 6.00225C11.6735 5.71225 11.7635 5.49225 11.8735 5.29225C12.0735 5.00225 12.3235 4.75225 12.6435 4.58225C12.9835 4.41225 13.3235 4.32225 13.7135 4.32225C14.3635 4.32225 14.8235 4.52225 15.0735 4.92225C15.3335 5.32225 15.4735 6.05225 15.4735 7.07225L15.4735 10.9523C15.4735 11.0723 15.5535 11.1523 15.6735 11.1523L17.3135 11.1523C17.4235 11.1523 17.5135 11.0723 17.5135 10.9523L17.5135 7.55225C17.5135 6.36225 17.6835 5.51225 18.0235 5.03225C18.3635 4.55225 18.9335 4.32225 19.7235 4.32225C20.3735 4.32225 20.8035 4.49225 21.0535 4.86225C21.3135 5.23225 21.4235 5.97225 21.4235 7.07225L21.4235 10.9523C21.4235 11.0723 21.5135 11.1523 21.6235 11.1523L23.2635 11.1523C23.3835 11.1523 23.4635 11.0723 23.4635 10.9523L23.4635 5.60225C23.4635 5.12225 23.4335 4.78225 23.3835 4.52225C23.3235 4.27225 23.2335 4.04225 23.1235 3.87225C22.8735 3.47225 22.5535 3.19225 22.1035 2.99225Z">
        </path>
        <path id="路径 7" fill-rule="evenodd" style="fill:#FFFFFF" opacity="1"
          d="M35.9583 3.81393C35.0883 4.58393 34.6583 5.60393 34.6583 6.87393C34.6583 8.12393 35.0883 9.14393 35.9383 9.93393C36.7883 10.7339 37.8883 11.1239 39.2183 11.1239C39.6783 11.1239 40.1283 11.0739 40.5483 10.9839C40.9183 10.9039 41.2883 10.7839 41.5983 10.6139C41.6583 10.5839 41.7183 10.5339 41.7183 10.4439L41.7183 8.83393C41.7183 8.71393 41.5683 8.66393 41.4883 8.71393C41.2583 8.91393 41.0083 9.08393 40.7483 9.20393C40.3783 9.37393 39.9583 9.45393 39.4783 9.45393C38.6283 9.45393 37.9483 9.22393 37.4683 8.74393C36.9783 8.29393 36.7283 7.64393 36.7283 6.82393C36.7283 6.02393 36.9583 5.40393 37.4683 4.92393C37.9483 4.44393 38.5983 4.21393 39.3883 4.21393C39.8483 4.21393 40.2983 4.29393 40.6983 4.46393C41.0083 4.58393 41.2583 4.75393 41.5183 4.95393C41.5983 5.03393 41.7383 4.97393 41.7383 4.83393L41.7383 3.25393C41.7383 3.19393 41.7183 3.10393 41.6283 3.08393C41.3483 2.93393 41.0383 2.82393 40.6983 2.76393C40.2383 2.71393 39.8483 2.65393 39.3883 2.65393C37.9783 2.65393 36.8083 3.05393 35.9583 3.81393Z">
        </path>
        <path id="路径 8" fill-rule="evenodd" style="fill:#FFFFFF" opacity="1"
          d="M49.8183 2.99C49.3683 2.8 48.7983 2.71 48.1483 2.71C47.3783 2.71 46.6983 2.85 46.1683 3.11C45.7683 3.31 45.3983 3.59 45.0883 3.96C44.9783 4.1 44.7483 4.01 44.7483 3.84L44.7483 0.13C44.7483 0.05 44.6383 -0.04 44.5483 0.02L42.9583 0.81C42.9083 0.84 42.8483 0.9 42.8483 0.98L42.8483 10.93C42.8483 11.04 42.9383 11.13 43.0483 11.13L44.6883 11.13C44.8083 11.13 44.8883 11.04 44.8883 10.93L44.8883 7.53C44.8883 6.85 44.9183 6.34 44.9783 6.03C45.0283 5.71 45.1483 5.46 45.2883 5.26C45.4883 4.98 45.7983 4.72 46.1383 4.55C46.5083 4.38 46.9283 4.3 47.3783 4.3C48.0883 4.3 48.5983 4.47 48.8883 4.84C49.1683 5.2 49.3083 5.94 49.3083 7.02L49.3083 10.9C49.3083 11.01 49.3983 11.1 49.5083 11.1L51.1483 11.1C51.2683 11.1 51.3483 11.01 51.3483 10.9L51.3483 6.28C51.3483 5.52 51.3183 4.98 51.2683 4.67C51.1483 4.35 51.0383 4.1 50.8983 3.87C50.6383 3.48 50.2683 3.19 49.8183 2.99Z">
        </path>
        <path id="路径 9" fill-rule="evenodd" style="fill:#FFFFFF" opacity="1"
          d="M60.6417,5.32057c0.23,0.48 0.31,1.02 0.31,1.58c0,0.57 -0.11,1.11 -0.31,1.62c-0.2,0.48 -0.51,0.93 -0.9,1.33c-0.4,0.43003 -0.88,0.74003 -1.39,0.94003c-0.51,0.19 -1.05,0.31 -1.62,0.31c-0.56,0 -1.1,-0.09 -1.61,-0.31c-0.51,-0.2 -0.97,-0.51 -1.36,-0.91003c-0.43,-0.4 -0.74,-0.85 -0.94,-1.36c-0.2,-0.51 -0.31,-1.05 -0.31,-1.62c0,-0.56 0.09,-1.1 0.31,-1.61c0.2,-0.51 0.51,-0.96 0.91,-1.36c0.4,-0.4 0.85,-0.71 1.36,-0.91c0.51,-0.2 1.05,-0.31 1.61,-0.31c0.6,0 1.14,0.11 1.65,0.31c0.51,0.23 0.96,0.54 1.36,0.94c0.42,0.39 0.73,0.85 0.93,1.36zM59.0817,6.90057c0,-0.73 -0.22,-1.33 -0.68,-1.84c-0.45,-0.51 -1.02,-0.76 -1.67,-0.76c-0.65,0 -1.22,0.25 -1.67,0.76c-0.45,0.51 -0.68,1.11 -0.68,1.84c0,0.74 0.23,1.34 0.68,1.85c0.45,0.51 1.02,0.76 1.67,0.76c0.65,0 1.22,-0.25 1.67,-0.76c0.49,-0.49 0.71,-1.11 0.68,-1.85z">
        </path>
        <path id="路径 10" fill-rule="evenodd" style="fill:#FFFFFF" opacity="1"
          d="M26.8647 8.09393ZM31.6547 7.27393ZM26.7847 5.91393ZM26.6647 7.24393ZM25.8747 9.96393C26.6647 10.7339 27.7747 11.1239 29.1047 11.1239C30.0347 11.1239 30.8647 10.9239 31.5647 10.5639C32.1947 10.2239 32.7047 9.73393 33.1547 9.08393C33.2447 8.97393 33.1547 8.80393 33.0147 8.80393L31.2247 8.80393C31.1147 8.80393 31.0347 8.83393 30.9447 8.88393C30.8347 8.97393 30.7147 9.05393 30.6047 9.11393C30.1847 9.37393 29.6747 9.48393 29.0447 9.48393C28.3347 9.48393 27.7747 9.28393 27.3747 8.86393C27.1447 8.66393 26.9747 8.40393 26.8647 8.09393C26.7547 7.84393 26.6947 7.55393 26.6647 7.24393C26.6647 7.21393 26.6647 7.13393 26.6647 7.13393C26.6347 6.53393 26.7847 5.99393 26.7847 5.91393C26.9247 5.34393 27.2047 4.89393 27.6047 4.61393C27.9947 4.32393 28.5047 4.18393 29.1347 4.18393C29.8147 4.18393 30.3247 4.32393 30.7147 4.63393C30.9747 4.83393 31.1747 5.12393 31.2847 5.43393C31.3447 5.54393 31.2247 5.68393 31.1147 5.68393L29.0747 5.68393C28.9347 5.68393 28.8247 5.74393 28.7347 5.85393L27.8247 6.96393C27.7447 7.07393 27.8247 7.27393 27.9747 7.27393L31.6547 7.27393L33.2447 7.27393C33.3547 7.27393 33.4147 7.18393 33.4147 7.07393L33.4147 6.79393C33.4147 5.48393 33.0447 4.46393 32.2747 3.76393C31.5447 3.02393 30.4647 2.65393 29.1047 2.65393C27.8047 2.65393 26.7247 3.05393 25.9047 3.84393C25.0847 4.63393 24.6547 5.65393 24.6547 6.87393C24.6547 8.15393 25.0547 9.17393 25.8747 9.96393Z">
        </path>
        <path id="路径 11" fill-rule="evenodd" style="fill:#FFFFFF" opacity="1"
          d="M6.3479 1.77061C6.3479 1.89061 6.4379 1.97061 6.5479 1.97061L8.1879 1.97061C8.3079 1.97061 8.3879 1.89061 8.3879 1.77061L8.3879 0.19061C8.3879 0.0506104 8.2479 -0.0393897 8.1079 0.0206104C7.6279 0.27061 6.7779 0.70061 6.4579 0.84061C6.3779 0.90061 6.3479 0.95061 6.3479 1.04061L6.3479 1.77061Z">
        </path>
      </g>
      <g opacity="1" transform="translate(0.044921875 14.3294677734375)  rotate(0)">
        <path id="路径 12" fill-rule="evenodd" style="fill:#FFFFFF" opacity="1"
          d="M6.87 4.10842C6.9 4.10842 6.93 4.07842 6.93 4.04842L6.93 3.22842C6.93 3.19842 6.9 3.17842 6.87 3.17842L3.98 3.17842C3.98 2.97842 4.01 2.77842 4.01 2.60842L4.01 1.81842L6.59 1.81842C6.61 1.81842 6.64 1.78842 6.64 1.75842L6.64 0.938418C6.64 0.908418 6.61 0.878418 6.59 0.878418L0.58 0.878418C0.55 0.878418 0.52 0.908418 0.52 0.938418L0.52 1.75842C0.52 1.78842 0.55 1.81842 0.58 1.81842L3.04 1.81842L3.04 2.57842C3.04 2.77842 3.04 2.94842 3.02 3.17842L0.3 3.17842C0.27 3.17842 0.24 3.19842 0.24 3.22842L0.24 4.04842C0.24 4.07842 0.27 4.10842 0.3 4.10842L2.82 4.10842C2.51 5.06842 1.77 6.03842 0.04 6.65842C0.01 6.65842 -0.02 6.71842 0.01 6.74842L0.55 7.44842C0.55 7.47842 0.58 7.47842 0.61 7.47842C2.31 6.82842 3.19 5.89842 3.61 4.87842C4.26 6.11842 5.17 6.99842 6.61 7.44842C6.64 7.44842 6.67 7.44842 6.67 7.42842L7.24 6.65842C7.27 6.62842 7.24 6.59842 7.21 6.57842C5.74 6.17842 4.77 5.29842 4.23 4.10842L6.87 4.10842Z">
        </path>
        <path id="路径 13" fill-rule="evenodd" style="fill:#FFFFFF" opacity="1"
          d="M22.849 0.393281C22.829 0.393281 22.829 0.423281 22.829 0.453281L22.829 4.84328L20.389 5.27328C20.359 5.27328 20.359 5.30328 20.359 5.32328L20.359 6.09328C20.359 6.12328 20.389 6.15328 20.419 6.15328L22.829 5.75328L22.829 7.45328C22.829 7.48328 22.849 7.51328 22.879 7.51328L23.679 7.51328C23.699 7.51328 23.729 7.48328 23.729 7.45328L23.729 5.58328L24.609 5.44328C24.639 5.44328 24.639 5.41328 24.639 5.38328L24.639 4.62328C24.639 4.59328 24.609 4.56328 24.579 4.56328L23.729 4.67328L23.729 0.143281C23.699 0.143281 23.679 0.113281 23.649 0.113281L22.849 0.393281Z">
        </path>
        <path id="路径 14" fill-rule="evenodd" style="fill:#FFFFFF" opacity="1"
          d="M20.7841 1.38545L21.9741 2.43545C22.0041 2.46545 22.0341 2.46545 22.0641 2.43545L22.6241 1.86545C22.6541 1.84545 22.6541 1.81545 22.6241 1.78545L21.4341 0.735454C21.4041 0.705454 21.3841 0.705454 21.3541 0.735454L20.7841 1.30545C20.7841 1.33545 20.7841 1.35545 20.7841 1.38545Z">
        </path>
        <path id="路径 15" fill-rule="evenodd" style="fill:#FFFFFF" opacity="1"
          d="M20.6128 3.4825L21.8028 4.5325C21.8328 4.5625 21.8628 4.5625 21.8928 4.5325L22.4528 3.9625C22.4828 3.9425 22.4828 3.9125 22.4528 3.8825L21.2628 2.8325C21.2328 2.8025 21.2128 2.8025 21.1828 2.8325L20.6128 3.4025C20.5828 3.4325 20.5828 3.4525 20.6128 3.4825Z">
        </path>
        <path id="路径 16" fill-rule="evenodd" style="fill:#FFFFFF" opacity="1"
          d="M19.4542 3.37333L20.4142 3.37333C20.4442 3.37333 20.4742 3.34333 20.4742 3.31333L20.4742 2.58333C20.4742 2.55333 20.4442 2.52333 20.4142 2.52333L19.4542 2.52333L19.4542 1.39333L20.1642 1.24333C20.1842 1.24333 20.1842 1.22333 20.1842 1.19333L20.1842 0.343325C20.1842 0.313325 20.1642 0.283325 20.1342 0.283325L17.5542 0.903325C17.5242 0.903325 17.5242 0.933325 17.5242 0.963325L17.5242 1.75333C17.5242 1.78333 17.5542 1.81333 17.5842 1.81333L18.5742 1.61333L18.5742 2.55333L17.4642 2.55333C17.4442 2.55333 17.4142 2.58333 17.4142 2.60333L17.4142 3.34333C17.4142 3.37333 17.4442 3.40333 17.4642 3.40333L18.4642 3.40333C18.1742 4.13333 17.7542 4.93333 17.3242 5.41333C17.3242 5.44333 17.2942 5.44333 17.3242 5.47333L17.6942 6.23333C17.7242 6.26333 17.7542 6.26333 17.7842 6.23333C18.0642 5.86333 18.3142 5.35333 18.5742 4.79333L18.5742 7.45333C18.5742 7.48333 18.6042 7.51333 18.6342 7.51333L19.4242 7.51333C19.4542 7.51333 19.4842 7.48333 19.4842 7.45333L19.4842 4.42333C19.6542 4.70333 19.8242 4.98333 19.9042 5.18333C19.9342 5.21333 19.9642 5.21333 19.9942 5.18333L20.4442 4.56333C20.4442 4.53333 20.4442 4.50333 20.4442 4.50333C20.2442 4.28333 19.6542 3.62333 19.4542 3.43333L19.4542 3.37333Z">
        </path>
        <path id="路径 17" fill-rule="evenodd" style="fill:#FFFFFF" opacity="1"
          d="M27.8967 3.79328L27.8967 2.66328L28.6067 2.66328C28.6367 2.66328 28.6667 2.63328 28.6667 2.60328L28.6667 1.87328C28.6667 1.84328 28.6367 1.81328 28.6067 1.81328L27.8967 1.81328L27.8967 0.173281C27.8967 0.143281 27.8667 0.113281 27.8367 0.113281L27.0167 0.393281C26.9867 0.393281 26.9867 0.423281 26.9867 0.453281L26.9867 1.81328L26.1667 1.81328C26.1367 1.81328 26.1167 1.84328 26.1167 1.87328L26.1167 2.60328C26.1167 2.63328 26.1367 2.66328 26.1667 2.66328L26.9867 2.66328L26.9867 4.02328C26.6467 4.11328 26.3067 4.19328 26.0567 4.25328C26.0267 4.25328 26.0267 4.28328 26.0267 4.30328L26.0267 5.07328C26.0267 5.10328 26.0567 5.13328 26.0867 5.13328L27.0167 4.96328L27.0167 6.57328C27.0167 6.68328 26.9867 6.71328 26.8767 6.71328C26.7967 6.71328 26.3667 6.71328 26.1967 6.71328C26.1667 6.71328 26.1367 6.74328 26.1367 6.77328L26.1367 7.45328C26.1367 7.48328 26.1667 7.51328 26.1967 7.51328L26.4767 7.51328C26.9867 7.51328 27.3267 7.48328 27.5567 7.34328C27.8167 7.19328 27.8967 6.97328 27.8967 6.54328L27.8967 4.67328C28.1567 4.62328 28.4367 4.53328 28.6867 4.47328C28.7167 4.47328 28.7167 4.45328 28.7167 4.42328L28.7167 3.68328C28.7167 3.65328 28.6867 3.62328 28.6667 3.62328L27.8967 3.79328Z">
        </path>
        <path id="路径 18" fill-rule="evenodd" style="fill:#FFFFFF" opacity="1"
          d="M30.5605,0.82328zM33.1105,3.28328c-0.31,1.05 -0.79,2.04 -1.42,2.67c0.43,0.42 1.42,0.71 1.68,0.79c0.02,0 0.05,0.06 0.02,0.09l-0.51,0.68c0,0.02 -0.02,0.02 -0.05,0.02c-0.2,-0.08 -1.39,-0.53 -1.87,-0.93c-0.6,0.42 -1.25,0.71 -1.99,0.93c-0.02,0 -0.05,0 -0.05,-0.02l-0.43,-0.74c-0.03,-0.03 0,-0.09 0.03,-0.09c0.65,-0.17 1.28,-0.39 1.79,-0.73c-0.46,-0.51 -0.85,-1.22 -1.14,-1.9h-0.14c-0.03,0 -0.06,-0.03 -0.06,-0.06v-0.71c0,-0.02 0.03,-0.05 0.06,-0.05h1.53v-0.91h-1.61c-0.03,0 -0.06,-0.03 -0.06,-0.06v-0.73c0,-0.03 0.03,-0.06 0.06,-0.06h1.61v-0.65v-0.37c0,-0.03 0,-0.06 0.03,-0.06l0.82,-0.28c0.03,0 0.06,0.03 0.06,0.06v1.27h1.67c0.03,0 0.06,0.03 0.06,0.06v0.74c0,0.02 -0.03,0.05 -0.06,0.05h-1.67v0.91h0.93h0.65c0.03,0 0.06,0.03 0.06,0.08zM31.0105,5.38328c0.4,-0.4 0.74,-0.85 0.97,-1.36h-1.87c0.2,0.51 0.51,0.96 0.9,1.36z">
        </path>
        <path id="路径 19" fill-rule="evenodd" style="fill:#FFFFFF" opacity="1"
          d="M10.4367 5.52214L10.4367 2.75214C10.4367 2.72214 10.4167 2.69214 10.3867 2.69214L8.68671 2.69214C8.65671 2.69214 8.62671 2.72214 8.62671 2.75214L8.62671 3.51214C8.62671 3.54214 8.65671 3.57214 8.68671 3.57214L9.56671 3.57214L9.56671 6.32214L9.16671 6.69214C9.13671 6.71214 9.13671 6.74214 9.16671 6.74214L9.61671 7.37214C9.64671 7.39214 9.67671 7.39214 9.70671 7.37214L11.2667 5.84214C11.2867 5.81214 11.2867 5.78214 11.2667 5.78214L10.8367 5.24214L10.7767 5.24214L10.4367 5.52214Z">
        </path>
        <path id="路径 20" fill-rule="evenodd" style="fill:#FFFFFF" opacity="1"
          d="M15.3672,7.31328zM15.6872,5.35328h-1.28c0.4,0.48 0.96,0.94 1.56,1.22c0.03,0.03 0.03,0.06 0,0.09l-0.6,0.65c-0.53,-0.34 -1.07,-0.91 -1.5,-1.53v1.67c0,0.03 -0.03,0.06 -0.05,0.06h-0.8c-0.03,0 -0.05,-0.03 -0.05,-0.06v-1.5c-0.23,0.28 -0.49,0.56 -0.74,0.79c-0.26,0.26 -0.51,0.45 -0.79,0.6c0,0.02 -0.03,0.02 -0.06,0l-0.54,-0.63c0,-0.03 0,-0.05 0.03,-0.08c0.25,-0.14 1.25,-0.68 1.61,-1.28h-1.24c-0.03,0 -0.06,-0.03 -0.06,-0.05v-0.66c0,-0.02 0.03,-0.05 0.06,-0.05h1.73v-0.46h-1.05c-0.03,0 -0.06,-0.02 -0.06,-0.05v-2.16h-0.74c-0.02,0 -0.05,-0.02 -0.05,-0.05v-0.65c0,-0.03 0.03,-0.06 0.05,-0.06h0.74v-0.74c0,-0.03 0,-0.05 0.03,-0.05l0.74,-0.26c0.02,0 0.05,0.03 0.05,0.06v0.99h1.36v-0.71c0,-0.03 0,-0.06 0.03,-0.06l0.79,-0.28c0.03,0 0.06,0.03 0.06,0.06v0.99h0.74c0.03,0 0.05,0.03 0.05,0.06v0.65c0,0.03 -0.02,0.05 -0.05,0.05h-0.71v2.16c0,0.03 -0.03,0.05 -0.06,0.05h-1.05v0.46h1.85c0.02,0 0.05,0.03 0.05,0.05v0.66c0,0.02 -0.03,0.05 -0.05,0.05zM14.0372,3.40328v-0.43h-1.05c-0.02,0 -0.05,-0.03 -0.05,-0.05l0.14,-0.57c0,0 0.03,-0.03 0.06,-0.03h0.9v-0.4h-1.36v1.48z">
        </path>
        <path id="路径 21" fill-rule="evenodd" style="fill:#FFFFFF" opacity="1"
          d="M9.50724 0.50877C9.47724 0.47877 9.44724 0.47877 9.44724 0.50877L8.93724 1.01877C8.90724 1.04877 8.90724 1.07877 8.93724 1.10877L10.0972 2.23877C10.1272 2.26877 10.1572 2.26877 10.1872 2.23877L10.6972 1.69877C10.6972 1.63877 10.6972 1.61877 10.6672 1.58877L9.50724 0.50877Z">
        </path>
        <path id="路径 22" fill-rule="evenodd" style="fill:#FFFFFF" opacity="1"
          d="M38.0705 0.425049C37.9605 0.705049 37.7305 1.13505 37.5605 1.38505L38.1605 1.64505C38.3306 1.41505 38.5806 1.07505 38.8406 0.735049L38.0705 0.425049Z">
        </path>
        <path id="路径 23" fill-rule="evenodd" style="fill:#FFFFFF" opacity="1"
          d="M36.6018 3.08992L36.6018 3.76992L37.4518 3.76992L37.4518 2.94992C37.7318 3.16992 38.0418 3.42992 38.2118 3.59992L38.6918 2.97992C38.5518 2.88992 38.1318 2.63992 37.7918 2.43992L38.8918 2.43992L38.8918 1.72992L37.4518 1.72992L37.4218 1.72992L37.4218 0.229922C37.4218 0.199922 37.3918 0.169922 37.3618 0.169922L36.6218 0.429922C36.6018 0.429922 36.6018 0.449922 36.6018 0.479922L36.6018 1.72992L35.8318 1.72992L36.4518 1.44992C36.4018 1.18992 36.2018 0.789922 36.0018 0.509922L35.3518 0.769922C35.5218 1.07992 35.6918 1.44992 35.7518 1.69992L35.1518 1.69992L35.1518 2.40992L36.2818 2.40992C35.9218 2.77992 35.4318 3.11992 34.9818 3.31992C35.1818 3.45992 35.3818 3.76992 35.4618 3.96992C35.8318 3.76992 36.2618 3.42992 36.6018 3.08992Z">
        </path>
        <path id="路径 24" fill-rule="evenodd" style="fill:#FFFFFF" opacity="1"
          d="M37.8451,6.09568c0.2,0.11 0.37,0.22 0.62,0.37l-0.54,0.59c-0.17,-0.11 -0.36,-0.25 -0.59,-0.4c-0.51,0.4 -1.13,0.66 -1.81,0.85c-0.09,-0.19 -0.29,-0.53 -0.43,-0.68c0.57,-0.14 1.08,-0.34 1.5,-0.59c-0.34,-0.2 -0.73,-0.37 -1.07,-0.51c0.11,-0.2 0.28,-0.45 0.42,-0.71h-0.59v-0.74h0.96c0.06,-0.17 0.11,-0.31 0.17,-0.45l0.79,0.14c-0.05,0.12 -0.08,0.2 -0.14,0.31h0.96l0.15,-0.02l0.48,0.17c-0.17,0.68 -0.48,1.21 -0.88,1.67zM37.7051,4.98568h-0.94c-0.08,0.14 -0.14,0.29 -0.22,0.4c0.19,0.08 0.42,0.2 0.62,0.31c0.2,-0.2 0.4,-0.45 0.54,-0.71z">
        </path>
        <path id="路径 25" fill-rule="evenodd" style="fill:#FFFFFF" opacity="1"
          d="M40.9024,5.30009c0.34,0.59 0.82,1.08 1.39,1.42c-0.2,0.14 -0.48,0.48 -0.59,0.7c-0.54,-0.34 -0.97,-0.76 -1.31,-1.3c-0.42,0.57 -0.99,1.02 -1.7,1.39c-0.08,-0.17 -0.31,-0.57 -0.48,-0.74c0.77,-0.37 1.33,-0.85 1.73,-1.47c-0.23,-0.48 -0.4,-0.99 -0.54,-1.59c-0.11,0.26 -0.25,0.48 -0.4,0.68c-0.11,-0.17 -0.48,-0.45 -0.65,-0.59c0.63,-0.8 0.97,-2.1 1.14,-3.46l0.82,0.11c-0.06,0.46 -0.14,0.88 -0.23,1.28h2.04v0.85h-0.48c-0.14,1.08 -0.37,1.98 -0.74,2.72zM40.8224,2.58009h-0.85c0.11,0.62 0.25,1.22 0.45,1.76c0.17,-0.54 0.31,-1.11 0.4,-1.76z">
        </path>
        <path id="路径 26" fill-rule="evenodd" style="fill:#FFFFFF" opacity="1"
          d="M49.3768,4.28v0.74h1.39v2.43h-0.82v-0.22h-1.84v0.22h-0.8v-2.46h1.22v-0.74h-1.19c-0.08,1.11 -0.34,2.35 -0.91,3.2c-0.17,-0.17 -0.53,-0.42 -0.73,-0.54c0.73,-1.13 0.82,-2.8 0.82,-3.99v-2.27h4.19v2.21h-1.33v0.68h1.56v0.77h-1.56zM48.5568,2.83h-1.13v0.12c0,0.17 0,0.34 0,0.54h1.13v0.02zM47.4268,2.07h2.46v-0.65h-2.46zM48.1068,5.78v0.77h1.84v-0.77zM46.2368,3.51c0.02,0 0.05,0 0.05,0.12v0.73c0,0.03 0,0.06 -0.03,0.06c-0.25,0.06 -0.53,0.14 -0.79,0.2v1.87c0,0.42 -0.08,0.65 -0.34,0.79c-0.23,0.14 -0.57,0.17 -1.08,0.17h-0.28c-0.03,0 -0.06,-0.03 -0.06,-0.05v-0.74c0,-0.03 0.03,-0.06 0.06,-0.06c0.17,0 0.6,0 0.68,0c0.11,0 0.14,-0.03 0.14,-0.14v-1.61l-0.93,0.17c-0.03,0 -0.06,-0.03 -0.06,-0.06v-0.77c0,-0.02 0,-0.05 0.03,-0.05c0.25,-0.06 0.59,-0.14 0.93,-0.23v-1.36h-0.82c-0.03,0 -0.05,-0.03 -0.05,-0.06v-0.73c0,-0.03 0.02,-0.06 0.05,-0.06h0.82v-1.36c0,-0.03 0,-0.06 0.03,-0.06l0.82,-0.28c0.03,0 0.06,0.03 0.06,0.06v1.64h0.71c0.03,0 0.06,0.03 0.06,0.06v0.73c0,0.03 -0.03,0.06 -0.06,0.06h-0.71v1.13z">
        </path>
        <path id="路径 27" fill-rule="evenodd" style="fill:#FFFFFF" opacity="1"
          d="M59.7202 1.05177L57.1702 1.05177C57.0902 0.821768 56.9702 0.541768 56.8302 0.311768L55.9202 0.511768C56.0102 0.681768 56.0902 0.851768 56.1502 1.05177L53.2602 1.05177L53.2602 3.20177C53.2602 4.33177 53.2002 5.92177 52.5802 7.00177C52.7802 7.08177 53.1802 7.37177 53.3502 7.51177C54.0502 6.35177 54.1702 4.45177 54.1702 3.20177L54.1702 1.90177L55.9202 1.90177C55.8702 2.12177 55.7802 2.32177 55.7002 2.55177L54.4802 2.55177L54.4802 3.37177L55.3302 3.37177C55.2202 3.63177 55.1002 3.80177 55.0502 3.88177C54.9002 4.11177 54.7602 4.28177 54.5902 4.31177C54.7102 4.56177 54.8502 5.01177 54.9002 5.18177C54.9902 5.13177 55.3002 5.07177 55.6702 5.07177L56.8002 5.07177L56.8002 5.69177L54.2802 5.69177L54.2802 6.52177L56.8002 6.52177L56.8002 7.48177L57.7102 7.48177L57.7102 6.52177L59.7202 6.52177L59.7202 5.69177L57.7102 5.69177L57.7102 5.07177L59.2102 5.07177L59.2102 4.25177L57.7102 4.25177L57.7102 3.63177L56.8002 3.63177L56.8002 4.25177L55.7802 4.25177C55.9502 3.99177 56.1502 3.68177 56.3202 3.37177L59.4702 3.37177L59.4702 2.55177L56.7202 2.55177C56.7702 2.41177 56.8302 2.29177 56.8902 2.15177L56.0702 1.90177L59.7202 1.90177L59.7202 1.05177Z">
        </path>
      </g>
    </g>
    <g opacity="1" transform="translate(0 0)  rotate(0)">
      <path id="路径 1" fill-rule="evenodd" style="fill:#E8CA99" opacity="1"
        d="M13.7817 0C13.6317 0 13.5217 0.11 13.5217 0.26L13.5217 3.05C13.5217 3.19 13.6317 3.31 13.7817 3.31L16.5617 3.31C16.7017 3.31 16.8117 3.19 16.8117 3.05L16.8117 0.26C16.8117 0.14 16.7017 0 16.5317 0L13.7817 0Z">
      </path>
      <path id="路径 2" fill-rule="evenodd" style="fill:#FFFFFF" opacity="1"
        d="M1.09,23.6246c-0.29,0.12 -0.6,0.23 -0.75,0.35c-0.17,0.09 -0.34,-0.06 -0.34,-0.23v-16.87001c0,-0.14999 0.11,-0.26 0.26,-0.26h4.81c0.14,0 0.26,-0.12 0.26,-0.26v-2.76c0,-0.15 0.11,-0.26 0.26,-0.26h3.84c0.14,0 0.25,0.11 0.25,0.26v2.73c0,0.14 0.12,0.26 0.26,0.26h3.38c0.14,0 0.26,0.11 0.26,0.26v8.33001c0,0.18 0.14,0.29 0.31,0.26l2.78,-0.69c0.12,-0.03 0.2,-0.14 0.2,-0.26v-7.61001c0,-0.14999 0.12,-0.26 0.26,-0.26h2.78c0.14,0 0.26,-0.12 0.26,-0.26v-2.76c0,-0.15 0.11,-0.26 0.26,-0.26h2.14c0.15,0 0.26,0.11 0.26,0.26v2.73c0,0.14 0.12,0.26 0.26,0.26h2.21c0.14,0 0.25,-0.12 0.25,-0.26v-0.58c0,-0.14 0.12,-0.25 0.26,-0.25h1c0.15,0 0.26,0.11 0.26,0.25v0.58c0,0.14 0.12,0.26 0.26,0.26h1.63c0.15,0 0.26,0.11 0.26,0.26v6.78001c0,0.12 -0.08,0.23 -0.2,0.26c-1,0.26 -2.09,0.57 -3.15,0.89c-8.48,2.44 -16.76,5.43 -24.78,8.85zM25.84,12.6146l0.97,-0.2c0.12,-0.02 0.21,-0.14 0.21,-0.25v-4.81001c0,-0.14 -0.12,-0.25 -0.26,-0.25h-0.98c-0.14,0 -0.25,0.11 -0.25,0.25v4.98001c0,0.2 0.2,0.31 0.31,0.28zM20.43,13.7946l2.23,-0.49c0.12,-0.02 0.2,-0.14 0.2,-0.25v-5.70001c0,-0.14 -0.11,-0.25 -0.26,-0.25h-2.23c-0.14,0 -0.26,0.11 -0.26,0.25v6.18001c0,0.18 0.14,0.29 0.32,0.26zM5.67,17.6546l3.87,-1.07c0.09,-0.06 0.17,-0.14 0.17,-0.26v-8.97001c0,-0.14 -0.11,-0.25 -0.26,-0.25h-3.83c-0.15,0 -0.26,0.11 -0.26,0.25v10.04001c0,0.14 0.2,0.28 0.31,0.26z">
      </path>
    </g>
  </g>
</svg>