<svg xmlns="http://www.w3.org/2000/svg" xmlns:xlink="http://www.w3.org/1999/xlink" width="104.9979248046875"
  height="19.99908447265625" viewBox="0 0 104.9979248046875 19.99908447265625" fill="none">
  <g opacity="1" transform="translate(0 0)  rotate(0)">
    <path id="路径 1" fill-rule="evenodd" style="fill:#FFFFFF" opacity="1"
      d="M0 1.4L0 19.37C0 19.48 0.09 19.6 0.22 19.6L3.38 19.6C3.49 19.6 3.6 19.51 3.6 19.37L3.6 10.19C3.6 10.14 3.63 10.07 3.67 10.03C4.68 9.06 5.39 8.55 6.49 8.55C7.85 8.55 8.44 9.31 8.44 11.44L8.44 19.39C8.44 19.51 8.53 19.62 8.66 19.62L11.84 19.62C11.95 19.62 12.06 19.53 12.06 19.39L12.06 10.99C12.06 7.49 10.79 5.42 7.81 5.42C6.15 5.42 5.01 6.21 4.01 7.11C3.85 7.24 3.63 7.15 3.63 6.95L3.63 4.86L3.63 0.21C3.63 0.06 3.47 -0.03 3.31 0.01L0.16 1.18C0.07 1.22 0 1.29 0 1.4Z">
    </path>
    <path id="路径 2" fill-rule="evenodd" style="fill:#FFFFFF" opacity="1"
      d="M22.1323 18.1791C23.4723 19.2591 25.4423 19.9991 27.2123 19.9991C30.8124 19.9991 32.7224 18.0491 32.7224 15.6191C32.7224 13.0591 30.6824 12.1391 28.8724 11.4391C27.4123 10.9091 26.0523 10.5191 26.0523 9.50908C26.0523 8.72908 26.6323 8.18909 27.8624 8.18909C28.8223 8.18909 29.7424 8.60909 30.6623 9.23909C30.7724 9.30908 30.9024 9.28909 30.9724 9.19909L32.3324 7.35909C32.4024 7.26909 32.4024 7.10909 32.2924 7.03909C31.1524 6.22909 29.6924 5.46909 27.7724 5.46909C24.6623 5.46909 22.6423 7.21909 22.6423 9.70909C22.6423 12.0091 24.6623 13.0591 26.4023 13.7291C27.8624 14.2991 29.2924 14.7691 29.2924 15.7991C29.2924 16.6791 28.6924 17.2591 27.3023 17.2591C26.0924 17.2591 24.9523 16.7691 23.7923 15.8891C23.7023 15.8191 23.5423 15.8191 23.4723 15.9391L22.0923 17.8391C22.0023 17.9291 22.0223 18.0691 22.1323 18.1791Z">
    </path>
    <path id="路径 3" fill-rule="evenodd" style="fill:#FFFFFF" opacity="1"
      d="M39.9459 19.9501C41.0459 19.9501 41.9359 19.7301 42.6559 19.5101C42.7659 19.4601 42.8359 19.3501 42.8059 19.2401L42.3159 17.0401C42.2959 16.9001 42.1659 16.8301 42.0259 16.8801C41.6959 16.9901 41.2659 17.0801 40.9059 17.0801C39.6759 17.0801 39.0259 16.3401 39.0259 14.7701L39.0259 8.8601C39.0259 8.7501 39.1159 8.6401 39.2559 8.6401L42.2059 8.6401C42.3159 8.6401 42.4259 8.5501 42.4259 8.4101L42.4259 5.9901C42.4259 5.8701 42.3359 5.7601 42.2059 5.7601L39.2559 5.7601C39.1359 5.7601 39.0259 5.6701 39.0259 5.5401L39.0259 2.39011C39.0259 2.2301 38.8759 2.12011 38.7159 2.1901L35.6959 3.38011C35.6259 3.4001 35.5559 3.4901 35.5559 3.5801L35.5559 5.5601C35.5559 5.6701 35.4659 5.7801 35.3359 5.7801L33.6759 5.7801C33.5659 5.7801 33.4559 5.8701 33.4559 6.0101L33.4559 8.4101C33.4559 8.5201 33.5459 8.6401 33.6759 8.6401L35.1759 8.6401C35.2959 8.6401 35.4059 8.7301 35.4059 8.8601L35.4059 14.7701C35.4059 17.8901 36.6559 19.9801 39.9459 19.9501Z">
    </path>
    <path id="路径 4" fill-rule="evenodd" style="fill:#FFFFFF" opacity="1"
      d="M43.9066,12.7242c0,-4.63004 3.18,-7.30004 6.62,-7.30004c3.45,0 6.63,2.67 6.63,7.30004c0,4.58 -3.18,7.25 -6.63,7.25c-3.44,0 -6.62,-2.67 -6.62,-7.25zM50.5266,8.38416c-1.88,0 -2.93,1.71004 -2.93,4.34004c0,2.6 1.05,4.27 2.93,4.27c1.88,0 2.94,-1.67 2.94,-4.27c0,-2.63 -1.06,-4.34004 -2.94,-4.34004z">
    </path>
    <path id="路径 5" fill-rule="evenodd" style="fill:#FFFFFF" opacity="1"
      d="M60.1982 6.00662L60.1982 19.4366C60.1982 19.5466 60.2882 19.6666 60.4182 19.6666L63.5282 19.6666C63.6482 19.6666 63.7582 19.5766 63.7582 19.4366L63.7582 11.4466C63.7582 11.4166 63.7782 11.3766 63.7782 11.3566C64.5582 9.37663 65.8582 8.67662 66.9382 8.67662C67.4282 8.67662 67.7582 8.72662 68.1382 8.83663C68.2782 8.85662 68.4082 8.79663 68.4382 8.65662L68.9882 5.93662C69.0182 5.82662 68.9682 5.71662 68.8582 5.66662C68.4782 5.53662 68.0482 5.44662 67.4082 5.44662C65.9682 5.44662 64.4982 6.43662 63.4882 8.22662L63.3982 8.22662L63.3982 6.00662C63.3982 5.89662 63.3082 5.78662 63.1782 5.78662L60.4182 5.78662C60.2882 5.78662 60.1982 5.87662 60.1982 6.00662Z">
    </path>
    <path id="路径 6" fill-rule="evenodd" style="fill:#FFFFFF" opacity="1"
      d="M77.7429,15.8642c0,-2.92 2.33,-4.49 7.72,-5.09c0.11,-0.03 0.2,-0.14 0.2,-0.25c-0.11,-1.26004 -0.71,-2.18004 -2.33,-2.18004c-1.2,0 -2.39,0.52 -3.6,1.19c-0.11,0.07 -0.24,0.02 -0.31,-0.09l-1.1,-2c-0.07,-0.11 -0.02,-0.25 0.09,-0.31c1.59,-0.97 3.49,-1.71 5.57,-1.71c3.49,0 5.31,2.11 5.31,6.11004v7.86c0,0.13 -0.11,0.22 -0.23,0.22h-2.77c-0.14,0 -0.23,-0.11 -0.23,-0.22v-1.26h-0.06c-1.21,1.03 -2.6,1.82 -4.16,1.82c-2.49,0.02 -4.1,-1.75 -4.1,-4.09zM85.6629,13.2442c0,-0.14 -0.13,-0.25 -0.27,-0.23c-3.15,0.45 -4.23,1.35 -4.23,2.56c0,1.08 0.76,1.55 1.82,1.55c1,0 1.76,-0.47 2.59,-1.3c0.07,-0.05 0.09,-0.09 0.09,-0.16z">
    </path>
    <path id="路径 7" fill-rule="evenodd" style="fill:#FFFFFF" opacity="1"
      d="M92.9379 6.00416L92.9379 19.3742C92.9379 19.4842 93.0279 19.5942 93.1579 19.5942L96.3179 19.5942C96.4279 19.5942 96.5379 19.5042 96.5379 19.3742L96.5379 10.1842C96.5379 10.1442 96.5679 10.0742 96.6079 10.0242C97.6179 9.06416 98.3279 8.54416 99.4279 8.54416C100.788 8.54416 101.378 9.31416 101.378 11.4442L101.378 19.3942C101.378 19.5042 101.468 19.6142 101.598 19.6142L104.778 19.6142C104.888 19.6142 104.998 19.5242 104.998 19.3942L104.998 10.9942C104.998 7.49416 103.728 5.42416 100.748 5.42416C98.8879 5.42416 97.4779 6.41416 96.2679 7.60416L96.1779 7.60416L96.1779 6.00416C96.1779 5.89416 96.0979 5.78416 95.9579 5.78416L93.2079 5.78416C93.0979 5.78416 92.9779 5.87416 92.9379 6.00416Z">
    </path>
    <path id="路径 8" fill-rule="evenodd" style="fill:#FFFFFF" opacity="1"
      d="M71.0294 6.00351L71.0294 19.3935C71.0294 19.5035 71.1194 19.6135 71.2494 19.6135L74.4094 19.6135C74.5194 19.6135 74.6294 19.5235 74.6294 19.3935L74.6294 6.00351C74.6294 5.89351 74.5394 5.78351 74.4094 5.78351L71.2494 5.78351C71.1394 5.78351 71.0294 5.87351 71.0294 6.00351Z">
    </path>
    <path id="路径 9" fill-rule="evenodd" style="fill:#FFFFFF" opacity="1"
      d="M71.0294 1.64902L71.0294 3.35902C71.0294 3.46902 71.1194 3.57902 71.2494 3.57902L74.4094 3.57902C74.5194 3.57902 74.6294 3.48902 74.6294 3.35902L74.6294 0.279021C74.6294 0.119021 74.4794 0.00902098 74.3194 0.079021L71.1594 1.44902C71.0994 1.48902 71.0294 1.55902 71.0294 1.64902Z">
    </path>
    <path id="路径 10" fill-rule="evenodd" style="fill:#FFFFFF" opacity="1"
      d="M15.7545 6.00351L15.7545 19.3935C15.7545 19.5035 15.8445 19.6135 15.9745 19.6135L19.1345 19.6135C19.2445 19.6135 19.3545 19.5235 19.3545 19.3935L19.3545 6.00351C19.3545 5.89351 19.2645 5.78351 19.1345 5.78351L15.9745 5.78351C15.8645 5.78351 15.7545 5.87351 15.7545 6.00351Z">
    </path>
    <path id="路径 11" fill-rule="evenodd" style="fill:#FFFFFF" opacity="1"
      d="M15.7545 1.64902L15.7545 3.35902C15.7545 3.46902 15.8445 3.57902 15.9745 3.57902L19.1345 3.57902C19.2445 3.57902 19.3545 3.48902 19.3545 3.35902L19.3545 0.279021C19.3545 0.119021 19.2045 0.00902098 19.0445 0.079021L15.8845 1.44902C15.8245 1.48902 15.7545 1.55902 15.7545 1.64902Z">
    </path>
  </g>
</svg>