<svg xmlns="http://www.w3.org/2000/svg" xmlns:xlink="http://www.w3.org/1999/xlink" width="20" height="20"
  viewBox="0 0 20 20" fill="none">
  <g opacity="1" transform="translate(0 0)  rotate(0)">
    <mask id="bg-mask-0" fill="white">
      <use transform="translate(0 0)  rotate(0)" xlink:href="#path_0"></use>
    </mask>
    <g mask="url(#bg-mask-0)">
      <g opacity="1" transform="translate(1.9390869140625 2.939453125)  rotate(0)">
        <path id="直线 1 (轮廓)" fill-rule="evenodd" style="fill:#A0A3B8" opacity="1"
          d="M1.06091 4.31055C1.01091 4.31055 0.960913 4.31055 0.910913 4.32055C0.870913 4.33055 0.820913 4.35055 0.770913 4.37055C0.730913 4.39055 0.680913 4.41055 0.640913 4.44055C0.600913 4.46055 0.560913 4.49055 0.530913 4.53055C0.490913 4.56055 0.460913 4.60055 0.440913 4.64055C0.410913 4.68055 0.390913 4.73055 0.370913 4.77055C0.350913 4.82055 0.330913 4.87055 0.320913 4.91055C0.310913 4.96055 0.310913 5.01055 0.310913 5.06055C0.310913 5.11055 0.310913 5.16055 0.320913 5.21055C0.330913 5.25055 0.350913 5.30055 0.370913 5.35055C0.390913 5.39055 0.410913 5.44055 0.440913 5.48055C0.460913 5.52055 0.490913 5.56055 0.530913 5.59055C0.560913 5.63055 0.600913 5.66055 0.640913 5.68055C0.680913 5.71055 0.730913 5.73055 0.770913 5.75055C0.820913 5.77055 0.870913 5.79055 0.910913 5.80055C0.960913 5.81055 1.01091 5.81055 1.06091 5.81055L15.0609 5.81055C15.1109 5.81055 15.1609 5.81055 15.2109 5.80055C15.2509 5.79055 15.3009 5.77055 15.3509 5.75055C15.3909 5.73055 15.4409 5.71055 15.4809 5.68055C15.5209 5.66055 15.5609 5.63055 15.5909 5.59055C15.6309 5.56055 15.6609 5.52055 15.6809 5.48055C15.7109 5.44055 15.7309 5.39055 15.7509 5.35055C15.7709 5.30055 15.7909 5.25055 15.8009 5.21055C15.8109 5.16055 15.8109 5.11055 15.8109 5.06055C15.8109 5.01055 15.8109 4.96055 15.8009 4.91055C15.7909 4.87055 15.7709 4.82055 15.7509 4.77055C15.7309 4.73055 15.7109 4.68055 15.6809 4.64055C15.6609 4.60055 15.6309 4.56055 15.5909 4.53055C15.5609 4.49055 15.5209 4.46055 15.4809 4.44055C15.4409 4.41055 15.3909 4.39055 15.3509 4.37055C15.3009 4.35055 15.2509 4.33055 15.2109 4.32055C15.1609 4.31055 15.1109 4.31055 15.0609 4.31055L1.06091 4.31055Z">
        </path>
        <path id="直线 2 (轮廓)" fill-rule="evenodd" style="fill:#A0A3B8" opacity="1"
          d="M0.530574 4.53022C0.495219 4.56557 0.459864 4.60093 0.431579 4.64335C0.410366 4.67871 0.389153 4.72821 0.36794 4.7777C0.353798 4.82013 0.332584 4.86963 0.325513 4.91913C0.311371 4.96155 0.3043 5.01105 0.311371 5.06055C0.3043 5.11004 0.311371 5.15954 0.325513 5.20197C0.332584 5.25147 0.353798 5.30096 0.36794 5.34339C0.389153 5.39289 0.410366 5.44238 0.431579 5.47774C0.459864 5.52017 0.495219 5.55552 0.530574 5.59088C0.56593 5.62623 0.601285 5.66159 0.643711 5.68987C0.679067 5.71109 0.728564 5.7323 0.778062 5.75351C0.820488 5.76765 0.869986 5.78887 0.919483 5.79594C0.961909 5.81008 1.01141 5.81715 1.0609 5.81008C1.1104 5.81715 1.1599 5.81008 1.20233 5.79594C1.25182 5.78887 1.30132 5.76765 1.34375 5.75351C1.39324 5.7323 1.44274 5.71109 1.4781 5.68987C1.52052 5.66159 1.55588 5.62623 1.59123 5.59088L5.59346 1.58865C5.62881 1.5533 5.6571 1.52501 5.68538 1.48259C5.71367 1.44016 5.73488 1.39066 5.74902 1.34824C5.77024 1.29874 5.78438 1.25631 5.79145 1.20682C5.80559 1.16439 5.81266 1.11489 5.81266 1.05832C5.81266 1.0159 5.80559 0.966399 5.79852 0.916902C5.79145 0.867404 5.77024 0.817907 5.75609 0.77548C5.73488 0.725983 5.7066 0.683557 5.68538 0.648201C5.6571 0.605775 5.62881 0.563348 5.59346 0.527993C5.5581 0.492638 5.51568 0.464354 5.47325 0.436069C5.4379 0.414856 5.39547 0.386571 5.34597 0.365358C5.30354 0.351216 5.25405 0.330003 5.20455 0.322932C5.15505 0.315861 5.10556 0.30879 5.06313 0.30879C5.00656 0.30879 4.95706 0.315861 4.91464 0.330003C4.86514 0.337074 4.82271 0.351216 4.77322 0.372429C4.73079 0.386571 4.68129 0.407784 4.63886 0.436069C4.59644 0.464353 4.56815 0.492638 4.5328 0.527993L0.530574 4.53022Z">
        </path>
        <path id="直线 1 (轮廓)" fill-rule="evenodd" style="fill:#A0A3B8" opacity="1"
          d="M15.0609 9.81055C15.1109 9.81055 15.1609 9.81055 15.2109 9.80055C15.2509 9.79055 15.3009 9.77055 15.3509 9.75055C15.3909 9.73055 15.4409 9.71055 15.4809 9.68055C15.5209 9.66055 15.5609 9.63055 15.5909 9.59055C15.6309 9.56055 15.6609 9.52055 15.6809 9.48055C15.7109 9.44055 15.7309 9.39055 15.7509 9.35055C15.7709 9.30055 15.7909 9.25055 15.8009 9.21055C15.8109 9.16055 15.8109 9.11055 15.8109 9.06055C15.8109 9.01055 15.8109 8.96055 15.8009 8.91055C15.7909 8.87055 15.7709 8.82055 15.7509 8.77055C15.7309 8.73055 15.7109 8.68055 15.6809 8.64055C15.6609 8.60055 15.6309 8.56055 15.5909 8.53055C15.5609 8.49055 15.5209 8.46055 15.4809 8.44055C15.4409 8.41055 15.3909 8.39055 15.3509 8.37055C15.3009 8.35055 15.2509 8.33055 15.2109 8.32055C15.1609 8.31055 15.1109 8.31055 15.0609 8.31055L1.06091 8.31055C1.01091 8.31055 0.960911 8.31055 0.910912 8.32055C0.870912 8.33055 0.820911 8.35055 0.770911 8.37055C0.730911 8.39055 0.680911 8.41055 0.640911 8.44055C0.600911 8.46055 0.560911 8.49055 0.530911 8.53055C0.490911 8.56055 0.460911 8.60055 0.440911 8.64055C0.410912 8.68055 0.390911 8.73055 0.370912 8.77055C0.350911 8.82055 0.330912 8.87055 0.320911 8.91055C0.310911 8.96055 0.310911 9.01055 0.310911 9.06055C0.310911 9.11055 0.310911 9.16055 0.320911 9.21055C0.330912 9.25055 0.350911 9.30055 0.370912 9.35055C0.390911 9.39055 0.410912 9.44055 0.440911 9.48055C0.460911 9.52055 0.490911 9.56055 0.530911 9.59055C0.560911 9.63055 0.600911 9.66055 0.640911 9.68055C0.680911 9.71055 0.730911 9.73055 0.770911 9.75055C0.820911 9.77055 0.870912 9.79055 0.910912 9.80055C0.960911 9.81055 1.01091 9.81055 1.06091 9.81055L15.0609 9.81055Z">
        </path>
        <path id="直线 2 (轮廓)" fill-rule="evenodd" style="fill:#A0A3B8" opacity="1"
          d="M15.5913 9.59088C15.6266 9.55552 15.662 9.52017 15.6902 9.47774C15.7115 9.44238 15.7327 9.39289 15.7539 9.34339C15.768 9.30096 15.7892 9.25147 15.7963 9.20197C15.8105 9.15954 15.8175 9.11004 15.8105 9.06055C15.8175 9.01105 15.8105 8.96155 15.7963 8.91913C15.7892 8.86963 15.768 8.82013 15.7539 8.7777C15.7327 8.72821 15.7115 8.67871 15.6902 8.64335C15.662 8.60093 15.6266 8.56557 15.5913 8.53022C15.5559 8.49486 15.5205 8.45951 15.4781 8.43122C15.4428 8.41001 15.3933 8.3888 15.3438 8.36758C15.3013 8.35344 15.2518 8.33223 15.2023 8.32516C15.1599 8.31101 15.1104 8.30394 15.0609 8.31101C15.0114 8.30394 14.9619 8.31101 14.9195 8.32516C14.87 8.33223 14.8205 8.35344 14.7781 8.36758C14.7286 8.3888 14.6791 8.41001 14.6437 8.43122C14.6013 8.45951 14.5659 8.49486 14.5306 8.53022L10.5284 12.5324C10.493 12.5678 10.4647 12.5961 10.4364 12.6385C10.4082 12.6809 10.3869 12.7304 10.3728 12.7729C10.3516 12.8224 10.3374 12.8648 10.3304 12.9143C10.3162 12.9567 10.3092 13.0062 10.3092 13.0628C10.3092 13.1052 10.3162 13.1547 10.3233 13.2042C10.3304 13.2537 10.3516 13.3032 10.3657 13.3456C10.3869 13.3951 10.4152 13.4375 10.4364 13.4729C10.4647 13.5153 10.493 13.5577 10.5284 13.5931C10.5637 13.6285 10.6061 13.6567 10.6486 13.685C10.6839 13.7062 10.7264 13.7345 10.7759 13.7557C10.8183 13.7699 10.8678 13.7911 10.9173 13.7982C10.9668 13.8052 11.0163 13.8123 11.0587 13.8123C11.1153 13.8123 11.1648 13.8052 11.2072 13.7911C11.2567 13.784 11.2991 13.7699 11.3486 13.7487C11.391 13.7345 11.4405 13.7133 11.483 13.685C11.5254 13.6567 11.5537 13.6285 11.589 13.5931L15.5913 9.59088Z">
        </path>
      </g>
    </g>
  </g>
  <defs>
    <rect id="path_0" x="0" y="0" width="20" height="20" />
  </defs>
</svg>