<svg xmlns="http://www.w3.org/2000/svg" xmlns:xlink="http://www.w3.org/1999/xlink" width="24" height="24" viewBox="0 0 24 24" fill="none"><g opacity="1"  transform="translate(0 0)  rotate(0)"><mask id="bg-mask-0" fill="white"><use xlink:href="#path_0"></use></mask><g mask="url(#bg-mask-0)" ><path id="直线 1 (轮廓)" fill-rule="evenodd" style="fill:#A0A3B8" opacity="1" d="M5.6 17.8C5.56 17.8 5.52 17.8 5.48 17.81C5.44 17.82 5.41 17.83 5.37 17.85C5.33 17.86 5.3 17.88 5.27 17.9C5.23 17.92 5.2 17.95 5.18 17.98C5.15 18 5.12 18.03 5.1 18.07C5.08 18.1 5.06 18.13 5.05 18.17C5.03 18.21 5.02 18.24 5.01 18.28C5 18.32 5 18.36 5 18.4C5 18.44 5 18.48 5.01 18.52C5.02 18.56 5.03 18.59 5.05 18.63C5.06 18.67 5.08 18.7 5.1 18.73C5.12 18.77 5.15 18.8 5.18 18.82C5.2 18.85 5.23 18.88 5.27 18.9C5.3 18.92 5.33 18.94 5.37 18.95C5.41 18.97 5.44 18.98 5.48 18.99C5.52 19 5.56 19 5.6 19L18.4 19C18.44 19 18.48 19 18.52 18.99C18.56 18.98 18.59 18.97 18.63 18.95C18.67 18.94 18.7 18.92 18.73 18.9C18.77 18.88 18.8 18.85 18.82 18.82C18.85 18.8 18.88 18.77 18.9 18.73C18.92 18.7 18.94 18.67 18.95 18.63C18.97 18.59 18.98 18.56 18.99 18.52C19 18.48 19 18.44 19 18.4C19 18.36 19 18.32 18.99 18.28C18.98 18.24 18.97 18.21 18.95 18.17C18.94 18.13 18.92 18.1 18.9 18.07C18.88 18.03 18.85 18 18.82 17.98C18.8 17.95 18.77 17.92 18.73 17.9C18.7 17.88 18.67 17.86 18.63 17.85C18.59 17.83 18.56 17.82 18.52 17.81C18.48 17.8 18.44 17.8 18.4 17.8L5.6 17.8Z"></path><path id="矩形 2 (轮廓)" fill-rule="evenodd" style="fill:#A0A3B8" opacity="1" d="M5,16v-5.6c0,-0.04 0,-0.08 0.01,-0.12c0.01,-0.04 0.02,-0.07 0.04,-0.11c0.01,-0.04 0.03,-0.07 0.05,-0.1c0.02,-0.04 0.05,-0.07001 0.08,-0.09001c0.02,-0.03 0.05,-0.06 0.09,-0.08c0.03,-0.02 0.06,-0.04 0.1,-0.05c0.04,-0.02 0.07,-0.03 0.11,-0.04c0.04,-0.01 0.08,-0.01 0.12,-0.01h2.4c0.04,0 0.08,0 0.12,0.01c0.04,0.01 0.07,0.02 0.11,0.04c0.04,0.01 0.07,0.03 0.1,0.05c0.04,0.02 0.07,0.05 0.09,0.08c0.03,0.02 0.06,0.05001 0.08,0.09001c0.02,0.03 0.04,0.06 0.05,0.1c0.02,0.04 0.03,0.07 0.04,0.11c0.01,0.04 0.01,0.08 0.01,0.12v5.6c0,0.04 0,0.08 -0.01,0.12c-0.01,0.04 -0.02,0.07 -0.04,0.11c-0.01,0.04 -0.03,0.07 -0.05,0.1c-0.02,0.04 -0.05,0.07 -0.08,0.09c-0.02,0.03 -0.05,0.06 -0.09,0.08c-0.03,0.02 -0.06,0.04 -0.1,0.05c-0.04,0.02 -0.07,0.03 -0.11,0.04c-0.04,0.01 -0.08,0.01 -0.12,0.01h-2.4c-0.04,0 -0.08,0 -0.12,-0.01c-0.04,-0.01 -0.07,-0.02 -0.11,-0.04c-0.04,-0.01 -0.07,-0.03 -0.1,-0.05c-0.04,-0.02 -0.07,-0.05 -0.09,-0.08c-0.03,-0.02 -0.06,-0.05 -0.08,-0.09c-0.02,-0.03 -0.04,-0.06 -0.05,-0.1c-0.02,-0.04 -0.03,-0.07 -0.04,-0.11c-0.01,-0.04 -0.01,-0.08 -0.01,-0.12zM6.2,11v4.4h1.2v-4.4z"></path><path id="矩形 2 (轮廓)" fill-rule="evenodd" style="fill:#495AD4" opacity="1" d="M17.7999 12.4C17.7999 12.44 17.7999 12.48 17.8099 12.52C17.8199 12.56 17.8299 12.59 17.8499 12.63C17.8599 12.67 17.8799 12.7 17.8999 12.73C17.9199 12.77 17.9499 12.8 17.9799 12.82C17.9999 12.85 18.0299 12.88 18.0699 12.9C18.0999 12.92 18.1299 12.94 18.1699 12.95C18.2099 12.97 18.2399 12.98 18.2799 12.99C18.3199 13 18.3599 13 18.3999 13C18.4399 13 18.4799 13 18.5199 12.99C18.5599 12.98 18.5899 12.97 18.6299 12.95C18.6699 12.94 18.6999 12.92 18.7299 12.9C18.7699 12.88 18.7999 12.85 18.8199 12.82C18.8499 12.8 18.8799 12.77 18.8999 12.73C18.9199 12.7 18.9399 12.67 18.9499 12.63C18.9699 12.59 18.9799 12.56 18.9899 12.52C18.9999 12.48 18.9999 12.44 18.9999 12.4L18.9999 8.80001C18.9999 8.76001 18.9999 8.72001 18.9899 8.68001C18.9799 8.64001 18.9699 8.61001 18.9499 8.57001C18.9399 8.53001 18.9199 8.50001 18.8999 8.47001C18.8799 8.43001 18.8499 8.40001 18.8199 8.38001C18.7999 8.35001 18.7699 8.32001 18.7299 8.30001C18.6999 8.28001 18.6699 8.26001 18.6299 8.25001C18.5899 8.23001 18.5599 8.22001 18.5199 8.21001C18.4799 8.20001 18.4399 8.20001 18.3999 8.20001L15.9999 8.20001C15.9599 8.20001 15.9199 8.20001 15.8799 8.21001C15.8399 8.22001 15.8099 8.23001 15.7699 8.25001C15.7299 8.26001 15.6999 8.28001 15.6699 8.30001C15.6299 8.32001 15.5999 8.35001 15.5799 8.38001C15.5499 8.40001 15.5199 8.43001 15.4999 8.47001C15.4799 8.50001 15.4599 8.53001 15.4499 8.57001C15.4299 8.61001 15.4199 8.64001 15.4099 8.68001C15.3999 8.72001 15.3999 8.76001 15.3999 8.80001L15.3999 16C15.3999 16.04 15.3999 16.08 15.4099 16.12C15.4199 16.16 15.4299 16.19 15.4499 16.23C15.4599 16.27 15.4799 16.3 15.4999 16.33C15.5199 16.37 15.5499 16.4 15.5799 16.42C15.5999 16.45 15.6299 16.48 15.6699 16.5C15.6999 16.52 15.7299 16.54 15.7699 16.55C15.8099 16.57 15.8399 16.58 15.8799 16.59C15.9199 16.6 15.9599 16.6 15.9999 16.6L18.3999 16.6C18.4399 16.6 18.4799 16.6 18.5199 16.59C18.5599 16.58 18.5899 16.57 18.6299 16.55C18.6699 16.54 18.6999 16.52 18.7299 16.5C18.7699 16.48 18.7999 16.45 18.8199 16.42C18.8499 16.4 18.8799 16.37 18.8999 16.33C18.9199 16.3 18.9399 16.27 18.9499 16.23C18.9699 16.19 18.9799 16.16 18.9899 16.12C18.9999 16.08 18.9999 16.04 18.9999 16L18.9999 14.2C18.9999 14.16 18.9999 14.12 18.9899 14.08C18.9799 14.04 18.9699 14.01 18.9499 13.97C18.9399 13.93 18.9199 13.9 18.8999 13.87C18.8799 13.83 18.8499 13.8 18.8199 13.78C18.7999 13.75 18.7699 13.72 18.7299 13.7C18.6999 13.68 18.6699 13.66 18.6299 13.65C18.5899 13.63 18.5599 13.62 18.5199 13.61C18.4799 13.6 18.4399 13.6 18.3999 13.6C18.3599 13.6 18.3199 13.6 18.2799 13.61C18.2399 13.62 18.2099 13.63 18.1699 13.65C18.1299 13.66 18.0999 13.68 18.0699 13.7C18.0299 13.72 17.9999 13.75 17.9799 13.78C17.9499 13.8 17.9199 13.83 17.8999 13.87C17.8799 13.9 17.8599 13.93 17.8499 13.97C17.8299 14.01 17.8199 14.04 17.8099 14.08C17.7999 14.12 17.7999 14.16 17.7999 14.2L17.7999 15.4L16.5999 15.4L16.5999 9.40001L17.7999 9.40001L17.7999 12.4Z"></path><path id="矩形 2 (轮廓)" fill-rule="evenodd" style="fill:#A0A3B8" opacity="1" d="M9.7998,16v-10.4c0,-0.04 0,-0.08 0.01,-0.12c0.01001,-0.04 0.02,-0.07 0.04,-0.11c0.01001,-0.04 0.03,-0.07 0.05001,-0.1c0.01999,-0.04 0.04999,-0.07 0.07999,-0.09c0.02,-0.03 0.05,-0.06 0.09,-0.08c0.03,-0.02 0.06,-0.04 0.1,-0.05c0.04,-0.02 0.07,-0.03 0.11,-0.04c0.04,-0.01 0.08,-0.01 0.12,-0.01h3.2c0.04,0 0.08,0 0.12,0.01c0.04,0.01 0.07,0.02 0.11,0.04c0.04,0.01 0.07,0.03 0.1,0.05c0.04,0.02 0.07,0.05 0.09,0.08c0.03,0.02 0.06,0.05 0.08,0.09c0.02,0.03 0.04,0.06 0.05,0.1c0.02,0.04 0.03,0.07 0.04,0.11c0.01,0.04 0.01,0.08 0.01,0.12v10.4c0,0.04 0,0.08 -0.01,0.12c-0.01,0.04 -0.02,0.07 -0.04,0.11c-0.01,0.04 -0.03,0.07 -0.05,0.1c-0.02,0.04 -0.05,0.07 -0.08,0.09c-0.02,0.03 -0.05,0.06 -0.09,0.08c-0.03,0.02 -0.06,0.04 -0.1,0.05c-0.04,0.02 -0.07,0.03 -0.11,0.04c-0.04,0.01 -0.08,0.01 -0.12,0.01h-3.2c-0.04,0 -0.08,0 -0.12,-0.01c-0.04,-0.01 -0.07,-0.02 -0.11,-0.04c-0.04,-0.01 -0.07,-0.03 -0.1,-0.05c-0.04,-0.02 -0.07,-0.05 -0.09,-0.08c-0.03,-0.02 -0.06,-0.05 -0.07999,-0.09c-0.02001,-0.03 -0.04,-0.06 -0.05001,-0.1c-0.02,-0.04 -0.02999,-0.07 -0.04,-0.11c-0.01,-0.04 -0.01,-0.08 -0.01,-0.12zM10.9998,6.2v9.2h2v-9.2z"></path></g></g><defs><rect id="path_0" x="0" y="0" width="24" height="24" /></defs></svg>