<svg xmlns="http://www.w3.org/2000/svg" xmlns:xlink="http://www.w3.org/1999/xlink" width="30" height="30" viewBox="0 0 30 30" fill="none">
<path d="M6.51582 11.3085C6.00527 12.4799 5.75 13.7104 5.75 15.0001C5.75 20.1087 9.89137 24.2501 15 24.2501C15.4142 24.2501 15.75 24.5859 15.75 25.0001C15.75 25.4144 15.4142 25.7501 15 25.7501C9.06294 25.7501 4.25 20.9372 4.25 15.0001C4.25 13.5018 4.54698 12.0713 5.14095 10.7087C5.25301 10.4355 5.5216 10.2432 5.83512 10.2432C6.24933 10.2432 6.58512 10.5789 6.58512 10.9932C6.58512 11.1058 6.5603 11.2126 6.51582 11.3085Z" fill-rule="evenodd"  fill="#131926" >
</path>
<path d="M14.25 5C14.25 5.41421 14.5858 5.75 15 5.75C20.1086 5.75 24.25 9.89137 24.25 15C24.25 16.2897 23.9947 17.5202 23.4842 18.6916C23.4397 18.7875 23.4149 18.8943 23.4149 19.0069C23.4149 19.4212 23.7507 19.7569 24.1649 19.7569C24.4784 19.7569 24.747 19.5646 24.8591 19.2914C25.453 17.9288 25.75 16.4983 25.75 15C25.75 9.06294 20.9371 4.25 15 4.25C14.5858 4.25 14.25 4.58579 14.25 5Z" fill-rule="evenodd"  fill="#131926" >
</path>
<path d="M12 6.5C12 7.32843 11.3284 8 10.5 8C9.67157 8 9 7.32843 9 6.5C9 5.67157 9.67157 5 10.5 5C11.3284 5 12 5.67157 12 6.5Z"   fill="#131926" >
</path>
<path d="M11 13.5C11 14.3284 10.3284 15 9.5 15C8.67157 15 8 14.3284 8 13.5C8 12.6716 8.67157 12 9.5 12C10.3284 12 11 12.6716 11 13.5Z"   fill="#131926" >
</path>
<path d="M17 11.5C17 12.3284 16.3284 13 15.5 13C14.6716 13 14 12.3284 14 11.5C14 10.6716 14.6716 10 15.5 10C16.3284 10 17 10.6716 17 11.5Z"   fill="#131926" >
</path>
<path d="M9.75757 6.39391C9.81134 6.0964 9.97977 5.89459 10.2629 5.78847C10.553 5.70351 10.8088 5.7639 11.0304 5.96965L16.0304 10.9696L14.9697 12.0303L11.0304 8.09097L10.7425 10.106L10.2425 13.606L8.75757 13.3939L9.25757 9.89391L9.75757 6.39391L9.75757 6.39391Z" fill-rule="evenodd"  fill="#131926" >
</path>
<path d="M18.6708 14.6646C18.4856 14.2941 18.0351 14.144 17.6646 14.3292L13.6646 16.3292C13.2941 16.5145 13.1439 16.965 13.3292 17.3355C13.5144 17.7059 13.9649 17.8561 14.3354 17.6709L18.3354 15.6709C18.7059 15.4856 18.8561 15.0351 18.6708 14.6646Z" fill-rule="evenodd"  fill="#495AD4" >
</path>
<path d="M14 16.25C13.5858 16.25 13.25 16.5858 13.25 17L13.25 22C13.25 22.4142 13.5858 22.75 14 22.75C14.4142 22.75 14.75 22.4142 14.75 22L14.75 17C14.75 16.5858 14.4142 16.25 14 16.25Z" fill-rule="evenodd"  fill="#495AD4" >
</path>
<path d="M13.3291 21.6645C13.1439 22.035 13.2941 22.4855 13.6646 22.6707L17.6646 24.6707C18.035 24.8559 18.4855 24.7058 18.6708 24.3353C18.856 23.9648 18.7059 23.5143 18.3354 23.3291L14.3354 21.3291C13.9649 21.1438 13.5144 21.294 13.3291 21.6645Z" fill-rule="evenodd"  fill="#495AD4" >
</path>
<path d="M17.3291 14.6645C17.1439 15.035 17.2941 15.4855 17.6646 15.6707L21.6646 17.6707C22.035 17.8559 22.4855 17.7058 22.6708 17.3353C22.856 16.9648 22.7059 16.5143 22.3354 16.3291L18.3354 14.3291C17.9649 14.1438 17.5144 14.294 17.3291 14.6645Z" fill-rule="evenodd"  fill="#495AD4" >
</path>
<path d="M22 16.25C21.5858 16.25 21.25 16.5858 21.25 17L21.25 22C21.25 22.4142 21.5858 22.75 22 22.75C22.4142 22.75 22.75 22.4142 22.75 22L22.75 17C22.75 16.5858 22.4142 16.25 22 16.25Z" fill-rule="evenodd"  fill="#495AD4" >
</path>
<path d="M22.6708 21.6646C22.4856 21.2941 22.0351 21.144 21.6646 21.3292L17.6646 23.3292C17.2941 23.5145 17.1439 23.965 17.3292 24.3355C17.5144 24.7059 17.9649 24.8561 18.3354 24.6709L22.3354 22.6709C22.7059 22.4856 22.8561 22.0351 22.6708 21.6646Z" fill-rule="evenodd"  fill="#495AD4" >
</path>
<path d="M13.3291 16.6645C13.1439 17.035 13.2941 17.4855 13.6646 17.6707L17.6646 19.6707C18.035 19.8559 18.4855 19.7058 18.6708 19.3353C18.856 18.9648 18.7059 18.5143 18.3354 18.3291L14.3354 16.3291C13.9649 16.1438 13.5144 16.294 13.3291 16.6645Z" fill-rule="evenodd"  fill="#495AD4" >
</path>
<path d="M17.3292 19.3354C17.5144 19.7059 17.9649 19.856 18.3354 19.6708L22.3354 17.6708C22.7059 17.4855 22.8561 17.035 22.6708 16.6645C22.4856 16.2941 22.0351 16.1439 21.6646 16.3291L17.6646 18.3291C17.2941 18.5144 17.1439 18.9649 17.3292 19.3354Z" fill-rule="evenodd"  fill="#495AD4" >
</path>
</svg>
