<svg xmlns="http://www.w3.org/2000/svg" xmlns:xlink="http://www.w3.org/1999/xlink" width="16" height="16" viewBox="0 0 16 16" fill="none">
<g  clip-path="url(#clip-path-40_13)">
<path d="M12.2367 6.42206C12.5234 6.08326 12.6667 5.72035 12.6667 5.33334C12.6667 4.94632 12.5234 4.58342 12.2367 4.24461C11.9855 3.94758 11.6385 3.6884 11.1959 3.46707C10.7716 3.25493 10.2875 3.09134 9.74352 2.97631C9.18776 2.85877 8.60659 2.8 8 2.8C7.39341 2.8 6.81223 2.85877 6.25646 2.97631C5.71253 3.09134 5.22842 3.25493 4.80413 3.46707C4.36147 3.6884 4.01451 3.94758 3.76324 4.24461C3.47664 4.58342 3.33333 4.94632 3.33333 5.33334C3.33333 5.72035 3.47664 6.08326 3.76324 6.42206C4.01451 6.71909 4.36147 6.97827 4.80413 7.1996C5.22842 7.41175 5.71253 7.57533 6.25646 7.69037C6.81223 7.8079 7.39341 7.86667 8 7.86667C8.60659 7.86667 9.18776 7.8079 9.74352 7.69037C10.2875 7.57533 10.7716 7.41175 11.1959 7.1996C11.6385 6.97827 11.9855 6.71909 12.2367 6.42206ZM11.626 4.76128C11.7864 4.95096 11.8667 5.14165 11.8667 5.33334C11.8667 5.52502 11.7864 5.71571 11.626 5.90539C11.4454 6.11882 11.1828 6.31171 10.8381 6.48406C10.475 6.6656 10.055 6.8068 9.57803 6.90768C9.07682 7.01367 8.55081 7.06667 8 7.06667C7.44919 7.06667 6.92318 7.01367 6.42198 6.90768C5.945 6.80681 5.52497 6.6656 5.1619 6.48406C4.81719 6.31171 4.55456 6.11882 4.37402 5.90539C4.21356 5.71571 4.13333 5.52502 4.13333 5.33334C4.13333 5.14165 4.21356 4.95096 4.37402 4.76128C4.55456 4.54786 4.81719 4.35497 5.1619 4.18261C5.52497 4.00107 5.945 3.85987 6.42198 3.759C6.92318 3.653 7.44919 3.6 8 3.6C8.55081 3.6 9.07682 3.653 9.57803 3.759C10.055 3.85987 10.475 4.00107 10.8381 4.18261C11.1828 4.35497 11.4454 4.54786 11.626 4.76128Z" fill-rule="evenodd"  fill="#495AD4" >
</path>
<path d="M3.73333 4.93333C3.51242 4.93333 3.33333 5.11242 3.33333 5.33333L3.33333 8C3.33333 8.22091 3.51242 8.4 3.73333 8.4C3.95425 8.4 4.13333 8.22091 4.13333 8L4.13333 5.33333C4.13333 5.11242 3.95425 4.93333 3.73333 4.93333Z" fill-rule="evenodd"  fill="#495AD4" >
</path>
<path d="M3.73333 7.6C3.51242 7.6 3.33333 7.77908 3.33333 8L3.33333 10.6667C3.33333 10.8876 3.51242 11.0667 3.73333 11.0667C3.95425 11.0667 4.13333 10.8876 4.13333 10.6667L4.13333 8C4.13333 7.77908 3.95425 7.6 3.73333 7.6Z" fill-rule="evenodd"  fill="#495AD4" >
</path>
<path d="M12.2667 4.93333C12.0458 4.93333 11.8667 5.11242 11.8667 5.33333L11.8667 8C11.8667 8.22091 12.0458 8.4 12.2667 8.4C12.4876 8.4 12.6667 8.22091 12.6667 8L12.6667 5.33333C12.6667 5.11242 12.4876 4.93333 12.2667 4.93333Z" fill-rule="evenodd"  fill="#495AD4" >
</path>
<path d="M12.2667 7.6C12.0458 7.6 11.8667 7.77908 11.8667 8L11.8667 10.6667C11.8667 10.8876 12.0458 11.0667 12.2667 11.0667C12.4876 11.0667 12.6667 10.8876 12.6667 10.6667L12.6667 8C12.6667 7.77908 12.4876 7.6 12.2667 7.6Z" fill-rule="evenodd"  fill="#495AD4" >
</path>
<path d="M4.13333 8C4.13333 7.77908 3.95425 7.6 3.73333 7.6C3.51242 7.6 3.33333 7.77908 3.33333 8L3.33333 8.00053C3.33347 8.38734 3.47677 8.75008 3.76324 9.08872C4.01451 9.38576 4.36147 9.64494 4.80413 9.86627C5.22842 10.0784 5.71253 10.242 6.25646 10.357C6.81223 10.4746 7.39341 10.5333 8 10.5333C8.60659 10.5333 9.18776 10.4746 9.74352 10.357C10.2875 10.242 10.7716 10.0784 11.1959 9.86627C11.6385 9.64494 11.9855 9.38576 12.2367 9.08872C12.5234 8.74992 12.6667 8.38701 12.6667 8C12.6667 7.77908 12.4876 7.6 12.2667 7.6C12.0458 7.6 11.8667 7.77908 11.8667 8C11.8667 8.19169 11.7864 8.38237 11.626 8.57205C11.4454 8.78548 11.1828 8.97837 10.8381 9.15072C10.475 9.33226 10.055 9.47346 9.57803 9.57434C9.07682 9.68034 8.55081 9.73333 8 9.73333C7.44919 9.73333 6.92318 9.68034 6.42198 9.57434C5.945 9.47346 5.52497 9.33226 5.1619 9.15072C4.81719 8.97837 4.55456 8.78548 4.37402 8.57205C4.21356 8.38237 4.13333 8.19169 4.13333 8Z" fill-rule="evenodd"  fill="#495AD4" >
</path>
<path d="M4.13333 10.6667C4.13333 10.4458 3.95425 10.2667 3.73333 10.2667C3.51242 10.2667 3.33333 10.4458 3.33333 10.6667L3.33333 10.6672C3.33347 11.054 3.47677 11.4167 3.76324 11.7554C4.01451 12.0524 4.36147 12.3116 4.80413 12.5329C5.22842 12.7451 5.71253 12.9087 6.25646 13.0237C6.81223 13.1412 7.39341 13.2 8 13.2C8.60659 13.2 9.18776 13.1412 9.74352 13.0237C10.2875 12.9087 10.7716 12.7451 11.1959 12.5329C11.6385 12.3116 11.9855 12.0524 12.2367 11.7554C12.5234 11.4166 12.6667 11.0537 12.6667 10.6667C12.6667 10.4458 12.4876 10.2667 12.2667 10.2667C12.0458 10.2667 11.8667 10.4458 11.8667 10.6667C11.8667 10.8584 11.7864 11.049 11.626 11.2387C11.4454 11.4521 11.1828 11.645 10.8381 11.8174C10.475 11.9989 10.055 12.1401 9.57803 12.241C9.07682 12.347 8.55081 12.4 8 12.4C7.44919 12.4 6.92318 12.347 6.42198 12.241C5.945 12.1401 5.52497 11.9989 5.1619 11.8174C4.81719 11.645 4.55456 11.4521 4.37402 11.2387C4.21356 11.049 4.13333 10.8584 4.13333 10.6667Z" fill-rule="evenodd"  fill="#495AD4" >
</path>
</g>
<defs>
<clipPath id="clip-path-40_13">
<path d="M0 16L16 16L16 0L0 0L0 16Z" fill="white"/>
</clipPath>
</defs>
</svg>
