<svg xmlns="http://www.w3.org/2000/svg" xmlns:xlink="http://www.w3.org/1999/xlink" width="16" height="16" viewBox="0 0 16 16" fill="none">
<path d="M8 13.2C10.8719 13.2 13.2 10.8719 13.2 8C13.2 5.12812 10.8719 2.8 8 2.8C5.12812 2.8 2.8 5.12812 2.8 8C2.8 10.8719 5.12812 13.2 8 13.2ZM8 3.6C10.43 3.6 12.4 5.56995 12.4 8C12.4 10.43 10.43 12.4 8 12.4C5.56995 12.4 3.6 10.43 3.6 8C3.6 5.56995 5.56995 3.6 8 3.6Z" fill-rule="evenodd"  fill="#495AD4" >
</path>
<path d="M8 4.93333C7.77909 4.93333 7.6 5.11242 7.6 5.33333L7.6 8C7.6 8.22091 7.77909 8.4 8 8.4C8.22092 8.4 8.4 8.22091 8.4 8L8.4 5.33333C8.4 5.11242 8.22092 4.93333 8 4.93333Z" fill-rule="evenodd"  fill="#495AD4" >
</path>
<path d="M7.71716 7.71715C7.56095 7.87336 7.56095 8.12663 7.71716 8.28284L10.1172 10.6828C10.2734 10.839 10.5266 10.839 10.6828 10.6828C10.8391 10.5266 10.8391 10.2734 10.6828 10.1172L8.28284 7.71715C8.12663 7.56094 7.87337 7.56094 7.71716 7.71715Z" fill-rule="evenodd"  fill="#495AD4" >
</path>
</svg>
