<svg xmlns="http://www.w3.org/2000/svg" xmlns:xlink="http://www.w3.org/1999/xlink" width="30" height="30"
  viewBox="0 0 30 30" fill="none">
  <g opacity="1" transform="translate(0 0)  rotate(0)">
    <rect fill="#495AD4" opacity="1" transform="translate(0 0)  rotate(0)" x="0" y="0" width="30" height="30" rx="4" />
    <mask id="bg-mask-0" fill="white">
      <use transform="translate(0 0)  rotate(0)" xlink:href="#path_0"></use>
    </mask>
    <g mask="url(#bg-mask-0)">
      <path id="矩形 2 (轮廓)" fill-rule="evenodd" style="fill:#FFFFFF" opacity="1"
        d="M6.25,20v-13c0,-0.05 0,-0.1 0.01,-0.15c0.01,-0.04 0.03,-0.09 0.05,-0.14c0.02,-0.04 0.04,-0.09 0.07,-0.13c0.02,-0.04 0.05,-0.08 0.09,-0.11c0.03,-0.04 0.07,-0.07 0.11,-0.09c0.04,-0.03 0.09,-0.05 0.13,-0.07c0.05,-0.02 0.1,-0.04 0.14,-0.05c0.05,-0.01 0.1,-0.01 0.15,-0.01h16c0.05,0 0.1,0 0.15,0.01c0.04,0.01 0.09,0.03 0.14,0.05c0.04,0.02 0.09,0.04 0.13,0.07c0.04,0.02 0.08,0.05 0.11,0.09c0.04,0.03 0.07,0.07 0.09,0.11c0.03,0.04 0.05,0.09 0.07,0.13c0.02,0.05 0.04,0.1 0.05,0.14c0.01,0.05 0.01,0.1 0.01,0.15v13c0,0.05 0,0.1 -0.01,0.15c-0.01,0.04 -0.03,0.09 -0.05,0.14c-0.02,0.04 -0.04,0.09 -0.07,0.13c-0.02,0.04 -0.05,0.08 -0.09,0.11c-0.03,0.04 -0.07,0.07 -0.11,0.09c-0.04,0.03 -0.09,0.05 -0.13,0.07c-0.05,0.02 -0.1,0.04 -0.14,0.05c-0.05,0.01 -0.1,0.01 -0.15,0.01h-16c-0.05,0 -0.1,0 -0.15,-0.01c-0.04,-0.01 -0.09,-0.03 -0.14,-0.05c-0.04,-0.02 -0.09,-0.04 -0.13,-0.07c-0.04,-0.02 -0.08,-0.05 -0.11,-0.09c-0.04,-0.03 -0.07,-0.07 -0.09,-0.11c-0.03,-0.04 -0.05,-0.09 -0.07,-0.13c-0.02,-0.05 -0.04,-0.1 -0.05,-0.14c-0.01,-0.05 -0.01,-0.1 -0.01,-0.15zM7.75,7.75v11.5h14.5v-11.5z">
      </path>
      <path id="直线 1 (轮廓)" fill-rule="evenodd" style="fill:#FFFFFF" opacity="1"
        d="M7 22.25C6.95 22.25 6.9 22.25 6.85 22.26C6.81 22.27 6.76 22.29 6.71 22.31C6.67 22.33 6.62 22.35 6.58 22.38C6.54 22.4 6.5 22.43 6.47 22.47C6.43 22.5 6.4 22.54 6.38 22.58C6.35 22.62 6.33 22.67 6.31 22.71C6.29 22.76 6.27 22.81 6.26 22.85C6.25 22.9 6.25 22.95 6.25 23C6.25 23.05 6.25 23.1 6.26 23.15C6.27 23.19 6.29 23.24 6.31 23.29C6.33 23.33 6.35 23.38 6.38 23.42C6.4 23.46 6.43 23.5 6.47 23.53C6.5 23.57 6.54 23.6 6.58 23.62C6.62 23.65 6.67 23.67 6.71 23.69C6.76 23.71 6.81 23.73 6.85 23.74C6.9 23.75 6.95 23.75 7 23.75L23 23.75C23.05 23.75 23.1 23.75 23.15 23.74C23.19 23.73 23.24 23.71 23.29 23.69C23.33 23.67 23.38 23.65 23.42 23.62C23.46 23.6 23.5 23.57 23.53 23.53C23.57 23.5 23.6 23.46 23.62 23.42C23.65 23.38 23.67 23.33 23.69 23.29C23.71 23.24 23.73 23.19 23.74 23.15C23.75 23.1 23.75 23.05 23.75 23C23.75 22.95 23.75 22.9 23.74 22.85C23.73 22.81 23.71 22.76 23.69 22.71C23.67 22.67 23.65 22.62 23.62 22.58C23.6 22.54 23.57 22.5 23.53 22.47C23.5 22.43 23.46 22.4 23.42 22.38C23.38 22.35 23.33 22.33 23.29 22.31C23.24 22.29 23.19 22.27 23.15 22.26C23.1 22.25 23.05 22.25 23 22.25L7 22.25Z">
      </path>
      <path id="路径 1 (轮廓)" fill-rule="evenodd" style="fill:#E8CA99" opacity="1"
        d="M9 13.25C8.95 13.25 8.9 13.25 8.85 13.26C8.81 13.27 8.76 13.29 8.71 13.31C8.67 13.33 8.62 13.35 8.58 13.38C8.54 13.4 8.5 13.43 8.47 13.47C8.43 13.5 8.4 13.54 8.38 13.58C8.35 13.62 8.33 13.67 8.31 13.71C8.29 13.76 8.27 13.81 8.26 13.85C8.25 13.9 8.25 13.95 8.25 14C8.25 14.05 8.25 14.1 8.26 14.15C8.27 14.19 8.29 14.24 8.31 14.29C8.33 14.33 8.35 14.38 8.38 14.42C8.4 14.46 8.43 14.5 8.47 14.53C8.5 14.57 8.54 14.6 8.58 14.62C8.62 14.65 8.67 14.67 8.71 14.69C8.76 14.71 8.81 14.73 8.85 14.74C8.9 14.75 8.95 14.75 9 14.75L12 14.75C12.1 14.75 12.2 14.73 12.29 14.69C12.38 14.65 12.46 14.6 12.53 14.53L14.85 12.21L17.36 16.39C17.38 16.43 17.41 16.47 17.44 16.5C17.48 16.54 17.51 16.57 17.55 16.6C17.59 16.63 17.64 16.66 17.68 16.68C17.72 16.7 17.77 16.72 17.82 16.73C17.87 16.74 17.91 16.75 17.96 16.75C18.01 16.75 18.06 16.75 18.11 16.74C18.16 16.73 18.21 16.72 18.25 16.71C18.3 16.69 18.34 16.67 18.39 16.64C18.44 16.61 18.49 16.57 18.53 16.53L21.53 13.53C21.6 13.46 21.65 13.38 21.69 13.29C21.73 13.2 21.75 13.1 21.75 13C21.75 12.95 21.75 12.9 21.74 12.85C21.73 12.81 21.71 12.76 21.69 12.71C21.67 12.67 21.65 12.62 21.62 12.58C21.6 12.54 21.57 12.5 21.53 12.47C21.5 12.43 21.46 12.4 21.42 12.38C21.38 12.35 21.33 12.33 21.29 12.31C21.24 12.29 21.19 12.27 21.15 12.26C21.1 12.25 21.05 12.25 21 12.25C20.9 12.25 20.8 12.27 20.71 12.31C20.62 12.35 20.54 12.4 20.47 12.47L18.15 14.79L15.64 10.61C15.61 10.56 15.57 10.51 15.53 10.47C15.5 10.43 15.46 10.4 15.42 10.38C15.38 10.35 15.33 10.33 15.29 10.31C15.24 10.29 15.19 10.27 15.15 10.26C15.1 10.25 15.05 10.25 15 10.25C14.95 10.25 14.9 10.25 14.85 10.26C14.81 10.27 14.76 10.29 14.71 10.31C14.67 10.33 14.62 10.35 14.58 10.38C14.54 10.4 14.5 10.43 14.47 10.47L11.69 13.25L9 13.25Z">
      </path>
    </g>
  </g>
  <defs>
    <rect id="path_0" x="0" y="0" width="30" height="30" />
  </defs>
</svg>