<svg xmlns="http://www.w3.org/2000/svg" xmlns:xlink="http://www.w3.org/1999/xlink" width="22" height="14" viewBox="0 0 22 14" fill="none">
<path d="M3 1L19 1C20.1046 1 21 1.89543 21 3L21 11C21 12.1046 20.1046 13 19 13L3 13C1.89543 13 1 12.1046 1 11L1 3C1 1.89543 1.89543 1 3 1Z" fill-rule="evenodd"  fill="#FFFFFF" >
</path>
<path d="M19 0.5L3 0.5C1.61929 0.5 0.5 1.61929 0.5 3L0.5 11C0.5 12.3807 1.61929 13.5 3 13.5L19 13.5C20.3807 13.5 21.5 12.3807 21.5 11L21.5 3C21.5 1.61929 20.3807 0.5 19 0.5ZM1.5 3C1.5 2.17157 2.17157 1.5 3 1.5L19 1.5C19.8284 1.5 20.5 2.17157 20.5 3L20.5 11C20.5 11.8284 19.8284 12.5 19 12.5L3 12.5C2.17157 12.5 1.5 11.8284 1.5 11L1.5 3Z" fill-rule="evenodd"  fill="#495AD4" >
</path>
<path     fill="#495AD4"  d="M7.08 10.54L8.56 10.54L8.56 4.37L10.65 4.37L10.65 3.13L5 3.13L5 4.37L7.08 4.37L7.08 10.54Z">
</path>
<path     fill="#495AD4"  d="M14.07 10.68C15.78 10.68 16.79 9.65 16.79 8.44C16.79 7.37 16.2 6.79 15.3 6.42L14.33 6.03C13.7 5.77 13.18 5.58 13.18 5.05C13.18 4.56 13.58 4.27 14.23 4.27C14.85 4.27 15.34 4.5 15.81 4.88L16.56 3.96C15.96 3.35 15.1 3 14.23 3C12.74 3 11.67 3.94 11.67 5.14C11.67 6.22 12.43 6.82 13.18 7.12L14.16 7.55C14.82 7.83 15.28 8 15.28 8.55C15.28 9.07 14.87 9.4 14.1 9.4C13.45 9.4 12.74 9.07 12.22 8.58L11.37 9.6C12.09 10.3 13.08 10.68 14.07 10.68Z">
</path>
</svg>
