<svg xmlns="http://www.w3.org/2000/svg" xmlns:xlink="http://www.w3.org/1999/xlink" width="58" height="18" viewBox="0 0 58 18" fill="none">
<path d="M3 1L55 1C56.1046 1 57 1.89543 57 3L57 15C57 16.1046 56.1046 17 55 17L3 17C1.89543 17 1 16.1046 1 15L1 3C1 1.89543 1.89543 1 3 1Z"   fill="#FFFFFF" >
</path>
<path d="M55 0.5L3 0.5C1.61929 0.5 0.5 1.61929 0.5 3L0.5 15C0.5 16.3807 1.61929 17.5 3 17.5L55 17.5C56.3807 17.5 57.5 16.3807 57.5 15L57.5 3C57.5 1.61929 56.3807 0.5 55 0.5ZM1.5 3C1.5 2.17157 2.17157 1.5 3 1.5L55 1.5C55.8284 1.5 56.5 2.17157 56.5 3L56.5 15C56.5 15.8284 55.8284 16.5 55 16.5L3 16.5C2.17157 16.5 1.5 15.8284 1.5 15L1.5 3Z" fill-rule="evenodd"  fill="#495AD4" >
</path>
<path d="M19.08 12.41L20.56 12.41L20.56 6.24L22.65 6.24L22.65 5L17 5L17 6.24L19.08 6.24L19.08 12.41ZM23.86 12.41L28.51 12.41L28.51 11.17L25.34 11.17L25.34 9.19L27.93 9.19L27.93 7.95L25.34 7.95L25.34 6.24L28.4 6.24L28.4 5L23.86 5L23.86 12.41ZM29.25 12.41L30.81 12.41L31.6 10.77C31.78 10.39 31.95 10 32.14 9.55L32.18 9.55C32.39 10 32.58 10.39 32.76 10.77L33.59 12.41L35.23 12.41L33.15 8.66L35.1 5L33.54 5L32.84 6.54C32.68 6.88 32.52 7.24 32.34 7.7L32.3 7.7C32.08 7.24 31.93 6.88 31.75 6.54L31.01 5L29.36 5L31.32 8.6L29.25 12.41ZM37.75 12.41L39.23 12.41L39.23 6.24L41.32 6.24L41.32 5L35.67 5L35.67 6.24L37.75 6.24L37.75 12.41Z" fill-rule="evenodd"  fill="#495AD4" >
</path>
</svg>
