<svg xmlns="http://www.w3.org/2000/svg" xmlns:xlink="http://www.w3.org/1999/xlink" width="58" height="18" viewBox="0 0 58 18" fill="none">
<path d="M3 1L55 1C56.1046 1 57 1.89543 57 3L57 15C57 16.1046 56.1046 17 55 17L3 17C1.89543 17 1 16.1046 1 15L1 3C1 1.89543 1.89543 1 3 1Z"   fill="#FFFFFF" >
</path>
<path d="M55 0.5L3 0.5C1.61929 0.5 0.5 1.61929 0.5 3L0.5 15C0.5 16.3807 1.61929 17.5 3 17.5L55 17.5C56.3807 17.5 57.5 16.3807 57.5 15L57.5 3C57.5 1.61929 56.3807 0.5 55 0.5ZM1.5 3C1.5 2.17157 2.17157 1.5 3 1.5L55 1.5C55.8284 1.5 56.5 2.17157 56.5 3L56.5 15C56.5 15.8284 55.8284 16.5 55 16.5L3 16.5C2.17157 16.5 1.5 15.8284 1.5 15L1.5 3Z" fill-rule="evenodd"  fill="#495AD4" >
</path>
<path d="M9 12.54L11.11 12.54C13.3 12.54 14.69 11.3 14.69 8.8C14.69 6.31 13.3 5.13 11.03 5.13L9 5.13L9 12.54ZM10.48 11.34L10.48 6.32L10.93 6.32C12.32 6.32 13.18 7 13.18 8.8C13.18 10.6 12.32 11.34 10.93 11.34L10.48 11.34ZM19.08 12.68C21.04 12.68 22.39 11.21 22.39 8.8C22.39 6.4 21.04 5 19.08 5C17.12 5 15.77 6.4 15.77 8.8C15.77 11.21 17.12 12.68 19.08 12.68ZM19.08 11.4C17.98 11.4 17.29 10.38 17.29 8.8C17.29 7.22 17.98 6.27 19.08 6.27C20.18 6.27 20.88 7.22 20.88 8.8C20.88 10.38 20.18 11.4 19.08 11.4ZM26.69 12.68C28.49 12.68 29.54 11.66 29.54 9.21L29.54 5.13L28.12 5.13L28.12 9.34C28.12 10.88 27.55 11.4 26.69 11.4C25.82 11.4 25.28 10.88 25.28 9.34L25.28 5.13L23.81 5.13L23.81 9.21C23.81 11.66 24.87 12.68 26.69 12.68ZM31.32 12.54L33.96 12.54C35.59 12.54 36.82 11.85 36.82 10.36C36.82 9.37 36.24 8.8 35.44 8.61L35.44 8.57C36.07 8.34 36.45 7.65 36.45 6.96C36.45 5.58 35.29 5.13 33.77 5.13L31.32 5.13L31.32 12.54ZM32.8 8.15L32.8 6.27L33.68 6.27C34.57 6.27 35.01 6.53 35.01 7.18C35.01 7.77 34.61 8.15 33.67 8.15L32.8 8.15ZM32.8 11.4L32.8 9.24L33.83 9.24C34.85 9.24 35.38 9.55 35.38 10.27C35.38 11.04 34.83 11.4 33.83 11.4L32.8 11.4ZM38.13 12.54L42.62 12.54L42.62 11.3L39.61 11.3L39.61 5.13L38.13 5.13L38.13 12.54ZM43.91 12.54L48.56 12.54L48.56 11.3L45.39 11.3L45.39 9.32L47.98 9.32L47.98 8.08L45.39 8.08L45.39 6.37L48.45 6.37L48.45 5.13L43.91 5.13L43.91 12.54Z" fill-rule="evenodd"  fill="#495AD4" >
</path>
</svg>
