<svg xmlns="http://www.w3.org/2000/svg" xmlns:xlink="http://www.w3.org/1999/xlink" width="58" height="18" viewBox="0 0 58 18" fill="none">
<path d="M3 1L55 1C56.1046 1 57 1.89543 57 3L57 15C57 16.1046 56.1046 17 55 17L3 17C1.89543 17 1 16.1046 1 15L1 3C1 1.89543 1.89543 1 3 1Z"   fill="#FFFFFF" >
</path>
<path d="M55 0.5L3 0.5C1.61929 0.5 0.5 1.61929 0.5 3L0.5 15C0.5 16.3807 1.61929 17.5 3 17.5L55 17.5C56.3807 17.5 57.5 16.3807 57.5 15L57.5 3C57.5 1.61929 56.3807 0.5 55 0.5ZM1.5 3C1.5 2.17157 2.17157 1.5 3 1.5L55 1.5C55.8284 1.5 56.5 2.17157 56.5 3L56.5 15C56.5 15.8284 55.8284 16.5 55 16.5L3 16.5C2.17157 16.5 1.5 15.8284 1.5 15L1.5 3Z" fill-rule="evenodd"  fill="#495AD4" >
</path>
<path d="M15 12.54L16.48 12.54L16.48 5.13L15 5.13L15 12.54ZM18.3 12.54L19.71 12.54L19.71 9.57C19.71 8.72 19.58 7.79 19.52 6.99L19.57 6.99L20.32 8.58L22.45 12.54L23.96 12.54L23.96 5.13L22.56 5.13L22.56 8.09C22.56 8.93 22.68 9.91 22.76 10.68L22.71 10.68L21.96 9.08L19.81 5.13L18.3 5.13L18.3 12.54ZM27.26 12.54L28.74 12.54L28.74 6.37L30.83 6.37L30.83 5.13L25.18 5.13L25.18 6.37L27.26 6.37L27.26 12.54ZM33.86 12.68C35.28 12.68 36.47 11.9 36.47 10.54C36.47 9.56 35.83 8.94 35 8.71L35 8.66C35.78 8.35 36.23 7.77 36.23 6.97C36.23 5.7 35.26 5 33.83 5C32.96 5 32.25 5.35 31.61 5.9L32.37 6.81C32.8 6.4 33.23 6.16 33.76 6.16C34.39 6.16 34.75 6.5 34.75 7.08C34.75 7.75 34.31 8.21 32.96 8.21L32.96 9.27C34.56 9.27 34.99 9.72 34.99 10.45C34.99 11.11 34.48 11.48 33.73 11.48C33.05 11.48 32.52 11.15 32.08 10.72L31.39 11.65C31.91 12.24 32.7 12.68 33.86 12.68ZM37.46 12.54L42.42 12.54L42.42 11.3L40.82 11.3C40.47 11.3 39.98 11.34 39.6 11.39C40.95 10.06 42.07 8.62 42.07 7.28C42.07 5.9 41.14 5 39.74 5C38.73 5 38.07 5.39 37.38 6.13L38.2 6.92C38.57 6.51 39.01 6.16 39.55 6.16C40.26 6.16 40.66 6.62 40.66 7.35C40.66 8.5 39.48 9.89 37.46 11.69L37.46 12.54Z" fill-rule="evenodd"  fill="#495AD4" >
</path>
</svg>
