<svg xmlns="http://www.w3.org/2000/svg" xmlns:xlink="http://www.w3.org/1999/xlink" width="58" height="18"
  viewBox="0 0 58 18" fill="none">
  <path
    d="M3 1L55 1C56.1046 1 57 1.89543 57 3L57 15C57 16.1046 56.1046 17 55 17L3 17C1.89543 17 1 16.1046 1 15L1 3C1 1.89543 1.89543 1 3 1Z"
    fill="#FFFFFF">
  </path>
  <path
    d="M55 0.5L3 0.5C1.61929 0.5 0.5 1.61929 0.5 3L0.5 15C0.5 16.3807 1.61929 17.5 3 17.5L55 17.5C56.3807 17.5 57.5 16.3807 57.5 15L57.5 3C57.5 1.61929 56.3807 0.5 55 0.5ZM1.5 3C1.5 2.17157 2.17157 1.5 3 1.5L55 1.5C55.8284 1.5 56.5 2.17157 56.5 3L56.5 15C56.5 15.8284 55.8284 16.5 55 16.5L3 16.5C2.17157 16.5 1.5 15.8284 1.5 15L1.5 3Z"
    fill-rule="evenodd" fill="#495AD4">
  </path>
  <path
    d="M6 12.54L8.64 12.54C10.27 12.54 11.5 11.85 11.5 10.36C11.5 9.37 10.92 8.8 10.12 8.61L10.12 8.57C10.75 8.34 11.13 7.65 11.13 6.96C11.13 5.58 9.97 5.13 8.45 5.13L6 5.13L6 12.54ZM7.48 8.15L7.48 6.27L8.36 6.27C9.25 6.27 9.69 6.53 9.69 7.18C9.69 7.77 9.29 8.15 8.35 8.15L7.48 8.15ZM7.48 11.4L7.48 9.24L8.51 9.24C9.53 9.24 10.06 9.55 10.06 10.27C10.06 11.04 9.51 11.4 8.51 11.4L7.48 11.4ZM15.75 12.68C17.71 12.68 19.06 11.21 19.06 8.8C19.06 6.4 17.71 5 15.75 5C13.79 5 12.44 6.4 12.44 8.8C12.44 11.21 13.79 12.68 15.75 12.68ZM15.75 11.4C14.65 11.4 13.96 10.38 13.96 8.8C13.96 7.22 14.65 6.27 15.75 6.27C16.85 6.27 17.55 7.22 17.55 8.8C17.55 10.38 16.85 11.4 15.75 11.4ZM23.45 12.68C25.41 12.68 26.76 11.21 26.76 8.8C26.76 6.4 25.41 5 23.45 5C21.49 5 20.14 6.4 20.14 8.8C20.14 11.21 21.49 12.68 23.45 12.68ZM23.45 11.4C22.35 11.4 21.66 10.38 21.66 8.8C21.66 7.22 22.35 6.27 23.45 6.27C24.55 6.27 25.25 7.22 25.25 8.8C25.25 10.38 24.55 11.4 23.45 11.4ZM28.21 12.54L32.7 12.54L32.7 11.3L29.69 11.3L29.69 5.13L28.21 5.13L28.21 12.54ZM33.99 12.54L38.64 12.54L38.64 11.3L35.47 11.3L35.47 9.32L38.06 9.32L38.06 8.08L35.47 8.08L35.47 6.37L38.53 6.37L38.53 5.13L33.99 5.13L33.99 12.54ZM39.19 12.54L40.69 12.54L41.21 10.64L43.6 10.64L44.12 12.54L45.68 12.54L43.31 5.13L41.56 5.13L39.19 12.54ZM41.53 9.49L41.75 8.68C41.97 7.91 42.18 7.07 42.38 6.26L42.42 6.26C42.64 7.05 42.84 7.91 43.07 8.68L43.29 9.49L41.53 9.49ZM46.55 12.54L47.96 12.54L47.96 9.57C47.96 8.72 47.83 7.79 47.77 6.99L47.82 6.99L48.57 8.58L50.7 12.54L52.21 12.54L52.21 5.13L50.81 5.13L50.81 8.09C50.81 8.93 50.93 9.91 51.01 10.68L50.96 10.68L50.21 9.08L48.06 5.13L46.55 5.13L46.55 12.54Z"
    fill-rule="evenodd" fill="#495AD4">
  </path>
</svg>