<svg xmlns="http://www.w3.org/2000/svg" xmlns:xlink="http://www.w3.org/1999/xlink" width="58" height="18" viewBox="0 0 58 18" fill="none">
<path d="M3 1L55 1C56.1046 1 57 1.89543 57 3L57 15C57 16.1046 56.1046 17 55 17L3 17C1.89543 17 1 16.1046 1 15L1 3C1 1.89543 1.89543 1 3 1Z"   fill="#FFFFFF" >
</path>
<path d="M55 0.5L3 0.5C1.61929 0.5 0.5 1.61929 0.5 3L0.5 15C0.5 16.3807 1.61929 17.5 3 17.5L55 17.5C56.3807 17.5 57.5 16.3807 57.5 15L57.5 3C57.5 1.61929 56.3807 0.5 55 0.5ZM1.5 3C1.5 2.17157 2.17157 1.5 3 1.5L55 1.5C55.8284 1.5 56.5 2.17157 56.5 3L56.5 15C56.5 15.8284 55.8284 16.5 55 16.5L3 16.5C2.17157 16.5 1.5 15.8284 1.5 15L1.5 3Z" fill-rule="evenodd"  fill="#495AD4" >
</path>
<path d="M14 12.54L15.48 12.54L15.48 9.54L18.11 9.54L18.11 8.3L15.48 8.3L15.48 6.37L18.56 6.37L18.56 5.13L14 5.13L14 12.54ZM19.85 12.54L24.34 12.54L24.34 11.3L21.33 11.3L21.33 5.13L19.85 5.13L19.85 12.54ZM28.57 12.68C30.53 12.68 31.88 11.21 31.88 8.8C31.88 6.4 30.53 5 28.57 5C26.61 5 25.26 6.4 25.26 8.8C25.26 11.21 26.61 12.68 28.57 12.68ZM28.57 11.4C27.47 11.4 26.78 10.38 26.78 8.8C26.78 7.22 27.47 6.27 28.57 6.27C29.67 6.27 30.37 7.22 30.37 8.8C30.37 10.38 29.67 11.4 28.57 11.4ZM32.38 12.54L33.88 12.54L34.4 10.64L36.79 10.64L37.31 12.54L38.87 12.54L36.5 5.13L34.75 5.13L32.38 12.54ZM34.72 9.49L34.94 8.68C35.16 7.91 35.37 7.07 35.57 6.26L35.61 6.26C35.83 7.05 36.03 7.91 36.26 8.68L36.48 9.49L34.72 9.49ZM41.21 12.54L42.69 12.54L42.69 6.37L44.78 6.37L44.78 5.13L39.13 5.13L39.13 6.37L41.21 6.37L41.21 12.54Z" fill-rule="evenodd"  fill="#495AD4" >
</path>
</svg>
