<svg xmlns="http://www.w3.org/2000/svg" xmlns:xlink="http://www.w3.org/1999/xlink" width="16" height="16" viewBox="0 0 16 16" fill="none">
  <path d="M8 2C4.68629 2 2 4.68629 2 8C2 11.3137 4.68629 14 8 14C11.3137 14 14 11.3137 14 8C14 4.68629 11.3137 2 8 2ZM11.1795 6.52878L7.62188 10.0863C7.45204 10.2561 7.17665 10.2561 7.00682 10.0863L4.82049 7.89996C4.65065 7.73012 4.65065 7.45474 4.82049 7.2849C4.99033 7.11506 5.26571 7.11506 5.43555 7.2849L7.31441 9.16376L10.5645 5.91371C10.7343 5.74388 11.0097 5.74388 11.1795 5.91371C11.3493 6.08355 11.3493 6.35894 11.1795 6.52878Z" fill-rule="evenodd"  fill="#44C795" >
  </path>
  </svg>
  
