<svg xmlns="http://www.w3.org/2000/svg" xmlns:xlink="http://www.w3.org/1999/xlink" width="16" height="16"
    viewBox="0 0 16 16" fill="none">
    <g clip-path="url(#clip-path-0_7378)">
        <path
            d="M11.6767 4.32321C11.6581 4.30464 11.6379 4.28806 11.616 4.27347C11.5942 4.25888 11.5712 4.24655 11.5469 4.2365C11.5226 4.22645 11.4976 4.21886 11.4719 4.21374C11.4461 4.20862 11.4201 4.20605 11.3938 4.20605C11.3676 4.20605 11.3415 4.20862 11.3158 4.21374C11.29 4.21886 11.265 4.22645 11.2407 4.2365C11.2165 4.24655 11.1934 4.25888 11.1716 4.27347C11.1498 4.28806 11.1295 4.30464 11.111 4.32321C11.0924 4.34174 11.0759 4.36189 11.0613 4.38367C11.0468 4.40545 11.0345 4.42844 11.0244 4.45264C11.0144 4.47683 11.0068 4.50178 11.0016 4.52747C10.9965 4.55316 10.9939 4.57911 10.9938 4.60531C10.9938 4.63151 10.9963 4.65746 11.0013 4.68317C11.0064 4.70888 11.0139 4.73386 11.0238 4.75809C11.0338 4.78233 11.046 4.80536 11.0605 4.82719C11.075 4.84903 11.0915 4.86924 11.1099 4.88784L11.1089 4.8889C11.5155 5.29553 11.8304 5.76196 12.0534 6.28818C12.2843 6.83273 12.3997 7.40269 12.3997 7.99805C12.3997 8.59493 12.2845 9.16574 12.0541 9.71046C11.8314 10.2368 11.517 10.703 11.1109 11.1092C10.7047 11.5154 10.2385 11.8298 9.71212 12.0524C9.16739 12.2828 8.59658 12.3981 7.99971 12.3981L7.99971 12.4002C7.97344 12.4002 7.94743 12.4027 7.92167 12.4079C7.89591 12.413 7.8709 12.4206 7.84663 12.4306C7.82237 12.4407 7.79932 12.453 7.77748 12.4676C7.75564 12.4822 7.73543 12.4987 7.71686 12.5173C7.69829 12.5359 7.68171 12.5561 7.66712 12.5779C7.65253 12.5998 7.64021 12.6228 7.63015 12.6471C7.6201 12.6713 7.61252 12.6963 7.60739 12.7221C7.60227 12.7479 7.59971 12.7739 7.59971 12.8002C7.59971 12.8264 7.60227 12.8525 7.60739 12.8782C7.61252 12.904 7.6201 12.929 7.63015 12.9533C7.64021 12.9775 7.65253 13.0006 7.66712 13.0224C7.68171 13.0442 7.69829 13.0645 7.71686 13.083C7.73543 13.1016 7.75564 13.1182 7.77748 13.1328C7.79932 13.1473 7.82237 13.1597 7.84663 13.1697C7.8709 13.1798 7.89591 13.1873 7.92167 13.1925C7.94743 13.1976 7.97344 13.2002 7.99971 13.2002L7.99971 13.1981C8.70475 13.1981 9.37944 13.0618 10.0238 12.7892C10.6459 12.526 11.1969 12.1546 11.6765 11.6749C12.1562 11.1952 12.5277 10.6443 12.7909 10.0222C13.0634 9.3778 13.1997 8.7031 13.1997 7.99805C13.1997 7.29431 13.0631 6.62027 12.79 5.97593C12.5266 5.35461 12.1551 4.80405 11.6756 4.32427L11.6767 4.32321Z"
            fill="#44C795">
        </path>
        <path
            d="M7.63019 12.6471C7.64021 12.6228 7.65251 12.5998 7.66708 12.5779L8.86708 10.7779C8.88165 10.7561 8.89821 10.7358 8.91676 10.7172C8.93531 10.6987 8.9555 10.6821 8.97732 10.6674C8.99915 10.6528 9.02218 10.6405 9.04644 10.6304C9.07069 10.6203 9.0957 10.6127 9.12146 10.6076C9.14721 10.6024 9.17322 10.5998 9.19948 10.5998C9.22575 10.5998 9.25176 10.6023 9.27752 10.6074C9.30329 10.6125 9.32831 10.6201 9.35259 10.6301C9.37686 10.6401 9.39993 10.6524 9.42178 10.667C9.44363 10.6815 9.46385 10.6981 9.48245 10.7167C9.50104 10.7352 9.51764 10.7554 9.53226 10.7772C9.54687 10.799 9.55922 10.8221 9.56929 10.8463C9.57937 10.8706 9.58698 10.8956 9.59213 10.9213C9.59728 10.9471 9.59987 10.9731 9.5999 10.9994C9.59993 11.0256 9.59739 11.0517 9.5923 11.0774C9.5872 11.1032 9.57964 11.1282 9.56961 11.1525C9.55959 11.1768 9.54729 11.1998 9.53272 11.2217L8.33272 13.0217C8.31815 13.0435 8.30159 13.0637 8.28304 13.0823C8.26448 13.1009 8.2443 13.1175 8.22247 13.1322C8.20065 13.1468 8.17761 13.1591 8.15336 13.1692C8.1291 13.1793 8.1041 13.1869 8.07835 13.192C8.05259 13.1972 8.02659 13.1998 8.00032 13.1998C7.97406 13.1998 7.94804 13.1973 7.92228 13.1922C7.89651 13.1871 7.87149 13.1795 7.84721 13.1695C7.82294 13.1595 7.79987 13.1472 7.77802 13.1326C7.75616 13.118 7.73594 13.1015 7.71735 13.0829C7.69876 13.0644 7.68216 13.0442 7.66754 13.0224C7.65293 13.0005 7.64059 12.9775 7.63051 12.9532C7.62043 12.929 7.61282 12.904 7.60767 12.8782C7.60252 12.8525 7.59993 12.8265 7.5999 12.8002C7.59987 12.774 7.60241 12.7479 7.6075 12.7222C7.6126 12.6964 7.62016 12.6714 7.63019 12.6471Z"
            fill="#44C795">
        </path>
        <path
            d="M4.32334 11.6768C4.34191 11.6954 4.36211 11.7119 4.38395 11.7265C4.40579 11.7411 4.42884 11.7534 4.45311 11.7635C4.47737 11.7735 4.50238 11.7811 4.52814 11.7863C4.5539 11.7914 4.57992 11.7939 4.60618 11.7939C4.63245 11.7939 4.65846 11.7914 4.68422 11.7863C4.70998 11.7811 4.73499 11.7735 4.75925 11.7635C4.78352 11.7534 4.80657 11.7411 4.82841 11.7265C4.85025 11.7119 4.87045 11.6954 4.88902 11.6768C4.90755 11.6583 4.9241 11.6381 4.93867 11.6163C4.95323 11.5945 4.96554 11.5716 4.97559 11.5474C4.98564 11.5232 4.99324 11.4982 4.99838 11.4725C5.00353 11.4468 5.00613 11.4209 5.00618 11.3947C5.00623 11.3685 5.00373 11.3425 4.99868 11.3168C4.99362 11.2911 4.98612 11.2661 4.97616 11.2419C4.9662 11.2177 4.95398 11.1946 4.93949 11.1728C4.92501 11.151 4.90854 11.1308 4.89008 11.1122L4.89114 11.1111C4.4845 10.7045 4.16965 10.238 3.94657 9.71182C3.71572 9.16727 3.60029 8.59731 3.60029 8.00195C3.60029 7.40507 3.71551 6.83426 3.94594 6.28954C4.16859 5.7632 4.48299 5.29695 4.88914 4.8908C5.29528 4.48465 5.76153 4.17025 6.28788 3.9476C6.83261 3.71716 7.40342 3.60195 8.00029 3.60195L8.00029 3.59981C8.02656 3.59981 8.05257 3.59725 8.07833 3.59213C8.10409 3.58701 8.1291 3.57944 8.15337 3.56936C8.17763 3.55933 8.20068 3.54701 8.22252 3.5324C8.24436 3.51784 8.26457 3.50125 8.28314 3.48269C8.30171 3.46408 8.31829 3.44387 8.33288 3.42205C8.34747 3.40024 8.35979 3.3772 8.36985 3.35293C8.3799 3.32867 8.38748 3.30365 8.39261 3.27789C8.39773 3.25213 8.40029 3.22611 8.40029 3.19981C8.40029 3.17357 8.39773 3.14755 8.39261 3.12179C8.38748 3.09603 8.3799 3.07101 8.36985 3.04675C8.35979 3.02248 8.34747 2.99944 8.33288 2.97763C8.31829 2.95576 8.30171 2.93555 8.28314 2.91699C8.26457 2.89843 8.24436 2.88184 8.22252 2.86723C8.20068 2.85267 8.17763 2.84035 8.15337 2.83027C8.1291 2.82024 8.10409 2.81267 8.07833 2.80749C8.05257 2.80237 8.02656 2.79981 8.00029 2.79981L8.00029 2.80195C7.29525 2.80195 6.62056 2.93823 5.97621 3.2108C5.35406 3.47398 4.80314 3.84541 4.32345 4.32509C3.84376 4.80477 3.47233 5.35569 3.20915 5.97784C2.93658 6.6222 2.80029 7.2969 2.80029 8.00195C2.80029 8.70569 2.93687 9.37973 3.21002 10.0241C3.47341 10.6454 3.84487 11.1959 4.32439 11.6757L4.32334 11.6768Z"
            fill="#44C795">
        </path>
        <path
            d="M8.36981 3.35289C8.35979 3.37717 8.34749 3.40023 8.33292 3.42209L7.13292 5.22209C7.11835 5.24394 7.10179 5.26416 7.08324 5.28275C7.06469 5.30134 7.0445 5.31795 7.02268 5.33256C7.00085 5.34718 6.97782 5.35952 6.95356 5.3696C6.92931 5.37967 6.9043 5.38729 6.87854 5.39244C6.85279 5.39759 6.82678 5.40018 6.80052 5.40021C6.77425 5.40024 6.74824 5.3977 6.72248 5.3926C6.69671 5.38751 6.67169 5.37994 6.64741 5.36992C6.62314 5.35989 6.60007 5.3476 6.57822 5.33303C6.55637 5.31846 6.53615 5.3019 6.51755 5.28334C6.49896 5.26479 6.48236 5.24461 6.46774 5.22279C6.45313 5.20096 6.44078 5.17792 6.43071 5.15367C6.42063 5.12941 6.41302 5.10441 6.40787 5.07866C6.40272 5.0529 6.40013 5.02689 6.4001 5.00063C6.40007 4.97436 6.40261 4.94835 6.4077 4.92258C6.4128 4.89682 6.42036 4.8718 6.43039 4.84752C6.44041 4.82325 6.45271 4.80018 6.46728 4.77833L7.66728 2.97833C7.68185 2.95647 7.69841 2.93625 7.71696 2.91766C7.73552 2.89907 7.7557 2.88246 7.77753 2.86785C7.79935 2.85324 7.82239 2.84089 7.84664 2.83082C7.87089 2.82074 7.8959 2.81313 7.92165 2.80798C7.94741 2.80283 7.97341 2.80024 7.99968 2.80021C8.02594 2.80018 8.05196 2.80271 8.07772 2.80781C8.10349 2.81291 8.12851 2.82047 8.15279 2.8305C8.17706 2.84052 8.20012 2.85282 8.22198 2.86739C8.24384 2.88196 8.26406 2.89852 8.28265 2.91707C8.30124 2.93562 8.31784 2.95581 8.33246 2.97763C8.34707 2.99946 8.35941 3.02249 8.36949 3.04675C8.37957 3.071 8.38718 3.09601 8.39233 3.12176C8.39748 3.14751 8.40007 3.17352 8.4001 3.19979C8.40013 3.22605 8.39759 3.25206 8.3925 3.27783C8.3874 3.3036 8.37984 3.32862 8.36981 3.35289Z"
            fill="#44C795">
        </path>
    </g>
    <defs>
        <clipPath id="clip-path-0_7378">
            <path d="M16 16L0 16L0 0L16 0L16 16Z" fill="white" />
        </clipPath>
    </defs>
</svg>