<svg xmlns="http://www.w3.org/2000/svg" xmlns:xlink="http://www.w3.org/1999/xlink" width="16" height="16" viewBox="0 0 16 16" fill="none">
  <path   fill-rule="evenodd"  fill="#D43030"  d="M8 2C4.688 2 2 4.688 2 8C2 11.312 4.688 14 8 14C11.312 14 14 11.312 14 8C14 4.688 11.312 2 8 2ZM10.88 10.1943C11.0651 10.3863 11.0651 10.688 10.88 10.88C10.688 11.0651 10.3863 11.0651 10.2011 10.88L8.00686 8.68571L5.81257 10.88C5.62057 11.0651 5.31886 11.0651 5.12686 10.88C4.94171 10.688 4.94171 10.3863 5.12686 10.2011L7.32114 8.00686L5.12686 5.81257C4.94171 5.62057 4.94171 5.31886 5.12686 5.12686C5.31886 4.94171 5.62057 4.94171 5.81257 5.12686L8.00686 7.32114L10.2011 5.12686C10.3863 4.93486 10.6949 4.93486 10.8869 5.12686C11.072 5.31886 11.072 5.62057 10.8869 5.81257L8.69257 8.00686L10.88 10.1943Z">
  </path>
  </svg>
  