<svg xmlns="http://www.w3.org/2000/svg" xmlns:xlink="http://www.w3.org/1999/xlink" width="80" height="80"
  viewBox="0 0 80 80" fill="none">
  <g opacity="1" transform="translate(0 0)  rotate(0)">
    <g mask="url(#bg-mask-0)">
      <g opacity="1" transform="translate(16.66650390625 16.6669921875)  rotate(0)">
        <path id="直线 1 (轮廓)" fill-rule="evenodd" style="fill:#DFE1ED" opacity="1"
          d="M0 28.666L0 44.666C0 44.796 0.00999999 44.926 0.04 45.056C0.0599999 45.186 0.0999999 45.306 0.15 45.436C0.2 45.556 0.26 45.666 0.34 45.776C0.41 45.886 0.49 45.986 0.59 46.076C0.68 46.176 0.78 46.256 0.89 46.326C1 46.406 1.11 46.466 1.23 46.516C1.36 46.566 1.48 46.606 1.61 46.626C1.74 46.656 1.87 46.666 2 46.666C2.13 46.666 2.26 46.656 2.39 46.626C2.52 46.606 2.64 46.566 2.77 46.516C2.89 46.466 3 46.406 3.11 46.326C3.22 46.256 3.32 46.176 3.41 46.076C3.51 45.986 3.59 45.886 3.66 45.776C3.74 45.666 3.8 45.556 3.85 45.436C3.9 45.306 3.94 45.186 3.96 45.056C3.99 44.926 4 44.796 4 44.666L4 28.666C4 28.536 3.99 28.406 3.96 28.276C3.94 28.146 3.9 28.026 3.85 27.896C3.8 27.776 3.74 27.666 3.66 27.556C3.59 27.446 3.51 27.346 3.41 27.256C3.32 27.156 3.22 27.076 3.11 27.006C3 26.926 2.89 26.866 2.77 26.816C2.64 26.766 2.52 26.726 2.39 26.706C2.26 26.676 2.13 26.666 2 26.666C1.87 26.666 1.74 26.676 1.61 26.706C1.48 26.726 1.36 26.766 1.23 26.816C1.11 26.866 1 26.926 0.89 27.006C0.78 27.076 0.68 27.156 0.59 27.256C0.49 27.346 0.41 27.446 0.34 27.556C0.26 27.666 0.2 27.776 0.15 27.896C0.0999999 28.026 0.0599999 28.146 0.04 28.276C0.00999999 28.406 0 28.536 0 28.666Z">
        </path>
        <path id="直线 2 (轮廓)" fill-rule="evenodd" style="fill:#DFE1ED" opacity="1"
          d="M2 46.666L44.67 46.666C44.8 46.666 44.93 46.656 45.06 46.626C45.19 46.606 45.31 46.566 45.43 46.516C45.55 46.466 45.67 46.406 45.78 46.326C45.89 46.256 45.99 46.176 46.08 46.076C46.17 45.986 46.26 45.886 46.33 45.776C46.4 45.666 46.46 45.556 46.51 45.436C46.56 45.306 46.6 45.186 46.63 45.056C46.65 44.926 46.67 44.796 46.67 44.666C46.67 44.536 46.65 44.406 46.63 44.276C46.6 44.146 46.56 44.026 46.51 43.896C46.46 43.776 46.4 43.666 46.33 43.556C46.26 43.446 46.17 43.346 46.08 43.256C45.99 43.156 45.89 43.076 45.78 43.006C45.67 42.926 45.55 42.866 45.43 42.816C45.31 42.766 45.19 42.726 45.06 42.706C44.93 42.676 44.8 42.666 44.67 42.666L2 42.666C1.87 42.666 1.74 42.676 1.61 42.706C1.48 42.726 1.36 42.766 1.23 42.816C1.11 42.866 1 42.926 0.89 43.006C0.78 43.076 0.68 43.156 0.59 43.256C0.49 43.346 0.41 43.446 0.34 43.556C0.26 43.666 0.2 43.776 0.15 43.896C0.1 44.026 0.06 44.146 0.04 44.276C0.01 44.406 0 44.536 0 44.666C0 44.796 0.01 44.926 0.04 45.056C0.06 45.186 0.1 45.306 0.15 45.436C0.2 45.556 0.26 45.666 0.34 45.776C0.41 45.886 0.49 45.986 0.59 46.076C0.68 46.176 0.78 46.256 0.89 46.326C1 46.406 1.11 46.466 1.23 46.516C1.36 46.566 1.48 46.606 1.61 46.626C1.74 46.656 1.87 46.666 2 46.666Z">
        </path>
        <path id="直线 3 (轮廓)" fill-rule="evenodd" style="fill:#DFE1ED" opacity="1"
          d="M46.667 44.666L46.667 28.666C46.667 28.536 46.657 28.406 46.627 28.276C46.607 28.146 46.567 28.026 46.517 27.896C46.467 27.776 46.407 27.666 46.327 27.556C46.257 27.446 46.177 27.346 46.077 27.256C45.987 27.156 45.887 27.076 45.777 27.006C45.667 26.926 45.557 26.866 45.437 26.816C45.307 26.766 45.187 26.726 45.057 26.706C44.927 26.676 44.797 26.666 44.667 26.666C44.537 26.666 44.407 26.676 44.277 26.706C44.147 26.726 44.027 26.766 43.897 26.816C43.777 26.866 43.667 26.926 43.557 27.006C43.447 27.076 43.347 27.156 43.257 27.256C43.157 27.346 43.077 27.446 43.007 27.556C42.927 27.666 42.867 27.776 42.817 27.896C42.767 28.026 42.727 28.146 42.707 28.276C42.677 28.406 42.667 28.536 42.667 28.666L42.667 44.666C42.667 44.796 42.677 44.926 42.707 45.056C42.727 45.186 42.767 45.306 42.817 45.436C42.867 45.556 42.927 45.666 43.007 45.776C43.077 45.886 43.157 45.986 43.257 46.076C43.347 46.176 43.447 46.256 43.557 46.326C43.667 46.406 43.777 46.466 43.897 46.516C44.027 46.566 44.147 46.606 44.277 46.626C44.407 46.656 44.537 46.666 44.667 46.666C44.797 46.666 44.927 46.656 45.057 46.626C45.187 46.606 45.307 46.566 45.437 46.516C45.557 46.466 45.667 46.406 45.777 46.326C45.887 46.256 45.987 46.176 46.077 46.076C46.177 45.986 46.257 45.886 46.327 45.776C46.407 45.666 46.467 45.556 46.517 45.436C46.567 45.306 46.607 45.186 46.627 45.056C46.657 44.926 46.667 44.796 46.667 44.666Z">
        </path>
        <g opacity="1" transform="translate(7.171875 0)  rotate(0)">
          <path id="直线 4 (轮廓)" fill-rule="evenodd" style="fill:#DFE1ED" opacity="1"
            d="M14.1616 37.4951L14.1616 2.82512C14.1616 2.69512 14.1716 2.56512 14.2016 2.43512C14.2216 2.30512 14.2616 2.18512 14.3116 2.06512C14.3616 1.94512 14.4216 1.82512 14.5016 1.71512C14.5716 1.60512 14.6516 1.50512 14.7516 1.41512C14.8416 1.32512 14.9416 1.23512 15.0516 1.16512C15.1616 1.09512 15.2716 1.03512 15.3916 0.985119C15.5216 0.935116 15.6416 0.895119 15.7716 0.865116C15.9016 0.845116 16.0316 0.825119 16.1616 0.825119C16.2916 0.825119 16.4216 0.845116 16.5516 0.865116C16.6816 0.895119 16.8016 0.935116 16.9316 0.985119C17.0516 1.03512 17.1616 1.09512 17.2716 1.16512C17.3816 1.23512 17.4816 1.32512 17.5716 1.41512C17.6716 1.50512 17.7516 1.60512 17.8216 1.71512C17.9016 1.82512 17.9616 1.94512 18.0116 2.06512C18.0616 2.18512 18.1016 2.30512 18.1216 2.43512C18.1516 2.56512 18.1616 2.69512 18.1616 2.82512L18.1616 37.4951C18.1616 37.6251 18.1516 37.7551 18.1216 37.8851C18.1016 38.0151 18.0616 38.1351 18.0116 38.2651C17.9616 38.3851 17.9016 38.4951 17.8216 38.6051C17.7516 38.7151 17.6716 38.8151 17.5716 38.9051C17.4816 39.0051 17.3816 39.0851 17.2716 39.1551C17.1616 39.2351 17.0516 39.2951 16.9316 39.3451C16.8016 39.3951 16.6816 39.4351 16.5516 39.4551C16.4216 39.4851 16.2916 39.4951 16.1616 39.4951C16.0316 39.4951 15.9016 39.4851 15.7716 39.4551C15.6416 39.4351 15.5216 39.3951 15.3916 39.3451C15.2716 39.2951 15.1616 39.2351 15.0516 39.1551C14.9416 39.0851 14.8416 39.0051 14.7516 38.9051C14.6516 38.8151 14.5716 38.7151 14.5016 38.6051C14.4216 38.4951 14.3616 38.3851 14.3116 38.2651C14.2616 38.1351 14.2216 38.0151 14.2016 37.8851C14.1716 37.7551 14.1616 37.6251 14.1616 37.4951Z">
          </path>
          <path id="直线 5 (轮廓)" fill-rule="evenodd" style="fill:#DFE1ED" opacity="1"
            d="M17.5757 1.41391L30.9117 14.7499C31.0036 14.8419 31.0885 14.9409 31.1592 15.054C31.237 15.1601 31.2935 15.2732 31.343 15.3934C31.3925 15.5136 31.4349 15.6409 31.4562 15.7752C31.4844 15.9025 31.4986 16.0298 31.4915 16.1642C31.4915 16.2914 31.4844 16.4258 31.4562 16.5531C31.4279 16.6803 31.3925 16.8006 31.343 16.9208C31.2865 17.048 31.2299 17.1612 31.1592 17.2743C31.0814 17.3804 31.0036 17.4864 30.9117 17.5784C30.8198 17.6703 30.7137 17.7481 30.6076 17.8259C30.4945 17.8966 30.3814 17.9531 30.2541 18.0097C30.1339 18.0592 30.0137 18.0946 29.8864 18.1228C29.7591 18.1511 29.6247 18.1582 29.4975 18.1582C29.3631 18.1653 29.2358 18.1511 29.1086 18.1228C28.9742 18.1016 28.8469 18.0592 28.7267 18.0097C28.6065 17.9602 28.4934 17.9036 28.3873 17.8259C28.2742 17.7551 28.1752 17.6703 28.0833 17.5784L14.7472 4.24234C14.6553 4.15041 14.5704 4.05142 14.4997 3.93828C14.422 3.83222 14.3654 3.71908 14.3088 3.5918C14.2593 3.47159 14.224 3.35138 14.2027 3.21703C14.1745 3.08975 14.1603 2.96248 14.1674 2.82812C14.1603 2.69377 14.1745 2.56649 14.2027 2.43922C14.224 2.30487 14.2593 2.18466 14.3088 2.06445C14.3654 1.93717 14.422 1.82403 14.4997 1.71797C14.5704 1.60483 14.6553 1.50583 14.7472 1.41391C14.8391 1.32199 14.9381 1.23713 15.0513 1.16642C15.1573 1.08864 15.2705 1.03207 15.3978 0.975503C15.518 0.926006 15.6382 0.890651 15.7725 0.869437C15.8998 0.841153 16.0271 0.827011 16.1614 0.834082C16.2958 0.827011 16.4231 0.841153 16.5503 0.869437C16.6847 0.89065 16.8049 0.926005 16.9251 0.975503C17.0524 1.03207 17.1655 1.08864 17.2716 1.16642C17.3847 1.23713 17.4837 1.32199 17.5757 1.41391Z">
          </path>
          <path id="直线 5 (轮廓)" fill-rule="evenodd" style="fill:#DFE1ED" opacity="1"
            d="M17.5758 4.24264L4.2398 17.5787C4.14788 17.6706 4.04888 17.7554 3.93575 17.8262C3.82968 17.9039 3.71654 17.9605 3.59633 18.01C3.47613 18.0595 3.34885 18.1019 3.2145 18.1231C3.08722 18.1514 2.95994 18.1656 2.82559 18.1585C2.69831 18.1585 2.56396 18.1514 2.43668 18.1231C2.3094 18.0949 2.18919 18.0595 2.06898 18.01C1.9417 17.9534 1.82857 17.8969 1.71543 17.8262C1.60936 17.7484 1.5033 17.6706 1.41138 17.5787C1.31945 17.4867 1.24167 17.3807 1.16389 17.2746C1.09318 17.1615 1.03661 17.0483 0.980039 16.9211C0.930543 16.8009 0.895187 16.6806 0.866902 16.5534C0.838618 16.4261 0.831547 16.2917 0.831547 16.1645C0.824476 16.0301 0.838618 15.9028 0.866903 15.7756C0.888116 15.6412 0.930543 15.5139 0.98004 15.3937C1.02954 15.2735 1.08611 15.1604 1.16389 15.0543C1.2346 14.9412 1.31945 14.8422 1.41138 14.7502L14.7474 1.41421C14.8393 1.32229 14.9383 1.23744 15.0515 1.16673C15.1575 1.08894 15.2707 1.03238 15.3979 0.975807C15.5182 0.92631 15.6384 0.890954 15.7727 0.869741C15.9 0.841457 16.0273 0.827315 16.1616 0.834386C16.296 0.827315 16.4233 0.841457 16.5505 0.869741C16.6849 0.890954 16.8051 0.926309 16.9253 0.975807C17.0526 1.03238 17.1657 1.08894 17.2718 1.16673C17.3849 1.23744 17.4839 1.32229 17.5758 1.41421C17.6678 1.50614 17.7526 1.60513 17.8233 1.71827C17.9011 1.82433 17.9577 1.93747 18.0142 2.06475C18.0637 2.18496 18.0991 2.30517 18.1203 2.43952C18.1486 2.5668 18.1627 2.69408 18.1557 2.82843C18.1627 2.96278 18.1486 3.09006 18.1203 3.21733C18.0991 3.35168 18.0637 3.47189 18.0142 3.5921C17.9577 3.71938 17.9011 3.83252 17.8233 3.93858C17.7526 4.05172 17.6678 4.15072 17.5758 4.24264Z">
          </path>
        </g>
      </g>
    </g>
  </g>
</svg>