<svg xmlns="http://www.w3.org/2000/svg" xmlns:xlink="http://www.w3.org/1999/xlink" width="24" height="24"
  viewBox="0 0 24 24" fill="none">
  <g opacity="1" transform="translate(0 0)  rotate(0)">
    <rect fill="#495AD4" opacity="1" transform="translate(0 0)  rotate(0)" x="0" y="0" width="24" height="24" rx="4" />
    <mask id="bg-mask-0" fill="white">
      <use xlink:href="#path_0"></use>
    </mask>
    <g mask="url(#bg-mask-0)">
      <g opacity="1" transform="translate(5.800048828125 5)  rotate(0)">
        <path id="圆形 1 (轮廓)" fill-rule="evenodd" style="fill:#FFFFFF" opacity="1"
          d="M7.84,0.33c0.5,0.21 0.94,0.51 1.33,0.9c0.39,0.39 0.69,0.83 0.9,1.33c0.22,0.52 0.33,1.07 0.33,1.64c0,0.57 -0.11,1.12 -0.33,1.64c-0.21,0.5 -0.51,0.94 -0.9,1.33c-0.39,0.39 -0.83,0.69 -1.33,0.9c-0.52,0.22 -1.07,0.33 -1.64,0.33c-0.57,0 -1.12,-0.11 -1.64,-0.33c-0.5,-0.21 -0.94,-0.51 -1.33,-0.9c-0.39,-0.39 -0.69,-0.83 -0.9,-1.33c-0.22,-0.52 -0.33,-1.07 -0.33,-1.64c0,-0.57 0.11,-1.12 0.33,-1.64c0.21,-0.5 0.51,-0.94 0.9,-1.33c0.39,-0.39 0.83,-0.69 1.33,-0.9c0.52,-0.22 1.07,-0.33 1.64,-0.33c0.57,0 1.12,0.11 1.64,0.33zM4.08,2.08c-0.28,0.27 -0.49,0.59 -0.64,0.95c-0.16,0.37 -0.24,0.76 -0.24,1.17c0,0.41 0.08,0.8 0.24,1.17c0.15,0.36 0.36,0.68 0.64,0.95c0.27,0.28 0.59,0.49 0.95,0.64c0.37,0.16 0.76,0.24 1.17,0.24c0.41,0 0.8,-0.08 1.17,-0.24c0.36,-0.15 0.68,-0.36 0.95,-0.64c0.28,-0.27 0.49,-0.59 0.64,-0.95c0.16,-0.37 0.24,-0.76 0.24,-1.17c0,-0.41 -0.08,-0.8 -0.24,-1.17c-0.15,-0.36 -0.36,-0.68 -0.64,-0.95c-0.27,-0.28 -0.59,-0.49 -0.95,-0.64c-0.37,-0.16 -0.76,-0.24 -1.17,-0.24c-0.41,0 -0.8,0.08 -1.17,0.24c-0.36,0.15 -0.68,0.36 -0.95,0.64z">
        </path>
        <path id="减去顶层" fill-rule="evenodd" style="fill:#E8CA99" opacity="1"
          d="M9.75005,8.8501c0.38995,-0.16 0.80995,-0.25 1.24995,-0.25c0.44,0 0.86,0.09 1.25,0.25c0.38,0.16 0.72,0.4 1.01,0.69c0.29,0.29 0.53,0.63 0.6901,1.01c0.16,0.39 0.25,0.81 0.25,1.25c0,0.44 -0.09,0.86 -0.25,1.25c-0.1601,0.38 -0.4001,0.72 -0.6901,1.01c-0.29,0.29 -0.63,0.53 -1.01,0.69c-0.39,0.16 -0.81,0.25 -1.25,0.25c-0.44,0 -0.86,-0.09 -1.24995,-0.25c-0.38,-0.16 -0.72,-0.4 -1.01,-0.69c-0.29,-0.29 -0.53,-0.63 -0.69,-1.01c-0.16,-0.39 -0.25,-0.81 -0.25,-1.25c0,-0.44 0.09,-0.86 0.25,-1.25c0.16,-0.38 0.4,-0.72 0.69,-1.01c0.29,-0.29 0.63,-0.53 1.01,-0.69zM11.55,9.9701c0,-0.01 -0.01,-0.02 -0.01,-0.03c0,-0.01 -0.01,-0.02 -0.01,-0.02c-0.01,-0.01 -0.01,-0.02 -0.02,-0.03c0,-0.01 -0.01,-0.02 -0.01,-0.03c-0.01,0 -0.01,-0.01 -0.02,-0.02c0,-0.01 -0.01,-0.02 -0.01,-0.02c-0.01,-0.01 -0.02,-0.02 -0.02,-0.02c-0.01,-0.01 -0.02,-0.02 -0.03,-0.02c0,-0.01 -0.01,-0.02 -0.02,-0.03c0,0 -0.01,-0.01 -0.02,-0.02c0,0 -0.01,-0.01 -0.02,-0.01c-0.01,-0.01 -0.02,-0.01 -0.02,-0.02c-0.01,0 -0.02,-0.01 -0.03,-0.01c-0.01,-0.01 -0.02,-0.01 -0.03,-0.02c-0.01,0 -0.01,-0.01 -0.02,-0.01c-0.01,0 -0.02,-0.01 -0.03,-0.01c-0.01,-0.01 -0.02,-0.01 -0.03,-0.01c-0.01,-0.01 -0.02,-0.01 -0.03,-0.02c-0.01,0 -0.02,0 -0.02,0c-0.01,-0.01 -0.02,-0.01 -0.03,-0.01c-0.01,0 -0.02,-0.01 -0.03,-0.01c-0.01,0 -0.02,0 -0.03,0c-0.01,0 -0.02,0 -0.03,0c-0.01,0 -0.02,0 -0.03,0c-0.01,0 -0.02,0 -0.03,0c-0.01,0 -0.02,0 -0.03,0c-0.01,0 -0.02,0 -0.03,0c-0.01,0 -0.02,0.01 -0.03,0.01c-0.01,0 -0.02,0 -0.03,0.01c0,0 -0.01,0 -0.02,0c-0.01,0.01 -0.02,0.01 -0.03,0.02c-0.01,0 -0.02,0 -0.03,0.01c-0.01,0 -0.02,0.01 -0.03,0.01c-0.01,0 -0.02,0.01 -0.02,0.01c-0.01,0.01 -0.02,0.01 -0.03,0.02c-0.01,0 -0.02,0.01 -0.03,0.01c0,0.01 -0.01,0.01 -0.02,0.02c-0.01,0 -0.02,0.01 -0.02,0.01c-0.01,0.01 -0.02,0.02 -0.02,0.02c-0.01,0.01 -0.02,0.02 -0.02,0.03c-0.01,0 -0.02,0.01 -0.03,0.02c0,0 -0.01,0.01 -0.02,0.02c0,0 -0.01,0.01 -0.01,0.02c-0.01,0.01 -0.01,0.02 -0.02,0.02c0,0.01 -0.01,0.02 -0.01,0.03c-0.01,0.01 -0.01,0.02 -0.02,0.03c0,0 -0.01,0.01 -0.01,0.02c0,0.01 -0.01,0.02 -0.01,0.03c-0.01,0.01 -0.01,0.02 -0.01,0.03c-0.01,0.01 -0.01,0.02 -0.02,0.03c0,0.01 0,0.02 0,0.02c-0.01,0.01 -0.01,0.02 -0.01,0.03c0,0.01 -0.01,0.02 -0.01,0.03c0,0.01 0,0.02 0,0.03c0,0.01 0,0.02 0,0.03c0,0.01 0,0.02 0,0.03v1h-0.99995c-0.01,0 -0.02,0 -0.03,0c-0.01,0 -0.02,0 -0.03,0c-0.01,0 -0.02,0 -0.03,0c-0.01,0 -0.02,0.01 -0.03,0.01c-0.01,0 -0.02,0 -0.03,0.01c0,0 -0.01,0 -0.02,0c-0.01,0.01 -0.02,0.01 -0.03,0.02c-0.01,0 -0.02,0 -0.03,0.01c-0.01,0 -0.02,0.01 -0.03,0.01c-0.01,0 -0.02,0.01 -0.02,0.01c-0.01,0.01 -0.02,0.01 -0.03,0.02c-0.01,0 -0.02,0.01 -0.03,0.01c0,0.01 -0.01,0.01 -0.02,0.02c-0.01,0 -0.02,0.01 -0.02,0.01c-0.01,0.01 -0.02,0.02 -0.02,0.02c-0.01,0.01 -0.02,0.02 -0.02,0.03c-0.01,0 -0.02,0.01 -0.03,0.02c0,0 -0.01,0.01 -0.02,0.02c0,0 -0.01,0.01 -0.01,0.02c-0.01,0.01 -0.01,0.02 -0.02,0.02c0,0.01 -0.01,0.02 -0.01,0.03c-0.01,0.01 -0.01,0.02 -0.02,0.03c0,0 -0.01,0.01 -0.01,0.02c0,0.01 -0.01,0.02 -0.01,0.03c-0.01,0.01 -0.01,0.02 -0.01,0.03c-0.01,0.01 -0.01,0.02 -0.02,0.03c0,0.01 0,0.02 0,0.02c-0.01,0.01 -0.01,0.02 -0.01,0.03c0,0.01 -0.01,0.02 -0.01,0.03c0,0.01 0,0.02 0,0.03c0,0.01 0,0.02 0,0.03c0,0.01 0,0.02 0,0.03c0,0.01 0,0.02 0,0.03c0,0.01 0,0.02 0,0.03c0,0.01 0,0.02 0,0.03c0,0.01 0.01,0.02 0.01,0.03c0,0.01 0,0.02 0.01,0.03c0,0 0,0.01 0,0.02c0.01,0.01 0.01,0.02 0.02,0.03c0,0.01 0,0.02 0.01,0.03c0,0.01 0.01,0.02 0.01,0.03c0,0.01 0.01,0.01 0.01,0.02c0.01,0.01 0.01,0.02 0.02,0.03c0,0.01 0.01,0.02 0.01,0.03c0.01,0 0.01,0.01 0.02,0.02c0,0.01 0.01,0.02 0.01,0.02c0.01,0.01 0.02,0.02 0.02,0.02c0.01,0.01 0.02,0.02 0.03,0.02c0,0.01 0.01,0.02 0.02,0.03c0,0 0.01,0.01 0.02,0.02c0,0 0.01,0.01 0.02,0.01c0.01,0.01 0.02,0.01 0.02,0.02c0.01,0 0.02,0.01 0.03,0.01c0.01,0.01 0.02,0.01 0.03,0.02c0,0 0.01,0.01 0.02,0.01c0.01,0 0.02,0.01 0.03,0.01c0.01,0.01 0.02,0.01 0.03,0.01c0.01,0.01 0.02,0.01 0.03,0.01c0.01,0.01 0.02,0.01 0.02,0.01c0.01,0.01 0.02,0.01 0.03,0.01c0.01,0 0.02,0.01 0.03,0.01c0.01,0 0.02,0 0.03,0c0.01,0 0.02,0 0.03,0c0.01,0 0.02,0 0.03,0h0.99995v1c0,0.01 0,0.02 0,0.03c0,0.01 0,0.02 0,0.03c0,0.01 0,0.02 0,0.03c0,0.01 0.01,0.02 0.01,0.03c0,0.01 0,0.02 0.01,0.03c0,0 0,0.01 0,0.02c0.01,0.01 0.01,0.02 0.02,0.03c0,0.01 0,0.02 0.01,0.03c0,0.01 0.01,0.02 0.01,0.03c0,0.01 0.01,0.01 0.01,0.02c0.01,0.01 0.01,0.02 0.02,0.03c0,0.01 0.01,0.02 0.01,0.03c0.01,0 0.01,0.01 0.02,0.02c0,0.01 0.01,0.02 0.01,0.02c0.01,0.01 0.02,0.02 0.02,0.02c0.01,0.01 0.02,0.02 0.03,0.02c0,0.01 0.01,0.02 0.02,0.03c0,0 0.01,0.01 0.02,0.02c0,0 0.01,0.01 0.02,0.01c0.01,0.01 0.02,0.01 0.02,0.02c0.01,0 0.02,0.01 0.03,0.01c0.01,0.01 0.02,0.01 0.03,0.02c0,0 0.01,0.01 0.02,0.01c0.01,0 0.02,0.01 0.03,0.01c0.01,0.01 0.02,0.01 0.03,0.01c0.01,0.01 0.02,0.01 0.03,0.01c0.01,0.01 0.02,0.01 0.02,0.01c0.01,0.01 0.02,0.01 0.03,0.01c0.01,0 0.02,0.01 0.03,0.01c0.01,0 0.02,0 0.03,0c0.01,0 0.02,0 0.03,0c0.01,0 0.02,0 0.03,0c0.01,0 0.02,0 0.03,0c0.01,0 0.02,0 0.03,0c0.01,0 0.02,0 0.03,0c0.01,0 0.02,-0.01 0.03,-0.01c0.01,0 0.02,0 0.03,-0.01c0,0 0.01,0 0.02,-0.01c0.01,0 0.02,0 0.03,-0.01c0.01,0 0.02,0 0.03,-0.01c0.01,0 0.02,-0.01 0.03,-0.01c0.01,0 0.01,-0.01 0.02,-0.01c0.01,-0.01 0.02,-0.01 0.03,-0.02c0.01,0 0.02,-0.01 0.03,-0.01c0,-0.01 0.01,-0.01 0.02,-0.02c0.01,0 0.02,-0.01 0.02,-0.01c0.01,-0.01 0.02,-0.02 0.02,-0.02c0.01,-0.01 0.02,-0.02 0.02,-0.03c0.01,0 0.02,-0.01 0.03,-0.02c0,0 0.01,-0.01 0.02,-0.02c0,0 0.01,-0.01 0.01,-0.02c0.01,-0.01 0.01,-0.02 0.02,-0.02c0,-0.01 0.01,-0.02 0.01,-0.03c0.01,-0.01 0.01,-0.02 0.02,-0.03c0,-0.01 0.01,-0.01 0.01,-0.02c0,-0.01 0.01,-0.02 0.01,-0.03c0.01,-0.01 0.01,-0.02 0.01,-0.03c0.01,-0.01 0.01,-0.02 0.01,-0.03c0.01,-0.01 0.01,-0.02 0.01,-0.02c0.01,-0.01 0.01,-0.02 0.01,-0.03c0,-0.01 0.01,-0.02 0.01,-0.03c0,-0.01 0,-0.02 0,-0.03c0,-0.01 0,-0.02 0,-0.03c0,-0.01 0,-0.02 0,-0.03v-1h1c0.01,0 0.02,0 0.03,0c0.01,0 0.02,0 0.03,0c0.01,0 0.02,0 0.03,0c0.01,0 0.02,-0.01 0.03,-0.01c0.01,0 0.02,0 0.03,-0.01c0,0 0.01,0 0.02,-0.01c0.01,0 0.02,0 0.03,-0.01c0.01,0 0.02,0 0.03,-0.01c0.01,0 0.02,-0.01 0.03,-0.01c0.01,0 0.01,-0.01 0.02,-0.01c0.01,-0.01 0.02,-0.01 0.03,-0.02c0.01,0 0.02,-0.01 0.03,-0.01c0,-0.01 0.01,-0.01 0.02,-0.02c0.01,0 0.02,-0.01 0.02,-0.01c0.01,-0.01 0.02,-0.02 0.02,-0.02c0.01,-0.01 0.02,-0.02 0.02,-0.03c0.01,0 0.02,-0.01 0.03,-0.02c0,0 0.01,-0.01 0.02,-0.02c0,0 0.01,-0.01 0.01,-0.02c0.01,-0.01 0.01,-0.02 0.02,-0.02c0,-0.01 0.01,-0.02 0.01,-0.03c0.01,-0.01 0.01,-0.02 0.02,-0.03c0,-0.01 0.01,-0.01 0.01,-0.02c0,-0.01 0.01,-0.02 0.01,-0.03c0.01,-0.01 0.01,-0.02 0.01,-0.03c0.01,-0.01 0.01,-0.02 0.01,-0.03c0.01,-0.01 0.01,-0.02 0.01,-0.02c0.01,-0.01 0.01,-0.02 0.01,-0.03c0,-0.01 0.01,-0.02 0.01,-0.03c0,-0.01 0,-0.02 0,-0.03c0,-0.01 0,-0.02 0,-0.03c0,-0.01 0,-0.02 0,-0.03c0,-0.01 0,-0.02 0,-0.03c0,-0.01 0,-0.02 0,-0.03c0,-0.01 0,-0.02 0,-0.03c0,-0.01 -0.01,-0.02 -0.01,-0.03c0,-0.01 0,-0.02 -0.01,-0.03c0,0 0,-0.01 -0.01,-0.02c0,-0.01 0,-0.02 -0.01,-0.03c0,-0.01 0,-0.02 -0.01,-0.03c0,-0.01 -0.01,-0.02 -0.01,-0.03c0,-0.01 -0.01,-0.02 -0.01,-0.02c-0.01,-0.01 -0.01,-0.02 -0.02,-0.03c0,-0.01 -0.01,-0.02 -0.01,-0.03c-0.01,0 -0.01,-0.01 -0.02,-0.02c0,-0.01 -0.01,-0.02 -0.01,-0.02c-0.01,-0.01 -0.02,-0.02 -0.02,-0.02c-0.01,-0.01 -0.02,-0.02 -0.03,-0.02c0,-0.01 -0.01,-0.02 -0.02,-0.03c0,0 -0.01,-0.01 -0.02,-0.02c0,0 -0.01,-0.01 -0.02,-0.01c-0.01,-0.01 -0.02,-0.01 -0.02,-0.02c-0.01,0 -0.02,-0.01 -0.03,-0.01c-0.01,-0.01 -0.02,-0.01 -0.03,-0.02c-0.01,0 -0.01,-0.01 -0.02,-0.01c-0.01,0 -0.02,-0.01 -0.03,-0.01c-0.01,-0.01 -0.02,-0.01 -0.03,-0.01c-0.01,-0.01 -0.02,-0.01 -0.03,-0.02c-0.01,0 -0.02,0 -0.02,0c-0.01,-0.01 -0.02,-0.01 -0.03,-0.01c-0.01,0 -0.02,-0.01 -0.03,-0.01c-0.01,0 -0.02,0 -0.03,0c-0.01,0 -0.02,0 -0.03,0c-0.01,0 -0.02,0 -0.03,0h-1v-1c0,-0.01 0,-0.02 0,-0.03c0,-0.01 0,-0.02 0,-0.03c0,-0.01 0,-0.02 0,-0.03c0,-0.01 -0.01,-0.02 -0.01,-0.03c0,-0.01 0,-0.02 -0.01,-0.03c0,0 0,-0.01 -0.01,-0.02c0,-0.01 0,-0.02 -0.01,-0.03c0,-0.01 0,-0.02 -0.01,-0.03z">
        </path>
        <path id="圆形 1 (轮廓)" fill-rule="evenodd" style="fill:#FFFFFF" opacity="1"
          d="M8.09 8.76995C8.17 8.80995 8.25 8.81995 8.34 8.81995C8.38 8.81995 8.42 8.81995 8.46 8.80995C8.5 8.80995 8.54 8.78995 8.57 8.77995C8.61 8.75995 8.64 8.74995 8.68 8.71995C8.71 8.69995 8.74 8.67995 8.77 8.64995C8.8 8.61995 8.82 8.58995 8.84 8.55995C8.86 8.52995 8.88 8.48995 8.9 8.44995C8.91 8.41995 8.92 8.37995 8.93 8.33995C8.94 8.29995 8.94 8.25995 8.94 8.21995C8.94 8.16995 8.93 8.10995 8.92 8.04995C8.9 7.98995 8.87 7.93995 8.84 7.88995C8.81 7.83995 8.77 7.79995 8.72 7.75995C8.68 7.71995 8.63 7.68995 8.57 7.66995L8.57 7.66995C7.81 7.35995 7.02 7.19995 6.2 7.19995C5.36 7.19995 4.55 7.35995 3.79 7.68995C3.04 7.99995 2.39 8.43995 1.81 9.00995C1.24 9.58995 0.8 10.24 0.49 10.99C0.16 11.75 0 12.56 0 13.4C0 13.44 0 13.48 0.01 13.52C0.02 13.56 0.03 13.59 0.05 13.63C0.06 13.67 0.08 13.7 0.1 13.73C0.12 13.77 0.15 13.8 0.18 13.82C0.2 13.85 0.23 13.88 0.27 13.9C0.3 13.92 0.33 13.94 0.37 13.95C0.41 13.97 0.44 13.98 0.48 13.99C0.52 14 0.56 14 0.6 14C0.64 14 0.68 14 0.72 13.99C0.76 13.98 0.79 13.97 0.83 13.95C0.87 13.94 0.9 13.92 0.93 13.9C0.97 13.88 1 13.85 1.02 13.82C1.05 13.8 1.08 13.77 1.1 13.73C1.12 13.7 1.14 13.67 1.15 13.63C1.17 13.59 1.18 13.56 1.19 13.52C1.2 13.48 1.2 13.44 1.2 13.4C1.2 12.72 1.33 12.07 1.59 11.45C1.85 10.85 2.2 10.32 2.66 9.85995C3.12 9.39995 3.65 9.04995 4.25 8.78995C4.87 8.52995 5.52 8.39995 6.2 8.39995C6.85 8.39995 7.48 8.51995 8.09 8.76995Z">
        </path>
      </g>
    </g>
  </g>
  <defs>
    <rect id="path_0" x="0" y="0" width="24" height="24" />
  </defs>
</svg>