<svg xmlns="http://www.w3.org/2000/svg" xmlns:xlink="http://www.w3.org/1999/xlink" width="30" height="30" viewBox="0 0 30 30" fill="none"><g opacity="1"  transform="translate(0 0)  rotate(0)"><mask id="bg-mask-0" fill="white"><use xlink:href="#path_0"></use></mask><g mask="url(#bg-mask-0)" ><g opacity="1"  transform="translate(6.25 6.25)  rotate(0)"><path id="矩形 2 (轮廓)" fill-rule="evenodd" style="fill:#131926" opacity="1" d="M1 2.75C1 2.8 1 2.85 1.01 2.9C1.02 2.94 1.04 2.99 1.06 3.04C1.08 3.08 1.1 3.13 1.13 3.17C1.15 3.21 1.18 3.25 1.22 3.28C1.25 3.32 1.29 3.35 1.33 3.37C1.37 3.4 1.42 3.42 1.46 3.44C1.51 3.46 1.56 3.48 1.6 3.49C1.65 3.5 1.7 3.5 1.75 3.5C1.8 3.5 1.85 3.5 1.9 3.49C1.94 3.48 1.99 3.46 2.04 3.44C2.08 3.42 2.13 3.4 2.17 3.37C2.21 3.35 2.25 3.32 2.28 3.28C2.32 3.25 2.35 3.21 2.37 3.17C2.4 3.13 2.42 3.08 2.44 3.04C2.46 2.99 2.48 2.94 2.49 2.9C2.5 2.85 2.5 2.8 2.5 2.75L2.5 1.5L16 1.5L16 16L2.5 16L2.5 14.75C2.5 14.7 2.5 14.65 2.49 14.6C2.48 14.56 2.46 14.51 2.44 14.46C2.42 14.42 2.4 14.37 2.37 14.33C2.35 14.29 2.32 14.25 2.28 14.22C2.25 14.18 2.21 14.15 2.17 14.13C2.13 14.1 2.08 14.08 2.04 14.06C1.99 14.04 1.94 14.02 1.9 14.01C1.85 14 1.8 14 1.75 14C1.7 14 1.65 14 1.6 14.01C1.56 14.02 1.51 14.04 1.46 14.06C1.42 14.08 1.37 14.1 1.33 14.13C1.29 14.15 1.25 14.18 1.22 14.22C1.18 14.25 1.15 14.29 1.13 14.33C1.1 14.37 1.08 14.42 1.06 14.46C1.04 14.51 1.02 14.56 1.01 14.6C1 14.65 1 14.7 1 14.75L1 16.75C1 16.8 1 16.85 1.01 16.9C1.02 16.94 1.04 16.99 1.06 17.04C1.08 17.08 1.1 17.13 1.13 17.17C1.15 17.21 1.18 17.25 1.22 17.28C1.25 17.32 1.29 17.35 1.33 17.37C1.37 17.4 1.42 17.42 1.46 17.44C1.51 17.46 1.56 17.48 1.6 17.49C1.65 17.5 1.7 17.5 1.75 17.5L16.75 17.5C16.8 17.5 16.85 17.5 16.9 17.49C16.94 17.48 16.99 17.46 17.04 17.44C17.08 17.42 17.13 17.4 17.17 17.37C17.21 17.35 17.25 17.32 17.28 17.28C17.32 17.25 17.35 17.21 17.37 17.17C17.4 17.13 17.42 17.08 17.44 17.04C17.46 16.99 17.48 16.94 17.49 16.9C17.5 16.85 17.5 16.8 17.5 16.75L17.5 0.75C17.5 0.7 17.5 0.65 17.49 0.6C17.48 0.56 17.46 0.51 17.44 0.46C17.42 0.42 17.4 0.37 17.37 0.33C17.35 0.29 17.32 0.25 17.28 0.22C17.25 0.18 17.21 0.15 17.17 0.13C17.13 0.1 17.08 0.08 17.04 0.06C16.99 0.04 16.94 0.02 16.9 0.01C16.85 0 16.8 0 16.75 0L1.75 0C1.7 0 1.65 0 1.6 0.01C1.56 0.02 1.51 0.04 1.46 0.06C1.42 0.08 1.37 0.1 1.33 0.13C1.29 0.15 1.25 0.18 1.22 0.22C1.18 0.25 1.15 0.29 1.13 0.33C1.1 0.37 1.08 0.42 1.06 0.46C1.04 0.51 1.02 0.56 1.01 0.6C1 0.65 1 0.7 1 0.75L1 2.75Z"></path><path id="圆形 1 (轮廓)" fill-rule="evenodd" style="fill:#495AD4" opacity="1" d="M11.21,3.29c0.45,0.19 0.85,0.46 1.19,0.81c0.35,0.34 0.62,0.74 0.81,1.19c0.19,0.46 0.29,0.95 0.29,1.46c0,0.51 -0.1,1 -0.29,1.46c-0.19,0.45 -0.46,0.85 -0.81,1.19c-0.34,0.35 -0.74,0.62 -1.19,0.81c-0.46,0.19 -0.95,0.29 -1.46,0.29c-0.51,0 -1,-0.1 -1.46,-0.29c-0.45,-0.19 -0.85,-0.46 -1.19,-0.81c-0.35,-0.34 -0.62,-0.74 -0.81,-1.19c-0.19,-0.46 -0.29,-0.95 -0.29,-1.46c0,-0.51 0.1,-1 0.29,-1.46c0.19,-0.45 0.46,-0.85 0.81,-1.19c0.34,-0.35 0.74,-0.62 1.19,-0.81c0.46,-0.19 0.95,-0.29 1.46,-0.29c0.51,0 1,0.1 1.46,0.29zM8.16,5.16c-0.21,0.21 -0.37,0.44 -0.48,0.71c-0.12,0.28 -0.18,0.57 -0.18,0.88c0,0.31 0.06,0.6 0.18,0.88c0.11,0.27 0.27,0.5 0.48,0.71c0.21,0.21 0.44,0.37 0.71,0.48c0.28,0.12 0.57,0.18 0.88,0.18c0.31,0 0.6,-0.06 0.88,-0.18c0.27,-0.11 0.5,-0.27 0.71,-0.48c0.21,-0.21 0.37,-0.44 0.48,-0.71c0.12,-0.28 0.18,-0.57 0.18,-0.88c0,-0.31 -0.06,-0.6 -0.18,-0.88c-0.11,-0.27 -0.27,-0.5 -0.48,-0.71c-0.21,-0.21 -0.44,-0.37 -0.71,-0.48c-0.28,-0.12 -0.57,-0.18 -0.88,-0.18c-0.31,0 -0.6,0.06 -0.88,0.18c-0.27,0.11 -0.5,0.27 -0.71,0.48z"></path><path id="圆形 1 (轮廓)" fill-rule="evenodd" style="fill:#495AD4" opacity="1" d="M13 13.75C13 13.8 13 13.85 13.01 13.9C13.02 13.94 13.04 13.99 13.06 14.04C13.08 14.08 13.1 14.13 13.13 14.17C13.15 14.21 13.18 14.25 13.22 14.28C13.25 14.32 13.29 14.35 13.33 14.37C13.37 14.4 13.42 14.42 13.46 14.44C13.51 14.46 13.56 14.48 13.6 14.49C13.65 14.5 13.7 14.5 13.75 14.5C13.8 14.5 13.85 14.5 13.9 14.49C13.94 14.48 13.99 14.46 14.04 14.44C14.08 14.42 14.13 14.4 14.17 14.37C14.21 14.35 14.25 14.32 14.28 14.28C14.32 14.25 14.35 14.21 14.37 14.17C14.4 14.13 14.42 14.08 14.44 14.04C14.46 13.99 14.48 13.94 14.49 13.9C14.5 13.85 14.5 13.8 14.5 13.75C14.5 13.11 14.38 12.49 14.13 11.9C13.89 11.33 13.55 10.83 13.11 10.39C12.67 9.95 12.17 9.61 11.6 9.37C11.01 9.12 10.39 9 9.75 9C9.11 9 8.49 9.12 7.9 9.37C7.33 9.61 6.83 9.95 6.39 10.39C5.95 10.83 5.61 11.33 5.37 11.9C5.12 12.49 5 13.11 5 13.75C5 13.8 5 13.85 5.01 13.9C5.02 13.94 5.04 13.99 5.06 14.04C5.08 14.08 5.1 14.13 5.13 14.17C5.15 14.21 5.18 14.25 5.22 14.28C5.25 14.32 5.29 14.35 5.33 14.37C5.37 14.4 5.42 14.42 5.46 14.44C5.51 14.46 5.56 14.48 5.6 14.49C5.65 14.5 5.7 14.5 5.75 14.5C5.8 14.5 5.85 14.5 5.9 14.49C5.94 14.48 5.99 14.46 6.04 14.44C6.08 14.42 6.13 14.4 6.17 14.37C6.21 14.35 6.25 14.32 6.28 14.28C6.32 14.25 6.35 14.21 6.37 14.17C6.4 14.13 6.42 14.08 6.44 14.04C6.46 13.99 6.48 13.94 6.49 13.9C6.5 13.85 6.5 13.8 6.5 13.75C6.5 13.31 6.59 12.89 6.76 12.48C6.92 12.1 7.15 11.75 7.45 11.45C7.75 11.15 8.1 10.92 8.48 10.76C8.89 10.59 9.31 10.5 9.75 10.5C10.19 10.5 10.61 10.59 11.02 10.76C11.4 10.92 11.75 11.15 12.05 11.45C12.35 11.75 12.58 12.1 12.74 12.48C12.91 12.89 13 13.31 13 13.75Z"></path><path id="直线 1 (轮廓)" fill-rule="evenodd" style="fill:#131926" opacity="1" d="M0.750008 5C0.700008 5 0.650008 5 0.600008 5.01C0.560008 5.02 0.510008 5.04 0.460008 5.06C0.420008 5.08 0.370008 5.1 0.330008 5.13C0.290008 5.15 0.250008 5.18 0.220008 5.22C0.180008 5.25 0.150008 5.29 0.130008 5.33C0.100008 5.37 0.0800076 5.42 0.0600076 5.46C0.0400076 5.51 0.0200076 5.56 0.0100076 5.6C7.62939e-06 5.65 7.62939e-06 5.7 7.62939e-06 5.75C7.62939e-06 5.8 7.62939e-06 5.85 0.0100076 5.9C0.0200076 5.94 0.0400076 5.99 0.0600076 6.04C0.0800076 6.08 0.100008 6.13 0.130008 6.17C0.150008 6.21 0.180008 6.25 0.220008 6.28C0.250008 6.32 0.290008 6.35 0.330008 6.37C0.370008 6.4 0.420008 6.42 0.460008 6.44C0.510008 6.46 0.560008 6.48 0.600008 6.49C0.650008 6.5 0.700008 6.5 0.750008 6.5L2.75001 6.5C2.80001 6.5 2.85001 6.5 2.90001 6.49C2.94001 6.48 2.99001 6.46 3.04001 6.44C3.08001 6.42 3.13001 6.4 3.17001 6.37C3.21001 6.35 3.25001 6.32 3.28001 6.28C3.32001 6.25 3.35001 6.21 3.37001 6.17C3.40001 6.13 3.42001 6.08 3.44001 6.04C3.46001 5.99 3.48001 5.94 3.49001 5.9C3.50001 5.85 3.50001 5.8 3.50001 5.75C3.50001 5.7 3.50001 5.65 3.49001 5.6C3.48001 5.56 3.46001 5.51 3.44001 5.46C3.42001 5.42 3.40001 5.37 3.37001 5.33C3.35001 5.29 3.32001 5.25 3.28001 5.22C3.25001 5.18 3.21001 5.15 3.17001 5.13C3.13001 5.1 3.08001 5.08 3.04001 5.06C2.99001 5.04 2.94001 5.02 2.90001 5.01C2.85001 5 2.80001 5 2.75001 5L0.750008 5Z"></path><path id="直线 2 (轮廓)" fill-rule="evenodd" style="fill:#131926" opacity="1" d="M0.750008 8C0.700008 8 0.650008 8 0.600008 8.01C0.560008 8.02 0.510008 8.04 0.460008 8.06C0.420008 8.08 0.370008 8.1 0.330008 8.13C0.290008 8.15 0.250008 8.18 0.220008 8.22C0.180008 8.25 0.150008 8.29 0.130008 8.33C0.100008 8.37 0.0800076 8.42 0.0600076 8.46C0.0400076 8.51 0.0200076 8.56 0.0100076 8.6C7.62939e-06 8.65 7.62939e-06 8.7 7.62939e-06 8.75C7.62939e-06 8.8 7.62939e-06 8.85 0.0100076 8.9C0.0200076 8.94 0.0400076 8.99 0.0600076 9.04C0.0800076 9.08 0.100008 9.13 0.130008 9.17C0.150008 9.21 0.180008 9.25 0.220008 9.28C0.250008 9.32 0.290008 9.35 0.330008 9.37C0.370008 9.4 0.420008 9.42 0.460008 9.44C0.510008 9.46 0.560008 9.48 0.600008 9.49C0.650008 9.5 0.700008 9.5 0.750008 9.5L2.75001 9.5C2.80001 9.5 2.85001 9.5 2.90001 9.49C2.94001 9.48 2.99001 9.46 3.04001 9.44C3.08001 9.42 3.13001 9.4 3.17001 9.37C3.21001 9.35 3.25001 9.32 3.28001 9.28C3.32001 9.25 3.35001 9.21 3.37001 9.17C3.40001 9.13 3.42001 9.08 3.44001 9.04C3.46001 8.99 3.48001 8.94 3.49001 8.9C3.50001 8.85 3.50001 8.8 3.50001 8.75C3.50001 8.7 3.50001 8.65 3.49001 8.6C3.48001 8.56 3.46001 8.51 3.44001 8.46C3.42001 8.42 3.40001 8.37 3.37001 8.33C3.35001 8.29 3.32001 8.25 3.28001 8.22C3.25001 8.18 3.21001 8.15 3.17001 8.13C3.13001 8.1 3.08001 8.08 3.04001 8.06C2.99001 8.04 2.94001 8.02 2.90001 8.01C2.85001 8 2.80001 8 2.75001 8L0.750008 8Z"></path><path id="直线 3 (轮廓)" fill-rule="evenodd" style="fill:#131926" opacity="1" d="M0.750008 11C0.700008 11 0.650008 11 0.600008 11.01C0.560008 11.02 0.510008 11.04 0.460008 11.06C0.420008 11.08 0.370008 11.1 0.330008 11.13C0.290008 11.15 0.250008 11.18 0.220008 11.22C0.180008 11.25 0.150008 11.29 0.130008 11.33C0.100008 11.37 0.0800076 11.42 0.0600076 11.46C0.0400076 11.51 0.0200076 11.56 0.0100076 11.6C7.62939e-06 11.65 7.62939e-06 11.7 7.62939e-06 11.75C7.62939e-06 11.8 7.62939e-06 11.85 0.0100076 11.9C0.0200076 11.94 0.0400076 11.99 0.0600076 12.04C0.0800076 12.08 0.100008 12.13 0.130008 12.17C0.150008 12.21 0.180008 12.25 0.220008 12.28C0.250008 12.32 0.290008 12.35 0.330008 12.37C0.370008 12.4 0.420008 12.42 0.460008 12.44C0.510008 12.46 0.560008 12.48 0.600008 12.49C0.650008 12.5 0.700008 12.5 0.750008 12.5L2.75001 12.5C2.80001 12.5 2.85001 12.5 2.90001 12.49C2.94001 12.48 2.99001 12.46 3.04001 12.44C3.08001 12.42 3.13001 12.4 3.17001 12.37C3.21001 12.35 3.25001 12.32 3.28001 12.28C3.32001 12.25 3.35001 12.21 3.37001 12.17C3.40001 12.13 3.42001 12.08 3.44001 12.04C3.46001 11.99 3.48001 11.94 3.49001 11.9C3.50001 11.85 3.50001 11.8 3.50001 11.75C3.50001 11.7 3.50001 11.65 3.49001 11.6C3.48001 11.56 3.46001 11.51 3.44001 11.46C3.42001 11.42 3.40001 11.37 3.37001 11.33C3.35001 11.29 3.32001 11.25 3.28001 11.22C3.25001 11.18 3.21001 11.15 3.17001 11.13C3.13001 11.1 3.08001 11.08 3.04001 11.06C2.99001 11.04 2.94001 11.02 2.90001 11.01C2.85001 11 2.80001 11 2.75001 11L0.750008 11Z"></path></g></g></g><defs><rect id="path_0" x="0" y="0" width="30" height="30" /></defs></svg>