<svg xmlns="http://www.w3.org/2000/svg" xmlns:xlink="http://www.w3.org/1999/xlink" width="30" height="30" viewBox="0 0 30 30" fill="none"><g opacity="1"  transform="translate(0 0)  rotate(0)"><mask id="bg-mask-0" fill="white"><use xlink:href="#path_0"></use></mask><g mask="url(#bg-mask-0)" ><path id="减去顶层" fill-rule="evenodd" style="fill:#495AD4" opacity="1" d="M7,23.875c0,-4.42 3.58,-8 8,-8c4.42,0 8,3.58 8,8zM15,18.375l1,-1.5h-2zM14,21.875l1,1l1,-1l-1,-3.5z"></path><path id="圆形 1 (轮廓)" fill-rule="evenodd" style="fill:#495AD4" opacity="1" d="M17.05,6.535c0.62,0.27 1.18,0.64 1.66,1.13c0.49,0.48 0.86,1.04 1.13,1.66c0.27,0.66 0.41,1.34 0.41,2.05c0,0.71 -0.14,1.39 -0.41,2.05c-0.27,0.62 -0.64,1.18 -1.13,1.66c-0.48,0.49 -1.04,0.86 -1.66,1.13c-0.66,0.27 -1.34,0.41 -2.05,0.41c-0.71,0 -1.39,-0.14 -2.05,-0.41c-0.62,-0.27 -1.18,-0.64 -1.66,-1.13c-0.49,-0.48 -0.86,-1.04 -1.13,-1.66c-0.27,-0.66 -0.41,-1.34 -0.41,-2.05c0,-0.71 0.14,-1.39 0.41,-2.05c0.27,-0.62 0.64,-1.18 1.13,-1.66c0.48,-0.49 1.04,-0.86 1.66,-1.13c0.66,-0.27 1.34,-0.41 2.05,-0.41c0.71,0 1.39,0.14 2.05,0.41zM12.35,8.725c-0.35,0.34 -0.62,0.74 -0.81,1.19c-0.19,0.46 -0.29,0.95 -0.29,1.46c0,0.51 0.1,1 0.29,1.46c0.19,0.45 0.46,0.85 0.81,1.19c0.34,0.35 0.74,0.62 1.19,0.81c0.46,0.19 0.95,0.29 1.46,0.29c0.51,0 1,-0.1 1.46,-0.29c0.45,-0.19 0.85,-0.46 1.19,-0.81c0.35,-0.34 0.62,-0.74 0.81,-1.19c0.19,-0.46 0.29,-0.95 0.29,-1.46c0,-0.51 -0.1,-1 -0.29,-1.46c-0.19,-0.45 -0.46,-0.85 -0.81,-1.19c-0.34,-0.35 -0.74,-0.62 -1.19,-0.81c-0.46,-0.19 -0.95,-0.29 -1.46,-0.29c-0.51,0 -1,0.1 -1.46,0.29c-0.45,0.19 -0.85,0.46 -1.19,0.81z"></path></g></g><defs><rect id="path_0" x="0" y="0" width="30" height="30" /></defs></svg>