<svg xmlns="http://www.w3.org/2000/svg" xmlns:xlink="http://www.w3.org/1999/xlink" width="28" height="28" viewBox="0 0 28 28" fill="none"><g opacity="1"  transform="translate(0 0)  rotate(0)"> fill="#FFFFFF" opacity="1" transform="translate(0 0)  rotate(0)" stroke="#DFE1ED" stroke-width="1" stroke-opacity="1"<rect fill="#FFFFFF" opacity="1" transform="translate(0 0)  rotate(0)" stroke="#DFE1ED" stroke-width="1" stroke-opacity="1" x="0" y="0" width="28" height="28" rx="2" /><g opacity="1"  transform="translate(2 2)  rotate(0)"><g opacity="1"  transform="translate(0 0)  rotate(0)"><mask id="bg-mask-0" fill="white"><use xlink:href="#path_0"></use></mask><g mask="url(#bg-mask-0)" ><g opacity="1"  transform="translate(5 5)  rotate(0)"><path id="直线 1 (轮廓)" fill-rule="evenodd" style="fill:#656A85" opacity="1" d="M5.2002 0.6C5.2002 0.56 5.2002 0.52 5.1902 0.48C5.1802 0.44 5.1702 0.41 5.1502 0.37C5.1402 0.33 5.1202 0.3 5.1002 0.27C5.0802 0.23 5.0502 0.2 5.0202 0.18C5.0002 0.15 4.9702 0.12 4.9302 0.1C4.9002 0.08 4.8702 0.06 4.8302 0.05C4.7902 0.03 4.7602 0.02 4.7202 0.01C4.6802 3.18408e-17 4.6402 3.42901e-17 4.60019 3.67394e-17C4.56019 3.91887e-17 4.5202 4.1638e-17 4.4802 0.01C4.4402 0.02 4.4102 0.03 4.3702 0.05C4.33019 0.06 4.3002 0.08 4.2702 0.1C4.2302 0.12 4.2002 0.15 4.18019 0.18C4.1502 0.2 4.12019 0.23 4.10019 0.27C4.08019 0.3 4.06019 0.33 4.0502 0.37C4.0302 0.41 4.0202 0.44 4.01019 0.48C4.0002 0.52 4.0002 0.56 4.0002 0.6L4.0002 4.6C4.0002 4.64 4.0002 4.68 4.01019 4.72C4.0202 4.76 4.0302 4.79 4.0502 4.83C4.06019 4.87 4.08019 4.9 4.10019 4.93C4.12019 4.97 4.1502 5 4.18019 5.02C4.2002 5.05 4.2302 5.08 4.2702 5.1C4.3002 5.12 4.33019 5.14 4.3702 5.15C4.4102 5.17 4.4402 5.18 4.4802 5.19C4.5202 5.2 4.56019 5.2 4.60019 5.2C4.6402 5.2 4.6802 5.2 4.7202 5.19C4.7602 5.18 4.7902 5.17 4.8302 5.15C4.8702 5.14 4.9002 5.12 4.9302 5.1C4.9702 5.08 5.0002 5.05 5.0202 5.02C5.0502 5 5.0802 4.97 5.1002 4.93C5.1202 4.9 5.1402 4.87 5.1502 4.83C5.1702 4.79 5.1802 4.76 5.1902 4.72C5.2002 4.68 5.2002 4.64 5.2002 4.6L5.2002 0.6Z"></path><path id="直线 1 (轮廓)" fill-rule="evenodd" style="fill:#656A85" opacity="1" d="M10 0.6C10 0.56 10 0.52 9.99 0.48C9.98 0.44 9.97 0.41 9.95 0.37C9.94 0.33 9.92 0.3 9.9 0.27C9.88 0.23 9.85 0.2 9.82 0.18C9.8 0.15 9.77 0.12 9.73 0.1C9.7 0.08 9.67 0.06 9.63 0.05C9.59 0.03 9.56 0.02 9.52 0.01C9.48 3.18408e-17 9.44 3.42901e-17 9.4 3.67394e-17C9.36 3.91887e-17 9.32 4.1638e-17 9.28 0.01C9.24 0.02 9.21 0.03 9.17 0.05C9.13 0.06 9.1 0.08 9.07 0.1C9.03 0.12 9 0.15 8.98 0.18C8.95 0.2 8.92 0.23 8.9 0.27C8.88 0.3 8.86 0.33 8.85 0.37C8.83 0.41 8.82 0.44 8.81 0.48C8.8 0.52 8.8 0.56 8.8 0.6L8.8 4.6C8.8 4.64 8.8 4.68 8.81 4.72C8.82 4.76 8.83 4.79 8.85 4.83C8.86 4.87 8.88 4.9 8.9 4.93C8.92 4.97 8.95 5 8.98 5.02C9 5.05 9.03 5.08 9.07 5.1C9.1 5.12 9.13 5.14 9.17 5.15C9.21 5.17 9.24 5.18 9.28 5.19C9.32 5.2 9.36 5.2 9.4 5.2C9.44 5.2 9.48 5.2 9.52 5.19C9.56 5.18 9.59 5.17 9.63 5.15C9.67 5.14 9.7 5.12 9.73 5.1C9.77 5.08 9.8 5.05 9.82 5.02C9.85 5 9.88 4.97 9.9 4.93C9.92 4.9 9.94 4.87 9.95 4.83C9.97 4.79 9.98 4.76 9.99 4.72C10 4.68 10 4.64 10 4.6L10 0.6Z"></path><path id="直线 2 (轮廓)" fill-rule="evenodd" style="fill:#656A85" opacity="1" d="M4.6002 5.19995C4.6402 5.19995 4.6802 5.19995 4.7202 5.18995C4.7602 5.17995 4.7902 5.16995 4.8302 5.14995C4.8702 5.13995 4.9002 5.11995 4.9302 5.09995C4.9702 5.07995 5.0002 5.04995 5.0202 5.01995C5.0502 4.99995 5.0802 4.96995 5.1002 4.92995C5.1202 4.89995 5.1402 4.86995 5.1502 4.82995C5.1702 4.78995 5.1802 4.75995 5.1902 4.71995C5.2002 4.67995 5.2002 4.63995 5.2002 4.59995C5.2002 4.55995 5.2002 4.51995 5.1902 4.47995C5.1802 4.43995 5.1702 4.40995 5.1502 4.36995C5.1402 4.32995 5.1202 4.29995 5.1002 4.26995C5.0802 4.22995 5.0502 4.19995 5.0202 4.17995C5.0002 4.14995 4.9702 4.11995 4.9302 4.09995C4.9002 4.07995 4.8702 4.05995 4.8302 4.04995C4.7902 4.02995 4.7602 4.01995 4.7202 4.00995C4.6802 3.99995 4.6402 3.99995 4.6002 3.99995L0.600196 3.99995C0.560196 3.99995 0.520196 3.99995 0.480196 4.00995C0.440196 4.01995 0.410196 4.02995 0.370196 4.04995C0.330196 4.05995 0.300196 4.07995 0.270196 4.09995C0.230196 4.11995 0.200196 4.14995 0.180196 4.17995C0.150196 4.19995 0.120196 4.22995 0.100196 4.26995C0.0801959 4.29995 0.0601959 4.32995 0.0501957 4.36995C0.0301957 4.40995 0.020196 4.43995 0.0101957 4.47995C0.00019598 4.51995 0.00019598 4.55995 0.00019598 4.59995C0.00019598 4.63995 0.00019598 4.67995 0.0101957 4.71995C0.020196 4.75995 0.0301957 4.78995 0.0501957 4.82995C0.0601959 4.86995 0.0801959 4.89995 0.100196 4.92995C0.120196 4.96995 0.150196 4.99995 0.180196 5.01995C0.200196 5.04995 0.230196 5.07995 0.270196 5.09995C0.300196 5.11995 0.330196 5.13995 0.370196 5.14995C0.410196 5.16995 0.440196 5.17995 0.480196 5.18995C0.520196 5.19995 0.560196 5.19995 0.600196 5.19995L4.6002 5.19995Z"></path><path id="直线 2 (轮廓)" fill-rule="evenodd" style="fill:#656A85" opacity="1" d="M4.6002 10C4.6402 10 4.6802 10 4.7202 9.99C4.7602 9.98 4.7902 9.97 4.8302 9.95C4.8702 9.94 4.9002 9.92 4.9302 9.9C4.9702 9.88 5.0002 9.85 5.0202 9.82C5.0502 9.8 5.0802 9.77 5.1002 9.73C5.1202 9.7 5.1402 9.67 5.1502 9.63C5.1702 9.59 5.1802 9.56 5.1902 9.52C5.2002 9.48 5.2002 9.44 5.2002 9.4C5.2002 9.36 5.2002 9.32 5.1902 9.28C5.1802 9.24 5.1702 9.21 5.1502 9.17C5.1402 9.13 5.1202 9.1 5.1002 9.07C5.0802 9.03 5.0502 9 5.0202 8.98C5.0002 8.95 4.9702 8.92 4.9302 8.9C4.9002 8.88 4.8702 8.86 4.8302 8.85C4.7902 8.83 4.7602 8.82 4.7202 8.81C4.6802 8.8 4.6402 8.8 4.6002 8.8L0.600196 8.8C0.560196 8.8 0.520196 8.8 0.480196 8.81C0.440196 8.82 0.410196 8.83 0.370196 8.85C0.330196 8.86 0.300196 8.88 0.270196 8.9C0.230196 8.92 0.200196 8.95 0.180196 8.98C0.150196 9 0.120196 9.03 0.100196 9.07C0.0801959 9.1 0.0601959 9.13 0.0501957 9.17C0.0301957 9.21 0.020196 9.24 0.0101957 9.28C0.00019598 9.32 0.00019598 9.36 0.00019598 9.4C0.00019598 9.44 0.00019598 9.48 0.0101957 9.52C0.020196 9.56 0.0301957 9.59 0.0501957 9.63C0.0601959 9.67 0.0801959 9.7 0.100196 9.73C0.120196 9.77 0.150196 9.8 0.180196 9.82C0.200196 9.85 0.230196 9.88 0.270196 9.9C0.300196 9.92 0.330196 9.94 0.370196 9.95C0.410196 9.97 0.440196 9.98 0.480196 9.99C0.520196 10 0.560196 10 0.600196 10L4.6002 10Z"></path><path id="直线 2 (轮廓)" fill-rule="evenodd" style="fill:#656A85" opacity="1" d="M13.4 5.19995C13.44 5.19995 13.48 5.19995 13.52 5.18995C13.56 5.17995 13.59 5.16995 13.63 5.14995C13.67 5.13995 13.7 5.11995 13.73 5.09995C13.77 5.07995 13.8 5.04995 13.82 5.01995C13.85 4.99995 13.88 4.96995 13.9 4.92995C13.92 4.89995 13.94 4.86995 13.95 4.82995C13.97 4.78995 13.98 4.75995 13.99 4.71995C14 4.67995 14 4.63995 14 4.59995C14 4.55995 14 4.51995 13.99 4.47995C13.98 4.43995 13.97 4.40995 13.95 4.36995C13.94 4.32995 13.92 4.29995 13.9 4.26995C13.88 4.22995 13.85 4.19995 13.82 4.17995C13.8 4.14995 13.77 4.11995 13.73 4.09995C13.7 4.07995 13.67 4.05995 13.63 4.04995C13.59 4.02995 13.56 4.01995 13.52 4.00995C13.48 3.99995 13.44 3.99995 13.4 3.99995L9.4 3.99995C9.36 3.99995 9.32 3.99995 9.28 4.00995C9.24 4.01995 9.21 4.02995 9.17 4.04995C9.13 4.05995 9.1 4.07995 9.07 4.09995C9.03 4.11995 9 4.14995 8.98 4.17995C8.95 4.19995 8.92 4.22995 8.9 4.26995C8.88 4.29995 8.86 4.32995 8.85 4.36995C8.83 4.40995 8.82 4.43995 8.81 4.47995C8.8 4.51995 8.8 4.55995 8.8 4.59995C8.8 4.63995 8.8 4.67995 8.81 4.71995C8.82 4.75995 8.83 4.78995 8.85 4.82995C8.86 4.86995 8.88 4.89995 8.9 4.92995C8.92 4.96995 8.95 4.99995 8.98 5.01995C9 5.04995 9.03 5.07995 9.07 5.09995C9.1 5.11995 9.13 5.13995 9.17 5.14995C9.21 5.16995 9.24 5.17995 9.28 5.18995C9.32 5.19995 9.36 5.19995 9.4 5.19995L13.4 5.19995Z"></path><path id="直线 2 (轮廓)" fill-rule="evenodd" style="fill:#656A85" opacity="1" d="M9.4 14C9.44 14 9.48 14 9.52 13.99C9.56 13.98 9.59 13.97 9.63 13.95C9.67 13.94 9.7 13.92 9.73 13.9C9.77 13.88 9.8 13.85 9.82 13.82C9.85 13.8 9.88 13.77 9.9 13.73C9.92 13.7 9.94 13.67 9.95 13.63C9.97 13.59 9.98 13.56 9.99 13.52C10 13.48 10 13.44 10 13.4C10 13.36 10 13.32 9.99 13.28C9.98 13.24 9.97 13.21 9.95 13.17C9.94 13.13 9.92 13.1 9.9 13.07C9.88 13.03 9.85 13 9.82 12.98C9.8 12.95 9.77 12.92 9.73 12.9C9.7 12.88 9.67 12.86 9.63 12.85C9.59 12.83 9.56 12.82 9.52 12.81C9.48 12.8 9.44 12.8 9.4 12.8L4.6 12.8C4.56 12.8 4.52 12.8 4.48 12.81C4.44 12.82 4.41 12.83 4.37 12.85C4.33 12.86 4.3 12.88 4.27 12.9C4.23 12.92 4.2 12.95 4.18 12.98C4.15 13 4.12 13.03 4.1 13.07C4.08 13.1 4.06 13.13 4.05 13.17C4.03 13.21 4.02 13.24 4.01 13.28C4 13.32 4 13.36 4 13.4C4 13.44 4 13.48 4.01 13.52C4.02 13.56 4.03 13.59 4.05 13.63C4.06 13.67 4.08 13.7 4.1 13.73C4.12 13.77 4.15 13.8 4.18 13.82C4.2 13.85 4.23 13.88 4.27 13.9C4.3 13.92 4.33 13.94 4.37 13.95C4.41 13.97 4.44 13.98 4.48 13.99C4.52 14 4.56 14 4.6 14L9.4 14Z"></path><path id="直线 2 (轮廓)" fill-rule="evenodd" style="fill:#656A85" opacity="1" d="M9.4 1.19995C9.44 1.19995 9.48 1.19995 9.52 1.18995C9.56 1.17995 9.59 1.16995 9.63 1.14995C9.67 1.13995 9.7 1.11995 9.73 1.09995C9.77 1.07995 9.8 1.04995 9.82 1.01995C9.85 0.999951 9.88 0.969951 9.9 0.929951C9.92 0.899951 9.94 0.869951 9.95 0.829951C9.97 0.789951 9.98 0.759951 9.99 0.719951C10 0.679951 10 0.639951 10 0.599951C10 0.559951 10 0.519951 9.99 0.479951C9.98 0.439951 9.97 0.409951 9.95 0.369951C9.94 0.329951 9.92 0.299951 9.9 0.269951C9.88 0.229951 9.85 0.199951 9.82 0.179951C9.8 0.149951 9.77 0.119951 9.73 0.0999509C9.7 0.0799509 9.67 0.0599509 9.63 0.049951C9.59 0.029951 9.56 0.019951 9.52 0.00995088C9.48 -4.91142e-05 9.44 -4.91142e-05 9.4 -4.91142e-05L4.6 -4.91142e-05C4.56 -4.91142e-05 4.52 -4.91142e-05 4.48 0.00995088C4.44 0.019951 4.41 0.029951 4.37 0.049951C4.33 0.0599509 4.3 0.0799509 4.27 0.0999509C4.23 0.119951 4.2 0.149951 4.18 0.179951C4.15 0.199951 4.12 0.229951 4.1 0.269951C4.08 0.299951 4.06 0.329951 4.05 0.369951C4.03 0.409951 4.02 0.439951 4.01 0.479951C4 0.519951 4 0.559951 4 0.599951C4 0.639951 4 0.679951 4.01 0.719951C4.02 0.759951 4.03 0.789951 4.05 0.829951C4.06 0.869951 4.08 0.899951 4.1 0.929951C4.12 0.969951 4.15 0.999951 4.18 1.01995C4.2 1.04995 4.23 1.07995 4.27 1.09995C4.3 1.11995 4.33 1.13995 4.37 1.14995C4.41 1.16995 4.44 1.17995 4.48 1.18995C4.52 1.19995 4.56 1.19995 4.6 1.19995L9.4 1.19995Z"></path><path id="直线 2 (轮廓)" fill-rule="evenodd" style="fill:#656A85" opacity="1" d="M13.4 10C13.44 10 13.48 10 13.52 9.99C13.56 9.98 13.59 9.97 13.63 9.95C13.67 9.94 13.7 9.92 13.73 9.9C13.77 9.88 13.8 9.85 13.82 9.82C13.85 9.8 13.88 9.77 13.9 9.73C13.92 9.7 13.94 9.67 13.95 9.63C13.97 9.59 13.98 9.56 13.99 9.52C14 9.48 14 9.44 14 9.4C14 9.36 14 9.32 13.99 9.28C13.98 9.24 13.97 9.21 13.95 9.17C13.94 9.13 13.92 9.1 13.9 9.07C13.88 9.03 13.85 9 13.82 8.98C13.8 8.95 13.77 8.92 13.73 8.9C13.7 8.88 13.67 8.86 13.63 8.85C13.59 8.83 13.56 8.82 13.52 8.81C13.48 8.8 13.44 8.8 13.4 8.8L9.4 8.8C9.36 8.8 9.32 8.8 9.28 8.81C9.24 8.82 9.21 8.83 9.17 8.85C9.13 8.86 9.1 8.88 9.07 8.9C9.03 8.92 9 8.95 8.98 8.98C8.95 9 8.92 9.03 8.9 9.07C8.88 9.1 8.86 9.13 8.85 9.17C8.83 9.21 8.82 9.24 8.81 9.28C8.8 9.32 8.8 9.36 8.8 9.4C8.8 9.44 8.8 9.48 8.81 9.52C8.82 9.56 8.83 9.59 8.85 9.63C8.86 9.67 8.88 9.7 8.9 9.73C8.92 9.77 8.95 9.8 8.98 9.82C9 9.85 9.03 9.88 9.07 9.9C9.1 9.92 9.13 9.94 9.17 9.95C9.21 9.97 9.24 9.98 9.28 9.99C9.32 10 9.36 10 9.4 10L13.4 10Z"></path><path id="直线 3 (轮廓)" fill-rule="evenodd" style="fill:#656A85" opacity="1" d="M5.2002 9.40005C5.2002 9.36005 5.2002 9.32005 5.1902 9.28005C5.1802 9.24005 5.1702 9.21005 5.1502 9.17005C5.1402 9.13005 5.1202 9.10005 5.1002 9.07005C5.0802 9.03005 5.0502 9.00005 5.0202 8.98005C5.0002 8.95005 4.9702 8.92005 4.9302 8.90005C4.9002 8.88005 4.8702 8.86005 4.8302 8.85005C4.7902 8.83005 4.7602 8.82005 4.7202 8.81005C4.6802 8.80005 4.6402 8.80005 4.60019 8.80005C4.56019 8.80005 4.5202 8.80005 4.4802 8.81005C4.4402 8.82005 4.4102 8.83005 4.3702 8.85005C4.33019 8.86005 4.3002 8.88005 4.2702 8.90005C4.2302 8.92005 4.2002 8.95005 4.18019 8.98005C4.1502 9.00005 4.12019 9.03005 4.10019 9.07005C4.08019 9.10005 4.06019 9.13005 4.0502 9.17005C4.0302 9.21005 4.0202 9.24005 4.01019 9.28005C4.0002 9.32005 4.0002 9.36005 4.0002 9.40005L4.0002 13.4C4.0002 13.44 4.0002 13.48 4.01019 13.52C4.0202 13.56 4.0302 13.59 4.0502 13.63C4.06019 13.67 4.08019 13.7 4.10019 13.73C4.12019 13.77 4.1502 13.8 4.18019 13.82C4.2002 13.85 4.2302 13.88 4.2702 13.9C4.3002 13.92 4.33019 13.94 4.3702 13.95C4.4102 13.97 4.4402 13.98 4.4802 13.99C4.5202 14 4.56019 14 4.60019 14C4.6402 14 4.6802 14 4.7202 13.99C4.7602 13.98 4.7902 13.97 4.8302 13.95C4.8702 13.94 4.9002 13.92 4.9302 13.9C4.9702 13.88 5.0002 13.85 5.0202 13.82C5.0502 13.8 5.0802 13.77 5.1002 13.73C5.1202 13.7 5.1402 13.67 5.1502 13.63C5.1702 13.59 5.1802 13.56 5.1902 13.52C5.2002 13.48 5.2002 13.44 5.2002 13.4L5.2002 9.40005Z"></path><path id="直线 3 (轮廓)" fill-rule="evenodd" style="fill:#656A85" opacity="1" d="M1.2002 4.6C1.2002 4.56 1.2002 4.52 1.1902 4.48C1.1802 4.44 1.1702 4.41 1.1502 4.37C1.1402 4.33 1.1202 4.3 1.1002 4.27C1.0802 4.23 1.0502 4.2 1.0202 4.18C1.0002 4.15 0.970195 4.12 0.930195 4.1C0.900195 4.08 0.870195 4.06 0.830195 4.05C0.790195 4.03 0.760195 4.02 0.720195 4.01C0.680195 4 0.640195 4 0.600195 4C0.560195 4 0.520195 4 0.480195 4.01C0.440195 4.02 0.410195 4.03 0.370195 4.05C0.330195 4.06 0.300195 4.08 0.270195 4.1C0.230195 4.12 0.200195 4.15 0.180195 4.18C0.150195 4.2 0.120195 4.23 0.100195 4.27C0.0801951 4.3 0.0601951 4.33 0.0501951 4.37C0.0301951 4.41 0.0201951 4.44 0.010195 4.48C0.000195026 4.52 0.000195026 4.56 0.000195026 4.6L0.000195026 9.4C0.000195026 9.44 0.000195026 9.48 0.010195 9.52C0.0201951 9.56 0.0301951 9.59 0.0501951 9.63C0.0601951 9.67 0.0801951 9.7 0.100195 9.73C0.120195 9.77 0.150195 9.8 0.180195 9.82C0.200195 9.85 0.230195 9.88 0.270195 9.9C0.300195 9.92 0.330195 9.94 0.370195 9.95C0.410195 9.97 0.440195 9.98 0.480195 9.99C0.520195 10 0.560195 10 0.600195 10C0.640195 10 0.680195 10 0.720195 9.99C0.760195 9.98 0.790195 9.97 0.830195 9.95C0.870195 9.94 0.900195 9.92 0.930195 9.9C0.970195 9.88 1.0002 9.85 1.0202 9.82C1.0502 9.8 1.0802 9.77 1.1002 9.73C1.1202 9.7 1.1402 9.67 1.1502 9.63C1.1702 9.59 1.1802 9.56 1.1902 9.52C1.2002 9.48 1.2002 9.44 1.2002 9.4L1.2002 4.6Z"></path><path id="直线 3 (轮廓)" fill-rule="evenodd" style="fill:#656A85" opacity="1" d="M14 4.6C14 4.56 14 4.52 13.99 4.48C13.98 4.44 13.97 4.41 13.95 4.37C13.94 4.33 13.92 4.3 13.9 4.27C13.88 4.23 13.85 4.2 13.82 4.18C13.8 4.15 13.77 4.12 13.73 4.1C13.7 4.08 13.67 4.06 13.63 4.05C13.59 4.03 13.56 4.02 13.52 4.01C13.48 4 13.44 4 13.4 4C13.36 4 13.32 4 13.28 4.01C13.24 4.02 13.21 4.03 13.17 4.05C13.13 4.06 13.1 4.08 13.07 4.1C13.03 4.12 13 4.15 12.98 4.18C12.95 4.2 12.92 4.23 12.9 4.27C12.88 4.3 12.86 4.33 12.85 4.37C12.83 4.41 12.82 4.44 12.81 4.48C12.8 4.52 12.8 4.56 12.8 4.6L12.8 9.4C12.8 9.44 12.8 9.48 12.81 9.52C12.82 9.56 12.83 9.59 12.85 9.63C12.86 9.67 12.88 9.7 12.9 9.73C12.92 9.77 12.95 9.8 12.98 9.82C13 9.85 13.03 9.88 13.07 9.9C13.1 9.92 13.13 9.94 13.17 9.95C13.21 9.97 13.24 9.98 13.28 9.99C13.32 10 13.36 10 13.4 10C13.44 10 13.48 10 13.52 9.99C13.56 9.98 13.59 9.97 13.63 9.95C13.67 9.94 13.7 9.92 13.73 9.9C13.77 9.88 13.8 9.85 13.82 9.82C13.85 9.8 13.88 9.77 13.9 9.73C13.92 9.7 13.94 9.67 13.95 9.63C13.97 9.59 13.98 9.56 13.99 9.52C14 9.48 14 9.44 14 9.4L14 4.6Z"></path><path id="直线 3 (轮廓)" fill-rule="evenodd" style="fill:#656A85" opacity="1" d="M10 9.40005C10 9.36005 10 9.32005 9.99 9.28005C9.98 9.24005 9.97 9.21005 9.95 9.17005C9.94 9.13005 9.92 9.10005 9.9 9.07005C9.88 9.03005 9.85 9.00005 9.82 8.98005C9.8 8.95005 9.77 8.92005 9.73 8.90005C9.7 8.88005 9.67 8.86005 9.63 8.85005C9.59 8.83005 9.56 8.82005 9.52 8.81005C9.48 8.80005 9.44 8.80005 9.4 8.80005C9.36 8.80005 9.32 8.80005 9.28 8.81005C9.24 8.82005 9.21 8.83005 9.17 8.85005C9.13 8.86005 9.1 8.88005 9.07 8.90005C9.03 8.92005 9 8.95005 8.98 8.98005C8.95 9.00005 8.92 9.03005 8.9 9.07005C8.88 9.10005 8.86 9.13005 8.85 9.17005C8.83 9.21005 8.82 9.24005 8.81 9.28005C8.8 9.32005 8.8 9.36005 8.8 9.40005L8.8 13.4C8.8 13.44 8.8 13.48 8.81 13.52C8.82 13.56 8.83 13.59 8.85 13.63C8.86 13.67 8.88 13.7 8.9 13.73C8.92 13.77 8.95 13.8 8.98 13.82C9 13.85 9.03 13.88 9.07 13.9C9.1 13.92 9.13 13.94 9.17 13.95C9.21 13.97 9.24 13.98 9.28 13.99C9.32 14 9.36 14 9.4 14C9.44 14 9.48 14 9.52 13.99C9.56 13.98 9.59 13.97 9.63 13.95C9.67 13.94 9.7 13.92 9.73 13.9C9.77 13.88 9.8 13.85 9.82 13.82C9.85 13.8 9.88 13.77 9.9 13.73C9.92 13.7 9.94 13.67 9.95 13.63C9.97 13.59 9.98 13.56 9.99 13.52C10 13.48 10 13.44 10 13.4L10 9.40005Z"></path></g></g></g></g></g><defs><rect id="path_0" x="0" y="0" width="24" height="24" /></defs></svg>