<svg xmlns="http://www.w3.org/2000/svg" xmlns:xlink="http://www.w3.org/1999/xlink" width="30" height="30"
  viewBox="0 0 30 30" fill="none">
  <g opacity="1" transform="translate(0 0)  rotate(0)">
    <mask id="bg-mask-0" fill="white">
      <use transform="translate(0 0)  rotate(0)" xlink:href="#path_0"></use>
    </mask>
    <g mask="url(#bg-mask-0)">
      <path id="圆形 1 (轮廓)" fill-rule="evenodd" style="fill:#131926" opacity="1"
        d="M15 5.25C14.59 5.25 14.25 5.59 14.25 6C14.25 6.41 14.59 6.75 15 6.75C19.56 6.75 23.25 10.44 23.25 15C23.25 19.56 19.56 23.25 15 23.25C10.44 23.25 6.75 19.56 6.75 15C6.75 12.72 7.56 10.77 9.17 9.17L9.16 9.17C9.3 9.03 9.39 8.84 9.39 8.64C9.39 8.22 9.05 7.89 8.64 7.89C8.4 7.89 8.18 8 8.04 8.18C6.18 10.06 5.25 12.33 5.25 15C5.25 20.38 9.62 24.75 15 24.75C20.38 24.75 24.75 20.38 24.75 15C24.75 9.62 20.38 5.25 15 5.25Z">
      </path>
      <path id="直线 1 (轮廓)" fill-rule="evenodd" style="fill:#495AD4" opacity="1"
        d="M9.46967 14.5303L13.4719 18.5325C13.7618 18.8225 14.2426 18.8225 14.5326 18.5325C14.8225 18.2426 14.8225 17.7618 14.5326 17.4719L10.5303 13.4697C10.2404 13.1797 9.75958 13.1797 9.46967 13.4697C9.17976 13.7596 9.17976 14.2404 9.46967 14.5303Z">
      </path>
      <path id="直线 4 (轮廓)" fill-rule="evenodd" style="fill:#495AD4" opacity="1"
        d="M14.5303 18.5303L20.5337 12.527C20.8236 12.2371 20.8236 11.7562 20.5337 11.4663C20.2438 11.1764 19.7629 11.1764 19.473 11.4663L13.4697 17.4697C13.1798 17.7596 13.1798 18.2404 13.4697 18.5303C13.7596 18.8202 14.2404 18.8202 14.5303 18.5303Z">
      </path>
    </g>
  </g>
  <defs>
    <rect id="path_0" x="0" y="0" width="30" height="30" />
  </defs>
</svg>