<svg xmlns="http://www.w3.org/2000/svg" xmlns:xlink="http://www.w3.org/1999/xlink" width="24" height="24"
  viewBox="0 0 24 24" fill="none">
  <g opacity="1" transform="translate(0 0)  rotate(0)">
    <g mask="url(#bg-mask-0)">
      <path id="直线 1 (轮廓)" fill-rule="evenodd" style="fill:#A0A3B8" opacity="1"
        d="M6.19922 5.6C6.19922 5.56 6.19922 5.52 6.18922 5.48C6.17922 5.44 6.16922 5.41 6.14922 5.37C6.13922 5.33 6.11922 5.3 6.09922 5.27C6.07922 5.23 6.04922 5.2 6.01922 5.18C5.99922 5.15 5.96922 5.12 5.92922 5.1C5.89922 5.08 5.86922 5.06 5.82922 5.05C5.78922 5.03 5.75922 5.02 5.71922 5.01C5.67922 5 5.63922 5 5.59922 5C5.55922 5 5.51922 5 5.47922 5.01C5.43922 5.02 5.40922 5.03 5.36922 5.05C5.32922 5.06 5.29922 5.08 5.26922 5.1C5.22922 5.12 5.19922 5.15 5.17922 5.18C5.14922 5.2 5.11922 5.23 5.09922 5.27C5.07922 5.3 5.05922 5.33 5.04922 5.37C5.02922 5.41 5.01922 5.44 5.00922 5.48C4.99922 5.52 4.99922 5.56 4.99922 5.6L4.99922 18.4C4.99922 18.44 4.99922 18.48 5.00922 18.52C5.01922 18.56 5.02922 18.59 5.04922 18.63C5.05922 18.67 5.07922 18.7 5.09922 18.73C5.11922 18.77 5.14922 18.8 5.17922 18.82C5.19922 18.85 5.22922 18.88 5.26922 18.9C5.29922 18.92 5.32922 18.94 5.36922 18.95C5.40922 18.97 5.43922 18.98 5.47922 18.99C5.51922 19 5.55922 19 5.59922 19C5.63922 19 5.67922 19 5.71922 18.99C5.75922 18.98 5.78922 18.97 5.82922 18.95C5.86922 18.94 5.89922 18.92 5.92922 18.9C5.96922 18.88 5.99922 18.85 6.01922 18.82C6.04922 18.8 6.07922 18.77 6.09922 18.73C6.11922 18.7 6.13922 18.67 6.14922 18.63C6.16922 18.59 6.17922 18.56 6.18922 18.52C6.19922 18.48 6.19922 18.44 6.19922 18.4L6.19922 5.6Z">
      </path>
      <path id="直线 2 (轮廓)" fill-rule="evenodd" style="fill:#A0A3B8" opacity="1"
        d="M5.6 17.8C5.56 17.8 5.52 17.8 5.48 17.81C5.44 17.82 5.41 17.83 5.37 17.85C5.33 17.86 5.3 17.88 5.27 17.9C5.23 17.92 5.2 17.95 5.18 17.98C5.15 18 5.12 18.03 5.1 18.07C5.08 18.1 5.06 18.13 5.05 18.17C5.03 18.21 5.02 18.24 5.01 18.28C5 18.32 5 18.36 5 18.4C5 18.44 5 18.48 5.01 18.52C5.02 18.56 5.03 18.59 5.05 18.63C5.06 18.67 5.08 18.7 5.1 18.73C5.12 18.77 5.15 18.8 5.18 18.82C5.2 18.85 5.23 18.88 5.27 18.9C5.3 18.92 5.33 18.94 5.37 18.95C5.41 18.97 5.44 18.98 5.48 18.99C5.52 19 5.56 19 5.6 19L18.4 19C18.44 19 18.48 19 18.52 18.99C18.56 18.98 18.59 18.97 18.63 18.95C18.67 18.94 18.7 18.92 18.73 18.9C18.77 18.88 18.8 18.85 18.82 18.82C18.85 18.8 18.88 18.77 18.9 18.73C18.92 18.7 18.94 18.67 18.95 18.63C18.97 18.59 18.98 18.56 18.99 18.52C19 18.48 19 18.44 19 18.4C19 18.36 19 18.32 18.99 18.28C18.98 18.24 18.97 18.21 18.95 18.17C18.94 18.13 18.92 18.1 18.9 18.07C18.88 18.03 18.85 18 18.82 17.98C18.8 17.95 18.77 17.92 18.73 17.9C18.7 17.88 18.67 17.86 18.63 17.85C18.59 17.83 18.56 17.82 18.52 17.81C18.48 17.8 18.44 17.8 18.4 17.8L5.6 17.8Z">
      </path>
      <path id="圆形 1" fill-rule="evenodd" style="fill:#495AD4" opacity="1"
        d="M16.4 12.8C16.179 12.8 16 12.979 16 13.2C16 13.421 16.179 13.6 16.4 13.6C16.621 13.6 16.8 13.421 16.8 13.2C16.8 12.979 16.621 12.8 16.4 12.8Z">
      </path>
      <path id="圆形 1" fill-rule="evenodd" style="fill:#495AD4" opacity="1"
        d="M16.8 7.20001C16.36 7.20001 16 7.56001 16 8.00001C16 8.44001 16.36 8.80001 16.8 8.80001C17.24 8.80001 17.6 8.44001 17.6 8.00001C17.6 7.56001 17.24 7.20001 16.8 7.20001Z">
      </path>
      <path id="圆形 1" fill-rule="evenodd" style="fill:#495AD4" opacity="1"
        d="M12.7992 12C11.9192 12 11.1992 12.72 11.1992 13.6C11.1992 14.48 11.9192 15.2 12.7992 15.2C13.6792 15.2 14.3992 14.48 14.3992 13.6C14.3992 12.72 13.6792 12 12.7992 12Z">
      </path>
      <path id="圆形 1" fill-rule="evenodd" style="fill:#495AD4" opacity="1"
        d="M14.0008 8.79999C13.3408 8.79999 12.8008 9.33999 12.8008 9.99999C12.8008 10.66 13.3408 11.2 14.0008 11.2C14.6608 11.2 15.2008 10.66 15.2008 9.99999C15.2008 9.33999 14.6608 8.79999 14.0008 8.79999Z">
      </path>
      <path id="圆形 1" fill-rule="evenodd" style="fill:#495AD4" opacity="1"
        d="M8.8 13.6C8.36 13.6 8 13.96 8 14.4C8 14.84 8.36 15.2 8.8 15.2C9.24 15.2 9.6 14.84 9.6 14.4C9.6 13.96 9.24 13.6 8.8 13.6Z">
      </path>
    </g>
  </g>
  <defs>
    <rect id="path_0" x="0" y="0" width="24" height="24" />
  </defs>
</svg>