<svg xmlns="http://www.w3.org/2000/svg" xmlns:xlink="http://www.w3.org/1999/xlink" width="30" height="30"
  viewBox="0 0 30 30" fill="none">
  <path fill="#495AD4"
    d="M0 26L0 4C0 1.79086 1.79086 0 4 0L26 0C28.2091 0 30 1.79086 30 4L30 26C30 28.2091 28.2091 30 26 30L4 30C1.79086 30 0 28.2091 0 26Z">
  </path>
  <path
    d="M6.25 7L6.25 20C6.25 20.4142 6.58579 20.75 7 20.75L23 20.75C23.4142 20.75 23.75 20.4142 23.75 20L23.75 7C23.75 6.58579 23.4142 6.25 23 6.25L7 6.25C6.58579 6.25 6.25 6.58579 6.25 7ZM7.75 19.25L7.75 7.75L22.25 7.75L22.25 19.25L7.75 19.25Z"
    fill-rule="evenodd" fill="#FFFFFF">
  </path>
  <path
    d="M9.61539 14.4288C9.47984 14.623 9.25475 14.75 9 14.75C8.58579 14.75 8.25 14.4142 8.25 14C8.25 13.8339 8.30399 13.6804 8.39538 13.5561C8.68631 13.1506 9.01639 12.7751 9.38561 12.4296C10.9387 10.9765 12.8101 10.25 15 10.25C17.1899 10.25 19.0613 10.9765 20.6144 12.4296C20.9836 12.7751 21.3137 13.1506 21.6046 13.5562C21.696 13.6804 21.75 13.8339 21.75 14C21.75 14.4142 21.4142 14.75 21 14.75C20.7453 14.75 20.5202 14.623 20.3846 14.4288C20.1514 14.1039 19.8864 13.8026 19.5896 13.5249C18.3249 12.3416 16.795 11.75 15 11.75C13.205 11.75 11.6751 12.3416 10.4104 13.5249C10.1136 13.8026 9.84863 14.1039 9.61539 14.4288Z"
    fill-rule="evenodd" fill="#FFFFFF">
  </path>
  <path
    d="M9.61539 13.5712C9.47984 13.377 9.25475 13.25 9 13.25C8.58579 13.25 8.25 13.5858 8.25 14C8.25 14.1661 8.30399 14.3196 8.39538 14.4439C8.68631 14.8494 9.01639 15.2249 9.38561 15.5704C10.9387 17.0235 12.8101 17.75 15 17.75C17.1899 17.75 19.0613 17.0235 20.6144 15.5704C20.9836 15.2249 21.3137 14.8494 21.6046 14.4438C21.696 14.3196 21.75 14.1661 21.75 14C21.75 13.5858 21.4142 13.25 21 13.25C20.7453 13.25 20.5202 13.377 20.3846 13.5712C20.1514 13.8961 19.8864 14.1974 19.5896 14.4751C18.3249 15.6584 16.795 16.25 15 16.25C13.205 16.25 11.6751 15.6584 10.4104 14.4751C10.1136 14.1974 9.84863 13.8961 9.61539 13.5712Z"
    fill-rule="evenodd" fill="#FFFFFF">
  </path>
  <path
    d="M15 16C16.1046 16 17 15.1046 17 14C17 12.8954 16.1046 12 15 12C13.8954 12 13 12.8954 13 14C13 15.1046 13.8954 16 15 16ZM15 13.0909C15.5021 13.0909 15.9091 13.4979 15.9091 14C15.9091 14.5021 15.5021 14.9091 15 14.9091C14.4979 14.9091 14.0909 14.5021 14.0909 14C14.0909 13.4979 14.4979 13.0909 15 13.0909Z"
    fill-rule="evenodd" fill="#E8CA99">
  </path>
  <path
    d="M6.25 23C6.25 23.4142 6.58579 23.75 7 23.75L23 23.75C23.4142 23.75 23.75 23.4142 23.75 23C23.75 22.5858 23.4142 22.25 23 22.25L7 22.25C6.58579 22.25 6.25 22.5858 6.25 23Z"
    fill-rule="evenodd" fill="#FFFFFF">
  </path>
</svg>