<svg xmlns="http://www.w3.org/2000/svg" xmlns:xlink="http://www.w3.org/1999/xlink" width="80" height="80" viewBox="0 0 80 80" fill="none"><g opacity="1"  transform="translate(0 0)  rotate(0)"><g mask="url(#bg-mask-0)" ><path id="路径 1" fill-rule="evenodd" style="fill:#DFE1ED" opacity="1" d="M36.04,39.9773c-0.96,-1.28 -2.53,-2.55 -3.8,-3.52c-4.13,-3.46 -7.94,-6.97 -8.57,-17.15h-1.27c-0.94,0 -1.9,-0.94 -1.9,-1.91c0,-0.97 0.96,-1.91 1.9,-1.91h35.2c0.96,0 1.9,0.97 1.9,1.91c0,0.94 -0.96,1.91 -1.93,1.91h-1.27c-0.3,10.18 -4.43,13.36 -8.54,17.18c-1.27,0.97 -2.54,2.24 -3.8,3.51c1.26,1.28 2.53,2.55 3.8,3.52c4.13,3.51 8.24,7 8.54,17.18h1.27c0.97,0 1.9,0.96 1.9,1.91c0,0.96 -0.96,1.91 -1.9,1.91h-35.17c-0.94,0 -1.9,-0.97 -1.9,-1.91c0,-0.97 0.96,-1.91 1.9,-1.91h1.27c0.3,-10.18 4.44,-13.37 8.57,-17.18c1.27,-1 2.84,-2.24 3.8,-3.54zM29.05,60.6673l10.14,-10.18c0.3,-0.31 1.27,-0.31 1.57,0l10.14,10.18h1.58c-0.33,-8.6 -3.81,-11.15 -7.31,-14.3c-1.57,-1.58 -3.5,-2.85 -5.07,-5.09c-1.9,2.24 -3.47,3.51 -5.37,5.09c-3.45,3.18 -6.95,5.72 -7.26,14.3zM48.09,60.6673l-7.91,-7.94c-0.03,-0.03 -7.94,7.94 -7.94,7.94zM49.97,29.1773c1.57,-2.24 2.84,-5.09 2.84,-9.85h-25.36c0.35,4.76 1.29,7.61 3.19,9.85zM32.54,31.3973c0.64,0.97 1.58,1.58 2.21,2.21c1.9,1.58 3.47,3.19 5.38,5.4c1.57,-2.55 3.5,-3.82 5.4,-5.4c0.66,-0.61 1.6,-1.27 2.23,-2.21z"></path></g></g></svg>