<svg xmlns="http://www.w3.org/2000/svg" xmlns:xlink="http://www.w3.org/1999/xlink" width="16" height="16" viewBox="0 0 16 16" fill="none"><g opacity="1"  transform="translate(0 0)  rotate(0)"><mask id="bg-mask-0" fill="white"><use xlink:href="#path_0"></use></mask><g mask="url(#bg-mask-0)" ><path id="圆形 1 (轮廓)" fill-rule="evenodd" style="fill:#495AD4" opacity="1" d="M10.9032,1.1232c0.9,0.37 1.69,0.91 2.38,1.6c0.69,0.69 1.22,1.48 1.6,2.37c0.39,0.93 0.58,1.89 0.58,2.91c0,1.01 -0.19,1.98 -0.58,2.9c-0.38,0.9 -0.91,1.69 -1.6,2.38c-0.69,0.69 -1.48,1.22 -2.38,1.6c-0.92,0.39 -1.89,0.58 -2.9,0.58c-1.02,0 -1.98,-0.19 -2.91,-0.58c-0.89,-0.38 -1.68,-0.91 -2.37,-1.6c-0.69,-0.69 -1.23,-1.48 -1.6,-2.38c-0.39,-0.92 -0.59,-1.89 -0.59,-2.9c0,-1.02 0.2,-1.98 0.59,-2.91c0.37,-0.89 0.91,-1.68 1.6,-2.37c0.69,-0.69 1.48,-1.23 2.37,-1.6c0.93,-0.39 1.89,-0.59 2.91,-0.59c1.01,0 1.98,0.2 2.9,0.59zM3.4732,3.4732c-0.59,0.59 -1.05,1.27 -1.37,2.04c-0.34,0.79 -0.5,1.62 -0.5,2.49c0,0.87 0.16,1.7 0.5,2.49c0.32,0.76 0.78,1.44 1.37,2.03c0.59,0.59 1.27,1.05 2.04,1.37c0.79,0.34 1.62,0.51 2.49,0.51c0.87,0 1.7,-0.17 2.49,-0.51c0.76,-0.32 1.44,-0.78 2.03,-1.37c0.59,-0.59 1.05,-1.27 1.37,-2.03c0.34,-0.79 0.51,-1.62 0.51,-2.49c0,-0.87 -0.17,-1.7 -0.51,-2.49c-0.32,-0.77 -0.78,-1.45 -1.37,-2.04c-0.59,-0.59 -1.27,-1.05 -2.03,-1.37c-0.79,-0.34 -1.62,-0.5 -2.49,-0.5c-0.87,0 -1.7,0.16 -2.49,0.5c-0.77,0.32 -1.45,0.78 -2.04,1.37z"></path><path id="圆形 3" fill-rule="evenodd" style="fill:#495AD4" opacity="1" d="M8.0002 11.1992C7.5602 11.1992 7.2002 11.5592 7.2002 11.9992C7.2002 12.4392 7.5602 12.7992 8.0002 12.7992C8.4402 12.7992 8.80019 12.4392 8.80019 11.9992C8.80019 11.5592 8.4402 11.1992 8.0002 11.1992Z"></path><path id="直线 1 (轮廓)" fill-rule="evenodd" style="fill:#495AD4" opacity="1" d="M7.4668 9.60281C7.4668 9.63281 7.4668 9.67281 7.4768 9.70281C7.4868 9.74281 7.4968 9.77281 7.5068 9.80281C7.5168 9.83281 7.5368 9.86281 7.5568 9.89281C7.5768 9.92281 7.5968 9.95281 7.6268 9.97281C7.6468 10.0028 7.6768 10.0228 7.7068 10.0428C7.7368 10.0628 7.7668 10.0828 7.7968 10.0928C7.8268 10.1028 7.8568 10.1128 7.8968 10.1228C7.9268 10.1328 7.9668 10.1328 7.9968 10.1328C8.0368 10.1328 8.0668 10.1328 8.1068 10.1228C8.1368 10.1128 8.1768 10.1028 8.2068 10.0928C8.2368 10.0828 8.2668 10.0628 8.2968 10.0428C8.3268 10.0228 8.3568 10.0028 8.3768 9.97281C8.4068 9.95281 8.4268 9.92281 8.4468 9.89281C8.4668 9.86281 8.4768 9.83281 8.4968 9.80281C8.5068 9.77281 8.5168 9.74281 8.5268 9.70281C8.5268 9.67281 8.5368 9.63281 8.5368 9.60281L8.5368 3.20281C8.5368 3.16281 8.5268 3.13281 8.5268 3.09281C8.5168 3.06281 8.5068 3.02281 8.4968 2.99281C8.4768 2.96281 8.4668 2.93281 8.4468 2.90281C8.4268 2.87281 8.4068 2.84281 8.3768 2.82281C8.3568 2.79281 8.3268 2.77281 8.2968 2.75281C8.2668 2.73281 8.2368 2.72281 8.2068 2.70281C8.1768 2.69281 8.1368 2.68281 8.1068 2.67281C8.0668 2.67281 8.0368 2.66281 7.9968 2.66281C7.9668 2.66281 7.9268 2.67281 7.8968 2.67281C7.8568 2.68281 7.8268 2.69281 7.7968 2.70281C7.7668 2.72281 7.7368 2.73281 7.7068 2.75281C7.6768 2.77281 7.6468 2.79281 7.6268 2.82281C7.5968 2.84281 7.5768 2.87281 7.5568 2.90281C7.5368 2.93281 7.5168 2.96281 7.5068 2.99281C7.4968 3.02281 7.4868 3.06281 7.4768 3.09281C7.4668 3.13281 7.4668 3.16281 7.4668 3.20281L7.4668 9.60281Z"></path></g></g><defs><rect id="path_0" x="0" y="0" width="16" height="16" /></defs></svg>