<svg xmlns="http://www.w3.org/2000/svg" xmlns:xlink="http://www.w3.org/1999/xlink" width="12" height="12" viewBox="0 0 12 12" fill="none"><path d="M6 0C2.688 0 0 2.688 0 6C0 9.312 2.688 12 6 12C9.312 12 12 9.312 12 6C12 2.688 9.312 0 6 0ZM6 10.0731C5.73257 10.0731 5.52 9.86057 5.52 9.59314C5.52 9.32571 5.73257 9.11314 6 9.11314C6.26743 9.11314 6.48 9.32571 6.48 9.59314C6.48 9.86057 6.26743 10.0731 6 10.0731ZM6.69257 2.68114L6.48 7.65943C6.48 7.92686 6.26743 8.13943 6 8.13943C5.73257 8.13943 5.52 7.92686 5.52 7.65943L5.30743 2.68114C5.30743 2.66057 5.30743 2.64686 5.30743 2.62629C5.30743 2.24229 5.616 1.92686 6.00686 1.92686C6.39771 1.92686 6.70629 2.23543 6.70629 2.62629C6.69943 2.64 6.69257 2.66057 6.69257 2.68114Z" fill-rule="evenodd"  fill="#FF8D1A" ></path></svg>