<svg xmlns="http://www.w3.org/2000/svg" xmlns:xlink="http://www.w3.org/1999/xlink" width="30" height="30" viewBox="0 0 30 30" fill="none"><g opacity="1"  transform="translate(0 0)  rotate(0)"><mask id="bg-mask-0" fill="white"><use xlink:href="#path_0"></use></mask><g mask="url(#bg-mask-0)" ><g opacity="1"  transform="translate(15.72021484375 16.25)  rotate(0)"><path id="多边形 1 (轮廓)" fill-rule="evenodd" style="fill:#495AD4" opacity="1" d="M4.16,0.1l3.03,1.75c0.05,0.03 0.1,0.07 0.15,0.12c0.05,0.05 0.09,0.1 0.12,0.16c0.03,0.05 0.06,0.11 0.07,0.18c0.02,0.06 0.03,0.12 0.03,0.19v3.5c0,0.07 -0.01,0.13 -0.03,0.19c-0.01,0.07 -0.04,0.13 -0.07,0.18c-0.03,0.06 -0.07,0.11 -0.12,0.16c-0.05,0.05 -0.1,0.09 -0.15,0.12l-3.03,1.75c-0.06,0.03 -0.12,0.06 -0.19,0.07c-0.06,0.02 -0.12,0.03 -0.19,0.03c-0.07,0 -0.13,-0.01 -0.19,-0.03c-0.07,-0.01 -0.13,-0.04 -0.19,-0.07l-3.03,-1.75c-0.05,-0.03 -0.1,-0.07 -0.15,-0.12c-0.05,-0.05 -0.09,-0.1 -0.12,-0.16c-0.03,-0.05 -0.06,-0.11 -0.07,-0.18c-0.02,-0.06 -0.03,-0.12 -0.03,-0.19v-3.5c0,-0.07 0.01,-0.13 0.03,-0.19c0.01,-0.07 0.04,-0.13 0.07,-0.18c0.03,-0.06 0.07,-0.11 0.12,-0.16c0.05,-0.05 0.1,-0.09 0.15,-0.12l3.03,-1.75c0.06,-0.03 0.12,-0.06 0.19,-0.07c0.06,-0.02 0.12,-0.03 0.19,-0.03c0.07,0 0.13,0.01 0.19,0.03c0.07,0.01 0.13,0.04 0.19,0.07zM1.5,2.93v2.64l2.28,1.31l2.28,-1.31v-2.64l-2.28,-1.31z"></path><path id="圆形 2" fill-rule="evenodd" style="fill:#131926" opacity="1" d="M3.77979 3.25C3.22979 3.25 2.77979 3.7 2.77979 4.25C2.77979 4.8 3.22979 5.25 3.77979 5.25C4.32979 5.25 4.77979 4.8 4.77979 4.25C4.77979 3.7 4.32979 3.25 3.77979 3.25Z"></path></g><path id="矩形 2 (轮廓)" fill-rule="evenodd" style="fill:#131926" opacity="1" d="M18.25 14.5C18.25 14.55 18.25 14.6 18.26 14.65C18.27 14.69 18.29 14.74 18.31 14.79C18.33 14.83 18.35 14.88 18.38 14.92C18.4 14.96 18.43 15 18.47 15.03C18.5 15.07 18.54 15.1 18.58 15.12C18.62 15.15 18.67 15.17 18.71 15.19C18.76 15.21 18.81 15.23 18.85 15.24C18.9 15.25 18.95 15.25 19 15.25C19.05 15.25 19.1 15.25 19.15 15.24C19.19 15.23 19.24 15.21 19.29 15.19C19.33 15.17 19.38 15.15 19.42 15.12C19.46 15.1 19.5 15.07 19.53 15.03C19.57 15 19.6 14.96 19.62 14.92C19.65 14.88 19.67 14.83 19.69 14.79C19.71 14.74 19.73 14.69 19.74 14.65C19.75 14.6 19.75 14.55 19.75 14.5L19.75 10C19.75 9.95 19.75 9.9 19.74 9.85C19.73 9.81 19.71 9.76 19.69 9.71C19.67 9.67 19.65 9.62 19.62 9.58C19.6 9.54 19.57 9.5 19.53 9.47C19.5 9.43 19.46 9.4 19.42 9.38C19.38 9.35 19.33 9.33 19.29 9.31C19.24 9.29 19.19 9.27 19.15 9.26C19.1 9.25 19.05 9.25 19 9.25L7 9.25C6.95 9.25 6.9 9.25 6.85 9.26C6.81 9.27 6.76 9.29 6.71 9.31C6.67 9.33 6.62 9.35 6.58 9.38C6.54 9.4 6.5 9.43 6.47 9.47C6.43 9.5 6.4 9.54 6.38 9.58C6.35 9.62 6.33 9.67 6.31 9.71C6.29 9.76 6.27 9.81 6.26 9.85C6.25 9.9 6.25 9.95 6.25 10L6.25 23C6.25 23.05 6.25 23.1 6.26 23.15C6.27 23.19 6.29 23.24 6.31 23.29C6.33 23.33 6.35 23.38 6.38 23.42C6.4 23.46 6.43 23.5 6.47 23.53C6.5 23.57 6.54 23.6 6.58 23.62C6.62 23.65 6.67 23.67 6.71 23.69C6.76 23.71 6.81 23.73 6.85 23.74C6.9 23.75 6.95 23.75 7 23.75L14.5 23.75C14.55 23.75 14.6 23.75 14.65 23.74C14.69 23.73 14.74 23.71 14.79 23.69C14.83 23.67 14.88 23.65 14.92 23.62C14.96 23.6 15 23.57 15.03 23.53C15.07 23.5 15.1 23.46 15.12 23.42C15.15 23.38 15.17 23.33 15.19 23.29C15.21 23.24 15.23 23.19 15.24 23.15C15.25 23.1 15.25 23.05 15.25 23C15.25 22.95 15.25 22.9 15.24 22.85C15.23 22.81 15.21 22.76 15.19 22.71C15.17 22.67 15.15 22.62 15.12 22.58C15.1 22.54 15.07 22.5 15.03 22.47C15 22.43 14.96 22.4 14.92 22.38C14.88 22.35 14.83 22.33 14.79 22.31C14.74 22.29 14.69 22.27 14.65 22.26C14.6 22.25 14.55 22.25 14.5 22.25L13 22.25L7.75 22.25L7.75 10.75L18.25 10.75L18.25 14.5Z"></path><path id="矩形 2 (轮廓)" fill-rule="evenodd" style="fill:#131926" opacity="1" d="M9 6.25C8.95 6.25 8.9 6.25 8.85 6.26C8.81 6.27 8.76 6.29 8.71 6.31C8.67 6.33 8.62 6.35 8.58 6.38C8.54 6.4 8.5 6.43 8.47 6.47C8.43 6.5 8.4 6.54 8.38 6.58C8.35 6.62 8.33 6.67 8.31 6.71C8.29 6.76 8.27 6.81 8.26 6.85C8.25 6.9 8.25 6.95 8.25 7C8.25 7.05 8.25 7.1 8.26 7.15C8.27 7.19 8.29 7.24 8.31 7.29C8.33 7.33 8.35 7.38 8.38 7.42C8.4 7.46 8.43 7.5 8.47 7.53C8.5 7.57 8.54 7.6 8.58 7.62C8.62 7.65 8.67 7.67 8.71 7.69C8.76 7.71 8.81 7.73 8.85 7.74C8.9 7.75 8.95 7.75 9 7.75L21.25 7.75L21.25 15.5C21.25 15.55 21.25 15.6 21.26 15.65C21.27 15.69 21.29 15.74 21.31 15.79C21.33 15.83 21.35 15.88 21.38 15.92C21.4 15.96 21.43 16 21.47 16.03C21.5 16.07 21.54 16.1 21.58 16.12C21.62 16.15 21.67 16.17 21.71 16.19C21.76 16.21 21.81 16.23 21.85 16.24C21.9 16.25 21.95 16.25 22 16.25C22.05 16.25 22.1 16.25 22.15 16.24C22.19 16.23 22.24 16.21 22.29 16.19C22.33 16.17 22.38 16.15 22.42 16.12C22.46 16.1 22.5 16.07 22.53 16.03C22.57 16 22.6 15.96 22.62 15.92C22.65 15.88 22.67 15.83 22.69 15.79C22.71 15.74 22.73 15.69 22.74 15.65C22.75 15.6 22.75 15.55 22.75 15.5L22.75 7C22.75 6.95 22.75 6.9 22.74 6.85C22.73 6.81 22.71 6.76 22.69 6.71C22.67 6.67 22.65 6.62 22.62 6.58C22.6 6.54 22.57 6.5 22.53 6.47C22.5 6.43 22.46 6.4 22.42 6.38C22.38 6.35 22.33 6.33 22.29 6.31C22.24 6.29 22.19 6.27 22.15 6.26C22.1 6.25 22.05 6.25 22 6.25L9 6.25Z"></path><path id="直线 1 (轮廓)" fill-rule="evenodd" style="fill:#131926" opacity="1" d="M10.0303 14.9697C9.99498 14.9343 9.95962 14.899 9.91719 14.8707C9.88184 14.8495 9.83234 14.8282 9.78284 14.807C9.74042 14.7929 9.69092 14.7717 9.64142 14.7646C9.599 14.7505 9.5495 14.7434 9.5 14.7505C9.4505 14.7434 9.401 14.7505 9.35858 14.7646C9.30908 14.7717 9.25958 14.7929 9.21716 14.807C9.16766 14.8282 9.11816 14.8495 9.08281 14.8707C9.04038 14.899 9.00502 14.9343 8.96967 14.9697C8.93431 15.005 8.89896 15.0404 8.87068 15.0828C8.84946 15.1182 8.82825 15.1677 8.80704 15.2171C8.79289 15.2596 8.77168 15.3091 8.76461 15.3586C8.75047 15.401 8.7434 15.4505 8.75047 15.5C8.7434 15.5495 8.75047 15.599 8.76461 15.6414C8.77168 15.6909 8.79289 15.7404 8.80704 15.7828C8.82825 15.8323 8.84946 15.8818 8.87068 15.9172C8.89896 15.9596 8.93431 15.995 8.96967 16.0303L11.4728 18.5335C11.5011 18.5618 11.5365 18.5971 11.5789 18.6254C11.6213 18.6537 11.6708 18.6749 11.7132 18.689C11.7627 18.7103 11.8052 18.7244 11.8547 18.7315C11.8971 18.7456 11.9466 18.7527 12.0032 18.7527C12.0456 18.7527 12.0951 18.7456 12.1446 18.7385C12.1941 18.7315 12.2436 18.7103 12.286 18.6961C12.3355 18.6749 12.3779 18.6466 12.4133 18.6254C12.4557 18.5971 12.4981 18.5688 12.5335 18.5335C12.5688 18.4981 12.5971 18.4557 12.6254 18.4133C12.6466 18.3779 12.6749 18.3355 12.6961 18.286C12.7103 18.2436 12.7315 18.1941 12.7385 18.1446C12.7456 18.0951 12.7527 18.0456 12.7527 18.0031C12.7527 17.9466 12.7456 17.8971 12.7315 17.8547C12.7244 17.8052 12.7103 17.7627 12.6891 17.7132C12.6749 17.6708 12.6537 17.6213 12.6254 17.5789C12.5971 17.5365 12.5618 17.5011 12.5335 17.4728L10.0303 14.9697Z"></path><path id="直线 2 (轮廓)" fill-rule="evenodd" style="fill:#131926" opacity="1" d="M11.4698 17.4697C11.4344 17.505 11.3991 17.5404 11.3708 17.5828C11.3496 17.6182 11.3284 17.6677 11.3071 17.7172C11.293 17.7596 11.2718 17.8091 11.2647 17.8586C11.2506 17.901 11.2435 17.9505 11.2506 18C11.2435 18.0495 11.2506 18.099 11.2647 18.1414C11.2718 18.1909 11.293 18.2404 11.3071 18.2828C11.3284 18.3323 11.3496 18.3818 11.3708 18.4172C11.3991 18.4596 11.4344 18.495 11.4698 18.5303C11.5051 18.5657 11.5405 18.601 11.5829 18.6293C11.6183 18.6505 11.6678 18.6718 11.7173 18.693C11.7597 18.7071 11.8092 18.7283 11.8587 18.7354C11.9011 18.7495 11.9506 18.7566 12.0001 18.7495C12.0496 18.7566 12.0991 18.7495 12.1415 18.7354C12.191 18.7283 12.2405 18.7071 12.283 18.693C12.3325 18.6718 12.382 18.6505 12.4173 18.6293C12.4597 18.601 12.4951 18.5657 12.5304 18.5303L17.0276 14.0331C17.063 13.9978 17.0984 13.9624 17.1266 13.92C17.1549 13.8776 17.1761 13.8281 17.1903 13.7856C17.2115 13.7361 17.2256 13.6937 17.2327 13.6442C17.2468 13.6018 17.2539 13.5523 17.2468 13.5028C17.2539 13.4533 17.2468 13.4038 17.2398 13.3543C17.2256 13.3119 17.2115 13.2553 17.1973 13.2129C17.1761 13.1634 17.1479 13.121 17.1266 13.0856C17.0984 13.0432 17.063 13.0078 17.0276 12.9725C16.9923 12.9371 16.9569 12.9018 16.9145 12.8735C16.8792 12.8523 16.8367 12.824 16.7872 12.8028C16.7448 12.7886 16.6882 12.7745 16.6458 12.7603C16.5963 12.7533 16.5468 12.7462 16.4973 12.7533C16.4478 12.7462 16.3983 12.7533 16.3559 12.7674C16.3064 12.7745 16.264 12.7886 16.2145 12.8098C16.172 12.824 16.1225 12.8452 16.0801 12.8735C16.0377 12.9018 16.0023 12.9371 15.967 12.9725L11.4698 17.4697Z"></path></g></g><defs><rect id="path_0" x="0" y="0" width="30" height="30" /></defs></svg>