<svg xmlns="http://www.w3.org/2000/svg" xmlns:xlink="http://www.w3.org/1999/xlink" width="24" height="24"
  viewBox="0 0 24 24" fill="none">
  <path
    d="M12 13.75C14.8995 13.75 17.25 11.3995 17.25 8.5C17.25 5.60051 14.8995 3.25 12 3.25C9.10051 3.25 6.75 5.60051 6.75 8.5C6.75 11.3995 9.10051 13.75 12 13.75ZM12 4.75C14.0711 4.75 15.75 6.42893 15.75 8.5C15.75 10.5711 14.0711 12.25 12 12.25C9.92893 12.25 8.25 10.5711 8.25 8.5C8.25 6.42893 9.92893 4.75 12 4.75Z"
    fill-rule="evenodd" fill="#44C795">
  </path>
  <path
    d="M21.5303 15.5303L16.5303 20.5303C16.3946 20.666 16.2071 20.75 16 20.75C15.5858 20.75 15.25 20.4142 15.25 20C15.25 19.7929 15.3339 19.6054 15.4697 19.4697L20.4697 14.4697C20.6054 14.3339 20.7929 14.25 21 14.25C21.4142 14.25 21.75 14.5858 21.75 15C21.75 15.2071 21.666 15.3946 21.5303 15.5303Z"
    fill-rule="evenodd" fill="#44C795">
  </path>
  <path
    d="M13.5305 16.4698L16.5303 19.4697C16.666 19.6054 16.75 19.7929 16.75 20C16.75 20.4142 16.4142 20.75 16 20.75C15.7929 20.75 15.6054 20.666 15.4697 20.5303L12.4698 17.5305L12.4697 17.5303C12.3339 17.3946 12.25 17.2071 12.25 17C12.25 16.5858 12.5858 16.25 13 16.25C13.2071 16.25 13.3946 16.3339 13.5303 16.4697L13.5305 16.4698Z"
    fill-rule="evenodd" fill="#44C795">
  </path>
  <path
    d="M12 12.25C7.71979 12.25 4.25 15.7198 4.25 20C4.25 20.4142 4.58579 20.75 5 20.75C5.41421 20.75 5.75 20.4142 5.75 20C5.75 16.5482 8.54822 13.75 12 13.75C12.8481 13.75 13.659 13.9136 14.4327 14.2408C15.1803 14.5569 15.8425 15.0032 16.4192 15.5799L16.4197 15.5803C16.5554 15.7161 16.7429 15.8 16.95 15.8C17.3642 15.8 17.7 15.4642 17.7 15.05C17.7 14.8429 17.6161 14.6554 17.4803 14.5197L17.4799 14.5192C16.7652 13.8046 15.9442 13.2513 15.0169 12.8592C14.0565 12.4531 13.0509 12.25 12 12.25Z"
    fill-rule="evenodd" fill="#44C795">
  </path>
</svg>