<svg xmlns="http://www.w3.org/2000/svg" xmlns:xlink="http://www.w3.org/1999/xlink" width="234" height="120" viewBox="0 0 234 120" fill="none"><path     fill="#DFE1ED" fill-opacity="0.4" d="M69.5 -2.01454e-14L232 -2.01454e-14C233.105 -2.01454e-14 234 0.895431 234 2L234 118C234 119.105 233.105 120 232 120L69.5 120C68.3954 120 67.5 119.105 67.5 118L67.5 2C67.5 0.895431 68.3954 -2.02807e-14 69.5 -2.01454e-14Z"></path><path d="M3 0L60 0C61.6569 0 63 1.34315 63 3L63 117C63 118.657 61.6569 120 60 120L3 120C1.34315 120 0 118.657 0 117L0 3C0 1.34315 1.34315 0 3 0ZM3 1.5C2.17158 1.5 1.5 2.17158 1.5 3L1.5 117C1.5 117.828 2.17158 118.5 3 118.5L60 118.5C60.8284 118.5 61.5 117.828 61.5 117L61.5 3C61.5 2.17158 60.8284 1.5 60 1.5L3 1.5Z" fill-rule="evenodd"  fill="#656A85" ></path><path d="M3 19.5L46.5 19.5L46.5 25.5L3 25.5L3 19.5Z"   fill="#DFE1ED" ></path><path d="M54.0001 28.5001C57.3138 28.5001 60.0001 25.8138 60.0001 22.5001C60.0001 19.1863 57.3138 16.5 54.0001 16.5C50.6863 16.5 48 19.1863 48 22.5001C48 25.8138 50.6863 28.5001 54.0001 28.5001ZM54.0001 17.4231C56.804 17.4231 59.077 19.6961 59.077 22.5001C59.077 25.304 56.804 27.577 54.0001 27.577C51.1961 27.577 48.9231 25.304 48.9231 22.5001C48.9231 19.6961 51.1961 17.4231 54.0001 17.4231Z" fill-rule="evenodd"  fill="#656A85" ></path><path d="M49.8477 22.5001C49.8477 22.755 50.0543 22.9617 50.3092 22.9617L57.7195 22.9617C57.9744 22.9617 58.181 22.755 58.181 22.5001C58.181 22.2452 57.9744 22.0386 57.7195 22.0386L50.3092 22.0386C50.0543 22.0386 49.8477 22.2452 49.8477 22.5001Z" fill-rule="evenodd"  fill="#656A85" ></path><path d="M54.0013 18.3467C53.7464 18.3467 53.5398 18.5533 53.5398 18.8082L53.5398 26.2185C53.5398 26.4734 53.7464 26.6801 54.0013 26.6801C54.2563 26.6801 54.4629 26.4734 54.4629 26.2185L54.4629 18.8082C54.4629 18.5533 54.2563 18.3467 54.0013 18.3467Z" fill-rule="evenodd"  fill="#656A85" ></path><g opacity="0.7"><path   fill-rule="evenodd"  fill="#495AD4"  d="M75.2085 13.097C74.6947 13.0686 74.1797 13.053 73.6635 13.0503L73.6589 13.9503C74.1601 13.9529 74.66 13.968 75.1587 13.9956L75.2085 13.097ZM72.1148 13.0809C71.6035 13.1038 71.0937 13.1394 70.5855 13.1876L70.6707 14.0836C71.1639 14.0367 71.6587 14.0022 72.1551 13.98L72.1148 13.0809ZM78.2364 13.416C77.7374 13.3381 77.2364 13.2726 76.7334 13.2195L76.6389 14.1145C77.1271 14.166 77.6133 14.2296 78.0975 14.3052L78.2364 13.416ZM69.0779 13.3688C68.5807 13.4412 68.0859 13.5258 67.5935 13.6226L67.7672 14.5057C68.2449 14.4117 68.725 14.3296 69.2075 14.2594L69.0779 13.3688ZM81.2154 14.0358C80.7194 13.9062 80.2203 13.7894 79.718 13.6852L79.5351 14.5664C80.0225 14.6675 80.5068 14.7809 80.988 14.9066L81.2154 14.0358ZM66.0972 13.9563C65.6022 14.08 65.1107 14.216 64.6227 14.3646L64.8848 15.2256C65.3582 15.0815 65.835 14.9495 66.3153 14.8295L66.0972 13.9563ZM84.1203 14.953C83.6455 14.7763 83.1666 14.6116 82.6836 14.4591L82.4124 15.3173C82.881 15.4653 83.3457 15.625 83.8064 15.7965L84.1203 14.953ZM63.1793 14.8439C62.7046 15.0149 62.2344 15.1976 61.7688 15.3922L62.1158 16.2227C62.5676 16.0339 63.0237 15.8565 63.4842 15.6906L63.1793 14.8439ZM86.93 16.1636C86.468 15.9362 86.0006 15.7208 85.5279 15.5174L85.1721 16.3441C85.6307 16.5415 86.0842 16.7505 86.5325 16.9711L86.93 16.1636ZM60.3618 16.0227C59.8991 16.2444 59.4422 16.4777 58.991 16.7227L59.4204 17.5136C59.8582 17.2759 60.3016 17.0495 60.7506 16.8344L60.3618 16.0227ZM89.6133 17.6574C89.1794 17.3863 88.7391 17.1264 88.2924 16.8777L87.8546 17.664C88.2881 17.9054 88.7154 18.1576 89.1365 18.4207L89.6133 17.6574ZM57.6611 17.4889C57.2255 17.7547 56.7967 18.0314 56.3747 18.319L56.8815 19.0627C57.291 18.7836 57.7072 18.5151 58.1299 18.2571L57.6611 17.4889ZM92.1216 19.4051C91.7186 19.0933 91.3082 18.7918 90.8904 18.5006L90.3759 19.239C90.7813 19.5216 91.1796 19.8142 91.5707 20.1169L92.1216 19.4051ZM55.1337 19.2108C54.7282 19.518 54.3304 19.8352 53.9405 20.1623L54.519 20.8518C54.8974 20.5343 55.2835 20.2264 55.6771 19.9283L55.1337 19.2108ZM94.4373 21.3894C94.0682 21.0398 93.6906 20.6996 93.3045 20.3688L92.7189 21.0522C93.0936 21.3733 93.4601 21.7035 93.8183 22.0429L94.4373 21.3894ZM52.7971 21.1712C52.4245 21.5169 52.0607 21.8716 51.7057 22.2354L52.3498 22.8639C52.6944 22.5108 53.0475 22.1665 53.4092 21.831L52.7971 21.1712ZM96.5432 23.593C96.2107 23.2085 95.8688 22.8325 95.5175 22.4649L94.8668 23.0867C95.2078 23.4435 95.5396 23.8085 95.8623 24.1817L96.5432 23.593ZM50.6685 23.3527C50.3317 23.734 50.0048 24.1234 49.6876 24.5209L50.391 25.0822C50.6989 24.6965 51.0162 24.3185 51.3431 23.9484L50.6685 23.3527ZM98.4218 25.9985C98.1289 25.5821 97.8256 25.1731 97.512 24.7716L96.8027 25.3256C97.1071 25.7153 97.4014 26.1122 97.6857 26.5164L98.4218 25.9985ZM48.7652 25.7379C48.4673 26.152 48.18 26.5732 47.9034 27.0015L48.6594 27.4897C48.9279 27.0741 49.2067 26.6653 49.4958 26.2634L48.7652 25.7379ZM100.056 28.5887C99.8054 28.1433 99.5436 27.7042 99.2706 27.2716L98.5095 27.7519C98.7744 28.1718 99.0285 28.5979 99.2717 29.0301L100.056 28.5887ZM47.1045 28.3095C46.8484 28.7536 46.6038 29.2037 46.3706 29.6598L47.172 30.0695C47.3983 29.6269 47.6356 29.1901 47.8842 28.7591L47.1045 28.3095ZM101.428 31.3461C101.223 30.8746 101.005 30.4085 100.776 29.9477L99.9704 30.3488C100.193 30.796 100.404 31.2483 100.603 31.7057L101.428 31.3461ZM45.7039 31.0503C45.4957 31.5147 45.2992 31.9839 45.1147 32.4579L45.9534 32.7845C46.1324 32.3245 46.323 31.8692 46.5251 31.4186L45.7039 31.0503ZM102.5 34.1877C102.346 33.7056 102.179 33.2277 102 32.7539L101.158 33.0716C101.332 33.5313 101.493 33.995 101.643 34.4627L102.5 34.1877ZM44.6001 33.8849C44.4396 34.3675 44.2914 34.8538 44.1555 35.3439L45.0228 35.5844C45.1546 35.1089 45.2984 34.6371 45.4541 34.169L44.6001 33.8849ZM103.287 37.148C103.181 36.6465 103.062 36.1482 102.93 35.6531L102.06 35.8844C102.188 36.3648 102.304 36.8483 102.407 37.3349L103.287 37.148ZM43.783 36.8328C43.6728 37.3259 43.5751 37.8217 43.4896 38.3202L44.3767 38.4722C44.4596 37.9886 44.5545 37.5075 44.6613 37.029L43.783 36.8328ZM103.767 40.1324C103.711 39.6299 103.644 39.1295 103.564 38.6313L102.675 38.7741C102.753 39.2576 102.818 39.7432 102.872 40.2308L103.767 40.1324ZM43.2714 39.8163C43.2105 40.3207 43.1623 40.8269 43.1266 41.3349L44.0244 41.3979C44.059 40.9049 44.1058 40.4136 44.1649 39.924L43.2714 39.8163ZM103.949 43.1987C103.944 42.6831 103.926 42.1686 103.896 41.6553L102.997 41.709C103.027 42.2072 103.045 42.7067 103.049 43.2074L103.949 43.1987ZM43.0508 43.4999C43.0508 43.8089 43.0554 44.1174 43.0646 44.4255L43.9642 44.3987C43.9552 44.0995 43.9508 43.7999 43.9508 43.4999C43.9508 43.2972 43.9528 43.0946 43.9569 42.8922L43.0571 42.8741C43.0529 43.0825 43.0508 43.2911 43.0508 43.4999ZM103.912 45.0468C103.938 44.5323 103.951 44.0167 103.951 43.4999L103.051 43.4999C103.051 44.0016 103.038 44.5022 103.013 45.0018L103.912 45.0468ZM43.1488 45.9608C43.1893 46.4675 43.2424 46.9723 43.308 47.4752L44.2004 47.3588C44.1368 46.8708 44.0853 46.3809 44.0459 45.8891L43.1488 45.9608ZM103.609 48.0792C103.684 47.5794 103.747 47.0777 103.797 46.574L102.902 46.4841C102.853 46.973 102.792 47.46 102.719 47.945L103.609 48.0792ZM43.5403 48.9668C43.6309 49.4666 43.7339 49.9636 43.8495 50.4578L44.7258 50.2529C44.6138 49.7734 44.5137 49.2911 44.4258 48.8061L43.5403 48.9668ZM103.005 51.0591C103.132 50.5628 103.246 50.0635 103.347 49.5611L102.465 49.3829C102.367 49.8703 102.256 50.3548 102.133 50.8364L103.005 51.0591ZM44.2361 51.941C44.3767 52.4292 44.5294 52.9135 44.6944 53.3939L45.5456 53.1017C45.3855 52.6355 45.2373 52.1656 45.101 51.692L44.2361 51.941ZM102.103 53.9706C102.277 53.4945 102.439 53.0145 102.589 52.5305L101.73 52.2639C101.584 52.7335 101.427 53.1993 101.258 53.6612L102.103 53.9706ZM45.2224 54.8145C45.4123 55.2886 45.6141 55.7578 45.8278 56.222L46.6453 55.8455C46.4379 55.3952 46.2421 54.94 46.0579 54.4799L45.2224 54.8145ZM100.908 56.7842C101.133 56.3208 101.346 55.8521 101.547 55.3781L100.718 55.0268C100.523 55.4867 100.317 55.9414 100.098 56.391L100.908 56.7842ZM46.5077 57.6048C46.7452 58.0584 46.9941 58.5059 47.2543 58.9472L48.0295 58.4898C47.777 58.0616 47.5355 57.6275 47.305 57.1874L46.5077 57.6048ZM99.4278 59.4762C99.6967 59.0407 99.9544 58.5989 100.201 58.1508L99.4122 57.7172C99.1731 58.152 98.9231 58.5807 98.6621 59.0034L99.4278 59.4762ZM48.0656 60.2467C48.3463 60.6721 48.6375 61.0904 48.9393 61.5014L49.6647 60.9688C49.3719 60.5699 49.0892 60.1639 48.8168 59.751L48.0656 60.2467ZM97.6929 61.9939C98.0027 61.5894 98.3021 61.1773 98.5911 60.7579L97.8501 60.2473C97.5696 60.6544 97.279 61.0542 96.9783 61.4469L97.6929 61.9939ZM49.8732 62.7091C50.1942 63.1035 50.5248 63.4897 50.8651 63.8676L51.534 63.2654C51.2037 62.8985 50.8828 62.5238 50.5712 62.1409L49.8732 62.7091ZM95.7206 64.3201C96.0684 63.9492 96.4066 63.5699 96.7353 63.1821L96.0489 62.6001C95.7298 62.9764 95.4015 63.3446 95.064 63.7047L95.7206 64.3201ZM51.913 64.9747C52.2715 65.3351 52.6387 65.6862 53.0147 66.0284L53.6204 65.3626C53.2554 65.0306 52.899 64.6898 52.5511 64.3401L51.913 64.9747ZM93.528 66.4375C93.9108 66.1031 94.2851 65.7592 94.6508 65.406L94.0256 64.7586C93.6707 65.1014 93.3074 65.4352 92.9358 65.7598L93.528 66.4375ZM54.1679 67.0263C54.5611 67.3498 54.9619 67.6632 55.3706 67.9665L55.907 67.2438C55.5103 66.9494 55.1213 66.6452 54.7397 66.3313L54.1679 67.0263ZM91.1327 68.3286C91.5476 68.0334 91.9549 67.728 92.3547 67.4124L91.797 66.706C91.409 67.0123 91.0137 67.3087 90.611 67.5951L91.1327 68.3286ZM56.6205 68.8465C57.0454 69.1301 57.4771 69.4026 57.9155 69.6644L58.3768 68.8915C57.9514 68.6376 57.5324 68.3731 57.1201 68.0979L56.6205 68.8465ZM88.5518 69.976C88.9959 69.7231 89.4334 69.4589 89.8643 69.1837L89.3801 68.4252C88.9619 68.6922 88.5373 68.9484 88.1063 69.1939L88.5518 69.976ZM59.2535 70.4179C59.7074 70.6586 60.1669 70.8876 60.6321 71.1048L61.013 70.2894C60.5616 70.0786 60.1156 69.8564 59.6751 69.6228L59.2535 70.4179ZM85.8026 71.3625C86.273 71.1545 86.7378 70.9346 87.1971 70.7029L86.7918 69.8994C86.346 70.1243 85.895 70.3376 85.4387 70.5393L85.8026 71.3625ZM62.0394 71.719C62.5074 71.9093 62.9798 72.0877 63.4565 72.2542L63.7533 71.4045C63.2907 71.243 62.8324 71.0699 62.3784 70.8853L62.0394 71.719ZM82.9646 72.4504C83.4457 72.2932 83.9225 72.1241 84.395 71.943L84.0729 71.1025C83.6144 71.2782 83.1518 71.4424 82.685 71.5948L82.9646 72.4504ZM64.9061 72.7198C65.3961 72.8637 65.8895 72.9952 66.3863 73.1142L66.5958 72.2388C66.1138 72.1234 65.6351 71.9959 65.1597 71.8563L64.9061 72.7198ZM80.0103 73.2523C80.5108 73.1433 81.0082 73.0217 81.5024 72.8875L81.2664 72.019C80.787 72.1492 80.3045 72.2672 79.8189 72.373L80.0103 73.2523ZM67.8792 73.4319C68.3732 73.5241 68.8696 73.604 69.3683 73.6717L69.4893 72.7798C69.0054 72.7142 68.5238 72.6367 68.0444 72.5472L67.8792 73.4319ZM77.0264 73.7479C77.5281 73.69 78.0276 73.6198 78.525 73.5372L78.3776 72.6493C77.8949 72.7295 77.4101 72.7977 76.9233 72.8538L77.0264 73.7479ZM70.8803 73.8387C71.3899 73.8821 71.901 73.9128 72.4136 73.9308L72.4451 73.0314C71.9475 73.0139 71.4514 72.984 70.9568 72.9418L70.8803 73.8387ZM73.9644 73.9464C74.4795 73.9387 74.9933 73.9182 75.5057 73.8849L75.4472 72.9868C74.9497 73.0191 74.4509 73.039 73.9509 73.0465L73.9644 73.9464Z"></path></g><path d="M100.501 43.4999C100.501 58.4116 88.4121 70.4998 73.5003 70.4998C58.5884 70.4998 46.5 58.4116 46.5 43.4999C46.5 28.5883 58.5884 16.5 73.5003 16.5C88.4121 16.5 100.501 28.5883 100.501 43.4999Z"   fill="#FFFFFF" ></path><path d="M101.1 43.5003C101.1 58.7433 88.7428 71.1002 73.4997 71.1002C58.2565 71.1002 45.8994 58.7433 45.8994 43.5003C45.8994 28.2573 58.2565 15.9004 73.4997 15.9004C88.7428 15.9004 101.1 28.2573 101.1 43.5003ZM100.5 43.5003C100.5 58.4119 88.4115 70.5002 73.4997 70.5002C58.5878 70.5002 46.4994 58.4119 46.4994 43.5003C46.4994 28.5887 58.5878 16.5004 73.4997 16.5004C88.4115 16.5004 100.5 28.5887 100.5 43.5003Z" fill-rule="evenodd"  fill="#495AD4" ></path><path d="M47.5552 51.0009C46.8681 48.6197 46.4999 46.1032 46.4999 43.5008C46.4999 40.8984 46.868 38.3821 47.5551 36.001L57.0041 36.001L57.0041 51.0009L47.5552 51.0009Z" fill-rule="evenodd"  fill="#DFE1ED" ></path><path d="M77.9981 58.5C86.2824 58.5 92.9981 51.7843 92.9981 43.5C92.9981 35.2157 86.2824 28.5 77.9981 28.5C69.7138 28.5 62.998 35.2157 62.998 43.5C62.998 51.7843 69.7138 58.5 77.9981 58.5ZM77.9981 30.8077C85.0078 30.8077 90.6904 36.4902 90.6904 43.5C90.6904 50.5097 85.0078 56.1923 77.9981 56.1923C70.9883 56.1923 65.3057 50.5097 65.3057 43.5C65.3057 36.4902 70.9883 30.8077 77.9981 30.8077Z" fill-rule="evenodd"  fill="#656A85" ></path><path d="M67.6172 43.4986C67.6172 44.1358 68.1338 44.6524 68.771 44.6524L87.2966 44.6524C87.9338 44.6524 88.4504 44.1358 88.4504 43.4986C88.4504 42.8613 87.9338 42.3447 87.2966 42.3447L68.771 42.3447C68.1338 42.3447 67.6172 42.8613 67.6172 43.4986Z" fill-rule="evenodd"  fill="#656A85" ></path><path d="M78.0044 33.1182C77.3671 33.1182 76.8505 33.6348 76.8505 34.272L76.8505 52.7976C76.8505 53.4348 77.3671 53.9514 78.0044 53.9514C78.6416 53.9514 79.1582 53.4348 79.1582 52.7976L79.1582 34.272C79.1582 33.6348 78.6416 33.1182 78.0044 33.1182Z" fill-rule="evenodd"  fill="#656A85" ></path></svg>