<svg xmlns="http://www.w3.org/2000/svg" xmlns:xlink="http://www.w3.org/1999/xlink" width="234" height="120" viewBox="0 0 234 120" fill="none"><path     fill="#DFE1ED" fill-opacity="0.4" d="M69.5 -2.01454e-14L232 -2.01454e-14C233.105 -2.01454e-14 234 0.895431 234 2L234 118C234 119.105 233.105 120 232 120L69.5 120C68.3954 120 67.5 119.105 67.5 118L67.5 2C67.5 0.895431 68.3954 -2.02807e-14 69.5 -2.01454e-14Z"></path><path     fill="#FFFFFF"  d="M70 1.5L231.5 1.5C232.052 1.5 232.5 1.94772 232.5 2.5L232.5 33.5C232.5 34.0523 232.052 34.5 231.5 34.5L70 34.5C69.4477 34.5 69 34.0523 69 33.5L69 2.5C69 1.94772 69.4477 1.5 70 1.5Z"></path><path d="M75.4508 29.55L75.4508 5.25L74.5508 5.25L74.5508 30.45L225.751 30.45L225.751 29.55L75.4508 29.55Z" fill-rule="evenodd"  fill="#656A85" ></path><path d="M3 0L60 0C61.6569 0 63 1.34315 63 3L63 117C63 118.657 61.6569 120 60 120L3 120C1.34315 120 0 118.657 0 117L0 3C0 1.34315 1.34315 0 3 0ZM3 1.5C2.17158 1.5 1.5 2.17158 1.5 3L1.5 117C1.5 117.828 2.17158 118.5 3 118.5L60 118.5C60.8284 118.5 61.5 117.828 61.5 117L61.5 3C61.5 2.17158 60.8284 1.5 60 1.5L3 1.5Z" fill-rule="evenodd"  fill="#656A85" ></path><path d="M3 19.5L46.5 19.5L46.5 25.5L3 25.5L3 19.5Z"   fill="#DFE1ED" ></path><path d="M3 28.5L46.5 28.5L46.5 34.5L3 34.5L3 28.5Z"   fill="#9EA7E8" ></path><path d="M3 36L46.5 36L46.5 42L3 42L3 36Z"   fill="#9EA7E8" ></path><path d="M54.0001 28.5001C57.3138 28.5001 60.0001 25.8138 60.0001 22.5001C60.0001 19.1863 57.3138 16.5 54.0001 16.5C50.6863 16.5 48 19.1863 48 22.5001C48 25.8138 50.6863 28.5001 54.0001 28.5001ZM54.0001 17.4231C56.804 17.4231 59.077 19.6961 59.077 22.5001C59.077 25.304 56.804 27.577 54.0001 27.577C51.1961 27.577 48.9231 25.304 48.9231 22.5001C48.9231 19.6961 51.1961 17.4231 54.0001 17.4231Z" fill-rule="evenodd"  fill="#656A85" ></path><path d="M49.8477 22.5001C49.8477 22.755 50.0543 22.9617 50.3092 22.9617L57.7195 22.9617C57.9744 22.9617 58.181 22.755 58.181 22.5001C58.181 22.2452 57.9744 22.0386 57.7195 22.0386L50.3092 22.0386C50.0543 22.0386 49.8477 22.2452 49.8477 22.5001Z" fill-rule="evenodd"  fill="#656A85" ></path><path d="M54.0013 18.3467C53.7464 18.3467 53.5398 18.5533 53.5398 18.8082L53.5398 26.2185C53.5398 26.4734 53.7464 26.6801 54.0013 26.6801C54.2563 26.6801 54.4629 26.4734 54.4629 26.2185L54.4629 18.8082C54.4629 18.5533 54.2563 18.3467 54.0013 18.3467Z" fill-rule="evenodd"  fill="#656A85" ></path><g opacity="0.7"><path   fill-rule="evenodd"  fill="#495AD4"  d="M63.2085 22.097C62.6947 22.0686 62.1797 22.053 61.6635 22.0503L61.6589 22.9503C62.1601 22.9529 62.66 22.968 63.1587 22.9956L63.2085 22.097ZM60.1148 22.0809C59.6035 22.1038 59.0937 22.1394 58.5855 22.1876L58.6707 23.0836C59.1639 23.0367 59.6587 23.0022 60.1551 22.98L60.1148 22.0809ZM66.2364 22.416C65.7374 22.3381 65.2364 22.2726 64.7334 22.2195L64.6389 23.1145C65.1271 23.166 65.6133 23.2296 66.0975 23.3052L66.2364 22.416ZM57.0779 22.3688C56.5807 22.4412 56.0859 22.5258 55.5935 22.6226L55.7672 23.5057C56.2449 23.4117 56.725 23.3296 57.2075 23.2594L57.0779 22.3688ZM69.2154 23.0358C68.7194 22.9062 68.2203 22.7894 67.718 22.6852L67.5351 23.5664C68.0225 23.6675 68.5068 23.7809 68.988 23.9066L69.2154 23.0358ZM54.0972 22.9563C53.6022 23.08 53.1107 23.216 52.6227 23.3646L52.8848 24.2256C53.3582 24.0815 53.835 23.9494 54.3153 23.8295L54.0972 22.9563ZM72.1203 23.953C71.6455 23.7763 71.1666 23.6116 70.6836 23.4591L70.4124 24.3173C70.881 24.4653 71.3457 24.625 71.8064 24.7965L72.1203 23.953ZM51.1793 23.8439C50.7046 24.0149 50.2344 24.1976 49.7688 24.3922L50.1158 25.2227C50.5676 25.0339 51.0237 24.8565 51.4842 24.6906L51.1793 23.8439ZM74.93 25.1636C74.468 24.9362 74.0006 24.7208 73.5279 24.5174L73.1721 25.3441C73.6307 25.5415 74.0842 25.7505 74.5325 25.9711L74.93 25.1636ZM48.3618 25.0227C47.8991 25.2444 47.4422 25.4777 46.991 25.7227L47.4204 26.5136C47.8582 26.2759 48.3016 26.0495 48.7506 25.8344L48.3618 25.0227ZM77.6133 26.6574C77.1794 26.3863 76.7391 26.1264 76.2924 25.8777L75.8546 26.664C76.2881 26.9054 76.7154 27.1576 77.1365 27.4207L77.6133 26.6574ZM45.6611 26.4889C45.2255 26.7547 44.7967 27.0314 44.3747 27.319L44.8815 28.0627C45.291 27.7836 45.7072 27.5151 46.1299 27.2571L45.6611 26.4889ZM80.1216 28.4051C79.7186 28.0933 79.3082 27.7918 78.8904 27.5006L78.3759 28.239C78.7813 28.5216 79.1796 28.8142 79.5707 29.1169L80.1216 28.4051ZM43.1337 28.2108C42.7282 28.518 42.3304 28.8352 41.9405 29.1623L42.519 29.8518C42.8974 29.5343 43.2835 29.2264 43.6771 28.9283L43.1337 28.2108ZM82.4373 30.3894C82.0682 30.0398 81.6906 29.6996 81.3045 29.3688L80.7189 30.0522C81.0936 30.3733 81.4601 30.7035 81.8183 31.0429L82.4373 30.3894ZM40.7971 30.1712C40.4245 30.5169 40.0607 30.8716 39.7057 31.2354L40.3498 31.8639C40.6944 31.5108 41.0475 31.1665 41.4092 30.831L40.7971 30.1712ZM84.5432 32.593C84.2107 32.2085 83.8688 31.8325 83.5175 31.4649L82.8668 32.0867C83.2078 32.4435 83.5396 32.8085 83.8623 33.1817L84.5432 32.593ZM38.6685 32.3527C38.3317 32.734 38.0048 33.1234 37.6876 33.5209L38.391 34.0822C38.6989 33.6965 39.0162 33.3185 39.3431 32.9484L38.6685 32.3527ZM86.4218 34.9985C86.1289 34.5821 85.8256 34.1731 85.512 33.7716L84.8027 34.3256C85.1071 34.7153 85.4014 35.1122 85.6857 35.5164L86.4218 34.9985ZM36.7652 34.7379C36.4673 35.152 36.18 35.5732 35.9034 36.0015L36.6594 36.4897C36.9279 36.0741 37.2067 35.6653 37.4958 35.2634L36.7652 34.7379ZM88.056 37.5887C87.8054 37.1433 87.5436 36.7042 87.2706 36.2716L86.5095 36.7519C86.7744 37.1718 87.0285 37.5979 87.2717 38.0301L88.056 37.5887ZM35.1045 37.3095C34.8484 37.7536 34.6038 38.2037 34.3706 38.6598L35.172 39.0695C35.3983 38.6269 35.6356 38.1901 35.8842 37.7591L35.1045 37.3095ZM89.4284 40.3461C89.2229 39.8746 89.0054 39.4085 88.776 38.9477L87.9704 39.3488C88.193 39.796 88.404 40.2483 88.6034 40.7057L89.4284 40.3461ZM33.7039 40.0503C33.4957 40.5147 33.2992 40.9839 33.1147 41.4579L33.9534 41.7845C34.1324 41.3245 34.323 40.8692 34.5251 40.4186L33.7039 40.0503ZM90.5004 43.1877C90.3457 42.7056 90.179 42.2277 90.0003 41.7539L89.1582 42.0716C89.3316 42.5313 89.4934 42.995 89.6435 43.4627L90.5004 43.1877ZM32.6001 42.8849C32.4396 43.3675 32.2914 43.8538 32.1555 44.3439L33.0228 44.5844C33.1546 44.1089 33.2984 43.6371 33.4541 43.169L32.6001 42.8849ZM91.2872 46.148C91.1808 45.6465 91.0617 45.1482 90.93 44.6531L90.0603 44.8844C90.188 45.3648 90.3035 45.8483 90.4068 46.3349L91.2872 46.148ZM31.783 45.8328C31.6728 46.3259 31.5751 46.8217 31.4896 47.3202L32.3767 47.4722C32.4596 46.9886 32.5545 46.5075 32.6613 46.029L31.783 45.8328ZM91.7666 49.1324C91.7113 48.6299 91.6436 48.1295 91.5636 47.6313L90.675 47.7741C90.7527 48.2576 90.8184 48.7432 90.872 49.2308L91.7666 49.1324ZM31.2714 48.8163C31.2105 49.3207 31.1623 49.8269 31.1266 50.3349L32.0244 50.3979C32.059 49.9049 32.1058 49.4136 32.1649 48.924L31.2714 48.8163ZM91.9493 52.1987C91.9443 51.6831 91.9265 51.1686 91.8959 50.6553L90.9974 50.709C91.0272 51.2072 91.0445 51.7067 91.0494 52.2074L91.9493 52.1987ZM31.0508 52.4999C31.0508 52.8089 31.0554 53.1174 31.0646 53.4255L31.9642 53.3987C31.9552 53.0995 31.9508 52.7999 31.9508 52.4999C31.9508 52.2972 31.9528 52.0946 31.9569 51.8922L31.0571 51.8741C31.0529 52.0825 31.0508 52.2911 31.0508 52.4999ZM91.9122 54.0468C91.9379 53.5323 91.9508 53.0167 91.9508 52.4999L91.0508 52.4999C91.0508 53.0016 91.0383 53.5022 91.0133 54.0018L91.9122 54.0468ZM31.1488 54.9608C31.1893 55.4675 31.2424 55.9723 31.308 56.4752L32.2004 56.3588C32.1368 55.8708 32.0853 55.3809 32.0459 54.8891L31.1488 54.9608ZM91.6086 57.0792C91.684 56.5794 91.747 56.0777 91.7975 55.574L90.902 55.4841C90.853 55.973 90.7919 56.46 90.7187 56.945L91.6086 57.0792ZM31.5403 57.9668C31.6309 58.4666 31.7339 58.9636 31.8495 59.4578L32.7258 59.2529C32.6138 58.7734 32.5137 58.2911 32.4258 57.8061L31.5403 57.9668ZM91.005 60.0591C91.1318 59.5628 91.246 59.0635 91.3475 58.5611L90.4652 58.3829C90.3668 58.8703 90.2561 59.3548 90.1331 59.8364L91.005 60.0591ZM32.2361 60.941C32.3767 61.4292 32.5294 61.9135 32.6944 62.3939L33.5456 62.1017C33.3855 61.6355 33.2373 61.1656 33.101 60.692L32.2361 60.941ZM90.1026 62.9706C90.2769 62.4945 90.4391 62.0145 90.5892 61.5305L89.7296 61.2639C89.584 61.7335 89.4266 62.1993 89.2575 62.6612L90.1026 62.9706ZM33.2224 63.8145C33.4123 64.2886 33.6141 64.7578 33.8278 65.222L34.6453 64.8455C34.4379 64.3952 34.2421 63.94 34.0579 63.4799L33.2224 63.8145ZM88.9079 65.7841C89.1329 65.3208 89.3459 64.8521 89.5469 64.3781L88.7183 64.0267C88.5233 64.4866 88.3166 64.9414 88.0983 65.391L88.9079 65.7841ZM34.5077 66.6048C34.7452 67.0584 34.9941 67.5059 35.2543 67.9472L36.0295 67.4898C35.777 67.0616 35.5355 66.6275 35.305 66.1874L34.5077 66.6048ZM87.4278 68.4762C87.6967 68.0407 87.9544 67.5989 88.2008 67.1508L87.4122 66.7171C87.1731 67.152 86.9231 67.5807 86.6621 68.0034L87.4278 68.4762ZM36.0656 69.2467C36.3463 69.6721 36.6375 70.0903 36.9393 70.5014L37.6647 69.9689C37.3719 69.5699 37.0892 69.1639 36.8168 68.751L36.0656 69.2467ZM85.6929 70.994C86.0027 70.5894 86.3021 70.1774 86.5911 69.7579L85.8501 69.2474C85.5696 69.6544 85.279 70.0542 84.9783 70.4469L85.6929 70.994ZM37.8732 71.7092C38.1942 72.1036 38.5248 72.4897 38.8652 72.8676L39.534 72.2654C39.2037 71.8986 38.8828 71.5238 38.5712 71.141L37.8732 71.7092ZM83.7206 73.3202C84.0684 72.9492 84.4066 72.5699 84.7353 72.1821L84.0489 71.6001C83.7298 71.9764 83.4015 72.3446 83.064 72.7047L83.7206 73.3202ZM39.913 73.9747C40.2715 74.3351 40.6387 74.6862 41.0147 75.0284L41.6204 74.3627C41.2554 74.0307 40.899 73.6898 40.5511 73.3401L39.913 73.9747ZM81.528 75.4375C81.9108 75.1031 82.2851 74.7592 82.6508 74.406L82.0256 73.7586C81.6707 74.1014 81.3074 74.4352 80.9358 74.7599L81.528 75.4375ZM42.1679 76.0263C42.5611 76.3498 42.9619 76.6632 43.3706 76.9665L43.907 76.2438C43.5103 75.9494 43.1213 75.6452 42.7397 75.3314L42.1679 76.0263ZM79.1327 77.3286C79.5476 77.0334 79.9549 76.728 80.3547 76.4124L79.797 75.7061C79.409 76.0124 79.0137 76.3087 78.611 76.5951L79.1327 77.3286ZM44.6205 77.8465C45.0454 78.1301 45.4771 78.4026 45.9155 78.6644L46.3768 77.8916C45.9514 77.6376 45.5324 77.3731 45.1201 77.0979L44.6205 77.8465ZM76.5518 78.9761C76.9959 78.7231 77.4334 78.459 77.8643 78.1837L77.3801 77.4252C76.9619 77.6922 76.5373 77.9485 76.1063 78.194L76.5518 78.9761ZM47.2535 79.418C47.7074 79.6586 48.1669 79.8876 48.6321 80.1048L49.013 79.2894C48.5616 79.0786 48.1156 78.8564 47.6751 78.6228L47.2535 79.418ZM73.8026 80.3625C74.273 80.1545 74.7378 79.9346 75.1971 79.7029L74.7918 78.8994C74.346 79.1243 73.895 79.3376 73.4387 79.5393L73.8026 80.3625ZM50.0394 80.7191C50.5074 80.9093 50.9798 81.0878 51.4565 81.2542L51.7533 80.4045C51.2907 80.243 50.8324 80.0699 50.3784 79.8853L50.0394 80.7191ZM70.9646 81.4505C71.4457 81.2933 71.9225 81.1241 72.395 80.943L72.0729 80.1026C71.6144 80.2783 71.1518 80.4424 70.685 80.5948L70.9646 81.4505ZM52.9061 81.7198C53.3961 81.8638 53.8895 81.9952 54.3863 82.1142L54.5958 81.2388C54.1138 81.1234 53.6351 80.9959 53.1597 80.8563L52.9061 81.7198ZM68.0103 82.2523C68.5108 82.1433 69.0082 82.0218 69.5024 81.8876L69.2664 81.0191C68.787 81.1492 68.3045 81.2673 67.8189 81.373L68.0103 82.2523ZM55.8792 82.4319C56.3732 82.5241 56.8696 82.604 57.3683 82.6718L57.4893 81.7798C57.0054 81.7142 56.5238 81.6367 56.0444 81.5472L55.8792 82.4319ZM65.0264 82.748C65.5281 82.69 66.0276 82.6198 66.525 82.5372L66.3776 81.6494C65.8949 81.7296 65.4101 81.7977 64.9233 81.8538L65.0264 82.748ZM58.8803 82.8387C59.3899 82.8821 59.901 82.9128 60.4136 82.9308L60.4451 82.0314C59.9475 82.0139 59.4514 81.9841 58.9568 81.9418L58.8803 82.8387ZM61.9644 82.9464C62.4795 82.9387 62.9933 82.9182 63.5057 82.8849L63.4472 81.9868C62.9497 82.0191 62.4509 82.039 61.9509 82.0466L61.9644 82.9464Z"></path></g><path d="M88.5005 52.4999C88.5005 67.4116 76.4121 79.4998 61.5003 79.4998C46.5884 79.4998 34.5 67.4116 34.5 52.4999C34.5 37.5883 46.5884 25.5 61.5003 25.5C76.4121 25.5 88.5005 37.5883 88.5005 52.4999Z"   fill="#FFFFFF" ></path><path d="M89.1 52.5003C89.1 67.7433 76.7428 80.1002 61.4997 80.1002C46.2565 80.1002 33.8994 67.7433 33.8994 52.5003C33.8994 37.2573 46.2565 24.9004 61.4997 24.9004C76.7428 24.9004 89.1 37.2573 89.1 52.5003ZM88.4999 52.5003C88.4999 67.4119 76.4115 79.5002 61.4997 79.5002C46.5878 79.5002 34.4994 67.4119 34.4994 52.5003C34.4994 37.5887 46.5878 25.5004 61.4997 25.5004C76.4115 25.5004 88.4999 37.5887 88.4999 52.5003Z" fill-rule="evenodd"  fill="#495AD4" ></path><path d="M82.876 36.0013L40.4999 36.0013L40.4999 35.5281C45.4499 29.4111 53.0186 25.5 61.5008 25.5C70.1997 25.5 77.9378 29.6135 82.876 36.0013Z" fill-rule="evenodd"  fill="#DFE1ED" ></path><path d="M88.5018 52.5001L88.5018 52.4984C88.5018 49.3434 87.9605 46.3147 86.966 43.5001L40.4999 43.5001L40.4999 52.5001L88.5018 52.5001Z" fill-rule="evenodd"  fill="#9EA7E8" ></path><path d="M88.3368 55.5001C87.9826 58.7023 87.0685 61.7356 85.6943 64.5001L40.4999 64.5001L40.4999 55.5001L88.3368 55.5001Z" fill-rule="evenodd"  fill="#9EA7E8" ></path><path     fill="#131926"  d="M43.5213 50.3109L44.1586 50.3109L44.1586 45.8223L45.68 45.8223L45.68 45.2878L42 45.2878L42 45.8223L43.5213 45.8223L43.5213 50.3109Z"></path><path     fill="#131926"  d="M46.5228 50.3109L47.1533 50.3109L47.1533 46.5898L46.5228 46.5898L46.5228 50.3109ZM46.8381 45.8223C47.0848 45.8223 47.2561 45.6579 47.2561 45.4043C47.2561 45.1645 47.0848 45 46.8381 45C46.5914 45 46.4269 45.1645 46.4269 45.4043C46.4269 45.6579 46.5914 45.8223 46.8381 45.8223Z"></path><path     fill="#131926"  d="M48.4074 50.3109L49.0378 50.3109L49.0378 47.6109C49.3736 47.2272 49.6888 47.0421 49.9698 47.0421C50.4426 47.0421 50.6619 47.3368 50.6619 48.0358L50.6619 50.3109L51.2855 50.3109L51.2855 47.6109C51.635 47.2272 51.9365 47.0421 52.2244 47.0421C52.6972 47.0421 52.9165 47.3368 52.9165 48.0358L52.9165 50.3109L53.5401 50.3109L53.5401 47.9536C53.5401 47.0079 53.1769 46.4939 52.4162 46.4939C51.9571 46.4939 51.5733 46.7886 51.1827 47.2066C51.032 46.768 50.7305 46.4939 50.1548 46.4939C49.7094 46.4939 49.3256 46.7749 48.9967 47.1312L48.983 47.1312L48.9213 46.5898L48.4074 46.5898L48.4074 50.3109Z"></path><path     fill="#131926"  d="M56.2607 50.4C56.7609 50.4 57.1584 50.2355 57.4805 50.0231L57.2612 49.6051C56.9802 49.7901 56.6924 49.8997 56.3292 49.8997C55.6234 49.8997 55.1368 49.3926 55.0957 48.5977L57.6038 48.5977C57.6175 48.5018 57.6312 48.3784 57.6312 48.2414C57.6312 47.1792 57.0967 46.4939 56.1442 46.4939C55.2944 46.4939 54.4789 47.2409 54.4789 48.4538C54.4789 49.6805 55.267 50.4 56.2607 50.4ZM55.0888 48.1523C55.1642 47.4122 55.6302 46.9942 56.1579 46.9942C56.7404 46.9942 57.083 47.3985 57.083 48.1523L55.0888 48.1523Z"></path><path     fill="#131926"  d="M59.5226 50.4C60.3997 50.4 60.8726 49.8997 60.8726 49.2967C60.8726 48.5909 60.2832 48.3716 59.7419 48.166C59.3239 48.0084 58.9401 47.8713 58.9401 47.5218C58.9401 47.2272 59.1594 46.9805 59.6322 46.9805C59.9612 46.9805 60.2216 47.1244 60.4751 47.3094L60.7766 46.9188C60.4957 46.6858 60.0845 46.4939 59.6254 46.4939C58.8099 46.4939 58.3439 46.9599 58.3439 47.5492C58.3439 48.1866 58.9058 48.4333 59.4267 48.6251C59.8378 48.7759 60.2764 48.9541 60.2764 49.331C60.2764 49.653 60.0365 49.9135 59.5431 49.9135C59.0977 49.9135 58.7688 49.7353 58.4398 49.468L58.1383 49.886C58.4878 50.1807 58.9949 50.4 59.5226 50.4Z"></path><path     fill="#131926"  d="M63.2642 50.4C63.7645 50.4 64.1619 50.2355 64.484 50.0231L64.2647 49.6051C63.9838 49.7901 63.6959 49.8997 63.3327 49.8997C62.6269 49.8997 62.1404 49.3926 62.0992 48.5977L64.6074 48.5977C64.6211 48.5018 64.6348 48.3784 64.6348 48.2414C64.6348 47.1792 64.1003 46.4939 63.1477 46.4939C62.298 46.4939 61.4825 47.2409 61.4825 48.4538C61.4825 49.6805 62.2706 50.4 63.2642 50.4ZM62.0924 48.1523C62.1678 47.4122 62.6338 46.9942 63.1614 46.9942C63.7439 46.9942 64.0865 47.3985 64.0865 48.1523L62.0924 48.1523Z"></path><path     fill="#131926"  d="M65.553 50.3109L66.1835 50.3109L66.1835 47.9193C66.4302 47.2888 66.8071 47.0558 67.1155 47.0558C67.2731 47.0558 67.3553 47.0764 67.4787 47.1175L67.5952 46.5761C67.4787 46.5145 67.3622 46.4939 67.1977 46.4939C66.7865 46.4939 66.4028 46.7954 66.1424 47.2683L66.1287 47.2683L66.067 46.5898L65.553 46.5898L65.553 50.3109Z"></path><path     fill="#131926"  d="M68.2119 50.3109L68.8424 50.3109L68.8424 46.5898L68.2119 46.5898L68.2119 50.3109ZM68.5272 45.8223C68.7739 45.8223 68.9452 45.6579 68.9452 45.4043C68.9452 45.1645 68.7739 45 68.5272 45C68.2805 45 68.116 45.1645 68.116 45.4043C68.116 45.6579 68.2805 45.8223 68.5272 45.8223Z"></path><path     fill="#131926"  d="M71.6041 50.4C72.1043 50.4 72.5018 50.2355 72.8239 50.0231L72.6046 49.6051C72.3236 49.7901 72.0358 49.8997 71.6726 49.8997C70.9668 49.8997 70.4802 49.3926 70.4391 48.5977L72.9472 48.5977C72.9609 48.5018 72.9746 48.3784 72.9746 48.2414C72.9746 47.1792 72.4401 46.4939 71.4876 46.4939C70.6378 46.4939 69.8223 47.2409 69.8223 48.4538C69.8223 49.6805 70.6104 50.4 71.6041 50.4ZM70.4322 48.1523C70.5076 47.4122 70.9736 46.9942 71.5013 46.9942C72.0838 46.9942 72.4264 47.3985 72.4264 48.1523L70.4322 48.1523Z"></path><path     fill="#131926"  d="M74.866 50.4C75.7431 50.4 76.216 49.8997 76.216 49.2967C76.216 48.5909 75.6266 48.3716 75.0853 48.166C74.6673 48.0084 74.2835 47.8713 74.2835 47.5218C74.2835 47.2272 74.5028 46.9805 74.9756 46.9805C75.3046 46.9805 75.565 47.1244 75.8185 47.3094L76.12 46.9188C75.8391 46.6858 75.4279 46.4939 74.9688 46.4939C74.1533 46.4939 73.6873 46.9599 73.6873 47.5492C73.6873 48.1866 74.2492 48.4333 74.7701 48.6251C75.1812 48.7759 75.6198 48.9541 75.6198 49.331C75.6198 49.653 75.3799 49.9135 74.8866 49.9135C74.4411 49.9135 74.1122 49.7353 73.7832 49.468L73.4817 49.886C73.8312 50.1807 74.3383 50.4 74.866 50.4Z"></path><path     fill="#131926"  d=""></path><path     fill="#131926"  d="M78.7691 50.3109L81.5239 50.3109L81.5239 49.7901L80.5165 49.7901L80.5165 45.2878L80.0368 45.2878C79.7627 45.4454 79.4406 45.5619 78.9952 45.6442L78.9952 46.0416L79.8929 46.0416L79.8929 49.7901L78.7691 49.7901L78.7691 50.3109Z"></path><path     fill="#131926"  d="M43.5213 62.3109L44.1586 62.3109L44.1586 57.8223L45.68 57.8223L45.68 57.2878L42 57.2878L42 57.8223L43.5213 57.8223L43.5213 62.3109Z"></path><path     fill="#131926"  d="M46.5228 62.3109L47.1533 62.3109L47.1533 58.5898L46.5228 58.5898L46.5228 62.3109ZM46.8381 57.8223C47.0848 57.8223 47.2561 57.6579 47.2561 57.4043C47.2561 57.1645 47.0848 57 46.8381 57C46.5914 57 46.4269 57.1645 46.4269 57.4043C46.4269 57.6579 46.5914 57.8223 46.8381 57.8223Z"></path><path     fill="#131926"  d="M48.4074 62.3109L49.0378 62.3109L49.0378 59.6109C49.3736 59.2272 49.6888 59.0421 49.9698 59.0421C50.4426 59.0421 50.6619 59.3368 50.6619 60.0358L50.6619 62.3109L51.2855 62.3109L51.2855 59.6109C51.635 59.2272 51.9365 59.0421 52.2244 59.0421C52.6972 59.0421 52.9165 59.3368 52.9165 60.0358L52.9165 62.3109L53.5401 62.3109L53.5401 59.9536C53.5401 59.0079 53.1769 58.4939 52.4162 58.4939C51.9571 58.4939 51.5733 58.7886 51.1827 59.2066C51.032 58.768 50.7305 58.4939 50.1548 58.4939C49.7094 58.4939 49.3256 58.7749 48.9967 59.1312L48.983 59.1312L48.9213 58.5898L48.4074 58.5898L48.4074 62.3109Z"></path><path     fill="#131926"  d="M56.2607 62.4C56.7609 62.4 57.1584 62.2355 57.4805 62.0231L57.2612 61.6051C56.9802 61.7901 56.6924 61.8997 56.3292 61.8997C55.6234 61.8997 55.1368 61.3926 55.0957 60.5977L57.6038 60.5977C57.6175 60.5018 57.6312 60.3784 57.6312 60.2414C57.6312 59.1792 57.0967 58.4939 56.1442 58.4939C55.2944 58.4939 54.4789 59.2409 54.4789 60.4538C54.4789 61.6805 55.267 62.4 56.2607 62.4ZM55.0888 60.1523C55.1642 59.4122 55.6302 58.9942 56.1579 58.9942C56.7404 58.9942 57.083 59.3985 57.083 60.1523L55.0888 60.1523Z"></path><path     fill="#131926"  d="M59.5226 62.4C60.3997 62.4 60.8726 61.8997 60.8726 61.2967C60.8726 60.5909 60.2832 60.3716 59.7419 60.166C59.3239 60.0084 58.9401 59.8713 58.9401 59.5218C58.9401 59.2272 59.1594 58.9805 59.6322 58.9805C59.9612 58.9805 60.2216 59.1244 60.4751 59.3094L60.7766 58.9188C60.4957 58.6858 60.0845 58.4939 59.6254 58.4939C58.8099 58.4939 58.3439 58.9599 58.3439 59.5492C58.3439 60.1866 58.9058 60.4333 59.4267 60.6251C59.8378 60.7759 60.2764 60.9541 60.2764 61.331C60.2764 61.653 60.0365 61.9135 59.5431 61.9135C59.0977 61.9135 58.7688 61.7353 58.4398 61.468L58.1383 61.886C58.4878 62.1807 58.9949 62.4 59.5226 62.4Z"></path><path     fill="#131926"  d="M63.2642 62.4C63.7645 62.4 64.1619 62.2355 64.484 62.0231L64.2647 61.6051C63.9838 61.7901 63.6959 61.8997 63.3327 61.8997C62.6269 61.8997 62.1404 61.3926 62.0992 60.5977L64.6074 60.5977C64.6211 60.5018 64.6348 60.3784 64.6348 60.2414C64.6348 59.1792 64.1003 58.4939 63.1477 58.4939C62.298 58.4939 61.4825 59.2409 61.4825 60.4538C61.4825 61.6805 62.2706 62.4 63.2642 62.4ZM62.0924 60.1523C62.1678 59.4122 62.6338 58.9942 63.1614 58.9942C63.7439 58.9942 64.0865 59.3985 64.0865 60.1523L62.0924 60.1523Z"></path><path     fill="#131926"  d="M65.553 62.3109L66.1835 62.3109L66.1835 59.9193C66.4302 59.2888 66.8071 59.0558 67.1155 59.0558C67.2731 59.0558 67.3553 59.0764 67.4787 59.1175L67.5952 58.5761C67.4787 58.5145 67.3622 58.4939 67.1977 58.4939C66.7865 58.4939 66.4028 58.7954 66.1424 59.2683L66.1287 59.2683L66.067 58.5898L65.553 58.5898L65.553 62.3109Z"></path><path     fill="#131926"  d="M68.2119 62.3109L68.8424 62.3109L68.8424 58.5898L68.2119 58.5898L68.2119 62.3109ZM68.5272 57.8223C68.7739 57.8223 68.9452 57.6579 68.9452 57.4043C68.9452 57.1645 68.7739 57 68.5272 57C68.2805 57 68.116 57.1645 68.116 57.4043C68.116 57.6579 68.2805 57.8223 68.5272 57.8223Z"></path><path     fill="#131926"  d="M71.6041 62.4C72.1043 62.4 72.5018 62.2355 72.8239 62.0231L72.6046 61.6051C72.3236 61.7901 72.0358 61.8997 71.6726 61.8997C70.9668 61.8997 70.4802 61.3926 70.4391 60.5977L72.9472 60.5977C72.9609 60.5018 72.9746 60.3784 72.9746 60.2414C72.9746 59.1792 72.4401 58.4939 71.4876 58.4939C70.6378 58.4939 69.8223 59.2409 69.8223 60.4538C69.8223 61.6805 70.6104 62.4 71.6041 62.4ZM70.4322 60.1523C70.5076 59.4122 70.9736 58.9942 71.5013 58.9942C72.0838 58.9942 72.4264 59.3985 72.4264 60.1523L70.4322 60.1523Z"></path><path     fill="#131926"  d="M74.866 62.4C75.7431 62.4 76.216 61.8997 76.216 61.2967C76.216 60.5909 75.6266 60.3716 75.0853 60.166C74.6673 60.0084 74.2835 59.8713 74.2835 59.5218C74.2835 59.2272 74.5028 58.9805 74.9756 58.9805C75.3046 58.9805 75.565 59.1244 75.8185 59.3094L76.1201 58.9188C75.8391 58.6858 75.4279 58.4939 74.9688 58.4939C74.1533 58.4939 73.6873 58.9599 73.6873 59.5492C73.6873 60.1866 74.2492 60.4333 74.7701 60.6251C75.1812 60.7759 75.6198 60.9541 75.6198 61.331C75.6198 61.653 75.3799 61.9135 74.8866 61.9135C74.4411 61.9135 74.1122 61.7353 73.7832 61.468L73.4817 61.886C73.8312 62.1807 74.3383 62.4 74.866 62.4Z"></path><path     fill="#131926"  d=""></path><path     fill="#131926"  d="M78.4675 62.3109L81.6267 62.3109L81.6267 61.7695L80.2355 61.7695C79.982 61.7695 79.6736 61.797 79.4132 61.8175C80.5919 60.7005 81.3868 59.6794 81.3868 58.6721C81.3868 57.7812 80.818 57.1987 79.9203 57.1987C79.283 57.1987 78.8444 57.4865 78.4401 57.932L78.8033 58.2883C79.0843 57.9525 79.4338 57.7058 79.8449 57.7058C80.4686 57.7058 80.7701 58.1239 80.7701 58.6995C80.7701 59.5629 80.0437 60.5635 78.4675 61.9409L78.4675 62.3109Z"></path><path d="M81.9275 20.3042L78.4092 12.564L77.5898 12.9364L81.3398 21.1864L81.5715 21.6961L82.0195 21.3602L84.7495 19.3127L87.4795 21.3602L87.6977 21.5238L87.9437 21.4061L104.963 13.2665L122.75 25.1246L123.034 25.3137L123.292 25.0919L138.792 11.806L154.263 21.3828L154.399 21.4671L154.558 21.4464L171.734 19.206L182.911 21.4414L183.024 21.464L183.134 21.4295L221.384 9.42953L221.115 8.5708L182.975 20.5363L171.838 18.3089L171.765 18.2943L171.691 18.3039L154.6 20.5332L138.986 10.8675L138.707 10.6943L138.457 10.9085L122.965 24.1866L105.249 12.3757L105.036 12.2338L104.805 12.3442L87.8013 20.4765L85.0195 18.3902L84.7495 18.1877L84.4795 18.3902L81.9275 20.3042Z" fill-rule="evenodd"  fill="#495AD4" ></path><path d="M56.1798 45.9355L70.1749 55.1759L64.2288 56.8769L67.2288 62.073L64.6307 63.573L61.6307 58.3769L57.1846 62.6759L56.1798 45.9355Z"   fill="#FFFFFF" ></path><path d="M55.4314 45.9804L55.3415 44.4831L56.5932 45.3095L70.5884 54.5499L71.9492 55.4483L70.3815 55.8969L65.3589 57.3337L68.2536 62.3474L64.3564 64.5974L61.4617 59.5837L57.7062 63.215L56.5338 64.3484L56.4362 62.7207L55.4314 45.9804ZM57.0185 47.3878L57.8358 61.0031L61.1096 57.8376L61.8002 57.1699L64.9055 62.5484L66.2045 61.7984L63.0992 56.4199L64.0228 56.1557L68.4012 54.9032L57.0185 47.3878Z" fill-rule="evenodd"  fill="#000000" ></path><path d="M56.7339 41.2735C58.8945 41.8524 60.1766 44.0732 59.5977 46.2337L60.4671 46.4667C61.1746 43.826 59.6075 41.1118 56.9669 40.4042C54.3262 39.6966 51.612 41.2637 50.9044 43.9044C50.1968 46.545 51.7639 49.2593 54.4046 49.9669L54.6375 49.0975C52.477 48.5186 51.1948 46.2979 51.7737 44.1373C52.3526 41.9768 54.5734 40.6946 56.7339 41.2735Z" fill-rule="evenodd"  fill="#000000" ></path><path d="M57.5106 38.3762C61.2716 39.3839 63.5035 43.2497 62.4957 47.0106L63.3651 47.2436C64.5014 43.0025 61.9846 38.6432 57.7436 37.5068C53.5025 36.3704 49.1432 38.8873 48.0068 43.1283C46.8705 47.3694 49.3873 51.7287 53.6283 52.8651L53.8613 51.9957C50.1003 50.988 47.8684 47.1222 48.8762 43.3613C49.8839 39.6003 53.7497 37.3684 57.5106 38.3762Z" fill-rule="evenodd"  fill="#000000" ></path></svg>