<svg xmlns="http://www.w3.org/2000/svg" xmlns:xlink="http://www.w3.org/1999/xlink" width="234" height="120" viewBox="0 0 234 120" fill="none"><path     fill="#FFFFFF"  d="M70 1.5L231.5 1.5C232.052 1.5 232.5 1.94772 232.5 2.5L232.5 33.5C232.5 34.0523 232.052 34.5 231.5 34.5L70 34.5C69.4477 34.5 69 34.0523 69 33.5L69 2.5C69 1.94772 69.4477 1.5 70 1.5Z"></path><path d="M75.4508 29.55L75.4508 5.25L74.5508 5.25L74.5508 30.45L225.751 30.45L225.751 29.55L75.4508 29.55Z" fill-rule="evenodd"  fill="#656A85" ></path><path d="M81.9275 20.3037L78.4092 12.5635L77.5898 12.9359L81.3398 21.1859L81.5715 21.6956L82.0195 21.3597L84.7495 19.3122L87.4795 21.3597L87.6977 21.5233L87.9437 21.4056L104.963 13.2661L122.75 25.1241L123.034 25.3132L123.292 25.0914L138.792 11.8055L154.263 21.3823L154.399 21.4666L154.558 21.4459L171.734 19.2055L182.911 21.4409L183.024 21.4635L183.134 21.429L221.384 9.42904L221.115 8.57031L182.975 20.5358L171.838 18.3084L171.765 18.2939L171.691 18.3035L154.6 20.5327L138.986 10.8671L138.707 10.6938L138.457 10.908L122.965 24.1861L105.249 12.3752L105.036 12.2333L104.805 12.3437L87.8013 20.4761L85.0195 18.3897L84.7495 18.1872L84.4795 18.3897L81.9275 20.3037Z" fill-rule="evenodd"  fill="#495AD4" ></path><path     fill="#FFFFFF"  d="M70 37.5L231.5 37.5C232.052 37.5 232.5 37.9477 232.5 38.5L232.5 69.5C232.5 70.0523 232.052 70.5 231.5 70.5L70 70.5C69.4477 70.5 69 70.0523 69 69.5L69 38.5C69 37.9477 69.4477 37.5 70 37.5Z"></path><path d="M191.399 47.5746L221.399 58.0746L221.102 58.9241L191.301 48.4938L180.232 55.1352L180.051 55.2442L179.851 55.1737L167.249 50.7259L143.397 58.9249L143.259 58.9724L143.119 58.9297L116.354 50.7514L106.791 58.8429L106.665 58.9493L97.4276 58.9493L97.3583 58.9263L88.3583 55.9263L88.316 55.9122L88.2773 55.89L83.2506 53.0176L78.2239 55.89L77.7773 55.1086L83.0273 52.1086L83.2506 51.981L83.4739 52.1086L88.6852 55.0865L97.5737 58.0493L106.336 58.0493L115.96 49.9058L116.147 49.7472L116.382 49.819L143.242 58.0263L167.104 49.8238L167.253 49.7728L167.4 49.825L179.951 54.2545L191.019 47.6135L191.2 47.5049L191.399 47.5746L191.399 47.5746Z" fill-rule="evenodd"  fill="#009DEA" ></path><path d="M75.4508 65.55L75.4508 41.25L74.5508 41.25L74.5508 66.45L225.751 66.45L225.751 65.55L75.4508 65.55Z" fill-rule="evenodd"  fill="#656A85" ></path><path     fill="#DFE1ED" fill-opacity="0.4" d="M69.5 -2.01454e-14L232 -2.01454e-14C233.105 -2.01454e-14 234 0.895431 234 2L234 118C234 119.105 233.105 120 232 120L69.5 120C68.3954 120 67.5 119.105 67.5 118L67.5 2C67.5 0.895431 68.3954 -2.02807e-14 69.5 -2.01454e-14Z"></path><path d="M3 0L60 0C61.6569 0 63 1.34315 63 3L63 117C63 118.657 61.6569 120 60 120L3 120C1.34315 120 0 118.657 0 117L0 3C0 1.34315 1.34315 0 3 0ZM3 1.5C2.17158 1.5 1.5 2.17158 1.5 3L1.5 117C1.5 117.828 2.17158 118.5 3 118.5L60 118.5C60.8284 118.5 61.5 117.828 61.5 117L61.5 3C61.5 2.17158 60.8284 1.5 60 1.5L3 1.5Z" fill-rule="evenodd"  fill="#656A85" ></path><path d="M3 19.5L46.5 19.5L46.5 25.5L3 25.5L3 19.5Z"   fill="#DFE1ED" ></path><path d="M3 28.5L46.5 28.5L46.5 34.5L3 34.5L3 28.5Z"   fill="#9EA7E8" ></path><path d="M3 36L46.5 36L46.5 42L3 42L3 36Z"   fill="#ABDEF7" ></path><path d="M3 43.5L46.5 43.5L46.5 49.5L3 49.5L3 43.5Z"   fill="#BEF2EF" ></path><path d="M54.0001 28.5001C57.3138 28.5001 60.0001 25.8138 60.0001 22.5001C60.0001 19.1863 57.3138 16.5 54.0001 16.5C50.6863 16.5 48 19.1863 48 22.5001C48 25.8138 50.6863 28.5001 54.0001 28.5001ZM54.0001 17.4231C56.804 17.4231 59.077 19.6961 59.077 22.5001C59.077 25.304 56.804 27.577 54.0001 27.577C51.1961 27.577 48.9231 25.304 48.9231 22.5001C48.9231 19.6961 51.1961 17.4231 54.0001 17.4231Z" fill-rule="evenodd"  fill="#656A85" ></path><path d="M49.8477 22.5006C49.8477 22.7555 50.0543 22.9621 50.3092 22.9621L57.7195 22.9621C57.9744 22.9621 58.181 22.7555 58.181 22.5006C58.181 22.2457 57.9744 22.0391 57.7195 22.0391L50.3092 22.0391C50.0543 22.0391 49.8477 22.2457 49.8477 22.5006Z" fill-rule="evenodd"  fill="#656A85" ></path><path d="M54.0013 18.3457C53.7464 18.3457 53.5398 18.5523 53.5398 18.8072L53.5398 26.2175C53.5398 26.4724 53.7464 26.6791 54.0013 26.6791C54.2563 26.6791 54.4629 26.4724 54.4629 26.2175L54.4629 18.8072C54.4629 18.5523 54.2563 18.3457 54.0013 18.3457Z" fill-rule="evenodd"  fill="#656A85" ></path><path     fill="#FFFFFF"  d="M70 73.5L231.5 73.5C232.052 73.5 232.5 73.9477 232.5 74.5L232.5 105.5C232.5 106.052 232.052 106.5 231.5 106.5L70 106.5C69.4477 106.5 69 106.052 69 105.5L69 74.5C69 73.9477 69.4477 73.5 70 73.5Z"></path><path d="M85.5504 93.2434L78.1642 90.3304L77.834 91.1677L85.4409 94.1677L85.6616 94.2547L85.8581 94.1218L93.3682 89.0423L103.096 95.6218L103.348 95.7923L103.6 95.6218L110.049 91.2603L125.347 97.9117L125.573 98.0102L125.778 97.8718L145.559 84.4931L159.762 88.927L159.767 88.9286L175.282 94.1753L175.429 94.2252L175.576 94.1732L198.817 85.9392L222.056 82.9454L221.941 82.0527L198.655 85.0527L198.607 85.0589L198.562 85.0749L175.422 93.2729L160.046 88.0728L160.04 88.0711L160.035 88.0695L145.62 83.5695L145.413 83.5049L145.234 83.6263L125.479 96.9878L110.181 90.3364L109.954 90.2378L109.749 90.3763L103.348 94.7058L93.6204 88.1263L93.3682 87.9558L93.1161 88.1263L85.5504 93.2434Z" fill-rule="evenodd"  fill="#28D5CB" ></path><path d="M75.4508 101.55L75.4508 77.25L74.5508 77.25L74.5508 102.45L225.751 102.45L225.751 101.55L75.4508 101.55Z" fill-rule="evenodd"  fill="#656A85" ></path><path d="M127.995 77.25L141.99 86.4904L136.044 88.1913L139.044 93.3875L136.446 94.8875L133.446 89.6913L129 93.9904L127.995 77.25Z"   fill="#FFFFFF" ></path><path d="M127.247 77.2943L127.157 75.797L128.409 76.6235L142.404 85.8639L143.765 86.7623L142.197 87.2109L137.174 88.6476L140.069 93.6614L136.172 95.9114L133.277 90.8976L129.522 94.529L128.349 95.6624L128.252 94.0347L127.247 77.2943ZM128.834 78.7018L129.651 92.3171L132.925 89.1516L133.616 88.4838L136.721 93.8624L138.02 93.1124L134.915 87.7338L135.838 87.4697L140.217 86.2172L128.834 78.7018Z" fill-rule="evenodd"  fill="#000000" ></path><path d="M125.928 85.7443C125.929 85.7432 125.929 85.7421 125.931 85.741C125.934 85.7366 125.937 85.7311 125.939 85.7267C125.94 85.7256 125.942 85.7234 125.943 85.7223C125.945 85.7179 125.948 85.7134 125.95 85.7079C125.951 85.7057 125.953 85.7046 125.953 85.7024C125.955 85.698 125.957 85.6925 125.959 85.6881C125.96 85.687 125.96 85.6848 125.961 85.6837C125.964 85.6781 125.966 85.6737 125.968 85.6682C125.969 85.6671 125.969 85.6649 125.97 85.6638C125.972 85.6583 125.975 85.6528 125.976 85.6484C125.976 85.6473 125.977 85.6462 125.977 85.6451C125.979 85.6395 125.98 85.634 125.982 85.6285C125.982 85.6274 125.983 85.6263 125.983 85.6252C125.986 85.6197 125.987 85.6142 125.988 85.6076C125.988 85.6064 125.988 85.6053 125.989 85.6042C125.99 85.5987 125.991 85.5921 125.993 85.5866C125.993 85.5855 125.993 85.5844 125.994 85.5833C125.996 85.5778 125.997 85.5723 125.998 85.5656C125.998 85.5634 125.998 85.5623 125.999 85.5601C126 85.5546 126 85.5491 126.001 85.5447C126.001 85.5414 126.001 85.5392 126.002 85.5359C126.003 85.5248 126.003 85.5138 126.003 85.5028L126.003 85.5005C126.003 85.4928 126.003 85.4862 126.003 85.4785C126.003 85.4763 126.003 85.4741 126.002 85.4719C126.002 85.4675 126.001 85.4619 126.001 85.4564C126.001 85.4531 126 85.4498 126 85.4476C126 85.4432 125.999 85.4399 125.999 85.4355C125.999 85.4322 125.998 85.4288 125.997 85.4255C125.996 85.4222 125.996 85.4178 125.994 85.4145C125.993 85.4112 125.993 85.4079 125.992 85.4046C125.991 85.4013 125.99 85.3969 125.99 85.3936C125.989 85.3902 125.989 85.388 125.988 85.3847C125.987 85.3803 125.986 85.377 125.985 85.3726L125.982 85.3649C125.981 85.3605 125.979 85.356 125.978 85.3516L125.976 85.3461C125.974 85.3406 125.971 85.3362 125.97 85.3307C125.97 85.3296 125.969 85.3285 125.969 85.3274C125.967 85.3219 125.965 85.3163 125.961 85.3108C125.961 85.3108 125.961 85.3097 125.96 85.3097C125.939 85.2656 125.91 85.2248 125.875 85.1895L124.782 84.0963C124.61 83.9243 124.331 83.9243 124.158 84.0963C123.986 84.2684 123.986 84.5475 124.158 84.7207L124.498 85.0604L121.942 85.0604L121.942 82.5068L122.282 82.8465C122.368 82.9326 122.48 82.9756 122.594 82.9756C122.706 82.9756 122.82 82.9326 122.906 82.8465C123.078 82.6745 123.078 82.3954 122.906 82.2222L121.813 81.1291C121.788 81.1048 121.762 81.0838 121.733 81.0662C121.732 81.0651 121.73 81.064 121.729 81.0629C121.726 81.0607 121.722 81.0585 121.719 81.0574C121.716 81.0552 121.713 81.0541 121.71 81.0518C121.708 81.0507 121.706 81.0496 121.704 81.0485C121.699 81.0463 121.695 81.0441 121.69 81.0419C121.689 81.0408 121.687 81.0408 121.686 81.0397C121.68 81.0375 121.675 81.0353 121.67 81.0331C121.67 81.0331 121.669 81.0331 121.669 81.032C121.644 81.021 121.616 81.0132 121.589 81.0077L121.589 81.0077C121.582 81.0066 121.574 81.0055 121.568 81.0044L121.563 81.0044C121.558 81.0033 121.551 81.0033 121.546 81.0022C121.542 81.0022 121.538 81.0022 121.535 81.0011C121.531 81.0011 121.527 81 121.524 81C121.516 81 121.509 81 121.502 81C121.499 81 121.496 81 121.494 81C121.49 81 121.485 81 121.481 81C121.366 81.0055 121.262 81.0552 121.187 81.1324L120.097 82.2222C119.925 82.3943 119.925 82.6734 120.097 82.8465C120.27 83.0186 120.549 83.0186 120.722 82.8465L121.062 82.5068L121.062 85.0593L118.507 85.0593L118.847 84.7196C119.019 84.5475 119.019 84.2684 118.847 84.0952C118.674 83.9221 118.395 83.9231 118.222 84.0952L117.132 85.1851C117.055 85.2601 117.006 85.3638 117 85.4785C117 85.4829 117 85.4873 117 85.4917C117 85.4939 117 85.4972 117 85.4995C117 85.5072 117 85.5138 117 85.5215C117 85.5248 117.001 85.5292 117.001 85.5325C117.001 85.5359 117.001 85.5403 117.002 85.5436C117.003 85.5491 117.003 85.5557 117.004 85.5612C117.004 85.5623 117.004 85.5634 117.004 85.5656C117.006 85.5723 117.007 85.58 117.008 85.5866L117.008 85.5866C117.013 85.6153 117.022 85.6417 117.032 85.6682C117.032 85.6682 117.032 85.6693 117.033 85.6693C117.035 85.6748 117.038 85.6804 117.04 85.6848C117.041 85.6859 117.041 85.687 117.042 85.6892C117.044 85.6936 117.046 85.698 117.049 85.7024C117.05 85.7046 117.051 85.7068 117.052 85.709C117.053 85.7123 117.055 85.7145 117.057 85.7179C117.06 85.7212 117.062 85.7245 117.063 85.7278C117.064 85.7289 117.065 85.7311 117.066 85.7322C117.084 85.7609 117.105 85.7874 117.129 85.8116L118.222 86.9048C118.308 86.9908 118.421 87.0338 118.534 87.0338C118.647 87.0338 118.761 86.9908 118.847 86.9048C119.019 86.7327 119.019 86.4536 118.847 86.2804L118.507 85.9418L121.059 85.9418L121.059 88.4943L120.72 88.1546C120.547 87.9825 120.267 87.9825 120.095 88.1546C119.923 88.3266 119.923 88.6057 120.095 88.7789L121.188 89.872C121.225 89.9084 121.264 89.936 121.309 89.957L121.31 89.9581C121.315 89.9603 121.321 89.9636 121.326 89.9658L121.33 89.9669C121.334 89.9691 121.34 89.9713 121.345 89.9724C121.347 89.9735 121.349 89.9735 121.351 89.9746C121.355 89.9757 121.359 89.9779 121.364 89.979C121.366 89.9801 121.369 89.9812 121.371 89.9812C121.376 89.9824 121.379 89.9835 121.384 89.9846C121.387 89.9857 121.39 89.9868 121.392 89.9868C121.396 89.9879 121.4 89.989 121.403 89.989C121.407 89.9901 121.41 89.9901 121.413 89.9912C121.417 89.9923 121.421 89.9923 121.424 89.9934C121.428 89.9945 121.431 89.9945 121.435 89.9956C121.44 89.9967 121.443 89.9967 121.448 89.9967C121.451 89.9967 121.454 89.9978 121.458 89.9978C121.462 89.9978 121.467 89.9989 121.472 89.9989C121.474 89.9989 121.476 89.9989 121.48 90C121.487 90 121.494 90 121.502 90C121.503 90 121.504 90 121.505 90C121.512 90 121.517 90 121.524 90C121.528 90 121.533 89.9989 121.537 89.9989C121.539 89.9989 121.542 89.9989 121.545 89.9978C121.55 89.9978 121.556 89.9967 121.561 89.9956C121.562 89.9956 121.565 89.9956 121.566 89.9945C121.571 89.9934 121.578 89.9923 121.583 89.9912C121.584 89.9912 121.585 89.9912 121.587 89.9901C121.592 89.989 121.599 89.9879 121.604 89.9857C121.605 89.9857 121.606 89.9857 121.608 89.9846C121.613 89.9835 121.62 89.9812 121.625 89.9801L121.629 89.979C121.634 89.9768 121.64 89.9757 121.646 89.9735C121.647 89.9735 121.648 89.9724 121.649 89.9724C121.655 89.9702 121.66 89.968 121.666 89.9658L121.67 89.9647C121.676 89.9625 121.68 89.9603 121.686 89.9581C121.687 89.957 121.689 89.957 121.69 89.9559C121.695 89.9537 121.7 89.9515 121.705 89.9482C121.706 89.9471 121.708 89.9471 121.709 89.946C121.713 89.9437 121.719 89.9404 121.723 89.9382C121.724 89.9371 121.727 89.936 121.728 89.936C121.732 89.9327 121.738 89.9305 121.742 89.9272C121.743 89.9261 121.744 89.9261 121.745 89.925C121.751 89.9217 121.756 89.9173 121.762 89.914L121.763 89.9129C121.783 89.8985 121.801 89.8831 121.817 89.8654L122.907 88.7756C123.079 88.6035 123.079 88.3244 122.907 88.1512C122.735 87.9792 122.456 87.9792 122.283 88.1512L121.942 88.4943L121.942 85.9418L124.494 85.9418L124.155 86.2815C123.982 86.4536 123.982 86.7327 124.155 86.9059C124.241 86.9919 124.353 87.0349 124.467 87.0349C124.579 87.0349 124.693 86.9919 124.779 86.9059L125.869 85.816C125.885 85.7995 125.902 85.7807 125.916 85.762L125.917 85.7609C125.921 85.7543 125.924 85.7498 125.928 85.7443Z"   fill="#000000" ></path><path   fill-rule="evenodd"  fill="#000000"  d="M126.738 20.2461L126.738 22.4318L127.738 22.4318L127.738 20.2461L126.738 20.2461ZM126.738 25.3461L126.738 29.7175L127.738 29.7175L127.738 25.3461L126.738 25.3461ZM126.738 32.6318L126.738 37.0032L127.738 37.0032L127.738 32.6318L126.738 32.6318ZM126.738 39.9175L126.738 44.289L127.738 44.289L127.738 39.9175L126.738 39.9175ZM126.738 47.2032L126.738 51.5746L127.738 51.5746L127.738 47.2032L126.738 47.2032ZM126.738 54.489L126.738 58.8604L127.738 58.8604L127.738 54.489L126.738 54.489ZM126.738 61.7746L126.738 66.1461L127.738 66.1461L127.738 61.7746L126.738 61.7746ZM126.738 69.0604L126.738 71.2461L127.738 71.2461L127.738 69.0604L126.738 69.0604Z"></path><path d="M128.03 12.9698L134.03 18.9698L132.97 20.0304L127.5 14.5608L122.03 20.0304L120.97 18.9698L126.97 12.9698L127.5 12.4395L128.03 12.9698Z" fill-rule="evenodd"  fill="#000000" ></path><path d="M126.75 21L126.75 14.25L128.25 14.25L128.25 21L126.75 21Z" fill-rule="evenodd"  fill="#000000" ></path></svg>