<svg xmlns="http://www.w3.org/2000/svg" xmlns:xlink="http://www.w3.org/1999/xlink" width="234" height="120" viewBox="0 0 234 120" fill="none"><g  clip-path="url(#clip-path-99_30)"><path     fill="#FFFFFF"  d="M70.0029 1.5L231.503 1.5C232.055 1.5 232.503 1.94772 232.503 2.5L232.503 33.5C232.503 34.0523 232.055 34.5 231.503 34.5L70.0029 34.5C69.4506 34.5 69.0029 34.0523 69.0029 33.5L69.0029 2.5C69.0029 1.94772 69.4506 1.5 70.0029 1.5Z"></path><path d="M75.4537 29.55L75.4537 5.25L74.5537 5.25L74.5537 30.45L225.754 30.45L225.754 29.55L75.4537 29.55Z" fill-rule="evenodd"  fill="#656A85" ></path><path d="M81.9304 20.3037L78.4121 12.5635L77.5928 12.9359L81.3428 21.1859L81.5745 21.6956L82.0224 21.3597L84.7524 19.3122L87.4824 21.3597L87.7006 21.5233L87.9466 21.4056L104.966 13.2661L122.753 25.1241L123.036 25.3132L123.295 25.0914L138.795 11.8055L154.266 21.3823L154.402 21.4666L154.561 21.4459L171.737 19.2055L182.914 21.4409L183.027 21.4635L183.137 21.429L221.387 9.42904L221.118 8.57031L182.978 20.5358L171.841 18.3084L171.768 18.2939L171.694 18.3035L154.603 20.5327L138.989 10.8671L138.71 10.6938L138.46 10.908L122.968 24.1861L105.252 12.3752L105.039 12.2333L104.808 12.3437L87.8043 20.4761L85.0224 18.3897L84.7524 18.1872L84.4824 18.3897L81.9304 20.3037Z" fill-rule="evenodd"  fill="#495AD4" ></path><path     fill="#FFFFFF"  d="M70.0029 37.5L231.503 37.5C232.055 37.5 232.503 37.9477 232.503 38.5L232.503 69.5C232.503 70.0523 232.055 70.5 231.503 70.5L70.0029 70.5C69.4506 70.5 69.0029 70.0523 69.0029 69.5L69.0029 38.5C69.0029 37.9477 69.4506 37.5 70.0029 37.5Z"></path><path d="M191.402 47.5746L221.402 58.0746L221.105 58.9241L191.304 48.4938L180.235 55.1352L180.053 55.2442L179.854 55.1737L167.252 50.7259L143.4 58.9249L143.262 58.9724L143.122 58.9297L116.357 50.7514L106.794 58.8429L106.668 58.9493L97.4305 58.9493L97.3612 58.9263L88.3612 55.9263L88.319 55.9122L88.2803 55.89L83.2535 53.0176L78.2268 55.89L77.7803 55.1086L83.0303 52.1086L83.2535 51.981L83.4768 52.1086L88.6881 55.0865L97.5766 58.0493L106.339 58.0493L115.963 49.9058L116.15 49.7472L116.385 49.819L143.245 58.0263L167.107 49.8238L167.255 49.7728L167.403 49.825L179.954 54.2545L191.022 47.6135L191.203 47.5049L191.402 47.5746L191.402 47.5746Z" fill-rule="evenodd"  fill="#009DEA" ></path><path d="M75.4537 65.55L75.4537 41.25L74.5537 41.25L74.5537 66.45L225.754 66.45L225.754 65.55L75.4537 65.55Z" fill-rule="evenodd"  fill="#656A85" ></path><path     fill="#DFE1ED" fill-opacity="0.4" d="M69.5029 -2.01454e-14L232.003 -2.01454e-14C233.107 -2.01454e-14 234.003 0.895431 234.003 2L234.003 118C234.003 119.105 233.107 120 232.003 120L69.5029 120C68.3984 120 67.5029 119.105 67.5029 118L67.5029 2C67.5029 0.895431 68.3984 -2.02807e-14 69.5029 -2.01454e-14Z"></path><path d="M3.00293 0L60.0029 0C61.6598 0 63.0029 1.34315 63.0029 3L63.0029 117C63.0029 118.657 61.6598 120 60.0029 120L3.00293 120C1.34608 120 0.00292969 118.657 0.00292969 117L0.00292969 3C0.00292969 1.34315 1.34608 0 3.00293 0ZM3.00293 1.5C2.17451 1.5 1.50293 2.17158 1.50293 3L1.50293 117C1.50293 117.828 2.17451 118.5 3.00293 118.5L60.0029 118.5C60.8313 118.5 61.5029 117.828 61.5029 117L61.5029 3C61.5029 2.17158 60.8313 1.5 60.0029 1.5L3.00293 1.5Z" fill-rule="evenodd"  fill="#656A85" ></path><path d="M3.00293 19.5L46.5029 19.5L46.5029 25.5L3.00293 25.5L3.00293 19.5Z"   fill="#DFE1ED" ></path><path d="M3.00293 28.5L46.5029 28.5L46.5029 34.5L3.00293 34.5L3.00293 28.5Z"   fill="#9EA7E8" ></path><path d="M3.00293 36L46.5029 36L46.5029 42L3.00293 42L3.00293 36Z"   fill="#ABDEF7" ></path><path d="M3.00293 43.5L46.5029 43.5L46.5029 49.5L3.00293 49.5L3.00293 43.5Z"   fill="#BEF2EF" ></path><path d="M54.003 28.5001C57.3167 28.5001 60.003 25.8138 60.003 22.5001C60.003 19.1863 57.3167 16.5 54.003 16.5C50.6892 16.5 48.0029 19.1863 48.0029 22.5001C48.0029 25.8138 50.6892 28.5001 54.003 28.5001ZM54.003 17.4231C56.8069 17.4231 59.08 19.6961 59.08 22.5001C59.08 25.304 56.8069 27.577 54.003 27.577C51.1991 27.577 48.926 25.304 48.926 22.5001C48.926 19.6961 51.1991 17.4231 54.003 17.4231Z" fill-rule="evenodd"  fill="#656A85" ></path><path d="M49.8506 22.5006C49.8506 22.7555 50.0572 22.9621 50.3121 22.9621L57.7224 22.9621C57.9773 22.9621 58.184 22.7555 58.184 22.5006C58.184 22.2457 57.9773 22.0391 57.7224 22.0391L50.3121 22.0391C50.0572 22.0391 49.8506 22.2457 49.8506 22.5006Z" fill-rule="evenodd"  fill="#656A85" ></path><path d="M54.0043 18.3457C53.7494 18.3457 53.5427 18.5523 53.5427 18.8072L53.5427 26.2175C53.5427 26.4724 53.7494 26.6791 54.0043 26.6791C54.2592 26.6791 54.4658 26.4724 54.4658 26.2175L54.4658 18.8072C54.4658 18.5523 54.2592 18.3457 54.0043 18.3457Z" fill-rule="evenodd"  fill="#656A85" ></path><path     fill="#FFFFFF"  d="M70.0029 73.5L231.503 73.5C232.055 73.5 232.503 73.9477 232.503 74.5L232.503 105.5C232.503 106.052 232.055 106.5 231.503 106.5L70.0029 106.5C69.4506 106.5 69.0029 106.052 69.0029 105.5L69.0029 74.5C69.0029 73.9477 69.4506 73.5 70.0029 73.5Z"></path><path d="M85.5543 93.2453L78.1681 90.3324L77.8379 91.1696L85.4448 94.1696L85.6655 94.2567L85.862 94.1237L93.3721 89.0443L103.1 95.6237L103.352 95.7943L103.604 95.6237L110.053 91.2623L125.35 97.9137L125.577 98.0122L125.782 97.8737L145.562 84.4951L159.766 88.929L159.771 88.9306L175.285 94.1773L175.433 94.2272L175.58 94.1752L198.821 85.9412L222.06 82.9473L221.945 82.0547L198.659 85.0547L198.611 85.0608L198.566 85.0768L175.426 93.2748L160.049 88.0747L160.044 88.0731L160.039 88.0714L145.624 83.5714L145.417 83.5069L145.238 83.6283L125.482 96.9897L110.185 90.3383L109.958 90.2397L109.753 90.3783L103.352 94.7077L93.6243 88.1283L93.3721 87.9577L93.12 88.1283L85.5543 93.2453Z" fill-rule="evenodd"  fill="#28D5CB" ></path><path d="M75.4537 101.55L75.4537 77.25L74.5537 77.25L74.5537 102.45L225.754 102.45L225.754 101.55L75.4537 101.55Z" fill-rule="evenodd"  fill="#656A85" ></path><path d="M127.998 77.25L141.993 86.4904L136.047 88.1913L139.047 93.3875L136.449 94.8875L133.449 89.6913L129.003 93.9904L127.998 77.25Z"   fill="#FFFFFF" ></path><path d="M127.25 77.2943L127.16 75.797L128.412 76.6235L142.407 85.8639L143.768 86.7623L142.2 87.2109L137.177 88.6476L140.072 93.6614L136.175 95.9114L133.28 90.8976L129.525 94.529L128.352 95.6624L128.255 94.0347L127.25 77.2943ZM128.837 78.7018L129.654 92.3171L132.928 89.1516L133.619 88.4838L136.724 93.8624L138.023 93.1124L134.918 87.7338L135.841 87.4697L140.219 86.2172L128.837 78.7018Z" fill-rule="evenodd"  fill="#000000" ></path><path d="M125.931 85.7443C125.932 85.7432 125.932 85.7421 125.933 85.741C125.937 85.7366 125.94 85.7311 125.942 85.7267C125.943 85.7256 125.944 85.7234 125.946 85.7223C125.948 85.7179 125.951 85.7134 125.953 85.7079C125.954 85.7057 125.955 85.7046 125.955 85.7024C125.958 85.698 125.96 85.6925 125.962 85.6881C125.963 85.687 125.963 85.6848 125.964 85.6837C125.967 85.6781 125.969 85.6737 125.971 85.6682C125.972 85.6671 125.972 85.6649 125.973 85.6638C125.975 85.6583 125.978 85.6528 125.979 85.6484C125.979 85.6473 125.98 85.6462 125.98 85.6451C125.982 85.6395 125.983 85.634 125.985 85.6285C125.985 85.6274 125.986 85.6263 125.986 85.6252C125.989 85.6197 125.99 85.6142 125.991 85.6076C125.991 85.6064 125.991 85.6053 125.992 85.6042C125.993 85.5987 125.994 85.5921 125.996 85.5866C125.996 85.5855 125.996 85.5844 125.997 85.5833C125.999 85.5778 126 85.5723 126.001 85.5656C126.001 85.5634 126.001 85.5623 126.002 85.5601C126.003 85.5546 126.003 85.5491 126.004 85.5447C126.004 85.5414 126.004 85.5392 126.005 85.5359C126.006 85.5248 126.006 85.5138 126.006 85.5028L126.006 85.5005C126.006 85.4928 126.006 85.4862 126.006 85.4785C126.006 85.4763 126.006 85.4741 126.005 85.4719C126.005 85.4675 126.004 85.4619 126.004 85.4564C126.004 85.4531 126.003 85.4498 126.003 85.4476C126.003 85.4432 126.002 85.4399 126.002 85.4355C126.002 85.4322 126.001 85.4288 126 85.4255C125.999 85.4222 125.999 85.4178 125.997 85.4145C125.996 85.4112 125.996 85.4079 125.995 85.4046C125.994 85.4013 125.993 85.3969 125.993 85.3936C125.992 85.3902 125.992 85.388 125.991 85.3847C125.99 85.3803 125.989 85.377 125.987 85.3726L125.985 85.3649C125.984 85.3605 125.982 85.356 125.981 85.3516L125.979 85.3461C125.976 85.3406 125.974 85.3362 125.973 85.3307C125.973 85.3296 125.972 85.3285 125.972 85.3274C125.97 85.3219 125.968 85.3163 125.964 85.3108C125.964 85.3108 125.964 85.3097 125.963 85.3097C125.942 85.2656 125.912 85.2248 125.878 85.1895L124.785 84.0963C124.613 83.9243 124.334 83.9243 124.161 84.0963C123.989 84.2684 123.989 84.5475 124.161 84.7207L124.501 85.0604L121.945 85.0604L121.945 82.5068L122.284 82.8465C122.37 82.9326 122.483 82.9756 122.597 82.9756C122.709 82.9756 122.823 82.9326 122.909 82.8465C123.081 82.6745 123.081 82.3954 122.909 82.2222L121.816 81.1291C121.791 81.1048 121.765 81.0838 121.736 81.0662C121.735 81.0651 121.733 81.064 121.732 81.0629C121.729 81.0607 121.725 81.0585 121.722 81.0574C121.719 81.0552 121.716 81.0541 121.713 81.0518C121.711 81.0507 121.709 81.0496 121.706 81.0485C121.702 81.0463 121.698 81.0441 121.693 81.0419C121.692 81.0408 121.69 81.0408 121.689 81.0397C121.683 81.0375 121.678 81.0353 121.673 81.0331C121.673 81.0331 121.672 81.0331 121.672 81.032C121.647 81.021 121.619 81.0132 121.592 81.0077L121.592 81.0077C121.585 81.0066 121.577 81.0055 121.571 81.0044L121.566 81.0044C121.561 81.0033 121.554 81.0033 121.549 81.0022C121.545 81.0022 121.541 81.0022 121.538 81.0011C121.534 81.0011 121.53 81 121.527 81C121.519 81 121.512 81 121.505 81C121.502 81 121.499 81 121.497 81C121.492 81 121.488 81 121.484 81C121.369 81.0055 121.265 81.0552 121.19 81.1324L120.1 82.2222C119.928 82.3943 119.928 82.6734 120.1 82.8465C120.272 83.0186 120.552 83.0186 120.725 82.8465L121.064 82.5068L121.064 85.0593L118.51 85.0593L118.849 84.7196C119.022 84.5475 119.022 84.2684 118.849 84.0952C118.677 83.9221 118.398 83.9231 118.225 84.0952L117.135 85.1851C117.058 85.2601 117.008 85.3638 117.003 85.4785C117.003 85.4829 117.003 85.4873 117.003 85.4917C117.003 85.4939 117.003 85.4972 117.003 85.4995C117.003 85.5072 117.003 85.5138 117.003 85.5215C117.003 85.5248 117.004 85.5292 117.004 85.5325C117.004 85.5359 117.004 85.5403 117.005 85.5436C117.006 85.5491 117.006 85.5557 117.007 85.5612C117.007 85.5623 117.007 85.5634 117.007 85.5656C117.008 85.5723 117.01 85.58 117.011 85.5866L117.011 85.5866C117.016 85.6153 117.025 85.6417 117.035 85.6682C117.035 85.6682 117.035 85.6693 117.036 85.6693C117.038 85.6748 117.04 85.6804 117.043 85.6848C117.044 85.6859 117.044 85.687 117.045 85.6892C117.047 85.6936 117.049 85.698 117.051 85.7024C117.053 85.7046 117.054 85.7068 117.055 85.709C117.056 85.7123 117.058 85.7145 117.06 85.7179C117.062 85.7212 117.065 85.7245 117.066 85.7278C117.067 85.7289 117.068 85.7311 117.069 85.7322C117.087 85.7609 117.108 85.7874 117.132 85.8116L118.225 86.9048C118.311 86.9908 118.424 87.0338 118.537 87.0338C118.65 87.0338 118.763 86.9908 118.849 86.9048C119.022 86.7327 119.022 86.4536 118.849 86.2804L118.51 85.9418L121.062 85.9418L121.062 88.4943L120.723 88.1546C120.55 87.9825 120.27 87.9825 120.098 88.1546C119.926 88.3266 119.926 88.6057 120.098 88.7789L121.191 89.872C121.228 89.9084 121.267 89.936 121.312 89.957L121.313 89.9581C121.318 89.9603 121.324 89.9636 121.329 89.9658L121.333 89.9669C121.337 89.9691 121.342 89.9713 121.348 89.9724C121.35 89.9735 121.352 89.9735 121.353 89.9746C121.358 89.9757 121.362 89.9779 121.367 89.979C121.369 89.9801 121.372 89.9812 121.374 89.9812C121.379 89.9824 121.382 89.9835 121.387 89.9846C121.39 89.9857 121.393 89.9868 121.395 89.9868C121.399 89.9879 121.403 89.989 121.406 89.989C121.41 89.9901 121.413 89.9901 121.416 89.9912C121.42 89.9923 121.424 89.9923 121.427 89.9934C121.431 89.9945 121.434 89.9945 121.438 89.9956C121.443 89.9967 121.446 89.9967 121.451 89.9967C121.454 89.9967 121.457 89.9978 121.46 89.9978C121.465 89.9978 121.47 89.9989 121.475 89.9989C121.477 89.9989 121.479 89.9989 121.483 90C121.49 90 121.497 90 121.505 90C121.506 90 121.507 90 121.508 90C121.515 90 121.52 90 121.527 90C121.531 90 121.535 89.9989 121.54 89.9989C121.542 89.9989 121.545 89.9989 121.548 89.9978C121.553 89.9978 121.559 89.9967 121.564 89.9956C121.565 89.9956 121.567 89.9956 121.569 89.9945C121.574 89.9934 121.581 89.9923 121.586 89.9912C121.587 89.9912 121.588 89.9912 121.59 89.9901C121.595 89.989 121.602 89.9879 121.607 89.9857C121.608 89.9857 121.609 89.9857 121.61 89.9846C121.616 89.9835 121.623 89.9812 121.628 89.9801L121.631 89.979C121.637 89.9768 121.642 89.9757 121.649 89.9735C121.65 89.9735 121.651 89.9724 121.652 89.9724C121.658 89.9702 121.663 89.968 121.669 89.9658L121.673 89.9647C121.679 89.9625 121.683 89.9603 121.689 89.9581C121.69 89.957 121.692 89.957 121.693 89.9559C121.698 89.9537 121.703 89.9515 121.708 89.9482C121.709 89.9471 121.711 89.9471 121.712 89.946C121.716 89.9437 121.722 89.9404 121.726 89.9382C121.727 89.9371 121.73 89.936 121.731 89.936C121.735 89.9327 121.741 89.9305 121.745 89.9272C121.746 89.9261 121.747 89.9261 121.748 89.925C121.754 89.9217 121.759 89.9173 121.765 89.914L121.766 89.9129C121.786 89.8985 121.804 89.8831 121.82 89.8654L122.91 88.7756C123.082 88.6035 123.082 88.3244 122.91 88.1512C122.738 87.9792 122.459 87.9792 122.286 88.1512L121.945 88.4943L121.945 85.9418L124.497 85.9418L124.157 86.2815C123.985 86.4536 123.985 86.7327 124.157 86.9059C124.244 86.9919 124.356 87.0349 124.47 87.0349C124.582 87.0349 124.696 86.9919 124.782 86.9059L125.872 85.816C125.888 85.7995 125.905 85.7807 125.919 85.762L125.92 85.7609C125.924 85.7543 125.927 85.7498 125.931 85.7443Z"   fill="#000000" ></path></g><defs><clipPath id="clip-path-99_30"><path d="M0 120L234 120L234 0L0 0L0 120Z" fill="white"/></clipPath></defs></svg>