<svg xmlns="http://www.w3.org/2000/svg" xmlns:xlink="http://www.w3.org/1999/xlink" width="234" height="120" viewBox="0 0 234 120" fill="none"><path     fill="#DFE1ED" fill-opacity="0.4" d="M69.5 -2.01454e-14L232 -2.01454e-14C233.105 -2.01454e-14 234 0.895431 234 2L234 118C234 119.105 233.105 120 232 120L69.5 120C68.3954 120 67.5 119.105 67.5 118L67.5 2C67.5 0.895431 68.3954 -2.02807e-14 69.5 -2.01454e-14Z"></path><path     fill="#FFFFFF"  d="M70 1.5L231.5 1.5C232.052 1.5 232.5 1.94772 232.5 2.5L232.5 33.5C232.5 34.0523 232.052 34.5 231.5 34.5L70 34.5C69.4477 34.5 69 34.0523 69 33.5L69 2.5C69 1.94772 69.4477 1.5 70 1.5Z"></path><path d="M191.399 9.32558L221.399 19.8256L221.102 20.6751L191.301 10.2448L180.232 16.8862L180.051 16.9952L179.851 16.9247L167.249 12.4768L143.397 20.6759L143.259 20.7234L143.119 20.6807L116.354 12.5024L106.791 20.5938L106.665 20.7003L97.4276 20.7003L97.3583 20.6772L88.3583 17.6772L88.316 17.6631L88.2773 17.641L83.2506 14.7686L78.2239 17.641L77.7773 16.8596L83.0273 13.8596L83.2506 13.732L83.4739 13.8596L88.6852 16.8375L97.5737 19.8003L106.336 19.8003L115.96 11.6568L116.147 11.4982L116.382 11.57L143.242 19.7773L167.104 11.5748L167.253 11.5238L167.4 11.576L179.951 16.0055L191.019 9.36444L191.2 9.25586L191.399 9.32558L191.399 9.32558Z" fill-rule="evenodd"  fill="#009DEA" ></path><path d="M75.4508 29.55L75.4508 5.25L74.5508 5.25L74.5508 30.45L225.751 30.45L225.751 29.55L75.4508 29.55Z" fill-rule="evenodd"  fill="#656A85" ></path><path d="M3 0L60 0C61.6569 0 63 1.34315 63 3L63 117C63 118.657 61.6569 120 60 120L3 120C1.34315 120 0 118.657 0 117L0 3C0 1.34315 1.34315 0 3 0ZM3 1.5C2.17158 1.5 1.5 2.17158 1.5 3L1.5 117C1.5 117.828 2.17158 118.5 3 118.5L60 118.5C60.8284 118.5 61.5 117.828 61.5 117L61.5 3C61.5 2.17158 60.8284 1.5 60 1.5L3 1.5Z" fill-rule="evenodd"  fill="#656A85" ></path><path d="M3 19.5L46.5 19.5L46.5 25.5L3 25.5L3 19.5Z"   fill="#DFE1ED" ></path><path d="M3 28.5L46.5 28.5L46.5 34.5L3 34.5L3 28.5Z"   fill="#9EA7E8" ></path><path d="M3 36L46.5 36L46.5 42L3 42L3 36Z"   fill="#ABDEF7" ></path><path d="M54.0001 28.5001C57.3138 28.5001 60.0001 25.8138 60.0001 22.5001C60.0001 19.1863 57.3138 16.5 54.0001 16.5C50.6863 16.5 48 19.1863 48 22.5001C48 25.8138 50.6863 28.5001 54.0001 28.5001ZM54.0001 17.4231C56.804 17.4231 59.077 19.6961 59.077 22.5001C59.077 25.304 56.804 27.577 54.0001 27.577C51.1961 27.577 48.9231 25.304 48.9231 22.5001C48.9231 19.6961 51.1961 17.4231 54.0001 17.4231Z" fill-rule="evenodd"  fill="#656A85" ></path><path d="M49.8477 22.5001C49.8477 22.755 50.0543 22.9617 50.3092 22.9617L57.7195 22.9617C57.9744 22.9617 58.181 22.755 58.181 22.5001C58.181 22.2452 57.9744 22.0386 57.7195 22.0386L50.3092 22.0386C50.0543 22.0386 49.8477 22.2452 49.8477 22.5001Z" fill-rule="evenodd"  fill="#656A85" ></path><path d="M54.0013 18.3467C53.7464 18.3467 53.5398 18.5533 53.5398 18.8082L53.5398 26.2185C53.5398 26.4734 53.7464 26.6801 54.0013 26.6801C54.2563 26.6801 54.4629 26.4734 54.4629 26.2185L54.4629 18.8082C54.4629 18.5533 54.2563 18.3467 54.0013 18.3467Z" fill-rule="evenodd"  fill="#656A85" ></path><g opacity="0.7"><path   fill-rule="evenodd"  fill="#495AD4"  d="M40.7085 26.597C40.1947 26.5686 39.6797 26.553 39.1635 26.5503L39.1589 27.4503C39.6601 27.4529 40.16 27.468 40.6587 27.4956L40.7085 26.597ZM37.6148 26.5809C37.1035 26.6038 36.5937 26.6394 36.0855 26.6876L36.1707 27.5836C36.6639 27.5367 37.1587 27.5022 37.6551 27.48L37.6148 26.5809ZM43.7364 26.916C43.2374 26.8381 42.7364 26.7726 42.2334 26.7195L42.1389 27.6145C42.6271 27.666 43.1133 27.7296 43.5975 27.8052L43.7364 26.916ZM34.5779 26.8688C34.0807 26.9412 33.5859 27.0258 33.0935 27.1226L33.2672 28.0057C33.7449 27.9117 34.225 27.8296 34.7075 27.7594L34.5779 26.8688ZM46.7154 27.5358C46.2194 27.4062 45.7203 27.2894 45.218 27.1852L45.0351 28.0664C45.5225 28.1675 46.0068 28.2809 46.488 28.4066L46.7154 27.5358ZM31.5972 27.4563C31.1022 27.58 30.6107 27.716 30.1227 27.8646L30.3848 28.7256C30.8582 28.5815 31.335 28.4494 31.8153 28.3295L31.5972 27.4563ZM49.6203 28.453C49.1455 28.2763 48.6666 28.1116 48.1836 27.9591L47.9124 28.8173C48.381 28.9653 48.8457 29.125 49.3064 29.2965L49.6203 28.453ZM28.6793 28.3439C28.2046 28.5149 27.7344 28.6976 27.2688 28.8922L27.6158 29.7227C28.0676 29.5339 28.5237 29.3565 28.9842 29.1906L28.6793 28.3439ZM52.43 29.6636C51.968 29.4362 51.5006 29.2208 51.0279 29.0174L50.6721 29.8441C51.1307 30.0415 51.5842 30.2505 52.0325 30.4711L52.43 29.6636ZM25.8618 29.5227C25.3991 29.7444 24.9422 29.9777 24.491 30.2227L24.9204 31.0136C25.3582 30.7759 25.8016 30.5495 26.2506 30.3344L25.8618 29.5227ZM55.1133 31.1574C54.6794 30.8863 54.2391 30.6264 53.7924 30.3777L53.3546 31.164C53.7881 31.4054 54.2154 31.6576 54.6365 31.9207L55.1133 31.1574ZM23.1611 30.9889C22.7255 31.2547 22.2967 31.5314 21.8747 31.819L22.3815 32.5627C22.791 32.2836 23.2072 32.0151 23.6299 31.7571L23.1611 30.9889ZM57.6216 32.9051C57.2186 32.5933 56.8082 32.2918 56.3904 32.0006L55.8759 32.739C56.2813 33.0216 56.6796 33.3142 57.0707 33.6169L57.6216 32.9051ZM20.6337 32.7108C20.2282 33.018 19.8304 33.3352 19.4405 33.6623L20.019 34.3518C20.3974 34.0343 20.7835 33.7264 21.1771 33.4283L20.6337 32.7108ZM59.9373 34.8894C59.5682 34.5398 59.1906 34.1996 58.8045 33.8688L58.2189 34.5522C58.5936 34.8733 58.9601 35.2035 59.3183 35.5429L59.9373 34.8894ZM18.2971 34.6712C17.9245 35.0169 17.5607 35.3716 17.2057 35.7354L17.8498 36.3639C18.1944 36.0108 18.5475 35.6665 18.9092 35.331L18.2971 34.6712ZM62.0432 37.093C61.7107 36.7085 61.3688 36.3325 61.0175 35.9649L60.3668 36.5867C60.7078 36.9435 61.0396 37.3085 61.3623 37.6817L62.0432 37.093ZM16.1685 36.8527C15.8317 37.234 15.5048 37.6234 15.1876 38.0209L15.891 38.5822C16.1989 38.1965 16.5162 37.8185 16.8431 37.4484L16.1685 36.8527ZM63.9218 39.4985C63.6289 39.0821 63.3256 38.6731 63.012 38.2716L62.3027 38.8256C62.6071 39.2153 62.9014 39.6122 63.1857 40.0164L63.9218 39.4985ZM14.2652 39.2379C13.9673 39.652 13.68 40.0732 13.4034 40.5015L14.1594 40.9897C14.4279 40.5741 14.7067 40.1653 14.9958 39.7634L14.2652 39.2379ZM65.556 42.0887C65.3054 41.6433 65.0436 41.2042 64.7706 40.7716L64.0095 41.2519C64.2744 41.6718 64.5285 42.0979 64.7717 42.5301L65.556 42.0887ZM12.6045 41.8095C12.3484 42.2536 12.1038 42.7037 11.8706 43.1598L12.672 43.5695C12.8983 43.1269 13.1356 42.6901 13.3842 42.2591L12.6045 41.8095ZM66.9284 44.8461C66.7229 44.3746 66.5054 43.9085 66.276 43.4477L65.4704 43.8488C65.693 44.296 65.904 44.7483 66.1034 45.2057L66.9284 44.8461ZM11.204 44.5503C10.9957 45.0147 10.7992 45.4839 10.6147 45.9579L11.4534 46.2845C11.6324 45.8245 11.823 45.3692 12.0251 44.9186L11.204 44.5503ZM68.0004 47.6877C67.8457 47.2056 67.679 46.7277 67.5003 46.2539L66.6582 46.5716C66.8316 47.0313 66.9934 47.495 67.1435 47.9627L68.0004 47.6877ZM10.1001 47.3849C9.93961 47.8675 9.79142 48.3538 9.6555 48.8439L10.5228 49.0844C10.6546 48.6089 10.7984 48.1371 10.9541 47.669L10.1001 47.3849ZM68.7872 50.648C68.6808 50.1465 68.5617 49.6482 68.43 49.1531L67.5603 49.3844C67.688 49.8648 67.8035 50.3483 67.9068 50.8349L68.7872 50.648ZM9.283 50.3328C9.17284 50.8259 9.07505 51.3217 8.98961 51.8202L9.87668 51.9722C9.95958 51.4886 10.0545 51.0075 10.1613 50.529L9.283 50.3328ZM69.2666 53.6324C69.2113 53.1299 69.1436 52.6295 69.0636 52.1313L68.175 52.2741C68.2527 52.7576 68.3184 53.2432 68.372 53.7308L69.2666 53.6324ZM8.77136 53.3163C8.71053 53.8207 8.66227 54.3269 8.62658 54.8349L9.52436 54.8979C9.559 54.4049 9.60585 53.9136 9.66489 53.424L8.77136 53.3163ZM69.4493 56.6987C69.4443 56.1831 69.4265 55.6686 69.3959 55.1553L68.4974 55.209C68.5272 55.7072 68.5445 56.2067 68.5494 56.7074L69.4493 56.6987ZM8.55078 56.9999C8.55078 57.3089 8.55538 57.6174 8.56459 57.9255L9.46419 57.8987C9.45525 57.5995 9.45078 57.2999 9.45078 56.9999C9.45078 56.7972 9.45282 56.5946 9.4569 56.3922L8.55709 56.3741C8.55288 56.5825 8.55078 56.7911 8.55078 56.9999ZM69.4122 58.5468C69.4379 58.0323 69.4508 57.5167 69.4508 56.9999L68.5508 56.9999C68.5508 57.5016 68.5383 58.0022 68.5133 58.5018L69.4122 58.5468ZM8.64881 59.4608C8.68934 59.9675 8.7424 60.4723 8.80798 60.9752L9.70043 60.8588C9.63678 60.3708 9.58528 59.8809 9.54595 59.3891L8.64881 59.4608ZM69.1086 61.5792C69.184 61.0794 69.247 60.5777 69.2975 60.074L68.402 59.9841C68.353 60.473 68.2919 60.96 68.2187 61.445L69.1086 61.5792ZM9.04026 62.4668C9.13088 62.9666 9.23394 63.4636 9.34946 63.9578L10.2258 63.7529C10.1138 63.2734 10.0137 62.7911 9.92582 62.3061L9.04026 62.4668ZM68.505 64.5591C68.6318 64.0628 68.746 63.5635 68.8475 63.0611L67.9652 62.8829C67.8668 63.3703 67.7561 63.8548 67.6331 64.3363L68.505 64.5591ZM9.73609 65.441C9.87665 65.9292 10.0294 66.4135 10.1944 66.8939L11.0456 66.6017C10.8855 66.1355 10.7373 65.6656 10.601 65.192L9.73609 65.441ZM67.6026 67.4706C67.7769 66.9945 67.9391 66.5145 68.0892 66.0305L67.2296 65.7639C67.084 66.2335 66.9266 66.6992 66.7575 67.1612L67.6026 67.4706ZM10.7224 68.3145C10.9123 68.7886 11.1141 69.2578 11.3278 69.722L12.1453 69.3455C11.9379 68.8952 11.7421 68.44 11.5579 67.9799L10.7224 68.3145ZM66.4079 70.2841C66.6329 69.8208 66.8459 69.3521 67.0469 68.8781L66.2183 68.5267C66.0233 68.9866 65.8166 69.4414 65.5983 69.891L66.4079 70.2841ZM12.0077 71.1048C12.2452 71.5584 12.4941 72.0059 12.7543 72.4472L13.5295 71.9898C13.277 71.5616 13.0355 71.1275 12.805 70.6874L12.0077 71.1048ZM64.9278 72.9762C65.1967 72.5407 65.4544 72.0989 65.7008 71.6508L64.9122 71.2171C64.6731 71.652 64.4231 72.0807 64.1621 72.5034L64.9278 72.9762ZM13.5656 73.7467C13.8463 74.1721 14.1375 74.5903 14.4393 75.0014L15.1647 74.4689C14.8719 74.0699 14.5892 73.6639 14.3168 73.251L13.5656 73.7467ZM63.1929 75.494C63.5027 75.0894 63.8021 74.6774 64.0911 74.2579L63.3501 73.7474C63.0696 74.1544 62.779 74.5542 62.4783 74.9469L63.1929 75.494ZM15.3732 76.2092C15.6942 76.6036 16.0248 76.9897 16.3651 77.3676L17.034 76.7654C16.7037 76.3986 16.3828 76.0238 16.0712 75.641L15.3732 76.2092ZM61.2206 77.8202C61.5684 77.4492 61.9066 77.0699 62.2353 76.6821L61.5489 76.1001C61.2298 76.4764 60.9015 76.8446 60.564 77.2047L61.2206 77.8202ZM17.413 78.4747C17.7715 78.8351 18.1387 79.1862 18.5147 79.5284L19.1204 78.8627C18.7554 78.5307 18.399 78.1898 18.0511 77.8401L17.413 78.4747ZM59.028 79.9375C59.4108 79.6031 59.7851 79.2592 60.1508 78.906L59.5256 78.2586C59.1707 78.6014 58.8074 78.9352 58.4358 79.2599L59.028 79.9375ZM19.6679 80.5263C20.0611 80.8498 20.4619 81.1632 20.8706 81.4665L21.407 80.7438C21.0103 80.4494 20.6213 80.1452 20.2397 79.8314L19.6679 80.5263ZM56.6327 81.8286C57.0476 81.5334 57.4549 81.228 57.8547 80.9124L57.297 80.2061C56.909 80.5124 56.5137 80.8087 56.111 81.0951L56.6327 81.8286ZM22.1205 82.3465C22.5454 82.6301 22.9771 82.9026 23.4155 83.1644L23.8768 82.3916C23.4514 82.1376 23.0324 81.8731 22.6201 81.5979L22.1205 82.3465ZM54.0518 83.4761C54.4959 83.2231 54.9334 82.959 55.3643 82.6837L54.8801 81.9252C54.4619 82.1922 54.0373 82.4485 53.6063 82.694L54.0518 83.4761ZM24.7535 83.918C25.2074 84.1586 25.6669 84.3876 26.1321 84.6048L26.513 83.7894C26.0616 83.5786 25.6156 83.3564 25.1751 83.1228L24.7535 83.918ZM51.3026 84.8625C51.773 84.6545 52.2378 84.4346 52.6971 84.2029L52.2918 83.3994C51.846 83.6243 51.395 83.8376 50.9387 84.0393L51.3026 84.8625ZM27.5394 85.2191C28.0074 85.4093 28.4798 85.5878 28.9565 85.7542L29.2533 84.9045C28.7907 84.743 28.3324 84.5699 27.8784 84.3853L27.5394 85.2191ZM48.4646 85.9505C48.9457 85.7933 49.4225 85.6241 49.895 85.443L49.5729 84.6026C49.1144 84.7783 48.6518 84.9424 48.185 85.0948L48.4646 85.9505ZM30.4061 86.2198C30.8961 86.3638 31.3895 86.4952 31.8863 86.6142L32.0958 85.7388C31.6138 85.6234 31.1351 85.4959 30.6597 85.3563L30.4061 86.2198ZM45.5103 86.7523C46.0108 86.6433 46.5082 86.5218 47.0024 86.3876L46.7664 85.5191C46.287 85.6492 45.8045 85.7673 45.3189 85.873L45.5103 86.7523ZM33.3792 86.9319C33.8732 87.0241 34.3696 87.104 34.8683 87.1718L34.9893 86.2798C34.5054 86.2142 34.0238 86.1367 33.5444 86.0472L33.3792 86.9319ZM42.5264 87.248C43.0281 87.19 43.5276 87.1198 44.025 87.0372L43.8776 86.1494C43.3949 86.2296 42.9101 86.2977 42.4233 86.3538L42.5264 87.248ZM36.3803 87.3387C36.8899 87.3821 37.401 87.4128 37.9136 87.4308L37.9451 86.5314C37.4475 86.5139 36.9514 86.4841 36.4568 86.4418L36.3803 87.3387ZM39.4644 87.4464C39.9795 87.4387 40.4933 87.4182 41.0057 87.3849L40.9472 86.4868C40.4497 86.5191 39.9509 86.539 39.4509 86.5466L39.4644 87.4464Z"></path></g><path d="M66.0005 56.9999C66.0005 71.9116 53.9121 83.9998 39.0003 83.9998C24.0884 83.9998 12 71.9116 12 56.9999C12 42.0883 24.0884 30 39.0003 30C53.9121 30 66.0005 42.0883 66.0005 56.9999Z"   fill="#FFFFFF" ></path><path d="M66.5999 57.0003C66.5999 72.2433 54.2428 84.6002 38.9997 84.6002C23.7565 84.6002 11.3994 72.2433 11.3994 57.0003C11.3994 41.7573 23.7565 29.4004 38.9997 29.4004C54.2428 29.4004 66.5999 41.7573 66.5999 57.0003ZM65.9999 57.0003C65.9999 71.9119 53.9115 84.0002 38.9997 84.0002C24.0878 84.0002 11.9994 71.9119 11.9994 57.0003C11.9994 42.0887 24.0878 30.0004 38.9997 30.0004C53.9115 30.0004 65.9999 42.0887 65.9999 57.0003Z" fill-rule="evenodd"  fill="#495AD4" ></path><path d="M60.3761 40.5013L18 40.5013L18 40.0281C22.95 33.9111 30.5187 30 39.0009 30C47.6999 30 55.4379 34.1135 60.3761 40.5013Z" fill-rule="evenodd"  fill="#DFE1ED" ></path><path d="M66.0019 57.0001L66.0019 56.9984C66.0019 53.8434 65.4607 50.8147 64.4662 48.0001L18 48.0001L18 57.0001L66.0019 57.0001Z" fill-rule="evenodd"  fill="#9EA7E8" ></path><path d="M65.8369 60.0003C65.4828 63.2024 64.5685 66.2358 63.1944 69.0002L18 69.0002L18 60.0003L65.8369 60.0003Z" fill-rule="evenodd"  fill="#ABDEF7" ></path><path     fill="#131926"  d="M21.0213 54.8109L21.6586 54.8109L21.6586 50.3223L23.1799 50.3223L23.1799 49.7878L19.5 49.7878L19.5 50.3223L21.0213 50.3223L21.0213 54.8109Z"></path><path     fill="#131926"  d="M24.0228 54.8109L24.6533 54.8109L24.6533 51.0898L24.0228 51.0898L24.0228 54.8109ZM24.3381 50.3223C24.5848 50.3223 24.7561 50.1579 24.7561 49.9043C24.7561 49.6645 24.5848 49.5 24.3381 49.5C24.0914 49.5 23.9269 49.6645 23.9269 49.9043C23.9269 50.1579 24.0914 50.3223 24.3381 50.3223Z"></path><path     fill="#131926"  d="M25.9074 54.8109L26.5378 54.8109L26.5378 52.1109C26.8736 51.7272 27.1888 51.5421 27.4698 51.5421C27.9426 51.5421 28.1619 51.8368 28.1619 52.5358L28.1619 54.8109L28.7855 54.8109L28.7855 52.1109C29.135 51.7272 29.4365 51.5421 29.7244 51.5421C30.1972 51.5421 30.4165 51.8368 30.4165 52.5358L30.4165 54.8109L31.0401 54.8109L31.0401 52.4536C31.0401 51.5079 30.6769 50.9939 29.9162 50.9939C29.4571 50.9939 29.0733 51.2886 28.6827 51.7066C28.532 51.268 28.2305 50.9939 27.6548 50.9939C27.2094 50.9939 26.8256 51.2749 26.4967 51.6312L26.483 51.6312L26.4213 51.0898L25.9074 51.0898L25.9074 54.8109Z"></path><path     fill="#131926"  d="M33.7607 54.9C34.2609 54.9 34.6584 54.7355 34.9805 54.5231L34.7612 54.1051C34.4802 54.2901 34.1924 54.3997 33.8292 54.3997C33.1234 54.3997 32.6368 53.8926 32.5957 53.0977L35.1038 53.0977C35.1175 53.0018 35.1312 52.8784 35.1312 52.7414C35.1312 51.6792 34.5967 50.9939 33.6442 50.9939C32.7944 50.9939 31.9789 51.7409 31.9789 52.9538C31.9789 54.1805 32.767 54.9 33.7607 54.9ZM32.5888 52.6523C32.6642 51.9122 33.1302 51.4942 33.6579 51.4942C34.2404 51.4942 34.583 51.8985 34.583 52.6523L32.5888 52.6523Z"></path><path     fill="#131926"  d="M37.0226 54.9C37.8997 54.9 38.3726 54.3997 38.3726 53.7967C38.3726 53.0909 37.7832 52.8716 37.2419 52.666C36.8239 52.5084 36.4401 52.3713 36.4401 52.0218C36.4401 51.7272 36.6594 51.4805 37.1322 51.4805C37.4612 51.4805 37.7216 51.6244 37.9751 51.8094L38.2766 51.4188C37.9957 51.1858 37.5845 50.9939 37.1254 50.9939C36.3099 50.9939 35.8439 51.4599 35.8439 52.0492C35.8439 52.6866 36.4058 52.9333 36.9267 53.1251C37.3378 53.2759 37.7764 53.4541 37.7764 53.831C37.7764 54.153 37.5365 54.4135 37.0431 54.4135C36.5977 54.4135 36.2688 54.2353 35.9398 53.968L35.6383 54.386C35.9878 54.6807 36.4949 54.9 37.0226 54.9Z"></path><path     fill="#131926"  d="M40.7642 54.9C41.2645 54.9 41.6619 54.7355 41.984 54.5231L41.7647 54.1051C41.4838 54.2901 41.1959 54.3997 40.8327 54.3997C40.1269 54.3997 39.6404 53.8926 39.5992 53.0977L42.1074 53.0977C42.1211 53.0018 42.1348 52.8784 42.1348 52.7414C42.1348 51.6792 41.6003 50.9939 40.6477 50.9939C39.798 50.9939 38.9825 51.7409 38.9825 52.9538C38.9825 54.1805 39.7706 54.9 40.7642 54.9ZM39.5924 52.6523C39.6678 51.9122 40.1338 51.4942 40.6614 51.4942C41.2439 51.4942 41.5865 51.8985 41.5865 52.6523L39.5924 52.6523Z"></path><path     fill="#131926"  d="M43.053 54.8109L43.6835 54.8109L43.6835 52.4193C43.9302 51.7888 44.3071 51.5558 44.6155 51.5558C44.7731 51.5558 44.8553 51.5764 44.9787 51.6175L45.0952 51.0761C44.9787 51.0145 44.8622 50.9939 44.6977 50.9939C44.2865 50.9939 43.9028 51.2954 43.6424 51.7683L43.6287 51.7683L43.567 51.0898L43.053 51.0898L43.053 54.8109Z"></path><path     fill="#131926"  d="M45.7119 54.8109L46.3424 54.8109L46.3424 51.0898L45.7119 51.0898L45.7119 54.8109ZM46.0272 50.3223C46.2739 50.3223 46.4452 50.1579 46.4452 49.9043C46.4452 49.6645 46.2739 49.5 46.0272 49.5C45.7805 49.5 45.616 49.6645 45.616 49.9043C45.616 50.1579 45.7805 50.3223 46.0272 50.3223Z"></path><path     fill="#131926"  d="M49.1041 54.9C49.6043 54.9 50.0018 54.7355 50.3239 54.5231L50.1046 54.1051C49.8236 54.2901 49.5358 54.3997 49.1726 54.3997C48.4668 54.3997 47.9802 53.8926 47.9391 53.0977L50.4472 53.0977C50.4609 53.0018 50.4746 52.8784 50.4746 52.7414C50.4746 51.6792 49.9401 50.9939 48.9876 50.9939C48.1378 50.9939 47.3223 51.7409 47.3223 52.9538C47.3223 54.1805 48.1104 54.9 49.1041 54.9ZM47.9322 52.6523C48.0076 51.9122 48.4736 51.4942 49.0013 51.4942C49.5838 51.4942 49.9264 51.8985 49.9264 52.6523L47.9322 52.6523Z"></path><path     fill="#131926"  d="M52.366 54.9C53.2431 54.9 53.716 54.3997 53.716 53.7967C53.716 53.0909 53.1266 52.8716 52.5853 52.666C52.1673 52.5084 51.7835 52.3713 51.7835 52.0218C51.7835 51.7272 52.0028 51.4805 52.4756 51.4805C52.8046 51.4805 53.065 51.6244 53.3185 51.8094L53.62 51.4188C53.3391 51.1858 52.9279 50.9939 52.4688 50.9939C51.6533 50.9939 51.1873 51.4599 51.1873 52.0492C51.1873 52.6866 51.7492 52.9333 52.27 53.1251C52.6812 53.2759 53.1198 53.4541 53.1198 53.831C53.1198 54.153 52.8799 54.4135 52.3865 54.4135C51.9411 54.4135 51.6122 54.2353 51.2832 53.968L50.9817 54.386C51.3312 54.6807 51.8383 54.9 52.366 54.9Z"></path><path     fill="#131926"  d=""></path><path     fill="#131926"  d="M56.2691 54.8109L59.0239 54.8109L59.0239 54.2901L58.0165 54.2901L58.0165 49.7878L57.5368 49.7878C57.2627 49.9454 56.9406 50.0619 56.4952 50.1442L56.4952 50.5416L57.3929 50.5416L57.3929 54.2901L56.2691 54.2901L56.2691 54.8109Z"></path><path     fill="#131926"  d="M21.0213 66.8109L21.6586 66.8109L21.6586 62.3223L23.1799 62.3223L23.1799 61.7878L19.5 61.7878L19.5 62.3223L21.0213 62.3223L21.0213 66.8109Z"></path><path     fill="#131926"  d="M24.0228 66.8109L24.6533 66.8109L24.6533 63.0898L24.0228 63.0898L24.0228 66.8109ZM24.3381 62.3223C24.5848 62.3223 24.7561 62.1579 24.7561 61.9043C24.7561 61.6645 24.5848 61.5 24.3381 61.5C24.0914 61.5 23.9269 61.6645 23.9269 61.9043C23.9269 62.1579 24.0914 62.3223 24.3381 62.3223Z"></path><path     fill="#131926"  d="M25.9074 66.8109L26.5378 66.8109L26.5378 64.1109C26.8736 63.7272 27.1888 63.5421 27.4698 63.5421C27.9426 63.5421 28.1619 63.8368 28.1619 64.5358L28.1619 66.8109L28.7855 66.8109L28.7855 64.1109C29.135 63.7272 29.4365 63.5421 29.7244 63.5421C30.1972 63.5421 30.4165 63.8368 30.4165 64.5358L30.4165 66.8109L31.0401 66.8109L31.0401 64.4536C31.0401 63.5079 30.6769 62.9939 29.9162 62.9939C29.4571 62.9939 29.0733 63.2886 28.6827 63.7066C28.532 63.268 28.2305 62.9939 27.6548 62.9939C27.2094 62.9939 26.8256 63.2749 26.4967 63.6312L26.483 63.6312L26.4213 63.0898L25.9074 63.0898L25.9074 66.8109Z"></path><path     fill="#131926"  d="M33.7607 66.9C34.2609 66.9 34.6584 66.7355 34.9805 66.5231L34.7612 66.1051C34.4802 66.2901 34.1924 66.3997 33.8292 66.3997C33.1234 66.3997 32.6368 65.8926 32.5957 65.0977L35.1038 65.0977C35.1175 65.0018 35.1312 64.8784 35.1312 64.7414C35.1312 63.6792 34.5967 62.9939 33.6442 62.9939C32.7944 62.9939 31.9789 63.7409 31.9789 64.9538C31.9789 66.1805 32.767 66.9 33.7607 66.9ZM32.5888 64.6523C32.6642 63.9122 33.1302 63.4942 33.6579 63.4942C34.2404 63.4942 34.583 63.8985 34.583 64.6523L32.5888 64.6523Z"></path><path     fill="#131926"  d="M37.0226 66.9C37.8997 66.9 38.3726 66.3997 38.3726 65.7967C38.3726 65.0909 37.7832 64.8716 37.2419 64.666C36.8239 64.5084 36.4401 64.3713 36.4401 64.0218C36.4401 63.7272 36.6594 63.4805 37.1322 63.4805C37.4612 63.4805 37.7216 63.6244 37.9751 63.8094L38.2766 63.4188C37.9957 63.1858 37.5845 62.9939 37.1254 62.9939C36.3099 62.9939 35.8439 63.4599 35.8439 64.0492C35.8439 64.6865 36.4058 64.9333 36.9267 65.1251C37.3378 65.2759 37.7764 65.4541 37.7764 65.831C37.7764 66.153 37.5365 66.4135 37.0431 66.4135C36.5977 66.4135 36.2688 66.2353 35.9398 65.968L35.6383 66.386C35.9878 66.6807 36.4949 66.9 37.0226 66.9Z"></path><path     fill="#131926"  d="M40.7642 66.9C41.2645 66.9 41.6619 66.7355 41.984 66.5231L41.7647 66.1051C41.4838 66.2901 41.1959 66.3997 40.8327 66.3997C40.1269 66.3997 39.6404 65.8926 39.5992 65.0977L42.1074 65.0977C42.1211 65.0018 42.1348 64.8784 42.1348 64.7414C42.1348 63.6792 41.6003 62.9939 40.6477 62.9939C39.798 62.9939 38.9825 63.7409 38.9825 64.9538C38.9825 66.1805 39.7706 66.9 40.7642 66.9ZM39.5924 64.6523C39.6678 63.9122 40.1338 63.4942 40.6614 63.4942C41.2439 63.4942 41.5865 63.8985 41.5865 64.6523L39.5924 64.6523Z"></path><path     fill="#131926"  d="M43.053 66.8109L43.6835 66.8109L43.6835 64.4193C43.9302 63.7888 44.3071 63.5558 44.6155 63.5558C44.7731 63.5558 44.8553 63.5764 44.9787 63.6175L45.0952 63.0761C44.9787 63.0145 44.8622 62.9939 44.6977 62.9939C44.2865 62.9939 43.9028 63.2954 43.6424 63.7683L43.6287 63.7683L43.567 63.0898L43.053 63.0898L43.053 66.8109Z"></path><path     fill="#131926"  d="M45.7119 66.8109L46.3424 66.8109L46.3424 63.0898L45.7119 63.0898L45.7119 66.8109ZM46.0272 62.3223C46.2739 62.3223 46.4452 62.1579 46.4452 61.9043C46.4452 61.6645 46.2739 61.5 46.0272 61.5C45.7805 61.5 45.616 61.6645 45.616 61.9043C45.616 62.1579 45.7805 62.3223 46.0272 62.3223Z"></path><path     fill="#131926"  d="M49.1041 66.9C49.6043 66.9 50.0018 66.7355 50.3239 66.5231L50.1046 66.1051C49.8236 66.2901 49.5358 66.3997 49.1726 66.3997C48.4668 66.3997 47.9802 65.8926 47.9391 65.0977L50.4472 65.0977C50.4609 65.0018 50.4746 64.8784 50.4746 64.7414C50.4746 63.6792 49.9401 62.9939 48.9876 62.9939C48.1378 62.9939 47.3223 63.7409 47.3223 64.9538C47.3223 66.1805 48.1104 66.9 49.1041 66.9ZM47.9322 64.6523C48.0076 63.9122 48.4736 63.4942 49.0013 63.4942C49.5838 63.4942 49.9264 63.8985 49.9264 64.6523L47.9322 64.6523Z"></path><path     fill="#131926"  d="M52.366 66.9C53.2431 66.9 53.716 66.3997 53.716 65.7967C53.716 65.0909 53.1267 64.8716 52.5853 64.666C52.1673 64.5084 51.7835 64.3713 51.7835 64.0218C51.7835 63.7272 52.0028 63.4805 52.4756 63.4805C52.8046 63.4805 53.065 63.6244 53.3185 63.8094L53.6201 63.4188C53.3391 63.1858 52.9279 62.9939 52.4688 62.9939C51.6533 62.9939 51.1873 63.4599 51.1873 64.0492C51.1873 64.6865 51.7492 64.9333 52.2701 65.1251C52.6812 65.2759 53.1198 65.4541 53.1198 65.831C53.1198 66.153 52.8799 66.4135 52.3865 66.4135C51.9411 66.4135 51.6122 66.2353 51.2832 65.968L50.9817 66.386C51.3312 66.6807 51.8383 66.9 52.366 66.9Z"></path><path     fill="#131926"  d=""></path><path     fill="#131926"  d="M55.9675 66.8109L59.1267 66.8109L59.1267 66.2695L57.7356 66.2695C57.482 66.2695 57.1736 66.297 56.9132 66.3175C58.0919 65.2005 58.8868 64.1794 58.8868 63.1721C58.8868 62.2812 58.318 61.6987 57.4203 61.6987C56.783 61.6987 56.3444 61.9865 55.9401 62.432L56.3033 62.7883C56.5843 62.4525 56.9338 62.2058 57.3449 62.2058C57.9685 62.2058 58.2701 62.6239 58.2701 63.1995C58.2701 64.0629 57.5437 65.0635 55.9675 66.4409L55.9675 66.8109Z"></path><path d="M81.9275 20.3042L78.4092 12.564L77.5898 12.9364L81.3398 21.1864L81.5715 21.6961L82.0195 21.3602L84.7495 19.3127L87.4795 21.3602L87.6977 21.5238L87.9437 21.4061L104.963 13.2665L122.75 25.1246L123.034 25.3137L123.292 25.0919L138.792 11.806L154.263 21.3828L154.399 21.4671L154.558 21.4464L171.734 19.206L182.911 21.4414L183.024 21.464L183.134 21.4295L221.384 9.42953L221.115 8.5708L182.975 20.5363L171.838 18.3089L171.765 18.2943L171.691 18.3039L154.6 20.5332L138.986 10.8675L138.707 10.6943L138.457 10.9085L122.965 24.1866L105.249 12.3757L105.036 12.2338L104.805 12.3442L87.8013 20.4765L85.0195 18.3902L84.7495 18.1877L84.4795 18.3902L81.9275 20.3042Z" fill-rule="evenodd"  fill="#495AD4" ></path><path d="M46.9952 66.75L60.9904 75.9904L55.0442 77.6913L58.0442 82.8875L55.4462 84.3875L52.4462 79.1913L48 83.4904L46.9952 66.75Z"   fill="#FFFFFF" ></path><path d="M46.2468 66.7953L46.1569 65.298L47.4087 66.1245L61.4038 75.3649L62.7647 76.2633L61.1969 76.7119L56.1743 78.1486L59.069 83.1624L55.1719 85.4124L52.2772 80.3986L48.5216 84.03L47.3493 85.1634L47.2516 83.5357L46.2468 66.7953ZM47.834 68.2027L48.6512 81.8181L51.9251 78.6525L52.6156 77.9848L55.7209 83.3633L57.02 82.6133L53.9147 77.2348L54.8382 76.9706L59.2166 75.7182L47.834 68.2027Z" fill-rule="evenodd"  fill="#000000" ></path><path d="M44.9283 75.2443C44.9294 75.2432 44.9294 75.2421 44.9305 75.241C44.9338 75.2366 44.9371 75.2311 44.9393 75.2267C44.9404 75.2256 44.9415 75.2234 44.9426 75.2223C44.9448 75.2179 44.9482 75.2134 44.9504 75.2079C44.9515 75.2057 44.9526 75.2046 44.9526 75.2024C44.9548 75.198 44.957 75.1925 44.9592 75.1881C44.9603 75.187 44.9603 75.1848 44.9614 75.1837C44.9636 75.1781 44.9658 75.1737 44.968 75.1682C44.9691 75.1671 44.9691 75.1649 44.9702 75.1638C44.9724 75.1583 44.9746 75.1528 44.9757 75.1484C44.9757 75.1473 44.9768 75.1462 44.9768 75.1451C44.979 75.1395 44.9801 75.134 44.9823 75.1285C44.9823 75.1274 44.9835 75.1263 44.9835 75.1252C44.9857 75.1197 44.9868 75.1142 44.9879 75.1076C44.9879 75.1064 44.9879 75.1053 44.989 75.1042C44.9901 75.0987 44.9912 75.0921 44.9934 75.0866C44.9934 75.0855 44.9934 75.0844 44.9945 75.0833C44.9956 75.0778 44.9967 75.0723 44.9978 75.0656C44.9978 75.0634 44.9978 75.0623 44.9989 75.0601C45 75.0546 45 75.0491 45.0011 75.0447C45.0011 75.0414 45.0011 75.0392 45.0022 75.0359C45.0033 75.0248 45.0033 75.0138 45.0033 75.0028L45.0033 75.0005C45.0033 74.9928 45.0033 74.9862 45.0033 74.9785C45.0033 74.9763 45.0033 74.9741 45.0022 74.9719C45.0022 74.9675 45.0011 74.9619 45.0011 74.9564C45.0011 74.9531 45 74.9498 45 74.9476C45 74.9432 44.9989 74.9399 44.9989 74.9355C44.9989 74.9322 44.9978 74.9288 44.9967 74.9255C44.9956 74.9222 44.9956 74.9178 44.9945 74.9145C44.9934 74.9112 44.9934 74.9079 44.9923 74.9046C44.9912 74.9013 44.9901 74.8969 44.9901 74.8936C44.989 74.8902 44.989 74.888 44.9879 74.8847C44.9868 74.8803 44.9857 74.877 44.9846 74.8726L44.9823 74.8649C44.9812 74.8605 44.979 74.856 44.9779 74.8516L44.9757 74.8461C44.9735 74.8406 44.9713 74.8362 44.9702 74.8307C44.9702 74.8296 44.9691 74.8285 44.9691 74.8274C44.9669 74.8219 44.9647 74.8163 44.9614 74.8108C44.9614 74.8108 44.9614 74.8097 44.9603 74.8097C44.9393 74.7656 44.9095 74.7248 44.8754 74.6895L43.7822 73.5963C43.6101 73.4243 43.331 73.4243 43.1579 73.5963C42.9858 73.7684 42.9858 74.0475 43.1579 74.2207L43.4976 74.5604L40.9418 74.5604L40.9418 72.0068L41.2815 72.3465C41.3676 72.4326 41.4801 72.4756 41.5937 72.4756C41.7062 72.4756 41.8198 72.4326 41.9059 72.3465C42.0779 72.1745 42.0779 71.8954 41.9059 71.7222L40.8127 70.6291C40.7885 70.6048 40.762 70.5838 40.7333 70.5662C40.7322 70.5651 40.73 70.564 40.7289 70.5629C40.7256 70.5607 40.7223 70.5585 40.719 70.5574C40.7157 70.5552 40.7134 70.5541 40.7101 70.5518C40.7079 70.5507 40.7057 70.5496 40.7035 70.5485C40.6991 70.5463 40.6947 70.5441 40.6903 70.5419C40.6892 70.5408 40.687 70.5408 40.6859 70.5397C40.6804 70.5375 40.6748 70.5353 40.6704 70.5331C40.6704 70.5331 40.6693 70.5331 40.6693 70.532C40.644 70.521 40.6164 70.5132 40.5888 70.5077L40.5888 70.5077C40.5822 70.5066 40.5745 70.5055 40.5678 70.5044L40.5634 70.5044C40.5579 70.5033 40.5513 70.5033 40.5458 70.5022C40.5425 70.5022 40.5381 70.5022 40.5347 70.5011C40.5314 70.5011 40.527 70.5 40.5237 70.5C40.516 70.5 40.5094 70.5 40.5017 70.5C40.4994 70.5 40.4961 70.5 40.4939 70.5C40.4895 70.5 40.4851 70.5 40.4807 70.5C40.366 70.5055 40.2623 70.5552 40.1873 70.6324L39.0974 71.7222C38.9254 71.8943 38.9254 72.1734 39.0974 72.3465C39.2695 72.5186 39.5486 72.5186 39.7218 72.3465L40.0615 72.0068L40.0615 74.5593L37.5068 74.5593L37.8465 74.2196C38.0186 74.0475 38.0186 73.7684 37.8465 73.5952C37.6745 73.4221 37.3954 73.4231 37.2222 73.5952L36.1324 74.6851C36.0552 74.7601 36.0055 74.8638 36 74.9785C36 74.9829 36 74.9873 36 74.9917C36 74.9939 36 74.9972 36 74.9995C36 75.0072 36 75.0138 36 75.0215C36 75.0248 36.0011 75.0292 36.0011 75.0325C36.0011 75.0359 36.0011 75.0403 36.0022 75.0436C36.0033 75.0491 36.0033 75.0557 36.0044 75.0612C36.0044 75.0623 36.0044 75.0634 36.0044 75.0656C36.0055 75.0723 36.0066 75.08 36.0077 75.0866L36.0077 75.0866C36.0132 75.1153 36.0221 75.1417 36.032 75.1682C36.032 75.1682 36.032 75.1693 36.0331 75.1693C36.0353 75.1748 36.0375 75.1804 36.0397 75.1848C36.0408 75.1859 36.0408 75.187 36.0419 75.1892C36.0441 75.1936 36.0463 75.198 36.0485 75.2024C36.0496 75.2046 36.0507 75.2068 36.0518 75.209C36.0529 75.2123 36.0552 75.2145 36.0574 75.2179C36.0596 75.2212 36.0618 75.2245 36.0629 75.2278C36.064 75.2289 36.0651 75.2311 36.0662 75.2322C36.0838 75.2609 36.1048 75.2874 36.1291 75.3116L37.2222 76.4048C37.3083 76.4908 37.4208 76.5338 37.5344 76.5338C37.6469 76.5338 37.7605 76.4908 37.8465 76.4048C38.0186 76.2327 38.0186 75.9536 37.8465 75.7804L37.5068 75.4418L40.0593 75.4418L40.0593 77.9943L39.7196 77.6546C39.5475 77.4825 39.2673 77.4825 39.0952 77.6546C38.9232 77.8266 38.9232 78.1057 39.0952 78.2789L40.1884 79.372C40.2248 79.4084 40.2645 79.436 40.3086 79.457L40.3097 79.4581C40.3152 79.4603 40.3208 79.4636 40.3263 79.4658L40.3296 79.4669C40.334 79.4691 40.3395 79.4713 40.345 79.4724C40.3472 79.4735 40.3494 79.4735 40.3505 79.4746C40.3549 79.4757 40.3594 79.4779 40.3638 79.479C40.366 79.4801 40.3693 79.4812 40.3715 79.4812C40.3759 79.4824 40.3792 79.4835 40.3836 79.4846C40.3869 79.4857 40.3902 79.4868 40.3924 79.4868C40.3958 79.4879 40.4002 79.489 40.4035 79.489C40.4068 79.4901 40.4101 79.4901 40.4134 79.4912C40.4167 79.4923 40.4211 79.4923 40.4244 79.4934C40.4277 79.4945 40.4311 79.4945 40.4355 79.4956C40.4399 79.4967 40.4432 79.4967 40.4476 79.4967C40.4509 79.4967 40.4542 79.4978 40.4575 79.4978C40.4619 79.4978 40.4675 79.4989 40.4719 79.4989C40.4741 79.4989 40.4763 79.4989 40.4796 79.5C40.4873 79.5 40.4939 79.5 40.5017 79.5C40.5028 79.5 40.5039 79.5 40.505 79.5C40.5116 79.5 40.5171 79.5 40.5237 79.5C40.5281 79.5 40.5325 79.4989 40.537 79.4989C40.5392 79.4989 40.5425 79.4989 40.5447 79.4978C40.5502 79.4978 40.5557 79.4967 40.5612 79.4956C40.5623 79.4956 40.5645 79.4956 40.5656 79.4945C40.5711 79.4934 40.5778 79.4923 40.5833 79.4912C40.5844 79.4912 40.5855 79.4912 40.5866 79.4901C40.5921 79.489 40.5987 79.4879 40.6042 79.4857C40.6053 79.4857 40.6064 79.4857 40.6076 79.4846C40.6131 79.4835 40.6197 79.4812 40.6252 79.4801L40.6285 79.479C40.634 79.4768 40.6395 79.4757 40.6462 79.4735C40.6473 79.4735 40.6484 79.4724 40.6495 79.4724C40.655 79.4702 40.6605 79.468 40.666 79.4658L40.6704 79.4647C40.6759 79.4625 40.6804 79.4603 40.6859 79.4581C40.687 79.457 40.6892 79.457 40.6903 79.4559C40.6947 79.4537 40.7002 79.4515 40.7046 79.4482C40.7057 79.4471 40.7079 79.4471 40.709 79.446C40.7134 79.4437 40.719 79.4404 40.7234 79.4382C40.7245 79.4371 40.7267 79.436 40.7278 79.436C40.7322 79.4327 40.7377 79.4305 40.7421 79.4272C40.7432 79.4261 40.7443 79.4261 40.7454 79.425C40.7509 79.4217 40.7565 79.4173 40.762 79.414L40.7631 79.4129C40.7829 79.3985 40.8006 79.3831 40.8171 79.3654L41.907 78.2756C42.0791 78.1035 42.0791 77.8244 41.907 77.6512C41.7349 77.4792 41.4558 77.4792 41.2826 77.6512L40.9418 77.9943L40.9418 75.4418L43.4943 75.4418L43.1546 75.7815C42.9825 75.9536 42.9825 76.2327 43.1546 76.4059C43.2406 76.4919 43.3531 76.5349 43.4667 76.5349C43.5792 76.5349 43.6929 76.4919 43.7789 76.4059L44.8687 75.316C44.8853 75.2995 44.9018 75.2807 44.9162 75.262L44.9173 75.2609C44.9206 75.2543 44.9239 75.2498 44.9283 75.2443Z"   fill="#000000" ></path><path d="M93 22.5L142.5 22.5L142.5 31.4999L93 31.4999L93 22.5Z"   fill="#ABDEF7" ></path><path     fill="#131926"  d="M97.5213 29.3109L98.1586 29.3109L98.1586 24.8223L99.6799 24.8223L99.6799 24.2878L96 24.2878L96 24.8223L97.5213 24.8223L97.5213 29.3109Z"></path><path     fill="#131926"  d="M100.523 29.3109L101.153 29.3109L101.153 25.5898L100.523 25.5898L100.523 29.3109ZM100.838 24.8223C101.085 24.8223 101.256 24.6579 101.256 24.4043C101.256 24.1645 101.085 24 100.838 24C100.591 24 100.427 24.1645 100.427 24.4043C100.427 24.6579 100.591 24.8223 100.838 24.8223Z"></path><path     fill="#131926"  d="M102.407 29.3109L103.038 29.3109L103.038 26.6109C103.374 26.2272 103.689 26.0421 103.97 26.0421C104.443 26.0421 104.662 26.3368 104.662 27.0358L104.662 29.3109L105.286 29.3109L105.286 26.6109C105.635 26.2272 105.937 26.0421 106.224 26.0421C106.697 26.0421 106.916 26.3368 106.916 27.0358L106.916 29.3109L107.54 29.3109L107.54 26.9536C107.54 26.0079 107.177 25.4939 106.416 25.4939C105.957 25.4939 105.573 25.7886 105.183 26.2066C105.032 25.768 104.73 25.4939 104.155 25.4939C103.709 25.4939 103.326 25.7749 102.997 26.1312L102.983 26.1312L102.921 25.5898L102.407 25.5898L102.407 29.3109Z"></path><path     fill="#131926"  d="M110.261 29.4C110.761 29.4 111.158 29.2355 111.48 29.0231L111.261 28.6051C110.98 28.7901 110.692 28.8997 110.329 28.8997C109.623 28.8997 109.137 28.3926 109.096 27.5977L111.604 27.5977C111.618 27.5018 111.631 27.3784 111.631 27.2414C111.631 26.1792 111.097 25.4939 110.144 25.4939C109.294 25.4939 108.479 26.2409 108.479 27.4538C108.479 28.6805 109.267 29.4 110.261 29.4ZM109.089 27.1523C109.164 26.4122 109.63 25.9942 110.158 25.9942C110.74 25.9942 111.083 26.3985 111.083 27.1523L109.089 27.1523Z"></path><path     fill="#131926"  d="M113.523 29.4C114.4 29.4 114.873 28.8997 114.873 28.2967C114.873 27.5909 114.283 27.3716 113.742 27.166C113.324 27.0084 112.94 26.8713 112.94 26.5218C112.94 26.2272 113.159 25.9805 113.632 25.9805C113.961 25.9805 114.222 26.1244 114.475 26.3094L114.777 25.9188C114.496 25.6858 114.085 25.4939 113.625 25.4939C112.81 25.4939 112.344 25.9599 112.344 26.5492C112.344 27.1865 112.906 27.4332 113.427 27.6251C113.838 27.7759 114.276 27.9541 114.276 28.331C114.276 28.653 114.037 28.9135 113.543 28.9135C113.098 28.9135 112.769 28.7353 112.44 28.468L112.138 28.886C112.488 29.1807 112.995 29.4 113.523 29.4Z"></path><path     fill="#131926"  d="M117.264 29.4C117.764 29.4 118.162 29.2355 118.484 29.0231L118.265 28.6051C117.984 28.7901 117.696 28.8997 117.333 28.8997C116.627 28.8997 116.14 28.3926 116.099 27.5977L118.607 27.5977C118.621 27.5018 118.635 27.3784 118.635 27.2414C118.635 26.1792 118.1 25.4939 117.148 25.4939C116.298 25.4939 115.482 26.2409 115.482 27.4538C115.482 28.6805 116.271 29.4 117.264 29.4ZM116.092 27.1523C116.168 26.4122 116.634 25.9942 117.161 25.9942C117.744 25.9942 118.087 26.3985 118.087 27.1523L116.092 27.1523Z"></path><path     fill="#131926"  d="M119.553 29.3109L120.184 29.3109L120.184 26.9193C120.43 26.2888 120.807 26.0558 121.115 26.0558C121.273 26.0558 121.355 26.0764 121.479 26.1175L121.595 25.5761C121.479 25.5145 121.362 25.4939 121.198 25.4939C120.787 25.4939 120.403 25.7954 120.142 26.2683L120.129 26.2683L120.067 25.5898L119.553 25.5898L119.553 29.3109Z"></path><path     fill="#131926"  d="M122.212 29.3109L122.842 29.3109L122.842 25.5898L122.212 25.5898L122.212 29.3109ZM122.527 24.8223C122.774 24.8223 122.945 24.6579 122.945 24.4043C122.945 24.1645 122.774 24 122.527 24C122.28 24 122.116 24.1645 122.116 24.4043C122.116 24.6579 122.28 24.8223 122.527 24.8223Z"></path><path     fill="#131926"  d="M125.604 29.4C126.104 29.4 126.502 29.2355 126.824 29.0231L126.605 28.6051C126.324 28.7901 126.036 28.8997 125.673 28.8997C124.967 28.8997 124.48 28.3926 124.439 27.5977L126.947 27.5977C126.961 27.5018 126.975 27.3784 126.975 27.2414C126.975 26.1792 126.44 25.4939 125.488 25.4939C124.638 25.4939 123.822 26.2409 123.822 27.4538C123.822 28.6805 124.61 29.4 125.604 29.4ZM124.432 27.1523C124.508 26.4122 124.974 25.9942 125.501 25.9942C126.084 25.9942 126.426 26.3985 126.426 27.1523L124.432 27.1523Z"></path><path     fill="#131926"  d="M128.866 29.4C129.743 29.4 130.216 28.8997 130.216 28.2967C130.216 27.5909 129.627 27.3716 129.085 27.166C128.667 27.0084 128.284 26.8713 128.284 26.5218C128.284 26.2272 128.503 25.9805 128.976 25.9805C129.305 25.9805 129.565 26.1244 129.819 26.3094L130.12 25.9188C129.839 25.6858 129.428 25.4939 128.969 25.4939C128.153 25.4939 127.687 25.9599 127.687 26.5492C127.687 27.1865 128.249 27.4332 128.77 27.6251C129.181 27.7759 129.62 27.9541 129.62 28.331C129.62 28.653 129.38 28.9135 128.887 28.9135C128.441 28.9135 128.112 28.7353 127.783 28.468L127.482 28.886C127.831 29.1807 128.338 29.4 128.866 29.4Z"></path><path     fill="#131926"  d=""></path><path     fill="#131926"  d="M132.468 29.3109L135.627 29.3109L135.627 28.7695L134.236 28.7695C133.982 28.7695 133.674 28.797 133.413 28.8175C134.592 27.7005 135.387 26.6794 135.387 25.6721C135.387 24.7812 134.818 24.1987 133.92 24.1987C133.283 24.1987 132.844 24.4865 132.44 24.932L132.803 25.2883C133.084 24.9525 133.434 24.7058 133.845 24.7058C134.469 24.7058 134.77 25.1239 134.77 25.6995C134.77 26.5629 134.044 27.5635 132.468 28.9409L132.468 29.3109Z"></path><path d="M115.995 27.75L129.99 36.9904L124.044 38.6913L127.044 43.8875L124.446 45.3875L121.446 40.1913L117 44.4904L115.995 27.75Z"   fill="#FFFFFF" ></path><path d="M115.247 27.7953L115.157 26.298L116.409 27.1245L130.404 36.3649L131.765 37.2633L130.197 37.7119L125.174 39.1486L128.069 44.1624L124.172 46.4124L121.277 41.3986L117.522 45.03L116.349 46.1634L116.252 44.5357L115.247 27.7953ZM116.834 29.2027L117.651 42.8181L120.925 39.6525L121.616 38.9848L124.721 44.3633L126.02 43.6133L122.915 38.2348L123.838 37.9706L128.217 36.7182L116.834 29.2027Z" fill-rule="evenodd"  fill="#000000" ></path><path d="M113.928 36.2443C113.929 36.2432 113.929 36.2421 113.931 36.241C113.934 36.2366 113.937 36.2311 113.939 36.2267C113.94 36.2256 113.942 36.2234 113.943 36.2223C113.945 36.2179 113.948 36.2134 113.95 36.2079C113.951 36.2057 113.953 36.2046 113.953 36.2024C113.955 36.198 113.957 36.1925 113.959 36.1881C113.96 36.187 113.96 36.1848 113.961 36.1837C113.964 36.1781 113.966 36.1737 113.968 36.1682C113.969 36.1671 113.969 36.1649 113.97 36.1638C113.972 36.1583 113.975 36.1528 113.976 36.1484C113.976 36.1473 113.977 36.1462 113.977 36.1451C113.979 36.1395 113.98 36.134 113.982 36.1285C113.982 36.1274 113.983 36.1263 113.983 36.1252C113.986 36.1197 113.987 36.1142 113.988 36.1076C113.988 36.1064 113.988 36.1053 113.989 36.1042C113.99 36.0987 113.991 36.0921 113.993 36.0866C113.993 36.0855 113.993 36.0844 113.994 36.0833C113.996 36.0778 113.997 36.0723 113.998 36.0656C113.998 36.0634 113.998 36.0623 113.999 36.0601C114 36.0546 114 36.0491 114.001 36.0447C114.001 36.0414 114.001 36.0392 114.002 36.0359C114.003 36.0248 114.003 36.0138 114.003 36.0028L114.003 36.0006C114.003 35.9928 114.003 35.9862 114.003 35.9785C114.003 35.9763 114.003 35.9741 114.002 35.9719C114.002 35.9675 114.001 35.9619 114.001 35.9564C114.001 35.9531 114 35.9498 114 35.9476C114 35.9432 113.999 35.9399 113.999 35.9355C113.999 35.9322 113.998 35.9289 113.997 35.9255C113.996 35.9222 113.996 35.9178 113.994 35.9145C113.993 35.9112 113.993 35.9079 113.992 35.9046C113.991 35.9013 113.99 35.8969 113.99 35.8936C113.989 35.8902 113.989 35.888 113.988 35.8847C113.987 35.8803 113.986 35.877 113.985 35.8726L113.982 35.8649C113.981 35.8605 113.979 35.856 113.978 35.8516L113.976 35.8461C113.974 35.8406 113.971 35.8362 113.97 35.8307C113.97 35.8296 113.969 35.8285 113.969 35.8274C113.967 35.8219 113.965 35.8163 113.961 35.8108C113.961 35.8108 113.961 35.8097 113.96 35.8097C113.939 35.7656 113.91 35.7248 113.875 35.6895L112.782 34.5963C112.61 34.4243 112.331 34.4243 112.158 34.5963C111.986 34.7684 111.986 35.0475 112.158 35.2207L112.498 35.5604L109.942 35.5604L109.942 33.0068L110.282 33.3465C110.368 33.4326 110.48 33.4756 110.594 33.4756C110.706 33.4756 110.82 33.4326 110.906 33.3465C111.078 33.1745 111.078 32.8954 110.906 32.7222L109.813 31.6291C109.788 31.6048 109.762 31.5838 109.733 31.5662C109.732 31.5651 109.73 31.564 109.729 31.5629C109.726 31.5607 109.722 31.5585 109.719 31.5574C109.716 31.5552 109.713 31.5541 109.71 31.5518C109.708 31.5507 109.706 31.5496 109.704 31.5485C109.699 31.5463 109.695 31.5441 109.69 31.5419C109.689 31.5408 109.687 31.5408 109.686 31.5397C109.68 31.5375 109.675 31.5353 109.67 31.5331C109.67 31.5331 109.669 31.5331 109.669 31.532C109.644 31.521 109.616 31.5132 109.589 31.5077L109.589 31.5077C109.582 31.5066 109.574 31.5055 109.568 31.5044L109.563 31.5044C109.558 31.5033 109.551 31.5033 109.546 31.5022C109.542 31.5022 109.538 31.5022 109.535 31.5011C109.531 31.5011 109.527 31.5 109.524 31.5C109.516 31.5 109.509 31.5 109.502 31.5C109.499 31.5 109.496 31.5 109.494 31.5C109.49 31.5 109.485 31.5 109.481 31.5C109.366 31.5055 109.262 31.5552 109.187 31.6324L108.097 32.7222C107.925 32.8943 107.925 33.1734 108.097 33.3465C108.27 33.5186 108.549 33.5186 108.722 33.3465L109.062 33.0068L109.062 35.5593L106.507 35.5593L106.847 35.2196C107.019 35.0475 107.019 34.7684 106.847 34.5952C106.674 34.4221 106.395 34.4232 106.222 34.5952L105.132 35.6851C105.055 35.7601 105.006 35.8638 105 35.9785C105 35.9829 105 35.9873 105 35.9917C105 35.9939 105 35.9972 105 35.9994C105 36.0072 105 36.0138 105 36.0215C105 36.0248 105.001 36.0292 105.001 36.0325C105.001 36.0359 105.001 36.0403 105.002 36.0436C105.003 36.0491 105.003 36.0557 105.004 36.0612C105.004 36.0623 105.004 36.0634 105.004 36.0656C105.006 36.0723 105.007 36.08 105.008 36.0866L105.008 36.0866C105.013 36.1153 105.022 36.1417 105.032 36.1682C105.032 36.1682 105.032 36.1693 105.033 36.1693C105.035 36.1748 105.038 36.1804 105.04 36.1848C105.041 36.1859 105.041 36.187 105.042 36.1892C105.044 36.1936 105.046 36.198 105.049 36.2024C105.05 36.2046 105.051 36.2068 105.052 36.209C105.053 36.2123 105.055 36.2146 105.057 36.2179C105.06 36.2212 105.062 36.2245 105.063 36.2278C105.064 36.2289 105.065 36.2311 105.066 36.2322C105.084 36.2609 105.105 36.2874 105.129 36.3116L106.222 37.4048C106.308 37.4908 106.421 37.5338 106.534 37.5338C106.647 37.5338 106.761 37.4908 106.847 37.4048C107.019 37.2327 107.019 36.9536 106.847 36.7804L106.507 36.4418L109.059 36.4418L109.059 38.9943L108.72 38.6546C108.547 38.4825 108.267 38.4825 108.095 38.6546C107.923 38.8266 107.923 39.1057 108.095 39.2789L109.188 40.372C109.225 40.4084 109.264 40.436 109.309 40.457L109.31 40.4581C109.315 40.4603 109.321 40.4636 109.326 40.4658L109.33 40.4669C109.334 40.4691 109.34 40.4713 109.345 40.4724C109.347 40.4735 109.349 40.4735 109.351 40.4746C109.355 40.4757 109.359 40.4779 109.364 40.479C109.366 40.4801 109.369 40.4812 109.371 40.4812C109.376 40.4824 109.379 40.4835 109.384 40.4846C109.387 40.4857 109.39 40.4868 109.392 40.4868C109.396 40.4879 109.4 40.489 109.403 40.489C109.407 40.4901 109.41 40.4901 109.413 40.4912C109.417 40.4923 109.421 40.4923 109.424 40.4934C109.428 40.4945 109.431 40.4945 109.435 40.4956C109.44 40.4967 109.443 40.4967 109.448 40.4967C109.451 40.4967 109.454 40.4978 109.458 40.4978C109.462 40.4978 109.467 40.4989 109.472 40.4989C109.474 40.4989 109.476 40.4989 109.48 40.5C109.487 40.5 109.494 40.5 109.502 40.5C109.503 40.5 109.504 40.5 109.505 40.5C109.512 40.5 109.517 40.5 109.524 40.5C109.528 40.5 109.533 40.4989 109.537 40.4989C109.539 40.4989 109.542 40.4989 109.545 40.4978C109.55 40.4978 109.556 40.4967 109.561 40.4956C109.562 40.4956 109.565 40.4956 109.566 40.4945C109.571 40.4934 109.578 40.4923 109.583 40.4912C109.584 40.4912 109.585 40.4912 109.587 40.4901C109.592 40.489 109.599 40.4879 109.604 40.4857C109.605 40.4857 109.606 40.4857 109.608 40.4846C109.613 40.4835 109.62 40.4812 109.625 40.4801L109.629 40.479C109.634 40.4768 109.64 40.4757 109.646 40.4735C109.647 40.4735 109.648 40.4724 109.649 40.4724C109.655 40.4702 109.66 40.468 109.666 40.4658L109.67 40.4647C109.676 40.4625 109.68 40.4603 109.686 40.4581C109.687 40.457 109.689 40.457 109.69 40.4559C109.695 40.4537 109.7 40.4515 109.705 40.4482C109.706 40.4471 109.708 40.4471 109.709 40.4459C109.713 40.4437 109.719 40.4404 109.723 40.4382C109.724 40.4371 109.727 40.436 109.728 40.436C109.732 40.4327 109.738 40.4305 109.742 40.4272C109.743 40.4261 109.744 40.4261 109.745 40.425C109.751 40.4217 109.756 40.4173 109.762 40.414L109.763 40.4129C109.783 40.3985 109.801 40.3831 109.817 40.3654L110.907 39.2756C111.079 39.1035 111.079 38.8244 110.907 38.6512C110.735 38.4792 110.456 38.4792 110.283 38.6512L109.942 38.9943L109.942 36.4418L112.494 36.4418L112.155 36.7815C111.982 36.9536 111.982 37.2327 112.155 37.4059C112.241 37.4919 112.353 37.5349 112.467 37.5349C112.579 37.5349 112.693 37.4919 112.779 37.4059L113.869 36.316C113.885 36.2995 113.902 36.2807 113.916 36.262L113.917 36.2609C113.921 36.2543 113.924 36.2498 113.928 36.2443Z"   fill="#000000" ></path><path   fill-rule="evenodd"  fill="#000000"  d="M120.52 46.8633L119.285 47.5977L119.745 48.3711L120.98 47.6367L120.52 46.8633ZM116.816 49.0664L114.348 50.5352L114.808 51.3086L117.277 49.8399L116.816 49.0664ZM111.879 52.0039L109.41 53.4727L109.87 54.2461L112.339 52.7774L111.879 52.0039ZM106.941 54.9414L104.473 56.4102L104.933 57.1836L107.402 55.7149L106.941 54.9414ZM102.004 57.8789L99.5351 59.3477L99.9953 60.1211L102.464 58.6524L102.004 57.8789ZM97.0664 60.8164L94.5977 62.2851L95.0578 63.0587L97.5266 61.5899L97.0664 60.8164ZM92.1289 63.7539L89.6602 65.2227L90.1204 65.9961L92.5891 64.5273L92.1289 63.7539ZM87.1915 66.6914L84.7226 68.1602L85.1828 68.9336L87.6515 67.4649L87.1915 66.6914ZM82.2539 69.629L79.7852 71.0976L80.2453 71.8712L82.7141 70.4024L82.2539 69.629ZM77.3164 72.5664L74.8477 74.0352L75.3078 74.8086L77.7766 73.3398L77.3164 72.5664ZM72.3789 75.5039L69.9102 76.9727L70.3703 77.7461L72.8391 76.2774L72.3789 75.5039ZM67.4414 78.4415L64.9727 79.9101L65.4328 80.6837L67.9016 79.2149L67.4414 78.4415ZM62.5039 81.3789L61.2695 82.1133L61.7297 82.8867L62.9641 82.1523L62.5039 81.3789Z"></path></svg>