<svg xmlns="http://www.w3.org/2000/svg" xmlns:xlink="http://www.w3.org/1999/xlink" width="234" height="120" viewBox="0 0 234 120" fill="none"><path     fill="#DFE1ED" fill-opacity="0.4" d="M69.5 -2.01454e-14L232 -2.01454e-14C233.105 -2.01454e-14 234 0.895431 234 2L234 118C234 119.105 233.105 120 232 120L69.5 120C68.3954 120 67.5 119.105 67.5 118L67.5 2C67.5 0.895431 68.3954 -2.02807e-14 69.5 -2.01454e-14Z"></path><path     fill="#FFFFFF"  d="M70 1.5L231.5 1.5C232.052 1.5 232.5 1.94772 232.5 2.5L232.5 33.5C232.5 34.0523 232.052 34.5 231.5 34.5L70 34.5C69.4477 34.5 69 34.0523 69 33.5L69 2.5C69 1.94772 69.4477 1.5 70 1.5Z"></path><path d="M75.4508 29.55L75.4508 5.25L74.5508 5.25L74.5508 30.45L225.751 30.45L225.751 29.55L75.4508 29.55Z" fill-rule="evenodd"  fill="#656A85" ></path><path d="M3 0L60 0C61.6569 0 63 1.34315 63 3L63 117C63 118.657 61.6569 120 60 120L3 120C1.34315 120 0 118.657 0 117L0 3C0 1.34315 1.34315 0 3 0ZM3 1.5C2.17158 1.5 1.5 2.17158 1.5 3L1.5 117C1.5 117.828 2.17158 118.5 3 118.5L60 118.5C60.8284 118.5 61.5 117.828 61.5 117L61.5 3C61.5 2.17158 60.8284 1.5 60 1.5L3 1.5Z" fill-rule="evenodd"  fill="#656A85" ></path><path d="M3 19.5L46.5 19.5L46.5 25.5L3 25.5L3 19.5Z"   fill="#DFE1ED" ></path><path d="M3 28.5L46.5 28.5L46.5 34.5L3 34.5L3 28.5Z"   fill="#9EA7E8" ></path><path d="M3 36L46.5 36L46.5 42L3 42L3 36Z"   fill="#9EA7E8" ></path><path d="M54.0001 28.5001C57.3138 28.5001 60.0001 25.8138 60.0001 22.5001C60.0001 19.1863 57.3138 16.5 54.0001 16.5C50.6863 16.5 48 19.1863 48 22.5001C48 25.8138 50.6863 28.5001 54.0001 28.5001ZM54.0001 17.4231C56.804 17.4231 59.077 19.6961 59.077 22.5001C59.077 25.304 56.804 27.577 54.0001 27.577C51.1961 27.577 48.9231 25.304 48.9231 22.5001C48.9231 19.6961 51.1961 17.4231 54.0001 17.4231Z" fill-rule="evenodd"  fill="#656A85" ></path><path d="M49.8477 22.5001C49.8477 22.755 50.0543 22.9617 50.3092 22.9617L57.7195 22.9617C57.9744 22.9617 58.181 22.755 58.181 22.5001C58.181 22.2452 57.9744 22.0386 57.7195 22.0386L50.3092 22.0386C50.0543 22.0386 49.8477 22.2452 49.8477 22.5001Z" fill-rule="evenodd"  fill="#656A85" ></path><path d="M54.0013 18.3467C53.7464 18.3467 53.5398 18.5533 53.5398 18.8082L53.5398 26.2185C53.5398 26.4734 53.7464 26.6801 54.0013 26.6801C54.2563 26.6801 54.4629 26.4734 54.4629 26.2185L54.4629 18.8082C54.4629 18.5533 54.2563 18.3467 54.0013 18.3467Z" fill-rule="evenodd"  fill="#656A85" ></path><path d="M81.9275 20.3042L78.4092 12.564L77.5898 12.9364L81.3398 21.1864L81.5715 21.6961L82.0195 21.3602L84.7495 19.3127L87.4795 21.3602L87.6977 21.5238L87.9437 21.4061L104.963 13.2665L122.75 25.1246L123.034 25.3137L123.292 25.0919L138.792 11.806L154.263 21.3828L154.399 21.4671L154.558 21.4464L171.734 19.206L182.911 21.4414L183.024 21.464L183.134 21.4295L221.384 9.42953L221.115 8.5708L182.975 20.5363L171.838 18.3089L171.765 18.2943L171.691 18.3039L154.6 20.5332L138.986 10.8675L138.707 10.6943L138.457 10.9085L122.965 24.1866L105.249 12.3757L105.036 12.2338L104.805 12.3442L87.8013 20.4765L85.0195 18.3902L84.7495 18.1877L84.4795 18.3902L81.9275 20.3042Z" fill-rule="evenodd"  fill="#495AD4" ></path><path d="M108 6L151.5 6L151.5 30L108 30L108 6Z"   fill="#495AD4" fill-opacity="0.2"></path><path d="M151.995 27.75L165.99 36.9904L160.044 38.6913L163.044 43.8875L160.446 45.3875L157.446 40.1913L153 44.4904L151.995 27.75Z"   fill="#FFFFFF" ></path><path d="M151.247 27.7953L151.157 26.298L152.409 27.1245L166.404 36.3649L167.765 37.2633L166.197 37.7119L161.174 39.1486L164.069 44.1624L160.172 46.4124L157.277 41.3986L153.522 45.03L152.349 46.1634L152.252 44.5357L151.247 27.7953ZM152.834 29.2027L153.651 42.8181L156.925 39.6525L157.616 38.9848L160.721 44.3633L162.02 43.6133L158.915 38.2348L159.838 37.9706L164.217 36.7182L152.834 29.2027Z" fill-rule="evenodd"  fill="#000000" ></path><path d="M149.928 36.2443C149.929 36.2432 149.929 36.2421 149.931 36.241C149.934 36.2366 149.937 36.2311 149.939 36.2267C149.94 36.2256 149.942 36.2234 149.943 36.2223C149.945 36.2179 149.948 36.2134 149.95 36.2079C149.951 36.2057 149.953 36.2046 149.953 36.2024C149.955 36.198 149.957 36.1925 149.959 36.1881C149.96 36.187 149.96 36.1848 149.961 36.1837C149.964 36.1781 149.966 36.1737 149.968 36.1682C149.969 36.1671 149.969 36.1649 149.97 36.1638C149.972 36.1583 149.975 36.1528 149.976 36.1484C149.976 36.1473 149.977 36.1462 149.977 36.1451C149.979 36.1395 149.98 36.134 149.982 36.1285C149.982 36.1274 149.983 36.1263 149.983 36.1252C149.986 36.1197 149.987 36.1142 149.988 36.1076C149.988 36.1064 149.988 36.1053 149.989 36.1042C149.99 36.0987 149.991 36.0921 149.993 36.0866C149.993 36.0855 149.993 36.0844 149.994 36.0833C149.996 36.0778 149.997 36.0723 149.998 36.0656C149.998 36.0634 149.998 36.0623 149.999 36.0601C150 36.0546 150 36.0491 150.001 36.0447C150.001 36.0414 150.001 36.0392 150.002 36.0359C150.003 36.0248 150.003 36.0138 150.003 36.0028L150.003 36.0006C150.003 35.9928 150.003 35.9862 150.003 35.9785C150.003 35.9763 150.003 35.9741 150.002 35.9719C150.002 35.9675 150.001 35.9619 150.001 35.9564C150.001 35.9531 150 35.9498 150 35.9476C150 35.9432 149.999 35.9399 149.999 35.9355C149.999 35.9322 149.998 35.9289 149.997 35.9255C149.996 35.9222 149.996 35.9178 149.994 35.9145C149.993 35.9112 149.993 35.9079 149.992 35.9046C149.991 35.9013 149.99 35.8969 149.99 35.8936C149.989 35.8902 149.989 35.888 149.988 35.8847C149.987 35.8803 149.986 35.877 149.985 35.8726L149.982 35.8649C149.981 35.8605 149.979 35.856 149.978 35.8516L149.976 35.8461C149.974 35.8406 149.971 35.8362 149.97 35.8307C149.97 35.8296 149.969 35.8285 149.969 35.8274C149.967 35.8219 149.965 35.8163 149.961 35.8108C149.961 35.8108 149.961 35.8097 149.96 35.8097C149.939 35.7656 149.91 35.7248 149.875 35.6895L148.782 34.5963C148.61 34.4243 148.331 34.4243 148.158 34.5963C147.986 34.7684 147.986 35.0475 148.158 35.2207L148.498 35.5604L145.942 35.5604L145.942 33.0068L146.282 33.3465C146.368 33.4326 146.48 33.4756 146.594 33.4756C146.706 33.4756 146.82 33.4326 146.906 33.3465C147.078 33.1745 147.078 32.8954 146.906 32.7222L145.813 31.6291C145.788 31.6048 145.762 31.5838 145.733 31.5662C145.732 31.5651 145.73 31.564 145.729 31.5629C145.726 31.5607 145.722 31.5585 145.719 31.5574C145.716 31.5552 145.713 31.5541 145.71 31.5518C145.708 31.5507 145.706 31.5496 145.704 31.5485C145.699 31.5463 145.695 31.5441 145.69 31.5419C145.689 31.5408 145.687 31.5408 145.686 31.5397C145.68 31.5375 145.675 31.5353 145.67 31.5331C145.67 31.5331 145.669 31.5331 145.669 31.532C145.644 31.521 145.616 31.5132 145.589 31.5077L145.589 31.5077C145.582 31.5066 145.574 31.5055 145.568 31.5044L145.563 31.5044C145.558 31.5033 145.551 31.5033 145.546 31.5022C145.542 31.5022 145.538 31.5022 145.535 31.5011C145.531 31.5011 145.527 31.5 145.524 31.5C145.516 31.5 145.509 31.5 145.502 31.5C145.499 31.5 145.496 31.5 145.494 31.5C145.49 31.5 145.485 31.5 145.481 31.5C145.366 31.5055 145.262 31.5552 145.187 31.6324L144.097 32.7222C143.925 32.8943 143.925 33.1734 144.097 33.3465C144.27 33.5186 144.549 33.5186 144.722 33.3465L145.062 33.0068L145.062 35.5593L142.507 35.5593L142.847 35.2196C143.019 35.0475 143.019 34.7684 142.847 34.5952C142.674 34.4221 142.395 34.4232 142.222 34.5952L141.132 35.6851C141.055 35.7601 141.006 35.8638 141 35.9785C141 35.9829 141 35.9873 141 35.9917C141 35.9939 141 35.9972 141 35.9994C141 36.0072 141 36.0138 141 36.0215C141 36.0248 141.001 36.0292 141.001 36.0325C141.001 36.0359 141.001 36.0403 141.002 36.0436C141.003 36.0491 141.003 36.0557 141.004 36.0612C141.004 36.0623 141.004 36.0634 141.004 36.0656C141.006 36.0723 141.007 36.08 141.008 36.0866L141.008 36.0866C141.013 36.1153 141.022 36.1417 141.032 36.1682C141.032 36.1682 141.032 36.1693 141.033 36.1693C141.035 36.1748 141.038 36.1804 141.04 36.1848C141.041 36.1859 141.041 36.187 141.042 36.1892C141.044 36.1936 141.046 36.198 141.049 36.2024C141.05 36.2046 141.051 36.2068 141.052 36.209C141.053 36.2123 141.055 36.2146 141.057 36.2179C141.06 36.2212 141.062 36.2245 141.063 36.2278C141.064 36.2289 141.065 36.2311 141.066 36.2322C141.084 36.2609 141.105 36.2874 141.129 36.3116L142.222 37.4048C142.308 37.4908 142.421 37.5338 142.534 37.5338C142.647 37.5338 142.761 37.4908 142.847 37.4048C143.019 37.2327 143.019 36.9536 142.847 36.7804L142.507 36.4418L145.059 36.4418L145.059 38.9943L144.72 38.6546C144.548 38.4825 144.267 38.4825 144.095 38.6546C143.923 38.8266 143.923 39.1057 144.095 39.2789L145.188 40.372C145.225 40.4084 145.264 40.436 145.309 40.457L145.31 40.4581C145.315 40.4603 145.321 40.4636 145.326 40.4658L145.33 40.4669C145.334 40.4691 145.34 40.4713 145.345 40.4724C145.347 40.4735 145.349 40.4735 145.351 40.4746C145.355 40.4757 145.359 40.4779 145.364 40.479C145.366 40.4801 145.369 40.4812 145.371 40.4812C145.376 40.4824 145.379 40.4835 145.384 40.4846C145.387 40.4857 145.39 40.4868 145.392 40.4868C145.396 40.4879 145.4 40.489 145.403 40.489C145.407 40.4901 145.41 40.4901 145.413 40.4912C145.417 40.4923 145.421 40.4923 145.424 40.4934C145.428 40.4945 145.431 40.4945 145.435 40.4956C145.44 40.4967 145.443 40.4967 145.448 40.4967C145.451 40.4967 145.454 40.4978 145.458 40.4978C145.462 40.4978 145.467 40.4989 145.472 40.4989C145.474 40.4989 145.476 40.4989 145.48 40.5C145.487 40.5 145.494 40.5 145.502 40.5C145.503 40.5 145.504 40.5 145.505 40.5C145.512 40.5 145.517 40.5 145.524 40.5C145.528 40.5 145.533 40.4989 145.537 40.4989C145.539 40.4989 145.542 40.4989 145.545 40.4978C145.55 40.4978 145.556 40.4967 145.561 40.4956C145.562 40.4956 145.565 40.4956 145.566 40.4945C145.571 40.4934 145.578 40.4923 145.583 40.4912C145.584 40.4912 145.585 40.4912 145.587 40.4901C145.592 40.489 145.599 40.4879 145.604 40.4857C145.605 40.4857 145.606 40.4857 145.608 40.4846C145.613 40.4835 145.62 40.4812 145.625 40.4801L145.629 40.479C145.634 40.4768 145.64 40.4757 145.646 40.4735C145.647 40.4735 145.648 40.4724 145.649 40.4724C145.655 40.4702 145.66 40.468 145.666 40.4658L145.67 40.4647C145.676 40.4625 145.68 40.4603 145.686 40.4581C145.687 40.457 145.689 40.457 145.69 40.4559C145.695 40.4537 145.7 40.4515 145.705 40.4482C145.706 40.4471 145.708 40.4471 145.709 40.4459C145.713 40.4437 145.719 40.4404 145.723 40.4382C145.724 40.4371 145.727 40.436 145.728 40.436C145.732 40.4327 145.738 40.4305 145.742 40.4272C145.743 40.4261 145.744 40.4261 145.745 40.425C145.751 40.4217 145.756 40.4173 145.762 40.414L145.763 40.4129C145.783 40.3985 145.801 40.3831 145.817 40.3654L146.907 39.2756C147.079 39.1035 147.079 38.8244 146.907 38.6512C146.735 38.4792 146.456 38.4792 146.283 38.6512L145.942 38.9943L145.942 36.4418L148.494 36.4418L148.155 36.7815C147.982 36.9536 147.982 37.2327 148.155 37.4059C148.241 37.4919 148.353 37.5349 148.467 37.5349C148.579 37.5349 148.693 37.4919 148.779 37.4059L149.869 36.316C149.885 36.2995 149.902 36.2807 149.916 36.262L149.917 36.2609C149.921 36.2543 149.924 36.2498 149.928 36.2443Z"   fill="#000000" ></path></svg>