<svg xmlns="http://www.w3.org/2000/svg" xmlns:xlink="http://www.w3.org/1999/xlink" width="119.99999237060547"
  height="32" viewBox="0 0 119.99999237060547 32" fill="none">
  <path
    d="M21.4 1.40002L18 1.40002C17.8 1.40002 17.7 1.50002 17.7 1.70002L17.7 5.10002C17.7 5.30002 17.8 5.40002 18 5.40002L21.4 5.40002C21.6 5.40002 21.7 5.30002 21.7 5.10002L21.7 1.70002C21.7 1.50002 21.5 1.40002 21.4 1.40002Z"
    fill="url(#linear_0)">
  </path>
  <path
    d="M2.4 30.2C12.2 26 22.3 22.4 32.7 19.4C34 19 35.3 18.6 36.5 18.3C36.6 18.3 36.7 18.1 36.7 18L36.7 9.70002C36.7 9.50002 36.6 9.40002 36.4 9.40002L34.4 9.40002C34.2 9.40002 34.1 9.30002 34.1 9.10002L34.1 8.40002C34.1 8.20002 34 8.10002 33.8 8.10002L32.6 8.10002C32.4 8.10002 32.3 8.20002 32.3 8.40002L32.3 9.10002C32.3 9.30002 32.2 9.40002 32 9.40002L29.3 9.40002C29.1 9.40002 29 9.30002 29 9.10002L29 5.70002C29 5.50002 28.9 5.40002 28.7 5.40002L26 5.40002C25.8 5.40002 25.7 5.50002 25.7 5.70002L25.7 9.00002C25.7 9.20002 25.6 9.30002 25.4 9.30002L22 9.30002C21.8 9.30002 21.7 9.40002 21.7 9.60002L21.7 19C21.7 19.1 21.6 19.3 21.5 19.3L18 20.2C17.8 20.2 17.6 20.1 17.6 19.9L17.6 9.70002C17.6 9.50002 17.5 9.40002 17.3 9.40002L13.2 9.40002C13 9.40002 12.9 9.30002 12.9 9.10002L12.9 5.70002C12.9 5.50002 12.8 5.40002 12.6 5.40002L8 5.40002C7.8 5.40002 7.7 5.50002 7.7 5.70002L7.7 9.00002C7.7 9.20002 7.6 9.30002 7.4 9.30002L1.4 9.30002C1.2 9.30002 1.1 9.40002 1.1 9.60002L1.1 30.2C1.1 30.4 1.3 30.6 1.5 30.5C1.7 30.5 2 30.4 2.4 30.2ZM32.4 16.5L32.4 10.4C32.4 10.2 32.5 10.1 32.7 10.1L33.9 10.1C34.1 10.1 34.2 10.2 34.2 10.4L34.2 16.2C34.2 16.3 34.1 16.5 34 16.5L32.8 16.8C32.5 16.8 32.4 16.7 32.4 16.5ZM25.7 17.9L25.7 10.3C25.7 10.1 25.8 10 26 10L28.7 10C28.9 10 29 10.1 29 10.3L29 17.2C29 17.3 28.9 17.5 28.8 17.5L26.1 18.1C25.9 18.3 25.7 18.1 25.7 17.9ZM7.7 22.6L7.7 10.4C7.7 10.2 7.8 10 8 10L12.7 10C12.9 10 13 10.1 13 10.3L13 21.2C13 21.3 12.9 21.5 12.8 21.5L8.1 22.8C7.9 22.9 7.7 22.8 7.7 22.6Z"
    fill="url(#linear_1)">
  </path>
  <path
    d="M47 16.3L49 16.3C49.1 16.3 49.2 16.2 49.2 16.1L49.2 9.3C49.2 9.1 49.1 9 49 9L47 9C46.9 9 46.8 9.1 46.8 9.2L46.8 16C46.8 16.2 46.9 16.3 47 16.3Z"
    fill="#495AD4">
  </path>
  <path
    d="M48.9 2.89995L46.9 3.89995C46.8 3.89995 46.8 3.99995 46.8 4.09995L46.8 5.89995C46.8 5.99995 46.7 6.09995 46.6 6.09995L45.2 6.09995C45.1 6.09995 45 6.19995 45 6.29995L45 7.89995C45 7.99995 45.1 8.09995 45.2 8.09995L50.9 8.09995C51 8.09995 51.1 7.99995 51.1 7.89995L51.1 6.29995C51.1 6.19995 51 6.09995 50.9 6.09995L49.5 6.09995C49.4 6.09995 49.3 5.99995 49.3 5.89995L49.3 3.09995C49.2 2.89995 49.1 2.79995 48.9 2.89995Z"
    fill="#495AD4">
  </path>
  <path
    d="M52.8 16.3L54.8 16.3C54.9 16.3 55 16.2 55 16.1L55 6.29998C55 6.19998 54.9 6.09998 54.8 6.09998L52.8 6.09998C52.7 6.09998 52.6 6.19998 52.6 6.29998L52.6 16.1C52.6 16.2 52.7 16.3 52.8 16.3Z"
    fill="#495AD4">
  </path>
  <path
    d="M73 7.5C72.7 7 72.3 6.7 71.8 6.4C71.3 6.2 70.7 6 70 6C69.2 6 68.5 6.2 67.8 6.5C67.2 6.8 66.7 7.2 66.2 7.8C66.1 7.9 65.9 7.9 65.8 7.8C65.5 7.3 65.2 6.9 64.7 6.6C64.2 6.3 63.5 6.1 62.6 6.1C61.8 6.1 61 6.3 60.4 6.6C59.9 6.8 59.5 7.2 59.1 7.6C59 7.8 58.7 7.7 58.7 7.5L58.7 6.3C58.7 6.2 58.6 6.1 58.5 6.1L56.7 6.1C56.6 6.1 56.5 6.2 56.5 6.3L56.5 16.1C56.5 16.2 56.6 16.3 56.7 16.3L58.7 16.3C58.8 16.3 58.9 16.2 58.9 16.1L58.9 12C58.9 11.1 58.9 10.4 59 10.1C59.1 9.8 59.2 9.5 59.3 9.2C59.5 8.8 59.8 8.6 60.2 8.3C60.6 8.1 61 8 61.5 8C62.3 8 62.8 8.2 63.2 8.7C63.5 9.2 63.7 10.1 63.7 11.3L63.7 16C63.7 16.1 63.8 16.2 63.9 16.2L65.9 16.2C66 16.2 66.1 16.1 66.1 16L66.1 12C66.1 10.5 66.3 9.5 66.7 8.9C67.1 8.3 67.8 8 68.8 8C69.6 8 70.1 8.2 70.4 8.6C70.7 9 70.9 9.9 70.9 11.3L70.9 16C70.9 16.1 71 16.2 71.1 16.2L73.1 16.2C73.2 16.2 73.3 16.1 73.3 16L73.3 9.6C73.3 9 73.3 8.6 73.2 8.3C73.2 8 73.1 7.8 73 7.5Z"
    fill="#495AD4">
  </path>
  <path
    d="M92.7 6.09998C91 6.09998 89.6 6.59998 88.5 7.49998C87.4 8.39997 86.9 9.69998 86.9 11.2C86.9 12.7 87.4 14 88.4 14.9C89.4 15.9 90.8 16.3 92.4 16.3C93 16.3 93.5 16.2 94 16.1C94.5 16 94.9 15.8 95.3 15.6C95.4 15.6 95.4 15.5 95.4 15.4L95.4 13.4C95.4 13.3 95.2 13.2 95.1 13.3C94.8 13.6 94.5 13.8 94.2 13.9C93.7 14.1 93.2 14.2 92.6 14.2C91.6 14.2 90.7 13.9 90.2 13.3C89.6 12.7 89.3 12 89.3 11C89.3 9.99998 89.6 9.29998 90.2 8.69998C90.9 8.29998 91.7 7.99998 92.6 7.99998C93.2 7.99998 93.7 8.09998 94.2 8.29998C94.6 8.39997 94.9 8.59998 95.2 8.89997C95.3 8.99998 95.5 8.89997 95.5 8.79998L95.5 6.79998C95.5 6.69998 95.5 6.59998 95.4 6.59998C95 6.39998 94.7 6.29998 94.3 6.19998C93.8 6.09998 93.3 6.09998 92.7 6.09998Z"
    fill="#495AD4">
  </path>
  <path
    d="M106.7 7.49994C106.4 6.99994 105.9 6.69994 105.4 6.39994C104.8 6.19994 104.2 5.99994 103.4 5.99994C102.5 5.99994 101.7 6.19994 101 6.49994C100.5 6.69994 100.1 7.09994 99.7 7.49994C99.6 7.69994 99.3 7.59994 99.3 7.29994L99.3 2.99994C99.3 2.89994 99.2 2.79994 99.1 2.89994L97.2 3.89994C97.1 3.89994 97.1 3.99994 97.1 4.09994L97.1 16.1999C97.1 16.2999 97.2 16.3999 97.3 16.3999L99.3 16.3999C99.4 16.3999 99.5 16.2999 99.5 16.1999L99.5 11.9999C99.5 11.1999 99.5 10.5999 99.6 10.1999C99.7 9.79994 99.8 9.49994 100 9.29994C100.3 8.89994 100.6 8.69994 101 8.49994C101.4 8.29994 102 8.19994 102.5 8.19994C103.4 8.19994 104 8.39994 104.3 8.89994C104.6 9.29994 104.8 10.1999 104.8 11.5999L104.8 16.2999C104.8 16.3999 104.9 16.4999 105 16.4999L107 16.4999C107.1 16.4999 107.2 16.3999 107.2 16.2999L107.2 10.5999C107.2 9.69994 107.2 8.99994 107.1 8.59994C107 8.09994 106.9 7.79994 106.7 7.49994Z"
    fill="#495AD4">
  </path>
  <path
    d="M118.6 9.29998C118.3 8.69998 118 8.09998 117.5 7.59998C117 7.09998 116.5 6.69998 115.8 6.49998C115.2 6.19998 114.5 6.09998 113.8 6.09998C113.1 6.09998 112.5 6.19998 111.8 6.49998C111.2 6.79998 110.6 7.09998 110.1 7.59998C109.6 8.09998 109.2 8.59998 109 9.19998C108.7 9.79998 108.6 10.5 108.6 11.2C108.6 11.9 108.7 12.5 109 13.2C109.3 13.8 109.6 14.4 110.1 14.9C110.6 15.4 111.1 15.8 111.8 16C112.4 16.3 113.1 16.4 113.7 16.4C114.4 16.4 115 16.3 115.7 16C116.3 15.7 116.9 15.4 117.4 14.9C117.9 14.4 118.3 13.9 118.5 13.3C118.8 12.7 118.9 12 118.9 11.3C118.9 10.5 118.8 9.89997 118.6 9.29998ZM115.9 13.5C115.3 14.1 114.7 14.4 113.9 14.4C113.1 14.4 112.4 14.1 111.9 13.5C111.3 12.9 111.1 12.1 111.1 11.3C111.1 10.4 111.4 9.69998 111.9 9.09998C112.5 8.49998 113.1 8.19998 113.9 8.19998C114.7 8.19998 115.4 8.49998 115.9 9.09998C116.5 9.69998 116.7 10.5 116.7 11.3C116.7 12.1 116.4 12.9 115.9 13.5Z"
    fill="#495AD4">
  </path>
  <path
    d="M80.2 6.09998C78.6 6.09998 77.3 6.59998 76.3 7.49998C75.3 8.49998 74.8 9.69998 74.8 11.2C74.8 12.8 75.3 14 76.3 14.9C77.3 15.8 78.6 16.3 80.2 16.3C81.3 16.3 82.4 16.1 83.2 15.6C83.9 15.2 84.6 14.6 85.1 13.8C85.2 13.7 85.1 13.4 84.9 13.4L82.7 13.4C82.6 13.4 82.5 13.4 82.4 13.5C82.3 13.6 82.1 13.7 82 13.8C81.5 14.1 80.9 14.2 80.1 14.2C79.2 14.2 78.6 14 78.1 13.4C77.8 13.1 77.6 12.8 77.5 12.5L77.5 12.5L77.5 12.5C77.4 12.2 77.3 11.8 77.3 11.5L77.3 11.5L77.3 11.5L77.3 11.4C77.3 10.7 77.4 9.99998 77.4 9.89997L77.4 9.89997C77.6 9.19998 77.9 8.69998 78.4 8.29998C78.9 7.99998 79.5 7.79998 80.3 7.79998C81.1 7.79998 81.8 7.99998 82.2 8.29998C82.5 8.49998 82.8 8.89997 82.9 9.29998C83 9.39997 82.8 9.59998 82.7 9.59998L80.2 9.59998C80 9.59998 79.9 9.69998 79.8 9.79998L78.7 11.1C78.6 11.2 78.7 11.5 78.9 11.5L83.4 11.5L85.3 11.5C85.4 11.5 85.5 11.4 85.5 11.3L85.5 11C85.5 9.39997 85 8.19998 84.1 7.29998C83.2 6.49998 81.9 6.09998 80.2 6.09998Z"
    fill="#495AD4">
  </path>
  <path
    d="M52.6 4.09995L52.6 4.99995C52.6 5.09995 52.7 5.19995 52.8 5.19995L54.8 5.19995C54.9 5.19995 55 5.09995 55 4.99995L55 3.09995C55 2.89995 54.8 2.79995 54.7 2.89995C54.1 3.19995 53.1 3.69995 52.7 3.89995C52.6 3.89995 52.6 3.99995 52.6 4.09995Z"
    fill="#495AD4">
  </path>
  <path
    d="M50.1 25.2L53.3 25.2C53.3 25.2 53.4 25.2 53.4 25.1L53.4 24.1C53.4 24.1 53.4 24 53.3 24L49.8 24C49.8 23.8 49.8 23.5 49.8 23.3L49.8 22.3L52.9 22.3C52.9 22.3 53 22.3 53 22.2L53 21.2C53 21.2 53 21.1 52.9 21.1L45.6 21.1C45.6 21.1 45.5 21.1 45.5 21.2L45.5 22.2C45.5 22.2 45.5 22.3 45.6 22.3L48.6 22.3L48.6 23.2C48.6 23.4 48.6 23.7 48.6 23.9L45.3 23.9C45.3 23.9 45.2 23.9 45.2 24L45.2 25C45.2 25 45.2 25.1 45.3 25.1L48.4 25.1C48 26.3 47.1 27.4 45 28.2C45 28.2 44.9 28.3 45 28.3L45.7 29.2C45.7 29.2 45.7 29.2 45.8 29.2C47.9 28.4 48.9 27.3 49.4 26C50.2 27.5 51.3 28.6 53 29.1L53.1 29.1L53.8 28.2L53.8 28.1C51.9 27.8 50.7 26.7 50.1 25.2Z"
    fill="#495AD4">
  </path>
  <path
    d="M73.6 20.4L72.6 20.7C72.6 20.7 72.6 20.7 72.6 20.8L72.6 26.1L69.6 26.6C69.6 26.6 69.5 26.6 69.5 26.7L69.5 27.6C69.5 27.6 69.5 27.7 69.6 27.7L72.5 27.2L72.5 29.3C72.5 29.3 72.5 29.4 72.6 29.4L73.6 29.4C73.6 29.4 73.7 29.4 73.7 29.3L73.7 27L74.8 26.8C74.8 26.8 74.9 26.8 74.9 26.7L74.9 25.8C74.9 25.8 74.9 25.7 74.8 25.7L73.8 25.8L73.6 20.4C73.7 20.4 73.7 20.4 73.6 20.4Z"
    fill="#495AD4">
  </path>
  <path
    d="M70.2 21.8L70.9 21.1L71 21.1L72.4 22.4L72.4 22.5L71.7 23.2L71.6 23.2L70.2 21.8C70.2 21.9 70.2 21.9 70.2 21.8Z"
    fill="#495AD4">
  </path>
  <path d="M70 24.4L70.7 23.7L70.8 23.7L72.2 25L72.2 25.1L71.5 25.8L71.4 25.8L70 24.4C69.9 24.4 69.9 24.4 70 24.4Z"
    fill="#495AD4">
  </path>
  <path
    d="M68.5 24.4L69.7 24.3C69.7 24.3 69.8 24.3 69.8 24.2L69.8 23.3C69.8 23.3 69.8 23.2 69.7 23.2L68.5 23.2L68.5 21.8L69.4 21.6C69.4 21.6 69.4 21.6 69.4 21.5L69.4 20.5C69.4 20.5 69.4 20.4 69.3 20.4L66.2 21.1C66.2 21.1 66.2 21.1 66.2 21.2L66.2 22.2C66.2 22.2 66.2 22.3 66.3 22.3L67.5 22L67.5 23.1L66.1 23.1C66.1 23.1 66 23.1 66 23.2L66 24.1C66 24.1 66 24.2 66.1 24.2L67.3 24.2C67 25.1 66.5 26.1 65.9 26.7C65.9 26.7 65.9 26.7 65.9 26.8L66.4 27.7L66.5 27.7C66.8 27.2 67.2 26.6 67.5 25.9L67.5 29.2C67.5 29.2 67.5 29.3 67.6 29.3L68.6 29.3C68.6 29.3 68.7 29.3 68.7 29.2L68.7 25.5C68.9 25.8 69.1 26.2 69.2 26.4L69.3 26.4L69.9 25.6L69.9 25.5C69.5 25.4 68.8 24.6 68.5 24.4Z"
    fill="#495AD4">
  </path>
  <path
    d="M79.7 24.7L78.8 24.9L78.8 23.5L79.7 23.5C79.7 23.5 79.8 23.5 79.8 23.4L79.8 22.5C79.8 22.5 79.8 22.4 79.7 22.4L78.8 22.4L78.8 20.4C78.8 20.4 78.8 20.3 78.7 20.3L77.7 20.6C77.7 20.6 77.7 20.6 77.7 20.7001L77.7 22.4L76.7 22.4C76.7 22.4 76.6 22.4 76.6 22.5L76.6 23.4C76.6 23.4 76.6 23.5 76.7 23.5L77.7 23.5L77.7 25.1C77.3 25.2 76.9 25.3 76.6 25.4C76.6 25.4 76.6 25.4 76.6 25.5L76.6 26.4C76.6 26.4 76.6 26.5 76.7 26.5L77.8 26.3L77.8 28.3C77.8 28.4 77.8 28.5 77.6 28.5C77.5 28.5 77 28.5 76.8 28.5C76.8 28.5 76.7 28.5 76.7 28.6L76.7 29.5C76.7 29.5 76.7 29.6 76.8 29.6L77.2 29.6C77.8 29.6 78.2 29.6 78.5 29.4C78.8 29.2 78.9 29 78.9 28.4L78.9 26.1C79.2 26 79.5 25.9 79.9 25.8C79.9 25.8 79.9 25.8 79.9 25.7L79.7 24.7C79.8 24.7 79.8 24.6 79.7 24.7Z"
    fill="#495AD4">
  </path>
  <path
    d="M83.4 27.5C84.2 26.7 84.8 25.5 85.1 24.2999C85.1 24.2 85.1 24.2 85 24.2L84.2 24.2L83.1 24.2L83.1 23L85.1 23C85.1 23 85.2 23 85.2 22.9L85.2 22C85.2 22 85.2 21.9 85.1 21.9L83.1 21.9L83.1 20.2999C83.1 20.2999 83.1 20.2 83 20.2L82 20.5C82 20.5 82 20.5 82 20.6L82 21L82 22L80 22C80 22 79.9 22 79.9 22.1L79.9 23C79.9 23 79.9 23.1 80 23.1L82 23.1L82 24.2L80.1 24.2C80.1 24.2 80 24.2 80 24.2999L80 25.2C80 25.2 80 25.2999 80.1 25.2999L80.3 25.2999C80.6 26.1 81.1 27 81.7 27.6C81.1 28 80.3 28.2999 79.5 28.5C79.5 28.5 79.4 28.5999 79.5 28.5999L80 29.5C80 29.5 80 29.5 80.1 29.5C81 29.2 81.8 28.9 82.5 28.4C83.1 28.9 84.5 29.4 84.8 29.5999L84.9 29.5999L85.5 28.7999L85.5 28.7C85.2 28.2999 83.9 28 83.4 27.5ZM81.5 25.1L83.8 25.1C83.5 25.7 83.1 26.2999 82.6 26.7C82.1 26.2999 81.8 25.7999 81.5 25.1Z"
    fill="#495AD4">
  </path>
  <path
    d="M58 26.6L57.6 27L57.6 23.6C57.6 23.6 57.6 23.5 57.5 23.5L55.4 23.5C55.4 23.5 55.3 23.5 55.3 23.6L55.3 24.5C55.3 24.5 55.3 24.6 55.4 24.6L56.5 24.6L56.5 28L56 28.4L56 28.5L56.6 29.3L56.7 29.3L58.6 27.4L58.6 27.3L58 26.6C58.1 26.6 58 26.6 58 26.6Z"
    fill="#495AD4">
  </path>
  <path
    d="M62.4 26.7L63.9 26.7C63.9 26.7 64 26.7 64 26.6L64 25.8C64 25.8 64 25.7 63.9 25.7L61.7 25.7L61.7 25.1L63 25.1C63 25.1 63.1 25.1 63.1 25L63.1 22.4L64 22.4C64 22.4 64.1 22.4 64.1 22.3L64.1 21.5C64.1 21.5 64.1 21.4 64 21.4L63.1 21.4L63.1 20.2C63.1 20.2 63.1 20.1 63 20.1L62 20.7C62 20.7 62 20.7 62 20.8L62 21.7L60.3 21.7L60.3 20.5C60.3 20.5 60.3 20.4 60.2 20.4L59.3 20.7C59.3 20.7 59.3 20.7 59.3 20.8L59.3 21.7L58.4 21.7C58.4 21.7 58.3 21.7 58.3 21.8L58.3 22.6C58.3 22.6 58.3 22.7 58.4 22.7L59.3 22.7L59.3 25.3C59.3 25.3 59.3 25.4 59.4 25.4L60.7 25.4L60.7 26L58.6 26C58.6 26 58.5 26 58.5 26.1L58.5 26.9C58.5 26.9 58.5 27 58.6 27L60 27C59.6 27.7 58.3 28.4 58 28.5L58 28.6L58.7 29.4L58.8 29.4C59.1 29.2 59.5 29 59.8 28.7C60.1 28.4 60.4 28.1 60.7 27.7L60.7 29.5C60.7 29.5 60.7 29.6 60.8 29.6L61.8 29.6C61.8 29.6 61.9 29.6 61.9 29.5L61.9 27.5C62.4 28.2 63.1 28.9 63.7 29.4L63.7 29.4L64.4 28.6L64.4 28.5C63.6 27.9 62.9 27.3 62.4 26.7ZM60.3 24.4L60.3 22.6L62 22.6L62 23.1L60.9 23.1L60.8 23.1L60.6 23.8C60.6 23.8 60.6 23.9 60.7 23.9L62 23.9L62 24.4L60.3 24.4Z"
    fill="#495AD4">
  </path>
  <path d="M57.9 22.2L56.5 20.9L56.4 20.9L55.8 21.5L55.8 21.6L57.2 23L57.3 23L57.9 22.2L57.9 22.2Z" fill="#495AD4">
  </path>
  <defs>
    <linearGradient id="linear_0" x1="-499.83751907348636%" y1="512.5350005960464%" x2="139.3549809265137%"
      y2="-25.73249940395355%" gradientUnits="objectBoundingBox">
      <stop offset="0" stop-color="#663FDD" />
      <stop offset="0.5446" stop-color="#0090E3" />
      <stop offset="1" stop-color="#00C9C9" />
    </linearGradient>
    <linearGradient id="linear_1" x1="4.080618915129245%" y1="88.57585822538174%" x2="75.89972003872475%"
      y2="2.887379991556238%" gradientUnits="objectBoundingBox">
      <stop offset="0" stop-color="#663FDD" />
      <stop offset="0.5446" stop-color="#0090E3" />
      <stop offset="1" stop-color="#00C9C9" />
    </linearGradient>
  </defs>
</svg>